G04 #@! TF.GenerationSoftware,KiCad,Pcbnew,8.0.0-8.0.0-1~ubuntu20.04.1*
G04 #@! TF.CreationDate,2025-04-08T14:29:49+02:00*
G04 #@! TF.ProjectId,eeg-breakout,6565672d-6272-4656-916b-6f75742e6b69,1*
G04 #@! TF.SameCoordinates,Original*
G04 #@! TF.FileFunction,Copper,L1,Top*
G04 #@! TF.FilePolarity,Positive*
%FSLAX46Y46*%
G04 Gerber Fmt 4.6, Leading zero omitted, Abs format (unit mm)*
G04 Created by KiCad (PCBNEW 8.0.0-8.0.0-1~ubuntu20.04.1) date 2025-04-08 14:29:49*
%MOMM*%
%LPD*%
G01*
G04 APERTURE LIST*
G04 Aperture macros list*
%AMRoundRect*
0 Rectangle with rounded corners*
0 $1 Rounding radius*
0 $2 $3 $4 $5 $6 $7 $8 $9 X,Y pos of 4 corners*
0 Add a 4 corners polygon primitive as box body*
4,1,4,$2,$3,$4,$5,$6,$7,$8,$9,$2,$3,0*
0 Add four circle primitives for the rounded corners*
1,1,$1+$1,$2,$3*
1,1,$1+$1,$4,$5*
1,1,$1+$1,$6,$7*
1,1,$1+$1,$8,$9*
0 Add four rect primitives between the rounded corners*
20,1,$1+$1,$2,$3,$4,$5,0*
20,1,$1+$1,$4,$5,$6,$7,0*
20,1,$1+$1,$6,$7,$8,$9,0*
20,1,$1+$1,$8,$9,$2,$3,0*%
G04 Aperture macros list end*
G04 #@! TA.AperFunction,SMDPad,CuDef*
%ADD10RoundRect,0.050000X-0.050000X0.337500X-0.050000X-0.337500X0.050000X-0.337500X0.050000X0.337500X0*%
G04 #@! TD*
G04 #@! TA.AperFunction,SMDPad,CuDef*
%ADD11RoundRect,0.050000X-0.337500X0.050000X-0.337500X-0.050000X0.337500X-0.050000X0.337500X0.050000X0*%
G04 #@! TD*
G04 #@! TA.AperFunction,HeatsinkPad*
%ADD12R,2.800000X2.800000*%
G04 #@! TD*
G04 #@! TA.AperFunction,SMDPad,CuDef*
%ADD13RoundRect,0.140000X-0.140000X-0.170000X0.140000X-0.170000X0.140000X0.170000X-0.140000X0.170000X0*%
G04 #@! TD*
G04 #@! TA.AperFunction,SMDPad,CuDef*
%ADD14RoundRect,0.150000X0.150000X-0.875000X0.150000X0.875000X-0.150000X0.875000X-0.150000X-0.875000X0*%
G04 #@! TD*
G04 #@! TA.AperFunction,SMDPad,CuDef*
%ADD15RoundRect,0.135000X0.185000X-0.135000X0.185000X0.135000X-0.185000X0.135000X-0.185000X-0.135000X0*%
G04 #@! TD*
G04 #@! TA.AperFunction,SMDPad,CuDef*
%ADD16RoundRect,0.135000X-0.135000X-0.185000X0.135000X-0.185000X0.135000X0.185000X-0.135000X0.185000X0*%
G04 #@! TD*
G04 #@! TA.AperFunction,SMDPad,CuDef*
%ADD17RoundRect,0.135000X0.135000X0.185000X-0.135000X0.185000X-0.135000X-0.185000X0.135000X-0.185000X0*%
G04 #@! TD*
G04 #@! TA.AperFunction,ComponentPad*
%ADD18O,0.850000X0.850000*%
G04 #@! TD*
G04 #@! TA.AperFunction,ComponentPad*
%ADD19R,0.850000X0.850000*%
G04 #@! TD*
G04 #@! TA.AperFunction,SMDPad,CuDef*
%ADD20RoundRect,0.218750X0.256250X-0.218750X0.256250X0.218750X-0.256250X0.218750X-0.256250X-0.218750X0*%
G04 #@! TD*
G04 #@! TA.AperFunction,SMDPad,CuDef*
%ADD21RoundRect,0.218750X-0.256250X0.218750X-0.256250X-0.218750X0.256250X-0.218750X0.256250X0.218750X0*%
G04 #@! TD*
G04 #@! TA.AperFunction,SMDPad,CuDef*
%ADD22RoundRect,0.140000X0.140000X0.170000X-0.140000X0.170000X-0.140000X-0.170000X0.140000X-0.170000X0*%
G04 #@! TD*
G04 #@! TA.AperFunction,SMDPad,CuDef*
%ADD23RoundRect,0.140000X0.170000X-0.140000X0.170000X0.140000X-0.170000X0.140000X-0.170000X-0.140000X0*%
G04 #@! TD*
G04 #@! TA.AperFunction,SMDPad,CuDef*
%ADD24RoundRect,0.225000X-0.225000X-0.250000X0.225000X-0.250000X0.225000X0.250000X-0.225000X0.250000X0*%
G04 #@! TD*
G04 #@! TA.AperFunction,SMDPad,CuDef*
%ADD25RoundRect,0.140000X-0.170000X0.140000X-0.170000X-0.140000X0.170000X-0.140000X0.170000X0.140000X0*%
G04 #@! TD*
G04 #@! TA.AperFunction,SMDPad,CuDef*
%ADD26RoundRect,0.225000X0.250000X-0.225000X0.250000X0.225000X-0.250000X0.225000X-0.250000X-0.225000X0*%
G04 #@! TD*
G04 #@! TA.AperFunction,ViaPad*
%ADD27C,0.600000*%
G04 #@! TD*
G04 #@! TA.AperFunction,Conductor*
%ADD28C,0.200000*%
G04 #@! TD*
G04 APERTURE END LIST*
D10*
X23458000Y-170142000D03*
X23058000Y-170142000D03*
X22658000Y-170142000D03*
X22258000Y-170142000D03*
X21858000Y-170142000D03*
X21458000Y-170142000D03*
X21058000Y-170142000D03*
X20658000Y-170142000D03*
D11*
X20070500Y-170729500D03*
X20070500Y-171129500D03*
X20070500Y-171529500D03*
X20070500Y-171929500D03*
X20070500Y-172329500D03*
X20070500Y-172729500D03*
X20070500Y-173129500D03*
X20070500Y-173529500D03*
D10*
X20658000Y-174117000D03*
X21058000Y-174117000D03*
X21458000Y-174117000D03*
X21858000Y-174117000D03*
X22258000Y-174117000D03*
X22658000Y-174117000D03*
X23058000Y-174117000D03*
X23458000Y-174117000D03*
D11*
X24045500Y-173529500D03*
X24045500Y-173129500D03*
X24045500Y-172729500D03*
X24045500Y-172329500D03*
X24045500Y-171929500D03*
X24045500Y-171529500D03*
X24045500Y-171129500D03*
X24045500Y-170729500D03*
D12*
X22058000Y-172129500D03*
D13*
X20871000Y-168783000D03*
X19911000Y-168783000D03*
D14*
X16637000Y-188800000D03*
X17907000Y-188800000D03*
X19177000Y-188800000D03*
X20447000Y-188800000D03*
X21717000Y-188800000D03*
X22987000Y-188800000D03*
X24257000Y-188800000D03*
X25527000Y-188800000D03*
X26797000Y-188800000D03*
X28067000Y-188800000D03*
X28067000Y-179500000D03*
X26797000Y-179500000D03*
X25527000Y-179500000D03*
X24257000Y-179500000D03*
X22987000Y-179500000D03*
X21717000Y-179500000D03*
X20447000Y-179500000D03*
X19177000Y-179500000D03*
X17907000Y-179500000D03*
X16637000Y-179500000D03*
D15*
X18994000Y-162814000D03*
X18994000Y-163834000D03*
X26360000Y-162814000D03*
X26360000Y-163834000D03*
X21407000Y-162814000D03*
X21407000Y-163834000D03*
X23947000Y-162814000D03*
X23947000Y-163834000D03*
X25983000Y-168271000D03*
X25983000Y-169291000D03*
X25979000Y-170204000D03*
X25979000Y-171224000D03*
D16*
X23564000Y-175514000D03*
X24584000Y-175514000D03*
D17*
X25908000Y-190754000D03*
X24888000Y-190754000D03*
D18*
X24582000Y-160782000D03*
X23582000Y-160782000D03*
X22582000Y-160782000D03*
X21582000Y-160782000D03*
D19*
X20582000Y-160782000D03*
X19082000Y-193294000D03*
D18*
X20082000Y-193294000D03*
X21082000Y-193294000D03*
X22082000Y-193294000D03*
X23082000Y-193294000D03*
X24082000Y-193294000D03*
D20*
X29845000Y-176809500D03*
X29845000Y-175234500D03*
D21*
X29845000Y-178638000D03*
X29845000Y-180213000D03*
D22*
X17371000Y-166116000D03*
X18331000Y-166116000D03*
D13*
X24907000Y-166116000D03*
X23947000Y-166116000D03*
D22*
X19558000Y-166116000D03*
X20518000Y-166116000D03*
X21717000Y-166116000D03*
X22677000Y-166116000D03*
D23*
X27126000Y-169287000D03*
X27126000Y-168327000D03*
X26995000Y-171168000D03*
X26995000Y-170208000D03*
X25598000Y-174117000D03*
X25598000Y-173157000D03*
D13*
X26586000Y-172212000D03*
X25626000Y-172212000D03*
D23*
X26614000Y-173157000D03*
X26614000Y-174117000D03*
D24*
X25273000Y-177165000D03*
X26823000Y-177165000D03*
D25*
X28194000Y-176685000D03*
X28194000Y-177645000D03*
D22*
X17724000Y-172339000D03*
X18684000Y-172339000D03*
D13*
X24427000Y-168783000D03*
X23467000Y-168783000D03*
D22*
X18712000Y-173355000D03*
X17752000Y-173355000D03*
D13*
X18684000Y-171323000D03*
X17724000Y-171323000D03*
X17625000Y-177165000D03*
X16665000Y-177165000D03*
D22*
X17780000Y-170307000D03*
X18740000Y-170307000D03*
D26*
X18232000Y-167500000D03*
X18232000Y-169050000D03*
D13*
X26924000Y-190754000D03*
X27884000Y-190754000D03*
X16693000Y-191008000D03*
X17653000Y-191008000D03*
D24*
X28194000Y-192278000D03*
X26644000Y-192278000D03*
D27*
X29845000Y-169545000D03*
X16510000Y-161290000D03*
X29845000Y-164465000D03*
X29845000Y-161290000D03*
X17018000Y-170307000D03*
X17018000Y-172339000D03*
X17653000Y-176403000D03*
X19685000Y-165227000D03*
X16637000Y-166116000D03*
X21717000Y-165354000D03*
X25654000Y-166116000D03*
X16637000Y-178054000D03*
X28829000Y-175260000D03*
X29337000Y-177927000D03*
X18359000Y-165354000D03*
X21915000Y-167259000D03*
X23439000Y-167767000D03*
X24582000Y-169926000D03*
X20010000Y-174625000D03*
X18740000Y-173990000D03*
X27376000Y-173228000D03*
X26106000Y-174752000D03*
X22550000Y-175641000D03*
X25217000Y-175514000D03*
X22804000Y-172974000D03*
X21280000Y-171450000D03*
X23177500Y-178498500D03*
X16764000Y-191770000D03*
X26416000Y-191262000D03*
X18052529Y-190584019D03*
X27940000Y-191516000D03*
X22860000Y-190246000D03*
D28*
X17018000Y-170307000D02*
X17780000Y-170307000D01*
X17018000Y-172339000D02*
X17724000Y-172339000D01*
X17653000Y-176403000D02*
X17653000Y-177137000D01*
X17653000Y-177137000D02*
X17625000Y-177165000D01*
X19685000Y-165227000D02*
X19685000Y-165989000D01*
X19685000Y-165989000D02*
X19558000Y-166116000D01*
X16637000Y-166116000D02*
X17371000Y-166116000D01*
X21717000Y-165354000D02*
X21717000Y-166116000D01*
X25654000Y-166116000D02*
X24907000Y-166116000D01*
X16764000Y-191770000D02*
X16566000Y-191572000D01*
X16566000Y-191572000D02*
X16566000Y-191135000D01*
X17907000Y-188800000D02*
X17907000Y-189357000D01*
X17907000Y-189357000D02*
X19082000Y-190532000D01*
X19082000Y-190532000D02*
X19082000Y-193294000D01*
X18052529Y-190584019D02*
X18052529Y-190608471D01*
X18052529Y-190608471D02*
X17653000Y-191008000D01*
X16693000Y-190881000D02*
X16820000Y-190754000D01*
X20082000Y-193294000D02*
X20082000Y-190897000D01*
X20082000Y-190897000D02*
X19177000Y-189992000D01*
X19177000Y-189992000D02*
X19177000Y-188800000D01*
X22082000Y-190865000D02*
X21717000Y-190500000D01*
X22082000Y-193294000D02*
X22082000Y-190865000D01*
X21717000Y-190500000D02*
X21717000Y-188800000D01*
X20447000Y-188800000D02*
X20447000Y-189865000D01*
X20447000Y-189865000D02*
X21082000Y-190500000D01*
X21082000Y-190500000D02*
X21082000Y-193294000D01*
X26644000Y-192278000D02*
X23496960Y-192278000D01*
X23496960Y-192278000D02*
X23082000Y-192692960D01*
X23082000Y-192692960D02*
X23082000Y-193294000D01*
X28194000Y-192278000D02*
X27178000Y-193294000D01*
X27178000Y-193294000D02*
X24082000Y-193294000D01*
X16665000Y-177165000D02*
X16665000Y-179472000D01*
X16665000Y-179472000D02*
X16637000Y-179500000D01*
X21458000Y-174117000D02*
X21458000Y-175392000D01*
X21458000Y-175392000D02*
X20320000Y-176530000D01*
X20320000Y-176530000D02*
X20320000Y-177673000D01*
X20320000Y-177673000D02*
X19177000Y-178816000D01*
X19177000Y-178816000D02*
X19177000Y-179500000D01*
X21058000Y-174117000D02*
X21058000Y-175157000D01*
X21058000Y-175157000D02*
X17907000Y-178308000D01*
X17907000Y-178308000D02*
X17907000Y-179500000D01*
X21209000Y-176220000D02*
X21209000Y-177673000D01*
X21209000Y-177673000D02*
X20447000Y-178435000D01*
X21858000Y-175571000D02*
X21209000Y-176220000D01*
X20447000Y-178435000D02*
X20447000Y-179500000D01*
X21717000Y-179500000D02*
X21717000Y-176474000D01*
X21717000Y-176474000D02*
X22550000Y-175641000D01*
X29845000Y-175234500D02*
X28854500Y-175234500D01*
X28854500Y-175234500D02*
X28829000Y-175260000D01*
X29845000Y-178638000D02*
X29845000Y-178435000D01*
X29845000Y-178435000D02*
X29337000Y-177927000D01*
X28194000Y-176685000D02*
X29492000Y-176685000D01*
X29492000Y-176685000D02*
X29845000Y-177038000D01*
X25273000Y-177165000D02*
X26048000Y-176390000D01*
X26048000Y-176390000D02*
X27899000Y-176390000D01*
X27899000Y-176390000D02*
X28194000Y-176685000D01*
X26823000Y-177165000D02*
X27714000Y-177165000D01*
X27714000Y-177165000D02*
X28194000Y-177645000D01*
X29845000Y-180213000D02*
X28780000Y-180213000D01*
X28780000Y-180213000D02*
X28067000Y-179500000D01*
X28194000Y-177645000D02*
X28067000Y-177772000D01*
X28067000Y-177772000D02*
X28067000Y-179500000D01*
X26797000Y-179500000D02*
X26797000Y-178689000D01*
X26797000Y-178689000D02*
X25273000Y-177165000D01*
X25527000Y-179500000D02*
X25527000Y-178475001D01*
X25527000Y-178475001D02*
X25105999Y-178054000D01*
X25105999Y-178054000D02*
X23622000Y-178054000D01*
X23622000Y-178054000D02*
X23177500Y-178498500D01*
X16637000Y-179500000D02*
X16637000Y-178665134D01*
X16637000Y-179500000D02*
X16637000Y-178689000D01*
X18994000Y-162814000D02*
X18994000Y-162370000D01*
X18994000Y-162370000D02*
X20582000Y-160782000D01*
X21407000Y-162814000D02*
X21407000Y-160957000D01*
X21407000Y-160957000D02*
X21582000Y-160782000D01*
X23947000Y-162814000D02*
X22582000Y-161449000D01*
X22582000Y-161449000D02*
X22582000Y-160782000D01*
X26360000Y-162814000D02*
X25012960Y-162814000D01*
X25012960Y-162814000D02*
X23582000Y-161383040D01*
X23582000Y-161383040D02*
X23582000Y-160782000D01*
X27312500Y-166941500D02*
X27312500Y-162242500D01*
X27312500Y-162242500D02*
X25852000Y-160782000D01*
X25852000Y-160782000D02*
X24582000Y-160782000D01*
X25983000Y-168271000D02*
X27312500Y-166941500D01*
X23947000Y-166116000D02*
X26229000Y-163834000D01*
X26229000Y-163834000D02*
X26360000Y-163834000D01*
X23947000Y-163834000D02*
X22677000Y-165104000D01*
X22677000Y-165104000D02*
X22677000Y-166116000D01*
X21407000Y-163834000D02*
X20518000Y-164723000D01*
X20518000Y-164723000D02*
X20518000Y-166116000D01*
X18994000Y-163834000D02*
X18994000Y-164719000D01*
X18994000Y-164719000D02*
X18359000Y-165354000D01*
X18331000Y-166116000D02*
X18331000Y-165382000D01*
X18331000Y-165382000D02*
X18359000Y-165354000D01*
X24045500Y-171129500D02*
X24529360Y-171129500D01*
X24529360Y-171129500D02*
X25182000Y-170476860D01*
X25182000Y-170476860D02*
X25182000Y-167351000D01*
X25182000Y-167351000D02*
X23947000Y-166116000D01*
X21915000Y-167259000D02*
X21858000Y-167316000D01*
X21858000Y-167316000D02*
X21858000Y-170142000D01*
X22258000Y-170142000D02*
X22258000Y-168063065D01*
X22258000Y-168063065D02*
X22791268Y-167529797D01*
X22791268Y-167529797D02*
X22791268Y-166230268D01*
X22791268Y-166230268D02*
X22677000Y-166116000D01*
X21458000Y-170142000D02*
X21458000Y-168072000D01*
X21458000Y-168072000D02*
X20518000Y-167132000D01*
X20518000Y-167132000D02*
X20518000Y-166116000D01*
X18740000Y-170307000D02*
X18740000Y-169558000D01*
X18740000Y-169558000D02*
X18232000Y-169050000D01*
X26995000Y-170208000D02*
X26995000Y-169418000D01*
X26995000Y-169418000D02*
X27126000Y-169287000D01*
X23439000Y-167767000D02*
X22658000Y-168548000D01*
X22658000Y-168548000D02*
X22658000Y-170142000D01*
X20658000Y-170142000D02*
X19911000Y-169395000D01*
X19911000Y-169395000D02*
X19911000Y-168783000D01*
X21058000Y-170142000D02*
X21058000Y-168970000D01*
X21058000Y-168970000D02*
X20871000Y-168783000D01*
X24045500Y-170729500D02*
X24045500Y-170462500D01*
X24045500Y-170462500D02*
X24582000Y-169926000D01*
X23458000Y-170142000D02*
X23458000Y-169752000D01*
X23458000Y-169752000D02*
X24427000Y-168783000D01*
X24045500Y-171529500D02*
X24653500Y-171529500D01*
X24653500Y-171529500D02*
X25979000Y-170204000D01*
X24529360Y-172329500D02*
X25634860Y-171224000D01*
X25634860Y-171224000D02*
X25979000Y-171224000D01*
X25983000Y-168271000D02*
X27070000Y-168271000D01*
X27070000Y-168271000D02*
X27126000Y-168327000D01*
X26044500Y-169352500D02*
X25983000Y-169291000D01*
X25983000Y-169291000D02*
X27122000Y-169291000D01*
X27183500Y-169037000D02*
X27187500Y-169033000D01*
X25979000Y-170204000D02*
X26991000Y-170204000D01*
X26991000Y-170204000D02*
X26995000Y-170208000D01*
X24371500Y-171929500D02*
X24045500Y-171929500D01*
X25979000Y-171260860D02*
X25979000Y-171224000D01*
X25979000Y-171224000D02*
X26939000Y-171224000D01*
X26939000Y-171224000D02*
X26995000Y-171168000D01*
X24045500Y-172329500D02*
X24529360Y-172329500D01*
X23467000Y-168783000D02*
X23058000Y-169192000D01*
X23058000Y-169192000D02*
X23058000Y-170142000D01*
X20070500Y-170729500D02*
X19162500Y-170729500D01*
X19162500Y-170729500D02*
X18740000Y-170307000D01*
X20070500Y-171129500D02*
X20959500Y-171129500D01*
X20959500Y-171129500D02*
X21280000Y-171450000D01*
X20070500Y-173129500D02*
X18937500Y-173129500D01*
X18937500Y-173129500D02*
X18712000Y-173355000D01*
X19383000Y-172133140D02*
X19177140Y-172339000D01*
X19177140Y-172339000D02*
X18684000Y-172339000D01*
X20070500Y-171929500D02*
X19586640Y-171929500D01*
X19586640Y-171929500D02*
X19383000Y-172133140D01*
X20070500Y-171529500D02*
X18890500Y-171529500D01*
X18890500Y-171529500D02*
X18684000Y-171323000D01*
X20010000Y-174625000D02*
X20010000Y-173590000D01*
X20010000Y-173590000D02*
X20070500Y-173529500D01*
X20070500Y-172329500D02*
X20554360Y-172329500D01*
X20554360Y-172329500D02*
X21280000Y-171603860D01*
X21280000Y-171603860D02*
X21280000Y-171450000D01*
X18740000Y-173990000D02*
X18740000Y-172395000D01*
X18740000Y-172395000D02*
X18684000Y-172339000D01*
X18740000Y-173990000D02*
X18712000Y-173962000D01*
X20070500Y-172729500D02*
X20070500Y-173129500D01*
X17752000Y-171351000D02*
X17724000Y-171323000D01*
X24045500Y-171929500D02*
X24045500Y-171529500D01*
X27376000Y-173228000D02*
X27305000Y-173157000D01*
X27305000Y-173157000D02*
X26614000Y-173157000D01*
X25598000Y-173157000D02*
X26614000Y-173157000D01*
X23458000Y-174117000D02*
X24638000Y-174117000D01*
X24638000Y-174117000D02*
X25598000Y-173157000D01*
X25626000Y-172212000D02*
X25606866Y-172212000D01*
X25606866Y-172212000D02*
X25089366Y-172729500D01*
X25089366Y-172729500D02*
X24045500Y-172729500D01*
X26106000Y-174752000D02*
X26106000Y-174117000D01*
X26614000Y-174117000D02*
X26106000Y-174117000D01*
X26106000Y-174117000D02*
X25598000Y-174117000D01*
X22258000Y-174117000D02*
X22258000Y-175349000D01*
X22258000Y-175349000D02*
X22550000Y-175641000D01*
X23564000Y-175514000D02*
X23294001Y-175514000D01*
X22658000Y-174877999D02*
X22658000Y-174117000D01*
X23294001Y-175514000D02*
X22658000Y-174877999D01*
X25217000Y-175514000D02*
X24584000Y-175514000D01*
X23058000Y-174117000D02*
X23058000Y-174600860D01*
X23058000Y-174600860D02*
X23336140Y-174879000D01*
X23336140Y-174879000D02*
X25090000Y-174879000D01*
X25090000Y-174879000D02*
X25598000Y-174371000D01*
X21858000Y-174117000D02*
X21858000Y-175571000D01*
X23177500Y-178498500D02*
X22987000Y-178689000D01*
X22987000Y-178689000D02*
X22987000Y-179500000D01*
X21717000Y-179500000D02*
X21933000Y-179284000D01*
X26924000Y-191998000D02*
X26924000Y-191262000D01*
X26924000Y-191262000D02*
X26924000Y-190754000D01*
X26416000Y-191262000D02*
X26924000Y-191262000D01*
X25908000Y-190754000D02*
X26416000Y-190754000D01*
X26416000Y-190754000D02*
X26924000Y-190754000D01*
X26416000Y-191262000D02*
X26416000Y-190754000D01*
X27884000Y-191460000D02*
X27884000Y-190754000D01*
X27940000Y-191516000D02*
X27884000Y-191460000D01*
X27884000Y-191572000D02*
X27940000Y-191516000D01*
X22860000Y-190246000D02*
X22860000Y-188927000D01*
X22860000Y-188927000D02*
X22987000Y-188800000D01*
X16820000Y-190754000D02*
X16637000Y-190571000D01*
X16637000Y-190571000D02*
X16637000Y-188800000D01*
X28194000Y-192278000D02*
X27884000Y-191968000D01*
X27884000Y-191968000D02*
X27884000Y-191572000D01*
X26644000Y-192278000D02*
X26924000Y-191998000D01*
X24888000Y-190754000D02*
X25527000Y-190115000D01*
X25527000Y-190115000D02*
X25527000Y-188800000D01*
X26924000Y-190754000D02*
X26924000Y-188927000D01*
X26924000Y-188927000D02*
X26797000Y-188800000D01*
X27884000Y-190754000D02*
X27884000Y-188983000D01*
X27884000Y-188983000D02*
X28067000Y-188800000D01*
G04 #@! TA.AperFunction,Conductor*
G36*
X31666539Y-159524185D02*
G01*
X31712294Y-159576989D01*
X31723500Y-159628500D01*
X31723500Y-180216000D01*
X31703815Y-180283039D01*
X31651011Y-180328794D01*
X31599500Y-180340000D01*
X30944500Y-180340000D01*
X30877461Y-180320315D01*
X30831706Y-180267511D01*
X30820500Y-180216000D01*
X30820500Y-179946331D01*
X30820499Y-179946318D01*
X30810436Y-179847816D01*
X30778023Y-179750000D01*
X30757549Y-179688213D01*
X30757545Y-179688207D01*
X30757544Y-179688204D01*
X30669283Y-179545112D01*
X30669280Y-179545108D01*
X30637000Y-179512828D01*
X30603515Y-179451505D01*
X30608499Y-179381813D01*
X30637000Y-179337466D01*
X30668885Y-179305580D01*
X30757091Y-179162577D01*
X30757093Y-179162572D01*
X30809942Y-179003083D01*
X30819999Y-178904650D01*
X30820000Y-178904637D01*
X30820000Y-178888000D01*
X29719000Y-178888000D01*
X29651961Y-178868315D01*
X29606206Y-178815511D01*
X29595000Y-178764000D01*
X29595000Y-178512000D01*
X29614685Y-178444961D01*
X29667489Y-178399206D01*
X29719000Y-178388000D01*
X30819999Y-178388000D01*
X30819999Y-178371364D01*
X30819998Y-178371347D01*
X30809943Y-178272916D01*
X30757093Y-178113427D01*
X30757091Y-178113422D01*
X30668885Y-177970419D01*
X30550079Y-177851613D01*
X30550077Y-177851612D01*
X30514361Y-177829582D01*
X30467636Y-177777634D01*
X30456413Y-177708672D01*
X30484257Y-177644589D01*
X30514358Y-177618506D01*
X30550391Y-177596281D01*
X30669281Y-177477391D01*
X30757549Y-177334287D01*
X30810436Y-177174685D01*
X30820500Y-177076174D01*
X30820500Y-176542826D01*
X30810436Y-176444315D01*
X30757549Y-176284713D01*
X30757545Y-176284707D01*
X30757544Y-176284704D01*
X30669283Y-176141612D01*
X30669280Y-176141608D01*
X30637353Y-176109681D01*
X30603868Y-176048358D01*
X30608852Y-175978666D01*
X30637353Y-175934319D01*
X30669281Y-175902391D01*
X30757549Y-175759287D01*
X30810436Y-175599685D01*
X30820500Y-175501174D01*
X30820500Y-174967826D01*
X30810436Y-174869315D01*
X30757549Y-174709713D01*
X30757545Y-174709707D01*
X30757544Y-174709704D01*
X30669283Y-174566612D01*
X30669280Y-174566608D01*
X30550391Y-174447719D01*
X30550387Y-174447716D01*
X30407295Y-174359455D01*
X30407289Y-174359452D01*
X30407287Y-174359451D01*
X30247685Y-174306564D01*
X30247683Y-174306563D01*
X30149181Y-174296500D01*
X30149174Y-174296500D01*
X29540826Y-174296500D01*
X29540818Y-174296500D01*
X29442316Y-174306563D01*
X29442315Y-174306564D01*
X29396692Y-174321682D01*
X29282715Y-174359450D01*
X29282704Y-174359455D01*
X29139609Y-174447717D01*
X29133941Y-174452200D01*
X29132899Y-174450882D01*
X29079378Y-174480099D01*
X29015050Y-174476152D01*
X29015044Y-174476181D01*
X29014870Y-174476141D01*
X29012078Y-174475970D01*
X29010843Y-174475537D01*
X29008251Y-174474630D01*
X28829004Y-174454435D01*
X28828996Y-174454435D01*
X28649750Y-174474630D01*
X28649745Y-174474631D01*
X28479476Y-174534211D01*
X28326737Y-174630184D01*
X28199184Y-174757737D01*
X28103211Y-174910476D01*
X28043631Y-175080745D01*
X28043630Y-175080750D01*
X28023435Y-175259996D01*
X28023435Y-175260003D01*
X28043630Y-175439249D01*
X28043631Y-175439254D01*
X28103211Y-175609522D01*
X28104688Y-175612589D01*
X28105046Y-175614768D01*
X28105511Y-175616095D01*
X28105278Y-175616176D01*
X28116040Y-175681530D01*
X28088319Y-175745665D01*
X28030324Y-175784631D01*
X27986185Y-175788505D01*
X27986185Y-175789499D01*
X27812347Y-175789499D01*
X27812331Y-175789500D01*
X26255548Y-175789500D01*
X26188509Y-175769815D01*
X26142754Y-175717011D01*
X26132810Y-175647853D01*
X26161835Y-175584297D01*
X26220613Y-175546523D01*
X26241665Y-175542280D01*
X26285249Y-175537369D01*
X26285252Y-175537368D01*
X26285255Y-175537368D01*
X26455522Y-175477789D01*
X26608262Y-175381816D01*
X26735816Y-175254262D01*
X26831789Y-175101522D01*
X26885252Y-174948732D01*
X26925971Y-174891960D01*
X26967693Y-174870615D01*
X27040395Y-174849494D01*
X27179687Y-174767117D01*
X27294117Y-174652687D01*
X27376494Y-174513395D01*
X27421218Y-174359455D01*
X27421642Y-174357997D01*
X27421643Y-174357991D01*
X27424500Y-174321690D01*
X27424500Y-173912310D01*
X27421643Y-173876007D01*
X27402682Y-173810745D01*
X27381082Y-173736398D01*
X27376494Y-173720605D01*
X27364089Y-173699630D01*
X27346906Y-173631909D01*
X27364091Y-173573384D01*
X27376032Y-173553194D01*
X27418504Y-173407000D01*
X27112352Y-173407000D01*
X27049233Y-173389732D01*
X27040395Y-173384506D01*
X27040393Y-173384505D01*
X27040389Y-173384503D01*
X26884997Y-173339357D01*
X26884991Y-173339356D01*
X26848697Y-173336500D01*
X26848690Y-173336500D01*
X26379310Y-173336500D01*
X26379302Y-173336500D01*
X26343008Y-173339356D01*
X26343002Y-173339357D01*
X26187610Y-173384503D01*
X26187605Y-173384506D01*
X26178766Y-173389732D01*
X26115648Y-173407000D01*
X26096352Y-173407000D01*
X26033233Y-173389732D01*
X26024395Y-173384506D01*
X26024393Y-173384505D01*
X26024389Y-173384503D01*
X25868997Y-173339357D01*
X25868991Y-173339356D01*
X25832697Y-173336500D01*
X25832690Y-173336500D01*
X25630964Y-173336500D01*
X25563925Y-173316815D01*
X25518170Y-173264011D01*
X25508226Y-173194853D01*
X25537251Y-173131297D01*
X25543283Y-173124819D01*
X25547800Y-173120302D01*
X25569886Y-173098216D01*
X25569887Y-173098214D01*
X25609285Y-173058815D01*
X25670607Y-173025333D01*
X25696963Y-173022500D01*
X25830682Y-173022500D01*
X25830690Y-173022500D01*
X25866993Y-173019643D01*
X25866995Y-173019642D01*
X25866997Y-173019642D01*
X25907975Y-173007736D01*
X26022395Y-172974494D01*
X26107323Y-172924267D01*
X26170443Y-172907000D01*
X26336000Y-172907000D01*
X26336000Y-172710352D01*
X26353267Y-172647233D01*
X26358494Y-172638395D01*
X26366745Y-172609997D01*
X26403642Y-172482997D01*
X26403643Y-172482991D01*
X26405295Y-172462000D01*
X26864000Y-172462000D01*
X26864000Y-172907000D01*
X27418504Y-172907000D01*
X27376031Y-172760804D01*
X27340566Y-172700836D01*
X27323383Y-172633112D01*
X27328222Y-172603120D01*
X27363144Y-172482918D01*
X27363145Y-172482912D01*
X27364790Y-172462000D01*
X26864000Y-172462000D01*
X26405295Y-172462000D01*
X26406499Y-172446697D01*
X26406500Y-172446690D01*
X26406500Y-172086000D01*
X26426185Y-172018961D01*
X26478989Y-171973206D01*
X26530500Y-171962000D01*
X27364790Y-171962000D01*
X27401607Y-171922174D01*
X27402868Y-171923340D01*
X27429243Y-171895852D01*
X27529767Y-171836403D01*
X27560681Y-171818121D01*
X27560682Y-171818119D01*
X27560687Y-171818117D01*
X27675117Y-171703687D01*
X27757494Y-171564395D01*
X27802643Y-171408993D01*
X27805500Y-171372690D01*
X27805500Y-170963310D01*
X27802643Y-170927007D01*
X27793868Y-170896805D01*
X27757495Y-170771609D01*
X27757495Y-170771608D01*
X27757494Y-170771607D01*
X27757494Y-170771605D01*
X27745379Y-170751120D01*
X27728196Y-170683399D01*
X27745379Y-170624880D01*
X27757494Y-170604395D01*
X27802643Y-170448993D01*
X27805500Y-170412690D01*
X27805500Y-170003310D01*
X27802643Y-169967007D01*
X27790641Y-169925696D01*
X27790839Y-169855831D01*
X27802985Y-169827982D01*
X27806115Y-169822688D01*
X27806117Y-169822687D01*
X27888494Y-169683395D01*
X27933643Y-169527993D01*
X27936500Y-169491690D01*
X27936500Y-169082310D01*
X27933643Y-169046007D01*
X27888494Y-168890605D01*
X27876379Y-168870120D01*
X27859196Y-168802399D01*
X27876379Y-168743880D01*
X27888494Y-168723395D01*
X27933643Y-168567993D01*
X27936500Y-168531690D01*
X27936500Y-168122310D01*
X27933643Y-168086007D01*
X27918854Y-168035105D01*
X27888495Y-167930609D01*
X27888494Y-167930606D01*
X27888494Y-167930605D01*
X27806117Y-167791313D01*
X27806115Y-167791311D01*
X27806112Y-167791307D01*
X27691692Y-167676887D01*
X27691683Y-167676880D01*
X27662553Y-167659653D01*
X27614869Y-167608584D01*
X27602366Y-167539842D01*
X27629011Y-167475253D01*
X27637984Y-167465249D01*
X27671006Y-167432228D01*
X27671011Y-167432224D01*
X27681214Y-167422020D01*
X27681216Y-167422020D01*
X27793020Y-167310216D01*
X27852367Y-167207423D01*
X27872077Y-167173285D01*
X27913001Y-167020557D01*
X27913001Y-166862443D01*
X27913001Y-166854848D01*
X27913000Y-166854830D01*
X27913000Y-162331559D01*
X27913001Y-162331546D01*
X27913001Y-162163445D01*
X27913001Y-162163443D01*
X27872077Y-162010715D01*
X27825199Y-161929520D01*
X27793020Y-161873784D01*
X27681216Y-161761980D01*
X27681215Y-161761979D01*
X27676885Y-161757649D01*
X27676874Y-161757639D01*
X26339590Y-160420355D01*
X26339588Y-160420352D01*
X26220717Y-160301481D01*
X26220709Y-160301475D01*
X26130714Y-160249517D01*
X26130713Y-160249517D01*
X26083785Y-160222423D01*
X25931057Y-160181499D01*
X25772943Y-160181499D01*
X25765347Y-160181499D01*
X25765331Y-160181500D01*
X25341900Y-160181500D01*
X25274861Y-160161815D01*
X25249750Y-160140472D01*
X25204697Y-160090435D01*
X25204694Y-160090433D01*
X25204693Y-160090432D01*
X25204692Y-160090431D01*
X25079475Y-159999455D01*
X25047297Y-159976076D01*
X24906076Y-159913202D01*
X24869571Y-159896949D01*
X24869569Y-159896948D01*
X24679274Y-159856500D01*
X24484726Y-159856500D01*
X24294430Y-159896948D01*
X24294427Y-159896949D01*
X24132434Y-159969072D01*
X24063184Y-159978356D01*
X24031566Y-159969072D01*
X23869572Y-159896949D01*
X23869569Y-159896948D01*
X23679274Y-159856500D01*
X23484726Y-159856500D01*
X23294430Y-159896948D01*
X23294427Y-159896949D01*
X23132434Y-159969072D01*
X23063184Y-159978356D01*
X23031566Y-159969072D01*
X22869572Y-159896949D01*
X22869569Y-159896948D01*
X22679274Y-159856500D01*
X22484726Y-159856500D01*
X22294430Y-159896948D01*
X22294427Y-159896949D01*
X22132434Y-159969072D01*
X22063184Y-159978356D01*
X22031566Y-159969072D01*
X21869572Y-159896949D01*
X21869569Y-159896948D01*
X21679274Y-159856500D01*
X21484726Y-159856500D01*
X21294429Y-159896948D01*
X21288245Y-159898958D01*
X21287349Y-159896201D01*
X21230341Y-159903511D01*
X21206527Y-159897239D01*
X21114482Y-159862908D01*
X21114483Y-159862908D01*
X21054883Y-159856501D01*
X21054881Y-159856500D01*
X21054873Y-159856500D01*
X21054864Y-159856500D01*
X20109129Y-159856500D01*
X20109123Y-159856501D01*
X20049516Y-159862908D01*
X19914671Y-159913202D01*
X19914664Y-159913206D01*
X19799455Y-159999452D01*
X19799452Y-159999455D01*
X19713206Y-160114664D01*
X19713202Y-160114671D01*
X19662908Y-160249517D01*
X19656501Y-160309116D01*
X19656500Y-160309135D01*
X19656500Y-160806902D01*
X19636815Y-160873941D01*
X19620181Y-160894583D01*
X18513481Y-162001282D01*
X18513479Y-162001284D01*
X18500886Y-162023098D01*
X18487471Y-162046335D01*
X18485644Y-162049499D01*
X18485643Y-162049500D01*
X18434420Y-162138219D01*
X18432101Y-162143819D01*
X18405225Y-162184041D01*
X18302866Y-162286400D01*
X18302863Y-162286404D01*
X18221131Y-162424606D01*
X18221129Y-162424611D01*
X18176335Y-162578791D01*
X18176334Y-162578797D01*
X18173500Y-162614811D01*
X18173500Y-163013169D01*
X18173501Y-163013191D01*
X18176335Y-163049205D01*
X18221129Y-163203388D01*
X18221132Y-163203395D01*
X18255128Y-163260881D01*
X18272309Y-163328605D01*
X18255128Y-163387119D01*
X18221132Y-163444604D01*
X18221129Y-163444611D01*
X18176335Y-163598791D01*
X18176334Y-163598797D01*
X18173500Y-163634811D01*
X18173500Y-164033169D01*
X18173501Y-164033191D01*
X18176335Y-164069205D01*
X18221129Y-164223388D01*
X18221131Y-164223393D01*
X18302863Y-164361596D01*
X18305300Y-164364737D01*
X18306443Y-164367649D01*
X18306836Y-164368313D01*
X18306728Y-164368376D01*
X18330836Y-164429772D01*
X18317158Y-164498290D01*
X18268607Y-164548536D01*
X18221208Y-164563959D01*
X18179750Y-164568630D01*
X18009478Y-164628210D01*
X17856737Y-164724184D01*
X17729184Y-164851737D01*
X17633211Y-165004476D01*
X17573631Y-165174745D01*
X17573630Y-165174750D01*
X17553435Y-165353996D01*
X17553435Y-165354003D01*
X17573631Y-165533252D01*
X17598999Y-165605752D01*
X17602560Y-165675531D01*
X17600397Y-165682031D01*
X17600682Y-165682114D01*
X17553357Y-165845002D01*
X17553356Y-165845008D01*
X17550500Y-165881302D01*
X17550500Y-166242000D01*
X17530815Y-166309039D01*
X17478011Y-166354794D01*
X17426500Y-166366000D01*
X16592210Y-166366000D01*
X16593854Y-166386910D01*
X16638968Y-166542195D01*
X16721278Y-166681374D01*
X16721285Y-166681383D01*
X16835616Y-166795714D01*
X16835625Y-166795721D01*
X16974803Y-166878030D01*
X17130090Y-166923145D01*
X17166362Y-166925999D01*
X17167028Y-166926026D01*
X17167130Y-166926060D01*
X17168790Y-166926191D01*
X17168757Y-166926608D01*
X17233246Y-166948316D01*
X17276903Y-167002867D01*
X17284135Y-167072362D01*
X17279888Y-167088933D01*
X17267143Y-167127394D01*
X17257000Y-167226677D01*
X17257000Y-167250000D01*
X19206999Y-167250000D01*
X19206999Y-167226692D01*
X19206998Y-167226677D01*
X19196855Y-167127391D01*
X19183344Y-167086618D01*
X19180941Y-167016789D01*
X19216672Y-166956747D01*
X19279192Y-166925554D01*
X19299823Y-166926643D01*
X19308000Y-166920504D01*
X19308000Y-165305597D01*
X19327685Y-165238558D01*
X19344314Y-165217921D01*
X19474520Y-165087716D01*
X19553577Y-164950784D01*
X19594501Y-164798057D01*
X19594501Y-164639942D01*
X19594501Y-164632347D01*
X19594500Y-164632329D01*
X19594500Y-164503595D01*
X19614185Y-164436556D01*
X19630814Y-164415918D01*
X19685135Y-164361598D01*
X19766869Y-164223393D01*
X19811665Y-164069204D01*
X19814500Y-164033181D01*
X19814499Y-163634820D01*
X19811665Y-163598796D01*
X19766869Y-163444607D01*
X19732869Y-163387117D01*
X19715688Y-163319398D01*
X19732869Y-163260882D01*
X19766869Y-163203393D01*
X19811665Y-163049204D01*
X19814500Y-163013181D01*
X19814499Y-162614820D01*
X19811665Y-162578796D01*
X19792226Y-162511886D01*
X19792425Y-162442019D01*
X19823619Y-162389614D01*
X20469416Y-161743818D01*
X20530739Y-161710333D01*
X20557097Y-161707499D01*
X20682500Y-161707499D01*
X20749539Y-161727184D01*
X20795294Y-161779988D01*
X20806500Y-161831499D01*
X20806500Y-162144404D01*
X20786815Y-162211443D01*
X20770181Y-162232085D01*
X20715869Y-162286396D01*
X20715863Y-162286404D01*
X20634131Y-162424606D01*
X20634129Y-162424611D01*
X20589335Y-162578791D01*
X20589334Y-162578797D01*
X20586500Y-162614811D01*
X20586500Y-163013169D01*
X20586501Y-163013191D01*
X20589335Y-163049205D01*
X20634129Y-163203388D01*
X20634132Y-163203395D01*
X20668128Y-163260881D01*
X20685309Y-163328605D01*
X20668128Y-163387119D01*
X20634132Y-163444604D01*
X20634129Y-163444611D01*
X20589335Y-163598791D01*
X20589334Y-163598797D01*
X20586500Y-163634811D01*
X20586500Y-163753902D01*
X20566815Y-163820941D01*
X20550181Y-163841583D01*
X20037481Y-164354282D01*
X20037475Y-164354290D01*
X19991168Y-164434498D01*
X19991168Y-164434499D01*
X19958423Y-164491214D01*
X19958423Y-164491215D01*
X19917499Y-164643943D01*
X19917499Y-164643945D01*
X19917499Y-164812046D01*
X19917500Y-164812059D01*
X19917500Y-165178153D01*
X19897815Y-165245192D01*
X19845011Y-165290947D01*
X19833082Y-165292662D01*
X19808000Y-165311494D01*
X19808000Y-165617645D01*
X19790734Y-165680763D01*
X19785507Y-165689600D01*
X19785504Y-165689608D01*
X19740357Y-165845002D01*
X19740356Y-165845008D01*
X19737500Y-165881302D01*
X19737500Y-166350697D01*
X19740356Y-166386991D01*
X19740357Y-166386997D01*
X19785503Y-166542389D01*
X19785505Y-166542393D01*
X19785506Y-166542395D01*
X19790732Y-166551233D01*
X19808000Y-166614352D01*
X19808000Y-166920504D01*
X19827255Y-166934961D01*
X19828767Y-166934966D01*
X19887439Y-166972905D01*
X19916286Y-167036542D01*
X19917499Y-167053845D01*
X19917499Y-167211054D01*
X19917498Y-167211054D01*
X19958424Y-167363789D01*
X19958425Y-167363790D01*
X19976477Y-167395056D01*
X19976478Y-167395057D01*
X20037477Y-167500712D01*
X20037481Y-167500717D01*
X20156349Y-167619585D01*
X20156355Y-167619590D01*
X20318098Y-167781333D01*
X20351583Y-167842656D01*
X20346599Y-167912348D01*
X20304727Y-167968281D01*
X20239263Y-167992698D01*
X20195822Y-167988090D01*
X20151997Y-167975357D01*
X20151991Y-167975356D01*
X20115697Y-167972500D01*
X20115690Y-167972500D01*
X19706310Y-167972500D01*
X19706302Y-167972500D01*
X19670008Y-167975356D01*
X19670002Y-167975357D01*
X19514609Y-168020504D01*
X19514606Y-168020505D01*
X19375315Y-168102881D01*
X19375310Y-168102885D01*
X19364248Y-168113947D01*
X19302923Y-168147430D01*
X19233232Y-168142443D01*
X19177300Y-168100570D01*
X19152885Y-168035105D01*
X19158863Y-167987258D01*
X19196856Y-167872605D01*
X19206999Y-167773322D01*
X19207000Y-167773309D01*
X19207000Y-167750000D01*
X17257001Y-167750000D01*
X17257001Y-167773322D01*
X17267144Y-167872607D01*
X17320452Y-168033481D01*
X17320457Y-168033492D01*
X17409424Y-168177728D01*
X17409427Y-168177732D01*
X17418660Y-168186965D01*
X17452145Y-168248288D01*
X17447161Y-168317980D01*
X17418663Y-168362324D01*
X17409033Y-168371953D01*
X17409029Y-168371959D01*
X17320001Y-168516294D01*
X17319996Y-168516305D01*
X17266651Y-168677290D01*
X17256500Y-168776647D01*
X17256500Y-169323337D01*
X17256501Y-169323355D01*
X17266650Y-169422707D01*
X17266652Y-169422714D01*
X17288491Y-169488620D01*
X17290892Y-169558448D01*
X17255161Y-169618490D01*
X17246794Y-169625596D01*
X17244625Y-169627278D01*
X17130282Y-169741620D01*
X17130278Y-169741625D01*
X17047968Y-169880804D01*
X17047966Y-169880809D01*
X17002855Y-170036081D01*
X17002854Y-170036087D01*
X17001209Y-170056999D01*
X17001210Y-170057000D01*
X17835500Y-170057000D01*
X17902539Y-170076685D01*
X17948294Y-170129489D01*
X17959500Y-170181000D01*
X17959500Y-170541697D01*
X17962356Y-170577991D01*
X17962357Y-170577997D01*
X18005883Y-170727813D01*
X18005684Y-170797683D01*
X17993540Y-170825528D01*
X17951504Y-170896608D01*
X17951504Y-170896609D01*
X17906357Y-171052002D01*
X17906356Y-171052008D01*
X17903500Y-171088302D01*
X17903500Y-171557697D01*
X17906356Y-171593991D01*
X17906357Y-171593997D01*
X17951503Y-171749389D01*
X17951505Y-171749393D01*
X17951506Y-171749395D01*
X17956732Y-171758233D01*
X17974000Y-171821352D01*
X17974000Y-171840645D01*
X17956734Y-171903763D01*
X17951507Y-171912600D01*
X17951504Y-171912608D01*
X17906357Y-172068002D01*
X17906356Y-172068008D01*
X17903500Y-172104302D01*
X17903500Y-172573697D01*
X17906356Y-172609991D01*
X17906357Y-172609997D01*
X17951504Y-172765390D01*
X17951505Y-172765394D01*
X17976437Y-172807552D01*
X17993618Y-172875276D01*
X17980360Y-172920471D01*
X17982605Y-172921443D01*
X17979504Y-172928608D01*
X17934357Y-173084002D01*
X17934356Y-173084008D01*
X17931500Y-173120302D01*
X17931500Y-173589697D01*
X17934356Y-173625991D01*
X17934357Y-173625997D01*
X17961811Y-173720491D01*
X17961612Y-173790360D01*
X17959777Y-173796038D01*
X17954632Y-173810742D01*
X17954631Y-173810746D01*
X17934435Y-173989996D01*
X17934435Y-173990003D01*
X17954630Y-174169249D01*
X17954631Y-174169254D01*
X18014211Y-174339523D01*
X18082194Y-174447716D01*
X18110184Y-174492262D01*
X18237738Y-174619816D01*
X18254239Y-174630184D01*
X18380793Y-174709704D01*
X18390478Y-174715789D01*
X18537151Y-174767112D01*
X18560745Y-174775368D01*
X18560750Y-174775369D01*
X18739996Y-174795565D01*
X18740000Y-174795565D01*
X18740004Y-174795565D01*
X18919249Y-174775369D01*
X18919252Y-174775368D01*
X18919255Y-174775368D01*
X19089522Y-174715789D01*
X19242262Y-174619816D01*
X19369816Y-174492262D01*
X19465789Y-174339522D01*
X19512448Y-174206175D01*
X19553170Y-174149401D01*
X19618122Y-174123653D01*
X19644275Y-174124016D01*
X19689940Y-174129500D01*
X19933500Y-174129500D01*
X20000539Y-174149185D01*
X20046294Y-174201989D01*
X20057500Y-174253500D01*
X20057500Y-174497602D01*
X20059397Y-174513395D01*
X20068122Y-174586061D01*
X20123639Y-174726843D01*
X20215077Y-174847422D01*
X20274237Y-174892284D01*
X20315760Y-174948476D01*
X20320312Y-175018198D01*
X20286993Y-175078769D01*
X18566059Y-176799703D01*
X18504736Y-176833188D01*
X18435044Y-176828204D01*
X18379111Y-176786332D01*
X18359302Y-176746617D01*
X18357033Y-176738810D01*
X18357031Y-176738804D01*
X18274721Y-176599625D01*
X18274714Y-176599616D01*
X18160383Y-176485285D01*
X18160374Y-176485278D01*
X18021193Y-176402967D01*
X18021190Y-176402965D01*
X17875001Y-176360493D01*
X17875000Y-176360494D01*
X17875000Y-177291000D01*
X17855315Y-177358039D01*
X17802511Y-177403794D01*
X17751000Y-177415000D01*
X17569500Y-177415000D01*
X17502461Y-177395315D01*
X17456706Y-177342511D01*
X17445500Y-177291000D01*
X17445500Y-176930317D01*
X17445499Y-176930302D01*
X17442643Y-176894008D01*
X17442642Y-176894002D01*
X17397495Y-176738608D01*
X17397492Y-176738600D01*
X17392266Y-176729763D01*
X17375000Y-176666645D01*
X17375000Y-176360494D01*
X17374998Y-176360493D01*
X17228809Y-176402965D01*
X17228806Y-176402967D01*
X17208608Y-176414912D01*
X17140884Y-176432092D01*
X17082370Y-176414910D01*
X17061397Y-176402507D01*
X17061390Y-176402504D01*
X16905997Y-176357357D01*
X16905991Y-176357356D01*
X16869697Y-176354500D01*
X16869690Y-176354500D01*
X16460310Y-176354500D01*
X16460302Y-176354500D01*
X16424008Y-176357356D01*
X16424002Y-176357357D01*
X16268609Y-176402504D01*
X16268606Y-176402505D01*
X16129315Y-176484881D01*
X16129307Y-176484887D01*
X16014887Y-176599307D01*
X16014881Y-176599315D01*
X15932505Y-176738606D01*
X15932504Y-176738609D01*
X15887357Y-176894002D01*
X15887356Y-176894008D01*
X15884500Y-176930302D01*
X15884500Y-177399697D01*
X15887356Y-177435991D01*
X15887357Y-177435997D01*
X15932711Y-177592104D01*
X15932512Y-177661973D01*
X15918632Y-177692666D01*
X15911209Y-177704479D01*
X15851633Y-177874737D01*
X15851630Y-177874750D01*
X15831435Y-178053996D01*
X15831435Y-178054003D01*
X15851631Y-178233252D01*
X15877748Y-178307892D01*
X15881309Y-178377671D01*
X15879782Y-178383441D01*
X15839402Y-178522426D01*
X15839401Y-178522432D01*
X15836500Y-178559298D01*
X15836500Y-180216000D01*
X15816815Y-180283039D01*
X15764011Y-180328794D01*
X15712500Y-180340000D01*
X14848500Y-180340000D01*
X14781461Y-180320315D01*
X14735706Y-180267511D01*
X14724500Y-180216000D01*
X14724500Y-173605000D01*
X16973210Y-173605000D01*
X16974854Y-173625910D01*
X17019968Y-173781195D01*
X17102278Y-173920374D01*
X17102285Y-173920383D01*
X17216616Y-174034714D01*
X17216625Y-174034721D01*
X17355804Y-174117031D01*
X17502000Y-174159504D01*
X17502000Y-173605000D01*
X16973210Y-173605000D01*
X14724500Y-173605000D01*
X14724500Y-172589000D01*
X16945210Y-172589000D01*
X16946854Y-172609910D01*
X16991968Y-172765195D01*
X16991970Y-172765199D01*
X17017017Y-172807552D01*
X17034200Y-172875276D01*
X17020872Y-172920694D01*
X17023067Y-172921644D01*
X17019966Y-172928809D01*
X16974855Y-173084081D01*
X16974854Y-173084087D01*
X16973209Y-173104999D01*
X16973210Y-173105000D01*
X17474000Y-173105000D01*
X17474000Y-172589000D01*
X16945210Y-172589000D01*
X14724500Y-172589000D01*
X14724500Y-172088999D01*
X16945209Y-172088999D01*
X16945210Y-172089000D01*
X17474000Y-172089000D01*
X17474000Y-171573000D01*
X16945210Y-171573000D01*
X16946854Y-171593910D01*
X16991968Y-171749195D01*
X17003019Y-171767882D01*
X17020199Y-171835606D01*
X17003019Y-171894118D01*
X16991968Y-171912804D01*
X16991966Y-171912809D01*
X16946855Y-172068081D01*
X16946854Y-172068087D01*
X16945209Y-172088999D01*
X14724500Y-172088999D01*
X14724500Y-171072999D01*
X16945209Y-171072999D01*
X16945210Y-171073000D01*
X17474000Y-171073000D01*
X17474000Y-170557000D01*
X17001210Y-170557000D01*
X17002854Y-170577910D01*
X17046424Y-170727882D01*
X17046224Y-170797752D01*
X17034080Y-170825596D01*
X16991967Y-170896805D01*
X16991966Y-170896809D01*
X16946855Y-171052081D01*
X16946854Y-171052087D01*
X16945209Y-171072999D01*
X14724500Y-171072999D01*
X14724500Y-165865999D01*
X16592209Y-165865999D01*
X16592210Y-165866000D01*
X17121000Y-165866000D01*
X17121000Y-165311494D01*
X17120998Y-165311493D01*
X16974809Y-165353965D01*
X16974806Y-165353967D01*
X16835625Y-165436278D01*
X16835616Y-165436285D01*
X16721285Y-165550616D01*
X16721278Y-165550625D01*
X16638968Y-165689804D01*
X16638966Y-165689809D01*
X16593855Y-165845081D01*
X16593854Y-165845087D01*
X16592209Y-165865999D01*
X14724500Y-165865999D01*
X14724500Y-159628500D01*
X14744185Y-159561461D01*
X14796989Y-159515706D01*
X14848500Y-159504500D01*
X31599500Y-159504500D01*
X31666539Y-159524185D01*
G37*
G04 #@! TD.AperFunction*
G04 #@! TA.AperFunction,Conductor*
G36*
X24137117Y-176252869D02*
G01*
X24194607Y-176286869D01*
X24194610Y-176286869D01*
X24194612Y-176286871D01*
X24348791Y-176331664D01*
X24355032Y-176332804D01*
X24354540Y-176335496D01*
X24408637Y-176356054D01*
X24450163Y-176412244D01*
X24454717Y-176481966D01*
X24439255Y-176519957D01*
X24386000Y-176606296D01*
X24385996Y-176606305D01*
X24332651Y-176767290D01*
X24322500Y-176866647D01*
X24322500Y-177463337D01*
X24322501Y-177463355D01*
X24332650Y-177562707D01*
X24332651Y-177562710D01*
X24379629Y-177704479D01*
X24385997Y-177723697D01*
X24424058Y-177785403D01*
X24442499Y-177852794D01*
X24421577Y-177919458D01*
X24367936Y-177964228D01*
X24318520Y-177974500D01*
X24041298Y-177974500D01*
X24004432Y-177977401D01*
X24004426Y-177977402D01*
X23846606Y-178023254D01*
X23846603Y-178023255D01*
X23705140Y-178106915D01*
X23698974Y-178111699D01*
X23697174Y-178109379D01*
X23647913Y-178136230D01*
X23578225Y-178131193D01*
X23545992Y-178110461D01*
X23544722Y-178112100D01*
X23538552Y-178107314D01*
X23397196Y-178023717D01*
X23397193Y-178023716D01*
X23239494Y-177977900D01*
X23239497Y-177977900D01*
X23237000Y-177977703D01*
X23237000Y-179626000D01*
X23217315Y-179693039D01*
X23164511Y-179738794D01*
X23113000Y-179750000D01*
X22861000Y-179750000D01*
X22793961Y-179730315D01*
X22748206Y-179677511D01*
X22737000Y-179626000D01*
X22737000Y-177977703D01*
X22734503Y-177977900D01*
X22576806Y-178023716D01*
X22576805Y-178023716D01*
X22504620Y-178066406D01*
X22436896Y-178083588D01*
X22370634Y-178061427D01*
X22326871Y-178006961D01*
X22317500Y-177959673D01*
X22317500Y-176774096D01*
X22337185Y-176707057D01*
X22353815Y-176686419D01*
X22568535Y-176471698D01*
X22629856Y-176438215D01*
X22642311Y-176436163D01*
X22729255Y-176426368D01*
X22899522Y-176366789D01*
X23034404Y-176282036D01*
X23101640Y-176263036D01*
X23163496Y-176280298D01*
X23174607Y-176286869D01*
X23174614Y-176286871D01*
X23328791Y-176331664D01*
X23328794Y-176331664D01*
X23328796Y-176331665D01*
X23364819Y-176334500D01*
X23763180Y-176334499D01*
X23799204Y-176331665D01*
X23953393Y-176286869D01*
X24010882Y-176252869D01*
X24078602Y-176235688D01*
X24137117Y-176252869D01*
G37*
G04 #@! TD.AperFunction*
G04 #@! TA.AperFunction,Conductor*
G36*
X21276434Y-171019376D02*
G01*
X21276436Y-171019377D01*
X21348821Y-171028069D01*
X21364897Y-171030000D01*
X21364898Y-171030000D01*
X21551103Y-171030000D01*
X21567178Y-171028069D01*
X21639564Y-171019377D01*
X21639565Y-171019376D01*
X21643215Y-171018938D01*
X21672785Y-171018938D01*
X21676434Y-171019376D01*
X21676436Y-171019377D01*
X21748821Y-171028069D01*
X21764897Y-171030000D01*
X21764898Y-171030000D01*
X21951103Y-171030000D01*
X21967178Y-171028069D01*
X22039564Y-171019377D01*
X22039565Y-171019376D01*
X22043215Y-171018938D01*
X22072785Y-171018938D01*
X22076434Y-171019376D01*
X22076436Y-171019377D01*
X22148821Y-171028069D01*
X22164897Y-171030000D01*
X22164898Y-171030000D01*
X22351103Y-171030000D01*
X22367178Y-171028069D01*
X22439564Y-171019377D01*
X22439565Y-171019376D01*
X22443215Y-171018938D01*
X22472785Y-171018938D01*
X22476434Y-171019376D01*
X22476436Y-171019377D01*
X22548821Y-171028069D01*
X22564897Y-171030000D01*
X22564898Y-171030000D01*
X22751103Y-171030000D01*
X22767178Y-171028069D01*
X22839564Y-171019377D01*
X22839565Y-171019376D01*
X22843215Y-171018938D01*
X22872785Y-171018938D01*
X22876434Y-171019376D01*
X22876436Y-171019377D01*
X22948821Y-171028069D01*
X22964897Y-171030000D01*
X23033500Y-171030000D01*
X23100539Y-171049685D01*
X23146294Y-171102489D01*
X23157500Y-171154000D01*
X23157500Y-171222602D01*
X23163222Y-171270254D01*
X23168561Y-171314717D01*
X23168561Y-171344283D01*
X23162718Y-171392940D01*
X23157500Y-171436398D01*
X23157500Y-171622602D01*
X23163222Y-171670254D01*
X23168561Y-171714717D01*
X23168561Y-171744283D01*
X23162718Y-171792940D01*
X23157500Y-171836398D01*
X23157500Y-172022602D01*
X23162953Y-172068008D01*
X23168561Y-172114717D01*
X23168561Y-172144283D01*
X23162718Y-172192940D01*
X23157500Y-172236398D01*
X23157500Y-172422602D01*
X23162231Y-172462000D01*
X23168561Y-172514717D01*
X23168561Y-172544283D01*
X23165030Y-172573690D01*
X23157500Y-172636398D01*
X23157500Y-172822602D01*
X23163222Y-172870254D01*
X23168561Y-172914717D01*
X23168561Y-172944283D01*
X23162718Y-172992940D01*
X23157500Y-173036398D01*
X23157500Y-173036403D01*
X23157500Y-173105000D01*
X23137815Y-173172039D01*
X23085011Y-173217794D01*
X23033500Y-173229000D01*
X22964898Y-173229000D01*
X22921440Y-173234218D01*
X22872783Y-173240061D01*
X22843217Y-173240061D01*
X22794559Y-173234218D01*
X22751102Y-173229000D01*
X22564898Y-173229000D01*
X22521440Y-173234218D01*
X22472783Y-173240061D01*
X22443217Y-173240061D01*
X22394559Y-173234218D01*
X22351102Y-173229000D01*
X22164898Y-173229000D01*
X22121440Y-173234218D01*
X22072783Y-173240061D01*
X22043217Y-173240061D01*
X21994559Y-173234218D01*
X21951102Y-173229000D01*
X21764898Y-173229000D01*
X21721440Y-173234218D01*
X21672783Y-173240061D01*
X21643217Y-173240061D01*
X21594559Y-173234218D01*
X21551102Y-173229000D01*
X21364898Y-173229000D01*
X21321440Y-173234218D01*
X21272783Y-173240061D01*
X21243217Y-173240061D01*
X21194559Y-173234218D01*
X21151102Y-173229000D01*
X21082500Y-173229000D01*
X21015461Y-173209315D01*
X20969706Y-173156511D01*
X20958500Y-173105000D01*
X20958500Y-173036397D01*
X20951066Y-172974494D01*
X20947877Y-172947936D01*
X20947876Y-172947934D01*
X20947438Y-172944285D01*
X20947438Y-172914715D01*
X20947876Y-172911065D01*
X20947877Y-172911064D01*
X20958500Y-172822602D01*
X20958500Y-172636398D01*
X20947877Y-172547936D01*
X20947875Y-172547932D01*
X20947185Y-172542182D01*
X20947185Y-172512610D01*
X20958000Y-172422559D01*
X20958000Y-172236440D01*
X20947185Y-172146390D01*
X20947185Y-172116818D01*
X20947875Y-172111067D01*
X20947877Y-172111064D01*
X20958500Y-172022602D01*
X20958500Y-171836398D01*
X20947877Y-171747936D01*
X20947876Y-171747934D01*
X20947438Y-171744285D01*
X20947438Y-171714715D01*
X20947876Y-171711065D01*
X20947877Y-171711064D01*
X20958500Y-171622602D01*
X20958500Y-171436398D01*
X20947877Y-171347936D01*
X20947875Y-171347932D01*
X20947185Y-171342182D01*
X20947185Y-171312610D01*
X20958000Y-171222559D01*
X20958000Y-171154000D01*
X20977685Y-171086961D01*
X21030489Y-171041206D01*
X21082000Y-171030000D01*
X21151103Y-171030000D01*
X21167178Y-171028069D01*
X21239564Y-171019377D01*
X21239565Y-171019376D01*
X21243215Y-171018938D01*
X21272785Y-171018938D01*
X21276434Y-171019376D01*
G37*
G04 #@! TD.AperFunction*
G04 #@! TA.AperFunction,Conductor*
G36*
X26655039Y-164624184D02*
G01*
X26700794Y-164676988D01*
X26712000Y-164728499D01*
X26712000Y-166641402D01*
X26692315Y-166708441D01*
X26675681Y-166729083D01*
X25994182Y-167410582D01*
X25932859Y-167444067D01*
X25863167Y-167439083D01*
X25807234Y-167397211D01*
X25782817Y-167331747D01*
X25782501Y-167322901D01*
X25782501Y-167271944D01*
X25776621Y-167250000D01*
X25741577Y-167119216D01*
X25714526Y-167072362D01*
X25662524Y-166982290D01*
X25662518Y-166982282D01*
X25546847Y-166866611D01*
X25513362Y-166805288D01*
X25518346Y-166735596D01*
X25546850Y-166691246D01*
X25556717Y-166681379D01*
X25556722Y-166681372D01*
X25639031Y-166542195D01*
X25639033Y-166542190D01*
X25684144Y-166386918D01*
X25684145Y-166386912D01*
X25685790Y-166366000D01*
X25097598Y-166366000D01*
X25030559Y-166346315D01*
X25009917Y-166329681D01*
X24883916Y-166203680D01*
X24850431Y-166142357D01*
X24855415Y-166072665D01*
X24883916Y-166028318D01*
X25009915Y-165902319D01*
X25071238Y-165868834D01*
X25097596Y-165866000D01*
X25685790Y-165866000D01*
X25684145Y-165845089D01*
X25639031Y-165689804D01*
X25556721Y-165550625D01*
X25556714Y-165550616D01*
X25546846Y-165540748D01*
X25513361Y-165479425D01*
X25518345Y-165409733D01*
X25546842Y-165365391D01*
X26271416Y-164640818D01*
X26332739Y-164607333D01*
X26359097Y-164604499D01*
X26588000Y-164604499D01*
X26655039Y-164624184D01*
G37*
G04 #@! TD.AperFunction*
G04 #@! TA.AperFunction,Conductor*
G36*
X22199842Y-161923511D02*
G01*
X22201454Y-161921095D01*
X22201457Y-161921097D01*
X22210137Y-161928213D01*
X22212703Y-161929385D01*
X22219181Y-161935417D01*
X22220349Y-161936585D01*
X22220355Y-161936590D01*
X23090181Y-162806417D01*
X23123666Y-162867740D01*
X23126500Y-162894097D01*
X23126500Y-163013168D01*
X23126501Y-163013192D01*
X23129335Y-163049205D01*
X23174129Y-163203388D01*
X23174132Y-163203395D01*
X23208128Y-163260881D01*
X23225309Y-163328605D01*
X23208128Y-163387119D01*
X23174132Y-163444604D01*
X23174129Y-163444611D01*
X23129335Y-163598791D01*
X23129334Y-163598797D01*
X23126500Y-163634811D01*
X23126500Y-163753902D01*
X23106815Y-163820941D01*
X23090181Y-163841583D01*
X22196481Y-164735282D01*
X22196480Y-164735284D01*
X22157929Y-164802057D01*
X22117423Y-164872215D01*
X22076499Y-165024943D01*
X22076499Y-165024945D01*
X22076499Y-165178153D01*
X22056814Y-165245192D01*
X22004010Y-165290947D01*
X21992082Y-165292661D01*
X21967000Y-165311494D01*
X21967000Y-165617645D01*
X21949734Y-165680763D01*
X21944507Y-165689600D01*
X21944504Y-165689608D01*
X21899357Y-165845002D01*
X21899356Y-165845008D01*
X21896500Y-165881302D01*
X21896500Y-166242000D01*
X21876815Y-166309039D01*
X21824011Y-166354794D01*
X21772500Y-166366000D01*
X21591000Y-166366000D01*
X21523961Y-166346315D01*
X21478206Y-166293511D01*
X21467000Y-166242000D01*
X21467000Y-165311494D01*
X21466998Y-165311493D01*
X21320809Y-165353965D01*
X21320806Y-165353967D01*
X21305621Y-165362948D01*
X21237897Y-165380131D01*
X21171635Y-165357971D01*
X21127871Y-165303505D01*
X21118500Y-165256216D01*
X21118500Y-165023096D01*
X21138185Y-164956057D01*
X21154815Y-164935419D01*
X21449416Y-164640817D01*
X21510739Y-164607333D01*
X21537097Y-164604499D01*
X21656168Y-164604499D01*
X21656180Y-164604499D01*
X21692204Y-164601665D01*
X21846393Y-164556869D01*
X21984598Y-164475135D01*
X22098135Y-164361598D01*
X22179869Y-164223393D01*
X22224665Y-164069204D01*
X22227500Y-164033181D01*
X22227499Y-163634820D01*
X22224665Y-163598796D01*
X22179869Y-163444607D01*
X22145869Y-163387117D01*
X22128688Y-163319398D01*
X22145869Y-163260882D01*
X22179869Y-163203393D01*
X22224665Y-163049204D01*
X22227500Y-163013181D01*
X22227499Y-162614820D01*
X22224665Y-162578796D01*
X22179869Y-162424607D01*
X22098135Y-162286402D01*
X22098133Y-162286400D01*
X22098130Y-162286396D01*
X22043819Y-162232085D01*
X22010334Y-162170762D01*
X22007500Y-162144404D01*
X22007500Y-162023098D01*
X22027185Y-161956059D01*
X22079989Y-161910304D01*
X22149147Y-161900360D01*
X22199842Y-161923511D01*
G37*
G04 #@! TD.AperFunction*
G04 #@! TA.AperFunction,Conductor*
G36*
X15779539Y-187979685D02*
G01*
X15825294Y-188032489D01*
X15836500Y-188084000D01*
X15836500Y-189740701D01*
X15839401Y-189777567D01*
X15839402Y-189777573D01*
X15885254Y-189935393D01*
X15885255Y-189935396D01*
X15968917Y-190076862D01*
X15968923Y-190076870D01*
X16000180Y-190108126D01*
X16033666Y-190169448D01*
X16036500Y-190195808D01*
X16036500Y-190419183D01*
X16019232Y-190482304D01*
X15960505Y-190581606D01*
X15960504Y-190581609D01*
X15915357Y-190737002D01*
X15915356Y-190737008D01*
X15912500Y-190773302D01*
X15912500Y-191242697D01*
X15915356Y-191278991D01*
X15915357Y-191278997D01*
X15960576Y-191434638D01*
X15965500Y-191469233D01*
X15965500Y-191485330D01*
X15965499Y-191485348D01*
X15965499Y-191651055D01*
X15966560Y-191659116D01*
X15964958Y-191659326D01*
X15967333Y-191691021D01*
X15958435Y-191769996D01*
X15958435Y-191770003D01*
X15978630Y-191949249D01*
X15978631Y-191949254D01*
X16038211Y-192119523D01*
X16058618Y-192152000D01*
X16134184Y-192272262D01*
X16261738Y-192399816D01*
X16414478Y-192495789D01*
X16459249Y-192511455D01*
X16584745Y-192555368D01*
X16584750Y-192555369D01*
X16763996Y-192575565D01*
X16764000Y-192575565D01*
X16764004Y-192575565D01*
X16943249Y-192555369D01*
X16943252Y-192555368D01*
X16943255Y-192555368D01*
X17113522Y-192495789D01*
X17266262Y-192399816D01*
X17393816Y-192272262D01*
X17489789Y-192119522D01*
X17549368Y-191949255D01*
X17549976Y-191943862D01*
X17569565Y-191770003D01*
X17569565Y-191769996D01*
X17549369Y-191590750D01*
X17549368Y-191590745D01*
X17516858Y-191497836D01*
X17489789Y-191420478D01*
X17478197Y-191402029D01*
X17459197Y-191334792D01*
X17464116Y-191301459D01*
X17467048Y-191291366D01*
X17470643Y-191278993D01*
X17473500Y-191242690D01*
X17473500Y-190882000D01*
X17493185Y-190814961D01*
X17545989Y-190769206D01*
X17597500Y-190758000D01*
X17779000Y-190758000D01*
X17846039Y-190777685D01*
X17891794Y-190830489D01*
X17903000Y-190882000D01*
X17903000Y-191812503D01*
X18049195Y-191770031D01*
X18188374Y-191687721D01*
X18188383Y-191687714D01*
X18269819Y-191606279D01*
X18331142Y-191572794D01*
X18400834Y-191577778D01*
X18456767Y-191619650D01*
X18481184Y-191685114D01*
X18481500Y-191693960D01*
X18481500Y-192315138D01*
X18461815Y-192382177D01*
X18421581Y-192419637D01*
X18421769Y-192419888D01*
X18419441Y-192421630D01*
X18416932Y-192423967D01*
X18414670Y-192425202D01*
X18299455Y-192511452D01*
X18299452Y-192511455D01*
X18213206Y-192626664D01*
X18213202Y-192626671D01*
X18162908Y-192761517D01*
X18156501Y-192821116D01*
X18156500Y-192821135D01*
X18156500Y-193766870D01*
X18156501Y-193766876D01*
X18162908Y-193826483D01*
X18213202Y-193961328D01*
X18213206Y-193961335D01*
X18299452Y-194076544D01*
X18299455Y-194076547D01*
X18414664Y-194162793D01*
X18414671Y-194162797D01*
X18549517Y-194213091D01*
X18549516Y-194213091D01*
X18556444Y-194213835D01*
X18609127Y-194219500D01*
X19554872Y-194219499D01*
X19614483Y-194213091D01*
X19706530Y-194178759D01*
X19776218Y-194173776D01*
X19788039Y-194177678D01*
X19788246Y-194177042D01*
X19794426Y-194179049D01*
X19794429Y-194179051D01*
X19984726Y-194219500D01*
X20179274Y-194219500D01*
X20369566Y-194179052D01*
X20369565Y-194179052D01*
X20369571Y-194179051D01*
X20531569Y-194106925D01*
X20600815Y-194097642D01*
X20632425Y-194106922D01*
X20794429Y-194179051D01*
X20794432Y-194179051D01*
X20794433Y-194179052D01*
X20984726Y-194219500D01*
X21179274Y-194219500D01*
X21369566Y-194179052D01*
X21369565Y-194179052D01*
X21369571Y-194179051D01*
X21531569Y-194106925D01*
X21600815Y-194097642D01*
X21632425Y-194106922D01*
X21794429Y-194179051D01*
X21794432Y-194179051D01*
X21794433Y-194179052D01*
X21984726Y-194219500D01*
X22179274Y-194219500D01*
X22369566Y-194179052D01*
X22369565Y-194179052D01*
X22369571Y-194179051D01*
X22531569Y-194106925D01*
X22600815Y-194097642D01*
X22632425Y-194106922D01*
X22794429Y-194179051D01*
X22794432Y-194179051D01*
X22794433Y-194179052D01*
X22984726Y-194219500D01*
X23179274Y-194219500D01*
X23369566Y-194179052D01*
X23369565Y-194179052D01*
X23369571Y-194179051D01*
X23532184Y-194106651D01*
X23601429Y-194097368D01*
X23633051Y-194106653D01*
X23794585Y-194178573D01*
X23831999Y-194186524D01*
X23832000Y-194186524D01*
X23832000Y-193879189D01*
X23848613Y-193817189D01*
X23932142Y-193672511D01*
X23932143Y-193672510D01*
X23932209Y-193672307D01*
X23980822Y-193522689D01*
X24032272Y-193544000D01*
X24131728Y-193544000D01*
X24332000Y-193544000D01*
X24332000Y-194186524D01*
X24369412Y-194178573D01*
X24547049Y-194099484D01*
X24704357Y-193985192D01*
X24704360Y-193985190D01*
X24834463Y-193840694D01*
X24931682Y-193672307D01*
X24931683Y-193672306D01*
X24973372Y-193544000D01*
X24332000Y-193544000D01*
X24131728Y-193544000D01*
X24223614Y-193505940D01*
X24293940Y-193435614D01*
X24332000Y-193343728D01*
X24332000Y-193244272D01*
X24293940Y-193152386D01*
X24223614Y-193082060D01*
X24131728Y-193044000D01*
X24973372Y-193044000D01*
X24973371Y-193043999D01*
X24972338Y-193040818D01*
X24970343Y-192970977D01*
X25006423Y-192911144D01*
X25069124Y-192880316D01*
X25090269Y-192878500D01*
X25713575Y-192878500D01*
X25780614Y-192898185D01*
X25819113Y-192937402D01*
X25846031Y-192981043D01*
X25965955Y-193100967D01*
X25965959Y-193100970D01*
X26110294Y-193189998D01*
X26110297Y-193189999D01*
X26110303Y-193190003D01*
X26271292Y-193243349D01*
X26370655Y-193253500D01*
X26917344Y-193253499D01*
X26917352Y-193253498D01*
X26917355Y-193253498D01*
X26971760Y-193247940D01*
X27016708Y-193243349D01*
X27177697Y-193190003D01*
X27322044Y-193100968D01*
X27331668Y-193091343D01*
X27392987Y-193057856D01*
X27462679Y-193062835D01*
X27507034Y-193091339D01*
X27516267Y-193100572D01*
X27516271Y-193100575D01*
X27660507Y-193189542D01*
X27660518Y-193189547D01*
X27821393Y-193242855D01*
X27920683Y-193252999D01*
X27944000Y-193252998D01*
X27944000Y-192528000D01*
X28444000Y-192528000D01*
X28444000Y-193252999D01*
X28467308Y-193252999D01*
X28467322Y-193252998D01*
X28566607Y-193242855D01*
X28727481Y-193189547D01*
X28727492Y-193189542D01*
X28871728Y-193100575D01*
X28871732Y-193100572D01*
X28991572Y-192980732D01*
X28991575Y-192980728D01*
X29080542Y-192836492D01*
X29080547Y-192836481D01*
X29133855Y-192675606D01*
X29143999Y-192576322D01*
X29144000Y-192576309D01*
X29144000Y-192528000D01*
X28444000Y-192528000D01*
X27944000Y-192528000D01*
X27944000Y-192152000D01*
X27963685Y-192084961D01*
X28016489Y-192039206D01*
X28068000Y-192028000D01*
X29143999Y-192028000D01*
X29143999Y-191979692D01*
X29143998Y-191979677D01*
X29133855Y-191880392D01*
X29080547Y-191719518D01*
X29080542Y-191719507D01*
X28991575Y-191575271D01*
X28991572Y-191575267D01*
X28871732Y-191455427D01*
X28871728Y-191455424D01*
X28727492Y-191366457D01*
X28727481Y-191366452D01*
X28688119Y-191353409D01*
X28630674Y-191313636D01*
X28603851Y-191249120D01*
X28613325Y-191186448D01*
X28616031Y-191180194D01*
X28661145Y-191024910D01*
X28662790Y-191004000D01*
X27828500Y-191004000D01*
X27761461Y-190984315D01*
X27715706Y-190931511D01*
X27704500Y-190880000D01*
X27704500Y-190519317D01*
X27704499Y-190519302D01*
X27703359Y-190504819D01*
X27703295Y-190504000D01*
X28134000Y-190504000D01*
X28662790Y-190504000D01*
X28661145Y-190483089D01*
X28616031Y-190327804D01*
X28615722Y-190327281D01*
X28615603Y-190326815D01*
X28612934Y-190320646D01*
X28613928Y-190320215D01*
X28598534Y-190259558D01*
X28620689Y-190193294D01*
X28634768Y-190176470D01*
X28734681Y-190076557D01*
X28734685Y-190076552D01*
X28818282Y-189935196D01*
X28818283Y-189935193D01*
X28864099Y-189777495D01*
X28864100Y-189777489D01*
X28866999Y-189740649D01*
X28867000Y-189740634D01*
X28867000Y-189050000D01*
X28317000Y-189050000D01*
X28317000Y-190244000D01*
X28297315Y-190311039D01*
X28244511Y-190356794D01*
X28193000Y-190368000D01*
X28134000Y-190368000D01*
X28134000Y-190504000D01*
X27703295Y-190504000D01*
X27701643Y-190483007D01*
X27697514Y-190468796D01*
X27656495Y-190327608D01*
X27656492Y-190327600D01*
X27651266Y-190318763D01*
X27634000Y-190255645D01*
X27634000Y-190025000D01*
X27653685Y-189957961D01*
X27706489Y-189912206D01*
X27758000Y-189901000D01*
X27817000Y-189901000D01*
X27817000Y-188674000D01*
X27836685Y-188606961D01*
X27889489Y-188561206D01*
X27941000Y-188550000D01*
X28867000Y-188550000D01*
X28867000Y-188084000D01*
X28886685Y-188016961D01*
X28939489Y-187971206D01*
X28991000Y-187960000D01*
X31599500Y-187960000D01*
X31666539Y-187979685D01*
X31712294Y-188032489D01*
X31723500Y-188084000D01*
X31723500Y-194879500D01*
X31703815Y-194946539D01*
X31651011Y-194992294D01*
X31599500Y-195003500D01*
X14848500Y-195003500D01*
X14781461Y-194983815D01*
X14735706Y-194931011D01*
X14724500Y-194879500D01*
X14724500Y-188084000D01*
X14744185Y-188016961D01*
X14796989Y-187971206D01*
X14848500Y-187960000D01*
X15712500Y-187960000D01*
X15779539Y-187979685D01*
G37*
G04 #@! TD.AperFunction*
G04 #@! TA.AperFunction,Conductor*
G36*
X23180039Y-188569685D02*
G01*
X23225794Y-188622489D01*
X23237000Y-188674000D01*
X23237000Y-190322295D01*
X23237001Y-190322295D01*
X23239486Y-190322100D01*
X23397198Y-190276281D01*
X23538550Y-190192686D01*
X23544717Y-190187903D01*
X23546630Y-190190369D01*
X23595222Y-190163802D01*
X23664917Y-190168749D01*
X23697762Y-190189853D01*
X23698969Y-190188298D01*
X23705132Y-190193078D01*
X23705135Y-190193081D01*
X23846602Y-190276744D01*
X23888224Y-190288836D01*
X24004426Y-190322597D01*
X24004428Y-190322597D01*
X24004431Y-190322598D01*
X24007281Y-190322822D01*
X24008077Y-190322885D01*
X24009986Y-190323612D01*
X24010667Y-190323737D01*
X24010643Y-190323863D01*
X24073367Y-190347765D01*
X24114841Y-190403993D01*
X24119796Y-190462397D01*
X24120832Y-190462479D01*
X24120337Y-190468768D01*
X24120338Y-190468779D01*
X24120334Y-190468796D01*
X24117500Y-190504811D01*
X24117500Y-191003169D01*
X24117501Y-191003191D01*
X24120335Y-191039205D01*
X24165129Y-191193388D01*
X24165131Y-191193393D01*
X24246863Y-191331595D01*
X24246869Y-191331603D01*
X24360396Y-191445130D01*
X24360407Y-191445139D01*
X24363162Y-191446768D01*
X24364880Y-191448608D01*
X24366565Y-191449915D01*
X24366354Y-191450186D01*
X24410846Y-191497836D01*
X24423350Y-191566578D01*
X24396705Y-191631168D01*
X24339370Y-191671098D01*
X24300042Y-191677500D01*
X23576017Y-191677500D01*
X23417903Y-191677500D01*
X23265175Y-191718423D01*
X23265174Y-191718423D01*
X23265172Y-191718424D01*
X23265169Y-191718425D01*
X23223439Y-191742519D01*
X23223437Y-191742520D01*
X23128250Y-191797475D01*
X23128242Y-191797481D01*
X22894181Y-192031543D01*
X22832858Y-192065028D01*
X22763166Y-192060044D01*
X22707233Y-192018172D01*
X22682816Y-191952708D01*
X22682500Y-191943862D01*
X22682500Y-190954059D01*
X22682501Y-190954046D01*
X22682501Y-190785945D01*
X22682501Y-190785943D01*
X22641577Y-190633215D01*
X22610309Y-190579057D01*
X22562520Y-190496284D01*
X22562519Y-190496283D01*
X22561253Y-190494090D01*
X22544780Y-190426190D01*
X22567632Y-190360163D01*
X22622554Y-190316972D01*
X22692107Y-190310331D01*
X22703236Y-190313014D01*
X22734508Y-190322099D01*
X22734511Y-190322100D01*
X22736998Y-190322295D01*
X22737000Y-190322295D01*
X22737000Y-188674000D01*
X22756685Y-188606961D01*
X22809489Y-188561206D01*
X22861000Y-188550000D01*
X23113000Y-188550000D01*
X23180039Y-188569685D01*
G37*
G04 #@! TD.AperFunction*
M02*
