%TF.GenerationSoftware,KiCad,Pcbnew,8.0.0-8.0.0-1~ubuntu20.04.1*%
%TF.CreationDate,2025-04-08T14:30:48+02:00*%
%TF.ProjectId,eeg-breakout,6565672d-6272-4656-916b-6f75742e6b69,1*%
%TF.SameCoordinates,Original*%
%TF.FileFunction,Drillmap*%
%TF.FilePolarity,Positive*%
%FSLAX45Y45*%
G04 Gerber Fmt 4.5, Leading zero omitted, Abs format (unit mm)*
G04 Created by KiCad (PCBNEW 8.0.0-8.0.0-1~ubuntu20.04.1) date 2025-04-08 14:30:48*
%MOMM*%
%LPD*%
G01*
G04 APERTURE LIST*
%ADD10C,0.050000*%
%ADD11C,0.200000*%
G04 APERTURE END LIST*
D10*
X1422400Y-15900400D02*
X3222400Y-15900400D01*
X3222400Y-19550400D01*
X1422400Y-19550400D01*
X1422400Y-15900400D01*
D11*
X1680677Y-19864384D02*
X1680677Y-19664384D01*
X1680677Y-19664384D02*
X1728296Y-19664384D01*
X1728296Y-19664384D02*
X1756867Y-19673908D01*
X1756867Y-19673908D02*
X1775915Y-19692955D01*
X1775915Y-19692955D02*
X1785439Y-19712003D01*
X1785439Y-19712003D02*
X1794962Y-19750098D01*
X1794962Y-19750098D02*
X1794962Y-19778670D01*
X1794962Y-19778670D02*
X1785439Y-19816765D01*
X1785439Y-19816765D02*
X1775915Y-19835812D01*
X1775915Y-19835812D02*
X1756867Y-19854860D01*
X1756867Y-19854860D02*
X1728296Y-19864384D01*
X1728296Y-19864384D02*
X1680677Y-19864384D01*
X1880677Y-19864384D02*
X1880677Y-19731050D01*
X1880677Y-19769146D02*
X1890201Y-19750098D01*
X1890201Y-19750098D02*
X1899724Y-19740574D01*
X1899724Y-19740574D02*
X1918772Y-19731050D01*
X1918772Y-19731050D02*
X1937820Y-19731050D01*
X2004486Y-19864384D02*
X2004486Y-19731050D01*
X2004486Y-19664384D02*
X1994962Y-19673908D01*
X1994962Y-19673908D02*
X2004486Y-19683431D01*
X2004486Y-19683431D02*
X2014010Y-19673908D01*
X2014010Y-19673908D02*
X2004486Y-19664384D01*
X2004486Y-19664384D02*
X2004486Y-19683431D01*
X2128296Y-19864384D02*
X2109248Y-19854860D01*
X2109248Y-19854860D02*
X2099724Y-19835812D01*
X2099724Y-19835812D02*
X2099724Y-19664384D01*
X2233058Y-19864384D02*
X2214010Y-19854860D01*
X2214010Y-19854860D02*
X2204486Y-19835812D01*
X2204486Y-19835812D02*
X2204486Y-19664384D01*
X2461629Y-19864384D02*
X2461629Y-19664384D01*
X2461629Y-19664384D02*
X2528296Y-19807241D01*
X2528296Y-19807241D02*
X2594963Y-19664384D01*
X2594963Y-19664384D02*
X2594963Y-19864384D01*
X2775915Y-19864384D02*
X2775915Y-19759622D01*
X2775915Y-19759622D02*
X2766391Y-19740574D01*
X2766391Y-19740574D02*
X2747344Y-19731050D01*
X2747344Y-19731050D02*
X2709248Y-19731050D01*
X2709248Y-19731050D02*
X2690201Y-19740574D01*
X2775915Y-19854860D02*
X2756867Y-19864384D01*
X2756867Y-19864384D02*
X2709248Y-19864384D01*
X2709248Y-19864384D02*
X2690201Y-19854860D01*
X2690201Y-19854860D02*
X2680677Y-19835812D01*
X2680677Y-19835812D02*
X2680677Y-19816765D01*
X2680677Y-19816765D02*
X2690201Y-19797717D01*
X2690201Y-19797717D02*
X2709248Y-19788193D01*
X2709248Y-19788193D02*
X2756867Y-19788193D01*
X2756867Y-19788193D02*
X2775915Y-19778670D01*
X2871153Y-19731050D02*
X2871153Y-19931050D01*
X2871153Y-19740574D02*
X2890201Y-19731050D01*
X2890201Y-19731050D02*
X2928296Y-19731050D01*
X2928296Y-19731050D02*
X2947343Y-19740574D01*
X2947343Y-19740574D02*
X2956867Y-19750098D01*
X2956867Y-19750098D02*
X2966391Y-19769146D01*
X2966391Y-19769146D02*
X2966391Y-19826289D01*
X2966391Y-19826289D02*
X2956867Y-19845336D01*
X2956867Y-19845336D02*
X2947343Y-19854860D01*
X2947343Y-19854860D02*
X2928296Y-19864384D01*
X2928296Y-19864384D02*
X2890201Y-19864384D01*
X2890201Y-19864384D02*
X2871153Y-19854860D01*
X3052105Y-19845336D02*
X3061629Y-19854860D01*
X3061629Y-19854860D02*
X3052105Y-19864384D01*
X3052105Y-19864384D02*
X3042582Y-19854860D01*
X3042582Y-19854860D02*
X3052105Y-19845336D01*
X3052105Y-19845336D02*
X3052105Y-19864384D01*
X3052105Y-19740574D02*
X3061629Y-19750098D01*
X3061629Y-19750098D02*
X3052105Y-19759622D01*
X3052105Y-19759622D02*
X3042582Y-19750098D01*
X3042582Y-19750098D02*
X3052105Y-19740574D01*
X3052105Y-19740574D02*
X3052105Y-19759622D01*
M02*
