M48
; DRILL file {KiCad 8.0.0-8.0.0-1~ubuntu20.04.1} date 2025-04-08T14:30:46+0200
; FORMAT={-:-/ absolute / metric / decimal}
; #@! TF.CreationDate,2025-04-08T14:30:46+02:00
; #@! TF.GenerationSoftware,Kicad,Pcbnew,8.0.0-8.0.0-1~ubuntu20.04.1
; #@! TF.FileFunction,Plated,1,4,PTH
FMAT,2
METRIC
; #@! TA.AperFunction,Plated,PTH,ViaDrill
T1C0.300
; #@! TA.AperFunction,Plated,PTH,ComponentDrill
T2C0.500
%
G90
G05
T1
X16.51Y-161.29
X16.637Y-166.116
X16.637Y-178.054
X16.764Y-191.77
X17.018Y-170.307
X17.018Y-172.339
X17.653Y-176.403
X18.053Y-190.584
X18.359Y-165.354
X18.74Y-173.99
X19.685Y-165.227
X20.01Y-174.625
X21.28Y-171.45
X21.717Y-165.354
X21.915Y-167.259
X22.55Y-175.641
X22.804Y-172.974
X22.86Y-190.246
X23.177Y-178.498
X23.439Y-167.767
X24.582Y-169.926
X25.217Y-175.514
X25.654Y-166.116
X26.106Y-174.752
X26.416Y-191.262
X27.376Y-173.228
X27.94Y-191.516
X28.829Y-175.26
X29.337Y-177.927
X29.845Y-161.29
X29.845Y-164.465
X29.845Y-169.545
T2
X19.082Y-193.294
X20.082Y-193.294
X20.582Y-160.782
X21.082Y-193.294
X21.582Y-160.782
X22.082Y-193.294
X22.582Y-160.782
X23.082Y-193.294
X23.582Y-160.782
X24.082Y-193.294
X24.582Y-160.782
M30
