G04 #@! TF.GenerationSoftware,KiCad,Pcbnew,8.0.0-8.0.0-1~ubuntu20.04.1*
G04 #@! TF.CreationDate,2025-04-08T14:29:49+02:00*
G04 #@! TF.ProjectId,eeg-breakout,6565672d-6272-4656-916b-6f75742e6b69,1*
G04 #@! TF.SameCoordinates,Original*
G04 #@! TF.FileFunction,Copper,L2,Inr*
G04 #@! TF.FilePolarity,Positive*
%FSLAX46Y46*%
G04 Gerber Fmt 4.6, Leading zero omitted, Abs format (unit mm)*
G04 Created by KiCad (PCBNEW 8.0.0-8.0.0-1~ubuntu20.04.1) date 2025-04-08 14:29:49*
%MOMM*%
%LPD*%
G01*
G04 APERTURE LIST*
G04 #@! TA.AperFunction,ComponentPad*
%ADD10O,0.850000X0.850000*%
G04 #@! TD*
G04 #@! TA.AperFunction,ComponentPad*
%ADD11R,0.850000X0.850000*%
G04 #@! TD*
G04 #@! TA.AperFunction,ViaPad*
%ADD12C,0.600000*%
G04 #@! TD*
G04 APERTURE END LIST*
D10*
X24582000Y-160782000D03*
X23582000Y-160782000D03*
X22582000Y-160782000D03*
X21582000Y-160782000D03*
D11*
X20582000Y-160782000D03*
X19082000Y-193294000D03*
D10*
X20082000Y-193294000D03*
X21082000Y-193294000D03*
X22082000Y-193294000D03*
X23082000Y-193294000D03*
X24082000Y-193294000D03*
D12*
X29845000Y-169545000D03*
X16510000Y-161290000D03*
X29845000Y-164465000D03*
X29845000Y-161290000D03*
X17018000Y-170307000D03*
X17018000Y-172339000D03*
X17653000Y-176403000D03*
X19685000Y-165227000D03*
X16637000Y-166116000D03*
X21717000Y-165354000D03*
X25654000Y-166116000D03*
X16637000Y-178054000D03*
X28829000Y-175260000D03*
X29337000Y-177927000D03*
X18359000Y-165354000D03*
X21915000Y-167259000D03*
X23439000Y-167767000D03*
X24582000Y-169926000D03*
X20010000Y-174625000D03*
X18740000Y-173990000D03*
X27376000Y-173228000D03*
X26106000Y-174752000D03*
X22550000Y-175641000D03*
X25217000Y-175514000D03*
X22804000Y-172974000D03*
X21280000Y-171450000D03*
X23177500Y-178498500D03*
X16764000Y-191770000D03*
X26416000Y-191262000D03*
X18052529Y-190584019D03*
X27940000Y-191516000D03*
X22860000Y-190246000D03*
G04 #@! TA.AperFunction,Conductor*
G36*
X31666539Y-159524185D02*
G01*
X31712294Y-159576989D01*
X31723500Y-159628500D01*
X31723500Y-180216000D01*
X31703815Y-180283039D01*
X31651011Y-180328794D01*
X31599500Y-180340000D01*
X14848500Y-180340000D01*
X14781461Y-180320315D01*
X14735706Y-180267511D01*
X14724500Y-180216000D01*
X14724500Y-178054003D01*
X15831435Y-178054003D01*
X15851630Y-178233249D01*
X15851631Y-178233254D01*
X15911211Y-178403523D01*
X16007184Y-178556262D01*
X16134738Y-178683816D01*
X16287478Y-178779789D01*
X16457745Y-178839368D01*
X16457750Y-178839369D01*
X16636996Y-178859565D01*
X16637000Y-178859565D01*
X16637004Y-178859565D01*
X16816249Y-178839369D01*
X16816252Y-178839368D01*
X16816255Y-178839368D01*
X16986522Y-178779789D01*
X17139262Y-178683816D01*
X17266816Y-178556262D01*
X17362789Y-178403522D01*
X17422368Y-178233255D01*
X17442565Y-178054000D01*
X17422368Y-177874745D01*
X17362789Y-177704478D01*
X17266816Y-177551738D01*
X17139262Y-177424184D01*
X16986523Y-177328211D01*
X16816254Y-177268631D01*
X16816249Y-177268630D01*
X16637004Y-177248435D01*
X16636996Y-177248435D01*
X16457750Y-177268630D01*
X16457745Y-177268631D01*
X16287476Y-177328211D01*
X16134737Y-177424184D01*
X16007184Y-177551737D01*
X15911211Y-177704476D01*
X15851631Y-177874745D01*
X15851630Y-177874750D01*
X15831435Y-178053996D01*
X15831435Y-178054003D01*
X14724500Y-178054003D01*
X14724500Y-175641003D01*
X21744435Y-175641003D01*
X21764630Y-175820249D01*
X21764631Y-175820254D01*
X21824211Y-175990523D01*
X21920184Y-176143262D01*
X22047738Y-176270816D01*
X22200478Y-176366789D01*
X22370745Y-176426368D01*
X22370750Y-176426369D01*
X22549996Y-176446565D01*
X22550000Y-176446565D01*
X22550004Y-176446565D01*
X22729249Y-176426369D01*
X22729252Y-176426368D01*
X22729255Y-176426368D01*
X22899522Y-176366789D01*
X23052262Y-176270816D01*
X23179816Y-176143262D01*
X23275789Y-175990522D01*
X23335368Y-175820255D01*
X23335369Y-175820249D01*
X23355565Y-175641003D01*
X23355565Y-175640996D01*
X23341256Y-175514003D01*
X24411435Y-175514003D01*
X24431630Y-175693249D01*
X24431631Y-175693254D01*
X24491211Y-175863523D01*
X24571010Y-175990522D01*
X24587184Y-176016262D01*
X24714738Y-176143816D01*
X24867478Y-176239789D01*
X24956148Y-176270816D01*
X25037745Y-176299368D01*
X25037750Y-176299369D01*
X25216996Y-176319565D01*
X25217000Y-176319565D01*
X25217004Y-176319565D01*
X25396249Y-176299369D01*
X25396252Y-176299368D01*
X25396255Y-176299368D01*
X25566522Y-176239789D01*
X25719262Y-176143816D01*
X25846816Y-176016262D01*
X25942789Y-175863522D01*
X26002368Y-175693255D01*
X26005448Y-175665911D01*
X26032514Y-175601499D01*
X26090109Y-175561943D01*
X26114785Y-175556575D01*
X26143183Y-175553375D01*
X26285249Y-175537369D01*
X26285252Y-175537368D01*
X26285255Y-175537368D01*
X26455522Y-175477789D01*
X26608262Y-175381816D01*
X26730075Y-175260003D01*
X28023435Y-175260003D01*
X28043630Y-175439249D01*
X28043631Y-175439254D01*
X28103211Y-175609523D01*
X28199184Y-175762262D01*
X28326738Y-175889816D01*
X28479478Y-175985789D01*
X28566565Y-176016262D01*
X28649745Y-176045368D01*
X28649750Y-176045369D01*
X28828996Y-176065565D01*
X28829000Y-176065565D01*
X28829004Y-176065565D01*
X29008249Y-176045369D01*
X29008252Y-176045368D01*
X29008255Y-176045368D01*
X29178522Y-175985789D01*
X29331262Y-175889816D01*
X29458816Y-175762262D01*
X29554789Y-175609522D01*
X29614368Y-175439255D01*
X29626143Y-175334750D01*
X29634565Y-175260003D01*
X29634565Y-175259996D01*
X29614369Y-175080750D01*
X29614368Y-175080745D01*
X29590221Y-175011737D01*
X29554789Y-174910478D01*
X29538267Y-174884184D01*
X29469894Y-174775369D01*
X29458816Y-174757738D01*
X29331262Y-174630184D01*
X29178523Y-174534211D01*
X29008254Y-174474631D01*
X29008249Y-174474630D01*
X28829004Y-174454435D01*
X28828996Y-174454435D01*
X28649750Y-174474630D01*
X28649745Y-174474631D01*
X28479476Y-174534211D01*
X28326737Y-174630184D01*
X28199184Y-174757737D01*
X28103211Y-174910476D01*
X28043631Y-175080745D01*
X28043630Y-175080750D01*
X28023435Y-175259996D01*
X28023435Y-175260003D01*
X26730075Y-175260003D01*
X26735816Y-175254262D01*
X26831789Y-175101522D01*
X26891368Y-174931255D01*
X26893709Y-174910478D01*
X26911565Y-174752003D01*
X26911565Y-174751996D01*
X26891369Y-174572750D01*
X26891368Y-174572745D01*
X26857036Y-174474630D01*
X26831789Y-174402478D01*
X26735816Y-174249738D01*
X26608262Y-174122184D01*
X26455523Y-174026211D01*
X26285254Y-173966631D01*
X26285249Y-173966630D01*
X26106004Y-173946435D01*
X26105996Y-173946435D01*
X25926750Y-173966630D01*
X25926745Y-173966631D01*
X25756476Y-174026211D01*
X25603737Y-174122184D01*
X25476184Y-174249737D01*
X25380210Y-174402478D01*
X25320631Y-174572747D01*
X25320630Y-174572751D01*
X25317550Y-174600090D01*
X25290482Y-174664503D01*
X25232887Y-174704057D01*
X25208214Y-174709424D01*
X25037749Y-174728630D01*
X25037745Y-174728631D01*
X24867476Y-174788211D01*
X24714737Y-174884184D01*
X24587184Y-175011737D01*
X24491211Y-175164476D01*
X24431631Y-175334745D01*
X24431630Y-175334750D01*
X24411435Y-175513996D01*
X24411435Y-175514003D01*
X23341256Y-175514003D01*
X23335369Y-175461750D01*
X23335368Y-175461745D01*
X23327496Y-175439249D01*
X23275789Y-175291478D01*
X23179816Y-175138738D01*
X23052262Y-175011184D01*
X22899523Y-174915211D01*
X22729254Y-174855631D01*
X22729249Y-174855630D01*
X22550004Y-174835435D01*
X22549996Y-174835435D01*
X22370750Y-174855630D01*
X22370745Y-174855631D01*
X22200476Y-174915211D01*
X22047737Y-175011184D01*
X21920184Y-175138737D01*
X21824211Y-175291476D01*
X21764631Y-175461745D01*
X21764630Y-175461750D01*
X21744435Y-175640996D01*
X21744435Y-175641003D01*
X14724500Y-175641003D01*
X14724500Y-173990003D01*
X17934435Y-173990003D01*
X17954630Y-174169249D01*
X17954631Y-174169254D01*
X18014211Y-174339523D01*
X18053769Y-174402478D01*
X18110184Y-174492262D01*
X18237738Y-174619816D01*
X18254239Y-174630184D01*
X18371806Y-174704057D01*
X18390478Y-174715789D01*
X18560745Y-174775368D01*
X18560750Y-174775369D01*
X18739996Y-174795565D01*
X18740000Y-174795565D01*
X18740004Y-174795565D01*
X18919249Y-174775369D01*
X18919252Y-174775368D01*
X18919255Y-174775368D01*
X19089522Y-174715789D01*
X19242262Y-174619816D01*
X19369816Y-174492262D01*
X19465789Y-174339522D01*
X19525368Y-174169255D01*
X19545565Y-173990000D01*
X19542932Y-173966632D01*
X19525369Y-173810750D01*
X19525368Y-173810745D01*
X19465788Y-173640476D01*
X19369815Y-173487737D01*
X19242262Y-173360184D01*
X19089523Y-173264211D01*
X18919254Y-173204631D01*
X18919249Y-173204630D01*
X18740004Y-173184435D01*
X18739996Y-173184435D01*
X18560750Y-173204630D01*
X18560745Y-173204631D01*
X18390476Y-173264211D01*
X18237737Y-173360184D01*
X18110184Y-173487737D01*
X18014211Y-173640476D01*
X17954631Y-173810745D01*
X17954630Y-173810750D01*
X17934435Y-173989996D01*
X17934435Y-173990003D01*
X14724500Y-173990003D01*
X14724500Y-169926003D01*
X23776435Y-169926003D01*
X23796630Y-170105249D01*
X23796631Y-170105254D01*
X23856211Y-170275523D01*
X23952184Y-170428262D01*
X24079738Y-170555816D01*
X24232478Y-170651789D01*
X24402745Y-170711368D01*
X24402750Y-170711369D01*
X24581996Y-170731565D01*
X24582000Y-170731565D01*
X24582004Y-170731565D01*
X24761249Y-170711369D01*
X24761252Y-170711368D01*
X24761255Y-170711368D01*
X24931522Y-170651789D01*
X25084262Y-170555816D01*
X25211816Y-170428262D01*
X25307789Y-170275522D01*
X25367368Y-170105255D01*
X25387565Y-169926000D01*
X25367368Y-169746745D01*
X25307789Y-169576478D01*
X25211816Y-169423738D01*
X25084262Y-169296184D01*
X24931523Y-169200211D01*
X24761254Y-169140631D01*
X24761249Y-169140630D01*
X24582004Y-169120435D01*
X24581996Y-169120435D01*
X24402750Y-169140630D01*
X24402745Y-169140631D01*
X24232476Y-169200211D01*
X24079737Y-169296184D01*
X23952184Y-169423737D01*
X23856211Y-169576476D01*
X23796631Y-169746745D01*
X23796630Y-169746750D01*
X23776435Y-169925996D01*
X23776435Y-169926003D01*
X14724500Y-169926003D01*
X14724500Y-167259003D01*
X21109435Y-167259003D01*
X21129630Y-167438249D01*
X21129631Y-167438254D01*
X21189211Y-167608523D01*
X21285184Y-167761262D01*
X21412738Y-167888816D01*
X21565478Y-167984789D01*
X21735745Y-168044368D01*
X21735750Y-168044369D01*
X21914996Y-168064565D01*
X21915000Y-168064565D01*
X21915004Y-168064565D01*
X22094249Y-168044369D01*
X22094252Y-168044368D01*
X22094255Y-168044368D01*
X22264522Y-167984789D01*
X22417262Y-167888816D01*
X22441809Y-167864268D01*
X22503128Y-167830785D01*
X22572820Y-167835768D01*
X22628754Y-167877639D01*
X22652708Y-167938061D01*
X22653631Y-167946253D01*
X22653631Y-167946254D01*
X22713211Y-168116523D01*
X22809184Y-168269262D01*
X22936738Y-168396816D01*
X23089478Y-168492789D01*
X23259745Y-168552368D01*
X23259750Y-168552369D01*
X23438996Y-168572565D01*
X23439000Y-168572565D01*
X23439004Y-168572565D01*
X23618249Y-168552369D01*
X23618252Y-168552368D01*
X23618255Y-168552368D01*
X23788522Y-168492789D01*
X23941262Y-168396816D01*
X24068816Y-168269262D01*
X24164789Y-168116522D01*
X24224368Y-167946255D01*
X24224369Y-167946249D01*
X24244565Y-167767003D01*
X24244565Y-167766996D01*
X24224369Y-167587750D01*
X24224368Y-167587745D01*
X24164788Y-167417476D01*
X24068815Y-167264737D01*
X23941262Y-167137184D01*
X23788523Y-167041211D01*
X23618254Y-166981631D01*
X23618249Y-166981630D01*
X23439004Y-166961435D01*
X23438996Y-166961435D01*
X23259750Y-166981630D01*
X23259745Y-166981631D01*
X23089476Y-167041211D01*
X22936739Y-167137183D01*
X22912191Y-167161731D01*
X22850867Y-167195215D01*
X22781175Y-167190229D01*
X22725243Y-167148357D01*
X22701291Y-167087931D01*
X22700369Y-167079750D01*
X22700368Y-167079745D01*
X22666036Y-166981630D01*
X22640789Y-166909478D01*
X22544816Y-166756738D01*
X22417262Y-166629184D01*
X22264523Y-166533211D01*
X22094254Y-166473631D01*
X22094249Y-166473630D01*
X21915004Y-166453435D01*
X21914996Y-166453435D01*
X21735750Y-166473630D01*
X21735745Y-166473631D01*
X21565476Y-166533211D01*
X21412737Y-166629184D01*
X21285184Y-166756737D01*
X21189211Y-166909476D01*
X21129631Y-167079745D01*
X21129630Y-167079750D01*
X21109435Y-167258996D01*
X21109435Y-167259003D01*
X14724500Y-167259003D01*
X14724500Y-165354003D01*
X17553435Y-165354003D01*
X17573630Y-165533249D01*
X17573631Y-165533254D01*
X17633211Y-165703523D01*
X17729184Y-165856262D01*
X17856738Y-165983816D01*
X18009478Y-166079789D01*
X18179745Y-166139368D01*
X18179750Y-166139369D01*
X18358996Y-166159565D01*
X18359000Y-166159565D01*
X18359004Y-166159565D01*
X18538249Y-166139369D01*
X18538252Y-166139368D01*
X18538255Y-166139368D01*
X18708522Y-166079789D01*
X18861262Y-165983816D01*
X18988816Y-165856262D01*
X19084789Y-165703522D01*
X19144368Y-165533255D01*
X19164565Y-165354000D01*
X19144368Y-165174745D01*
X19084789Y-165004478D01*
X18988816Y-164851738D01*
X18861262Y-164724184D01*
X18708523Y-164628211D01*
X18538254Y-164568631D01*
X18538249Y-164568630D01*
X18359004Y-164548435D01*
X18358996Y-164548435D01*
X18179750Y-164568630D01*
X18179745Y-164568631D01*
X18009476Y-164628211D01*
X17856737Y-164724184D01*
X17729184Y-164851737D01*
X17633211Y-165004476D01*
X17573631Y-165174745D01*
X17573630Y-165174750D01*
X17553435Y-165353996D01*
X17553435Y-165354003D01*
X14724500Y-165354003D01*
X14724500Y-161254870D01*
X19656500Y-161254870D01*
X19656501Y-161254876D01*
X19662908Y-161314483D01*
X19713202Y-161449328D01*
X19713206Y-161449335D01*
X19799452Y-161564544D01*
X19799455Y-161564547D01*
X19914664Y-161650793D01*
X19914671Y-161650797D01*
X20049517Y-161701091D01*
X20049516Y-161701091D01*
X20056444Y-161701835D01*
X20109127Y-161707500D01*
X21054872Y-161707499D01*
X21114483Y-161701091D01*
X21206530Y-161666759D01*
X21276218Y-161661776D01*
X21288039Y-161665678D01*
X21288246Y-161665042D01*
X21294426Y-161667049D01*
X21294429Y-161667051D01*
X21484726Y-161707500D01*
X21679274Y-161707500D01*
X21869566Y-161667052D01*
X21869565Y-161667052D01*
X21869571Y-161667051D01*
X22031569Y-161594925D01*
X22100815Y-161585642D01*
X22132425Y-161594922D01*
X22294429Y-161667051D01*
X22294432Y-161667051D01*
X22294433Y-161667052D01*
X22484726Y-161707500D01*
X22679274Y-161707500D01*
X22869566Y-161667052D01*
X22869565Y-161667052D01*
X22869571Y-161667051D01*
X23031569Y-161594925D01*
X23100815Y-161585642D01*
X23132425Y-161594922D01*
X23294429Y-161667051D01*
X23294432Y-161667051D01*
X23294433Y-161667052D01*
X23484726Y-161707500D01*
X23679274Y-161707500D01*
X23869566Y-161667052D01*
X23869565Y-161667052D01*
X23869571Y-161667051D01*
X24031569Y-161594925D01*
X24100815Y-161585642D01*
X24132425Y-161594922D01*
X24294429Y-161667051D01*
X24294432Y-161667051D01*
X24294433Y-161667052D01*
X24484726Y-161707500D01*
X24679274Y-161707500D01*
X24869571Y-161667051D01*
X25047299Y-161587922D01*
X25204692Y-161473569D01*
X25226513Y-161449335D01*
X25232895Y-161442245D01*
X25334870Y-161328992D01*
X25432144Y-161160508D01*
X25492262Y-160975482D01*
X25512598Y-160782000D01*
X25492262Y-160588518D01*
X25432144Y-160403492D01*
X25432143Y-160403491D01*
X25432143Y-160403489D01*
X25432142Y-160403488D01*
X25377667Y-160309135D01*
X25334870Y-160235008D01*
X25283882Y-160178381D01*
X25204697Y-160090435D01*
X25204694Y-160090433D01*
X25204693Y-160090432D01*
X25204692Y-160090431D01*
X25079475Y-159999455D01*
X25047297Y-159976076D01*
X24906076Y-159913202D01*
X24869571Y-159896949D01*
X24869569Y-159896948D01*
X24679274Y-159856500D01*
X24484726Y-159856500D01*
X24294430Y-159896948D01*
X24294427Y-159896949D01*
X24132434Y-159969072D01*
X24063184Y-159978356D01*
X24031566Y-159969072D01*
X23869572Y-159896949D01*
X23869569Y-159896948D01*
X23679274Y-159856500D01*
X23484726Y-159856500D01*
X23294430Y-159896948D01*
X23294427Y-159896949D01*
X23132434Y-159969072D01*
X23063184Y-159978356D01*
X23031566Y-159969072D01*
X22869572Y-159896949D01*
X22869569Y-159896948D01*
X22679274Y-159856500D01*
X22484726Y-159856500D01*
X22294430Y-159896948D01*
X22294427Y-159896949D01*
X22132434Y-159969072D01*
X22063184Y-159978356D01*
X22031566Y-159969072D01*
X21869572Y-159896949D01*
X21869569Y-159896948D01*
X21679274Y-159856500D01*
X21484726Y-159856500D01*
X21294429Y-159896948D01*
X21288245Y-159898958D01*
X21287349Y-159896201D01*
X21230341Y-159903511D01*
X21206527Y-159897239D01*
X21114482Y-159862908D01*
X21114483Y-159862908D01*
X21054883Y-159856501D01*
X21054881Y-159856500D01*
X21054873Y-159856500D01*
X21054864Y-159856500D01*
X20109129Y-159856500D01*
X20109123Y-159856501D01*
X20049516Y-159862908D01*
X19914671Y-159913202D01*
X19914664Y-159913206D01*
X19799455Y-159999452D01*
X19799452Y-159999455D01*
X19713206Y-160114664D01*
X19713202Y-160114671D01*
X19662908Y-160249517D01*
X19656501Y-160309116D01*
X19656500Y-160309135D01*
X19656500Y-161254870D01*
X14724500Y-161254870D01*
X14724500Y-159628500D01*
X14744185Y-159561461D01*
X14796989Y-159515706D01*
X14848500Y-159504500D01*
X31599500Y-159504500D01*
X31666539Y-159524185D01*
G37*
G04 #@! TD.AperFunction*
G04 #@! TA.AperFunction,Conductor*
G36*
X31666539Y-187979685D02*
G01*
X31712294Y-188032489D01*
X31723500Y-188084000D01*
X31723500Y-194879500D01*
X31703815Y-194946539D01*
X31651011Y-194992294D01*
X31599500Y-195003500D01*
X14848500Y-195003500D01*
X14781461Y-194983815D01*
X14735706Y-194931011D01*
X14724500Y-194879500D01*
X14724500Y-193766870D01*
X18156500Y-193766870D01*
X18156501Y-193766876D01*
X18162908Y-193826483D01*
X18213202Y-193961328D01*
X18213206Y-193961335D01*
X18299452Y-194076544D01*
X18299455Y-194076547D01*
X18414664Y-194162793D01*
X18414671Y-194162797D01*
X18549517Y-194213091D01*
X18549516Y-194213091D01*
X18556444Y-194213835D01*
X18609127Y-194219500D01*
X19554872Y-194219499D01*
X19614483Y-194213091D01*
X19706530Y-194178759D01*
X19776218Y-194173776D01*
X19788039Y-194177678D01*
X19788246Y-194177042D01*
X19794426Y-194179049D01*
X19794429Y-194179051D01*
X19984726Y-194219500D01*
X20179274Y-194219500D01*
X20369566Y-194179052D01*
X20369565Y-194179052D01*
X20369571Y-194179051D01*
X20531569Y-194106925D01*
X20600815Y-194097642D01*
X20632425Y-194106922D01*
X20794429Y-194179051D01*
X20794432Y-194179051D01*
X20794433Y-194179052D01*
X20984726Y-194219500D01*
X21179274Y-194219500D01*
X21369566Y-194179052D01*
X21369565Y-194179052D01*
X21369571Y-194179051D01*
X21531569Y-194106925D01*
X21600815Y-194097642D01*
X21632425Y-194106922D01*
X21794429Y-194179051D01*
X21794432Y-194179051D01*
X21794433Y-194179052D01*
X21984726Y-194219500D01*
X22179274Y-194219500D01*
X22369566Y-194179052D01*
X22369565Y-194179052D01*
X22369571Y-194179051D01*
X22531569Y-194106925D01*
X22600815Y-194097642D01*
X22632425Y-194106922D01*
X22794429Y-194179051D01*
X22794432Y-194179051D01*
X22794433Y-194179052D01*
X22984726Y-194219500D01*
X23179274Y-194219500D01*
X23369566Y-194179052D01*
X23369565Y-194179052D01*
X23369571Y-194179051D01*
X23532184Y-194106651D01*
X23601429Y-194097368D01*
X23633051Y-194106653D01*
X23794585Y-194178573D01*
X23831999Y-194186524D01*
X23832000Y-194186524D01*
X23832000Y-193879189D01*
X23848613Y-193817189D01*
X23932142Y-193672511D01*
X23932143Y-193672510D01*
X23932209Y-193672307D01*
X23980822Y-193522689D01*
X24032272Y-193544000D01*
X24131728Y-193544000D01*
X24332000Y-193544000D01*
X24332000Y-194186524D01*
X24369412Y-194178573D01*
X24547049Y-194099484D01*
X24704357Y-193985192D01*
X24704360Y-193985190D01*
X24834463Y-193840694D01*
X24931682Y-193672307D01*
X24931683Y-193672306D01*
X24973372Y-193544000D01*
X24332000Y-193544000D01*
X24131728Y-193544000D01*
X24223614Y-193505940D01*
X24293940Y-193435614D01*
X24332000Y-193343728D01*
X24332000Y-193244272D01*
X24293940Y-193152386D01*
X24223614Y-193082060D01*
X24131728Y-193044000D01*
X24032272Y-193044000D01*
X23980822Y-193065310D01*
X23932144Y-192915492D01*
X23932143Y-192915491D01*
X23932143Y-192915489D01*
X23932142Y-192915488D01*
X23848613Y-192770811D01*
X23832000Y-192708811D01*
X23832000Y-192401473D01*
X24332000Y-192401473D01*
X24332000Y-193044000D01*
X24973372Y-193044000D01*
X24973371Y-193043999D01*
X24931683Y-192915693D01*
X24931682Y-192915692D01*
X24834463Y-192747305D01*
X24834464Y-192747305D01*
X24704360Y-192602809D01*
X24704357Y-192602807D01*
X24547051Y-192488516D01*
X24369412Y-192409426D01*
X24332000Y-192401473D01*
X23832000Y-192401473D01*
X23794585Y-192409426D01*
X23794580Y-192409428D01*
X23633052Y-192481346D01*
X23563802Y-192490631D01*
X23532181Y-192481347D01*
X23406085Y-192425206D01*
X23369571Y-192408949D01*
X23369569Y-192408948D01*
X23179274Y-192368500D01*
X22984726Y-192368500D01*
X22794430Y-192408948D01*
X22794427Y-192408949D01*
X22632434Y-192481072D01*
X22563184Y-192490356D01*
X22531566Y-192481072D01*
X22369572Y-192408949D01*
X22369569Y-192408948D01*
X22179274Y-192368500D01*
X21984726Y-192368500D01*
X21794430Y-192408948D01*
X21794427Y-192408949D01*
X21632434Y-192481072D01*
X21563184Y-192490356D01*
X21531566Y-192481072D01*
X21369572Y-192408949D01*
X21369569Y-192408948D01*
X21179274Y-192368500D01*
X20984726Y-192368500D01*
X20794430Y-192408948D01*
X20794427Y-192408949D01*
X20632434Y-192481072D01*
X20563184Y-192490356D01*
X20531566Y-192481072D01*
X20369572Y-192408949D01*
X20369569Y-192408948D01*
X20179274Y-192368500D01*
X19984726Y-192368500D01*
X19794429Y-192408948D01*
X19788245Y-192410958D01*
X19787349Y-192408201D01*
X19730341Y-192415511D01*
X19706527Y-192409239D01*
X19614482Y-192374908D01*
X19614483Y-192374908D01*
X19554883Y-192368501D01*
X19554881Y-192368500D01*
X19554873Y-192368500D01*
X19554864Y-192368500D01*
X18609129Y-192368500D01*
X18609123Y-192368501D01*
X18549516Y-192374908D01*
X18414671Y-192425202D01*
X18414664Y-192425206D01*
X18299455Y-192511452D01*
X18299452Y-192511455D01*
X18213206Y-192626664D01*
X18213202Y-192626671D01*
X18162908Y-192761517D01*
X18156501Y-192821116D01*
X18156500Y-192821135D01*
X18156500Y-193766870D01*
X14724500Y-193766870D01*
X14724500Y-191770003D01*
X15958435Y-191770003D01*
X15978630Y-191949249D01*
X15978631Y-191949254D01*
X16038211Y-192119523D01*
X16134184Y-192272262D01*
X16261738Y-192399816D01*
X16302140Y-192425202D01*
X16391493Y-192481347D01*
X16414478Y-192495789D01*
X16584745Y-192555368D01*
X16584750Y-192555369D01*
X16763996Y-192575565D01*
X16764000Y-192575565D01*
X16764004Y-192575565D01*
X16943249Y-192555369D01*
X16943252Y-192555368D01*
X16943255Y-192555368D01*
X17113522Y-192495789D01*
X17266262Y-192399816D01*
X17393816Y-192272262D01*
X17489789Y-192119522D01*
X17549368Y-191949255D01*
X17569565Y-191770000D01*
X17568918Y-191764262D01*
X17549369Y-191590750D01*
X17549368Y-191590745D01*
X17489788Y-191420476D01*
X17393815Y-191267737D01*
X17388081Y-191262003D01*
X25610435Y-191262003D01*
X25630630Y-191441249D01*
X25630631Y-191441254D01*
X25690211Y-191611523D01*
X25786184Y-191764262D01*
X25913738Y-191891816D01*
X26066478Y-191987789D01*
X26236745Y-192047368D01*
X26236750Y-192047369D01*
X26415996Y-192067565D01*
X26416000Y-192067565D01*
X26416004Y-192067565D01*
X26595249Y-192047369D01*
X26595252Y-192047368D01*
X26595255Y-192047368D01*
X26765522Y-191987789D01*
X26918262Y-191891816D01*
X27045816Y-191764262D01*
X27141789Y-191611522D01*
X27201368Y-191441255D01*
X27203709Y-191420478D01*
X27221565Y-191262003D01*
X27221565Y-191261996D01*
X27201369Y-191082750D01*
X27201368Y-191082745D01*
X27167036Y-190984630D01*
X27141789Y-190912478D01*
X27045816Y-190759738D01*
X26918262Y-190632184D01*
X26765523Y-190536211D01*
X26595254Y-190476631D01*
X26595249Y-190476630D01*
X26416004Y-190456435D01*
X26415996Y-190456435D01*
X26236750Y-190476630D01*
X26236745Y-190476631D01*
X26066476Y-190536211D01*
X25913737Y-190632184D01*
X25786184Y-190759737D01*
X25690211Y-190912476D01*
X25630631Y-191082745D01*
X25630630Y-191082750D01*
X25610435Y-191261996D01*
X25610435Y-191262003D01*
X17388081Y-191262003D01*
X17266262Y-191140184D01*
X17113523Y-191044211D01*
X16943254Y-190984631D01*
X16943249Y-190984630D01*
X16764004Y-190964435D01*
X16763996Y-190964435D01*
X16584750Y-190984630D01*
X16584745Y-190984631D01*
X16414476Y-191044211D01*
X16261737Y-191140184D01*
X16134184Y-191267737D01*
X16038211Y-191420476D01*
X15978631Y-191590745D01*
X15978630Y-191590750D01*
X15958435Y-191769996D01*
X15958435Y-191770003D01*
X14724500Y-191770003D01*
X14724500Y-188084000D01*
X14744185Y-188016961D01*
X14796989Y-187971206D01*
X14848500Y-187960000D01*
X31599500Y-187960000D01*
X31666539Y-187979685D01*
G37*
G04 #@! TD.AperFunction*
M02*
