G04 #@! TF.GenerationSoftware,KiCad,Pcbnew,8.0.0-8.0.0-1~ubuntu20.04.1*
G04 #@! TF.CreationDate,2025-04-08T14:30:10+02:00*
G04 #@! TF.ProjectId,eeg-breakout,6565672d-6272-4656-916b-6f75742e6b69,1*
G04 #@! TF.SameCoordinates,Original*
G04 #@! TF.FileFunction,Soldermask,Top*
G04 #@! TF.FilePolarity,Negative*
%FSLAX46Y46*%
G04 Gerber Fmt 4.6, Leading zero omitted, Abs format (unit mm)*
G04 Created by KiCad (PCBNEW 8.0.0-8.0.0-1~ubuntu20.04.1) date 2025-04-08 14:30:10*
%MOMM*%
%LPD*%
G01*
G04 APERTURE LIST*
G04 Aperture macros list*
%AMRoundRect*
0 Rectangle with rounded corners*
0 $1 Rounding radius*
0 $2 $3 $4 $5 $6 $7 $8 $9 X,Y pos of 4 corners*
0 Add a 4 corners polygon primitive as box body*
4,1,4,$2,$3,$4,$5,$6,$7,$8,$9,$2,$3,0*
0 Add four circle primitives for the rounded corners*
1,1,$1+$1,$2,$3*
1,1,$1+$1,$4,$5*
1,1,$1+$1,$6,$7*
1,1,$1+$1,$8,$9*
0 Add four rect primitives between the rounded corners*
20,1,$1+$1,$2,$3,$4,$5,0*
20,1,$1+$1,$4,$5,$6,$7,0*
20,1,$1+$1,$6,$7,$8,$9,0*
20,1,$1+$1,$8,$9,$2,$3,0*%
G04 Aperture macros list end*
%ADD10RoundRect,0.050000X-0.050000X0.337500X-0.050000X-0.337500X0.050000X-0.337500X0.050000X0.337500X0*%
%ADD11RoundRect,0.050000X-0.337500X0.050000X-0.337500X-0.050000X0.337500X-0.050000X0.337500X0.050000X0*%
%ADD12R,2.800000X2.800000*%
%ADD13RoundRect,0.140000X-0.140000X-0.170000X0.140000X-0.170000X0.140000X0.170000X-0.140000X0.170000X0*%
%ADD14RoundRect,0.150000X0.150000X-0.875000X0.150000X0.875000X-0.150000X0.875000X-0.150000X-0.875000X0*%
%ADD15RoundRect,0.135000X0.185000X-0.135000X0.185000X0.135000X-0.185000X0.135000X-0.185000X-0.135000X0*%
%ADD16RoundRect,0.135000X-0.135000X-0.185000X0.135000X-0.185000X0.135000X0.185000X-0.135000X0.185000X0*%
%ADD17RoundRect,0.135000X0.135000X0.185000X-0.135000X0.185000X-0.135000X-0.185000X0.135000X-0.185000X0*%
%ADD18O,0.850000X0.850000*%
%ADD19R,0.850000X0.850000*%
%ADD20RoundRect,0.218750X0.256250X-0.218750X0.256250X0.218750X-0.256250X0.218750X-0.256250X-0.218750X0*%
%ADD21RoundRect,0.218750X-0.256250X0.218750X-0.256250X-0.218750X0.256250X-0.218750X0.256250X0.218750X0*%
%ADD22RoundRect,0.140000X0.140000X0.170000X-0.140000X0.170000X-0.140000X-0.170000X0.140000X-0.170000X0*%
%ADD23RoundRect,0.140000X0.170000X-0.140000X0.170000X0.140000X-0.170000X0.140000X-0.170000X-0.140000X0*%
%ADD24RoundRect,0.225000X-0.225000X-0.250000X0.225000X-0.250000X0.225000X0.250000X-0.225000X0.250000X0*%
%ADD25RoundRect,0.140000X-0.170000X0.140000X-0.170000X-0.140000X0.170000X-0.140000X0.170000X0.140000X0*%
%ADD26RoundRect,0.225000X0.250000X-0.225000X0.250000X0.225000X-0.250000X0.225000X-0.250000X-0.225000X0*%
G04 APERTURE END LIST*
D10*
X23458000Y-170142000D03*
X23058000Y-170142000D03*
X22658000Y-170142000D03*
X22258000Y-170142000D03*
X21858000Y-170142000D03*
X21458000Y-170142000D03*
X21058000Y-170142000D03*
X20658000Y-170142000D03*
D11*
X20070500Y-170729500D03*
X20070500Y-171129500D03*
X20070500Y-171529500D03*
X20070500Y-171929500D03*
X20070500Y-172329500D03*
X20070500Y-172729500D03*
X20070500Y-173129500D03*
X20070500Y-173529500D03*
D10*
X20658000Y-174117000D03*
X21058000Y-174117000D03*
X21458000Y-174117000D03*
X21858000Y-174117000D03*
X22258000Y-174117000D03*
X22658000Y-174117000D03*
X23058000Y-174117000D03*
X23458000Y-174117000D03*
D11*
X24045500Y-173529500D03*
X24045500Y-173129500D03*
X24045500Y-172729500D03*
X24045500Y-172329500D03*
X24045500Y-171929500D03*
X24045500Y-171529500D03*
X24045500Y-171129500D03*
X24045500Y-170729500D03*
D12*
X22058000Y-172129500D03*
D13*
X20871000Y-168783000D03*
X19911000Y-168783000D03*
D14*
X16637000Y-188800000D03*
X17907000Y-188800000D03*
X19177000Y-188800000D03*
X20447000Y-188800000D03*
X21717000Y-188800000D03*
X22987000Y-188800000D03*
X24257000Y-188800000D03*
X25527000Y-188800000D03*
X26797000Y-188800000D03*
X28067000Y-188800000D03*
X28067000Y-179500000D03*
X26797000Y-179500000D03*
X25527000Y-179500000D03*
X24257000Y-179500000D03*
X22987000Y-179500000D03*
X21717000Y-179500000D03*
X20447000Y-179500000D03*
X19177000Y-179500000D03*
X17907000Y-179500000D03*
X16637000Y-179500000D03*
D15*
X18994000Y-162814000D03*
X18994000Y-163834000D03*
X26360000Y-162814000D03*
X26360000Y-163834000D03*
X21407000Y-162814000D03*
X21407000Y-163834000D03*
X23947000Y-162814000D03*
X23947000Y-163834000D03*
X25983000Y-168271000D03*
X25983000Y-169291000D03*
X25979000Y-170204000D03*
X25979000Y-171224000D03*
D16*
X23564000Y-175514000D03*
X24584000Y-175514000D03*
D17*
X25908000Y-190754000D03*
X24888000Y-190754000D03*
D18*
X24582000Y-160782000D03*
X23582000Y-160782000D03*
X22582000Y-160782000D03*
X21582000Y-160782000D03*
D19*
X20582000Y-160782000D03*
X19082000Y-193294000D03*
D18*
X20082000Y-193294000D03*
X21082000Y-193294000D03*
X22082000Y-193294000D03*
X23082000Y-193294000D03*
X24082000Y-193294000D03*
D20*
X29845000Y-176809500D03*
X29845000Y-175234500D03*
D21*
X29845000Y-178638000D03*
X29845000Y-180213000D03*
D22*
X17371000Y-166116000D03*
X18331000Y-166116000D03*
D13*
X24907000Y-166116000D03*
X23947000Y-166116000D03*
D22*
X19558000Y-166116000D03*
X20518000Y-166116000D03*
X21717000Y-166116000D03*
X22677000Y-166116000D03*
D23*
X27126000Y-169287000D03*
X27126000Y-168327000D03*
X26995000Y-171168000D03*
X26995000Y-170208000D03*
X25598000Y-174117000D03*
X25598000Y-173157000D03*
D13*
X26586000Y-172212000D03*
X25626000Y-172212000D03*
D23*
X26614000Y-173157000D03*
X26614000Y-174117000D03*
D24*
X25273000Y-177165000D03*
X26823000Y-177165000D03*
D25*
X28194000Y-176685000D03*
X28194000Y-177645000D03*
D22*
X17724000Y-172339000D03*
X18684000Y-172339000D03*
D13*
X24427000Y-168783000D03*
X23467000Y-168783000D03*
D22*
X18712000Y-173355000D03*
X17752000Y-173355000D03*
D13*
X18684000Y-171323000D03*
X17724000Y-171323000D03*
X17625000Y-177165000D03*
X16665000Y-177165000D03*
D22*
X17780000Y-170307000D03*
X18740000Y-170307000D03*
D26*
X18232000Y-167500000D03*
X18232000Y-169050000D03*
D13*
X26924000Y-190754000D03*
X27884000Y-190754000D03*
X16693000Y-191008000D03*
X17653000Y-191008000D03*
D24*
X28194000Y-192278000D03*
X26644000Y-192278000D03*
M02*
