G04 #@! TF.GenerationSoftware,KiCad,Pcbnew,8.0.0-8.0.0-1~ubuntu20.04.1*
G04 #@! TF.CreationDate,2025-04-08T14:29:52+02:00*
G04 #@! TF.ProjectId,eeg-breakout,6565672d-6272-4656-916b-6f75742e6b69,1*
G04 #@! TF.SameCoordinates,Original*
G04 #@! TF.FileFunction,Copper,L3,Inr*
G04 #@! TF.FilePolarity,Positive*
%FSLAX46Y46*%
G04 Gerber Fmt 4.6, Leading zero omitted, Abs format (unit mm)*
G04 Created by KiCad (PCBNEW 8.0.0-8.0.0-1~ubuntu20.04.1) date 2025-04-08 14:29:52*
%MOMM*%
%LPD*%
G01*
G04 APERTURE LIST*
G04 #@! TA.AperFunction,ComponentPad*
%ADD10O,0.850000X0.850000*%
G04 #@! TD*
G04 #@! TA.AperFunction,ComponentPad*
%ADD11R,0.850000X0.850000*%
G04 #@! TD*
G04 #@! TA.AperFunction,ViaPad*
%ADD12C,0.600000*%
G04 #@! TD*
G04 APERTURE END LIST*
D10*
X24582000Y-160782000D03*
X23582000Y-160782000D03*
X22582000Y-160782000D03*
X21582000Y-160782000D03*
D11*
X20582000Y-160782000D03*
X19082000Y-193294000D03*
D10*
X20082000Y-193294000D03*
X21082000Y-193294000D03*
X22082000Y-193294000D03*
X23082000Y-193294000D03*
X24082000Y-193294000D03*
D12*
X29845000Y-169545000D03*
X16510000Y-161290000D03*
X29845000Y-164465000D03*
X29845000Y-161290000D03*
X17018000Y-170307000D03*
X17018000Y-172339000D03*
X17653000Y-176403000D03*
X19685000Y-165227000D03*
X16637000Y-166116000D03*
X21717000Y-165354000D03*
X25654000Y-166116000D03*
X16637000Y-178054000D03*
X28829000Y-175260000D03*
X29337000Y-177927000D03*
X18359000Y-165354000D03*
X21915000Y-167259000D03*
X23439000Y-167767000D03*
X24582000Y-169926000D03*
X20010000Y-174625000D03*
X18740000Y-173990000D03*
X27376000Y-173228000D03*
X26106000Y-174752000D03*
X22550000Y-175641000D03*
X25217000Y-175514000D03*
X22804000Y-172974000D03*
X21280000Y-171450000D03*
X23177500Y-178498500D03*
X16764000Y-191770000D03*
X26416000Y-191262000D03*
X18052529Y-190584019D03*
X27940000Y-191516000D03*
X22860000Y-190246000D03*
G04 #@! TA.AperFunction,Conductor*
G36*
X31666539Y-159524185D02*
G01*
X31712294Y-159576989D01*
X31723500Y-159628500D01*
X31723500Y-180216000D01*
X31703815Y-180283039D01*
X31651011Y-180328794D01*
X31599500Y-180340000D01*
X14848500Y-180340000D01*
X14781461Y-180320315D01*
X14735706Y-180267511D01*
X14724500Y-180216000D01*
X14724500Y-178498503D01*
X22371935Y-178498503D01*
X22392130Y-178677749D01*
X22392131Y-178677754D01*
X22451711Y-178848023D01*
X22547684Y-179000762D01*
X22675238Y-179128316D01*
X22827978Y-179224289D01*
X22998245Y-179283868D01*
X22998250Y-179283869D01*
X23177496Y-179304065D01*
X23177500Y-179304065D01*
X23177504Y-179304065D01*
X23356749Y-179283869D01*
X23356752Y-179283868D01*
X23356755Y-179283868D01*
X23527022Y-179224289D01*
X23679762Y-179128316D01*
X23807316Y-179000762D01*
X23903289Y-178848022D01*
X23962868Y-178677755D01*
X23965681Y-178652788D01*
X23983065Y-178498503D01*
X23983065Y-178498496D01*
X23962869Y-178319250D01*
X23962868Y-178319245D01*
X23903288Y-178148976D01*
X23807315Y-177996237D01*
X23738081Y-177927003D01*
X28531435Y-177927003D01*
X28551630Y-178106249D01*
X28551631Y-178106254D01*
X28611211Y-178276523D01*
X28707184Y-178429262D01*
X28834738Y-178556816D01*
X28987478Y-178652789D01*
X29058810Y-178677749D01*
X29157745Y-178712368D01*
X29157750Y-178712369D01*
X29336996Y-178732565D01*
X29337000Y-178732565D01*
X29337004Y-178732565D01*
X29516249Y-178712369D01*
X29516252Y-178712368D01*
X29516255Y-178712368D01*
X29686522Y-178652789D01*
X29839262Y-178556816D01*
X29966816Y-178429262D01*
X30062789Y-178276522D01*
X30122368Y-178106255D01*
X30142565Y-177927000D01*
X30135994Y-177868684D01*
X30122369Y-177747750D01*
X30122368Y-177747745D01*
X30062788Y-177577476D01*
X29966815Y-177424737D01*
X29839262Y-177297184D01*
X29686523Y-177201211D01*
X29516254Y-177141631D01*
X29516249Y-177141630D01*
X29337004Y-177121435D01*
X29336996Y-177121435D01*
X29157750Y-177141630D01*
X29157745Y-177141631D01*
X28987476Y-177201211D01*
X28834737Y-177297184D01*
X28707184Y-177424737D01*
X28611211Y-177577476D01*
X28551631Y-177747745D01*
X28551630Y-177747750D01*
X28531435Y-177926996D01*
X28531435Y-177927003D01*
X23738081Y-177927003D01*
X23679762Y-177868684D01*
X23527023Y-177772711D01*
X23356754Y-177713131D01*
X23356749Y-177713130D01*
X23177504Y-177692935D01*
X23177496Y-177692935D01*
X22998250Y-177713130D01*
X22998245Y-177713131D01*
X22827976Y-177772711D01*
X22675237Y-177868684D01*
X22547684Y-177996237D01*
X22451711Y-178148976D01*
X22392131Y-178319245D01*
X22392130Y-178319250D01*
X22371935Y-178498496D01*
X22371935Y-178498503D01*
X14724500Y-178498503D01*
X14724500Y-176403003D01*
X16847435Y-176403003D01*
X16867630Y-176582249D01*
X16867631Y-176582254D01*
X16927211Y-176752523D01*
X17023184Y-176905262D01*
X17150738Y-177032816D01*
X17303478Y-177128789D01*
X17473745Y-177188368D01*
X17473750Y-177188369D01*
X17652996Y-177208565D01*
X17653000Y-177208565D01*
X17653004Y-177208565D01*
X17832249Y-177188369D01*
X17832252Y-177188368D01*
X17832255Y-177188368D01*
X18002522Y-177128789D01*
X18155262Y-177032816D01*
X18282816Y-176905262D01*
X18378789Y-176752522D01*
X18438368Y-176582255D01*
X18438369Y-176582249D01*
X18458565Y-176403003D01*
X18458565Y-176402996D01*
X18438369Y-176223750D01*
X18438368Y-176223745D01*
X18378789Y-176053478D01*
X18282816Y-175900738D01*
X18155262Y-175773184D01*
X18002523Y-175677211D01*
X17899047Y-175641003D01*
X21744435Y-175641003D01*
X21764630Y-175820249D01*
X21764631Y-175820254D01*
X21824211Y-175990523D01*
X21863769Y-176053478D01*
X21920184Y-176143262D01*
X22047738Y-176270816D01*
X22200478Y-176366789D01*
X22303952Y-176402996D01*
X22370745Y-176426368D01*
X22370750Y-176426369D01*
X22549996Y-176446565D01*
X22550000Y-176446565D01*
X22550004Y-176446565D01*
X22729249Y-176426369D01*
X22729252Y-176426368D01*
X22729255Y-176426368D01*
X22899522Y-176366789D01*
X23052262Y-176270816D01*
X23179816Y-176143262D01*
X23275789Y-175990522D01*
X23335368Y-175820255D01*
X23340672Y-175773184D01*
X23355565Y-175641003D01*
X23355565Y-175640996D01*
X23341256Y-175514003D01*
X24411435Y-175514003D01*
X24431630Y-175693249D01*
X24431631Y-175693254D01*
X24491211Y-175863523D01*
X24514595Y-175900738D01*
X24587184Y-176016262D01*
X24714738Y-176143816D01*
X24867478Y-176239789D01*
X24956148Y-176270816D01*
X25037745Y-176299368D01*
X25037750Y-176299369D01*
X25216996Y-176319565D01*
X25217000Y-176319565D01*
X25217004Y-176319565D01*
X25396249Y-176299369D01*
X25396252Y-176299368D01*
X25396255Y-176299368D01*
X25566522Y-176239789D01*
X25719262Y-176143816D01*
X25846816Y-176016262D01*
X25942789Y-175863522D01*
X26002368Y-175693255D01*
X26004176Y-175677211D01*
X26022565Y-175514003D01*
X26022565Y-175513996D01*
X26002369Y-175334750D01*
X26002368Y-175334745D01*
X25987228Y-175291478D01*
X25942789Y-175164478D01*
X25926615Y-175138738D01*
X25846815Y-175011737D01*
X25719262Y-174884184D01*
X25566523Y-174788211D01*
X25396254Y-174728631D01*
X25396249Y-174728630D01*
X25217004Y-174708435D01*
X25216996Y-174708435D01*
X25037750Y-174728630D01*
X25037745Y-174728631D01*
X24867476Y-174788211D01*
X24714737Y-174884184D01*
X24587184Y-175011737D01*
X24491211Y-175164476D01*
X24431631Y-175334745D01*
X24431630Y-175334750D01*
X24411435Y-175513996D01*
X24411435Y-175514003D01*
X23341256Y-175514003D01*
X23335369Y-175461750D01*
X23335368Y-175461745D01*
X23296542Y-175350788D01*
X23275789Y-175291478D01*
X23179816Y-175138738D01*
X23052262Y-175011184D01*
X22899523Y-174915211D01*
X22729254Y-174855631D01*
X22729249Y-174855630D01*
X22550004Y-174835435D01*
X22549996Y-174835435D01*
X22370750Y-174855630D01*
X22370745Y-174855631D01*
X22200476Y-174915211D01*
X22047737Y-175011184D01*
X21920184Y-175138737D01*
X21824211Y-175291476D01*
X21764631Y-175461745D01*
X21764630Y-175461750D01*
X21744435Y-175640996D01*
X21744435Y-175641003D01*
X17899047Y-175641003D01*
X17832254Y-175617631D01*
X17832249Y-175617630D01*
X17653004Y-175597435D01*
X17652996Y-175597435D01*
X17473750Y-175617630D01*
X17473745Y-175617631D01*
X17303476Y-175677211D01*
X17150737Y-175773184D01*
X17023184Y-175900737D01*
X16927211Y-176053476D01*
X16867631Y-176223745D01*
X16867630Y-176223750D01*
X16847435Y-176402996D01*
X16847435Y-176403003D01*
X14724500Y-176403003D01*
X14724500Y-174625003D01*
X19204435Y-174625003D01*
X19224630Y-174804249D01*
X19224631Y-174804254D01*
X19284211Y-174974523D01*
X19307595Y-175011738D01*
X19380184Y-175127262D01*
X19507738Y-175254816D01*
X19660478Y-175350789D01*
X19830745Y-175410368D01*
X19830750Y-175410369D01*
X20009996Y-175430565D01*
X20010000Y-175430565D01*
X20010004Y-175430565D01*
X20189249Y-175410369D01*
X20189252Y-175410368D01*
X20189255Y-175410368D01*
X20359522Y-175350789D01*
X20512262Y-175254816D01*
X20639816Y-175127262D01*
X20735789Y-174974522D01*
X20795368Y-174804255D01*
X20803889Y-174728630D01*
X20815565Y-174625003D01*
X20815565Y-174624996D01*
X20795369Y-174445750D01*
X20795368Y-174445745D01*
X20735788Y-174275476D01*
X20639815Y-174122737D01*
X20512262Y-173995184D01*
X20359523Y-173899211D01*
X20189254Y-173839631D01*
X20189249Y-173839630D01*
X20010004Y-173819435D01*
X20009996Y-173819435D01*
X19830750Y-173839630D01*
X19830745Y-173839631D01*
X19660476Y-173899211D01*
X19507737Y-173995184D01*
X19380184Y-174122737D01*
X19284211Y-174275476D01*
X19224631Y-174445745D01*
X19224630Y-174445750D01*
X19204435Y-174624996D01*
X19204435Y-174625003D01*
X14724500Y-174625003D01*
X14724500Y-172339003D01*
X16212435Y-172339003D01*
X16232630Y-172518249D01*
X16232631Y-172518254D01*
X16292211Y-172688523D01*
X16388184Y-172841262D01*
X16515738Y-172968816D01*
X16668478Y-173064789D01*
X16838745Y-173124368D01*
X16838750Y-173124369D01*
X17017996Y-173144565D01*
X17018000Y-173144565D01*
X17018004Y-173144565D01*
X17197249Y-173124369D01*
X17197252Y-173124368D01*
X17197255Y-173124368D01*
X17367522Y-173064789D01*
X17512007Y-172974003D01*
X21998435Y-172974003D01*
X22018630Y-173153249D01*
X22018631Y-173153254D01*
X22078211Y-173323523D01*
X22130820Y-173407249D01*
X22174184Y-173476262D01*
X22301738Y-173603816D01*
X22454478Y-173699789D01*
X22541565Y-173730262D01*
X22624745Y-173759368D01*
X22624750Y-173759369D01*
X22803996Y-173779565D01*
X22804000Y-173779565D01*
X22804004Y-173779565D01*
X22983249Y-173759369D01*
X22983252Y-173759368D01*
X22983255Y-173759368D01*
X23153522Y-173699789D01*
X23306262Y-173603816D01*
X23433816Y-173476262D01*
X23529789Y-173323522D01*
X23563213Y-173228003D01*
X26570435Y-173228003D01*
X26590630Y-173407249D01*
X26590631Y-173407254D01*
X26650211Y-173577523D01*
X26746184Y-173730262D01*
X26873738Y-173857816D01*
X27026478Y-173953789D01*
X27144778Y-173995184D01*
X27196745Y-174013368D01*
X27196750Y-174013369D01*
X27375996Y-174033565D01*
X27376000Y-174033565D01*
X27376004Y-174033565D01*
X27555249Y-174013369D01*
X27555252Y-174013368D01*
X27555255Y-174013368D01*
X27725522Y-173953789D01*
X27878262Y-173857816D01*
X28005816Y-173730262D01*
X28101789Y-173577522D01*
X28161368Y-173407255D01*
X28161369Y-173407249D01*
X28181565Y-173228003D01*
X28181565Y-173227996D01*
X28161369Y-173048750D01*
X28161368Y-173048745D01*
X28135215Y-172974003D01*
X28101789Y-172878478D01*
X28005816Y-172725738D01*
X27878262Y-172598184D01*
X27725523Y-172502211D01*
X27555254Y-172442631D01*
X27555249Y-172442630D01*
X27376004Y-172422435D01*
X27375996Y-172422435D01*
X27196750Y-172442630D01*
X27196745Y-172442631D01*
X27026476Y-172502211D01*
X26873737Y-172598184D01*
X26746184Y-172725737D01*
X26650211Y-172878476D01*
X26590631Y-173048745D01*
X26590630Y-173048750D01*
X26570435Y-173227996D01*
X26570435Y-173228003D01*
X23563213Y-173228003D01*
X23589368Y-173153255D01*
X23601143Y-173048750D01*
X23609565Y-172974003D01*
X23609565Y-172973996D01*
X23589369Y-172794750D01*
X23589368Y-172794745D01*
X23529788Y-172624476D01*
X23490582Y-172562080D01*
X23433816Y-172471738D01*
X23306262Y-172344184D01*
X23153523Y-172248211D01*
X22983254Y-172188631D01*
X22983249Y-172188630D01*
X22804004Y-172168435D01*
X22803996Y-172168435D01*
X22624750Y-172188630D01*
X22624745Y-172188631D01*
X22454476Y-172248211D01*
X22301737Y-172344184D01*
X22174184Y-172471737D01*
X22078211Y-172624476D01*
X22018631Y-172794745D01*
X22018630Y-172794750D01*
X21998435Y-172973996D01*
X21998435Y-172974003D01*
X17512007Y-172974003D01*
X17520262Y-172968816D01*
X17647816Y-172841262D01*
X17743789Y-172688522D01*
X17803368Y-172518255D01*
X17808609Y-172471738D01*
X17823565Y-172339003D01*
X17823565Y-172338996D01*
X17803369Y-172159750D01*
X17803368Y-172159745D01*
X17743789Y-171989478D01*
X17647816Y-171836738D01*
X17520262Y-171709184D01*
X17367523Y-171613211D01*
X17197254Y-171553631D01*
X17197249Y-171553630D01*
X17018004Y-171533435D01*
X17017996Y-171533435D01*
X16838750Y-171553630D01*
X16838745Y-171553631D01*
X16668476Y-171613211D01*
X16515737Y-171709184D01*
X16388184Y-171836737D01*
X16292211Y-171989476D01*
X16232631Y-172159745D01*
X16232630Y-172159750D01*
X16212435Y-172338996D01*
X16212435Y-172339003D01*
X14724500Y-172339003D01*
X14724500Y-171450003D01*
X20474435Y-171450003D01*
X20494630Y-171629249D01*
X20494631Y-171629254D01*
X20554211Y-171799523D01*
X20577595Y-171836738D01*
X20650184Y-171952262D01*
X20777738Y-172079816D01*
X20930478Y-172175789D01*
X21100745Y-172235368D01*
X21100750Y-172235369D01*
X21279996Y-172255565D01*
X21280000Y-172255565D01*
X21280004Y-172255565D01*
X21459249Y-172235369D01*
X21459252Y-172235368D01*
X21459255Y-172235368D01*
X21629522Y-172175789D01*
X21782262Y-172079816D01*
X21909816Y-171952262D01*
X22005789Y-171799522D01*
X22065368Y-171629255D01*
X22073889Y-171553630D01*
X22085565Y-171450003D01*
X22085565Y-171449996D01*
X22065369Y-171270750D01*
X22065368Y-171270745D01*
X22005788Y-171100476D01*
X21963257Y-171032789D01*
X21909816Y-170947738D01*
X21782262Y-170820184D01*
X21764880Y-170809262D01*
X21629523Y-170724211D01*
X21459254Y-170664631D01*
X21459249Y-170664630D01*
X21280004Y-170644435D01*
X21279996Y-170644435D01*
X21100750Y-170664630D01*
X21100745Y-170664631D01*
X20930476Y-170724211D01*
X20777737Y-170820184D01*
X20650184Y-170947737D01*
X20554211Y-171100476D01*
X20494631Y-171270745D01*
X20494630Y-171270750D01*
X20474435Y-171449996D01*
X20474435Y-171450003D01*
X14724500Y-171450003D01*
X14724500Y-170307003D01*
X16212435Y-170307003D01*
X16232630Y-170486249D01*
X16232631Y-170486254D01*
X16292211Y-170656523D01*
X16388184Y-170809262D01*
X16515738Y-170936816D01*
X16668478Y-171032789D01*
X16838745Y-171092368D01*
X16838750Y-171092369D01*
X17017996Y-171112565D01*
X17018000Y-171112565D01*
X17018004Y-171112565D01*
X17197249Y-171092369D01*
X17197252Y-171092368D01*
X17197255Y-171092368D01*
X17367522Y-171032789D01*
X17520262Y-170936816D01*
X17647816Y-170809262D01*
X17743789Y-170656522D01*
X17803368Y-170486255D01*
X17803369Y-170486249D01*
X17823565Y-170307003D01*
X17823565Y-170306996D01*
X17803369Y-170127750D01*
X17803368Y-170127745D01*
X17743788Y-169957476D01*
X17724012Y-169926003D01*
X23776435Y-169926003D01*
X23796630Y-170105249D01*
X23796631Y-170105254D01*
X23856211Y-170275523D01*
X23952184Y-170428262D01*
X24079738Y-170555816D01*
X24232478Y-170651789D01*
X24402745Y-170711368D01*
X24402750Y-170711369D01*
X24581996Y-170731565D01*
X24582000Y-170731565D01*
X24582004Y-170731565D01*
X24761249Y-170711369D01*
X24761252Y-170711368D01*
X24761255Y-170711368D01*
X24931522Y-170651789D01*
X25084262Y-170555816D01*
X25211816Y-170428262D01*
X25307789Y-170275522D01*
X25367368Y-170105255D01*
X25367369Y-170105249D01*
X25387565Y-169926003D01*
X25387565Y-169925996D01*
X25367369Y-169746750D01*
X25367368Y-169746745D01*
X25359496Y-169724249D01*
X25307789Y-169576478D01*
X25288012Y-169545003D01*
X29039435Y-169545003D01*
X29059630Y-169724249D01*
X29059631Y-169724254D01*
X29119211Y-169894523D01*
X29158769Y-169957478D01*
X29215184Y-170047262D01*
X29342738Y-170174816D01*
X29495478Y-170270789D01*
X29598952Y-170306996D01*
X29665745Y-170330368D01*
X29665750Y-170330369D01*
X29844996Y-170350565D01*
X29845000Y-170350565D01*
X29845004Y-170350565D01*
X30024249Y-170330369D01*
X30024252Y-170330368D01*
X30024255Y-170330368D01*
X30194522Y-170270789D01*
X30347262Y-170174816D01*
X30474816Y-170047262D01*
X30570789Y-169894522D01*
X30630368Y-169724255D01*
X30646485Y-169581211D01*
X30650565Y-169545003D01*
X30650565Y-169544996D01*
X30630369Y-169365750D01*
X30630368Y-169365745D01*
X30570789Y-169195478D01*
X30474816Y-169042738D01*
X30347262Y-168915184D01*
X30194523Y-168819211D01*
X30024254Y-168759631D01*
X30024249Y-168759630D01*
X29845004Y-168739435D01*
X29844996Y-168739435D01*
X29665750Y-168759630D01*
X29665745Y-168759631D01*
X29495476Y-168819211D01*
X29342737Y-168915184D01*
X29215184Y-169042737D01*
X29119211Y-169195476D01*
X29059631Y-169365745D01*
X29059630Y-169365750D01*
X29039435Y-169544996D01*
X29039435Y-169545003D01*
X25288012Y-169545003D01*
X25211816Y-169423738D01*
X25084262Y-169296184D01*
X24931523Y-169200211D01*
X24761254Y-169140631D01*
X24761249Y-169140630D01*
X24582004Y-169120435D01*
X24581996Y-169120435D01*
X24402750Y-169140630D01*
X24402745Y-169140631D01*
X24232476Y-169200211D01*
X24079737Y-169296184D01*
X23952184Y-169423737D01*
X23856211Y-169576476D01*
X23796631Y-169746745D01*
X23796630Y-169746750D01*
X23776435Y-169925996D01*
X23776435Y-169926003D01*
X17724012Y-169926003D01*
X17647815Y-169804737D01*
X17520262Y-169677184D01*
X17367523Y-169581211D01*
X17197254Y-169521631D01*
X17197249Y-169521630D01*
X17018004Y-169501435D01*
X17017996Y-169501435D01*
X16838750Y-169521630D01*
X16838745Y-169521631D01*
X16668476Y-169581211D01*
X16515737Y-169677184D01*
X16388184Y-169804737D01*
X16292211Y-169957476D01*
X16232631Y-170127745D01*
X16232630Y-170127750D01*
X16212435Y-170306996D01*
X16212435Y-170307003D01*
X14724500Y-170307003D01*
X14724500Y-167259003D01*
X21109435Y-167259003D01*
X21129630Y-167438249D01*
X21129631Y-167438254D01*
X21189211Y-167608523D01*
X21285184Y-167761262D01*
X21412738Y-167888816D01*
X21565478Y-167984789D01*
X21735745Y-168044368D01*
X21735750Y-168044369D01*
X21914996Y-168064565D01*
X21915000Y-168064565D01*
X21915004Y-168064565D01*
X22094249Y-168044369D01*
X22094252Y-168044368D01*
X22094255Y-168044368D01*
X22264522Y-167984789D01*
X22417262Y-167888816D01*
X22441809Y-167864268D01*
X22503128Y-167830785D01*
X22572820Y-167835768D01*
X22628754Y-167877639D01*
X22652708Y-167938061D01*
X22653631Y-167946253D01*
X22653631Y-167946254D01*
X22713211Y-168116523D01*
X22809184Y-168269262D01*
X22936738Y-168396816D01*
X23089478Y-168492789D01*
X23259745Y-168552368D01*
X23259750Y-168552369D01*
X23438996Y-168572565D01*
X23439000Y-168572565D01*
X23439004Y-168572565D01*
X23618249Y-168552369D01*
X23618252Y-168552368D01*
X23618255Y-168552368D01*
X23788522Y-168492789D01*
X23941262Y-168396816D01*
X24068816Y-168269262D01*
X24164789Y-168116522D01*
X24224368Y-167946255D01*
X24224369Y-167946249D01*
X24244565Y-167767003D01*
X24244565Y-167766996D01*
X24224369Y-167587750D01*
X24224368Y-167587745D01*
X24164788Y-167417476D01*
X24068815Y-167264737D01*
X23941262Y-167137184D01*
X23788523Y-167041211D01*
X23618254Y-166981631D01*
X23618249Y-166981630D01*
X23439004Y-166961435D01*
X23438996Y-166961435D01*
X23259750Y-166981630D01*
X23259745Y-166981631D01*
X23089476Y-167041211D01*
X22936739Y-167137183D01*
X22912191Y-167161731D01*
X22850867Y-167195215D01*
X22781175Y-167190229D01*
X22725243Y-167148357D01*
X22701291Y-167087931D01*
X22700369Y-167079750D01*
X22700368Y-167079745D01*
X22666036Y-166981630D01*
X22640789Y-166909478D01*
X22544816Y-166756738D01*
X22417262Y-166629184D01*
X22399880Y-166618262D01*
X22264523Y-166533211D01*
X22094254Y-166473631D01*
X22094249Y-166473630D01*
X21915004Y-166453435D01*
X21914996Y-166453435D01*
X21735750Y-166473630D01*
X21735745Y-166473631D01*
X21565476Y-166533211D01*
X21412737Y-166629184D01*
X21285184Y-166756737D01*
X21189211Y-166909476D01*
X21129631Y-167079745D01*
X21129630Y-167079750D01*
X21109435Y-167258996D01*
X21109435Y-167259003D01*
X14724500Y-167259003D01*
X14724500Y-166116003D01*
X15831435Y-166116003D01*
X15851630Y-166295249D01*
X15851631Y-166295254D01*
X15911211Y-166465523D01*
X15953743Y-166533211D01*
X16007184Y-166618262D01*
X16134738Y-166745816D01*
X16287478Y-166841789D01*
X16457745Y-166901368D01*
X16457750Y-166901369D01*
X16636996Y-166921565D01*
X16637000Y-166921565D01*
X16637004Y-166921565D01*
X16816249Y-166901369D01*
X16816252Y-166901368D01*
X16816255Y-166901368D01*
X16986522Y-166841789D01*
X17139262Y-166745816D01*
X17266816Y-166618262D01*
X17362789Y-166465522D01*
X17422368Y-166295255D01*
X17422369Y-166295249D01*
X17442565Y-166116003D01*
X17442565Y-166115996D01*
X17422369Y-165936750D01*
X17422368Y-165936745D01*
X17362789Y-165766478D01*
X17266816Y-165613738D01*
X17139262Y-165486184D01*
X16986523Y-165390211D01*
X16883047Y-165354003D01*
X17553435Y-165354003D01*
X17573630Y-165533249D01*
X17573631Y-165533254D01*
X17633211Y-165703523D01*
X17723238Y-165846799D01*
X17729184Y-165856262D01*
X17856738Y-165983816D01*
X18009478Y-166079789D01*
X18112952Y-166115996D01*
X18179745Y-166139368D01*
X18179750Y-166139369D01*
X18358996Y-166159565D01*
X18359000Y-166159565D01*
X18359004Y-166159565D01*
X18538249Y-166139369D01*
X18538252Y-166139368D01*
X18538255Y-166139368D01*
X18708522Y-166079789D01*
X18861262Y-165983816D01*
X18988816Y-165856262D01*
X18988816Y-165856261D01*
X18993740Y-165851338D01*
X18994838Y-165852436D01*
X19045270Y-165817031D01*
X19115081Y-165814174D01*
X19172721Y-165846799D01*
X19182738Y-165856816D01*
X19335478Y-165952789D01*
X19424148Y-165983816D01*
X19505745Y-166012368D01*
X19505750Y-166012369D01*
X19684996Y-166032565D01*
X19685000Y-166032565D01*
X19685004Y-166032565D01*
X19864249Y-166012369D01*
X19864252Y-166012368D01*
X19864255Y-166012368D01*
X20034522Y-165952789D01*
X20187262Y-165856816D01*
X20314816Y-165729262D01*
X20410789Y-165576522D01*
X20470368Y-165406255D01*
X20472176Y-165390211D01*
X20476256Y-165354003D01*
X20911435Y-165354003D01*
X20931630Y-165533249D01*
X20931631Y-165533254D01*
X20991211Y-165703523D01*
X21081238Y-165846799D01*
X21087184Y-165856262D01*
X21214738Y-165983816D01*
X21367478Y-166079789D01*
X21470952Y-166115996D01*
X21537745Y-166139368D01*
X21537750Y-166139369D01*
X21716996Y-166159565D01*
X21717000Y-166159565D01*
X21717004Y-166159565D01*
X21896249Y-166139369D01*
X21896252Y-166139368D01*
X21896255Y-166139368D01*
X21963028Y-166116003D01*
X24848435Y-166116003D01*
X24868630Y-166295249D01*
X24868631Y-166295254D01*
X24928211Y-166465523D01*
X24970743Y-166533211D01*
X25024184Y-166618262D01*
X25151738Y-166745816D01*
X25304478Y-166841789D01*
X25474745Y-166901368D01*
X25474750Y-166901369D01*
X25653996Y-166921565D01*
X25654000Y-166921565D01*
X25654004Y-166921565D01*
X25833249Y-166901369D01*
X25833252Y-166901368D01*
X25833255Y-166901368D01*
X26003522Y-166841789D01*
X26156262Y-166745816D01*
X26283816Y-166618262D01*
X26379789Y-166465522D01*
X26439368Y-166295255D01*
X26439369Y-166295249D01*
X26459565Y-166116003D01*
X26459565Y-166115996D01*
X26439369Y-165936750D01*
X26439368Y-165936745D01*
X26379789Y-165766478D01*
X26283816Y-165613738D01*
X26156262Y-165486184D01*
X26003523Y-165390211D01*
X25833254Y-165330631D01*
X25833249Y-165330630D01*
X25654004Y-165310435D01*
X25653996Y-165310435D01*
X25474750Y-165330630D01*
X25474745Y-165330631D01*
X25304476Y-165390211D01*
X25151737Y-165486184D01*
X25024184Y-165613737D01*
X24928211Y-165766476D01*
X24868631Y-165936745D01*
X24868630Y-165936750D01*
X24848435Y-166115996D01*
X24848435Y-166116003D01*
X21963028Y-166116003D01*
X22066522Y-166079789D01*
X22219262Y-165983816D01*
X22346816Y-165856262D01*
X22442789Y-165703522D01*
X22502368Y-165533255D01*
X22507672Y-165486184D01*
X22522565Y-165354003D01*
X22522565Y-165353996D01*
X22502369Y-165174750D01*
X22502368Y-165174745D01*
X22442789Y-165004478D01*
X22346816Y-164851738D01*
X22219262Y-164724184D01*
X22066523Y-164628211D01*
X21896254Y-164568631D01*
X21896249Y-164568630D01*
X21717004Y-164548435D01*
X21716996Y-164548435D01*
X21537750Y-164568630D01*
X21537745Y-164568631D01*
X21367476Y-164628211D01*
X21214737Y-164724184D01*
X21087184Y-164851737D01*
X20991211Y-165004476D01*
X20931631Y-165174745D01*
X20931630Y-165174750D01*
X20911435Y-165353996D01*
X20911435Y-165354003D01*
X20476256Y-165354003D01*
X20490565Y-165227003D01*
X20490565Y-165226996D01*
X20470369Y-165047750D01*
X20470368Y-165047745D01*
X20455228Y-165004478D01*
X20410789Y-164877478D01*
X20394615Y-164851738D01*
X20371231Y-164814522D01*
X20314816Y-164724738D01*
X20187262Y-164597184D01*
X20141822Y-164568632D01*
X20034523Y-164501211D01*
X19931047Y-164465003D01*
X29039435Y-164465003D01*
X29059630Y-164644249D01*
X29059631Y-164644254D01*
X29119211Y-164814523D01*
X29158769Y-164877478D01*
X29215184Y-164967262D01*
X29342738Y-165094816D01*
X29495478Y-165190789D01*
X29598952Y-165226996D01*
X29665745Y-165250368D01*
X29665750Y-165250369D01*
X29844996Y-165270565D01*
X29845000Y-165270565D01*
X29845004Y-165270565D01*
X30024249Y-165250369D01*
X30024252Y-165250368D01*
X30024255Y-165250368D01*
X30194522Y-165190789D01*
X30347262Y-165094816D01*
X30474816Y-164967262D01*
X30570789Y-164814522D01*
X30630368Y-164644255D01*
X30638889Y-164568630D01*
X30650565Y-164465003D01*
X30650565Y-164464996D01*
X30630369Y-164285750D01*
X30630368Y-164285745D01*
X30570788Y-164115476D01*
X30474815Y-163962737D01*
X30347262Y-163835184D01*
X30194523Y-163739211D01*
X30024254Y-163679631D01*
X30024249Y-163679630D01*
X29845004Y-163659435D01*
X29844996Y-163659435D01*
X29665750Y-163679630D01*
X29665745Y-163679631D01*
X29495476Y-163739211D01*
X29342737Y-163835184D01*
X29215184Y-163962737D01*
X29119211Y-164115476D01*
X29059631Y-164285745D01*
X29059630Y-164285750D01*
X29039435Y-164464996D01*
X29039435Y-164465003D01*
X19931047Y-164465003D01*
X19864254Y-164441631D01*
X19864249Y-164441630D01*
X19685004Y-164421435D01*
X19684996Y-164421435D01*
X19505750Y-164441630D01*
X19505745Y-164441631D01*
X19335476Y-164501211D01*
X19182737Y-164597184D01*
X19050260Y-164729662D01*
X19049165Y-164728567D01*
X18998701Y-164763978D01*
X18928889Y-164766818D01*
X18871278Y-164734200D01*
X18861262Y-164724184D01*
X18708523Y-164628211D01*
X18538254Y-164568631D01*
X18538249Y-164568630D01*
X18359004Y-164548435D01*
X18358996Y-164548435D01*
X18179750Y-164568630D01*
X18179745Y-164568631D01*
X18009476Y-164628211D01*
X17856737Y-164724184D01*
X17729184Y-164851737D01*
X17633211Y-165004476D01*
X17573631Y-165174745D01*
X17573630Y-165174750D01*
X17553435Y-165353996D01*
X17553435Y-165354003D01*
X16883047Y-165354003D01*
X16816254Y-165330631D01*
X16816249Y-165330630D01*
X16637004Y-165310435D01*
X16636996Y-165310435D01*
X16457750Y-165330630D01*
X16457745Y-165330631D01*
X16287476Y-165390211D01*
X16134737Y-165486184D01*
X16007184Y-165613737D01*
X15911211Y-165766476D01*
X15851631Y-165936745D01*
X15851630Y-165936750D01*
X15831435Y-166115996D01*
X15831435Y-166116003D01*
X14724500Y-166116003D01*
X14724500Y-161290003D01*
X15704435Y-161290003D01*
X15724630Y-161469249D01*
X15724631Y-161469254D01*
X15784211Y-161639523D01*
X15826924Y-161707500D01*
X15880184Y-161792262D01*
X16007738Y-161919816D01*
X16160478Y-162015789D01*
X16330745Y-162075368D01*
X16330750Y-162075369D01*
X16509996Y-162095565D01*
X16510000Y-162095565D01*
X16510004Y-162095565D01*
X16689249Y-162075369D01*
X16689252Y-162075368D01*
X16689255Y-162075368D01*
X16859522Y-162015789D01*
X17012262Y-161919816D01*
X17139816Y-161792262D01*
X17235789Y-161639522D01*
X17295368Y-161469255D01*
X17295369Y-161469249D01*
X17315565Y-161290003D01*
X17315565Y-161289996D01*
X17311607Y-161254870D01*
X19656500Y-161254870D01*
X19656501Y-161254876D01*
X19662908Y-161314483D01*
X19713202Y-161449328D01*
X19713206Y-161449335D01*
X19799452Y-161564544D01*
X19799455Y-161564547D01*
X19914664Y-161650793D01*
X19914671Y-161650797D01*
X20049517Y-161701091D01*
X20049516Y-161701091D01*
X20056444Y-161701835D01*
X20109127Y-161707500D01*
X21054872Y-161707499D01*
X21114483Y-161701091D01*
X21206530Y-161666759D01*
X21276218Y-161661776D01*
X21288039Y-161665678D01*
X21288246Y-161665042D01*
X21294426Y-161667049D01*
X21294429Y-161667051D01*
X21484726Y-161707500D01*
X21679274Y-161707500D01*
X21869566Y-161667052D01*
X21869565Y-161667052D01*
X21869571Y-161667051D01*
X22031569Y-161594925D01*
X22100815Y-161585642D01*
X22132425Y-161594922D01*
X22294429Y-161667051D01*
X22294432Y-161667051D01*
X22294433Y-161667052D01*
X22484726Y-161707500D01*
X22679274Y-161707500D01*
X22869566Y-161667052D01*
X22869565Y-161667052D01*
X22869571Y-161667051D01*
X23031569Y-161594925D01*
X23100815Y-161585642D01*
X23132425Y-161594922D01*
X23294429Y-161667051D01*
X23294432Y-161667051D01*
X23294433Y-161667052D01*
X23484726Y-161707500D01*
X23679274Y-161707500D01*
X23869566Y-161667052D01*
X23869565Y-161667052D01*
X23869571Y-161667051D01*
X24031569Y-161594925D01*
X24100815Y-161585642D01*
X24132425Y-161594922D01*
X24294429Y-161667051D01*
X24294432Y-161667051D01*
X24294433Y-161667052D01*
X24484726Y-161707500D01*
X24679274Y-161707500D01*
X24869571Y-161667051D01*
X25047299Y-161587922D01*
X25204692Y-161473569D01*
X25208577Y-161469255D01*
X25232895Y-161442245D01*
X25334870Y-161328992D01*
X25357380Y-161290003D01*
X29039435Y-161290003D01*
X29059630Y-161469249D01*
X29059631Y-161469254D01*
X29119211Y-161639523D01*
X29161924Y-161707500D01*
X29215184Y-161792262D01*
X29342738Y-161919816D01*
X29495478Y-162015789D01*
X29665745Y-162075368D01*
X29665750Y-162075369D01*
X29844996Y-162095565D01*
X29845000Y-162095565D01*
X29845004Y-162095565D01*
X30024249Y-162075369D01*
X30024252Y-162075368D01*
X30024255Y-162075368D01*
X30194522Y-162015789D01*
X30347262Y-161919816D01*
X30474816Y-161792262D01*
X30570789Y-161639522D01*
X30630368Y-161469255D01*
X30630369Y-161469249D01*
X30650565Y-161290003D01*
X30650565Y-161289996D01*
X30630369Y-161110750D01*
X30630368Y-161110745D01*
X30570788Y-160940476D01*
X30474815Y-160787737D01*
X30347262Y-160660184D01*
X30194523Y-160564211D01*
X30024254Y-160504631D01*
X30024249Y-160504630D01*
X29845004Y-160484435D01*
X29844996Y-160484435D01*
X29665750Y-160504630D01*
X29665745Y-160504631D01*
X29495476Y-160564211D01*
X29342737Y-160660184D01*
X29215184Y-160787737D01*
X29119211Y-160940476D01*
X29059631Y-161110745D01*
X29059630Y-161110750D01*
X29039435Y-161289996D01*
X29039435Y-161290003D01*
X25357380Y-161290003D01*
X25432144Y-161160508D01*
X25492262Y-160975482D01*
X25512598Y-160782000D01*
X25492262Y-160588518D01*
X25432144Y-160403492D01*
X25432143Y-160403491D01*
X25432143Y-160403489D01*
X25432142Y-160403488D01*
X25377667Y-160309135D01*
X25334870Y-160235008D01*
X25283882Y-160178381D01*
X25204697Y-160090435D01*
X25204694Y-160090433D01*
X25204693Y-160090432D01*
X25204692Y-160090431D01*
X25079475Y-159999455D01*
X25047297Y-159976076D01*
X24906076Y-159913202D01*
X24869571Y-159896949D01*
X24869569Y-159896948D01*
X24679274Y-159856500D01*
X24484726Y-159856500D01*
X24294430Y-159896948D01*
X24294427Y-159896949D01*
X24132434Y-159969072D01*
X24063184Y-159978356D01*
X24031566Y-159969072D01*
X23869572Y-159896949D01*
X23869569Y-159896948D01*
X23679274Y-159856500D01*
X23484726Y-159856500D01*
X23294430Y-159896948D01*
X23294427Y-159896949D01*
X23132434Y-159969072D01*
X23063184Y-159978356D01*
X23031566Y-159969072D01*
X22869572Y-159896949D01*
X22869569Y-159896948D01*
X22679274Y-159856500D01*
X22484726Y-159856500D01*
X22294430Y-159896948D01*
X22294427Y-159896949D01*
X22132434Y-159969072D01*
X22063184Y-159978356D01*
X22031566Y-159969072D01*
X21869572Y-159896949D01*
X21869569Y-159896948D01*
X21679274Y-159856500D01*
X21484726Y-159856500D01*
X21294429Y-159896948D01*
X21288245Y-159898958D01*
X21287349Y-159896201D01*
X21230341Y-159903511D01*
X21206527Y-159897239D01*
X21114482Y-159862908D01*
X21114483Y-159862908D01*
X21054883Y-159856501D01*
X21054881Y-159856500D01*
X21054873Y-159856500D01*
X21054864Y-159856500D01*
X20109129Y-159856500D01*
X20109123Y-159856501D01*
X20049516Y-159862908D01*
X19914671Y-159913202D01*
X19914664Y-159913206D01*
X19799455Y-159999452D01*
X19799452Y-159999455D01*
X19713206Y-160114664D01*
X19713202Y-160114671D01*
X19662908Y-160249517D01*
X19656501Y-160309116D01*
X19656500Y-160309135D01*
X19656500Y-161254870D01*
X17311607Y-161254870D01*
X17295369Y-161110750D01*
X17295368Y-161110745D01*
X17235788Y-160940476D01*
X17139815Y-160787737D01*
X17012262Y-160660184D01*
X16859523Y-160564211D01*
X16689254Y-160504631D01*
X16689249Y-160504630D01*
X16510004Y-160484435D01*
X16509996Y-160484435D01*
X16330750Y-160504630D01*
X16330745Y-160504631D01*
X16160476Y-160564211D01*
X16007737Y-160660184D01*
X15880184Y-160787737D01*
X15784211Y-160940476D01*
X15724631Y-161110745D01*
X15724630Y-161110750D01*
X15704435Y-161289996D01*
X15704435Y-161290003D01*
X14724500Y-161290003D01*
X14724500Y-159628500D01*
X14744185Y-159561461D01*
X14796989Y-159515706D01*
X14848500Y-159504500D01*
X31599500Y-159504500D01*
X31666539Y-159524185D01*
G37*
G04 #@! TD.AperFunction*
G04 #@! TA.AperFunction,Conductor*
G36*
X31666539Y-187979685D02*
G01*
X31712294Y-188032489D01*
X31723500Y-188084000D01*
X31723500Y-194879500D01*
X31703815Y-194946539D01*
X31651011Y-194992294D01*
X31599500Y-195003500D01*
X14848500Y-195003500D01*
X14781461Y-194983815D01*
X14735706Y-194931011D01*
X14724500Y-194879500D01*
X14724500Y-193766870D01*
X18156500Y-193766870D01*
X18156501Y-193766876D01*
X18162908Y-193826483D01*
X18213202Y-193961328D01*
X18213206Y-193961335D01*
X18299452Y-194076544D01*
X18299455Y-194076547D01*
X18414664Y-194162793D01*
X18414671Y-194162797D01*
X18549517Y-194213091D01*
X18549516Y-194213091D01*
X18556444Y-194213835D01*
X18609127Y-194219500D01*
X19554872Y-194219499D01*
X19614483Y-194213091D01*
X19706530Y-194178759D01*
X19776218Y-194173776D01*
X19788039Y-194177678D01*
X19788246Y-194177042D01*
X19794426Y-194179049D01*
X19794429Y-194179051D01*
X19984726Y-194219500D01*
X20179274Y-194219500D01*
X20369566Y-194179052D01*
X20369565Y-194179052D01*
X20369571Y-194179051D01*
X20531569Y-194106925D01*
X20600815Y-194097642D01*
X20632425Y-194106922D01*
X20794429Y-194179051D01*
X20794432Y-194179051D01*
X20794433Y-194179052D01*
X20984726Y-194219500D01*
X21179274Y-194219500D01*
X21369566Y-194179052D01*
X21369565Y-194179052D01*
X21369571Y-194179051D01*
X21531569Y-194106925D01*
X21600815Y-194097642D01*
X21632425Y-194106922D01*
X21794429Y-194179051D01*
X21794432Y-194179051D01*
X21794433Y-194179052D01*
X21984726Y-194219500D01*
X22179274Y-194219500D01*
X22369566Y-194179052D01*
X22369565Y-194179052D01*
X22369571Y-194179051D01*
X22532184Y-194106651D01*
X22601429Y-194097368D01*
X22633051Y-194106653D01*
X22794585Y-194178573D01*
X22831999Y-194186524D01*
X22832000Y-194186524D01*
X22832000Y-193879189D01*
X22848613Y-193817189D01*
X22932142Y-193672511D01*
X22932144Y-193672508D01*
X22964069Y-193574252D01*
X22995242Y-193528661D01*
X23032272Y-193544000D01*
X23131728Y-193544000D01*
X23167225Y-193529296D01*
X23188187Y-193548535D01*
X23199931Y-193574252D01*
X23231855Y-193672507D01*
X23231857Y-193672511D01*
X23315387Y-193817189D01*
X23332000Y-193879189D01*
X23332000Y-194186524D01*
X23369414Y-194178573D01*
X23369415Y-194178573D01*
X23530949Y-194106653D01*
X23600199Y-194097368D01*
X23631809Y-194106648D01*
X23794429Y-194179051D01*
X23794432Y-194179051D01*
X23794433Y-194179052D01*
X23984726Y-194219500D01*
X24179274Y-194219500D01*
X24369571Y-194179051D01*
X24547299Y-194099922D01*
X24704692Y-193985569D01*
X24726513Y-193961335D01*
X24732895Y-193954245D01*
X24834870Y-193840992D01*
X24932144Y-193672508D01*
X24992262Y-193487482D01*
X25012598Y-193294000D01*
X24992262Y-193100518D01*
X24932144Y-192915492D01*
X24932143Y-192915491D01*
X24932143Y-192915489D01*
X24932142Y-192915488D01*
X24877667Y-192821135D01*
X24834870Y-192747008D01*
X24783882Y-192690381D01*
X24704697Y-192602435D01*
X24704694Y-192602433D01*
X24704693Y-192602432D01*
X24704692Y-192602431D01*
X24579475Y-192511455D01*
X24547297Y-192488076D01*
X24406076Y-192425202D01*
X24369571Y-192408949D01*
X24369569Y-192408948D01*
X24179274Y-192368500D01*
X23984726Y-192368500D01*
X23794430Y-192408948D01*
X23794427Y-192408949D01*
X23631817Y-192481346D01*
X23562567Y-192490630D01*
X23530948Y-192481346D01*
X23369414Y-192409426D01*
X23332000Y-192401473D01*
X23332000Y-192708811D01*
X23315387Y-192770811D01*
X23231857Y-192915488D01*
X23231856Y-192915489D01*
X23199931Y-193013748D01*
X23168757Y-193059337D01*
X23131728Y-193044000D01*
X23032272Y-193044000D01*
X22996775Y-193058703D01*
X22975813Y-193039464D01*
X22964069Y-193013748D01*
X22932143Y-192915489D01*
X22932142Y-192915488D01*
X22848613Y-192770811D01*
X22832000Y-192708811D01*
X22832000Y-192401473D01*
X22794585Y-192409426D01*
X22794580Y-192409428D01*
X22633052Y-192481346D01*
X22563802Y-192490631D01*
X22532181Y-192481347D01*
X22406085Y-192425206D01*
X22369571Y-192408949D01*
X22369569Y-192408948D01*
X22179274Y-192368500D01*
X21984726Y-192368500D01*
X21794430Y-192408948D01*
X21794427Y-192408949D01*
X21632434Y-192481072D01*
X21563184Y-192490356D01*
X21531566Y-192481072D01*
X21369572Y-192408949D01*
X21369569Y-192408948D01*
X21179274Y-192368500D01*
X20984726Y-192368500D01*
X20794430Y-192408948D01*
X20794427Y-192408949D01*
X20632434Y-192481072D01*
X20563184Y-192490356D01*
X20531566Y-192481072D01*
X20369572Y-192408949D01*
X20369569Y-192408948D01*
X20179274Y-192368500D01*
X19984726Y-192368500D01*
X19794429Y-192408948D01*
X19788245Y-192410958D01*
X19787349Y-192408201D01*
X19730341Y-192415511D01*
X19706527Y-192409239D01*
X19614482Y-192374908D01*
X19614483Y-192374908D01*
X19554883Y-192368501D01*
X19554881Y-192368500D01*
X19554873Y-192368500D01*
X19554864Y-192368500D01*
X18609129Y-192368500D01*
X18609123Y-192368501D01*
X18549516Y-192374908D01*
X18414671Y-192425202D01*
X18414664Y-192425206D01*
X18299455Y-192511452D01*
X18299452Y-192511455D01*
X18213206Y-192626664D01*
X18213202Y-192626671D01*
X18162908Y-192761517D01*
X18156501Y-192821116D01*
X18156500Y-192821135D01*
X18156500Y-193766870D01*
X14724500Y-193766870D01*
X14724500Y-191516003D01*
X27134435Y-191516003D01*
X27154630Y-191695249D01*
X27154631Y-191695254D01*
X27214211Y-191865523D01*
X27310184Y-192018262D01*
X27437738Y-192145816D01*
X27590478Y-192241789D01*
X27760745Y-192301368D01*
X27760750Y-192301369D01*
X27939996Y-192321565D01*
X27940000Y-192321565D01*
X27940004Y-192321565D01*
X28119249Y-192301369D01*
X28119252Y-192301368D01*
X28119255Y-192301368D01*
X28289522Y-192241789D01*
X28442262Y-192145816D01*
X28569816Y-192018262D01*
X28665789Y-191865522D01*
X28725368Y-191695255D01*
X28745565Y-191516000D01*
X28731321Y-191389584D01*
X28725369Y-191336750D01*
X28725368Y-191336745D01*
X28682360Y-191213835D01*
X28665789Y-191166478D01*
X28569816Y-191013738D01*
X28442262Y-190886184D01*
X28289523Y-190790211D01*
X28119254Y-190730631D01*
X28119249Y-190730630D01*
X27940004Y-190710435D01*
X27939996Y-190710435D01*
X27760750Y-190730630D01*
X27760745Y-190730631D01*
X27590476Y-190790211D01*
X27437737Y-190886184D01*
X27310184Y-191013737D01*
X27214211Y-191166476D01*
X27154631Y-191336745D01*
X27154630Y-191336750D01*
X27134435Y-191515996D01*
X27134435Y-191516003D01*
X14724500Y-191516003D01*
X14724500Y-190584022D01*
X17246964Y-190584022D01*
X17267159Y-190763268D01*
X17267160Y-190763273D01*
X17326740Y-190933542D01*
X17377131Y-191013738D01*
X17422713Y-191086281D01*
X17550267Y-191213835D01*
X17703007Y-191309808D01*
X17779989Y-191336745D01*
X17873274Y-191369387D01*
X17873279Y-191369388D01*
X18052525Y-191389584D01*
X18052529Y-191389584D01*
X18052533Y-191389584D01*
X18231778Y-191369388D01*
X18231781Y-191369387D01*
X18231784Y-191369387D01*
X18402051Y-191309808D01*
X18554791Y-191213835D01*
X18682345Y-191086281D01*
X18778318Y-190933541D01*
X18837897Y-190763274D01*
X18837898Y-190763268D01*
X18858094Y-190584022D01*
X18858094Y-190584015D01*
X18837898Y-190404769D01*
X18837897Y-190404764D01*
X18782344Y-190246003D01*
X22054435Y-190246003D01*
X22074630Y-190425249D01*
X22074631Y-190425254D01*
X22134211Y-190595523D01*
X22206416Y-190710435D01*
X22230184Y-190748262D01*
X22357738Y-190875816D01*
X22510478Y-190971789D01*
X22680745Y-191031368D01*
X22680750Y-191031369D01*
X22859996Y-191051565D01*
X22860000Y-191051565D01*
X22860004Y-191051565D01*
X23039249Y-191031369D01*
X23039252Y-191031368D01*
X23039255Y-191031368D01*
X23209522Y-190971789D01*
X23362262Y-190875816D01*
X23489816Y-190748262D01*
X23585789Y-190595522D01*
X23645368Y-190425255D01*
X23645369Y-190425249D01*
X23665565Y-190246003D01*
X23665565Y-190245996D01*
X23645369Y-190066750D01*
X23645368Y-190066745D01*
X23585788Y-189896476D01*
X23524320Y-189798651D01*
X23489816Y-189743738D01*
X23362262Y-189616184D01*
X23209523Y-189520211D01*
X23039254Y-189460631D01*
X23039249Y-189460630D01*
X22860004Y-189440435D01*
X22859996Y-189440435D01*
X22680750Y-189460630D01*
X22680745Y-189460631D01*
X22510476Y-189520211D01*
X22357737Y-189616184D01*
X22230184Y-189743737D01*
X22134211Y-189896476D01*
X22074631Y-190066745D01*
X22074630Y-190066750D01*
X22054435Y-190245996D01*
X22054435Y-190246003D01*
X18782344Y-190246003D01*
X18782343Y-190246000D01*
X18778318Y-190234497D01*
X18682345Y-190081757D01*
X18554791Y-189954203D01*
X18402052Y-189858230D01*
X18231783Y-189798650D01*
X18231778Y-189798649D01*
X18052533Y-189778454D01*
X18052525Y-189778454D01*
X17873279Y-189798649D01*
X17873274Y-189798650D01*
X17703005Y-189858230D01*
X17550266Y-189954203D01*
X17422713Y-190081756D01*
X17326740Y-190234495D01*
X17267160Y-190404764D01*
X17267159Y-190404769D01*
X17246964Y-190584015D01*
X17246964Y-190584022D01*
X14724500Y-190584022D01*
X14724500Y-188084000D01*
X14744185Y-188016961D01*
X14796989Y-187971206D01*
X14848500Y-187960000D01*
X31599500Y-187960000D01*
X31666539Y-187979685D01*
G37*
G04 #@! TD.AperFunction*
M02*
