%TF.GenerationSoftware,KiCad,Pcbnew,8.0.0-8.0.0-1~ubuntu20.04.1*%
%TF.CreationDate,2025-04-08T14:30:48+02:00*%
%TF.ProjectId,eeg-breakout,6565672d-6272-4656-916b-6f75742e6b69,1*%
%TF.SameCoordinates,Original*%
%TF.FileFunction,Drillmap*%
%TF.FilePolarity,Positive*%
%FSLAX45Y45*%
G04 Gerber Fmt 4.5, Leading zero omitted, Abs format (unit mm)*
G04 Created by KiCad (PCBNEW 8.0.0-8.0.0-1~ubuntu20.04.1) date 2025-04-08 14:30:48*
%MOMM*%
%LPD*%
G01*
G04 APERTURE LIST*
%ADD10C,0.050000*%
%ADD11C,0.200000*%
%ADD12C,0.100000*%
G04 APERTURE END LIST*
D10*
X1422400Y-15900400D02*
X3222400Y-15900400D01*
X3222400Y-19550400D01*
X1422400Y-19550400D01*
X1422400Y-15900400D01*
D11*
D12*
X1636000Y-16114000D02*
X1666000Y-16144000D01*
X1666000Y-16114000D02*
X1636000Y-16144000D01*
X1648700Y-16596600D02*
X1678700Y-16626600D01*
X1678700Y-16596600D02*
X1648700Y-16626600D01*
X1648700Y-17790400D02*
X1678700Y-17820400D01*
X1678700Y-17790400D02*
X1648700Y-17820400D01*
X1661400Y-19162000D02*
X1691400Y-19192000D01*
X1691400Y-19162000D02*
X1661400Y-19192000D01*
X1686800Y-17015700D02*
X1716800Y-17045700D01*
X1716800Y-17015700D02*
X1686800Y-17045700D01*
X1686800Y-17218900D02*
X1716800Y-17248900D01*
X1716800Y-17218900D02*
X1686800Y-17248900D01*
X1750300Y-17625300D02*
X1780300Y-17655300D01*
X1780300Y-17625300D02*
X1750300Y-17655300D01*
X1790253Y-19043402D02*
X1820253Y-19073402D01*
X1820253Y-19043402D02*
X1790253Y-19073402D01*
X1820900Y-16520400D02*
X1850900Y-16550400D01*
X1850900Y-16520400D02*
X1820900Y-16550400D01*
X1859000Y-17384000D02*
X1889000Y-17414000D01*
X1889000Y-17384000D02*
X1859000Y-17414000D01*
X1953500Y-16507700D02*
X1983500Y-16537700D01*
X1983500Y-16507700D02*
X1953500Y-16537700D01*
X1986000Y-17447500D02*
X2016000Y-17477500D01*
X2016000Y-17447500D02*
X1986000Y-17477500D01*
X2113000Y-17130000D02*
X2143000Y-17160000D01*
X2143000Y-17130000D02*
X2113000Y-17160000D01*
X2156700Y-16520400D02*
X2186700Y-16550400D01*
X2186700Y-16520400D02*
X2156700Y-16550400D01*
X2176500Y-16710900D02*
X2206500Y-16740900D01*
X2206500Y-16710900D02*
X2176500Y-16740900D01*
X2240000Y-17549100D02*
X2270000Y-17579100D01*
X2270000Y-17549100D02*
X2240000Y-17579100D01*
X2265400Y-17282400D02*
X2295400Y-17312400D01*
X2295400Y-17282400D02*
X2265400Y-17312400D01*
X2271000Y-19009600D02*
X2301000Y-19039600D01*
X2301000Y-19009600D02*
X2271000Y-19039600D01*
X2302750Y-17834850D02*
X2332750Y-17864850D01*
X2332750Y-17834850D02*
X2302750Y-17864850D01*
X2328900Y-16761700D02*
X2358900Y-16791700D01*
X2358900Y-16761700D02*
X2328900Y-16791700D01*
X2443200Y-16977600D02*
X2473200Y-17007600D01*
X2473200Y-16977600D02*
X2443200Y-17007600D01*
X2506700Y-17536400D02*
X2536700Y-17566400D01*
X2536700Y-17536400D02*
X2506700Y-17566400D01*
X2550400Y-16596600D02*
X2580400Y-16626600D01*
X2580400Y-16596600D02*
X2550400Y-16626600D01*
X2595600Y-17460200D02*
X2625600Y-17490200D01*
X2625600Y-17460200D02*
X2595600Y-17490200D01*
X2626600Y-19111200D02*
X2656600Y-19141200D01*
X2656600Y-19111200D02*
X2626600Y-19141200D01*
X2722600Y-17307800D02*
X2752600Y-17337800D01*
X2752600Y-17307800D02*
X2722600Y-17337800D01*
X2779000Y-19136600D02*
X2809000Y-19166600D01*
X2809000Y-19136600D02*
X2779000Y-19166600D01*
X2867900Y-17511000D02*
X2897900Y-17541000D01*
X2897900Y-17511000D02*
X2867900Y-17541000D01*
X2918700Y-17777700D02*
X2948700Y-17807700D01*
X2948700Y-17777700D02*
X2918700Y-17807700D01*
X2969500Y-16114000D02*
X2999500Y-16144000D01*
X2999500Y-16114000D02*
X2969500Y-16144000D01*
X2969500Y-16431500D02*
X2999500Y-16461500D01*
X2999500Y-16431500D02*
X2969500Y-16461500D01*
X2969500Y-16939500D02*
X2999500Y-16969500D01*
X2999500Y-16939500D02*
X2969500Y-16969500D01*
X1933200Y-19329400D02*
G75*
G02*
X1883200Y-19329400I-25000J0D01*
G01*
X1883200Y-19329400D02*
G75*
G02*
X1933200Y-19329400I25000J0D01*
G01*
X2033200Y-19329400D02*
G75*
G02*
X1983200Y-19329400I-25000J0D01*
G01*
X1983200Y-19329400D02*
G75*
G02*
X2033200Y-19329400I25000J0D01*
G01*
X2083200Y-16078200D02*
G75*
G02*
X2033200Y-16078200I-25000J0D01*
G01*
X2033200Y-16078200D02*
G75*
G02*
X2083200Y-16078200I25000J0D01*
G01*
X2133200Y-19329400D02*
G75*
G02*
X2083200Y-19329400I-25000J0D01*
G01*
X2083200Y-19329400D02*
G75*
G02*
X2133200Y-19329400I25000J0D01*
G01*
X2183200Y-16078200D02*
G75*
G02*
X2133200Y-16078200I-25000J0D01*
G01*
X2133200Y-16078200D02*
G75*
G02*
X2183200Y-16078200I25000J0D01*
G01*
X2233200Y-19329400D02*
G75*
G02*
X2183200Y-19329400I-25000J0D01*
G01*
X2183200Y-19329400D02*
G75*
G02*
X2233200Y-19329400I25000J0D01*
G01*
X2283200Y-16078200D02*
G75*
G02*
X2233200Y-16078200I-25000J0D01*
G01*
X2233200Y-16078200D02*
G75*
G02*
X2283200Y-16078200I25000J0D01*
G01*
X2333200Y-19329400D02*
G75*
G02*
X2283200Y-19329400I-25000J0D01*
G01*
X2283200Y-19329400D02*
G75*
G02*
X2333200Y-19329400I25000J0D01*
G01*
X2383200Y-16078200D02*
G75*
G02*
X2333200Y-16078200I-25000J0D01*
G01*
X2333200Y-16078200D02*
G75*
G02*
X2383200Y-16078200I25000J0D01*
G01*
X2433200Y-19329400D02*
G75*
G02*
X2383200Y-19329400I-25000J0D01*
G01*
X2383200Y-19329400D02*
G75*
G02*
X2433200Y-19329400I25000J0D01*
G01*
X2483200Y-16078200D02*
G75*
G02*
X2433200Y-16078200I-25000J0D01*
G01*
X2433200Y-16078200D02*
G75*
G02*
X2483200Y-16078200I25000J0D01*
G01*
D11*
X1680677Y-19864384D02*
X1680677Y-19664384D01*
X1680677Y-19664384D02*
X1728296Y-19664384D01*
X1728296Y-19664384D02*
X1756867Y-19673908D01*
X1756867Y-19673908D02*
X1775915Y-19692955D01*
X1775915Y-19692955D02*
X1785439Y-19712003D01*
X1785439Y-19712003D02*
X1794962Y-19750098D01*
X1794962Y-19750098D02*
X1794962Y-19778670D01*
X1794962Y-19778670D02*
X1785439Y-19816765D01*
X1785439Y-19816765D02*
X1775915Y-19835812D01*
X1775915Y-19835812D02*
X1756867Y-19854860D01*
X1756867Y-19854860D02*
X1728296Y-19864384D01*
X1728296Y-19864384D02*
X1680677Y-19864384D01*
X1880677Y-19864384D02*
X1880677Y-19731050D01*
X1880677Y-19769146D02*
X1890201Y-19750098D01*
X1890201Y-19750098D02*
X1899724Y-19740574D01*
X1899724Y-19740574D02*
X1918772Y-19731050D01*
X1918772Y-19731050D02*
X1937820Y-19731050D01*
X2004486Y-19864384D02*
X2004486Y-19731050D01*
X2004486Y-19664384D02*
X1994962Y-19673908D01*
X1994962Y-19673908D02*
X2004486Y-19683431D01*
X2004486Y-19683431D02*
X2014010Y-19673908D01*
X2014010Y-19673908D02*
X2004486Y-19664384D01*
X2004486Y-19664384D02*
X2004486Y-19683431D01*
X2128296Y-19864384D02*
X2109248Y-19854860D01*
X2109248Y-19854860D02*
X2099724Y-19835812D01*
X2099724Y-19835812D02*
X2099724Y-19664384D01*
X2233058Y-19864384D02*
X2214010Y-19854860D01*
X2214010Y-19854860D02*
X2204486Y-19835812D01*
X2204486Y-19835812D02*
X2204486Y-19664384D01*
X2461629Y-19864384D02*
X2461629Y-19664384D01*
X2461629Y-19664384D02*
X2528296Y-19807241D01*
X2528296Y-19807241D02*
X2594963Y-19664384D01*
X2594963Y-19664384D02*
X2594963Y-19864384D01*
X2775915Y-19864384D02*
X2775915Y-19759622D01*
X2775915Y-19759622D02*
X2766391Y-19740574D01*
X2766391Y-19740574D02*
X2747344Y-19731050D01*
X2747344Y-19731050D02*
X2709248Y-19731050D01*
X2709248Y-19731050D02*
X2690201Y-19740574D01*
X2775915Y-19854860D02*
X2756867Y-19864384D01*
X2756867Y-19864384D02*
X2709248Y-19864384D01*
X2709248Y-19864384D02*
X2690201Y-19854860D01*
X2690201Y-19854860D02*
X2680677Y-19835812D01*
X2680677Y-19835812D02*
X2680677Y-19816765D01*
X2680677Y-19816765D02*
X2690201Y-19797717D01*
X2690201Y-19797717D02*
X2709248Y-19788193D01*
X2709248Y-19788193D02*
X2756867Y-19788193D01*
X2756867Y-19788193D02*
X2775915Y-19778670D01*
X2871153Y-19731050D02*
X2871153Y-19931050D01*
X2871153Y-19740574D02*
X2890201Y-19731050D01*
X2890201Y-19731050D02*
X2928296Y-19731050D01*
X2928296Y-19731050D02*
X2947343Y-19740574D01*
X2947343Y-19740574D02*
X2956867Y-19750098D01*
X2956867Y-19750098D02*
X2966391Y-19769146D01*
X2966391Y-19769146D02*
X2966391Y-19826289D01*
X2966391Y-19826289D02*
X2956867Y-19845336D01*
X2956867Y-19845336D02*
X2947343Y-19854860D01*
X2947343Y-19854860D02*
X2928296Y-19864384D01*
X2928296Y-19864384D02*
X2890201Y-19864384D01*
X2890201Y-19864384D02*
X2871153Y-19854860D01*
X3052105Y-19845336D02*
X3061629Y-19854860D01*
X3061629Y-19854860D02*
X3052105Y-19864384D01*
X3052105Y-19864384D02*
X3042582Y-19854860D01*
X3042582Y-19854860D02*
X3052105Y-19845336D01*
X3052105Y-19845336D02*
X3052105Y-19864384D01*
X3052105Y-19740574D02*
X3061629Y-19750098D01*
X3061629Y-19750098D02*
X3052105Y-19759622D01*
X3052105Y-19759622D02*
X3042582Y-19750098D01*
X3042582Y-19750098D02*
X3052105Y-19740574D01*
X3052105Y-19740574D02*
X3052105Y-19759622D01*
D12*
X1389900Y-20177900D02*
X1419900Y-20207900D01*
X1419900Y-20177900D02*
X1389900Y-20207900D01*
D11*
X1718772Y-20084384D02*
X1737820Y-20084384D01*
X1737820Y-20084384D02*
X1756867Y-20093908D01*
X1756867Y-20093908D02*
X1766391Y-20103431D01*
X1766391Y-20103431D02*
X1775915Y-20122479D01*
X1775915Y-20122479D02*
X1785439Y-20160574D01*
X1785439Y-20160574D02*
X1785439Y-20208193D01*
X1785439Y-20208193D02*
X1775915Y-20246289D01*
X1775915Y-20246289D02*
X1766391Y-20265336D01*
X1766391Y-20265336D02*
X1756867Y-20274860D01*
X1756867Y-20274860D02*
X1737820Y-20284384D01*
X1737820Y-20284384D02*
X1718772Y-20284384D01*
X1718772Y-20284384D02*
X1699724Y-20274860D01*
X1699724Y-20274860D02*
X1690201Y-20265336D01*
X1690201Y-20265336D02*
X1680677Y-20246289D01*
X1680677Y-20246289D02*
X1671153Y-20208193D01*
X1671153Y-20208193D02*
X1671153Y-20160574D01*
X1671153Y-20160574D02*
X1680677Y-20122479D01*
X1680677Y-20122479D02*
X1690201Y-20103431D01*
X1690201Y-20103431D02*
X1699724Y-20093908D01*
X1699724Y-20093908D02*
X1718772Y-20084384D01*
X1871153Y-20265336D02*
X1880677Y-20274860D01*
X1880677Y-20274860D02*
X1871153Y-20284384D01*
X1871153Y-20284384D02*
X1861629Y-20274860D01*
X1861629Y-20274860D02*
X1871153Y-20265336D01*
X1871153Y-20265336D02*
X1871153Y-20284384D01*
X1947343Y-20084384D02*
X2071153Y-20084384D01*
X2071153Y-20084384D02*
X2004486Y-20160574D01*
X2004486Y-20160574D02*
X2033058Y-20160574D01*
X2033058Y-20160574D02*
X2052105Y-20170098D01*
X2052105Y-20170098D02*
X2061629Y-20179622D01*
X2061629Y-20179622D02*
X2071153Y-20198670D01*
X2071153Y-20198670D02*
X2071153Y-20246289D01*
X2071153Y-20246289D02*
X2061629Y-20265336D01*
X2061629Y-20265336D02*
X2052105Y-20274860D01*
X2052105Y-20274860D02*
X2033058Y-20284384D01*
X2033058Y-20284384D02*
X1975915Y-20284384D01*
X1975915Y-20284384D02*
X1956867Y-20274860D01*
X1956867Y-20274860D02*
X1947343Y-20265336D01*
X2194963Y-20084384D02*
X2214010Y-20084384D01*
X2214010Y-20084384D02*
X2233058Y-20093908D01*
X2233058Y-20093908D02*
X2242582Y-20103431D01*
X2242582Y-20103431D02*
X2252105Y-20122479D01*
X2252105Y-20122479D02*
X2261629Y-20160574D01*
X2261629Y-20160574D02*
X2261629Y-20208193D01*
X2261629Y-20208193D02*
X2252105Y-20246289D01*
X2252105Y-20246289D02*
X2242582Y-20265336D01*
X2242582Y-20265336D02*
X2233058Y-20274860D01*
X2233058Y-20274860D02*
X2214010Y-20284384D01*
X2214010Y-20284384D02*
X2194963Y-20284384D01*
X2194963Y-20284384D02*
X2175915Y-20274860D01*
X2175915Y-20274860D02*
X2166391Y-20265336D01*
X2166391Y-20265336D02*
X2156867Y-20246289D01*
X2156867Y-20246289D02*
X2147344Y-20208193D01*
X2147344Y-20208193D02*
X2147344Y-20160574D01*
X2147344Y-20160574D02*
X2156867Y-20122479D01*
X2156867Y-20122479D02*
X2166391Y-20103431D01*
X2166391Y-20103431D02*
X2175915Y-20093908D01*
X2175915Y-20093908D02*
X2194963Y-20084384D01*
X2385439Y-20084384D02*
X2404486Y-20084384D01*
X2404486Y-20084384D02*
X2423534Y-20093908D01*
X2423534Y-20093908D02*
X2433058Y-20103431D01*
X2433058Y-20103431D02*
X2442582Y-20122479D01*
X2442582Y-20122479D02*
X2452105Y-20160574D01*
X2452105Y-20160574D02*
X2452105Y-20208193D01*
X2452105Y-20208193D02*
X2442582Y-20246289D01*
X2442582Y-20246289D02*
X2433058Y-20265336D01*
X2433058Y-20265336D02*
X2423534Y-20274860D01*
X2423534Y-20274860D02*
X2404486Y-20284384D01*
X2404486Y-20284384D02*
X2385439Y-20284384D01*
X2385439Y-20284384D02*
X2366391Y-20274860D01*
X2366391Y-20274860D02*
X2356867Y-20265336D01*
X2356867Y-20265336D02*
X2347344Y-20246289D01*
X2347344Y-20246289D02*
X2337820Y-20208193D01*
X2337820Y-20208193D02*
X2337820Y-20160574D01*
X2337820Y-20160574D02*
X2347344Y-20122479D01*
X2347344Y-20122479D02*
X2356867Y-20103431D01*
X2356867Y-20103431D02*
X2366391Y-20093908D01*
X2366391Y-20093908D02*
X2385439Y-20084384D01*
X2537820Y-20284384D02*
X2537820Y-20151050D01*
X2537820Y-20170098D02*
X2547344Y-20160574D01*
X2547344Y-20160574D02*
X2566391Y-20151050D01*
X2566391Y-20151050D02*
X2594963Y-20151050D01*
X2594963Y-20151050D02*
X2614010Y-20160574D01*
X2614010Y-20160574D02*
X2623534Y-20179622D01*
X2623534Y-20179622D02*
X2623534Y-20284384D01*
X2623534Y-20179622D02*
X2633058Y-20160574D01*
X2633058Y-20160574D02*
X2652105Y-20151050D01*
X2652105Y-20151050D02*
X2680677Y-20151050D01*
X2680677Y-20151050D02*
X2699725Y-20160574D01*
X2699725Y-20160574D02*
X2709248Y-20179622D01*
X2709248Y-20179622D02*
X2709248Y-20284384D01*
X2804486Y-20284384D02*
X2804486Y-20151050D01*
X2804486Y-20170098D02*
X2814010Y-20160574D01*
X2814010Y-20160574D02*
X2833058Y-20151050D01*
X2833058Y-20151050D02*
X2861629Y-20151050D01*
X2861629Y-20151050D02*
X2880677Y-20160574D01*
X2880677Y-20160574D02*
X2890201Y-20179622D01*
X2890201Y-20179622D02*
X2890201Y-20284384D01*
X2890201Y-20179622D02*
X2899724Y-20160574D01*
X2899724Y-20160574D02*
X2918772Y-20151050D01*
X2918772Y-20151050D02*
X2947343Y-20151050D01*
X2947343Y-20151050D02*
X2966391Y-20160574D01*
X2966391Y-20160574D02*
X2975915Y-20179622D01*
X2975915Y-20179622D02*
X2975915Y-20284384D01*
X3366391Y-20074860D02*
X3194963Y-20332003D01*
X3623534Y-20084384D02*
X3642582Y-20084384D01*
X3642582Y-20084384D02*
X3661629Y-20093908D01*
X3661629Y-20093908D02*
X3671153Y-20103431D01*
X3671153Y-20103431D02*
X3680677Y-20122479D01*
X3680677Y-20122479D02*
X3690201Y-20160574D01*
X3690201Y-20160574D02*
X3690201Y-20208193D01*
X3690201Y-20208193D02*
X3680677Y-20246289D01*
X3680677Y-20246289D02*
X3671153Y-20265336D01*
X3671153Y-20265336D02*
X3661629Y-20274860D01*
X3661629Y-20274860D02*
X3642582Y-20284384D01*
X3642582Y-20284384D02*
X3623534Y-20284384D01*
X3623534Y-20284384D02*
X3604486Y-20274860D01*
X3604486Y-20274860D02*
X3594963Y-20265336D01*
X3594963Y-20265336D02*
X3585439Y-20246289D01*
X3585439Y-20246289D02*
X3575915Y-20208193D01*
X3575915Y-20208193D02*
X3575915Y-20160574D01*
X3575915Y-20160574D02*
X3585439Y-20122479D01*
X3585439Y-20122479D02*
X3594963Y-20103431D01*
X3594963Y-20103431D02*
X3604486Y-20093908D01*
X3604486Y-20093908D02*
X3623534Y-20084384D01*
X3775915Y-20265336D02*
X3785439Y-20274860D01*
X3785439Y-20274860D02*
X3775915Y-20284384D01*
X3775915Y-20284384D02*
X3766391Y-20274860D01*
X3766391Y-20274860D02*
X3775915Y-20265336D01*
X3775915Y-20265336D02*
X3775915Y-20284384D01*
X3909248Y-20084384D02*
X3928296Y-20084384D01*
X3928296Y-20084384D02*
X3947344Y-20093908D01*
X3947344Y-20093908D02*
X3956867Y-20103431D01*
X3956867Y-20103431D02*
X3966391Y-20122479D01*
X3966391Y-20122479D02*
X3975915Y-20160574D01*
X3975915Y-20160574D02*
X3975915Y-20208193D01*
X3975915Y-20208193D02*
X3966391Y-20246289D01*
X3966391Y-20246289D02*
X3956867Y-20265336D01*
X3956867Y-20265336D02*
X3947344Y-20274860D01*
X3947344Y-20274860D02*
X3928296Y-20284384D01*
X3928296Y-20284384D02*
X3909248Y-20284384D01*
X3909248Y-20284384D02*
X3890201Y-20274860D01*
X3890201Y-20274860D02*
X3880677Y-20265336D01*
X3880677Y-20265336D02*
X3871153Y-20246289D01*
X3871153Y-20246289D02*
X3861629Y-20208193D01*
X3861629Y-20208193D02*
X3861629Y-20160574D01*
X3861629Y-20160574D02*
X3871153Y-20122479D01*
X3871153Y-20122479D02*
X3880677Y-20103431D01*
X3880677Y-20103431D02*
X3890201Y-20093908D01*
X3890201Y-20093908D02*
X3909248Y-20084384D01*
X4166391Y-20284384D02*
X4052106Y-20284384D01*
X4109248Y-20284384D02*
X4109248Y-20084384D01*
X4109248Y-20084384D02*
X4090201Y-20112955D01*
X4090201Y-20112955D02*
X4071153Y-20132003D01*
X4071153Y-20132003D02*
X4052106Y-20141527D01*
X4356868Y-20284384D02*
X4242582Y-20284384D01*
X4299725Y-20284384D02*
X4299725Y-20084384D01*
X4299725Y-20084384D02*
X4280677Y-20112955D01*
X4280677Y-20112955D02*
X4261629Y-20132003D01*
X4261629Y-20132003D02*
X4242582Y-20141527D01*
X4471153Y-20170098D02*
X4452106Y-20160574D01*
X4452106Y-20160574D02*
X4442582Y-20151050D01*
X4442582Y-20151050D02*
X4433058Y-20132003D01*
X4433058Y-20132003D02*
X4433058Y-20122479D01*
X4433058Y-20122479D02*
X4442582Y-20103431D01*
X4442582Y-20103431D02*
X4452106Y-20093908D01*
X4452106Y-20093908D02*
X4471153Y-20084384D01*
X4471153Y-20084384D02*
X4509249Y-20084384D01*
X4509249Y-20084384D02*
X4528296Y-20093908D01*
X4528296Y-20093908D02*
X4537820Y-20103431D01*
X4537820Y-20103431D02*
X4547344Y-20122479D01*
X4547344Y-20122479D02*
X4547344Y-20132003D01*
X4547344Y-20132003D02*
X4537820Y-20151050D01*
X4537820Y-20151050D02*
X4528296Y-20160574D01*
X4528296Y-20160574D02*
X4509249Y-20170098D01*
X4509249Y-20170098D02*
X4471153Y-20170098D01*
X4471153Y-20170098D02*
X4452106Y-20179622D01*
X4452106Y-20179622D02*
X4442582Y-20189146D01*
X4442582Y-20189146D02*
X4433058Y-20208193D01*
X4433058Y-20208193D02*
X4433058Y-20246289D01*
X4433058Y-20246289D02*
X4442582Y-20265336D01*
X4442582Y-20265336D02*
X4452106Y-20274860D01*
X4452106Y-20274860D02*
X4471153Y-20284384D01*
X4471153Y-20284384D02*
X4509249Y-20284384D01*
X4509249Y-20284384D02*
X4528296Y-20274860D01*
X4528296Y-20274860D02*
X4537820Y-20265336D01*
X4537820Y-20265336D02*
X4547344Y-20246289D01*
X4547344Y-20246289D02*
X4547344Y-20208193D01*
X4547344Y-20208193D02*
X4537820Y-20189146D01*
X4537820Y-20189146D02*
X4528296Y-20179622D01*
X4528296Y-20179622D02*
X4509249Y-20170098D01*
X4623534Y-20084384D02*
X4623534Y-20122479D01*
X4699725Y-20084384D02*
X4699725Y-20122479D01*
X4994963Y-20360574D02*
X4985439Y-20351050D01*
X4985439Y-20351050D02*
X4966391Y-20322479D01*
X4966391Y-20322479D02*
X4956868Y-20303431D01*
X4956868Y-20303431D02*
X4947344Y-20274860D01*
X4947344Y-20274860D02*
X4937820Y-20227241D01*
X4937820Y-20227241D02*
X4937820Y-20189146D01*
X4937820Y-20189146D02*
X4947344Y-20141527D01*
X4947344Y-20141527D02*
X4956868Y-20112955D01*
X4956868Y-20112955D02*
X4966391Y-20093908D01*
X4966391Y-20093908D02*
X4985439Y-20065336D01*
X4985439Y-20065336D02*
X4994963Y-20055812D01*
X5052106Y-20084384D02*
X5175915Y-20084384D01*
X5175915Y-20084384D02*
X5109249Y-20160574D01*
X5109249Y-20160574D02*
X5137820Y-20160574D01*
X5137820Y-20160574D02*
X5156868Y-20170098D01*
X5156868Y-20170098D02*
X5166391Y-20179622D01*
X5166391Y-20179622D02*
X5175915Y-20198670D01*
X5175915Y-20198670D02*
X5175915Y-20246289D01*
X5175915Y-20246289D02*
X5166391Y-20265336D01*
X5166391Y-20265336D02*
X5156868Y-20274860D01*
X5156868Y-20274860D02*
X5137820Y-20284384D01*
X5137820Y-20284384D02*
X5080677Y-20284384D01*
X5080677Y-20284384D02*
X5061630Y-20274860D01*
X5061630Y-20274860D02*
X5052106Y-20265336D01*
X5252106Y-20103431D02*
X5261630Y-20093908D01*
X5261630Y-20093908D02*
X5280677Y-20084384D01*
X5280677Y-20084384D02*
X5328296Y-20084384D01*
X5328296Y-20084384D02*
X5347344Y-20093908D01*
X5347344Y-20093908D02*
X5356868Y-20103431D01*
X5356868Y-20103431D02*
X5366391Y-20122479D01*
X5366391Y-20122479D02*
X5366391Y-20141527D01*
X5366391Y-20141527D02*
X5356868Y-20170098D01*
X5356868Y-20170098D02*
X5242582Y-20284384D01*
X5242582Y-20284384D02*
X5366391Y-20284384D01*
X5604487Y-20284384D02*
X5604487Y-20084384D01*
X5690201Y-20284384D02*
X5690201Y-20179622D01*
X5690201Y-20179622D02*
X5680677Y-20160574D01*
X5680677Y-20160574D02*
X5661630Y-20151050D01*
X5661630Y-20151050D02*
X5633058Y-20151050D01*
X5633058Y-20151050D02*
X5614010Y-20160574D01*
X5614010Y-20160574D02*
X5604487Y-20170098D01*
X5814010Y-20284384D02*
X5794963Y-20274860D01*
X5794963Y-20274860D02*
X5785439Y-20265336D01*
X5785439Y-20265336D02*
X5775915Y-20246289D01*
X5775915Y-20246289D02*
X5775915Y-20189146D01*
X5775915Y-20189146D02*
X5785439Y-20170098D01*
X5785439Y-20170098D02*
X5794963Y-20160574D01*
X5794963Y-20160574D02*
X5814010Y-20151050D01*
X5814010Y-20151050D02*
X5842582Y-20151050D01*
X5842582Y-20151050D02*
X5861630Y-20160574D01*
X5861630Y-20160574D02*
X5871153Y-20170098D01*
X5871153Y-20170098D02*
X5880677Y-20189146D01*
X5880677Y-20189146D02*
X5880677Y-20246289D01*
X5880677Y-20246289D02*
X5871153Y-20265336D01*
X5871153Y-20265336D02*
X5861630Y-20274860D01*
X5861630Y-20274860D02*
X5842582Y-20284384D01*
X5842582Y-20284384D02*
X5814010Y-20284384D01*
X5994963Y-20284384D02*
X5975915Y-20274860D01*
X5975915Y-20274860D02*
X5966391Y-20255812D01*
X5966391Y-20255812D02*
X5966391Y-20084384D01*
X6147344Y-20274860D02*
X6128296Y-20284384D01*
X6128296Y-20284384D02*
X6090201Y-20284384D01*
X6090201Y-20284384D02*
X6071153Y-20274860D01*
X6071153Y-20274860D02*
X6061630Y-20255812D01*
X6061630Y-20255812D02*
X6061630Y-20179622D01*
X6061630Y-20179622D02*
X6071153Y-20160574D01*
X6071153Y-20160574D02*
X6090201Y-20151050D01*
X6090201Y-20151050D02*
X6128296Y-20151050D01*
X6128296Y-20151050D02*
X6147344Y-20160574D01*
X6147344Y-20160574D02*
X6156868Y-20179622D01*
X6156868Y-20179622D02*
X6156868Y-20198670D01*
X6156868Y-20198670D02*
X6061630Y-20217717D01*
X6233058Y-20274860D02*
X6252106Y-20284384D01*
X6252106Y-20284384D02*
X6290201Y-20284384D01*
X6290201Y-20284384D02*
X6309249Y-20274860D01*
X6309249Y-20274860D02*
X6318772Y-20255812D01*
X6318772Y-20255812D02*
X6318772Y-20246289D01*
X6318772Y-20246289D02*
X6309249Y-20227241D01*
X6309249Y-20227241D02*
X6290201Y-20217717D01*
X6290201Y-20217717D02*
X6261630Y-20217717D01*
X6261630Y-20217717D02*
X6242582Y-20208193D01*
X6242582Y-20208193D02*
X6233058Y-20189146D01*
X6233058Y-20189146D02*
X6233058Y-20179622D01*
X6233058Y-20179622D02*
X6242582Y-20160574D01*
X6242582Y-20160574D02*
X6261630Y-20151050D01*
X6261630Y-20151050D02*
X6290201Y-20151050D01*
X6290201Y-20151050D02*
X6309249Y-20160574D01*
X6385439Y-20360574D02*
X6394963Y-20351050D01*
X6394963Y-20351050D02*
X6414011Y-20322479D01*
X6414011Y-20322479D02*
X6423534Y-20303431D01*
X6423534Y-20303431D02*
X6433058Y-20274860D01*
X6433058Y-20274860D02*
X6442582Y-20227241D01*
X6442582Y-20227241D02*
X6442582Y-20189146D01*
X6442582Y-20189146D02*
X6433058Y-20141527D01*
X6433058Y-20141527D02*
X6423534Y-20112955D01*
X6423534Y-20112955D02*
X6414011Y-20093908D01*
X6414011Y-20093908D02*
X6394963Y-20065336D01*
X6394963Y-20065336D02*
X6385439Y-20055812D01*
D12*
X1419900Y-20456900D02*
G75*
G02*
X1369900Y-20456900I-25000J0D01*
G01*
X1369900Y-20456900D02*
G75*
G02*
X1419900Y-20456900I25000J0D01*
G01*
D11*
X1718772Y-20348384D02*
X1737820Y-20348384D01*
X1737820Y-20348384D02*
X1756867Y-20357908D01*
X1756867Y-20357908D02*
X1766391Y-20367431D01*
X1766391Y-20367431D02*
X1775915Y-20386479D01*
X1775915Y-20386479D02*
X1785439Y-20424574D01*
X1785439Y-20424574D02*
X1785439Y-20472193D01*
X1785439Y-20472193D02*
X1775915Y-20510289D01*
X1775915Y-20510289D02*
X1766391Y-20529336D01*
X1766391Y-20529336D02*
X1756867Y-20538860D01*
X1756867Y-20538860D02*
X1737820Y-20548384D01*
X1737820Y-20548384D02*
X1718772Y-20548384D01*
X1718772Y-20548384D02*
X1699724Y-20538860D01*
X1699724Y-20538860D02*
X1690201Y-20529336D01*
X1690201Y-20529336D02*
X1680677Y-20510289D01*
X1680677Y-20510289D02*
X1671153Y-20472193D01*
X1671153Y-20472193D02*
X1671153Y-20424574D01*
X1671153Y-20424574D02*
X1680677Y-20386479D01*
X1680677Y-20386479D02*
X1690201Y-20367431D01*
X1690201Y-20367431D02*
X1699724Y-20357908D01*
X1699724Y-20357908D02*
X1718772Y-20348384D01*
X1871153Y-20529336D02*
X1880677Y-20538860D01*
X1880677Y-20538860D02*
X1871153Y-20548384D01*
X1871153Y-20548384D02*
X1861629Y-20538860D01*
X1861629Y-20538860D02*
X1871153Y-20529336D01*
X1871153Y-20529336D02*
X1871153Y-20548384D01*
X2061629Y-20348384D02*
X1966391Y-20348384D01*
X1966391Y-20348384D02*
X1956867Y-20443622D01*
X1956867Y-20443622D02*
X1966391Y-20434098D01*
X1966391Y-20434098D02*
X1985439Y-20424574D01*
X1985439Y-20424574D02*
X2033058Y-20424574D01*
X2033058Y-20424574D02*
X2052105Y-20434098D01*
X2052105Y-20434098D02*
X2061629Y-20443622D01*
X2061629Y-20443622D02*
X2071153Y-20462670D01*
X2071153Y-20462670D02*
X2071153Y-20510289D01*
X2071153Y-20510289D02*
X2061629Y-20529336D01*
X2061629Y-20529336D02*
X2052105Y-20538860D01*
X2052105Y-20538860D02*
X2033058Y-20548384D01*
X2033058Y-20548384D02*
X1985439Y-20548384D01*
X1985439Y-20548384D02*
X1966391Y-20538860D01*
X1966391Y-20538860D02*
X1956867Y-20529336D01*
X2194963Y-20348384D02*
X2214010Y-20348384D01*
X2214010Y-20348384D02*
X2233058Y-20357908D01*
X2233058Y-20357908D02*
X2242582Y-20367431D01*
X2242582Y-20367431D02*
X2252105Y-20386479D01*
X2252105Y-20386479D02*
X2261629Y-20424574D01*
X2261629Y-20424574D02*
X2261629Y-20472193D01*
X2261629Y-20472193D02*
X2252105Y-20510289D01*
X2252105Y-20510289D02*
X2242582Y-20529336D01*
X2242582Y-20529336D02*
X2233058Y-20538860D01*
X2233058Y-20538860D02*
X2214010Y-20548384D01*
X2214010Y-20548384D02*
X2194963Y-20548384D01*
X2194963Y-20548384D02*
X2175915Y-20538860D01*
X2175915Y-20538860D02*
X2166391Y-20529336D01*
X2166391Y-20529336D02*
X2156867Y-20510289D01*
X2156867Y-20510289D02*
X2147344Y-20472193D01*
X2147344Y-20472193D02*
X2147344Y-20424574D01*
X2147344Y-20424574D02*
X2156867Y-20386479D01*
X2156867Y-20386479D02*
X2166391Y-20367431D01*
X2166391Y-20367431D02*
X2175915Y-20357908D01*
X2175915Y-20357908D02*
X2194963Y-20348384D01*
X2385439Y-20348384D02*
X2404486Y-20348384D01*
X2404486Y-20348384D02*
X2423534Y-20357908D01*
X2423534Y-20357908D02*
X2433058Y-20367431D01*
X2433058Y-20367431D02*
X2442582Y-20386479D01*
X2442582Y-20386479D02*
X2452105Y-20424574D01*
X2452105Y-20424574D02*
X2452105Y-20472193D01*
X2452105Y-20472193D02*
X2442582Y-20510289D01*
X2442582Y-20510289D02*
X2433058Y-20529336D01*
X2433058Y-20529336D02*
X2423534Y-20538860D01*
X2423534Y-20538860D02*
X2404486Y-20548384D01*
X2404486Y-20548384D02*
X2385439Y-20548384D01*
X2385439Y-20548384D02*
X2366391Y-20538860D01*
X2366391Y-20538860D02*
X2356867Y-20529336D01*
X2356867Y-20529336D02*
X2347344Y-20510289D01*
X2347344Y-20510289D02*
X2337820Y-20472193D01*
X2337820Y-20472193D02*
X2337820Y-20424574D01*
X2337820Y-20424574D02*
X2347344Y-20386479D01*
X2347344Y-20386479D02*
X2356867Y-20367431D01*
X2356867Y-20367431D02*
X2366391Y-20357908D01*
X2366391Y-20357908D02*
X2385439Y-20348384D01*
X2537820Y-20548384D02*
X2537820Y-20415050D01*
X2537820Y-20434098D02*
X2547344Y-20424574D01*
X2547344Y-20424574D02*
X2566391Y-20415050D01*
X2566391Y-20415050D02*
X2594963Y-20415050D01*
X2594963Y-20415050D02*
X2614010Y-20424574D01*
X2614010Y-20424574D02*
X2623534Y-20443622D01*
X2623534Y-20443622D02*
X2623534Y-20548384D01*
X2623534Y-20443622D02*
X2633058Y-20424574D01*
X2633058Y-20424574D02*
X2652105Y-20415050D01*
X2652105Y-20415050D02*
X2680677Y-20415050D01*
X2680677Y-20415050D02*
X2699725Y-20424574D01*
X2699725Y-20424574D02*
X2709248Y-20443622D01*
X2709248Y-20443622D02*
X2709248Y-20548384D01*
X2804486Y-20548384D02*
X2804486Y-20415050D01*
X2804486Y-20434098D02*
X2814010Y-20424574D01*
X2814010Y-20424574D02*
X2833058Y-20415050D01*
X2833058Y-20415050D02*
X2861629Y-20415050D01*
X2861629Y-20415050D02*
X2880677Y-20424574D01*
X2880677Y-20424574D02*
X2890201Y-20443622D01*
X2890201Y-20443622D02*
X2890201Y-20548384D01*
X2890201Y-20443622D02*
X2899724Y-20424574D01*
X2899724Y-20424574D02*
X2918772Y-20415050D01*
X2918772Y-20415050D02*
X2947343Y-20415050D01*
X2947343Y-20415050D02*
X2966391Y-20424574D01*
X2966391Y-20424574D02*
X2975915Y-20443622D01*
X2975915Y-20443622D02*
X2975915Y-20548384D01*
X3366391Y-20338860D02*
X3194963Y-20596003D01*
X3623534Y-20348384D02*
X3642582Y-20348384D01*
X3642582Y-20348384D02*
X3661629Y-20357908D01*
X3661629Y-20357908D02*
X3671153Y-20367431D01*
X3671153Y-20367431D02*
X3680677Y-20386479D01*
X3680677Y-20386479D02*
X3690201Y-20424574D01*
X3690201Y-20424574D02*
X3690201Y-20472193D01*
X3690201Y-20472193D02*
X3680677Y-20510289D01*
X3680677Y-20510289D02*
X3671153Y-20529336D01*
X3671153Y-20529336D02*
X3661629Y-20538860D01*
X3661629Y-20538860D02*
X3642582Y-20548384D01*
X3642582Y-20548384D02*
X3623534Y-20548384D01*
X3623534Y-20548384D02*
X3604486Y-20538860D01*
X3604486Y-20538860D02*
X3594963Y-20529336D01*
X3594963Y-20529336D02*
X3585439Y-20510289D01*
X3585439Y-20510289D02*
X3575915Y-20472193D01*
X3575915Y-20472193D02*
X3575915Y-20424574D01*
X3575915Y-20424574D02*
X3585439Y-20386479D01*
X3585439Y-20386479D02*
X3594963Y-20367431D01*
X3594963Y-20367431D02*
X3604486Y-20357908D01*
X3604486Y-20357908D02*
X3623534Y-20348384D01*
X3775915Y-20529336D02*
X3785439Y-20538860D01*
X3785439Y-20538860D02*
X3775915Y-20548384D01*
X3775915Y-20548384D02*
X3766391Y-20538860D01*
X3766391Y-20538860D02*
X3775915Y-20529336D01*
X3775915Y-20529336D02*
X3775915Y-20548384D01*
X3909248Y-20348384D02*
X3928296Y-20348384D01*
X3928296Y-20348384D02*
X3947344Y-20357908D01*
X3947344Y-20357908D02*
X3956867Y-20367431D01*
X3956867Y-20367431D02*
X3966391Y-20386479D01*
X3966391Y-20386479D02*
X3975915Y-20424574D01*
X3975915Y-20424574D02*
X3975915Y-20472193D01*
X3975915Y-20472193D02*
X3966391Y-20510289D01*
X3966391Y-20510289D02*
X3956867Y-20529336D01*
X3956867Y-20529336D02*
X3947344Y-20538860D01*
X3947344Y-20538860D02*
X3928296Y-20548384D01*
X3928296Y-20548384D02*
X3909248Y-20548384D01*
X3909248Y-20548384D02*
X3890201Y-20538860D01*
X3890201Y-20538860D02*
X3880677Y-20529336D01*
X3880677Y-20529336D02*
X3871153Y-20510289D01*
X3871153Y-20510289D02*
X3861629Y-20472193D01*
X3861629Y-20472193D02*
X3861629Y-20424574D01*
X3861629Y-20424574D02*
X3871153Y-20386479D01*
X3871153Y-20386479D02*
X3880677Y-20367431D01*
X3880677Y-20367431D02*
X3890201Y-20357908D01*
X3890201Y-20357908D02*
X3909248Y-20348384D01*
X4166391Y-20548384D02*
X4052106Y-20548384D01*
X4109248Y-20548384D02*
X4109248Y-20348384D01*
X4109248Y-20348384D02*
X4090201Y-20376955D01*
X4090201Y-20376955D02*
X4071153Y-20396003D01*
X4071153Y-20396003D02*
X4052106Y-20405527D01*
X4261629Y-20548384D02*
X4299725Y-20548384D01*
X4299725Y-20548384D02*
X4318772Y-20538860D01*
X4318772Y-20538860D02*
X4328296Y-20529336D01*
X4328296Y-20529336D02*
X4347344Y-20500765D01*
X4347344Y-20500765D02*
X4356868Y-20462670D01*
X4356868Y-20462670D02*
X4356868Y-20386479D01*
X4356868Y-20386479D02*
X4347344Y-20367431D01*
X4347344Y-20367431D02*
X4337820Y-20357908D01*
X4337820Y-20357908D02*
X4318772Y-20348384D01*
X4318772Y-20348384D02*
X4280677Y-20348384D01*
X4280677Y-20348384D02*
X4261629Y-20357908D01*
X4261629Y-20357908D02*
X4252106Y-20367431D01*
X4252106Y-20367431D02*
X4242582Y-20386479D01*
X4242582Y-20386479D02*
X4242582Y-20434098D01*
X4242582Y-20434098D02*
X4252106Y-20453146D01*
X4252106Y-20453146D02*
X4261629Y-20462670D01*
X4261629Y-20462670D02*
X4280677Y-20472193D01*
X4280677Y-20472193D02*
X4318772Y-20472193D01*
X4318772Y-20472193D02*
X4337820Y-20462670D01*
X4337820Y-20462670D02*
X4347344Y-20453146D01*
X4347344Y-20453146D02*
X4356868Y-20434098D01*
X4423534Y-20348384D02*
X4556868Y-20348384D01*
X4556868Y-20348384D02*
X4471153Y-20548384D01*
X4623534Y-20348384D02*
X4623534Y-20386479D01*
X4699725Y-20348384D02*
X4699725Y-20386479D01*
X4994963Y-20624574D02*
X4985439Y-20615050D01*
X4985439Y-20615050D02*
X4966391Y-20586479D01*
X4966391Y-20586479D02*
X4956868Y-20567431D01*
X4956868Y-20567431D02*
X4947344Y-20538860D01*
X4947344Y-20538860D02*
X4937820Y-20491241D01*
X4937820Y-20491241D02*
X4937820Y-20453146D01*
X4937820Y-20453146D02*
X4947344Y-20405527D01*
X4947344Y-20405527D02*
X4956868Y-20376955D01*
X4956868Y-20376955D02*
X4966391Y-20357908D01*
X4966391Y-20357908D02*
X4985439Y-20329336D01*
X4985439Y-20329336D02*
X4994963Y-20319812D01*
X5175915Y-20548384D02*
X5061630Y-20548384D01*
X5118772Y-20548384D02*
X5118772Y-20348384D01*
X5118772Y-20348384D02*
X5099725Y-20376955D01*
X5099725Y-20376955D02*
X5080677Y-20396003D01*
X5080677Y-20396003D02*
X5061630Y-20405527D01*
X5366391Y-20548384D02*
X5252106Y-20548384D01*
X5309249Y-20548384D02*
X5309249Y-20348384D01*
X5309249Y-20348384D02*
X5290201Y-20376955D01*
X5290201Y-20376955D02*
X5271153Y-20396003D01*
X5271153Y-20396003D02*
X5252106Y-20405527D01*
X5604487Y-20548384D02*
X5604487Y-20348384D01*
X5690201Y-20548384D02*
X5690201Y-20443622D01*
X5690201Y-20443622D02*
X5680677Y-20424574D01*
X5680677Y-20424574D02*
X5661630Y-20415050D01*
X5661630Y-20415050D02*
X5633058Y-20415050D01*
X5633058Y-20415050D02*
X5614010Y-20424574D01*
X5614010Y-20424574D02*
X5604487Y-20434098D01*
X5814010Y-20548384D02*
X5794963Y-20538860D01*
X5794963Y-20538860D02*
X5785439Y-20529336D01*
X5785439Y-20529336D02*
X5775915Y-20510289D01*
X5775915Y-20510289D02*
X5775915Y-20453146D01*
X5775915Y-20453146D02*
X5785439Y-20434098D01*
X5785439Y-20434098D02*
X5794963Y-20424574D01*
X5794963Y-20424574D02*
X5814010Y-20415050D01*
X5814010Y-20415050D02*
X5842582Y-20415050D01*
X5842582Y-20415050D02*
X5861630Y-20424574D01*
X5861630Y-20424574D02*
X5871153Y-20434098D01*
X5871153Y-20434098D02*
X5880677Y-20453146D01*
X5880677Y-20453146D02*
X5880677Y-20510289D01*
X5880677Y-20510289D02*
X5871153Y-20529336D01*
X5871153Y-20529336D02*
X5861630Y-20538860D01*
X5861630Y-20538860D02*
X5842582Y-20548384D01*
X5842582Y-20548384D02*
X5814010Y-20548384D01*
X5994963Y-20548384D02*
X5975915Y-20538860D01*
X5975915Y-20538860D02*
X5966391Y-20519812D01*
X5966391Y-20519812D02*
X5966391Y-20348384D01*
X6147344Y-20538860D02*
X6128296Y-20548384D01*
X6128296Y-20548384D02*
X6090201Y-20548384D01*
X6090201Y-20548384D02*
X6071153Y-20538860D01*
X6071153Y-20538860D02*
X6061630Y-20519812D01*
X6061630Y-20519812D02*
X6061630Y-20443622D01*
X6061630Y-20443622D02*
X6071153Y-20424574D01*
X6071153Y-20424574D02*
X6090201Y-20415050D01*
X6090201Y-20415050D02*
X6128296Y-20415050D01*
X6128296Y-20415050D02*
X6147344Y-20424574D01*
X6147344Y-20424574D02*
X6156868Y-20443622D01*
X6156868Y-20443622D02*
X6156868Y-20462670D01*
X6156868Y-20462670D02*
X6061630Y-20481717D01*
X6233058Y-20538860D02*
X6252106Y-20548384D01*
X6252106Y-20548384D02*
X6290201Y-20548384D01*
X6290201Y-20548384D02*
X6309249Y-20538860D01*
X6309249Y-20538860D02*
X6318772Y-20519812D01*
X6318772Y-20519812D02*
X6318772Y-20510289D01*
X6318772Y-20510289D02*
X6309249Y-20491241D01*
X6309249Y-20491241D02*
X6290201Y-20481717D01*
X6290201Y-20481717D02*
X6261630Y-20481717D01*
X6261630Y-20481717D02*
X6242582Y-20472193D01*
X6242582Y-20472193D02*
X6233058Y-20453146D01*
X6233058Y-20453146D02*
X6233058Y-20443622D01*
X6233058Y-20443622D02*
X6242582Y-20424574D01*
X6242582Y-20424574D02*
X6261630Y-20415050D01*
X6261630Y-20415050D02*
X6290201Y-20415050D01*
X6290201Y-20415050D02*
X6309249Y-20424574D01*
X6385439Y-20624574D02*
X6394963Y-20615050D01*
X6394963Y-20615050D02*
X6414011Y-20586479D01*
X6414011Y-20586479D02*
X6423534Y-20567431D01*
X6423534Y-20567431D02*
X6433058Y-20538860D01*
X6433058Y-20538860D02*
X6442582Y-20491241D01*
X6442582Y-20491241D02*
X6442582Y-20453146D01*
X6442582Y-20453146D02*
X6433058Y-20405527D01*
X6433058Y-20405527D02*
X6423534Y-20376955D01*
X6423534Y-20376955D02*
X6414011Y-20357908D01*
X6414011Y-20357908D02*
X6394963Y-20329336D01*
X6394963Y-20329336D02*
X6385439Y-20319812D01*
M02*
