G04 #@! TF.GenerationSoftware,KiCad,Pcbnew,8.0.0-8.0.0-1~ubuntu20.04.1*
G04 #@! TF.CreationDate,2025-04-08T14:30:04+02:00*
G04 #@! TF.ProjectId,eeg-breakout,6565672d-6272-4656-916b-6f75742e6b69,1*
G04 #@! TF.SameCoordinates,Original*
G04 #@! TF.FileFunction,Legend,Top*
G04 #@! TF.FilePolarity,Positive*
%FSLAX46Y46*%
G04 Gerber Fmt 4.6, Leading zero omitted, Abs format (unit mm)*
G04 Created by KiCad (PCBNEW 8.0.0-8.0.0-1~ubuntu20.04.1) date 2025-04-08 14:30:04*
%MOMM*%
%LPD*%
G01*
G04 APERTURE LIST*
G04 Aperture macros list*
%AMRoundRect*
0 Rectangle with rounded corners*
0 $1 Rounding radius*
0 $2 $3 $4 $5 $6 $7 $8 $9 X,Y pos of 4 corners*
0 Add a 4 corners polygon primitive as box body*
4,1,4,$2,$3,$4,$5,$6,$7,$8,$9,$2,$3,0*
0 Add four circle primitives for the rounded corners*
1,1,$1+$1,$2,$3*
1,1,$1+$1,$4,$5*
1,1,$1+$1,$6,$7*
1,1,$1+$1,$8,$9*
0 Add four rect primitives between the rounded corners*
20,1,$1+$1,$2,$3,$4,$5,0*
20,1,$1+$1,$4,$5,$6,$7,0*
20,1,$1+$1,$6,$7,$8,$9,0*
20,1,$1+$1,$8,$9,$2,$3,0*%
G04 Aperture macros list end*
%ADD10C,0.150000*%
%ADD11C,0.120000*%
%ADD12RoundRect,0.050000X-0.050000X0.337500X-0.050000X-0.337500X0.050000X-0.337500X0.050000X0.337500X0*%
%ADD13RoundRect,0.050000X-0.337500X0.050000X-0.337500X-0.050000X0.337500X-0.050000X0.337500X0.050000X0*%
%ADD14R,2.800000X2.800000*%
%ADD15RoundRect,0.140000X-0.140000X-0.170000X0.140000X-0.170000X0.140000X0.170000X-0.140000X0.170000X0*%
%ADD16RoundRect,0.150000X0.150000X-0.875000X0.150000X0.875000X-0.150000X0.875000X-0.150000X-0.875000X0*%
%ADD17RoundRect,0.135000X0.185000X-0.135000X0.185000X0.135000X-0.185000X0.135000X-0.185000X-0.135000X0*%
%ADD18RoundRect,0.135000X-0.135000X-0.185000X0.135000X-0.185000X0.135000X0.185000X-0.135000X0.185000X0*%
%ADD19RoundRect,0.135000X0.135000X0.185000X-0.135000X0.185000X-0.135000X-0.185000X0.135000X-0.185000X0*%
%ADD20O,0.850000X0.850000*%
%ADD21R,0.850000X0.850000*%
%ADD22RoundRect,0.218750X0.256250X-0.218750X0.256250X0.218750X-0.256250X0.218750X-0.256250X-0.218750X0*%
%ADD23RoundRect,0.218750X-0.256250X0.218750X-0.256250X-0.218750X0.256250X-0.218750X0.256250X0.218750X0*%
%ADD24RoundRect,0.140000X0.140000X0.170000X-0.140000X0.170000X-0.140000X-0.170000X0.140000X-0.170000X0*%
%ADD25RoundRect,0.140000X0.170000X-0.140000X0.170000X0.140000X-0.170000X0.140000X-0.170000X-0.140000X0*%
%ADD26RoundRect,0.225000X-0.225000X-0.250000X0.225000X-0.250000X0.225000X0.250000X-0.225000X0.250000X0*%
%ADD27RoundRect,0.140000X-0.170000X0.140000X-0.170000X-0.140000X0.170000X-0.140000X0.170000X0.140000X0*%
%ADD28RoundRect,0.225000X0.250000X-0.225000X0.250000X0.225000X-0.250000X0.225000X-0.250000X-0.225000X0*%
G04 APERTURE END LIST*
D10*
X19304095Y-175095819D02*
X19304095Y-175905342D01*
X19304095Y-175905342D02*
X19351714Y-176000580D01*
X19351714Y-176000580D02*
X19399333Y-176048200D01*
X19399333Y-176048200D02*
X19494571Y-176095819D01*
X19494571Y-176095819D02*
X19685047Y-176095819D01*
X19685047Y-176095819D02*
X19780285Y-176048200D01*
X19780285Y-176048200D02*
X19827904Y-176000580D01*
X19827904Y-176000580D02*
X19875523Y-175905342D01*
X19875523Y-175905342D02*
X19875523Y-175095819D01*
X20304095Y-175191057D02*
X20351714Y-175143438D01*
X20351714Y-175143438D02*
X20446952Y-175095819D01*
X20446952Y-175095819D02*
X20685047Y-175095819D01*
X20685047Y-175095819D02*
X20780285Y-175143438D01*
X20780285Y-175143438D02*
X20827904Y-175191057D01*
X20827904Y-175191057D02*
X20875523Y-175286295D01*
X20875523Y-175286295D02*
X20875523Y-175381533D01*
X20875523Y-175381533D02*
X20827904Y-175524390D01*
X20827904Y-175524390D02*
X20256476Y-176095819D01*
X20256476Y-176095819D02*
X20875523Y-176095819D01*
X19748142Y-167982580D02*
X19700523Y-168030200D01*
X19700523Y-168030200D02*
X19557666Y-168077819D01*
X19557666Y-168077819D02*
X19462428Y-168077819D01*
X19462428Y-168077819D02*
X19319571Y-168030200D01*
X19319571Y-168030200D02*
X19224333Y-167934961D01*
X19224333Y-167934961D02*
X19176714Y-167839723D01*
X19176714Y-167839723D02*
X19129095Y-167649247D01*
X19129095Y-167649247D02*
X19129095Y-167506390D01*
X19129095Y-167506390D02*
X19176714Y-167315914D01*
X19176714Y-167315914D02*
X19224333Y-167220676D01*
X19224333Y-167220676D02*
X19319571Y-167125438D01*
X19319571Y-167125438D02*
X19462428Y-167077819D01*
X19462428Y-167077819D02*
X19557666Y-167077819D01*
X19557666Y-167077819D02*
X19700523Y-167125438D01*
X19700523Y-167125438D02*
X19748142Y-167173057D01*
X20700523Y-168077819D02*
X20129095Y-168077819D01*
X20414809Y-168077819D02*
X20414809Y-167077819D01*
X20414809Y-167077819D02*
X20319571Y-167220676D01*
X20319571Y-167220676D02*
X20224333Y-167315914D01*
X20224333Y-167315914D02*
X20129095Y-167363533D01*
X21319571Y-167077819D02*
X21414809Y-167077819D01*
X21414809Y-167077819D02*
X21510047Y-167125438D01*
X21510047Y-167125438D02*
X21557666Y-167173057D01*
X21557666Y-167173057D02*
X21605285Y-167268295D01*
X21605285Y-167268295D02*
X21652904Y-167458771D01*
X21652904Y-167458771D02*
X21652904Y-167696866D01*
X21652904Y-167696866D02*
X21605285Y-167887342D01*
X21605285Y-167887342D02*
X21557666Y-167982580D01*
X21557666Y-167982580D02*
X21510047Y-168030200D01*
X21510047Y-168030200D02*
X21414809Y-168077819D01*
X21414809Y-168077819D02*
X21319571Y-168077819D01*
X21319571Y-168077819D02*
X21224333Y-168030200D01*
X21224333Y-168030200D02*
X21176714Y-167982580D01*
X21176714Y-167982580D02*
X21129095Y-167887342D01*
X21129095Y-167887342D02*
X21081476Y-167696866D01*
X21081476Y-167696866D02*
X21081476Y-167458771D01*
X21081476Y-167458771D02*
X21129095Y-167268295D01*
X21129095Y-167268295D02*
X21176714Y-167173057D01*
X21176714Y-167173057D02*
X21224333Y-167125438D01*
X21224333Y-167125438D02*
X21319571Y-167077819D01*
X29426819Y-188975904D02*
X30236342Y-188975904D01*
X30236342Y-188975904D02*
X30331580Y-188928285D01*
X30331580Y-188928285D02*
X30379200Y-188880666D01*
X30379200Y-188880666D02*
X30426819Y-188785428D01*
X30426819Y-188785428D02*
X30426819Y-188594952D01*
X30426819Y-188594952D02*
X30379200Y-188499714D01*
X30379200Y-188499714D02*
X30331580Y-188452095D01*
X30331580Y-188452095D02*
X30236342Y-188404476D01*
X30236342Y-188404476D02*
X29426819Y-188404476D01*
X30426819Y-187404476D02*
X30426819Y-187975904D01*
X30426819Y-187690190D02*
X29426819Y-187690190D01*
X29426819Y-187690190D02*
X29569676Y-187785428D01*
X29569676Y-187785428D02*
X29664914Y-187880666D01*
X29664914Y-187880666D02*
X29712533Y-187975904D01*
X18278819Y-163490666D02*
X17802628Y-163823999D01*
X18278819Y-164062094D02*
X17278819Y-164062094D01*
X17278819Y-164062094D02*
X17278819Y-163681142D01*
X17278819Y-163681142D02*
X17326438Y-163585904D01*
X17326438Y-163585904D02*
X17374057Y-163538285D01*
X17374057Y-163538285D02*
X17469295Y-163490666D01*
X17469295Y-163490666D02*
X17612152Y-163490666D01*
X17612152Y-163490666D02*
X17707390Y-163538285D01*
X17707390Y-163538285D02*
X17755009Y-163585904D01*
X17755009Y-163585904D02*
X17802628Y-163681142D01*
X17802628Y-163681142D02*
X17802628Y-164062094D01*
X17707390Y-162919237D02*
X17659771Y-163014475D01*
X17659771Y-163014475D02*
X17612152Y-163062094D01*
X17612152Y-163062094D02*
X17516914Y-163109713D01*
X17516914Y-163109713D02*
X17469295Y-163109713D01*
X17469295Y-163109713D02*
X17374057Y-163062094D01*
X17374057Y-163062094D02*
X17326438Y-163014475D01*
X17326438Y-163014475D02*
X17278819Y-162919237D01*
X17278819Y-162919237D02*
X17278819Y-162728761D01*
X17278819Y-162728761D02*
X17326438Y-162633523D01*
X17326438Y-162633523D02*
X17374057Y-162585904D01*
X17374057Y-162585904D02*
X17469295Y-162538285D01*
X17469295Y-162538285D02*
X17516914Y-162538285D01*
X17516914Y-162538285D02*
X17612152Y-162585904D01*
X17612152Y-162585904D02*
X17659771Y-162633523D01*
X17659771Y-162633523D02*
X17707390Y-162728761D01*
X17707390Y-162728761D02*
X17707390Y-162919237D01*
X17707390Y-162919237D02*
X17755009Y-163014475D01*
X17755009Y-163014475D02*
X17802628Y-163062094D01*
X17802628Y-163062094D02*
X17897866Y-163109713D01*
X17897866Y-163109713D02*
X18088342Y-163109713D01*
X18088342Y-163109713D02*
X18183580Y-163062094D01*
X18183580Y-163062094D02*
X18231200Y-163014475D01*
X18231200Y-163014475D02*
X18278819Y-162919237D01*
X18278819Y-162919237D02*
X18278819Y-162728761D01*
X18278819Y-162728761D02*
X18231200Y-162633523D01*
X18231200Y-162633523D02*
X18183580Y-162585904D01*
X18183580Y-162585904D02*
X18088342Y-162538285D01*
X18088342Y-162538285D02*
X17897866Y-162538285D01*
X17897866Y-162538285D02*
X17802628Y-162585904D01*
X17802628Y-162585904D02*
X17755009Y-162633523D01*
X17755009Y-162633523D02*
X17707390Y-162728761D01*
X25644819Y-163490666D02*
X25168628Y-163823999D01*
X25644819Y-164062094D02*
X24644819Y-164062094D01*
X24644819Y-164062094D02*
X24644819Y-163681142D01*
X24644819Y-163681142D02*
X24692438Y-163585904D01*
X24692438Y-163585904D02*
X24740057Y-163538285D01*
X24740057Y-163538285D02*
X24835295Y-163490666D01*
X24835295Y-163490666D02*
X24978152Y-163490666D01*
X24978152Y-163490666D02*
X25073390Y-163538285D01*
X25073390Y-163538285D02*
X25121009Y-163585904D01*
X25121009Y-163585904D02*
X25168628Y-163681142D01*
X25168628Y-163681142D02*
X25168628Y-164062094D01*
X24644819Y-163157332D02*
X24644819Y-162490666D01*
X24644819Y-162490666D02*
X25644819Y-162919237D01*
X20691819Y-163490666D02*
X20215628Y-163823999D01*
X20691819Y-164062094D02*
X19691819Y-164062094D01*
X19691819Y-164062094D02*
X19691819Y-163681142D01*
X19691819Y-163681142D02*
X19739438Y-163585904D01*
X19739438Y-163585904D02*
X19787057Y-163538285D01*
X19787057Y-163538285D02*
X19882295Y-163490666D01*
X19882295Y-163490666D02*
X20025152Y-163490666D01*
X20025152Y-163490666D02*
X20120390Y-163538285D01*
X20120390Y-163538285D02*
X20168009Y-163585904D01*
X20168009Y-163585904D02*
X20215628Y-163681142D01*
X20215628Y-163681142D02*
X20215628Y-164062094D01*
X19691819Y-162633523D02*
X19691819Y-162823999D01*
X19691819Y-162823999D02*
X19739438Y-162919237D01*
X19739438Y-162919237D02*
X19787057Y-162966856D01*
X19787057Y-162966856D02*
X19929914Y-163062094D01*
X19929914Y-163062094D02*
X20120390Y-163109713D01*
X20120390Y-163109713D02*
X20501342Y-163109713D01*
X20501342Y-163109713D02*
X20596580Y-163062094D01*
X20596580Y-163062094D02*
X20644200Y-163014475D01*
X20644200Y-163014475D02*
X20691819Y-162919237D01*
X20691819Y-162919237D02*
X20691819Y-162728761D01*
X20691819Y-162728761D02*
X20644200Y-162633523D01*
X20644200Y-162633523D02*
X20596580Y-162585904D01*
X20596580Y-162585904D02*
X20501342Y-162538285D01*
X20501342Y-162538285D02*
X20263247Y-162538285D01*
X20263247Y-162538285D02*
X20168009Y-162585904D01*
X20168009Y-162585904D02*
X20120390Y-162633523D01*
X20120390Y-162633523D02*
X20072771Y-162728761D01*
X20072771Y-162728761D02*
X20072771Y-162919237D01*
X20072771Y-162919237D02*
X20120390Y-163014475D01*
X20120390Y-163014475D02*
X20168009Y-163062094D01*
X20168009Y-163062094D02*
X20263247Y-163109713D01*
X23231819Y-163490666D02*
X22755628Y-163823999D01*
X23231819Y-164062094D02*
X22231819Y-164062094D01*
X22231819Y-164062094D02*
X22231819Y-163681142D01*
X22231819Y-163681142D02*
X22279438Y-163585904D01*
X22279438Y-163585904D02*
X22327057Y-163538285D01*
X22327057Y-163538285D02*
X22422295Y-163490666D01*
X22422295Y-163490666D02*
X22565152Y-163490666D01*
X22565152Y-163490666D02*
X22660390Y-163538285D01*
X22660390Y-163538285D02*
X22708009Y-163585904D01*
X22708009Y-163585904D02*
X22755628Y-163681142D01*
X22755628Y-163681142D02*
X22755628Y-164062094D01*
X22231819Y-162585904D02*
X22231819Y-163062094D01*
X22231819Y-163062094D02*
X22708009Y-163109713D01*
X22708009Y-163109713D02*
X22660390Y-163062094D01*
X22660390Y-163062094D02*
X22612771Y-162966856D01*
X22612771Y-162966856D02*
X22612771Y-162728761D01*
X22612771Y-162728761D02*
X22660390Y-162633523D01*
X22660390Y-162633523D02*
X22708009Y-162585904D01*
X22708009Y-162585904D02*
X22803247Y-162538285D01*
X22803247Y-162538285D02*
X23041342Y-162538285D01*
X23041342Y-162538285D02*
X23136580Y-162585904D01*
X23136580Y-162585904D02*
X23184200Y-162633523D01*
X23184200Y-162633523D02*
X23231819Y-162728761D01*
X23231819Y-162728761D02*
X23231819Y-162966856D01*
X23231819Y-162966856D02*
X23184200Y-163062094D01*
X23184200Y-163062094D02*
X23136580Y-163109713D01*
X28723819Y-168822666D02*
X28247628Y-169155999D01*
X28723819Y-169394094D02*
X27723819Y-169394094D01*
X27723819Y-169394094D02*
X27723819Y-169013142D01*
X27723819Y-169013142D02*
X27771438Y-168917904D01*
X27771438Y-168917904D02*
X27819057Y-168870285D01*
X27819057Y-168870285D02*
X27914295Y-168822666D01*
X27914295Y-168822666D02*
X28057152Y-168822666D01*
X28057152Y-168822666D02*
X28152390Y-168870285D01*
X28152390Y-168870285D02*
X28200009Y-168917904D01*
X28200009Y-168917904D02*
X28247628Y-169013142D01*
X28247628Y-169013142D02*
X28247628Y-169394094D01*
X28057152Y-167965523D02*
X28723819Y-167965523D01*
X27676200Y-168203618D02*
X28390485Y-168441713D01*
X28390485Y-168441713D02*
X28390485Y-167822666D01*
X28719819Y-170727666D02*
X28243628Y-171060999D01*
X28719819Y-171299094D02*
X27719819Y-171299094D01*
X27719819Y-171299094D02*
X27719819Y-170918142D01*
X27719819Y-170918142D02*
X27767438Y-170822904D01*
X27767438Y-170822904D02*
X27815057Y-170775285D01*
X27815057Y-170775285D02*
X27910295Y-170727666D01*
X27910295Y-170727666D02*
X28053152Y-170727666D01*
X28053152Y-170727666D02*
X28148390Y-170775285D01*
X28148390Y-170775285D02*
X28196009Y-170822904D01*
X28196009Y-170822904D02*
X28243628Y-170918142D01*
X28243628Y-170918142D02*
X28243628Y-171299094D01*
X27719819Y-170394332D02*
X27719819Y-169775285D01*
X27719819Y-169775285D02*
X28100771Y-170108618D01*
X28100771Y-170108618D02*
X28100771Y-169965761D01*
X28100771Y-169965761D02*
X28148390Y-169870523D01*
X28148390Y-169870523D02*
X28196009Y-169822904D01*
X28196009Y-169822904D02*
X28291247Y-169775285D01*
X28291247Y-169775285D02*
X28529342Y-169775285D01*
X28529342Y-169775285D02*
X28624580Y-169822904D01*
X28624580Y-169822904D02*
X28672200Y-169870523D01*
X28672200Y-169870523D02*
X28719819Y-169965761D01*
X28719819Y-169965761D02*
X28719819Y-170251475D01*
X28719819Y-170251475D02*
X28672200Y-170346713D01*
X28672200Y-170346713D02*
X28624580Y-170394332D01*
X22000333Y-176095819D02*
X21667000Y-175619628D01*
X21428905Y-176095819D02*
X21428905Y-175095819D01*
X21428905Y-175095819D02*
X21809857Y-175095819D01*
X21809857Y-175095819D02*
X21905095Y-175143438D01*
X21905095Y-175143438D02*
X21952714Y-175191057D01*
X21952714Y-175191057D02*
X22000333Y-175286295D01*
X22000333Y-175286295D02*
X22000333Y-175429152D01*
X22000333Y-175429152D02*
X21952714Y-175524390D01*
X21952714Y-175524390D02*
X21905095Y-175572009D01*
X21905095Y-175572009D02*
X21809857Y-175619628D01*
X21809857Y-175619628D02*
X21428905Y-175619628D01*
X22381286Y-175191057D02*
X22428905Y-175143438D01*
X22428905Y-175143438D02*
X22524143Y-175095819D01*
X22524143Y-175095819D02*
X22762238Y-175095819D01*
X22762238Y-175095819D02*
X22857476Y-175143438D01*
X22857476Y-175143438D02*
X22905095Y-175191057D01*
X22905095Y-175191057D02*
X22952714Y-175286295D01*
X22952714Y-175286295D02*
X22952714Y-175381533D01*
X22952714Y-175381533D02*
X22905095Y-175524390D01*
X22905095Y-175524390D02*
X22333667Y-176095819D01*
X22333667Y-176095819D02*
X22952714Y-176095819D01*
X23201333Y-191462819D02*
X22868000Y-190986628D01*
X22629905Y-191462819D02*
X22629905Y-190462819D01*
X22629905Y-190462819D02*
X23010857Y-190462819D01*
X23010857Y-190462819D02*
X23106095Y-190510438D01*
X23106095Y-190510438D02*
X23153714Y-190558057D01*
X23153714Y-190558057D02*
X23201333Y-190653295D01*
X23201333Y-190653295D02*
X23201333Y-190796152D01*
X23201333Y-190796152D02*
X23153714Y-190891390D01*
X23153714Y-190891390D02*
X23106095Y-190939009D01*
X23106095Y-190939009D02*
X23010857Y-190986628D01*
X23010857Y-190986628D02*
X22629905Y-190986628D01*
X24153714Y-191462819D02*
X23582286Y-191462819D01*
X23868000Y-191462819D02*
X23868000Y-190462819D01*
X23868000Y-190462819D02*
X23772762Y-190605676D01*
X23772762Y-190605676D02*
X23677524Y-190700914D01*
X23677524Y-190700914D02*
X23582286Y-190748533D01*
X18476819Y-161115333D02*
X19191104Y-161115333D01*
X19191104Y-161115333D02*
X19333961Y-161162952D01*
X19333961Y-161162952D02*
X19429200Y-161258190D01*
X19429200Y-161258190D02*
X19476819Y-161401047D01*
X19476819Y-161401047D02*
X19476819Y-161496285D01*
X18572057Y-160686761D02*
X18524438Y-160639142D01*
X18524438Y-160639142D02*
X18476819Y-160543904D01*
X18476819Y-160543904D02*
X18476819Y-160305809D01*
X18476819Y-160305809D02*
X18524438Y-160210571D01*
X18524438Y-160210571D02*
X18572057Y-160162952D01*
X18572057Y-160162952D02*
X18667295Y-160115333D01*
X18667295Y-160115333D02*
X18762533Y-160115333D01*
X18762533Y-160115333D02*
X18905390Y-160162952D01*
X18905390Y-160162952D02*
X19476819Y-160734380D01*
X19476819Y-160734380D02*
X19476819Y-160115333D01*
X16976819Y-193627333D02*
X17691104Y-193627333D01*
X17691104Y-193627333D02*
X17833961Y-193674952D01*
X17833961Y-193674952D02*
X17929200Y-193770190D01*
X17929200Y-193770190D02*
X17976819Y-193913047D01*
X17976819Y-193913047D02*
X17976819Y-194008285D01*
X17976819Y-192627333D02*
X17976819Y-193198761D01*
X17976819Y-192913047D02*
X16976819Y-192913047D01*
X16976819Y-192913047D02*
X17119676Y-193008285D01*
X17119676Y-193008285D02*
X17214914Y-193103523D01*
X17214914Y-193103523D02*
X17262533Y-193198761D01*
X29903009Y-182976833D02*
X29903009Y-183310166D01*
X30426819Y-183310166D02*
X29426819Y-183310166D01*
X29426819Y-183310166D02*
X29426819Y-182833976D01*
X29903009Y-182119690D02*
X29950628Y-181976833D01*
X29950628Y-181976833D02*
X29998247Y-181929214D01*
X29998247Y-181929214D02*
X30093485Y-181881595D01*
X30093485Y-181881595D02*
X30236342Y-181881595D01*
X30236342Y-181881595D02*
X30331580Y-181929214D01*
X30331580Y-181929214D02*
X30379200Y-181976833D01*
X30379200Y-181976833D02*
X30426819Y-182072071D01*
X30426819Y-182072071D02*
X30426819Y-182453023D01*
X30426819Y-182453023D02*
X29426819Y-182453023D01*
X29426819Y-182453023D02*
X29426819Y-182119690D01*
X29426819Y-182119690D02*
X29474438Y-182024452D01*
X29474438Y-182024452D02*
X29522057Y-181976833D01*
X29522057Y-181976833D02*
X29617295Y-181929214D01*
X29617295Y-181929214D02*
X29712533Y-181929214D01*
X29712533Y-181929214D02*
X29807771Y-181976833D01*
X29807771Y-181976833D02*
X29855390Y-182024452D01*
X29855390Y-182024452D02*
X29903009Y-182119690D01*
X29903009Y-182119690D02*
X29903009Y-182453023D01*
X29522057Y-181500642D02*
X29474438Y-181453023D01*
X29474438Y-181453023D02*
X29426819Y-181357785D01*
X29426819Y-181357785D02*
X29426819Y-181119690D01*
X29426819Y-181119690D02*
X29474438Y-181024452D01*
X29474438Y-181024452D02*
X29522057Y-180976833D01*
X29522057Y-180976833D02*
X29617295Y-180929214D01*
X29617295Y-180929214D02*
X29712533Y-180929214D01*
X29712533Y-180929214D02*
X29855390Y-180976833D01*
X29855390Y-180976833D02*
X30426819Y-181548261D01*
X30426819Y-181548261D02*
X30426819Y-180929214D01*
X29903009Y-185999333D02*
X29903009Y-186332666D01*
X30426819Y-186332666D02*
X29426819Y-186332666D01*
X29426819Y-186332666D02*
X29426819Y-185856476D01*
X29903009Y-185142190D02*
X29950628Y-184999333D01*
X29950628Y-184999333D02*
X29998247Y-184951714D01*
X29998247Y-184951714D02*
X30093485Y-184904095D01*
X30093485Y-184904095D02*
X30236342Y-184904095D01*
X30236342Y-184904095D02*
X30331580Y-184951714D01*
X30331580Y-184951714D02*
X30379200Y-184999333D01*
X30379200Y-184999333D02*
X30426819Y-185094571D01*
X30426819Y-185094571D02*
X30426819Y-185475523D01*
X30426819Y-185475523D02*
X29426819Y-185475523D01*
X29426819Y-185475523D02*
X29426819Y-185142190D01*
X29426819Y-185142190D02*
X29474438Y-185046952D01*
X29474438Y-185046952D02*
X29522057Y-184999333D01*
X29522057Y-184999333D02*
X29617295Y-184951714D01*
X29617295Y-184951714D02*
X29712533Y-184951714D01*
X29712533Y-184951714D02*
X29807771Y-184999333D01*
X29807771Y-184999333D02*
X29855390Y-185046952D01*
X29855390Y-185046952D02*
X29903009Y-185142190D01*
X29903009Y-185142190D02*
X29903009Y-185475523D01*
X30426819Y-183951714D02*
X30426819Y-184523142D01*
X30426819Y-184237428D02*
X29426819Y-184237428D01*
X29426819Y-184237428D02*
X29569676Y-184332666D01*
X29569676Y-184332666D02*
X29664914Y-184427904D01*
X29664914Y-184427904D02*
X29712533Y-184523142D01*
X16446142Y-165332580D02*
X16398523Y-165380200D01*
X16398523Y-165380200D02*
X16255666Y-165427819D01*
X16255666Y-165427819D02*
X16160428Y-165427819D01*
X16160428Y-165427819D02*
X16017571Y-165380200D01*
X16017571Y-165380200D02*
X15922333Y-165284961D01*
X15922333Y-165284961D02*
X15874714Y-165189723D01*
X15874714Y-165189723D02*
X15827095Y-164999247D01*
X15827095Y-164999247D02*
X15827095Y-164856390D01*
X15827095Y-164856390D02*
X15874714Y-164665914D01*
X15874714Y-164665914D02*
X15922333Y-164570676D01*
X15922333Y-164570676D02*
X16017571Y-164475438D01*
X16017571Y-164475438D02*
X16160428Y-164427819D01*
X16160428Y-164427819D02*
X16255666Y-164427819D01*
X16255666Y-164427819D02*
X16398523Y-164475438D01*
X16398523Y-164475438D02*
X16446142Y-164523057D01*
X16827095Y-164523057D02*
X16874714Y-164475438D01*
X16874714Y-164475438D02*
X16969952Y-164427819D01*
X16969952Y-164427819D02*
X17208047Y-164427819D01*
X17208047Y-164427819D02*
X17303285Y-164475438D01*
X17303285Y-164475438D02*
X17350904Y-164523057D01*
X17350904Y-164523057D02*
X17398523Y-164618295D01*
X17398523Y-164618295D02*
X17398523Y-164713533D01*
X17398523Y-164713533D02*
X17350904Y-164856390D01*
X17350904Y-164856390D02*
X16779476Y-165427819D01*
X16779476Y-165427819D02*
X17398523Y-165427819D01*
X17779476Y-164523057D02*
X17827095Y-164475438D01*
X17827095Y-164475438D02*
X17922333Y-164427819D01*
X17922333Y-164427819D02*
X18160428Y-164427819D01*
X18160428Y-164427819D02*
X18255666Y-164475438D01*
X18255666Y-164475438D02*
X18303285Y-164523057D01*
X18303285Y-164523057D02*
X18350904Y-164618295D01*
X18350904Y-164618295D02*
X18350904Y-164713533D01*
X18350904Y-164713533D02*
X18303285Y-164856390D01*
X18303285Y-164856390D02*
X17731857Y-165427819D01*
X17731857Y-165427819D02*
X18350904Y-165427819D01*
X26225142Y-166856580D02*
X26177523Y-166904200D01*
X26177523Y-166904200D02*
X26034666Y-166951819D01*
X26034666Y-166951819D02*
X25939428Y-166951819D01*
X25939428Y-166951819D02*
X25796571Y-166904200D01*
X25796571Y-166904200D02*
X25701333Y-166808961D01*
X25701333Y-166808961D02*
X25653714Y-166713723D01*
X25653714Y-166713723D02*
X25606095Y-166523247D01*
X25606095Y-166523247D02*
X25606095Y-166380390D01*
X25606095Y-166380390D02*
X25653714Y-166189914D01*
X25653714Y-166189914D02*
X25701333Y-166094676D01*
X25701333Y-166094676D02*
X25796571Y-165999438D01*
X25796571Y-165999438D02*
X25939428Y-165951819D01*
X25939428Y-165951819D02*
X26034666Y-165951819D01*
X26034666Y-165951819D02*
X26177523Y-165999438D01*
X26177523Y-165999438D02*
X26225142Y-166047057D01*
X26606095Y-166047057D02*
X26653714Y-165999438D01*
X26653714Y-165999438D02*
X26748952Y-165951819D01*
X26748952Y-165951819D02*
X26987047Y-165951819D01*
X26987047Y-165951819D02*
X27082285Y-165999438D01*
X27082285Y-165999438D02*
X27129904Y-166047057D01*
X27129904Y-166047057D02*
X27177523Y-166142295D01*
X27177523Y-166142295D02*
X27177523Y-166237533D01*
X27177523Y-166237533D02*
X27129904Y-166380390D01*
X27129904Y-166380390D02*
X26558476Y-166951819D01*
X26558476Y-166951819D02*
X27177523Y-166951819D01*
X28129904Y-166951819D02*
X27558476Y-166951819D01*
X27844190Y-166951819D02*
X27844190Y-165951819D01*
X27844190Y-165951819D02*
X27748952Y-166094676D01*
X27748952Y-166094676D02*
X27653714Y-166189914D01*
X27653714Y-166189914D02*
X27558476Y-166237533D01*
X19367142Y-165332580D02*
X19319523Y-165380200D01*
X19319523Y-165380200D02*
X19176666Y-165427819D01*
X19176666Y-165427819D02*
X19081428Y-165427819D01*
X19081428Y-165427819D02*
X18938571Y-165380200D01*
X18938571Y-165380200D02*
X18843333Y-165284961D01*
X18843333Y-165284961D02*
X18795714Y-165189723D01*
X18795714Y-165189723D02*
X18748095Y-164999247D01*
X18748095Y-164999247D02*
X18748095Y-164856390D01*
X18748095Y-164856390D02*
X18795714Y-164665914D01*
X18795714Y-164665914D02*
X18843333Y-164570676D01*
X18843333Y-164570676D02*
X18938571Y-164475438D01*
X18938571Y-164475438D02*
X19081428Y-164427819D01*
X19081428Y-164427819D02*
X19176666Y-164427819D01*
X19176666Y-164427819D02*
X19319523Y-164475438D01*
X19319523Y-164475438D02*
X19367142Y-164523057D01*
X19748095Y-164523057D02*
X19795714Y-164475438D01*
X19795714Y-164475438D02*
X19890952Y-164427819D01*
X19890952Y-164427819D02*
X20129047Y-164427819D01*
X20129047Y-164427819D02*
X20224285Y-164475438D01*
X20224285Y-164475438D02*
X20271904Y-164523057D01*
X20271904Y-164523057D02*
X20319523Y-164618295D01*
X20319523Y-164618295D02*
X20319523Y-164713533D01*
X20319523Y-164713533D02*
X20271904Y-164856390D01*
X20271904Y-164856390D02*
X19700476Y-165427819D01*
X19700476Y-165427819D02*
X20319523Y-165427819D01*
X20938571Y-164427819D02*
X21033809Y-164427819D01*
X21033809Y-164427819D02*
X21129047Y-164475438D01*
X21129047Y-164475438D02*
X21176666Y-164523057D01*
X21176666Y-164523057D02*
X21224285Y-164618295D01*
X21224285Y-164618295D02*
X21271904Y-164808771D01*
X21271904Y-164808771D02*
X21271904Y-165046866D01*
X21271904Y-165046866D02*
X21224285Y-165237342D01*
X21224285Y-165237342D02*
X21176666Y-165332580D01*
X21176666Y-165332580D02*
X21129047Y-165380200D01*
X21129047Y-165380200D02*
X21033809Y-165427819D01*
X21033809Y-165427819D02*
X20938571Y-165427819D01*
X20938571Y-165427819D02*
X20843333Y-165380200D01*
X20843333Y-165380200D02*
X20795714Y-165332580D01*
X20795714Y-165332580D02*
X20748095Y-165237342D01*
X20748095Y-165237342D02*
X20700476Y-165046866D01*
X20700476Y-165046866D02*
X20700476Y-164808771D01*
X20700476Y-164808771D02*
X20748095Y-164618295D01*
X20748095Y-164618295D02*
X20795714Y-164523057D01*
X20795714Y-164523057D02*
X20843333Y-164475438D01*
X20843333Y-164475438D02*
X20938571Y-164427819D01*
X22288142Y-165332580D02*
X22240523Y-165380200D01*
X22240523Y-165380200D02*
X22097666Y-165427819D01*
X22097666Y-165427819D02*
X22002428Y-165427819D01*
X22002428Y-165427819D02*
X21859571Y-165380200D01*
X21859571Y-165380200D02*
X21764333Y-165284961D01*
X21764333Y-165284961D02*
X21716714Y-165189723D01*
X21716714Y-165189723D02*
X21669095Y-164999247D01*
X21669095Y-164999247D02*
X21669095Y-164856390D01*
X21669095Y-164856390D02*
X21716714Y-164665914D01*
X21716714Y-164665914D02*
X21764333Y-164570676D01*
X21764333Y-164570676D02*
X21859571Y-164475438D01*
X21859571Y-164475438D02*
X22002428Y-164427819D01*
X22002428Y-164427819D02*
X22097666Y-164427819D01*
X22097666Y-164427819D02*
X22240523Y-164475438D01*
X22240523Y-164475438D02*
X22288142Y-164523057D01*
X23240523Y-165427819D02*
X22669095Y-165427819D01*
X22954809Y-165427819D02*
X22954809Y-164427819D01*
X22954809Y-164427819D02*
X22859571Y-164570676D01*
X22859571Y-164570676D02*
X22764333Y-164665914D01*
X22764333Y-164665914D02*
X22669095Y-164713533D01*
X23716714Y-165427819D02*
X23907190Y-165427819D01*
X23907190Y-165427819D02*
X24002428Y-165380200D01*
X24002428Y-165380200D02*
X24050047Y-165332580D01*
X24050047Y-165332580D02*
X24145285Y-165189723D01*
X24145285Y-165189723D02*
X24192904Y-164999247D01*
X24192904Y-164999247D02*
X24192904Y-164618295D01*
X24192904Y-164618295D02*
X24145285Y-164523057D01*
X24145285Y-164523057D02*
X24097666Y-164475438D01*
X24097666Y-164475438D02*
X24002428Y-164427819D01*
X24002428Y-164427819D02*
X23811952Y-164427819D01*
X23811952Y-164427819D02*
X23716714Y-164475438D01*
X23716714Y-164475438D02*
X23669095Y-164523057D01*
X23669095Y-164523057D02*
X23621476Y-164618295D01*
X23621476Y-164618295D02*
X23621476Y-164856390D01*
X23621476Y-164856390D02*
X23669095Y-164951628D01*
X23669095Y-164951628D02*
X23716714Y-164999247D01*
X23716714Y-164999247D02*
X23811952Y-165046866D01*
X23811952Y-165046866D02*
X24002428Y-165046866D01*
X24002428Y-165046866D02*
X24097666Y-164999247D01*
X24097666Y-164999247D02*
X24145285Y-164951628D01*
X24145285Y-164951628D02*
X24192904Y-164856390D01*
X29833080Y-168282857D02*
X29880700Y-168330476D01*
X29880700Y-168330476D02*
X29928319Y-168473333D01*
X29928319Y-168473333D02*
X29928319Y-168568571D01*
X29928319Y-168568571D02*
X29880700Y-168711428D01*
X29880700Y-168711428D02*
X29785461Y-168806666D01*
X29785461Y-168806666D02*
X29690223Y-168854285D01*
X29690223Y-168854285D02*
X29499747Y-168901904D01*
X29499747Y-168901904D02*
X29356890Y-168901904D01*
X29356890Y-168901904D02*
X29166414Y-168854285D01*
X29166414Y-168854285D02*
X29071176Y-168806666D01*
X29071176Y-168806666D02*
X28975938Y-168711428D01*
X28975938Y-168711428D02*
X28928319Y-168568571D01*
X28928319Y-168568571D02*
X28928319Y-168473333D01*
X28928319Y-168473333D02*
X28975938Y-168330476D01*
X28975938Y-168330476D02*
X29023557Y-168282857D01*
X29928319Y-167330476D02*
X29928319Y-167901904D01*
X29928319Y-167616190D02*
X28928319Y-167616190D01*
X28928319Y-167616190D02*
X29071176Y-167711428D01*
X29071176Y-167711428D02*
X29166414Y-167806666D01*
X29166414Y-167806666D02*
X29214033Y-167901904D01*
X29356890Y-166759047D02*
X29309271Y-166854285D01*
X29309271Y-166854285D02*
X29261652Y-166901904D01*
X29261652Y-166901904D02*
X29166414Y-166949523D01*
X29166414Y-166949523D02*
X29118795Y-166949523D01*
X29118795Y-166949523D02*
X29023557Y-166901904D01*
X29023557Y-166901904D02*
X28975938Y-166854285D01*
X28975938Y-166854285D02*
X28928319Y-166759047D01*
X28928319Y-166759047D02*
X28928319Y-166568571D01*
X28928319Y-166568571D02*
X28975938Y-166473333D01*
X28975938Y-166473333D02*
X29023557Y-166425714D01*
X29023557Y-166425714D02*
X29118795Y-166378095D01*
X29118795Y-166378095D02*
X29166414Y-166378095D01*
X29166414Y-166378095D02*
X29261652Y-166425714D01*
X29261652Y-166425714D02*
X29309271Y-166473333D01*
X29309271Y-166473333D02*
X29356890Y-166568571D01*
X29356890Y-166568571D02*
X29356890Y-166759047D01*
X29356890Y-166759047D02*
X29404509Y-166854285D01*
X29404509Y-166854285D02*
X29452128Y-166901904D01*
X29452128Y-166901904D02*
X29547366Y-166949523D01*
X29547366Y-166949523D02*
X29737842Y-166949523D01*
X29737842Y-166949523D02*
X29833080Y-166901904D01*
X29833080Y-166901904D02*
X29880700Y-166854285D01*
X29880700Y-166854285D02*
X29928319Y-166759047D01*
X29928319Y-166759047D02*
X29928319Y-166568571D01*
X29928319Y-166568571D02*
X29880700Y-166473333D01*
X29880700Y-166473333D02*
X29833080Y-166425714D01*
X29833080Y-166425714D02*
X29737842Y-166378095D01*
X29737842Y-166378095D02*
X29547366Y-166378095D01*
X29547366Y-166378095D02*
X29452128Y-166425714D01*
X29452128Y-166425714D02*
X29404509Y-166473333D01*
X29404509Y-166473333D02*
X29356890Y-166568571D01*
X29894580Y-171076857D02*
X29942200Y-171124476D01*
X29942200Y-171124476D02*
X29989819Y-171267333D01*
X29989819Y-171267333D02*
X29989819Y-171362571D01*
X29989819Y-171362571D02*
X29942200Y-171505428D01*
X29942200Y-171505428D02*
X29846961Y-171600666D01*
X29846961Y-171600666D02*
X29751723Y-171648285D01*
X29751723Y-171648285D02*
X29561247Y-171695904D01*
X29561247Y-171695904D02*
X29418390Y-171695904D01*
X29418390Y-171695904D02*
X29227914Y-171648285D01*
X29227914Y-171648285D02*
X29132676Y-171600666D01*
X29132676Y-171600666D02*
X29037438Y-171505428D01*
X29037438Y-171505428D02*
X28989819Y-171362571D01*
X28989819Y-171362571D02*
X28989819Y-171267333D01*
X28989819Y-171267333D02*
X29037438Y-171124476D01*
X29037438Y-171124476D02*
X29085057Y-171076857D01*
X29989819Y-170124476D02*
X29989819Y-170695904D01*
X29989819Y-170410190D02*
X28989819Y-170410190D01*
X28989819Y-170410190D02*
X29132676Y-170505428D01*
X29132676Y-170505428D02*
X29227914Y-170600666D01*
X29227914Y-170600666D02*
X29275533Y-170695904D01*
X28989819Y-169791142D02*
X28989819Y-169124476D01*
X28989819Y-169124476D02*
X29989819Y-169553047D01*
X26535142Y-175873580D02*
X26487523Y-175921200D01*
X26487523Y-175921200D02*
X26344666Y-175968819D01*
X26344666Y-175968819D02*
X26249428Y-175968819D01*
X26249428Y-175968819D02*
X26106571Y-175921200D01*
X26106571Y-175921200D02*
X26011333Y-175825961D01*
X26011333Y-175825961D02*
X25963714Y-175730723D01*
X25963714Y-175730723D02*
X25916095Y-175540247D01*
X25916095Y-175540247D02*
X25916095Y-175397390D01*
X25916095Y-175397390D02*
X25963714Y-175206914D01*
X25963714Y-175206914D02*
X26011333Y-175111676D01*
X26011333Y-175111676D02*
X26106571Y-175016438D01*
X26106571Y-175016438D02*
X26249428Y-174968819D01*
X26249428Y-174968819D02*
X26344666Y-174968819D01*
X26344666Y-174968819D02*
X26487523Y-175016438D01*
X26487523Y-175016438D02*
X26535142Y-175064057D01*
X27487523Y-175968819D02*
X26916095Y-175968819D01*
X27201809Y-175968819D02*
X27201809Y-174968819D01*
X27201809Y-174968819D02*
X27106571Y-175111676D01*
X27106571Y-175111676D02*
X27011333Y-175206914D01*
X27011333Y-175206914D02*
X26916095Y-175254533D01*
X28344666Y-174968819D02*
X28154190Y-174968819D01*
X28154190Y-174968819D02*
X28058952Y-175016438D01*
X28058952Y-175016438D02*
X28011333Y-175064057D01*
X28011333Y-175064057D02*
X27916095Y-175206914D01*
X27916095Y-175206914D02*
X27868476Y-175397390D01*
X27868476Y-175397390D02*
X27868476Y-175778342D01*
X27868476Y-175778342D02*
X27916095Y-175873580D01*
X27916095Y-175873580D02*
X27963714Y-175921200D01*
X27963714Y-175921200D02*
X28058952Y-175968819D01*
X28058952Y-175968819D02*
X28249428Y-175968819D01*
X28249428Y-175968819D02*
X28344666Y-175921200D01*
X28344666Y-175921200D02*
X28392285Y-175873580D01*
X28392285Y-175873580D02*
X28439904Y-175778342D01*
X28439904Y-175778342D02*
X28439904Y-175540247D01*
X28439904Y-175540247D02*
X28392285Y-175445009D01*
X28392285Y-175445009D02*
X28344666Y-175397390D01*
X28344666Y-175397390D02*
X28249428Y-175349771D01*
X28249428Y-175349771D02*
X28058952Y-175349771D01*
X28058952Y-175349771D02*
X27963714Y-175397390D01*
X27963714Y-175397390D02*
X27916095Y-175445009D01*
X27916095Y-175445009D02*
X27868476Y-175540247D01*
X27876142Y-172825580D02*
X27828523Y-172873200D01*
X27828523Y-172873200D02*
X27685666Y-172920819D01*
X27685666Y-172920819D02*
X27590428Y-172920819D01*
X27590428Y-172920819D02*
X27447571Y-172873200D01*
X27447571Y-172873200D02*
X27352333Y-172777961D01*
X27352333Y-172777961D02*
X27304714Y-172682723D01*
X27304714Y-172682723D02*
X27257095Y-172492247D01*
X27257095Y-172492247D02*
X27257095Y-172349390D01*
X27257095Y-172349390D02*
X27304714Y-172158914D01*
X27304714Y-172158914D02*
X27352333Y-172063676D01*
X27352333Y-172063676D02*
X27447571Y-171968438D01*
X27447571Y-171968438D02*
X27590428Y-171920819D01*
X27590428Y-171920819D02*
X27685666Y-171920819D01*
X27685666Y-171920819D02*
X27828523Y-171968438D01*
X27828523Y-171968438D02*
X27876142Y-172016057D01*
X28828523Y-172920819D02*
X28257095Y-172920819D01*
X28542809Y-172920819D02*
X28542809Y-171920819D01*
X28542809Y-171920819D02*
X28447571Y-172063676D01*
X28447571Y-172063676D02*
X28352333Y-172158914D01*
X28352333Y-172158914D02*
X28257095Y-172206533D01*
X29733285Y-171920819D02*
X29257095Y-171920819D01*
X29257095Y-171920819D02*
X29209476Y-172397009D01*
X29209476Y-172397009D02*
X29257095Y-172349390D01*
X29257095Y-172349390D02*
X29352333Y-172301771D01*
X29352333Y-172301771D02*
X29590428Y-172301771D01*
X29590428Y-172301771D02*
X29685666Y-172349390D01*
X29685666Y-172349390D02*
X29733285Y-172397009D01*
X29733285Y-172397009D02*
X29780904Y-172492247D01*
X29780904Y-172492247D02*
X29780904Y-172730342D01*
X29780904Y-172730342D02*
X29733285Y-172825580D01*
X29733285Y-172825580D02*
X29685666Y-172873200D01*
X29685666Y-172873200D02*
X29590428Y-172920819D01*
X29590428Y-172920819D02*
X29352333Y-172920819D01*
X29352333Y-172920819D02*
X29257095Y-172873200D01*
X29257095Y-172873200D02*
X29209476Y-172825580D01*
X28003142Y-174250580D02*
X27955523Y-174298200D01*
X27955523Y-174298200D02*
X27812666Y-174345819D01*
X27812666Y-174345819D02*
X27717428Y-174345819D01*
X27717428Y-174345819D02*
X27574571Y-174298200D01*
X27574571Y-174298200D02*
X27479333Y-174202961D01*
X27479333Y-174202961D02*
X27431714Y-174107723D01*
X27431714Y-174107723D02*
X27384095Y-173917247D01*
X27384095Y-173917247D02*
X27384095Y-173774390D01*
X27384095Y-173774390D02*
X27431714Y-173583914D01*
X27431714Y-173583914D02*
X27479333Y-173488676D01*
X27479333Y-173488676D02*
X27574571Y-173393438D01*
X27574571Y-173393438D02*
X27717428Y-173345819D01*
X27717428Y-173345819D02*
X27812666Y-173345819D01*
X27812666Y-173345819D02*
X27955523Y-173393438D01*
X27955523Y-173393438D02*
X28003142Y-173441057D01*
X28955523Y-174345819D02*
X28384095Y-174345819D01*
X28669809Y-174345819D02*
X28669809Y-173345819D01*
X28669809Y-173345819D02*
X28574571Y-173488676D01*
X28574571Y-173488676D02*
X28479333Y-173583914D01*
X28479333Y-173583914D02*
X28384095Y-173631533D01*
X29812666Y-173679152D02*
X29812666Y-174345819D01*
X29574571Y-173298200D02*
X29336476Y-174012485D01*
X29336476Y-174012485D02*
X29955523Y-174012485D01*
X19423142Y-177524580D02*
X19375523Y-177572200D01*
X19375523Y-177572200D02*
X19232666Y-177619819D01*
X19232666Y-177619819D02*
X19137428Y-177619819D01*
X19137428Y-177619819D02*
X18994571Y-177572200D01*
X18994571Y-177572200D02*
X18899333Y-177476961D01*
X18899333Y-177476961D02*
X18851714Y-177381723D01*
X18851714Y-177381723D02*
X18804095Y-177191247D01*
X18804095Y-177191247D02*
X18804095Y-177048390D01*
X18804095Y-177048390D02*
X18851714Y-176857914D01*
X18851714Y-176857914D02*
X18899333Y-176762676D01*
X18899333Y-176762676D02*
X18994571Y-176667438D01*
X18994571Y-176667438D02*
X19137428Y-176619819D01*
X19137428Y-176619819D02*
X19232666Y-176619819D01*
X19232666Y-176619819D02*
X19375523Y-176667438D01*
X19375523Y-176667438D02*
X19423142Y-176715057D01*
X20375523Y-177619819D02*
X19804095Y-177619819D01*
X20089809Y-177619819D02*
X20089809Y-176619819D01*
X20089809Y-176619819D02*
X19994571Y-176762676D01*
X19994571Y-176762676D02*
X19899333Y-176857914D01*
X19899333Y-176857914D02*
X19804095Y-176905533D01*
X20708857Y-176619819D02*
X21327904Y-176619819D01*
X21327904Y-176619819D02*
X20994571Y-177000771D01*
X20994571Y-177000771D02*
X21137428Y-177000771D01*
X21137428Y-177000771D02*
X21232666Y-177048390D01*
X21232666Y-177048390D02*
X21280285Y-177096009D01*
X21280285Y-177096009D02*
X21327904Y-177191247D01*
X21327904Y-177191247D02*
X21327904Y-177429342D01*
X21327904Y-177429342D02*
X21280285Y-177524580D01*
X21280285Y-177524580D02*
X21232666Y-177572200D01*
X21232666Y-177572200D02*
X21137428Y-177619819D01*
X21137428Y-177619819D02*
X20851714Y-177619819D01*
X20851714Y-177619819D02*
X20756476Y-177572200D01*
X20756476Y-177572200D02*
X20708857Y-177524580D01*
X22344142Y-177524580D02*
X22296523Y-177572200D01*
X22296523Y-177572200D02*
X22153666Y-177619819D01*
X22153666Y-177619819D02*
X22058428Y-177619819D01*
X22058428Y-177619819D02*
X21915571Y-177572200D01*
X21915571Y-177572200D02*
X21820333Y-177476961D01*
X21820333Y-177476961D02*
X21772714Y-177381723D01*
X21772714Y-177381723D02*
X21725095Y-177191247D01*
X21725095Y-177191247D02*
X21725095Y-177048390D01*
X21725095Y-177048390D02*
X21772714Y-176857914D01*
X21772714Y-176857914D02*
X21820333Y-176762676D01*
X21820333Y-176762676D02*
X21915571Y-176667438D01*
X21915571Y-176667438D02*
X22058428Y-176619819D01*
X22058428Y-176619819D02*
X22153666Y-176619819D01*
X22153666Y-176619819D02*
X22296523Y-176667438D01*
X22296523Y-176667438D02*
X22344142Y-176715057D01*
X23296523Y-177619819D02*
X22725095Y-177619819D01*
X23010809Y-177619819D02*
X23010809Y-176619819D01*
X23010809Y-176619819D02*
X22915571Y-176762676D01*
X22915571Y-176762676D02*
X22820333Y-176857914D01*
X22820333Y-176857914D02*
X22725095Y-176905533D01*
X23677476Y-176715057D02*
X23725095Y-176667438D01*
X23725095Y-176667438D02*
X23820333Y-176619819D01*
X23820333Y-176619819D02*
X24058428Y-176619819D01*
X24058428Y-176619819D02*
X24153666Y-176667438D01*
X24153666Y-176667438D02*
X24201285Y-176715057D01*
X24201285Y-176715057D02*
X24248904Y-176810295D01*
X24248904Y-176810295D02*
X24248904Y-176905533D01*
X24248904Y-176905533D02*
X24201285Y-177048390D01*
X24201285Y-177048390D02*
X23629857Y-177619819D01*
X23629857Y-177619819D02*
X24248904Y-177619819D01*
X16742580Y-173743857D02*
X16790200Y-173791476D01*
X16790200Y-173791476D02*
X16837819Y-173934333D01*
X16837819Y-173934333D02*
X16837819Y-174029571D01*
X16837819Y-174029571D02*
X16790200Y-174172428D01*
X16790200Y-174172428D02*
X16694961Y-174267666D01*
X16694961Y-174267666D02*
X16599723Y-174315285D01*
X16599723Y-174315285D02*
X16409247Y-174362904D01*
X16409247Y-174362904D02*
X16266390Y-174362904D01*
X16266390Y-174362904D02*
X16075914Y-174315285D01*
X16075914Y-174315285D02*
X15980676Y-174267666D01*
X15980676Y-174267666D02*
X15885438Y-174172428D01*
X15885438Y-174172428D02*
X15837819Y-174029571D01*
X15837819Y-174029571D02*
X15837819Y-173934333D01*
X15837819Y-173934333D02*
X15885438Y-173791476D01*
X15885438Y-173791476D02*
X15933057Y-173743857D01*
X16837819Y-172791476D02*
X16837819Y-173362904D01*
X16837819Y-173077190D02*
X15837819Y-173077190D01*
X15837819Y-173077190D02*
X15980676Y-173172428D01*
X15980676Y-173172428D02*
X16075914Y-173267666D01*
X16075914Y-173267666D02*
X16123533Y-173362904D01*
X16837819Y-171839095D02*
X16837819Y-172410523D01*
X16837819Y-172124809D02*
X15837819Y-172124809D01*
X15837819Y-172124809D02*
X15980676Y-172220047D01*
X15980676Y-172220047D02*
X16075914Y-172315285D01*
X16075914Y-172315285D02*
X16123533Y-172410523D01*
X23780333Y-167982580D02*
X23732714Y-168030200D01*
X23732714Y-168030200D02*
X23589857Y-168077819D01*
X23589857Y-168077819D02*
X23494619Y-168077819D01*
X23494619Y-168077819D02*
X23351762Y-168030200D01*
X23351762Y-168030200D02*
X23256524Y-167934961D01*
X23256524Y-167934961D02*
X23208905Y-167839723D01*
X23208905Y-167839723D02*
X23161286Y-167649247D01*
X23161286Y-167649247D02*
X23161286Y-167506390D01*
X23161286Y-167506390D02*
X23208905Y-167315914D01*
X23208905Y-167315914D02*
X23256524Y-167220676D01*
X23256524Y-167220676D02*
X23351762Y-167125438D01*
X23351762Y-167125438D02*
X23494619Y-167077819D01*
X23494619Y-167077819D02*
X23589857Y-167077819D01*
X23589857Y-167077819D02*
X23732714Y-167125438D01*
X23732714Y-167125438D02*
X23780333Y-167173057D01*
X24256524Y-168077819D02*
X24447000Y-168077819D01*
X24447000Y-168077819D02*
X24542238Y-168030200D01*
X24542238Y-168030200D02*
X24589857Y-167982580D01*
X24589857Y-167982580D02*
X24685095Y-167839723D01*
X24685095Y-167839723D02*
X24732714Y-167649247D01*
X24732714Y-167649247D02*
X24732714Y-167268295D01*
X24732714Y-167268295D02*
X24685095Y-167173057D01*
X24685095Y-167173057D02*
X24637476Y-167125438D01*
X24637476Y-167125438D02*
X24542238Y-167077819D01*
X24542238Y-167077819D02*
X24351762Y-167077819D01*
X24351762Y-167077819D02*
X24256524Y-167125438D01*
X24256524Y-167125438D02*
X24208905Y-167173057D01*
X24208905Y-167173057D02*
X24161286Y-167268295D01*
X24161286Y-167268295D02*
X24161286Y-167506390D01*
X24161286Y-167506390D02*
X24208905Y-167601628D01*
X24208905Y-167601628D02*
X24256524Y-167649247D01*
X24256524Y-167649247D02*
X24351762Y-167696866D01*
X24351762Y-167696866D02*
X24542238Y-167696866D01*
X24542238Y-167696866D02*
X24637476Y-167649247D01*
X24637476Y-167649247D02*
X24685095Y-167601628D01*
X24685095Y-167601628D02*
X24732714Y-167506390D01*
X17994333Y-174984580D02*
X17946714Y-175032200D01*
X17946714Y-175032200D02*
X17803857Y-175079819D01*
X17803857Y-175079819D02*
X17708619Y-175079819D01*
X17708619Y-175079819D02*
X17565762Y-175032200D01*
X17565762Y-175032200D02*
X17470524Y-174936961D01*
X17470524Y-174936961D02*
X17422905Y-174841723D01*
X17422905Y-174841723D02*
X17375286Y-174651247D01*
X17375286Y-174651247D02*
X17375286Y-174508390D01*
X17375286Y-174508390D02*
X17422905Y-174317914D01*
X17422905Y-174317914D02*
X17470524Y-174222676D01*
X17470524Y-174222676D02*
X17565762Y-174127438D01*
X17565762Y-174127438D02*
X17708619Y-174079819D01*
X17708619Y-174079819D02*
X17803857Y-174079819D01*
X17803857Y-174079819D02*
X17946714Y-174127438D01*
X17946714Y-174127438D02*
X17994333Y-174175057D01*
X18565762Y-174508390D02*
X18470524Y-174460771D01*
X18470524Y-174460771D02*
X18422905Y-174413152D01*
X18422905Y-174413152D02*
X18375286Y-174317914D01*
X18375286Y-174317914D02*
X18375286Y-174270295D01*
X18375286Y-174270295D02*
X18422905Y-174175057D01*
X18422905Y-174175057D02*
X18470524Y-174127438D01*
X18470524Y-174127438D02*
X18565762Y-174079819D01*
X18565762Y-174079819D02*
X18756238Y-174079819D01*
X18756238Y-174079819D02*
X18851476Y-174127438D01*
X18851476Y-174127438D02*
X18899095Y-174175057D01*
X18899095Y-174175057D02*
X18946714Y-174270295D01*
X18946714Y-174270295D02*
X18946714Y-174317914D01*
X18946714Y-174317914D02*
X18899095Y-174413152D01*
X18899095Y-174413152D02*
X18851476Y-174460771D01*
X18851476Y-174460771D02*
X18756238Y-174508390D01*
X18756238Y-174508390D02*
X18565762Y-174508390D01*
X18565762Y-174508390D02*
X18470524Y-174556009D01*
X18470524Y-174556009D02*
X18422905Y-174603628D01*
X18422905Y-174603628D02*
X18375286Y-174698866D01*
X18375286Y-174698866D02*
X18375286Y-174889342D01*
X18375286Y-174889342D02*
X18422905Y-174984580D01*
X18422905Y-174984580D02*
X18470524Y-175032200D01*
X18470524Y-175032200D02*
X18565762Y-175079819D01*
X18565762Y-175079819D02*
X18756238Y-175079819D01*
X18756238Y-175079819D02*
X18851476Y-175032200D01*
X18851476Y-175032200D02*
X18899095Y-174984580D01*
X18899095Y-174984580D02*
X18946714Y-174889342D01*
X18946714Y-174889342D02*
X18946714Y-174698866D01*
X18946714Y-174698866D02*
X18899095Y-174603628D01*
X18899095Y-174603628D02*
X18851476Y-174556009D01*
X18851476Y-174556009D02*
X18756238Y-174508390D01*
X16033333Y-171428580D02*
X15985714Y-171476200D01*
X15985714Y-171476200D02*
X15842857Y-171523819D01*
X15842857Y-171523819D02*
X15747619Y-171523819D01*
X15747619Y-171523819D02*
X15604762Y-171476200D01*
X15604762Y-171476200D02*
X15509524Y-171380961D01*
X15509524Y-171380961D02*
X15461905Y-171285723D01*
X15461905Y-171285723D02*
X15414286Y-171095247D01*
X15414286Y-171095247D02*
X15414286Y-170952390D01*
X15414286Y-170952390D02*
X15461905Y-170761914D01*
X15461905Y-170761914D02*
X15509524Y-170666676D01*
X15509524Y-170666676D02*
X15604762Y-170571438D01*
X15604762Y-170571438D02*
X15747619Y-170523819D01*
X15747619Y-170523819D02*
X15842857Y-170523819D01*
X15842857Y-170523819D02*
X15985714Y-170571438D01*
X15985714Y-170571438D02*
X16033333Y-170619057D01*
X16366667Y-170523819D02*
X17033333Y-170523819D01*
X17033333Y-170523819D02*
X16604762Y-171523819D01*
X16978333Y-176381580D02*
X16930714Y-176429200D01*
X16930714Y-176429200D02*
X16787857Y-176476819D01*
X16787857Y-176476819D02*
X16692619Y-176476819D01*
X16692619Y-176476819D02*
X16549762Y-176429200D01*
X16549762Y-176429200D02*
X16454524Y-176333961D01*
X16454524Y-176333961D02*
X16406905Y-176238723D01*
X16406905Y-176238723D02*
X16359286Y-176048247D01*
X16359286Y-176048247D02*
X16359286Y-175905390D01*
X16359286Y-175905390D02*
X16406905Y-175714914D01*
X16406905Y-175714914D02*
X16454524Y-175619676D01*
X16454524Y-175619676D02*
X16549762Y-175524438D01*
X16549762Y-175524438D02*
X16692619Y-175476819D01*
X16692619Y-175476819D02*
X16787857Y-175476819D01*
X16787857Y-175476819D02*
X16930714Y-175524438D01*
X16930714Y-175524438D02*
X16978333Y-175572057D01*
X17835476Y-175476819D02*
X17645000Y-175476819D01*
X17645000Y-175476819D02*
X17549762Y-175524438D01*
X17549762Y-175524438D02*
X17502143Y-175572057D01*
X17502143Y-175572057D02*
X17406905Y-175714914D01*
X17406905Y-175714914D02*
X17359286Y-175905390D01*
X17359286Y-175905390D02*
X17359286Y-176286342D01*
X17359286Y-176286342D02*
X17406905Y-176381580D01*
X17406905Y-176381580D02*
X17454524Y-176429200D01*
X17454524Y-176429200D02*
X17549762Y-176476819D01*
X17549762Y-176476819D02*
X17740238Y-176476819D01*
X17740238Y-176476819D02*
X17835476Y-176429200D01*
X17835476Y-176429200D02*
X17883095Y-176381580D01*
X17883095Y-176381580D02*
X17930714Y-176286342D01*
X17930714Y-176286342D02*
X17930714Y-176048247D01*
X17930714Y-176048247D02*
X17883095Y-175953009D01*
X17883095Y-175953009D02*
X17835476Y-175905390D01*
X17835476Y-175905390D02*
X17740238Y-175857771D01*
X17740238Y-175857771D02*
X17549762Y-175857771D01*
X17549762Y-175857771D02*
X17454524Y-175905390D01*
X17454524Y-175905390D02*
X17406905Y-175953009D01*
X17406905Y-175953009D02*
X17359286Y-176048247D01*
X16160333Y-170158580D02*
X16112714Y-170206200D01*
X16112714Y-170206200D02*
X15969857Y-170253819D01*
X15969857Y-170253819D02*
X15874619Y-170253819D01*
X15874619Y-170253819D02*
X15731762Y-170206200D01*
X15731762Y-170206200D02*
X15636524Y-170110961D01*
X15636524Y-170110961D02*
X15588905Y-170015723D01*
X15588905Y-170015723D02*
X15541286Y-169825247D01*
X15541286Y-169825247D02*
X15541286Y-169682390D01*
X15541286Y-169682390D02*
X15588905Y-169491914D01*
X15588905Y-169491914D02*
X15636524Y-169396676D01*
X15636524Y-169396676D02*
X15731762Y-169301438D01*
X15731762Y-169301438D02*
X15874619Y-169253819D01*
X15874619Y-169253819D02*
X15969857Y-169253819D01*
X15969857Y-169253819D02*
X16112714Y-169301438D01*
X16112714Y-169301438D02*
X16160333Y-169349057D01*
X17065095Y-169253819D02*
X16588905Y-169253819D01*
X16588905Y-169253819D02*
X16541286Y-169730009D01*
X16541286Y-169730009D02*
X16588905Y-169682390D01*
X16588905Y-169682390D02*
X16684143Y-169634771D01*
X16684143Y-169634771D02*
X16922238Y-169634771D01*
X16922238Y-169634771D02*
X17017476Y-169682390D01*
X17017476Y-169682390D02*
X17065095Y-169730009D01*
X17065095Y-169730009D02*
X17112714Y-169825247D01*
X17112714Y-169825247D02*
X17112714Y-170063342D01*
X17112714Y-170063342D02*
X17065095Y-170158580D01*
X17065095Y-170158580D02*
X17017476Y-170206200D01*
X17017476Y-170206200D02*
X16922238Y-170253819D01*
X16922238Y-170253819D02*
X16684143Y-170253819D01*
X16684143Y-170253819D02*
X16588905Y-170206200D01*
X16588905Y-170206200D02*
X16541286Y-170158580D01*
X17194580Y-168314666D02*
X17242200Y-168362285D01*
X17242200Y-168362285D02*
X17289819Y-168505142D01*
X17289819Y-168505142D02*
X17289819Y-168600380D01*
X17289819Y-168600380D02*
X17242200Y-168743237D01*
X17242200Y-168743237D02*
X17146961Y-168838475D01*
X17146961Y-168838475D02*
X17051723Y-168886094D01*
X17051723Y-168886094D02*
X16861247Y-168933713D01*
X16861247Y-168933713D02*
X16718390Y-168933713D01*
X16718390Y-168933713D02*
X16527914Y-168886094D01*
X16527914Y-168886094D02*
X16432676Y-168838475D01*
X16432676Y-168838475D02*
X16337438Y-168743237D01*
X16337438Y-168743237D02*
X16289819Y-168600380D01*
X16289819Y-168600380D02*
X16289819Y-168505142D01*
X16289819Y-168505142D02*
X16337438Y-168362285D01*
X16337438Y-168362285D02*
X16385057Y-168314666D01*
X16623152Y-167457523D02*
X17289819Y-167457523D01*
X16242200Y-167695618D02*
X16956485Y-167933713D01*
X16956485Y-167933713D02*
X16956485Y-167314666D01*
X29297333Y-191113580D02*
X29249714Y-191161200D01*
X29249714Y-191161200D02*
X29106857Y-191208819D01*
X29106857Y-191208819D02*
X29011619Y-191208819D01*
X29011619Y-191208819D02*
X28868762Y-191161200D01*
X28868762Y-191161200D02*
X28773524Y-191065961D01*
X28773524Y-191065961D02*
X28725905Y-190970723D01*
X28725905Y-190970723D02*
X28678286Y-190780247D01*
X28678286Y-190780247D02*
X28678286Y-190637390D01*
X28678286Y-190637390D02*
X28725905Y-190446914D01*
X28725905Y-190446914D02*
X28773524Y-190351676D01*
X28773524Y-190351676D02*
X28868762Y-190256438D01*
X28868762Y-190256438D02*
X29011619Y-190208819D01*
X29011619Y-190208819D02*
X29106857Y-190208819D01*
X29106857Y-190208819D02*
X29249714Y-190256438D01*
X29249714Y-190256438D02*
X29297333Y-190304057D01*
X29630667Y-190208819D02*
X30249714Y-190208819D01*
X30249714Y-190208819D02*
X29916381Y-190589771D01*
X29916381Y-190589771D02*
X30059238Y-190589771D01*
X30059238Y-190589771D02*
X30154476Y-190637390D01*
X30154476Y-190637390D02*
X30202095Y-190685009D01*
X30202095Y-190685009D02*
X30249714Y-190780247D01*
X30249714Y-190780247D02*
X30249714Y-191018342D01*
X30249714Y-191018342D02*
X30202095Y-191113580D01*
X30202095Y-191113580D02*
X30154476Y-191161200D01*
X30154476Y-191161200D02*
X30059238Y-191208819D01*
X30059238Y-191208819D02*
X29773524Y-191208819D01*
X29773524Y-191208819D02*
X29678286Y-191161200D01*
X29678286Y-191161200D02*
X29630667Y-191113580D01*
X19010333Y-191494580D02*
X18962714Y-191542200D01*
X18962714Y-191542200D02*
X18819857Y-191589819D01*
X18819857Y-191589819D02*
X18724619Y-191589819D01*
X18724619Y-191589819D02*
X18581762Y-191542200D01*
X18581762Y-191542200D02*
X18486524Y-191446961D01*
X18486524Y-191446961D02*
X18438905Y-191351723D01*
X18438905Y-191351723D02*
X18391286Y-191161247D01*
X18391286Y-191161247D02*
X18391286Y-191018390D01*
X18391286Y-191018390D02*
X18438905Y-190827914D01*
X18438905Y-190827914D02*
X18486524Y-190732676D01*
X18486524Y-190732676D02*
X18581762Y-190637438D01*
X18581762Y-190637438D02*
X18724619Y-190589819D01*
X18724619Y-190589819D02*
X18819857Y-190589819D01*
X18819857Y-190589819D02*
X18962714Y-190637438D01*
X18962714Y-190637438D02*
X19010333Y-190685057D01*
X19391286Y-190685057D02*
X19438905Y-190637438D01*
X19438905Y-190637438D02*
X19534143Y-190589819D01*
X19534143Y-190589819D02*
X19772238Y-190589819D01*
X19772238Y-190589819D02*
X19867476Y-190637438D01*
X19867476Y-190637438D02*
X19915095Y-190685057D01*
X19915095Y-190685057D02*
X19962714Y-190780295D01*
X19962714Y-190780295D02*
X19962714Y-190875533D01*
X19962714Y-190875533D02*
X19915095Y-191018390D01*
X19915095Y-191018390D02*
X19343667Y-191589819D01*
X19343667Y-191589819D02*
X19962714Y-191589819D01*
X27252333Y-194161580D02*
X27204714Y-194209200D01*
X27204714Y-194209200D02*
X27061857Y-194256819D01*
X27061857Y-194256819D02*
X26966619Y-194256819D01*
X26966619Y-194256819D02*
X26823762Y-194209200D01*
X26823762Y-194209200D02*
X26728524Y-194113961D01*
X26728524Y-194113961D02*
X26680905Y-194018723D01*
X26680905Y-194018723D02*
X26633286Y-193828247D01*
X26633286Y-193828247D02*
X26633286Y-193685390D01*
X26633286Y-193685390D02*
X26680905Y-193494914D01*
X26680905Y-193494914D02*
X26728524Y-193399676D01*
X26728524Y-193399676D02*
X26823762Y-193304438D01*
X26823762Y-193304438D02*
X26966619Y-193256819D01*
X26966619Y-193256819D02*
X27061857Y-193256819D01*
X27061857Y-193256819D02*
X27204714Y-193304438D01*
X27204714Y-193304438D02*
X27252333Y-193352057D01*
X28204714Y-194256819D02*
X27633286Y-194256819D01*
X27919000Y-194256819D02*
X27919000Y-193256819D01*
X27919000Y-193256819D02*
X27823762Y-193399676D01*
X27823762Y-193399676D02*
X27728524Y-193494914D01*
X27728524Y-193494914D02*
X27633286Y-193542533D01*
D11*
X23818000Y-170019500D02*
X23928000Y-170019500D01*
X19948000Y-170019500D02*
X20298000Y-170019500D01*
X19948000Y-170369500D02*
X19948000Y-170019500D01*
X24168000Y-173889500D02*
X24168000Y-174239500D01*
X19948000Y-173889500D02*
X19948000Y-174239500D01*
X24168000Y-174239500D02*
X23818000Y-174239500D01*
X19948000Y-174239500D02*
X20298000Y-174239500D01*
X24498000Y-170259500D02*
X24168000Y-170019500D01*
X24498000Y-169779500D01*
X24498000Y-170259500D01*
G36*
X24498000Y-170259500D02*
G01*
X24168000Y-170019500D01*
X24498000Y-169779500D01*
X24498000Y-170259500D01*
G37*
X20283164Y-169143000D02*
X20498836Y-169143000D01*
X20283164Y-168423000D02*
X20498836Y-168423000D01*
X15842000Y-188010000D02*
X16077000Y-188010000D01*
X28862000Y-188010000D02*
X28627000Y-188010000D01*
X15842000Y-184150000D02*
X15842000Y-188010000D01*
X15842000Y-184150000D02*
X15842000Y-180290000D01*
X28862000Y-184150000D02*
X28862000Y-188010000D01*
X28862000Y-184150000D02*
X28862000Y-180290000D01*
X15842000Y-180290000D02*
X16077000Y-180290000D01*
X28862000Y-180290000D02*
X28627000Y-180290000D01*
X16077000Y-188862500D02*
X15607000Y-189202500D01*
X15607000Y-188522500D01*
X16077000Y-188862500D01*
G36*
X16077000Y-188862500D02*
G01*
X15607000Y-189202500D01*
X15607000Y-188522500D01*
X16077000Y-188862500D01*
G37*
X19374000Y-163477641D02*
X19374000Y-163170359D01*
X18614000Y-163477641D02*
X18614000Y-163170359D01*
X26740000Y-163477641D02*
X26740000Y-163170359D01*
X25980000Y-163477641D02*
X25980000Y-163170359D01*
X21787000Y-163477641D02*
X21787000Y-163170359D01*
X21027000Y-163477641D02*
X21027000Y-163170359D01*
X24327000Y-163477641D02*
X24327000Y-163170359D01*
X23567000Y-163477641D02*
X23567000Y-163170359D01*
X26363000Y-168934641D02*
X26363000Y-168627359D01*
X25603000Y-168934641D02*
X25603000Y-168627359D01*
X26359000Y-170867641D02*
X26359000Y-170560359D01*
X25599000Y-170867641D02*
X25599000Y-170560359D01*
X23920359Y-175134000D02*
X24227641Y-175134000D01*
X23920359Y-175894000D02*
X24227641Y-175894000D01*
X25551641Y-191134000D02*
X25244359Y-191134000D01*
X25551641Y-190374000D02*
X25244359Y-190374000D01*
X21267000Y-160087000D02*
X25142000Y-160087000D01*
X21267000Y-160173724D02*
X21267000Y-160087000D01*
X25142000Y-160387507D02*
X25142000Y-160087000D01*
X25142000Y-161477000D02*
X25142000Y-161176493D01*
X21267000Y-161477000D02*
X21267000Y-161390276D01*
X21267000Y-161477000D02*
X25142000Y-161477000D01*
X20582000Y-161477000D02*
X19897000Y-161477000D01*
X19897000Y-161477000D02*
X19897000Y-160782000D01*
X18397000Y-193989000D02*
X18397000Y-193294000D01*
X19082000Y-193989000D02*
X18397000Y-193989000D01*
X19767000Y-193989000D02*
X24642000Y-193989000D01*
X19767000Y-193989000D02*
X19767000Y-193902276D01*
X24642000Y-193989000D02*
X24642000Y-193688493D01*
X24642000Y-192899507D02*
X24642000Y-192599000D01*
X19767000Y-192685724D02*
X19767000Y-192599000D01*
X19767000Y-192599000D02*
X24642000Y-192599000D01*
X29335000Y-176184779D02*
X29335000Y-175859221D01*
X30355000Y-176184779D02*
X30355000Y-175859221D01*
X30355000Y-179262721D02*
X30355000Y-179588279D01*
X29335000Y-179262721D02*
X29335000Y-179588279D01*
X17958836Y-165756000D02*
X17743164Y-165756000D01*
X17958836Y-166476000D02*
X17743164Y-166476000D01*
X24319164Y-166476000D02*
X24534836Y-166476000D01*
X24319164Y-165756000D02*
X24534836Y-165756000D01*
X20145836Y-165756000D02*
X19930164Y-165756000D01*
X20145836Y-166476000D02*
X19930164Y-166476000D01*
X22304836Y-165756000D02*
X22089164Y-165756000D01*
X22304836Y-166476000D02*
X22089164Y-166476000D01*
X26766000Y-168914836D02*
X26766000Y-168699164D01*
X27486000Y-168914836D02*
X27486000Y-168699164D01*
X26635000Y-170795836D02*
X26635000Y-170580164D01*
X27355000Y-170795836D02*
X27355000Y-170580164D01*
X25238000Y-173744836D02*
X25238000Y-173529164D01*
X25958000Y-173744836D02*
X25958000Y-173529164D01*
X25998164Y-172572000D02*
X26213836Y-172572000D01*
X25998164Y-171852000D02*
X26213836Y-171852000D01*
X26974000Y-173744836D02*
X26974000Y-173529164D01*
X26254000Y-173744836D02*
X26254000Y-173529164D01*
X25907420Y-176655000D02*
X26188580Y-176655000D01*
X25907420Y-177675000D02*
X26188580Y-177675000D01*
X28554000Y-177057164D02*
X28554000Y-177272836D01*
X27834000Y-177057164D02*
X27834000Y-177272836D01*
X18311836Y-171979000D02*
X18096164Y-171979000D01*
X18311836Y-172699000D02*
X18096164Y-172699000D01*
X23839164Y-169143000D02*
X24054836Y-169143000D01*
X23839164Y-168423000D02*
X24054836Y-168423000D01*
X18339836Y-173715000D02*
X18124164Y-173715000D01*
X18339836Y-172995000D02*
X18124164Y-172995000D01*
X18096164Y-171683000D02*
X18311836Y-171683000D01*
X18096164Y-170963000D02*
X18311836Y-170963000D01*
X17037164Y-177525000D02*
X17252836Y-177525000D01*
X17037164Y-176805000D02*
X17252836Y-176805000D01*
X18367836Y-169947000D02*
X18152164Y-169947000D01*
X18367836Y-170667000D02*
X18152164Y-170667000D01*
X18742000Y-168415580D02*
X18742000Y-168134420D01*
X17722000Y-168415580D02*
X17722000Y-168134420D01*
X27296164Y-190394000D02*
X27511836Y-190394000D01*
X27296164Y-191114000D02*
X27511836Y-191114000D01*
X17065164Y-190648000D02*
X17280836Y-190648000D01*
X17065164Y-191368000D02*
X17280836Y-191368000D01*
X27278420Y-192788000D02*
X27559580Y-192788000D01*
X27278420Y-191768000D02*
X27559580Y-191768000D01*
%LPC*%
D12*
X23458000Y-170142000D03*
X23058000Y-170142000D03*
X22658000Y-170142000D03*
X22258000Y-170142000D03*
X21858000Y-170142000D03*
X21458000Y-170142000D03*
X21058000Y-170142000D03*
X20658000Y-170142000D03*
D13*
X20070500Y-170729500D03*
X20070500Y-171129500D03*
X20070500Y-171529500D03*
X20070500Y-171929500D03*
X20070500Y-172329500D03*
X20070500Y-172729500D03*
X20070500Y-173129500D03*
X20070500Y-173529500D03*
D12*
X20658000Y-174117000D03*
X21058000Y-174117000D03*
X21458000Y-174117000D03*
X21858000Y-174117000D03*
X22258000Y-174117000D03*
X22658000Y-174117000D03*
X23058000Y-174117000D03*
X23458000Y-174117000D03*
D13*
X24045500Y-173529500D03*
X24045500Y-173129500D03*
X24045500Y-172729500D03*
X24045500Y-172329500D03*
X24045500Y-171929500D03*
X24045500Y-171529500D03*
X24045500Y-171129500D03*
X24045500Y-170729500D03*
D14*
X22058000Y-172129500D03*
D15*
X20871000Y-168783000D03*
X19911000Y-168783000D03*
D16*
X16637000Y-188800000D03*
X17907000Y-188800000D03*
X19177000Y-188800000D03*
X20447000Y-188800000D03*
X21717000Y-188800000D03*
X22987000Y-188800000D03*
X24257000Y-188800000D03*
X25527000Y-188800000D03*
X26797000Y-188800000D03*
X28067000Y-188800000D03*
X28067000Y-179500000D03*
X26797000Y-179500000D03*
X25527000Y-179500000D03*
X24257000Y-179500000D03*
X22987000Y-179500000D03*
X21717000Y-179500000D03*
X20447000Y-179500000D03*
X19177000Y-179500000D03*
X17907000Y-179500000D03*
X16637000Y-179500000D03*
D17*
X18994000Y-162814000D03*
X18994000Y-163834000D03*
X26360000Y-162814000D03*
X26360000Y-163834000D03*
X21407000Y-162814000D03*
X21407000Y-163834000D03*
X23947000Y-162814000D03*
X23947000Y-163834000D03*
X25983000Y-168271000D03*
X25983000Y-169291000D03*
X25979000Y-170204000D03*
X25979000Y-171224000D03*
D18*
X23564000Y-175514000D03*
X24584000Y-175514000D03*
D19*
X25908000Y-190754000D03*
X24888000Y-190754000D03*
D20*
X24582000Y-160782000D03*
X23582000Y-160782000D03*
X22582000Y-160782000D03*
X21582000Y-160782000D03*
D21*
X20582000Y-160782000D03*
X19082000Y-193294000D03*
D20*
X20082000Y-193294000D03*
X21082000Y-193294000D03*
X22082000Y-193294000D03*
X23082000Y-193294000D03*
X24082000Y-193294000D03*
D22*
X29845000Y-176809500D03*
X29845000Y-175234500D03*
D23*
X29845000Y-178638000D03*
X29845000Y-180213000D03*
D24*
X17371000Y-166116000D03*
X18331000Y-166116000D03*
D15*
X24907000Y-166116000D03*
X23947000Y-166116000D03*
D24*
X19558000Y-166116000D03*
X20518000Y-166116000D03*
X21717000Y-166116000D03*
X22677000Y-166116000D03*
D25*
X27126000Y-169287000D03*
X27126000Y-168327000D03*
X26995000Y-171168000D03*
X26995000Y-170208000D03*
X25598000Y-174117000D03*
X25598000Y-173157000D03*
D15*
X26586000Y-172212000D03*
X25626000Y-172212000D03*
D25*
X26614000Y-173157000D03*
X26614000Y-174117000D03*
D26*
X25273000Y-177165000D03*
X26823000Y-177165000D03*
D27*
X28194000Y-176685000D03*
X28194000Y-177645000D03*
D24*
X17724000Y-172339000D03*
X18684000Y-172339000D03*
D15*
X24427000Y-168783000D03*
X23467000Y-168783000D03*
D24*
X18712000Y-173355000D03*
X17752000Y-173355000D03*
D15*
X18684000Y-171323000D03*
X17724000Y-171323000D03*
X17625000Y-177165000D03*
X16665000Y-177165000D03*
D24*
X17780000Y-170307000D03*
X18740000Y-170307000D03*
D28*
X18232000Y-167500000D03*
X18232000Y-169050000D03*
D15*
X26924000Y-190754000D03*
X27884000Y-190754000D03*
X16693000Y-191008000D03*
X17653000Y-191008000D03*
D26*
X28194000Y-192278000D03*
X26644000Y-192278000D03*
%LPD*%
M02*
