M48
; DRILL file {KiCad 8.0.0-8.0.0-1~ubuntu20.04.1} date 2025-04-06T17:17:04+0200
; FORMAT={-:-/ absolute / metric / decimal}
; #@! TF.CreationDate,2025-04-06T17:17:04+02:00
; #@! TF.GenerationSoftware,Kicad,Pcbnew,8.0.0-8.0.0-1~ubuntu20.04.1
; #@! TF.FileFunction,Plated,1,4,PTH
FMAT,2
METRIC
; #@! TA.AperFunction,Plated,PTH,ViaDrill
T1C0.300
; #@! TA.AperFunction,Plated,PTH,ComponentDrill
T2C0.750
%
G90
G05
T1
X17.907Y-169.037
X17.907Y-173.609
X17.907Y-174.879
X17.907Y-176.149
X18.034Y-166.886
X18.796Y-166.116
X20.701Y-168.91
X20.99Y-164.416
X21.041Y-162.976
X21.452Y-165.172
X21.844Y-167.132
X22.565Y-160.91
X23.825Y-187.096
X23.876Y-184.023
X24.384Y-181.61
X24.486Y-179.121
X25.4Y-168.656
X25.4Y-173.355
X25.74Y-161.672
X25.994Y-165.101
X26.721Y-186.792
X27.026Y-181.61
X27.33Y-173.584
X27.813Y-168.148
X27.813Y-170.815
X28.153Y-163.195
X28.153Y-164.465
X28.289Y-175.381
X28.575Y-167.386
X28.575Y-169.037
T2
X19.86Y-191.135
X21.86Y-191.135
X23.86Y-191.135
X25.86Y-191.135
M30
