G04 #@! TF.GenerationSoftware,KiCad,Pcbnew,8.0.0-8.0.0-1~ubuntu20.04.1*
G04 #@! TF.CreationDate,2025-04-06T17:16:36+02:00*
G04 #@! TF.ProjectId,sensor-movement,73656e73-6f72-42d6-9d6f-76656d656e74,1*
G04 #@! TF.SameCoordinates,Original*
G04 #@! TF.FileFunction,Paste,Top*
G04 #@! TF.FilePolarity,Positive*
%FSLAX46Y46*%
G04 Gerber Fmt 4.6, Leading zero omitted, Abs format (unit mm)*
G04 Created by KiCad (PCBNEW 8.0.0-8.0.0-1~ubuntu20.04.1) date 2025-04-06 17:16:36*
%MOMM*%
%LPD*%
G01*
G04 APERTURE LIST*
G04 Aperture macros list*
%AMRoundRect*
0 Rectangle with rounded corners*
0 $1 Rounding radius*
0 $2 $3 $4 $5 $6 $7 $8 $9 X,Y pos of 4 corners*
0 Add a 4 corners polygon primitive as box body*
4,1,4,$2,$3,$4,$5,$6,$7,$8,$9,$2,$3,0*
0 Add four circle primitives for the rounded corners*
1,1,$1+$1,$2,$3*
1,1,$1+$1,$4,$5*
1,1,$1+$1,$6,$7*
1,1,$1+$1,$8,$9*
0 Add four rect primitives between the rounded corners*
20,1,$1+$1,$2,$3,$4,$5,0*
20,1,$1+$1,$4,$5,$6,$7,0*
20,1,$1+$1,$6,$7,$8,$9,0*
20,1,$1+$1,$8,$9,$2,$3,0*%
%AMFreePoly0*
4,1,14,0.230680,0.111820,0.364320,-0.021820,0.377500,-0.053640,0.377500,-0.080000,0.364320,-0.111820,0.332500,-0.125000,-0.332500,-0.125000,-0.364320,-0.111820,-0.377500,-0.080000,-0.377500,0.080000,-0.364320,0.111820,-0.332500,0.125000,0.198860,0.125000,0.230680,0.111820,0.230680,0.111820,$1*%
%AMFreePoly1*
4,1,14,0.364320,0.111820,0.377500,0.080000,0.377500,0.053640,0.364320,0.021820,0.230680,-0.111820,0.198860,-0.125000,-0.332500,-0.125000,-0.364320,-0.111820,-0.377500,-0.080000,-0.377500,0.080000,-0.364320,0.111820,-0.332500,0.125000,0.332500,0.125000,0.364320,0.111820,0.364320,0.111820,$1*%
%AMFreePoly2*
4,1,14,0.111820,0.364320,0.125000,0.332500,0.125000,-0.332500,0.111820,-0.364320,0.080000,-0.377500,-0.080000,-0.377500,-0.111820,-0.364320,-0.125000,-0.332500,-0.125000,0.198860,-0.111820,0.230680,0.021820,0.364320,0.053640,0.377500,0.080000,0.377500,0.111820,0.364320,0.111820,0.364320,$1*%
%AMFreePoly3*
4,1,14,-0.021820,0.364320,0.111820,0.230680,0.125000,0.198860,0.125000,-0.332500,0.111820,-0.364320,0.080000,-0.377500,-0.080000,-0.377500,-0.111820,-0.364320,-0.125000,-0.332500,-0.125000,0.332500,-0.111820,0.364320,-0.080000,0.377500,-0.053640,0.377500,-0.021820,0.364320,-0.021820,0.364320,$1*%
%AMFreePoly4*
4,1,14,0.364320,0.111820,0.377500,0.080000,0.377500,-0.080000,0.364320,-0.111820,0.332500,-0.125000,-0.198860,-0.125000,-0.230680,-0.111820,-0.364320,0.021820,-0.377500,0.053640,-0.377500,0.080000,-0.364320,0.111820,-0.332500,0.125000,0.332500,0.125000,0.364320,0.111820,0.364320,0.111820,$1*%
%AMFreePoly5*
4,1,14,0.364320,0.111820,0.377500,0.080000,0.377500,-0.080000,0.364320,-0.111820,0.332500,-0.125000,-0.332500,-0.125000,-0.364320,-0.111820,-0.377500,-0.080000,-0.377500,-0.053640,-0.364320,-0.021820,-0.230680,0.111820,-0.198860,0.125000,0.332500,0.125000,0.364320,0.111820,0.364320,0.111820,$1*%
%AMFreePoly6*
4,1,14,0.111820,0.364320,0.125000,0.332500,0.125000,-0.198860,0.111820,-0.230680,-0.021820,-0.364320,-0.053640,-0.377500,-0.080000,-0.377500,-0.111820,-0.364320,-0.125000,-0.332500,-0.125000,0.332500,-0.111820,0.364320,-0.080000,0.377500,0.080000,0.377500,0.111820,0.364320,0.111820,0.364320,$1*%
%AMFreePoly7*
4,1,14,0.111820,0.364320,0.125000,0.332500,0.125000,-0.332500,0.111820,-0.364320,0.080000,-0.377500,0.053640,-0.377500,0.021820,-0.364320,-0.111820,-0.230680,-0.125000,-0.198860,-0.125000,0.332500,-0.111820,0.364320,-0.080000,0.377500,0.080000,0.377500,0.111820,0.364320,0.111820,0.364320,$1*%
G04 Aperture macros list end*
%ADD10RoundRect,0.140000X0.140000X0.170000X-0.140000X0.170000X-0.140000X-0.170000X0.140000X-0.170000X0*%
%ADD11RoundRect,0.140000X-0.170000X0.140000X-0.170000X-0.140000X0.170000X-0.140000X0.170000X0.140000X0*%
%ADD12RoundRect,0.135000X-0.185000X0.135000X-0.185000X-0.135000X0.185000X-0.135000X0.185000X0.135000X0*%
%ADD13R,0.250000X0.750000*%
%ADD14RoundRect,0.135000X0.135000X0.185000X-0.135000X0.185000X-0.135000X-0.185000X0.135000X-0.185000X0*%
%ADD15RoundRect,0.140000X-0.140000X-0.170000X0.140000X-0.170000X0.140000X0.170000X-0.140000X0.170000X0*%
%ADD16R,1.800000X1.000000*%
%ADD17RoundRect,0.150000X0.150000X-0.512500X0.150000X0.512500X-0.150000X0.512500X-0.150000X-0.512500X0*%
%ADD18RoundRect,0.140000X0.170000X-0.140000X0.170000X0.140000X-0.170000X0.140000X-0.170000X-0.140000X0*%
%ADD19RoundRect,0.150000X-0.150000X0.675000X-0.150000X-0.675000X0.150000X-0.675000X0.150000X0.675000X0*%
%ADD20FreePoly0,180.000000*%
%ADD21RoundRect,0.062500X0.375000X0.062500X-0.375000X0.062500X-0.375000X-0.062500X0.375000X-0.062500X0*%
%ADD22FreePoly1,180.000000*%
%ADD23FreePoly2,180.000000*%
%ADD24RoundRect,0.062500X0.062500X0.375000X-0.062500X0.375000X-0.062500X-0.375000X0.062500X-0.375000X0*%
%ADD25FreePoly3,180.000000*%
%ADD26FreePoly4,180.000000*%
%ADD27FreePoly5,180.000000*%
%ADD28FreePoly6,180.000000*%
%ADD29FreePoly7,180.000000*%
%ADD30RoundRect,0.050000X0.050000X-0.225000X0.050000X0.225000X-0.050000X0.225000X-0.050000X-0.225000X0*%
%ADD31RoundRect,0.050000X0.225000X0.050000X-0.225000X0.050000X-0.225000X-0.050000X0.225000X-0.050000X0*%
G04 APERTURE END LIST*
D10*
X25750400Y-188518800D03*
X24790400Y-188518800D03*
D11*
X23876000Y-184912000D03*
X23876000Y-185872000D03*
X27813000Y-166398000D03*
X27813000Y-167358000D03*
D10*
X25750400Y-187248800D03*
X24790400Y-187248800D03*
D12*
X21717000Y-169160000D03*
X21717000Y-170180000D03*
D11*
X25247600Y-179606000D03*
X25247600Y-180566000D03*
D13*
X20574000Y-166826000D03*
X20074000Y-166826000D03*
X19574000Y-166826000D03*
X19074000Y-166826000D03*
X19074000Y-169926000D03*
X19574000Y-169926000D03*
X20074000Y-169926000D03*
X20574000Y-169926000D03*
D14*
X19899600Y-165100000D03*
X18879600Y-165100000D03*
D15*
X24116600Y-160859600D03*
X25076600Y-160859600D03*
D16*
X27305000Y-179898000D03*
X27305000Y-177398000D03*
D15*
X25273000Y-181610000D03*
X26233000Y-181610000D03*
D17*
X24450000Y-169666500D03*
X25400000Y-169666500D03*
X26350000Y-169666500D03*
X26350000Y-167391500D03*
X24450000Y-167391500D03*
D18*
X28194000Y-174622400D03*
X28194000Y-173662400D03*
X27813000Y-169997000D03*
X27813000Y-169037000D03*
D12*
X18923000Y-187450000D03*
X18923000Y-188470000D03*
D15*
X26684600Y-162687000D03*
X27644600Y-162687000D03*
D19*
X22225000Y-180255000D03*
X20955000Y-180255000D03*
X19685000Y-180255000D03*
X18415000Y-180255000D03*
X18415000Y-185505000D03*
X19685000Y-185505000D03*
X20955000Y-185505000D03*
X22225000Y-185505000D03*
D15*
X26755600Y-164973000D03*
X27715600Y-164973000D03*
D14*
X19899600Y-163957000D03*
X18879600Y-163957000D03*
D12*
X17907000Y-169795000D03*
X17907000Y-170815000D03*
D20*
X26508500Y-175236000D03*
D21*
X26448500Y-174736000D03*
X26448500Y-174236000D03*
X26448500Y-173736000D03*
X26448500Y-173236000D03*
X26448500Y-172736000D03*
D22*
X26508500Y-172236000D03*
D23*
X26011000Y-171738500D03*
D24*
X25511000Y-171798500D03*
X25011000Y-171798500D03*
X24511000Y-171798500D03*
X24011000Y-171798500D03*
X23511000Y-171798500D03*
D25*
X23011000Y-171738500D03*
D26*
X22513500Y-172236000D03*
D21*
X22573500Y-172736000D03*
X22573500Y-173236000D03*
X22573500Y-173736000D03*
X22573500Y-174236000D03*
X22573500Y-174736000D03*
D27*
X22513500Y-175236000D03*
D28*
X23011000Y-175733500D03*
D24*
X23511000Y-175673500D03*
X24011000Y-175673500D03*
X24511000Y-175673500D03*
X25011000Y-175673500D03*
X25511000Y-175673500D03*
D29*
X26011000Y-175733500D03*
D14*
X27648600Y-163830000D03*
X26628600Y-163830000D03*
D30*
X22495000Y-165076000D03*
X22895000Y-165076000D03*
X23295000Y-165076000D03*
X23695000Y-165076000D03*
X24095000Y-165076000D03*
X24495000Y-165076000D03*
D31*
X24995000Y-164576000D03*
X24995000Y-164176000D03*
X24995000Y-163776000D03*
X24995000Y-163376000D03*
X24995000Y-162976000D03*
X24995000Y-162576000D03*
D30*
X24495000Y-162076000D03*
X24095000Y-162076000D03*
X23695000Y-162076000D03*
X23295000Y-162076000D03*
X22895000Y-162076000D03*
X22495000Y-162076000D03*
D31*
X21995000Y-162576000D03*
X21995000Y-162976000D03*
X21995000Y-163376000D03*
X21995000Y-163776000D03*
X21995000Y-164176000D03*
X21995000Y-164576000D03*
D17*
X25659000Y-185414500D03*
X26609000Y-185414500D03*
X27559000Y-185414500D03*
X27559000Y-183139500D03*
X25659000Y-183139500D03*
D12*
X22860000Y-169162000D03*
X22860000Y-170182000D03*
D11*
X25247600Y-177675600D03*
X25247600Y-178635600D03*
M02*
