G04 #@! TF.GenerationSoftware,KiCad,Pcbnew,8.0.0-8.0.0-1~ubuntu20.04.1*
G04 #@! TF.CreationDate,2025-04-06T17:16:27+02:00*
G04 #@! TF.ProjectId,sensor-movement,73656e73-6f72-42d6-9d6f-76656d656e74,1*
G04 #@! TF.SameCoordinates,Original*
G04 #@! TF.FileFunction,Copper,L2,Inr*
G04 #@! TF.FilePolarity,Positive*
%FSLAX46Y46*%
G04 Gerber Fmt 4.6, Leading zero omitted, Abs format (unit mm)*
G04 Created by KiCad (PCBNEW 8.0.0-8.0.0-1~ubuntu20.04.1) date 2025-04-06 17:16:27*
%MOMM*%
%LPD*%
G01*
G04 APERTURE LIST*
G04 Aperture macros list*
%AMRoundRect*
0 Rectangle with rounded corners*
0 $1 Rounding radius*
0 $2 $3 $4 $5 $6 $7 $8 $9 X,Y pos of 4 corners*
0 Add a 4 corners polygon primitive as box body*
4,1,4,$2,$3,$4,$5,$6,$7,$8,$9,$2,$3,0*
0 Add four circle primitives for the rounded corners*
1,1,$1+$1,$2,$3*
1,1,$1+$1,$4,$5*
1,1,$1+$1,$6,$7*
1,1,$1+$1,$8,$9*
0 Add four rect primitives between the rounded corners*
20,1,$1+$1,$2,$3,$4,$5,0*
20,1,$1+$1,$4,$5,$6,$7,0*
20,1,$1+$1,$6,$7,$8,$9,0*
20,1,$1+$1,$8,$9,$2,$3,0*%
G04 Aperture macros list end*
G04 #@! TA.AperFunction,ComponentPad*
%ADD10RoundRect,0.250000X-0.350000X-0.625000X0.350000X-0.625000X0.350000X0.625000X-0.350000X0.625000X0*%
G04 #@! TD*
G04 #@! TA.AperFunction,ComponentPad*
%ADD11O,1.200000X1.750000*%
G04 #@! TD*
G04 #@! TA.AperFunction,ViaPad*
%ADD12C,0.600000*%
G04 #@! TD*
G04 APERTURE END LIST*
D10*
X19860000Y-191135000D03*
D11*
X21860000Y-191135000D03*
X23860000Y-191135000D03*
X25860000Y-191135000D03*
D12*
X26720800Y-186791600D03*
X27025600Y-181610000D03*
X28575000Y-167386000D03*
X28152600Y-163195000D03*
X21040600Y-162976000D03*
X17907000Y-176149000D03*
X23825200Y-187096400D03*
X27330400Y-173583600D03*
X27813000Y-168148000D03*
X28152600Y-164465000D03*
X28575000Y-169037000D03*
X24485600Y-179120800D03*
X21844000Y-167132000D03*
X22564600Y-160910400D03*
X25400000Y-168656000D03*
X20701000Y-168910000D03*
X28289051Y-175381071D03*
X24384000Y-181610000D03*
X23876000Y-184023000D03*
X17907000Y-173609000D03*
X17907000Y-169037000D03*
X27813000Y-170815000D03*
X25400000Y-173355000D03*
X17907000Y-174879000D03*
X25993600Y-165101400D03*
X25739600Y-161672400D03*
X18034000Y-166886000D03*
X20989800Y-164415600D03*
X18796000Y-166116000D03*
X21452165Y-165172435D03*
G04 #@! TA.AperFunction,Conductor*
G36*
X29922539Y-159905185D02*
G01*
X29968294Y-159957989D01*
X29979500Y-160009500D01*
X29979500Y-196510500D01*
X29959815Y-196577539D01*
X29907011Y-196623294D01*
X29855500Y-196634500D01*
X16104500Y-196634500D01*
X16037461Y-196614815D01*
X15991706Y-196562011D01*
X15980500Y-196510500D01*
X15980500Y-190885000D01*
X18760000Y-190885000D01*
X19579670Y-190885000D01*
X19559925Y-190904745D01*
X19510556Y-190990255D01*
X19485000Y-191085630D01*
X19485000Y-191184370D01*
X19510556Y-191279745D01*
X19559925Y-191365255D01*
X19579670Y-191385000D01*
X18760001Y-191385000D01*
X18760001Y-191809986D01*
X18770494Y-191912697D01*
X18825641Y-192079119D01*
X18825643Y-192079124D01*
X18917684Y-192228345D01*
X19041654Y-192352315D01*
X19190875Y-192444356D01*
X19190880Y-192444358D01*
X19357302Y-192499505D01*
X19357309Y-192499506D01*
X19460019Y-192509999D01*
X19609999Y-192509999D01*
X19610000Y-192509998D01*
X19610000Y-191415330D01*
X19629745Y-191435075D01*
X19715255Y-191484444D01*
X19810630Y-191510000D01*
X19909370Y-191510000D01*
X20004745Y-191484444D01*
X20090255Y-191435075D01*
X20110000Y-191415330D01*
X20110000Y-192509999D01*
X20259972Y-192509999D01*
X20259986Y-192509998D01*
X20362697Y-192499505D01*
X20529119Y-192444358D01*
X20529124Y-192444356D01*
X20678345Y-192352315D01*
X20802315Y-192228345D01*
X20841945Y-192164094D01*
X20893893Y-192117368D01*
X20962855Y-192106145D01*
X21026937Y-192133988D01*
X21035166Y-192141508D01*
X21143072Y-192249414D01*
X21283212Y-192351232D01*
X21437555Y-192429873D01*
X21602299Y-192483402D01*
X21773389Y-192510500D01*
X21773390Y-192510500D01*
X21946610Y-192510500D01*
X21946611Y-192510500D01*
X22117701Y-192483402D01*
X22282445Y-192429873D01*
X22436788Y-192351232D01*
X22576928Y-192249414D01*
X22699414Y-192126928D01*
X22759682Y-192043975D01*
X22815012Y-192001311D01*
X22884626Y-191995332D01*
X22946421Y-192027938D01*
X22960315Y-192043973D01*
X23020586Y-192126928D01*
X23143072Y-192249414D01*
X23283212Y-192351232D01*
X23437555Y-192429873D01*
X23602299Y-192483402D01*
X23773389Y-192510500D01*
X23773390Y-192510500D01*
X23946610Y-192510500D01*
X23946611Y-192510500D01*
X24117701Y-192483402D01*
X24282445Y-192429873D01*
X24436788Y-192351232D01*
X24576928Y-192249414D01*
X24699414Y-192126928D01*
X24759682Y-192043975D01*
X24815012Y-192001311D01*
X24884626Y-191995332D01*
X24946421Y-192027938D01*
X24960315Y-192043973D01*
X25020586Y-192126928D01*
X25143072Y-192249414D01*
X25283212Y-192351232D01*
X25437555Y-192429873D01*
X25602299Y-192483402D01*
X25773389Y-192510500D01*
X25773390Y-192510500D01*
X25946610Y-192510500D01*
X25946611Y-192510500D01*
X26117701Y-192483402D01*
X26282445Y-192429873D01*
X26436788Y-192351232D01*
X26576928Y-192249414D01*
X26699414Y-192126928D01*
X26801232Y-191986788D01*
X26879873Y-191832445D01*
X26933402Y-191667701D01*
X26960500Y-191496611D01*
X26960500Y-190773389D01*
X26933402Y-190602299D01*
X26879873Y-190437555D01*
X26801232Y-190283212D01*
X26699414Y-190143072D01*
X26576928Y-190020586D01*
X26436788Y-189918768D01*
X26282445Y-189840127D01*
X26117701Y-189786598D01*
X26117699Y-189786597D01*
X26117698Y-189786597D01*
X25986271Y-189765781D01*
X25946611Y-189759500D01*
X25773389Y-189759500D01*
X25733728Y-189765781D01*
X25602302Y-189786597D01*
X25437552Y-189840128D01*
X25283211Y-189918768D01*
X25203256Y-189976859D01*
X25143072Y-190020586D01*
X25143070Y-190020588D01*
X25143069Y-190020588D01*
X25020588Y-190143069D01*
X25020581Y-190143078D01*
X24960317Y-190226023D01*
X24904987Y-190268689D01*
X24835374Y-190274667D01*
X24773579Y-190242061D01*
X24759683Y-190226023D01*
X24711899Y-190160257D01*
X24699414Y-190143072D01*
X24576928Y-190020586D01*
X24436788Y-189918768D01*
X24282445Y-189840127D01*
X24117701Y-189786598D01*
X24117699Y-189786597D01*
X24117698Y-189786597D01*
X23986271Y-189765781D01*
X23946611Y-189759500D01*
X23773389Y-189759500D01*
X23733728Y-189765781D01*
X23602302Y-189786597D01*
X23437552Y-189840128D01*
X23283211Y-189918768D01*
X23203256Y-189976859D01*
X23143072Y-190020586D01*
X23143070Y-190020588D01*
X23143069Y-190020588D01*
X23020588Y-190143069D01*
X23020581Y-190143078D01*
X22960317Y-190226023D01*
X22904987Y-190268689D01*
X22835374Y-190274667D01*
X22773579Y-190242061D01*
X22759683Y-190226023D01*
X22711899Y-190160257D01*
X22699414Y-190143072D01*
X22576928Y-190020586D01*
X22436788Y-189918768D01*
X22282445Y-189840127D01*
X22117701Y-189786598D01*
X22117699Y-189786597D01*
X22117698Y-189786597D01*
X21986271Y-189765781D01*
X21946611Y-189759500D01*
X21773389Y-189759500D01*
X21733728Y-189765781D01*
X21602302Y-189786597D01*
X21437552Y-189840128D01*
X21283211Y-189918768D01*
X21143073Y-190020585D01*
X21035166Y-190128492D01*
X20973843Y-190161976D01*
X20904151Y-190156992D01*
X20848218Y-190115120D01*
X20841946Y-190105906D01*
X20802317Y-190041656D01*
X20678345Y-189917684D01*
X20529124Y-189825643D01*
X20529119Y-189825641D01*
X20362697Y-189770494D01*
X20362690Y-189770493D01*
X20259986Y-189760000D01*
X20110000Y-189760000D01*
X20110000Y-190854670D01*
X20090255Y-190834925D01*
X20004745Y-190785556D01*
X19909370Y-190760000D01*
X19810630Y-190760000D01*
X19715255Y-190785556D01*
X19629745Y-190834925D01*
X19610000Y-190854670D01*
X19610000Y-189760000D01*
X19460027Y-189760000D01*
X19460012Y-189760001D01*
X19357302Y-189770494D01*
X19190880Y-189825641D01*
X19190875Y-189825643D01*
X19041654Y-189917684D01*
X18917684Y-190041654D01*
X18825643Y-190190875D01*
X18825641Y-190190880D01*
X18770494Y-190357302D01*
X18770493Y-190357309D01*
X18760000Y-190460013D01*
X18760000Y-190885000D01*
X15980500Y-190885000D01*
X15980500Y-184023003D01*
X23070435Y-184023003D01*
X23090630Y-184202249D01*
X23090631Y-184202254D01*
X23150211Y-184372523D01*
X23246184Y-184525262D01*
X23373738Y-184652816D01*
X23526478Y-184748789D01*
X23696745Y-184808368D01*
X23696750Y-184808369D01*
X23875996Y-184828565D01*
X23876000Y-184828565D01*
X23876004Y-184828565D01*
X24055249Y-184808369D01*
X24055252Y-184808368D01*
X24055255Y-184808368D01*
X24225522Y-184748789D01*
X24378262Y-184652816D01*
X24505816Y-184525262D01*
X24601789Y-184372522D01*
X24661368Y-184202255D01*
X24681565Y-184023000D01*
X24661368Y-183843745D01*
X24601789Y-183673478D01*
X24505816Y-183520738D01*
X24378262Y-183393184D01*
X24225523Y-183297211D01*
X24055254Y-183237631D01*
X24055249Y-183237630D01*
X23876004Y-183217435D01*
X23875996Y-183217435D01*
X23696750Y-183237630D01*
X23696745Y-183237631D01*
X23526476Y-183297211D01*
X23373737Y-183393184D01*
X23246184Y-183520737D01*
X23150211Y-183673476D01*
X23090631Y-183843745D01*
X23090630Y-183843750D01*
X23070435Y-184022996D01*
X23070435Y-184023003D01*
X15980500Y-184023003D01*
X15980500Y-181610003D01*
X23578435Y-181610003D01*
X23598630Y-181789249D01*
X23598631Y-181789254D01*
X23658211Y-181959523D01*
X23754184Y-182112262D01*
X23881738Y-182239816D01*
X24034478Y-182335789D01*
X24204745Y-182395368D01*
X24204750Y-182395369D01*
X24383996Y-182415565D01*
X24384000Y-182415565D01*
X24384004Y-182415565D01*
X24563249Y-182395369D01*
X24563252Y-182395368D01*
X24563255Y-182395368D01*
X24733522Y-182335789D01*
X24886262Y-182239816D01*
X25013816Y-182112262D01*
X25109789Y-181959522D01*
X25169368Y-181789255D01*
X25189565Y-181610000D01*
X25169368Y-181430745D01*
X25109789Y-181260478D01*
X25013816Y-181107738D01*
X24886262Y-180980184D01*
X24733523Y-180884211D01*
X24563254Y-180824631D01*
X24563249Y-180824630D01*
X24384004Y-180804435D01*
X24383996Y-180804435D01*
X24204750Y-180824630D01*
X24204745Y-180824631D01*
X24034476Y-180884211D01*
X23881737Y-180980184D01*
X23754184Y-181107737D01*
X23658211Y-181260476D01*
X23598631Y-181430745D01*
X23598630Y-181430750D01*
X23578435Y-181609996D01*
X23578435Y-181610003D01*
X15980500Y-181610003D01*
X15980500Y-177492459D01*
X17669200Y-177492459D01*
X17697858Y-177636534D01*
X17697861Y-177636544D01*
X17754078Y-177772266D01*
X17754083Y-177772275D01*
X17835698Y-177894419D01*
X17835701Y-177894423D01*
X17939576Y-177998298D01*
X17939580Y-177998301D01*
X18061724Y-178079916D01*
X18061730Y-178079919D01*
X18061731Y-178079920D01*
X18197458Y-178136140D01*
X18341540Y-178164799D01*
X18341544Y-178164800D01*
X18341545Y-178164800D01*
X18488456Y-178164800D01*
X18488457Y-178164799D01*
X18632542Y-178136140D01*
X18768269Y-178079920D01*
X18890420Y-177998301D01*
X18994301Y-177894420D01*
X19075920Y-177772269D01*
X19132140Y-177636542D01*
X19160799Y-177492459D01*
X19701200Y-177492459D01*
X19729858Y-177636534D01*
X19729861Y-177636544D01*
X19786078Y-177772266D01*
X19786083Y-177772275D01*
X19867698Y-177894419D01*
X19867701Y-177894423D01*
X19971576Y-177998298D01*
X19971580Y-177998301D01*
X20093724Y-178079916D01*
X20093730Y-178079919D01*
X20093731Y-178079920D01*
X20229458Y-178136140D01*
X20373540Y-178164799D01*
X20373544Y-178164800D01*
X20373545Y-178164800D01*
X20520456Y-178164800D01*
X20520457Y-178164799D01*
X20664542Y-178136140D01*
X20800269Y-178079920D01*
X20922420Y-177998301D01*
X21026301Y-177894420D01*
X21107920Y-177772269D01*
X21164140Y-177636542D01*
X21192800Y-177492455D01*
X21192800Y-177345545D01*
X21164140Y-177201458D01*
X21107920Y-177065731D01*
X21107919Y-177065730D01*
X21107916Y-177065724D01*
X21026301Y-176943580D01*
X21026298Y-176943576D01*
X20922423Y-176839701D01*
X20922419Y-176839698D01*
X20800275Y-176758083D01*
X20800266Y-176758078D01*
X20664544Y-176701861D01*
X20664545Y-176701861D01*
X20664542Y-176701860D01*
X20664538Y-176701859D01*
X20664534Y-176701858D01*
X20520459Y-176673200D01*
X20520455Y-176673200D01*
X20373545Y-176673200D01*
X20373540Y-176673200D01*
X20229465Y-176701858D01*
X20229455Y-176701861D01*
X20093733Y-176758078D01*
X20093724Y-176758083D01*
X19971580Y-176839698D01*
X19971576Y-176839701D01*
X19867701Y-176943576D01*
X19867698Y-176943580D01*
X19786083Y-177065724D01*
X19786078Y-177065733D01*
X19729861Y-177201455D01*
X19729858Y-177201465D01*
X19701200Y-177345540D01*
X19701200Y-177492459D01*
X19160799Y-177492459D01*
X19160800Y-177492455D01*
X19160800Y-177345545D01*
X19132140Y-177201458D01*
X19075920Y-177065731D01*
X19075919Y-177065730D01*
X19075916Y-177065724D01*
X18994301Y-176943580D01*
X18994298Y-176943576D01*
X18890423Y-176839701D01*
X18890419Y-176839698D01*
X18768275Y-176758083D01*
X18768266Y-176758078D01*
X18632544Y-176701861D01*
X18632545Y-176701861D01*
X18632542Y-176701860D01*
X18632538Y-176701859D01*
X18632534Y-176701858D01*
X18488459Y-176673200D01*
X18488455Y-176673200D01*
X18341545Y-176673200D01*
X18341540Y-176673200D01*
X18197465Y-176701858D01*
X18197455Y-176701861D01*
X18061733Y-176758078D01*
X18061724Y-176758083D01*
X17939580Y-176839698D01*
X17939576Y-176839701D01*
X17835701Y-176943576D01*
X17835698Y-176943580D01*
X17754083Y-177065724D01*
X17754078Y-177065733D01*
X17697861Y-177201455D01*
X17697858Y-177201465D01*
X17669200Y-177345540D01*
X17669200Y-177492459D01*
X15980500Y-177492459D01*
X15980500Y-174879003D01*
X17101435Y-174879003D01*
X17121630Y-175058249D01*
X17121631Y-175058254D01*
X17181211Y-175228523D01*
X17277061Y-175381067D01*
X17277184Y-175381262D01*
X17404738Y-175508816D01*
X17557478Y-175604789D01*
X17727745Y-175664368D01*
X17727750Y-175664369D01*
X17906996Y-175684565D01*
X17907000Y-175684565D01*
X17907004Y-175684565D01*
X18086249Y-175664369D01*
X18086252Y-175664368D01*
X18086255Y-175664368D01*
X18256522Y-175604789D01*
X18409262Y-175508816D01*
X18536816Y-175381262D01*
X18536934Y-175381074D01*
X27483486Y-175381074D01*
X27503681Y-175560320D01*
X27503682Y-175560325D01*
X27563262Y-175730594D01*
X27659235Y-175883333D01*
X27786789Y-176010887D01*
X27939529Y-176106860D01*
X28109796Y-176166439D01*
X28109801Y-176166440D01*
X28289047Y-176186636D01*
X28289051Y-176186636D01*
X28289055Y-176186636D01*
X28468300Y-176166440D01*
X28468303Y-176166439D01*
X28468306Y-176166439D01*
X28638573Y-176106860D01*
X28791313Y-176010887D01*
X28918867Y-175883333D01*
X29014840Y-175730593D01*
X29074419Y-175560326D01*
X29080223Y-175508815D01*
X29094616Y-175381074D01*
X29094616Y-175381067D01*
X29074420Y-175201821D01*
X29074419Y-175201816D01*
X29024184Y-175058254D01*
X29014840Y-175031549D01*
X28918867Y-174878809D01*
X28791313Y-174751255D01*
X28638574Y-174655282D01*
X28468305Y-174595702D01*
X28468300Y-174595701D01*
X28289055Y-174575506D01*
X28289047Y-174575506D01*
X28109801Y-174595701D01*
X28109796Y-174595702D01*
X27939527Y-174655282D01*
X27786788Y-174751255D01*
X27659235Y-174878808D01*
X27563262Y-175031547D01*
X27503682Y-175201816D01*
X27503681Y-175201821D01*
X27483486Y-175381067D01*
X27483486Y-175381074D01*
X18536934Y-175381074D01*
X18632789Y-175228522D01*
X18692368Y-175058255D01*
X18695377Y-175031549D01*
X18712565Y-174879003D01*
X18712565Y-174878996D01*
X18692369Y-174699750D01*
X18692368Y-174699745D01*
X18632788Y-174529476D01*
X18536815Y-174376737D01*
X18491759Y-174331681D01*
X18458274Y-174270358D01*
X18463258Y-174200666D01*
X18491759Y-174156319D01*
X18507710Y-174140368D01*
X18536816Y-174111262D01*
X18632789Y-173958522D01*
X18692368Y-173788255D01*
X18692369Y-173788249D01*
X18712565Y-173609003D01*
X18712565Y-173608996D01*
X18692369Y-173429750D01*
X18692368Y-173429745D01*
X18666215Y-173355003D01*
X24594435Y-173355003D01*
X24614630Y-173534249D01*
X24614631Y-173534254D01*
X24674211Y-173704523D01*
X24726820Y-173788249D01*
X24770184Y-173857262D01*
X24897738Y-173984816D01*
X25050478Y-174080789D01*
X25137565Y-174111262D01*
X25220745Y-174140368D01*
X25220750Y-174140369D01*
X25399996Y-174160565D01*
X25400000Y-174160565D01*
X25400004Y-174160565D01*
X25579249Y-174140369D01*
X25579252Y-174140368D01*
X25579255Y-174140368D01*
X25749522Y-174080789D01*
X25902262Y-173984816D01*
X26029816Y-173857262D01*
X26125789Y-173704522D01*
X26185368Y-173534255D01*
X26197143Y-173429750D01*
X26205565Y-173355003D01*
X26205565Y-173354996D01*
X26185369Y-173175750D01*
X26185368Y-173175745D01*
X26153545Y-173084800D01*
X26125789Y-173005478D01*
X26122297Y-172999921D01*
X26029815Y-172852737D01*
X25902262Y-172725184D01*
X25749523Y-172629211D01*
X25579254Y-172569631D01*
X25579249Y-172569630D01*
X25400004Y-172549435D01*
X25399996Y-172549435D01*
X25220750Y-172569630D01*
X25220745Y-172569631D01*
X25050476Y-172629211D01*
X24897737Y-172725184D01*
X24770184Y-172852737D01*
X24674211Y-173005476D01*
X24614631Y-173175745D01*
X24614630Y-173175750D01*
X24594435Y-173354996D01*
X24594435Y-173355003D01*
X18666215Y-173355003D01*
X18632789Y-173259478D01*
X18536816Y-173106738D01*
X18409262Y-172979184D01*
X18256523Y-172883211D01*
X18086254Y-172823631D01*
X18086249Y-172823630D01*
X17907004Y-172803435D01*
X17906996Y-172803435D01*
X17727750Y-172823630D01*
X17727745Y-172823631D01*
X17557476Y-172883211D01*
X17404737Y-172979184D01*
X17277184Y-173106737D01*
X17181211Y-173259476D01*
X17121631Y-173429745D01*
X17121630Y-173429750D01*
X17101435Y-173608996D01*
X17101435Y-173609003D01*
X17121630Y-173788249D01*
X17121631Y-173788254D01*
X17181211Y-173958523D01*
X17277184Y-174111262D01*
X17277185Y-174111263D01*
X17322241Y-174156320D01*
X17355725Y-174217643D01*
X17350740Y-174287335D01*
X17322241Y-174331680D01*
X17277184Y-174376737D01*
X17181211Y-174529476D01*
X17121631Y-174699745D01*
X17121630Y-174699750D01*
X17101435Y-174878996D01*
X17101435Y-174879003D01*
X15980500Y-174879003D01*
X15980500Y-172412459D01*
X18685200Y-172412459D01*
X18713858Y-172556534D01*
X18713861Y-172556544D01*
X18770078Y-172692266D01*
X18770083Y-172692275D01*
X18851698Y-172814419D01*
X18851701Y-172814423D01*
X18955576Y-172918298D01*
X18955580Y-172918301D01*
X19077724Y-172999916D01*
X19077730Y-172999919D01*
X19077731Y-172999920D01*
X19213458Y-173056140D01*
X19357540Y-173084799D01*
X19357544Y-173084800D01*
X19357545Y-173084800D01*
X19504456Y-173084800D01*
X19504457Y-173084799D01*
X19648542Y-173056140D01*
X19784269Y-172999920D01*
X19906420Y-172918301D01*
X20010301Y-172814420D01*
X20091920Y-172692269D01*
X20148140Y-172556542D01*
X20176800Y-172412455D01*
X20176800Y-172265545D01*
X20148140Y-172121458D01*
X20091920Y-171985731D01*
X20091919Y-171985730D01*
X20091916Y-171985724D01*
X20010301Y-171863580D01*
X20010298Y-171863576D01*
X19906423Y-171759701D01*
X19906419Y-171759698D01*
X19784275Y-171678083D01*
X19784266Y-171678078D01*
X19648544Y-171621861D01*
X19648545Y-171621861D01*
X19648542Y-171621860D01*
X19648538Y-171621859D01*
X19648534Y-171621858D01*
X19504459Y-171593200D01*
X19504455Y-171593200D01*
X19357545Y-171593200D01*
X19357540Y-171593200D01*
X19213465Y-171621858D01*
X19213455Y-171621861D01*
X19077733Y-171678078D01*
X19077724Y-171678083D01*
X18955580Y-171759698D01*
X18955576Y-171759701D01*
X18851701Y-171863576D01*
X18851698Y-171863580D01*
X18770083Y-171985724D01*
X18770078Y-171985733D01*
X18713861Y-172121455D01*
X18713858Y-172121465D01*
X18685200Y-172265540D01*
X18685200Y-172412459D01*
X15980500Y-172412459D01*
X15980500Y-170815003D01*
X27007435Y-170815003D01*
X27027630Y-170994249D01*
X27027631Y-170994254D01*
X27087211Y-171164523D01*
X27183184Y-171317262D01*
X27310738Y-171444816D01*
X27463478Y-171540789D01*
X27613260Y-171593200D01*
X27633745Y-171600368D01*
X27633750Y-171600369D01*
X27812996Y-171620565D01*
X27813000Y-171620565D01*
X27813004Y-171620565D01*
X27992249Y-171600369D01*
X27992252Y-171600368D01*
X27992255Y-171600368D01*
X28162522Y-171540789D01*
X28315262Y-171444816D01*
X28442816Y-171317262D01*
X28538789Y-171164522D01*
X28598368Y-170994255D01*
X28618565Y-170815000D01*
X28598368Y-170635745D01*
X28538789Y-170465478D01*
X28442816Y-170312738D01*
X28315262Y-170185184D01*
X28162523Y-170089211D01*
X27992254Y-170029631D01*
X27992249Y-170029630D01*
X27813004Y-170009435D01*
X27812996Y-170009435D01*
X27633750Y-170029630D01*
X27633745Y-170029631D01*
X27463476Y-170089211D01*
X27310737Y-170185184D01*
X27183184Y-170312737D01*
X27087211Y-170465476D01*
X27027631Y-170635745D01*
X27027630Y-170635750D01*
X27007435Y-170814996D01*
X27007435Y-170815003D01*
X15980500Y-170815003D01*
X15980500Y-169037003D01*
X17101435Y-169037003D01*
X17121630Y-169216249D01*
X17121631Y-169216254D01*
X17181211Y-169386523D01*
X17277184Y-169539262D01*
X17404738Y-169666816D01*
X17557478Y-169762789D01*
X17727745Y-169822368D01*
X17727750Y-169822369D01*
X17906996Y-169842565D01*
X17907000Y-169842565D01*
X17907004Y-169842565D01*
X18086249Y-169822369D01*
X18086252Y-169822368D01*
X18086255Y-169822368D01*
X18256522Y-169762789D01*
X18409262Y-169666816D01*
X18536816Y-169539262D01*
X18632789Y-169386522D01*
X18692368Y-169216255D01*
X18692369Y-169216249D01*
X18712565Y-169037003D01*
X18712565Y-169036996D01*
X18698256Y-168910003D01*
X19895435Y-168910003D01*
X19915630Y-169089249D01*
X19915631Y-169089254D01*
X19975211Y-169259523D01*
X20055010Y-169386522D01*
X20071184Y-169412262D01*
X20198738Y-169539816D01*
X20351478Y-169635789D01*
X20440148Y-169666816D01*
X20521745Y-169695368D01*
X20521750Y-169695369D01*
X20700996Y-169715565D01*
X20701000Y-169715565D01*
X20701004Y-169715565D01*
X20880249Y-169695369D01*
X20880252Y-169695368D01*
X20880255Y-169695368D01*
X21050522Y-169635789D01*
X21203262Y-169539816D01*
X21330816Y-169412262D01*
X21426789Y-169259522D01*
X21486368Y-169089255D01*
X21486369Y-169089249D01*
X21506565Y-168910003D01*
X21506565Y-168909996D01*
X21486369Y-168730750D01*
X21486368Y-168730745D01*
X21471228Y-168687478D01*
X21426789Y-168560478D01*
X21410615Y-168534738D01*
X21330815Y-168407737D01*
X21203262Y-168280184D01*
X21050523Y-168184211D01*
X20880254Y-168124631D01*
X20880249Y-168124630D01*
X20701004Y-168104435D01*
X20700996Y-168104435D01*
X20521750Y-168124630D01*
X20521745Y-168124631D01*
X20351476Y-168184211D01*
X20198737Y-168280184D01*
X20071184Y-168407737D01*
X19975211Y-168560476D01*
X19915631Y-168730745D01*
X19915630Y-168730750D01*
X19895435Y-168909996D01*
X19895435Y-168910003D01*
X18698256Y-168910003D01*
X18692369Y-168857750D01*
X18692368Y-168857745D01*
X18632789Y-168687478D01*
X18536816Y-168534738D01*
X18409262Y-168407184D01*
X18256523Y-168311211D01*
X18086254Y-168251631D01*
X18086249Y-168251630D01*
X17907004Y-168231435D01*
X17906996Y-168231435D01*
X17727750Y-168251630D01*
X17727745Y-168251631D01*
X17557476Y-168311211D01*
X17404737Y-168407184D01*
X17277184Y-168534737D01*
X17181211Y-168687476D01*
X17121631Y-168857745D01*
X17121630Y-168857750D01*
X17101435Y-169036996D01*
X17101435Y-169037003D01*
X15980500Y-169037003D01*
X15980500Y-166886003D01*
X17228435Y-166886003D01*
X17248630Y-167065249D01*
X17248631Y-167065254D01*
X17308211Y-167235523D01*
X17404184Y-167388262D01*
X17531738Y-167515816D01*
X17684478Y-167611789D01*
X17854745Y-167671368D01*
X17854750Y-167671369D01*
X18033996Y-167691565D01*
X18034000Y-167691565D01*
X18034004Y-167691565D01*
X18213249Y-167671369D01*
X18213252Y-167671368D01*
X18213255Y-167671368D01*
X18383522Y-167611789D01*
X18536262Y-167515816D01*
X18663816Y-167388262D01*
X18759789Y-167235522D01*
X18819368Y-167065255D01*
X18824994Y-167015315D01*
X18852059Y-166950904D01*
X18909652Y-166911347D01*
X18934325Y-166905979D01*
X18975255Y-166901368D01*
X19145522Y-166841789D01*
X19298262Y-166745816D01*
X19425816Y-166618262D01*
X19521789Y-166465522D01*
X19581368Y-166295255D01*
X19581369Y-166295249D01*
X19601565Y-166116003D01*
X19601565Y-166115996D01*
X19581369Y-165936750D01*
X19581368Y-165936745D01*
X19521789Y-165766478D01*
X19504670Y-165739234D01*
X19425815Y-165613737D01*
X19298262Y-165486184D01*
X19145523Y-165390211D01*
X18975254Y-165330631D01*
X18975249Y-165330630D01*
X18796004Y-165310435D01*
X18795996Y-165310435D01*
X18616750Y-165330630D01*
X18616745Y-165330631D01*
X18446476Y-165390211D01*
X18293737Y-165486184D01*
X18166184Y-165613737D01*
X18070210Y-165766478D01*
X18010630Y-165936750D01*
X18005004Y-165986685D01*
X17977937Y-166051098D01*
X17920342Y-166090653D01*
X17895669Y-166096020D01*
X17854750Y-166100630D01*
X17684478Y-166160210D01*
X17531737Y-166256184D01*
X17404184Y-166383737D01*
X17308211Y-166536476D01*
X17248631Y-166706745D01*
X17248630Y-166706750D01*
X17228435Y-166885996D01*
X17228435Y-166886003D01*
X15980500Y-166886003D01*
X15980500Y-164415603D01*
X20184235Y-164415603D01*
X20204430Y-164594849D01*
X20204431Y-164594854D01*
X20264011Y-164765123D01*
X20359984Y-164917862D01*
X20487538Y-165045416D01*
X20542596Y-165080011D01*
X20592754Y-165111528D01*
X20639045Y-165163863D01*
X20650002Y-165202638D01*
X20666795Y-165351685D01*
X20666796Y-165351689D01*
X20726376Y-165521958D01*
X20784045Y-165613737D01*
X20822349Y-165674697D01*
X20949903Y-165802251D01*
X21102643Y-165898224D01*
X21212730Y-165936745D01*
X21272910Y-165957803D01*
X21272915Y-165957804D01*
X21452161Y-165978000D01*
X21452165Y-165978000D01*
X21452169Y-165978000D01*
X21631414Y-165957804D01*
X21631417Y-165957803D01*
X21631420Y-165957803D01*
X21801687Y-165898224D01*
X21954427Y-165802251D01*
X21983959Y-165772719D01*
X22045282Y-165739234D01*
X22071640Y-165736400D01*
X25463864Y-165736400D01*
X25529835Y-165755405D01*
X25644078Y-165827189D01*
X25814345Y-165886768D01*
X25814350Y-165886769D01*
X25993596Y-165906965D01*
X25993600Y-165906965D01*
X25993604Y-165906965D01*
X26172849Y-165886769D01*
X26172852Y-165886768D01*
X26172855Y-165886768D01*
X26343122Y-165827189D01*
X26495862Y-165731216D01*
X26623416Y-165603662D01*
X26719389Y-165450922D01*
X26778968Y-165280655D01*
X26778969Y-165280649D01*
X26799165Y-165101403D01*
X26799165Y-165101396D01*
X26778969Y-164922150D01*
X26778968Y-164922145D01*
X26777469Y-164917862D01*
X26719389Y-164751878D01*
X26623416Y-164599138D01*
X26495862Y-164471584D01*
X26406769Y-164415603D01*
X26343123Y-164375611D01*
X26172854Y-164316031D01*
X26172849Y-164316030D01*
X25993604Y-164295835D01*
X25993596Y-164295835D01*
X25814350Y-164316030D01*
X25814342Y-164316032D01*
X25777554Y-164328905D01*
X25707775Y-164332466D01*
X25647148Y-164297737D01*
X25614921Y-164235743D01*
X25612600Y-164211863D01*
X25612600Y-162601965D01*
X25632285Y-162534926D01*
X25685089Y-162489171D01*
X25732688Y-162478816D01*
X25732680Y-162478745D01*
X25733373Y-162478666D01*
X25736600Y-162477965D01*
X25739603Y-162477965D01*
X25918849Y-162457769D01*
X25918852Y-162457768D01*
X25918855Y-162457768D01*
X26089122Y-162398189D01*
X26241862Y-162302216D01*
X26369416Y-162174662D01*
X26465389Y-162021922D01*
X26524968Y-161851655D01*
X26545165Y-161672400D01*
X26524968Y-161493145D01*
X26465389Y-161322878D01*
X26369416Y-161170138D01*
X26241862Y-161042584D01*
X26089123Y-160946611D01*
X25918854Y-160887031D01*
X25918849Y-160887030D01*
X25739604Y-160866835D01*
X25739596Y-160866835D01*
X25560350Y-160887030D01*
X25560345Y-160887031D01*
X25390076Y-160946611D01*
X25237337Y-161042584D01*
X25109784Y-161170137D01*
X25089021Y-161203181D01*
X25070050Y-161233373D01*
X25017718Y-161279663D01*
X24965058Y-161291400D01*
X21294600Y-161291400D01*
X21294600Y-163505621D01*
X21274915Y-163572660D01*
X21222111Y-163618415D01*
X21156717Y-163628841D01*
X20989804Y-163610035D01*
X20989796Y-163610035D01*
X20810550Y-163630230D01*
X20810545Y-163630231D01*
X20640276Y-163689811D01*
X20487537Y-163785784D01*
X20359984Y-163913337D01*
X20264011Y-164066076D01*
X20204431Y-164236345D01*
X20204430Y-164236350D01*
X20184235Y-164415596D01*
X20184235Y-164415603D01*
X15980500Y-164415603D01*
X15980500Y-160009500D01*
X16000185Y-159942461D01*
X16052989Y-159896706D01*
X16104500Y-159885500D01*
X29855500Y-159885500D01*
X29922539Y-159905185D01*
G37*
G04 #@! TD.AperFunction*
M02*
