G04 #@! TF.GenerationSoftware,KiCad,Pcbnew,8.0.0-8.0.0-1~ubuntu20.04.1*
G04 #@! TF.CreationDate,2025-04-06T17:16:42+02:00*
G04 #@! TF.ProjectId,sensor-movement,73656e73-6f72-42d6-9d6f-76656d656e74,1*
G04 #@! TF.SameCoordinates,Original*
G04 #@! TF.FileFunction,Legend,Top*
G04 #@! TF.FilePolarity,Positive*
%FSLAX46Y46*%
G04 Gerber Fmt 4.6, Leading zero omitted, Abs format (unit mm)*
G04 Created by KiCad (PCBNEW 8.0.0-8.0.0-1~ubuntu20.04.1) date 2025-04-06 17:16:42*
%MOMM*%
%LPD*%
G01*
G04 APERTURE LIST*
G04 Aperture macros list*
%AMRoundRect*
0 Rectangle with rounded corners*
0 $1 Rounding radius*
0 $2 $3 $4 $5 $6 $7 $8 $9 X,Y pos of 4 corners*
0 Add a 4 corners polygon primitive as box body*
4,1,4,$2,$3,$4,$5,$6,$7,$8,$9,$2,$3,0*
0 Add four circle primitives for the rounded corners*
1,1,$1+$1,$2,$3*
1,1,$1+$1,$4,$5*
1,1,$1+$1,$6,$7*
1,1,$1+$1,$8,$9*
0 Add four rect primitives between the rounded corners*
20,1,$1+$1,$2,$3,$4,$5,0*
20,1,$1+$1,$4,$5,$6,$7,0*
20,1,$1+$1,$6,$7,$8,$9,0*
20,1,$1+$1,$8,$9,$2,$3,0*%
%AMFreePoly0*
4,1,19,0.500000,-0.750000,0.000000,-0.750000,0.000000,-0.744911,-0.071157,-0.744911,-0.207708,-0.704816,-0.327430,-0.627875,-0.420627,-0.520320,-0.479746,-0.390866,-0.500000,-0.250000,-0.500000,0.250000,-0.479746,0.390866,-0.420627,0.520320,-0.327430,0.627875,-0.207708,0.704816,-0.071157,0.744911,0.000000,0.744911,0.000000,0.750000,0.500000,0.750000,0.500000,-0.750000,0.500000,-0.750000,
$1*%
%AMFreePoly1*
4,1,19,0.000000,0.744911,0.071157,0.744911,0.207708,0.704816,0.327430,0.627875,0.420627,0.520320,0.479746,0.390866,0.500000,0.250000,0.500000,-0.250000,0.479746,-0.390866,0.420627,-0.520320,0.327430,-0.627875,0.207708,-0.704816,0.071157,-0.744911,0.000000,-0.744911,0.000000,-0.750000,-0.500000,-0.750000,-0.500000,0.750000,0.000000,0.750000,0.000000,0.744911,0.000000,0.744911,
$1*%
%AMFreePoly2*
4,1,14,0.230680,0.111820,0.364320,-0.021820,0.377500,-0.053640,0.377500,-0.080000,0.364320,-0.111820,0.332500,-0.125000,-0.332500,-0.125000,-0.364320,-0.111820,-0.377500,-0.080000,-0.377500,0.080000,-0.364320,0.111820,-0.332500,0.125000,0.198860,0.125000,0.230680,0.111820,0.230680,0.111820,$1*%
%AMFreePoly3*
4,1,14,0.364320,0.111820,0.377500,0.080000,0.377500,0.053640,0.364320,0.021820,0.230680,-0.111820,0.198860,-0.125000,-0.332500,-0.125000,-0.364320,-0.111820,-0.377500,-0.080000,-0.377500,0.080000,-0.364320,0.111820,-0.332500,0.125000,0.332500,0.125000,0.364320,0.111820,0.364320,0.111820,$1*%
%AMFreePoly4*
4,1,14,0.111820,0.364320,0.125000,0.332500,0.125000,-0.332500,0.111820,-0.364320,0.080000,-0.377500,-0.080000,-0.377500,-0.111820,-0.364320,-0.125000,-0.332500,-0.125000,0.198860,-0.111820,0.230680,0.021820,0.364320,0.053640,0.377500,0.080000,0.377500,0.111820,0.364320,0.111820,0.364320,$1*%
%AMFreePoly5*
4,1,14,-0.021820,0.364320,0.111820,0.230680,0.125000,0.198860,0.125000,-0.332500,0.111820,-0.364320,0.080000,-0.377500,-0.080000,-0.377500,-0.111820,-0.364320,-0.125000,-0.332500,-0.125000,0.332500,-0.111820,0.364320,-0.080000,0.377500,-0.053640,0.377500,-0.021820,0.364320,-0.021820,0.364320,$1*%
%AMFreePoly6*
4,1,14,0.364320,0.111820,0.377500,0.080000,0.377500,-0.080000,0.364320,-0.111820,0.332500,-0.125000,-0.198860,-0.125000,-0.230680,-0.111820,-0.364320,0.021820,-0.377500,0.053640,-0.377500,0.080000,-0.364320,0.111820,-0.332500,0.125000,0.332500,0.125000,0.364320,0.111820,0.364320,0.111820,$1*%
%AMFreePoly7*
4,1,14,0.364320,0.111820,0.377500,0.080000,0.377500,-0.080000,0.364320,-0.111820,0.332500,-0.125000,-0.332500,-0.125000,-0.364320,-0.111820,-0.377500,-0.080000,-0.377500,-0.053640,-0.364320,-0.021820,-0.230680,0.111820,-0.198860,0.125000,0.332500,0.125000,0.364320,0.111820,0.364320,0.111820,$1*%
%AMFreePoly8*
4,1,14,0.111820,0.364320,0.125000,0.332500,0.125000,-0.198860,0.111820,-0.230680,-0.021820,-0.364320,-0.053640,-0.377500,-0.080000,-0.377500,-0.111820,-0.364320,-0.125000,-0.332500,-0.125000,0.332500,-0.111820,0.364320,-0.080000,0.377500,0.080000,0.377500,0.111820,0.364320,0.111820,0.364320,$1*%
%AMFreePoly9*
4,1,14,0.111820,0.364320,0.125000,0.332500,0.125000,-0.332500,0.111820,-0.364320,0.080000,-0.377500,0.053640,-0.377500,0.021820,-0.364320,-0.111820,-0.230680,-0.125000,-0.198860,-0.125000,0.332500,-0.111820,0.364320,-0.080000,0.377500,0.080000,0.377500,0.111820,0.364320,0.111820,0.364320,$1*%
G04 Aperture macros list end*
%ADD10C,0.150000*%
%ADD11C,0.120000*%
%ADD12RoundRect,0.140000X0.140000X0.170000X-0.140000X0.170000X-0.140000X-0.170000X0.140000X-0.170000X0*%
%ADD13RoundRect,0.250000X-0.350000X-0.625000X0.350000X-0.625000X0.350000X0.625000X-0.350000X0.625000X0*%
%ADD14O,1.200000X1.750000*%
%ADD15RoundRect,0.140000X-0.170000X0.140000X-0.170000X-0.140000X0.170000X-0.140000X0.170000X0.140000X0*%
%ADD16RoundRect,0.135000X-0.185000X0.135000X-0.185000X-0.135000X0.185000X-0.135000X0.185000X0.135000X0*%
%ADD17C,0.990600*%
%ADD18C,0.787400*%
%ADD19FreePoly0,0.000000*%
%ADD20FreePoly1,0.000000*%
%ADD21R,0.250000X0.750000*%
%ADD22RoundRect,0.135000X0.135000X0.185000X-0.135000X0.185000X-0.135000X-0.185000X0.135000X-0.185000X0*%
%ADD23RoundRect,0.140000X-0.140000X-0.170000X0.140000X-0.170000X0.140000X0.170000X-0.140000X0.170000X0*%
%ADD24R,1.800000X1.000000*%
%ADD25RoundRect,0.150000X0.150000X-0.512500X0.150000X0.512500X-0.150000X0.512500X-0.150000X-0.512500X0*%
%ADD26RoundRect,0.140000X0.170000X-0.140000X0.170000X0.140000X-0.170000X0.140000X-0.170000X-0.140000X0*%
%ADD27RoundRect,0.150000X-0.150000X0.675000X-0.150000X-0.675000X0.150000X-0.675000X0.150000X0.675000X0*%
%ADD28FreePoly2,180.000000*%
%ADD29RoundRect,0.062500X0.375000X0.062500X-0.375000X0.062500X-0.375000X-0.062500X0.375000X-0.062500X0*%
%ADD30FreePoly3,180.000000*%
%ADD31FreePoly4,180.000000*%
%ADD32RoundRect,0.062500X0.062500X0.375000X-0.062500X0.375000X-0.062500X-0.375000X0.062500X-0.375000X0*%
%ADD33FreePoly5,180.000000*%
%ADD34FreePoly6,180.000000*%
%ADD35FreePoly7,180.000000*%
%ADD36FreePoly8,180.000000*%
%ADD37FreePoly9,180.000000*%
%ADD38RoundRect,0.050000X0.050000X-0.225000X0.050000X0.225000X-0.050000X0.225000X-0.050000X-0.225000X0*%
%ADD39RoundRect,0.050000X0.225000X0.050000X-0.225000X0.050000X-0.225000X-0.050000X0.225000X-0.050000X0*%
G04 APERTURE END LIST*
D10*
X27041733Y-188878380D02*
X26994114Y-188926000D01*
X26994114Y-188926000D02*
X26851257Y-188973619D01*
X26851257Y-188973619D02*
X26756019Y-188973619D01*
X26756019Y-188973619D02*
X26613162Y-188926000D01*
X26613162Y-188926000D02*
X26517924Y-188830761D01*
X26517924Y-188830761D02*
X26470305Y-188735523D01*
X26470305Y-188735523D02*
X26422686Y-188545047D01*
X26422686Y-188545047D02*
X26422686Y-188402190D01*
X26422686Y-188402190D02*
X26470305Y-188211714D01*
X26470305Y-188211714D02*
X26517924Y-188116476D01*
X26517924Y-188116476D02*
X26613162Y-188021238D01*
X26613162Y-188021238D02*
X26756019Y-187973619D01*
X26756019Y-187973619D02*
X26851257Y-187973619D01*
X26851257Y-187973619D02*
X26994114Y-188021238D01*
X26994114Y-188021238D02*
X27041733Y-188068857D01*
X27517924Y-188973619D02*
X27708400Y-188973619D01*
X27708400Y-188973619D02*
X27803638Y-188926000D01*
X27803638Y-188926000D02*
X27851257Y-188878380D01*
X27851257Y-188878380D02*
X27946495Y-188735523D01*
X27946495Y-188735523D02*
X27994114Y-188545047D01*
X27994114Y-188545047D02*
X27994114Y-188164095D01*
X27994114Y-188164095D02*
X27946495Y-188068857D01*
X27946495Y-188068857D02*
X27898876Y-188021238D01*
X27898876Y-188021238D02*
X27803638Y-187973619D01*
X27803638Y-187973619D02*
X27613162Y-187973619D01*
X27613162Y-187973619D02*
X27517924Y-188021238D01*
X27517924Y-188021238D02*
X27470305Y-188068857D01*
X27470305Y-188068857D02*
X27422686Y-188164095D01*
X27422686Y-188164095D02*
X27422686Y-188402190D01*
X27422686Y-188402190D02*
X27470305Y-188497428D01*
X27470305Y-188497428D02*
X27517924Y-188545047D01*
X27517924Y-188545047D02*
X27613162Y-188592666D01*
X27613162Y-188592666D02*
X27803638Y-188592666D01*
X27803638Y-188592666D02*
X27898876Y-188545047D01*
X27898876Y-188545047D02*
X27946495Y-188497428D01*
X27946495Y-188497428D02*
X27994114Y-188402190D01*
X16091819Y-193283333D02*
X16806104Y-193283333D01*
X16806104Y-193283333D02*
X16948961Y-193330952D01*
X16948961Y-193330952D02*
X17044200Y-193426190D01*
X17044200Y-193426190D02*
X17091819Y-193569047D01*
X17091819Y-193569047D02*
X17091819Y-193664285D01*
X17091819Y-192283333D02*
X17091819Y-192854761D01*
X17091819Y-192569047D02*
X16091819Y-192569047D01*
X16091819Y-192569047D02*
X16234676Y-192664285D01*
X16234676Y-192664285D02*
X16329914Y-192759523D01*
X16329914Y-192759523D02*
X16377533Y-192854761D01*
X24235580Y-183649857D02*
X24283200Y-183697476D01*
X24283200Y-183697476D02*
X24330819Y-183840333D01*
X24330819Y-183840333D02*
X24330819Y-183935571D01*
X24330819Y-183935571D02*
X24283200Y-184078428D01*
X24283200Y-184078428D02*
X24187961Y-184173666D01*
X24187961Y-184173666D02*
X24092723Y-184221285D01*
X24092723Y-184221285D02*
X23902247Y-184268904D01*
X23902247Y-184268904D02*
X23759390Y-184268904D01*
X23759390Y-184268904D02*
X23568914Y-184221285D01*
X23568914Y-184221285D02*
X23473676Y-184173666D01*
X23473676Y-184173666D02*
X23378438Y-184078428D01*
X23378438Y-184078428D02*
X23330819Y-183935571D01*
X23330819Y-183935571D02*
X23330819Y-183840333D01*
X23330819Y-183840333D02*
X23378438Y-183697476D01*
X23378438Y-183697476D02*
X23426057Y-183649857D01*
X24330819Y-182697476D02*
X24330819Y-183268904D01*
X24330819Y-182983190D02*
X23330819Y-182983190D01*
X23330819Y-182983190D02*
X23473676Y-183078428D01*
X23473676Y-183078428D02*
X23568914Y-183173666D01*
X23568914Y-183173666D02*
X23616533Y-183268904D01*
X23330819Y-182078428D02*
X23330819Y-181983190D01*
X23330819Y-181983190D02*
X23378438Y-181887952D01*
X23378438Y-181887952D02*
X23426057Y-181840333D01*
X23426057Y-181840333D02*
X23521295Y-181792714D01*
X23521295Y-181792714D02*
X23711771Y-181745095D01*
X23711771Y-181745095D02*
X23949866Y-181745095D01*
X23949866Y-181745095D02*
X24140342Y-181792714D01*
X24140342Y-181792714D02*
X24235580Y-181840333D01*
X24235580Y-181840333D02*
X24283200Y-181887952D01*
X24283200Y-181887952D02*
X24330819Y-181983190D01*
X24330819Y-181983190D02*
X24330819Y-182078428D01*
X24330819Y-182078428D02*
X24283200Y-182173666D01*
X24283200Y-182173666D02*
X24235580Y-182221285D01*
X24235580Y-182221285D02*
X24140342Y-182268904D01*
X24140342Y-182268904D02*
X23949866Y-182316523D01*
X23949866Y-182316523D02*
X23711771Y-182316523D01*
X23711771Y-182316523D02*
X23521295Y-182268904D01*
X23521295Y-182268904D02*
X23426057Y-182221285D01*
X23426057Y-182221285D02*
X23378438Y-182173666D01*
X23378438Y-182173666D02*
X23330819Y-182078428D01*
X29442580Y-167143666D02*
X29490200Y-167191285D01*
X29490200Y-167191285D02*
X29537819Y-167334142D01*
X29537819Y-167334142D02*
X29537819Y-167429380D01*
X29537819Y-167429380D02*
X29490200Y-167572237D01*
X29490200Y-167572237D02*
X29394961Y-167667475D01*
X29394961Y-167667475D02*
X29299723Y-167715094D01*
X29299723Y-167715094D02*
X29109247Y-167762713D01*
X29109247Y-167762713D02*
X28966390Y-167762713D01*
X28966390Y-167762713D02*
X28775914Y-167715094D01*
X28775914Y-167715094D02*
X28680676Y-167667475D01*
X28680676Y-167667475D02*
X28585438Y-167572237D01*
X28585438Y-167572237D02*
X28537819Y-167429380D01*
X28537819Y-167429380D02*
X28537819Y-167334142D01*
X28537819Y-167334142D02*
X28585438Y-167191285D01*
X28585438Y-167191285D02*
X28633057Y-167143666D01*
X28633057Y-166762713D02*
X28585438Y-166715094D01*
X28585438Y-166715094D02*
X28537819Y-166619856D01*
X28537819Y-166619856D02*
X28537819Y-166381761D01*
X28537819Y-166381761D02*
X28585438Y-166286523D01*
X28585438Y-166286523D02*
X28633057Y-166238904D01*
X28633057Y-166238904D02*
X28728295Y-166191285D01*
X28728295Y-166191285D02*
X28823533Y-166191285D01*
X28823533Y-166191285D02*
X28966390Y-166238904D01*
X28966390Y-166238904D02*
X29537819Y-166810332D01*
X29537819Y-166810332D02*
X29537819Y-166191285D01*
X27041733Y-187608380D02*
X26994114Y-187656000D01*
X26994114Y-187656000D02*
X26851257Y-187703619D01*
X26851257Y-187703619D02*
X26756019Y-187703619D01*
X26756019Y-187703619D02*
X26613162Y-187656000D01*
X26613162Y-187656000D02*
X26517924Y-187560761D01*
X26517924Y-187560761D02*
X26470305Y-187465523D01*
X26470305Y-187465523D02*
X26422686Y-187275047D01*
X26422686Y-187275047D02*
X26422686Y-187132190D01*
X26422686Y-187132190D02*
X26470305Y-186941714D01*
X26470305Y-186941714D02*
X26517924Y-186846476D01*
X26517924Y-186846476D02*
X26613162Y-186751238D01*
X26613162Y-186751238D02*
X26756019Y-186703619D01*
X26756019Y-186703619D02*
X26851257Y-186703619D01*
X26851257Y-186703619D02*
X26994114Y-186751238D01*
X26994114Y-186751238D02*
X27041733Y-186798857D01*
X27898876Y-186703619D02*
X27708400Y-186703619D01*
X27708400Y-186703619D02*
X27613162Y-186751238D01*
X27613162Y-186751238D02*
X27565543Y-186798857D01*
X27565543Y-186798857D02*
X27470305Y-186941714D01*
X27470305Y-186941714D02*
X27422686Y-187132190D01*
X27422686Y-187132190D02*
X27422686Y-187513142D01*
X27422686Y-187513142D02*
X27470305Y-187608380D01*
X27470305Y-187608380D02*
X27517924Y-187656000D01*
X27517924Y-187656000D02*
X27613162Y-187703619D01*
X27613162Y-187703619D02*
X27803638Y-187703619D01*
X27803638Y-187703619D02*
X27898876Y-187656000D01*
X27898876Y-187656000D02*
X27946495Y-187608380D01*
X27946495Y-187608380D02*
X27994114Y-187513142D01*
X27994114Y-187513142D02*
X27994114Y-187275047D01*
X27994114Y-187275047D02*
X27946495Y-187179809D01*
X27946495Y-187179809D02*
X27898876Y-187132190D01*
X27898876Y-187132190D02*
X27803638Y-187084571D01*
X27803638Y-187084571D02*
X27613162Y-187084571D01*
X27613162Y-187084571D02*
X27517924Y-187132190D01*
X27517924Y-187132190D02*
X27470305Y-187179809D01*
X27470305Y-187179809D02*
X27422686Y-187275047D01*
X22298819Y-167933666D02*
X21822628Y-168266999D01*
X22298819Y-168505094D02*
X21298819Y-168505094D01*
X21298819Y-168505094D02*
X21298819Y-168124142D01*
X21298819Y-168124142D02*
X21346438Y-168028904D01*
X21346438Y-168028904D02*
X21394057Y-167981285D01*
X21394057Y-167981285D02*
X21489295Y-167933666D01*
X21489295Y-167933666D02*
X21632152Y-167933666D01*
X21632152Y-167933666D02*
X21727390Y-167981285D01*
X21727390Y-167981285D02*
X21775009Y-168028904D01*
X21775009Y-168028904D02*
X21822628Y-168124142D01*
X21822628Y-168124142D02*
X21822628Y-168505094D01*
X21298819Y-167028904D02*
X21298819Y-167505094D01*
X21298819Y-167505094D02*
X21775009Y-167552713D01*
X21775009Y-167552713D02*
X21727390Y-167505094D01*
X21727390Y-167505094D02*
X21679771Y-167409856D01*
X21679771Y-167409856D02*
X21679771Y-167171761D01*
X21679771Y-167171761D02*
X21727390Y-167076523D01*
X21727390Y-167076523D02*
X21775009Y-167028904D01*
X21775009Y-167028904D02*
X21870247Y-166981285D01*
X21870247Y-166981285D02*
X22108342Y-166981285D01*
X22108342Y-166981285D02*
X22203580Y-167028904D01*
X22203580Y-167028904D02*
X22251200Y-167076523D01*
X22251200Y-167076523D02*
X22298819Y-167171761D01*
X22298819Y-167171761D02*
X22298819Y-167409856D01*
X22298819Y-167409856D02*
X22251200Y-167505094D01*
X22251200Y-167505094D02*
X22203580Y-167552713D01*
X16574419Y-175288533D02*
X17288704Y-175288533D01*
X17288704Y-175288533D02*
X17431561Y-175336152D01*
X17431561Y-175336152D02*
X17526800Y-175431390D01*
X17526800Y-175431390D02*
X17574419Y-175574247D01*
X17574419Y-175574247D02*
X17574419Y-175669485D01*
X16669657Y-174859961D02*
X16622038Y-174812342D01*
X16622038Y-174812342D02*
X16574419Y-174717104D01*
X16574419Y-174717104D02*
X16574419Y-174479009D01*
X16574419Y-174479009D02*
X16622038Y-174383771D01*
X16622038Y-174383771D02*
X16669657Y-174336152D01*
X16669657Y-174336152D02*
X16764895Y-174288533D01*
X16764895Y-174288533D02*
X16860133Y-174288533D01*
X16860133Y-174288533D02*
X17002990Y-174336152D01*
X17002990Y-174336152D02*
X17574419Y-174907580D01*
X17574419Y-174907580D02*
X17574419Y-174288533D01*
X23076819Y-188666333D02*
X23791104Y-188666333D01*
X23791104Y-188666333D02*
X23933961Y-188713952D01*
X23933961Y-188713952D02*
X24029200Y-188809190D01*
X24029200Y-188809190D02*
X24076819Y-188952047D01*
X24076819Y-188952047D02*
X24076819Y-189047285D01*
X24076819Y-188190142D02*
X23076819Y-188190142D01*
X23076819Y-188190142D02*
X23076819Y-187809190D01*
X23076819Y-187809190D02*
X23124438Y-187713952D01*
X23124438Y-187713952D02*
X23172057Y-187666333D01*
X23172057Y-187666333D02*
X23267295Y-187618714D01*
X23267295Y-187618714D02*
X23410152Y-187618714D01*
X23410152Y-187618714D02*
X23505390Y-187666333D01*
X23505390Y-187666333D02*
X23553009Y-187713952D01*
X23553009Y-187713952D02*
X23600628Y-187809190D01*
X23600628Y-187809190D02*
X23600628Y-188190142D01*
X24076819Y-186666333D02*
X24076819Y-187237761D01*
X24076819Y-186952047D02*
X23076819Y-186952047D01*
X23076819Y-186952047D02*
X23219676Y-187047285D01*
X23219676Y-187047285D02*
X23314914Y-187142523D01*
X23314914Y-187142523D02*
X23362533Y-187237761D01*
X24235580Y-180563857D02*
X24283200Y-180611476D01*
X24283200Y-180611476D02*
X24330819Y-180754333D01*
X24330819Y-180754333D02*
X24330819Y-180849571D01*
X24330819Y-180849571D02*
X24283200Y-180992428D01*
X24283200Y-180992428D02*
X24187961Y-181087666D01*
X24187961Y-181087666D02*
X24092723Y-181135285D01*
X24092723Y-181135285D02*
X23902247Y-181182904D01*
X23902247Y-181182904D02*
X23759390Y-181182904D01*
X23759390Y-181182904D02*
X23568914Y-181135285D01*
X23568914Y-181135285D02*
X23473676Y-181087666D01*
X23473676Y-181087666D02*
X23378438Y-180992428D01*
X23378438Y-180992428D02*
X23330819Y-180849571D01*
X23330819Y-180849571D02*
X23330819Y-180754333D01*
X23330819Y-180754333D02*
X23378438Y-180611476D01*
X23378438Y-180611476D02*
X23426057Y-180563857D01*
X24330819Y-179611476D02*
X24330819Y-180182904D01*
X24330819Y-179897190D02*
X23330819Y-179897190D01*
X23330819Y-179897190D02*
X23473676Y-179992428D01*
X23473676Y-179992428D02*
X23568914Y-180087666D01*
X23568914Y-180087666D02*
X23616533Y-180182904D01*
X24330819Y-178659095D02*
X24330819Y-179230523D01*
X24330819Y-178944809D02*
X23330819Y-178944809D01*
X23330819Y-178944809D02*
X23473676Y-179040047D01*
X23473676Y-179040047D02*
X23568914Y-179135285D01*
X23568914Y-179135285D02*
X23616533Y-179230523D01*
X17234819Y-168401904D02*
X18044342Y-168401904D01*
X18044342Y-168401904D02*
X18139580Y-168354285D01*
X18139580Y-168354285D02*
X18187200Y-168306666D01*
X18187200Y-168306666D02*
X18234819Y-168211428D01*
X18234819Y-168211428D02*
X18234819Y-168020952D01*
X18234819Y-168020952D02*
X18187200Y-167925714D01*
X18187200Y-167925714D02*
X18139580Y-167878095D01*
X18139580Y-167878095D02*
X18044342Y-167830476D01*
X18044342Y-167830476D02*
X17234819Y-167830476D01*
X18234819Y-166830476D02*
X18234819Y-167401904D01*
X18234819Y-167116190D02*
X17234819Y-167116190D01*
X17234819Y-167116190D02*
X17377676Y-167211428D01*
X17377676Y-167211428D02*
X17472914Y-167306666D01*
X17472914Y-167306666D02*
X17520533Y-167401904D01*
X18841933Y-163268819D02*
X18508600Y-162792628D01*
X18270505Y-163268819D02*
X18270505Y-162268819D01*
X18270505Y-162268819D02*
X18651457Y-162268819D01*
X18651457Y-162268819D02*
X18746695Y-162316438D01*
X18746695Y-162316438D02*
X18794314Y-162364057D01*
X18794314Y-162364057D02*
X18841933Y-162459295D01*
X18841933Y-162459295D02*
X18841933Y-162602152D01*
X18841933Y-162602152D02*
X18794314Y-162697390D01*
X18794314Y-162697390D02*
X18746695Y-162745009D01*
X18746695Y-162745009D02*
X18651457Y-162792628D01*
X18651457Y-162792628D02*
X18270505Y-162792628D01*
X19175267Y-162268819D02*
X19794314Y-162268819D01*
X19794314Y-162268819D02*
X19460981Y-162649771D01*
X19460981Y-162649771D02*
X19603838Y-162649771D01*
X19603838Y-162649771D02*
X19699076Y-162697390D01*
X19699076Y-162697390D02*
X19746695Y-162745009D01*
X19746695Y-162745009D02*
X19794314Y-162840247D01*
X19794314Y-162840247D02*
X19794314Y-163078342D01*
X19794314Y-163078342D02*
X19746695Y-163173580D01*
X19746695Y-163173580D02*
X19699076Y-163221200D01*
X19699076Y-163221200D02*
X19603838Y-163268819D01*
X19603838Y-163268819D02*
X19318124Y-163268819D01*
X19318124Y-163268819D02*
X19222886Y-163221200D01*
X19222886Y-163221200D02*
X19175267Y-163173580D01*
X22476733Y-161219180D02*
X22429114Y-161266800D01*
X22429114Y-161266800D02*
X22286257Y-161314419D01*
X22286257Y-161314419D02*
X22191019Y-161314419D01*
X22191019Y-161314419D02*
X22048162Y-161266800D01*
X22048162Y-161266800D02*
X21952924Y-161171561D01*
X21952924Y-161171561D02*
X21905305Y-161076323D01*
X21905305Y-161076323D02*
X21857686Y-160885847D01*
X21857686Y-160885847D02*
X21857686Y-160742990D01*
X21857686Y-160742990D02*
X21905305Y-160552514D01*
X21905305Y-160552514D02*
X21952924Y-160457276D01*
X21952924Y-160457276D02*
X22048162Y-160362038D01*
X22048162Y-160362038D02*
X22191019Y-160314419D01*
X22191019Y-160314419D02*
X22286257Y-160314419D01*
X22286257Y-160314419D02*
X22429114Y-160362038D01*
X22429114Y-160362038D02*
X22476733Y-160409657D01*
X22810067Y-160314419D02*
X23429114Y-160314419D01*
X23429114Y-160314419D02*
X23095781Y-160695371D01*
X23095781Y-160695371D02*
X23238638Y-160695371D01*
X23238638Y-160695371D02*
X23333876Y-160742990D01*
X23333876Y-160742990D02*
X23381495Y-160790609D01*
X23381495Y-160790609D02*
X23429114Y-160885847D01*
X23429114Y-160885847D02*
X23429114Y-161123942D01*
X23429114Y-161123942D02*
X23381495Y-161219180D01*
X23381495Y-161219180D02*
X23333876Y-161266800D01*
X23333876Y-161266800D02*
X23238638Y-161314419D01*
X23238638Y-161314419D02*
X22952924Y-161314419D01*
X22952924Y-161314419D02*
X22857686Y-161266800D01*
X22857686Y-161266800D02*
X22810067Y-161219180D01*
X27616209Y-176051428D02*
X27616209Y-176527619D01*
X27282876Y-175527619D02*
X27616209Y-176051428D01*
X27616209Y-176051428D02*
X27949542Y-175527619D01*
X28806685Y-176527619D02*
X28235257Y-176527619D01*
X28520971Y-176527619D02*
X28520971Y-175527619D01*
X28520971Y-175527619D02*
X28425733Y-175670476D01*
X28425733Y-175670476D02*
X28330495Y-175765714D01*
X28330495Y-175765714D02*
X28235257Y-175813333D01*
X27519333Y-181969580D02*
X27471714Y-182017200D01*
X27471714Y-182017200D02*
X27328857Y-182064819D01*
X27328857Y-182064819D02*
X27233619Y-182064819D01*
X27233619Y-182064819D02*
X27090762Y-182017200D01*
X27090762Y-182017200D02*
X26995524Y-181921961D01*
X26995524Y-181921961D02*
X26947905Y-181826723D01*
X26947905Y-181826723D02*
X26900286Y-181636247D01*
X26900286Y-181636247D02*
X26900286Y-181493390D01*
X26900286Y-181493390D02*
X26947905Y-181302914D01*
X26947905Y-181302914D02*
X26995524Y-181207676D01*
X26995524Y-181207676D02*
X27090762Y-181112438D01*
X27090762Y-181112438D02*
X27233619Y-181064819D01*
X27233619Y-181064819D02*
X27328857Y-181064819D01*
X27328857Y-181064819D02*
X27471714Y-181112438D01*
X27471714Y-181112438D02*
X27519333Y-181160057D01*
X27852667Y-181064819D02*
X28519333Y-181064819D01*
X28519333Y-181064819D02*
X28090762Y-182064819D01*
X21844095Y-165697819D02*
X21844095Y-166507342D01*
X21844095Y-166507342D02*
X21891714Y-166602580D01*
X21891714Y-166602580D02*
X21939333Y-166650200D01*
X21939333Y-166650200D02*
X22034571Y-166697819D01*
X22034571Y-166697819D02*
X22225047Y-166697819D01*
X22225047Y-166697819D02*
X22320285Y-166650200D01*
X22320285Y-166650200D02*
X22367904Y-166602580D01*
X22367904Y-166602580D02*
X22415523Y-166507342D01*
X22415523Y-166507342D02*
X22415523Y-165697819D01*
X23320285Y-166031152D02*
X23320285Y-166697819D01*
X23082190Y-165650200D02*
X22844095Y-166364485D01*
X22844095Y-166364485D02*
X23463142Y-166364485D01*
X28027333Y-173079580D02*
X27979714Y-173127200D01*
X27979714Y-173127200D02*
X27836857Y-173174819D01*
X27836857Y-173174819D02*
X27741619Y-173174819D01*
X27741619Y-173174819D02*
X27598762Y-173127200D01*
X27598762Y-173127200D02*
X27503524Y-173031961D01*
X27503524Y-173031961D02*
X27455905Y-172936723D01*
X27455905Y-172936723D02*
X27408286Y-172746247D01*
X27408286Y-172746247D02*
X27408286Y-172603390D01*
X27408286Y-172603390D02*
X27455905Y-172412914D01*
X27455905Y-172412914D02*
X27503524Y-172317676D01*
X27503524Y-172317676D02*
X27598762Y-172222438D01*
X27598762Y-172222438D02*
X27741619Y-172174819D01*
X27741619Y-172174819D02*
X27836857Y-172174819D01*
X27836857Y-172174819D02*
X27979714Y-172222438D01*
X27979714Y-172222438D02*
X28027333Y-172270057D01*
X28932095Y-172174819D02*
X28455905Y-172174819D01*
X28455905Y-172174819D02*
X28408286Y-172651009D01*
X28408286Y-172651009D02*
X28455905Y-172603390D01*
X28455905Y-172603390D02*
X28551143Y-172555771D01*
X28551143Y-172555771D02*
X28789238Y-172555771D01*
X28789238Y-172555771D02*
X28884476Y-172603390D01*
X28884476Y-172603390D02*
X28932095Y-172651009D01*
X28932095Y-172651009D02*
X28979714Y-172746247D01*
X28979714Y-172746247D02*
X28979714Y-172984342D01*
X28979714Y-172984342D02*
X28932095Y-173079580D01*
X28932095Y-173079580D02*
X28884476Y-173127200D01*
X28884476Y-173127200D02*
X28789238Y-173174819D01*
X28789238Y-173174819D02*
X28551143Y-173174819D01*
X28551143Y-173174819D02*
X28455905Y-173127200D01*
X28455905Y-173127200D02*
X28408286Y-173079580D01*
X29569580Y-170032857D02*
X29617200Y-170080476D01*
X29617200Y-170080476D02*
X29664819Y-170223333D01*
X29664819Y-170223333D02*
X29664819Y-170318571D01*
X29664819Y-170318571D02*
X29617200Y-170461428D01*
X29617200Y-170461428D02*
X29521961Y-170556666D01*
X29521961Y-170556666D02*
X29426723Y-170604285D01*
X29426723Y-170604285D02*
X29236247Y-170651904D01*
X29236247Y-170651904D02*
X29093390Y-170651904D01*
X29093390Y-170651904D02*
X28902914Y-170604285D01*
X28902914Y-170604285D02*
X28807676Y-170556666D01*
X28807676Y-170556666D02*
X28712438Y-170461428D01*
X28712438Y-170461428D02*
X28664819Y-170318571D01*
X28664819Y-170318571D02*
X28664819Y-170223333D01*
X28664819Y-170223333D02*
X28712438Y-170080476D01*
X28712438Y-170080476D02*
X28760057Y-170032857D01*
X29664819Y-169080476D02*
X29664819Y-169651904D01*
X29664819Y-169366190D02*
X28664819Y-169366190D01*
X28664819Y-169366190D02*
X28807676Y-169461428D01*
X28807676Y-169461428D02*
X28902914Y-169556666D01*
X28902914Y-169556666D02*
X28950533Y-169651904D01*
X28760057Y-168699523D02*
X28712438Y-168651904D01*
X28712438Y-168651904D02*
X28664819Y-168556666D01*
X28664819Y-168556666D02*
X28664819Y-168318571D01*
X28664819Y-168318571D02*
X28712438Y-168223333D01*
X28712438Y-168223333D02*
X28760057Y-168175714D01*
X28760057Y-168175714D02*
X28855295Y-168128095D01*
X28855295Y-168128095D02*
X28950533Y-168128095D01*
X28950533Y-168128095D02*
X29093390Y-168175714D01*
X29093390Y-168175714D02*
X29664819Y-168747142D01*
X29664819Y-168747142D02*
X29664819Y-168128095D01*
X18234819Y-188126666D02*
X17758628Y-188459999D01*
X18234819Y-188698094D02*
X17234819Y-188698094D01*
X17234819Y-188698094D02*
X17234819Y-188317142D01*
X17234819Y-188317142D02*
X17282438Y-188221904D01*
X17282438Y-188221904D02*
X17330057Y-188174285D01*
X17330057Y-188174285D02*
X17425295Y-188126666D01*
X17425295Y-188126666D02*
X17568152Y-188126666D01*
X17568152Y-188126666D02*
X17663390Y-188174285D01*
X17663390Y-188174285D02*
X17711009Y-188221904D01*
X17711009Y-188221904D02*
X17758628Y-188317142D01*
X17758628Y-188317142D02*
X17758628Y-188698094D01*
X17568152Y-187269523D02*
X18234819Y-187269523D01*
X17187200Y-187507618D02*
X17901485Y-187745713D01*
X17901485Y-187745713D02*
X17901485Y-187126666D01*
X27138333Y-161903580D02*
X27090714Y-161951200D01*
X27090714Y-161951200D02*
X26947857Y-161998819D01*
X26947857Y-161998819D02*
X26852619Y-161998819D01*
X26852619Y-161998819D02*
X26709762Y-161951200D01*
X26709762Y-161951200D02*
X26614524Y-161855961D01*
X26614524Y-161855961D02*
X26566905Y-161760723D01*
X26566905Y-161760723D02*
X26519286Y-161570247D01*
X26519286Y-161570247D02*
X26519286Y-161427390D01*
X26519286Y-161427390D02*
X26566905Y-161236914D01*
X26566905Y-161236914D02*
X26614524Y-161141676D01*
X26614524Y-161141676D02*
X26709762Y-161046438D01*
X26709762Y-161046438D02*
X26852619Y-160998819D01*
X26852619Y-160998819D02*
X26947857Y-160998819D01*
X26947857Y-160998819D02*
X27090714Y-161046438D01*
X27090714Y-161046438D02*
X27138333Y-161094057D01*
X28090714Y-161998819D02*
X27519286Y-161998819D01*
X27805000Y-161998819D02*
X27805000Y-160998819D01*
X27805000Y-160998819D02*
X27709762Y-161141676D01*
X27709762Y-161141676D02*
X27614524Y-161236914D01*
X27614524Y-161236914D02*
X27519286Y-161284533D01*
X16472819Y-183641904D02*
X17282342Y-183641904D01*
X17282342Y-183641904D02*
X17377580Y-183594285D01*
X17377580Y-183594285D02*
X17425200Y-183546666D01*
X17425200Y-183546666D02*
X17472819Y-183451428D01*
X17472819Y-183451428D02*
X17472819Y-183260952D01*
X17472819Y-183260952D02*
X17425200Y-183165714D01*
X17425200Y-183165714D02*
X17377580Y-183118095D01*
X17377580Y-183118095D02*
X17282342Y-183070476D01*
X17282342Y-183070476D02*
X16472819Y-183070476D01*
X16472819Y-182118095D02*
X16472819Y-182594285D01*
X16472819Y-182594285D02*
X16949009Y-182641904D01*
X16949009Y-182641904D02*
X16901390Y-182594285D01*
X16901390Y-182594285D02*
X16853771Y-182499047D01*
X16853771Y-182499047D02*
X16853771Y-182260952D01*
X16853771Y-182260952D02*
X16901390Y-182165714D01*
X16901390Y-182165714D02*
X16949009Y-182118095D01*
X16949009Y-182118095D02*
X17044247Y-182070476D01*
X17044247Y-182070476D02*
X17282342Y-182070476D01*
X17282342Y-182070476D02*
X17377580Y-182118095D01*
X17377580Y-182118095D02*
X17425200Y-182165714D01*
X17425200Y-182165714D02*
X17472819Y-182260952D01*
X17472819Y-182260952D02*
X17472819Y-182499047D01*
X17472819Y-182499047D02*
X17425200Y-182594285D01*
X17425200Y-182594285D02*
X17377580Y-182641904D01*
X29442580Y-165266666D02*
X29490200Y-165314285D01*
X29490200Y-165314285D02*
X29537819Y-165457142D01*
X29537819Y-165457142D02*
X29537819Y-165552380D01*
X29537819Y-165552380D02*
X29490200Y-165695237D01*
X29490200Y-165695237D02*
X29394961Y-165790475D01*
X29394961Y-165790475D02*
X29299723Y-165838094D01*
X29299723Y-165838094D02*
X29109247Y-165885713D01*
X29109247Y-165885713D02*
X28966390Y-165885713D01*
X28966390Y-165885713D02*
X28775914Y-165838094D01*
X28775914Y-165838094D02*
X28680676Y-165790475D01*
X28680676Y-165790475D02*
X28585438Y-165695237D01*
X28585438Y-165695237D02*
X28537819Y-165552380D01*
X28537819Y-165552380D02*
X28537819Y-165457142D01*
X28537819Y-165457142D02*
X28585438Y-165314285D01*
X28585438Y-165314285D02*
X28633057Y-165266666D01*
X28871152Y-164409523D02*
X29537819Y-164409523D01*
X28490200Y-164647618D02*
X29204485Y-164885713D01*
X29204485Y-164885713D02*
X29204485Y-164266666D01*
X18841933Y-161998819D02*
X18508600Y-161522628D01*
X18270505Y-161998819D02*
X18270505Y-160998819D01*
X18270505Y-160998819D02*
X18651457Y-160998819D01*
X18651457Y-160998819D02*
X18746695Y-161046438D01*
X18746695Y-161046438D02*
X18794314Y-161094057D01*
X18794314Y-161094057D02*
X18841933Y-161189295D01*
X18841933Y-161189295D02*
X18841933Y-161332152D01*
X18841933Y-161332152D02*
X18794314Y-161427390D01*
X18794314Y-161427390D02*
X18746695Y-161475009D01*
X18746695Y-161475009D02*
X18651457Y-161522628D01*
X18651457Y-161522628D02*
X18270505Y-161522628D01*
X19222886Y-161094057D02*
X19270505Y-161046438D01*
X19270505Y-161046438D02*
X19365743Y-160998819D01*
X19365743Y-160998819D02*
X19603838Y-160998819D01*
X19603838Y-160998819D02*
X19699076Y-161046438D01*
X19699076Y-161046438D02*
X19746695Y-161094057D01*
X19746695Y-161094057D02*
X19794314Y-161189295D01*
X19794314Y-161189295D02*
X19794314Y-161284533D01*
X19794314Y-161284533D02*
X19746695Y-161427390D01*
X19746695Y-161427390D02*
X19175267Y-161998819D01*
X19175267Y-161998819D02*
X19794314Y-161998819D01*
X17218819Y-170469666D02*
X16742628Y-170802999D01*
X17218819Y-171041094D02*
X16218819Y-171041094D01*
X16218819Y-171041094D02*
X16218819Y-170660142D01*
X16218819Y-170660142D02*
X16266438Y-170564904D01*
X16266438Y-170564904D02*
X16314057Y-170517285D01*
X16314057Y-170517285D02*
X16409295Y-170469666D01*
X16409295Y-170469666D02*
X16552152Y-170469666D01*
X16552152Y-170469666D02*
X16647390Y-170517285D01*
X16647390Y-170517285D02*
X16695009Y-170564904D01*
X16695009Y-170564904D02*
X16742628Y-170660142D01*
X16742628Y-170660142D02*
X16742628Y-171041094D01*
X16218819Y-169612523D02*
X16218819Y-169802999D01*
X16218819Y-169802999D02*
X16266438Y-169898237D01*
X16266438Y-169898237D02*
X16314057Y-169945856D01*
X16314057Y-169945856D02*
X16456914Y-170041094D01*
X16456914Y-170041094D02*
X16647390Y-170088713D01*
X16647390Y-170088713D02*
X17028342Y-170088713D01*
X17028342Y-170088713D02*
X17123580Y-170041094D01*
X17123580Y-170041094D02*
X17171200Y-169993475D01*
X17171200Y-169993475D02*
X17218819Y-169898237D01*
X17218819Y-169898237D02*
X17218819Y-169707761D01*
X17218819Y-169707761D02*
X17171200Y-169612523D01*
X17171200Y-169612523D02*
X17123580Y-169564904D01*
X17123580Y-169564904D02*
X17028342Y-169517285D01*
X17028342Y-169517285D02*
X16790247Y-169517285D01*
X16790247Y-169517285D02*
X16695009Y-169564904D01*
X16695009Y-169564904D02*
X16647390Y-169612523D01*
X16647390Y-169612523D02*
X16599771Y-169707761D01*
X16599771Y-169707761D02*
X16599771Y-169898237D01*
X16599771Y-169898237D02*
X16647390Y-169993475D01*
X16647390Y-169993475D02*
X16695009Y-170041094D01*
X16695009Y-170041094D02*
X16790247Y-170088713D01*
X20790819Y-173227904D02*
X21600342Y-173227904D01*
X21600342Y-173227904D02*
X21695580Y-173180285D01*
X21695580Y-173180285D02*
X21743200Y-173132666D01*
X21743200Y-173132666D02*
X21790819Y-173037428D01*
X21790819Y-173037428D02*
X21790819Y-172846952D01*
X21790819Y-172846952D02*
X21743200Y-172751714D01*
X21743200Y-172751714D02*
X21695580Y-172704095D01*
X21695580Y-172704095D02*
X21600342Y-172656476D01*
X21600342Y-172656476D02*
X20790819Y-172656476D01*
X20790819Y-171751714D02*
X20790819Y-171942190D01*
X20790819Y-171942190D02*
X20838438Y-172037428D01*
X20838438Y-172037428D02*
X20886057Y-172085047D01*
X20886057Y-172085047D02*
X21028914Y-172180285D01*
X21028914Y-172180285D02*
X21219390Y-172227904D01*
X21219390Y-172227904D02*
X21600342Y-172227904D01*
X21600342Y-172227904D02*
X21695580Y-172180285D01*
X21695580Y-172180285D02*
X21743200Y-172132666D01*
X21743200Y-172132666D02*
X21790819Y-172037428D01*
X21790819Y-172037428D02*
X21790819Y-171846952D01*
X21790819Y-171846952D02*
X21743200Y-171751714D01*
X21743200Y-171751714D02*
X21695580Y-171704095D01*
X21695580Y-171704095D02*
X21600342Y-171656476D01*
X21600342Y-171656476D02*
X21362247Y-171656476D01*
X21362247Y-171656476D02*
X21267009Y-171704095D01*
X21267009Y-171704095D02*
X21219390Y-171751714D01*
X21219390Y-171751714D02*
X21171771Y-171846952D01*
X21171771Y-171846952D02*
X21171771Y-172037428D01*
X21171771Y-172037428D02*
X21219390Y-172132666D01*
X21219390Y-172132666D02*
X21267009Y-172180285D01*
X21267009Y-172180285D02*
X21362247Y-172227904D01*
X29410819Y-163107666D02*
X28934628Y-163440999D01*
X29410819Y-163679094D02*
X28410819Y-163679094D01*
X28410819Y-163679094D02*
X28410819Y-163298142D01*
X28410819Y-163298142D02*
X28458438Y-163202904D01*
X28458438Y-163202904D02*
X28506057Y-163155285D01*
X28506057Y-163155285D02*
X28601295Y-163107666D01*
X28601295Y-163107666D02*
X28744152Y-163107666D01*
X28744152Y-163107666D02*
X28839390Y-163155285D01*
X28839390Y-163155285D02*
X28887009Y-163202904D01*
X28887009Y-163202904D02*
X28934628Y-163298142D01*
X28934628Y-163298142D02*
X28934628Y-163679094D01*
X29410819Y-162155285D02*
X29410819Y-162726713D01*
X29410819Y-162440999D02*
X28410819Y-162440999D01*
X28410819Y-162440999D02*
X28553676Y-162536237D01*
X28553676Y-162536237D02*
X28648914Y-162631475D01*
X28648914Y-162631475D02*
X28696533Y-162726713D01*
X20241419Y-162432904D02*
X21050942Y-162432904D01*
X21050942Y-162432904D02*
X21146180Y-162385285D01*
X21146180Y-162385285D02*
X21193800Y-162337666D01*
X21193800Y-162337666D02*
X21241419Y-162242428D01*
X21241419Y-162242428D02*
X21241419Y-162051952D01*
X21241419Y-162051952D02*
X21193800Y-161956714D01*
X21193800Y-161956714D02*
X21146180Y-161909095D01*
X21146180Y-161909095D02*
X21050942Y-161861476D01*
X21050942Y-161861476D02*
X20241419Y-161861476D01*
X20336657Y-161432904D02*
X20289038Y-161385285D01*
X20289038Y-161385285D02*
X20241419Y-161290047D01*
X20241419Y-161290047D02*
X20241419Y-161051952D01*
X20241419Y-161051952D02*
X20289038Y-160956714D01*
X20289038Y-160956714D02*
X20336657Y-160909095D01*
X20336657Y-160909095D02*
X20431895Y-160861476D01*
X20431895Y-160861476D02*
X20527133Y-160861476D01*
X20527133Y-160861476D02*
X20669990Y-160909095D01*
X20669990Y-160909095D02*
X21241419Y-161480523D01*
X21241419Y-161480523D02*
X21241419Y-160861476D01*
X28681043Y-185213904D02*
X29490566Y-185213904D01*
X29490566Y-185213904D02*
X29585804Y-185166285D01*
X29585804Y-185166285D02*
X29633424Y-185118666D01*
X29633424Y-185118666D02*
X29681043Y-185023428D01*
X29681043Y-185023428D02*
X29681043Y-184832952D01*
X29681043Y-184832952D02*
X29633424Y-184737714D01*
X29633424Y-184737714D02*
X29585804Y-184690095D01*
X29585804Y-184690095D02*
X29490566Y-184642476D01*
X29490566Y-184642476D02*
X28681043Y-184642476D01*
X28681043Y-184261523D02*
X28681043Y-183642476D01*
X28681043Y-183642476D02*
X29061995Y-183975809D01*
X29061995Y-183975809D02*
X29061995Y-183832952D01*
X29061995Y-183832952D02*
X29109614Y-183737714D01*
X29109614Y-183737714D02*
X29157233Y-183690095D01*
X29157233Y-183690095D02*
X29252471Y-183642476D01*
X29252471Y-183642476D02*
X29490566Y-183642476D01*
X29490566Y-183642476D02*
X29585804Y-183690095D01*
X29585804Y-183690095D02*
X29633424Y-183737714D01*
X29633424Y-183737714D02*
X29681043Y-183832952D01*
X29681043Y-183832952D02*
X29681043Y-184118666D01*
X29681043Y-184118666D02*
X29633424Y-184213904D01*
X29633424Y-184213904D02*
X29585804Y-184261523D01*
X23568819Y-167933666D02*
X23092628Y-168266999D01*
X23568819Y-168505094D02*
X22568819Y-168505094D01*
X22568819Y-168505094D02*
X22568819Y-168124142D01*
X22568819Y-168124142D02*
X22616438Y-168028904D01*
X22616438Y-168028904D02*
X22664057Y-167981285D01*
X22664057Y-167981285D02*
X22759295Y-167933666D01*
X22759295Y-167933666D02*
X22902152Y-167933666D01*
X22902152Y-167933666D02*
X22997390Y-167981285D01*
X22997390Y-167981285D02*
X23045009Y-168028904D01*
X23045009Y-168028904D02*
X23092628Y-168124142D01*
X23092628Y-168124142D02*
X23092628Y-168505094D01*
X22568819Y-167600332D02*
X22568819Y-166933666D01*
X22568819Y-166933666D02*
X23568819Y-167362237D01*
X23302933Y-178251180D02*
X23255314Y-178298800D01*
X23255314Y-178298800D02*
X23112457Y-178346419D01*
X23112457Y-178346419D02*
X23017219Y-178346419D01*
X23017219Y-178346419D02*
X22874362Y-178298800D01*
X22874362Y-178298800D02*
X22779124Y-178203561D01*
X22779124Y-178203561D02*
X22731505Y-178108323D01*
X22731505Y-178108323D02*
X22683886Y-177917847D01*
X22683886Y-177917847D02*
X22683886Y-177774990D01*
X22683886Y-177774990D02*
X22731505Y-177584514D01*
X22731505Y-177584514D02*
X22779124Y-177489276D01*
X22779124Y-177489276D02*
X22874362Y-177394038D01*
X22874362Y-177394038D02*
X23017219Y-177346419D01*
X23017219Y-177346419D02*
X23112457Y-177346419D01*
X23112457Y-177346419D02*
X23255314Y-177394038D01*
X23255314Y-177394038D02*
X23302933Y-177441657D01*
X23874362Y-177774990D02*
X23779124Y-177727371D01*
X23779124Y-177727371D02*
X23731505Y-177679752D01*
X23731505Y-177679752D02*
X23683886Y-177584514D01*
X23683886Y-177584514D02*
X23683886Y-177536895D01*
X23683886Y-177536895D02*
X23731505Y-177441657D01*
X23731505Y-177441657D02*
X23779124Y-177394038D01*
X23779124Y-177394038D02*
X23874362Y-177346419D01*
X23874362Y-177346419D02*
X24064838Y-177346419D01*
X24064838Y-177346419D02*
X24160076Y-177394038D01*
X24160076Y-177394038D02*
X24207695Y-177441657D01*
X24207695Y-177441657D02*
X24255314Y-177536895D01*
X24255314Y-177536895D02*
X24255314Y-177584514D01*
X24255314Y-177584514D02*
X24207695Y-177679752D01*
X24207695Y-177679752D02*
X24160076Y-177727371D01*
X24160076Y-177727371D02*
X24064838Y-177774990D01*
X24064838Y-177774990D02*
X23874362Y-177774990D01*
X23874362Y-177774990D02*
X23779124Y-177822609D01*
X23779124Y-177822609D02*
X23731505Y-177870228D01*
X23731505Y-177870228D02*
X23683886Y-177965466D01*
X23683886Y-177965466D02*
X23683886Y-178155942D01*
X23683886Y-178155942D02*
X23731505Y-178251180D01*
X23731505Y-178251180D02*
X23779124Y-178298800D01*
X23779124Y-178298800D02*
X23874362Y-178346419D01*
X23874362Y-178346419D02*
X24064838Y-178346419D01*
X24064838Y-178346419D02*
X24160076Y-178298800D01*
X24160076Y-178298800D02*
X24207695Y-178251180D01*
X24207695Y-178251180D02*
X24255314Y-178155942D01*
X24255314Y-178155942D02*
X24255314Y-177965466D01*
X24255314Y-177965466D02*
X24207695Y-177870228D01*
X24207695Y-177870228D02*
X24160076Y-177822609D01*
X24160076Y-177822609D02*
X24064838Y-177774990D01*
D11*
X25378236Y-188158800D02*
X25162564Y-188158800D01*
X25378236Y-188878800D02*
X25162564Y-188878800D01*
X17800000Y-189675000D02*
X17800000Y-197495000D01*
X17800000Y-191275000D02*
X18720000Y-191275000D01*
X17800000Y-197495000D02*
X27920000Y-197495000D01*
X18560000Y-193635000D02*
X18560000Y-195235000D01*
X18560000Y-195235000D02*
X19560000Y-195235000D01*
X18720000Y-189675000D02*
X17800000Y-189675000D01*
X18720000Y-191275000D02*
X18720000Y-189675000D01*
X19000000Y-191275000D02*
X18720000Y-191275000D01*
X19000000Y-191275000D02*
X19000000Y-190060000D01*
X19060000Y-195235000D02*
X19060000Y-197495000D01*
X19560000Y-193635000D02*
X18560000Y-193635000D01*
X19560000Y-195235000D02*
X19560000Y-193635000D01*
X19560000Y-195235000D02*
X19560000Y-197495000D01*
X20360000Y-193135000D02*
X25360000Y-193135000D01*
X20360000Y-197495000D02*
X20360000Y-193135000D01*
X25360000Y-193135000D02*
X25360000Y-197495000D01*
X26160000Y-193635000D02*
X27160000Y-193635000D01*
X26160000Y-195235000D02*
X26160000Y-193635000D01*
X27000000Y-189675000D02*
X27000000Y-191275000D01*
X27000000Y-191275000D02*
X26720000Y-191275000D01*
X27160000Y-193635000D02*
X27160000Y-195235000D01*
X27160000Y-195235000D02*
X26160000Y-195235000D01*
X27920000Y-189675000D02*
X27000000Y-189675000D01*
X27920000Y-191275000D02*
X27000000Y-191275000D01*
X27920000Y-197495000D02*
X27920000Y-189675000D01*
X23516000Y-185284164D02*
X23516000Y-185499836D01*
X24236000Y-185284164D02*
X24236000Y-185499836D01*
X27453000Y-166770164D02*
X27453000Y-166985836D01*
X28173000Y-166770164D02*
X28173000Y-166985836D01*
X25378236Y-186888800D02*
X25162564Y-186888800D01*
X25378236Y-187608800D02*
X25162564Y-187608800D01*
X21337000Y-169516359D02*
X21337000Y-169823641D01*
X22097000Y-169516359D02*
X22097000Y-169823641D01*
X18161000Y-172974000D02*
X18796000Y-172974000D01*
X18161000Y-173609000D02*
X18161000Y-172974000D01*
X19824000Y-188260000D02*
X19824000Y-187660000D01*
X20524000Y-186960000D02*
X21924000Y-186960000D01*
X21924000Y-188960000D02*
X20524000Y-188960000D01*
X22624000Y-187660000D02*
X22624000Y-188260000D01*
X19824000Y-187660000D02*
G75*
G02*
X20524000Y-186960000I699999J1D01*
G01*
X20524000Y-188960000D02*
G75*
G02*
X19824000Y-188260000I-1J699999D01*
G01*
X21924000Y-186960000D02*
G75*
G02*
X22624000Y-187660000I0J-700000D01*
G01*
X22624000Y-188260000D02*
G75*
G02*
X21924000Y-188960000I-700000J0D01*
G01*
X24887600Y-179978164D02*
X24887600Y-180193836D01*
X25607600Y-179978164D02*
X25607600Y-180193836D01*
X18624000Y-167076000D02*
X18624000Y-169676000D01*
X21024000Y-169676000D02*
X21024000Y-167076000D01*
X20574000Y-166176000D02*
X20474000Y-166026000D01*
X20674000Y-166026000D01*
X20574000Y-166176000D01*
X19543241Y-164720000D02*
X19235959Y-164720000D01*
X19543241Y-165480000D02*
X19235959Y-165480000D01*
X24488764Y-160499600D02*
X24704436Y-160499600D01*
X24488764Y-161219600D02*
X24704436Y-161219600D01*
X26430000Y-177973000D02*
X26430000Y-179323000D01*
X28180000Y-177973000D02*
X28180000Y-179323000D01*
X25645164Y-181250000D02*
X25860836Y-181250000D01*
X25645164Y-181970000D02*
X25860836Y-181970000D01*
X23840000Y-168529000D02*
X23840000Y-167729000D01*
X23840000Y-168529000D02*
X23840000Y-169329000D01*
X26960000Y-168529000D02*
X26960000Y-167729000D01*
X26960000Y-168529000D02*
X26960000Y-169329000D01*
X23890000Y-169829000D02*
X23560000Y-170069000D01*
X23560000Y-169589000D01*
X23890000Y-169829000D01*
G36*
X23890000Y-169829000D02*
G01*
X23560000Y-170069000D01*
X23560000Y-169589000D01*
X23890000Y-169829000D01*
G37*
X27834000Y-174250236D02*
X27834000Y-174034564D01*
X28554000Y-174250236D02*
X28554000Y-174034564D01*
X27453000Y-169624836D02*
X27453000Y-169409164D01*
X28173000Y-169624836D02*
X28173000Y-169409164D01*
X18543000Y-187806359D02*
X18543000Y-188113641D01*
X19303000Y-187806359D02*
X19303000Y-188113641D01*
X27056764Y-162327000D02*
X27272436Y-162327000D01*
X27056764Y-163047000D02*
X27272436Y-163047000D01*
X17760000Y-182880000D02*
X17760000Y-180930000D01*
X17760000Y-182880000D02*
X17760000Y-184830000D01*
X22880000Y-182880000D02*
X22880000Y-180930000D01*
X22880000Y-182880000D02*
X22880000Y-184830000D01*
X23115000Y-180420000D02*
X22785000Y-180180000D01*
X23115000Y-179940000D01*
X23115000Y-180420000D01*
G36*
X23115000Y-180420000D02*
G01*
X22785000Y-180180000D01*
X23115000Y-179940000D01*
X23115000Y-180420000D01*
G37*
X27127764Y-164613000D02*
X27343436Y-164613000D01*
X27127764Y-165333000D02*
X27343436Y-165333000D01*
X19543241Y-163577000D02*
X19235959Y-163577000D01*
X19543241Y-164337000D02*
X19235959Y-164337000D01*
X17527000Y-170151359D02*
X17527000Y-170458641D01*
X18287000Y-170151359D02*
X18287000Y-170458641D01*
X22401000Y-171626000D02*
X22401000Y-171851000D01*
X22401000Y-175846000D02*
X22401000Y-175621000D01*
X22626000Y-171626000D02*
X22401000Y-171626000D01*
X22626000Y-175846000D02*
X22401000Y-175846000D01*
X26396000Y-171626000D02*
X26621000Y-171626000D01*
X26621000Y-171626000D02*
X26621000Y-171851000D01*
X26881000Y-176176000D02*
X26401000Y-176176000D01*
X26641000Y-175846000D01*
X26881000Y-176176000D01*
G36*
X26881000Y-176176000D02*
G01*
X26401000Y-176176000D01*
X26641000Y-175846000D01*
X26881000Y-176176000D01*
G37*
X27292241Y-163450000D02*
X26984959Y-163450000D01*
X27292241Y-164210000D02*
X26984959Y-164210000D01*
X21895000Y-161976000D02*
X21895000Y-162226000D01*
X21895000Y-161976000D02*
X22145000Y-161976000D01*
X25095000Y-161976000D02*
X24845000Y-161976000D01*
X25095000Y-161976000D02*
X25095000Y-162226000D01*
X25095000Y-165176000D02*
X24845000Y-165176000D01*
X25095000Y-165176000D02*
X25095000Y-164926000D01*
X21895000Y-165176000D02*
X21565000Y-165416000D01*
X21565000Y-164936000D01*
X21895000Y-165176000D01*
G36*
X21895000Y-165176000D02*
G01*
X21565000Y-165416000D01*
X21565000Y-164936000D01*
X21895000Y-165176000D01*
G37*
X25049000Y-184277000D02*
X25049000Y-183477000D01*
X25049000Y-184277000D02*
X25049000Y-185077000D01*
X28169000Y-184277000D02*
X28169000Y-183477000D01*
X28169000Y-184277000D02*
X28169000Y-185077000D01*
X25099000Y-185577000D02*
X24769000Y-185817000D01*
X24769000Y-185337000D01*
X25099000Y-185577000D01*
G36*
X25099000Y-185577000D02*
G01*
X24769000Y-185817000D01*
X24769000Y-185337000D01*
X25099000Y-185577000D01*
G37*
X22480000Y-169518359D02*
X22480000Y-169825641D01*
X23240000Y-169518359D02*
X23240000Y-169825641D01*
X24887600Y-178047764D02*
X24887600Y-178263436D01*
X25607600Y-178047764D02*
X25607600Y-178263436D01*
%LPC*%
D12*
X25750400Y-188518800D03*
X24790400Y-188518800D03*
D13*
X19860000Y-191135000D03*
D14*
X21860000Y-191135000D03*
X23860000Y-191135000D03*
X25860000Y-191135000D03*
D15*
X23876000Y-184912000D03*
X23876000Y-185872000D03*
X27813000Y-166398000D03*
X27813000Y-167358000D03*
D12*
X25750400Y-187248800D03*
X24790400Y-187248800D03*
D16*
X21717000Y-169160000D03*
X21717000Y-170180000D03*
D17*
X19431000Y-172339000D03*
X20447000Y-177419000D03*
X18415000Y-177419000D03*
D18*
X18796000Y-173609000D03*
X20066000Y-173609000D03*
X18796000Y-174879000D03*
X20066000Y-174879000D03*
X18796000Y-176149000D03*
X20066000Y-176149000D03*
D19*
X20574000Y-187960000D03*
D20*
X21874000Y-187960000D03*
D15*
X25247600Y-179606000D03*
X25247600Y-180566000D03*
D21*
X20574000Y-166826000D03*
X20074000Y-166826000D03*
X19574000Y-166826000D03*
X19074000Y-166826000D03*
X19074000Y-169926000D03*
X19574000Y-169926000D03*
X20074000Y-169926000D03*
X20574000Y-169926000D03*
D22*
X19899600Y-165100000D03*
X18879600Y-165100000D03*
D23*
X24116600Y-160859600D03*
X25076600Y-160859600D03*
D24*
X27305000Y-179898000D03*
X27305000Y-177398000D03*
D23*
X25273000Y-181610000D03*
X26233000Y-181610000D03*
D25*
X24450000Y-169666500D03*
X25400000Y-169666500D03*
X26350000Y-169666500D03*
X26350000Y-167391500D03*
X24450000Y-167391500D03*
D26*
X28194000Y-174622400D03*
X28194000Y-173662400D03*
X27813000Y-169997000D03*
X27813000Y-169037000D03*
D16*
X18923000Y-187450000D03*
X18923000Y-188470000D03*
D23*
X26684600Y-162687000D03*
X27644600Y-162687000D03*
D27*
X22225000Y-180255000D03*
X20955000Y-180255000D03*
X19685000Y-180255000D03*
X18415000Y-180255000D03*
X18415000Y-185505000D03*
X19685000Y-185505000D03*
X20955000Y-185505000D03*
X22225000Y-185505000D03*
D23*
X26755600Y-164973000D03*
X27715600Y-164973000D03*
D22*
X19899600Y-163957000D03*
X18879600Y-163957000D03*
D16*
X17907000Y-169795000D03*
X17907000Y-170815000D03*
D28*
X26508500Y-175236000D03*
D29*
X26448500Y-174736000D03*
X26448500Y-174236000D03*
X26448500Y-173736000D03*
X26448500Y-173236000D03*
X26448500Y-172736000D03*
D30*
X26508500Y-172236000D03*
D31*
X26011000Y-171738500D03*
D32*
X25511000Y-171798500D03*
X25011000Y-171798500D03*
X24511000Y-171798500D03*
X24011000Y-171798500D03*
X23511000Y-171798500D03*
D33*
X23011000Y-171738500D03*
D34*
X22513500Y-172236000D03*
D29*
X22573500Y-172736000D03*
X22573500Y-173236000D03*
X22573500Y-173736000D03*
X22573500Y-174236000D03*
X22573500Y-174736000D03*
D35*
X22513500Y-175236000D03*
D36*
X23011000Y-175733500D03*
D32*
X23511000Y-175673500D03*
X24011000Y-175673500D03*
X24511000Y-175673500D03*
X25011000Y-175673500D03*
X25511000Y-175673500D03*
D37*
X26011000Y-175733500D03*
D22*
X27648600Y-163830000D03*
X26628600Y-163830000D03*
D38*
X22495000Y-165076000D03*
X22895000Y-165076000D03*
X23295000Y-165076000D03*
X23695000Y-165076000D03*
X24095000Y-165076000D03*
X24495000Y-165076000D03*
D39*
X24995000Y-164576000D03*
X24995000Y-164176000D03*
X24995000Y-163776000D03*
X24995000Y-163376000D03*
X24995000Y-162976000D03*
X24995000Y-162576000D03*
D38*
X24495000Y-162076000D03*
X24095000Y-162076000D03*
X23695000Y-162076000D03*
X23295000Y-162076000D03*
X22895000Y-162076000D03*
X22495000Y-162076000D03*
D39*
X21995000Y-162576000D03*
X21995000Y-162976000D03*
X21995000Y-163376000D03*
X21995000Y-163776000D03*
X21995000Y-164176000D03*
X21995000Y-164576000D03*
D25*
X25659000Y-185414500D03*
X26609000Y-185414500D03*
X27559000Y-185414500D03*
X27559000Y-183139500D03*
X25659000Y-183139500D03*
D16*
X22860000Y-169162000D03*
X22860000Y-170182000D03*
D15*
X25247600Y-177675600D03*
X25247600Y-178635600D03*
%LPD*%
M02*
