G04 #@! TF.GenerationSoftware,KiCad,Pcbnew,8.0.0-8.0.0-1~ubuntu20.04.1*
G04 #@! TF.CreationDate,2025-04-06T17:16:27+02:00*
G04 #@! TF.ProjectId,sensor-movement,73656e73-6f72-42d6-9d6f-76656d656e74,1*
G04 #@! TF.SameCoordinates,Original*
G04 #@! TF.FileFunction,Copper,L1,Top*
G04 #@! TF.FilePolarity,Positive*
%FSLAX46Y46*%
G04 Gerber Fmt 4.6, Leading zero omitted, Abs format (unit mm)*
G04 Created by KiCad (PCBNEW 8.0.0-8.0.0-1~ubuntu20.04.1) date 2025-04-06 17:16:27*
%MOMM*%
%LPD*%
G01*
G04 APERTURE LIST*
G04 Aperture macros list*
%AMRoundRect*
0 Rectangle with rounded corners*
0 $1 Rounding radius*
0 $2 $3 $4 $5 $6 $7 $8 $9 X,Y pos of 4 corners*
0 Add a 4 corners polygon primitive as box body*
4,1,4,$2,$3,$4,$5,$6,$7,$8,$9,$2,$3,0*
0 Add four circle primitives for the rounded corners*
1,1,$1+$1,$2,$3*
1,1,$1+$1,$4,$5*
1,1,$1+$1,$6,$7*
1,1,$1+$1,$8,$9*
0 Add four rect primitives between the rounded corners*
20,1,$1+$1,$2,$3,$4,$5,0*
20,1,$1+$1,$4,$5,$6,$7,0*
20,1,$1+$1,$6,$7,$8,$9,0*
20,1,$1+$1,$8,$9,$2,$3,0*%
%AMFreePoly0*
4,1,19,0.500000,-0.750000,0.000000,-0.750000,0.000000,-0.744911,-0.071157,-0.744911,-0.207708,-0.704816,-0.327430,-0.627875,-0.420627,-0.520320,-0.479746,-0.390866,-0.500000,-0.250000,-0.500000,0.250000,-0.479746,0.390866,-0.420627,0.520320,-0.327430,0.627875,-0.207708,0.704816,-0.071157,0.744911,0.000000,0.744911,0.000000,0.750000,0.500000,0.750000,0.500000,-0.750000,0.500000,-0.750000,
$1*%
%AMFreePoly1*
4,1,19,0.000000,0.744911,0.071157,0.744911,0.207708,0.704816,0.327430,0.627875,0.420627,0.520320,0.479746,0.390866,0.500000,0.250000,0.500000,-0.250000,0.479746,-0.390866,0.420627,-0.520320,0.327430,-0.627875,0.207708,-0.704816,0.071157,-0.744911,0.000000,-0.744911,0.000000,-0.750000,-0.500000,-0.750000,-0.500000,0.750000,0.000000,0.750000,0.000000,0.744911,0.000000,0.744911,
$1*%
%AMFreePoly2*
4,1,14,0.230680,0.111820,0.364320,-0.021820,0.377500,-0.053640,0.377500,-0.080000,0.364320,-0.111820,0.332500,-0.125000,-0.332500,-0.125000,-0.364320,-0.111820,-0.377500,-0.080000,-0.377500,0.080000,-0.364320,0.111820,-0.332500,0.125000,0.198860,0.125000,0.230680,0.111820,0.230680,0.111820,$1*%
%AMFreePoly3*
4,1,14,0.364320,0.111820,0.377500,0.080000,0.377500,0.053640,0.364320,0.021820,0.230680,-0.111820,0.198860,-0.125000,-0.332500,-0.125000,-0.364320,-0.111820,-0.377500,-0.080000,-0.377500,0.080000,-0.364320,0.111820,-0.332500,0.125000,0.332500,0.125000,0.364320,0.111820,0.364320,0.111820,$1*%
%AMFreePoly4*
4,1,14,0.111820,0.364320,0.125000,0.332500,0.125000,-0.332500,0.111820,-0.364320,0.080000,-0.377500,-0.080000,-0.377500,-0.111820,-0.364320,-0.125000,-0.332500,-0.125000,0.198860,-0.111820,0.230680,0.021820,0.364320,0.053640,0.377500,0.080000,0.377500,0.111820,0.364320,0.111820,0.364320,$1*%
%AMFreePoly5*
4,1,14,-0.021820,0.364320,0.111820,0.230680,0.125000,0.198860,0.125000,-0.332500,0.111820,-0.364320,0.080000,-0.377500,-0.080000,-0.377500,-0.111820,-0.364320,-0.125000,-0.332500,-0.125000,0.332500,-0.111820,0.364320,-0.080000,0.377500,-0.053640,0.377500,-0.021820,0.364320,-0.021820,0.364320,$1*%
%AMFreePoly6*
4,1,14,0.364320,0.111820,0.377500,0.080000,0.377500,-0.080000,0.364320,-0.111820,0.332500,-0.125000,-0.198860,-0.125000,-0.230680,-0.111820,-0.364320,0.021820,-0.377500,0.053640,-0.377500,0.080000,-0.364320,0.111820,-0.332500,0.125000,0.332500,0.125000,0.364320,0.111820,0.364320,0.111820,$1*%
%AMFreePoly7*
4,1,14,0.364320,0.111820,0.377500,0.080000,0.377500,-0.080000,0.364320,-0.111820,0.332500,-0.125000,-0.332500,-0.125000,-0.364320,-0.111820,-0.377500,-0.080000,-0.377500,-0.053640,-0.364320,-0.021820,-0.230680,0.111820,-0.198860,0.125000,0.332500,0.125000,0.364320,0.111820,0.364320,0.111820,$1*%
%AMFreePoly8*
4,1,14,0.111820,0.364320,0.125000,0.332500,0.125000,-0.198860,0.111820,-0.230680,-0.021820,-0.364320,-0.053640,-0.377500,-0.080000,-0.377500,-0.111820,-0.364320,-0.125000,-0.332500,-0.125000,0.332500,-0.111820,0.364320,-0.080000,0.377500,0.080000,0.377500,0.111820,0.364320,0.111820,0.364320,$1*%
%AMFreePoly9*
4,1,14,0.111820,0.364320,0.125000,0.332500,0.125000,-0.332500,0.111820,-0.364320,0.080000,-0.377500,0.053640,-0.377500,0.021820,-0.364320,-0.111820,-0.230680,-0.125000,-0.198860,-0.125000,0.332500,-0.111820,0.364320,-0.080000,0.377500,0.080000,0.377500,0.111820,0.364320,0.111820,0.364320,$1*%
G04 Aperture macros list end*
G04 #@! TA.AperFunction,SMDPad,CuDef*
%ADD10RoundRect,0.140000X0.140000X0.170000X-0.140000X0.170000X-0.140000X-0.170000X0.140000X-0.170000X0*%
G04 #@! TD*
G04 #@! TA.AperFunction,ComponentPad*
%ADD11RoundRect,0.250000X-0.350000X-0.625000X0.350000X-0.625000X0.350000X0.625000X-0.350000X0.625000X0*%
G04 #@! TD*
G04 #@! TA.AperFunction,ComponentPad*
%ADD12O,1.200000X1.750000*%
G04 #@! TD*
G04 #@! TA.AperFunction,SMDPad,CuDef*
%ADD13RoundRect,0.140000X-0.170000X0.140000X-0.170000X-0.140000X0.170000X-0.140000X0.170000X0.140000X0*%
G04 #@! TD*
G04 #@! TA.AperFunction,SMDPad,CuDef*
%ADD14RoundRect,0.135000X-0.185000X0.135000X-0.185000X-0.135000X0.185000X-0.135000X0.185000X0.135000X0*%
G04 #@! TD*
G04 #@! TA.AperFunction,ConnectorPad*
%ADD15C,0.787400*%
G04 #@! TD*
G04 #@! TA.AperFunction,SMDPad,CuDef*
%ADD16FreePoly0,0.000000*%
G04 #@! TD*
G04 #@! TA.AperFunction,SMDPad,CuDef*
%ADD17FreePoly1,0.000000*%
G04 #@! TD*
G04 #@! TA.AperFunction,SMDPad,CuDef*
%ADD18R,0.250000X0.750000*%
G04 #@! TD*
G04 #@! TA.AperFunction,SMDPad,CuDef*
%ADD19RoundRect,0.135000X0.135000X0.185000X-0.135000X0.185000X-0.135000X-0.185000X0.135000X-0.185000X0*%
G04 #@! TD*
G04 #@! TA.AperFunction,SMDPad,CuDef*
%ADD20RoundRect,0.140000X-0.140000X-0.170000X0.140000X-0.170000X0.140000X0.170000X-0.140000X0.170000X0*%
G04 #@! TD*
G04 #@! TA.AperFunction,SMDPad,CuDef*
%ADD21R,1.800000X1.000000*%
G04 #@! TD*
G04 #@! TA.AperFunction,SMDPad,CuDef*
%ADD22RoundRect,0.150000X0.150000X-0.512500X0.150000X0.512500X-0.150000X0.512500X-0.150000X-0.512500X0*%
G04 #@! TD*
G04 #@! TA.AperFunction,SMDPad,CuDef*
%ADD23RoundRect,0.140000X0.170000X-0.140000X0.170000X0.140000X-0.170000X0.140000X-0.170000X-0.140000X0*%
G04 #@! TD*
G04 #@! TA.AperFunction,SMDPad,CuDef*
%ADD24RoundRect,0.150000X-0.150000X0.675000X-0.150000X-0.675000X0.150000X-0.675000X0.150000X0.675000X0*%
G04 #@! TD*
G04 #@! TA.AperFunction,SMDPad,CuDef*
%ADD25FreePoly2,180.000000*%
G04 #@! TD*
G04 #@! TA.AperFunction,SMDPad,CuDef*
%ADD26RoundRect,0.062500X0.375000X0.062500X-0.375000X0.062500X-0.375000X-0.062500X0.375000X-0.062500X0*%
G04 #@! TD*
G04 #@! TA.AperFunction,SMDPad,CuDef*
%ADD27FreePoly3,180.000000*%
G04 #@! TD*
G04 #@! TA.AperFunction,SMDPad,CuDef*
%ADD28FreePoly4,180.000000*%
G04 #@! TD*
G04 #@! TA.AperFunction,SMDPad,CuDef*
%ADD29RoundRect,0.062500X0.062500X0.375000X-0.062500X0.375000X-0.062500X-0.375000X0.062500X-0.375000X0*%
G04 #@! TD*
G04 #@! TA.AperFunction,SMDPad,CuDef*
%ADD30FreePoly5,180.000000*%
G04 #@! TD*
G04 #@! TA.AperFunction,SMDPad,CuDef*
%ADD31FreePoly6,180.000000*%
G04 #@! TD*
G04 #@! TA.AperFunction,SMDPad,CuDef*
%ADD32FreePoly7,180.000000*%
G04 #@! TD*
G04 #@! TA.AperFunction,SMDPad,CuDef*
%ADD33FreePoly8,180.000000*%
G04 #@! TD*
G04 #@! TA.AperFunction,SMDPad,CuDef*
%ADD34FreePoly9,180.000000*%
G04 #@! TD*
G04 #@! TA.AperFunction,SMDPad,CuDef*
%ADD35RoundRect,0.050000X0.050000X-0.225000X0.050000X0.225000X-0.050000X0.225000X-0.050000X-0.225000X0*%
G04 #@! TD*
G04 #@! TA.AperFunction,SMDPad,CuDef*
%ADD36RoundRect,0.050000X0.225000X0.050000X-0.225000X0.050000X-0.225000X-0.050000X0.225000X-0.050000X0*%
G04 #@! TD*
G04 #@! TA.AperFunction,ViaPad*
%ADD37C,0.600000*%
G04 #@! TD*
G04 #@! TA.AperFunction,Conductor*
%ADD38C,0.200000*%
G04 #@! TD*
G04 APERTURE END LIST*
D10*
X25750400Y-188518800D03*
X24790400Y-188518800D03*
D11*
X19860000Y-191135000D03*
D12*
X21860000Y-191135000D03*
X23860000Y-191135000D03*
X25860000Y-191135000D03*
D13*
X23876000Y-184912000D03*
X23876000Y-185872000D03*
X27813000Y-166398000D03*
X27813000Y-167358000D03*
D10*
X25750400Y-187248800D03*
X24790400Y-187248800D03*
D14*
X21717000Y-169160000D03*
X21717000Y-170180000D03*
D15*
X18796000Y-173609000D03*
X20066000Y-173609000D03*
X18796000Y-174879000D03*
X20066000Y-174879000D03*
X18796000Y-176149000D03*
X20066000Y-176149000D03*
D16*
X20574000Y-187960000D03*
D17*
X21874000Y-187960000D03*
D13*
X25247600Y-179606000D03*
X25247600Y-180566000D03*
D18*
X20574000Y-166826000D03*
X20074000Y-166826000D03*
X19574000Y-166826000D03*
X19074000Y-166826000D03*
X19074000Y-169926000D03*
X19574000Y-169926000D03*
X20074000Y-169926000D03*
X20574000Y-169926000D03*
D19*
X19899600Y-165100000D03*
X18879600Y-165100000D03*
D20*
X24116600Y-160859600D03*
X25076600Y-160859600D03*
D21*
X27305000Y-179898000D03*
X27305000Y-177398000D03*
D20*
X25273000Y-181610000D03*
X26233000Y-181610000D03*
D22*
X24450000Y-169666500D03*
X25400000Y-169666500D03*
X26350000Y-169666500D03*
X26350000Y-167391500D03*
X24450000Y-167391500D03*
D23*
X28194000Y-174622400D03*
X28194000Y-173662400D03*
X27813000Y-169997000D03*
X27813000Y-169037000D03*
D14*
X18923000Y-187450000D03*
X18923000Y-188470000D03*
D20*
X26684600Y-162687000D03*
X27644600Y-162687000D03*
D24*
X22225000Y-180255000D03*
X20955000Y-180255000D03*
X19685000Y-180255000D03*
X18415000Y-180255000D03*
X18415000Y-185505000D03*
X19685000Y-185505000D03*
X20955000Y-185505000D03*
X22225000Y-185505000D03*
D20*
X26755600Y-164973000D03*
X27715600Y-164973000D03*
D19*
X19899600Y-163957000D03*
X18879600Y-163957000D03*
D14*
X17907000Y-169795000D03*
X17907000Y-170815000D03*
D25*
X26508500Y-175236000D03*
D26*
X26448500Y-174736000D03*
X26448500Y-174236000D03*
X26448500Y-173736000D03*
X26448500Y-173236000D03*
X26448500Y-172736000D03*
D27*
X26508500Y-172236000D03*
D28*
X26011000Y-171738500D03*
D29*
X25511000Y-171798500D03*
X25011000Y-171798500D03*
X24511000Y-171798500D03*
X24011000Y-171798500D03*
X23511000Y-171798500D03*
D30*
X23011000Y-171738500D03*
D31*
X22513500Y-172236000D03*
D26*
X22573500Y-172736000D03*
X22573500Y-173236000D03*
X22573500Y-173736000D03*
X22573500Y-174236000D03*
X22573500Y-174736000D03*
D32*
X22513500Y-175236000D03*
D33*
X23011000Y-175733500D03*
D29*
X23511000Y-175673500D03*
X24011000Y-175673500D03*
X24511000Y-175673500D03*
X25011000Y-175673500D03*
X25511000Y-175673500D03*
D34*
X26011000Y-175733500D03*
D19*
X27648600Y-163830000D03*
X26628600Y-163830000D03*
D35*
X22495000Y-165076000D03*
X22895000Y-165076000D03*
X23295000Y-165076000D03*
X23695000Y-165076000D03*
X24095000Y-165076000D03*
X24495000Y-165076000D03*
D36*
X24995000Y-164576000D03*
X24995000Y-164176000D03*
X24995000Y-163776000D03*
X24995000Y-163376000D03*
X24995000Y-162976000D03*
X24995000Y-162576000D03*
D35*
X24495000Y-162076000D03*
X24095000Y-162076000D03*
X23695000Y-162076000D03*
X23295000Y-162076000D03*
X22895000Y-162076000D03*
X22495000Y-162076000D03*
D36*
X21995000Y-162576000D03*
X21995000Y-162976000D03*
X21995000Y-163376000D03*
X21995000Y-163776000D03*
X21995000Y-164176000D03*
X21995000Y-164576000D03*
D22*
X25659000Y-185414500D03*
X26609000Y-185414500D03*
X27559000Y-185414500D03*
X27559000Y-183139500D03*
X25659000Y-183139500D03*
D14*
X22860000Y-169162000D03*
X22860000Y-170182000D03*
D13*
X25247600Y-177675600D03*
X25247600Y-178635600D03*
D37*
X26720800Y-186791600D03*
X27025600Y-181610000D03*
X28575000Y-167386000D03*
X28152600Y-163195000D03*
X21040600Y-162976000D03*
X17907000Y-176149000D03*
X23825200Y-187096400D03*
X27330400Y-173583600D03*
X27813000Y-168148000D03*
X28152600Y-164465000D03*
X28575000Y-169037000D03*
X24485600Y-179120800D03*
X21844000Y-167132000D03*
X22564600Y-160910400D03*
X25400000Y-168656000D03*
X20701000Y-168910000D03*
X28289051Y-175381071D03*
X24384000Y-181610000D03*
X23876000Y-184023000D03*
X17907000Y-173609000D03*
X17907000Y-169037000D03*
X27813000Y-170815000D03*
X25400000Y-173355000D03*
X17907000Y-174879000D03*
X25993600Y-165101400D03*
X25739600Y-161672400D03*
X18034000Y-166886000D03*
X20989800Y-164415600D03*
X18796000Y-166116000D03*
X21452165Y-165172435D03*
D38*
X23825200Y-187096400D02*
X23825200Y-185922800D01*
X17907000Y-176149000D02*
X18796000Y-176149000D01*
X27178000Y-173736000D02*
X27330400Y-173583600D01*
X28152600Y-164664400D02*
X27715600Y-165101400D01*
X27813000Y-168148000D02*
X27813000Y-167358000D01*
X25400000Y-168656000D02*
X25400000Y-169666500D01*
X22564600Y-160910400D02*
X24065800Y-160910400D01*
X27330400Y-173583600D02*
X27381200Y-173634400D01*
X27381200Y-173634400D02*
X27966600Y-173634400D01*
X28152600Y-164465000D02*
X28152600Y-164664400D01*
X23825200Y-187096400D02*
X24638000Y-187096400D01*
X28152600Y-163195000D02*
X27644600Y-162687000D01*
X27841000Y-167386000D02*
X27813000Y-167358000D01*
X27648600Y-163699000D02*
X28152600Y-163195000D01*
X22564600Y-160910400D02*
X22495000Y-160980000D01*
X24638000Y-187096400D02*
X24790400Y-187248800D01*
X26448500Y-173736000D02*
X27178000Y-173736000D01*
X28575000Y-169037000D02*
X27813000Y-169037000D01*
X24800400Y-188528800D02*
X24790400Y-188518800D01*
X21040600Y-162976000D02*
X21995000Y-162976000D01*
X24485600Y-179120800D02*
X24762400Y-179120800D01*
X28152600Y-164465000D02*
X27773600Y-164086000D01*
X28575000Y-167386000D02*
X27841000Y-167386000D01*
X24762400Y-179120800D02*
X25247600Y-178635600D01*
X26609000Y-186679800D02*
X26609000Y-185414500D01*
X27025600Y-181610000D02*
X26233000Y-181610000D01*
X24065800Y-160910400D02*
X24116600Y-160859600D01*
X23825200Y-185922800D02*
X23876000Y-185872000D01*
X27813000Y-169037000D02*
X27813000Y-168148000D01*
X24790400Y-188518800D02*
X24790400Y-187248800D01*
X21538000Y-166826000D02*
X20574000Y-166826000D01*
X24970800Y-179606000D02*
X24485600Y-179120800D01*
X22495000Y-160980000D02*
X22495000Y-162076000D01*
X26720800Y-186791600D02*
X26609000Y-186679800D01*
X27773600Y-164086000D02*
X27773600Y-163958400D01*
X27648600Y-163830000D02*
X27648600Y-163699000D01*
X21844000Y-167132000D02*
X21538000Y-166826000D01*
X25247600Y-179606000D02*
X24970800Y-179606000D01*
X17907000Y-170815000D02*
X18844000Y-170815000D01*
X20828000Y-171831000D02*
X20066000Y-171069000D01*
X22121614Y-174236000D02*
X20828000Y-172942386D01*
X22573500Y-174236000D02*
X22121614Y-174236000D01*
X18844000Y-170815000D02*
X19074000Y-170585000D01*
X20828000Y-172942386D02*
X20828000Y-171831000D01*
X19074000Y-170585000D02*
X19074000Y-169926000D01*
X19558000Y-171069000D02*
X19074000Y-170585000D01*
X20066000Y-171069000D02*
X19558000Y-171069000D01*
X22573500Y-173736000D02*
X22121614Y-173736000D01*
X21463000Y-171704000D02*
X20510500Y-170751500D01*
X19649000Y-170601000D02*
X19574000Y-170526000D01*
X22987000Y-170180000D02*
X22352000Y-170815000D01*
X19574000Y-170526000D02*
X19574000Y-169926000D01*
X20574000Y-170815000D02*
X20510500Y-170751500D01*
X20360000Y-170601000D02*
X19649000Y-170601000D01*
X21463000Y-173077386D02*
X21463000Y-171704000D01*
X22352000Y-170815000D02*
X20574000Y-170815000D01*
X20510500Y-170751500D02*
X20360000Y-170601000D01*
X22121614Y-173736000D02*
X21463000Y-173077386D01*
X22818000Y-184912000D02*
X22225000Y-185505000D01*
X25273000Y-182753500D02*
X25273000Y-181610000D01*
X24384000Y-181610000D02*
X25273000Y-181610000D01*
X28289051Y-174716051D02*
X28067000Y-174494000D01*
X17907000Y-169037000D02*
X17907000Y-169795000D01*
X26350000Y-170328999D02*
X26350000Y-169666500D01*
X22356000Y-169160000D02*
X22987000Y-169160000D01*
X23876000Y-184023000D02*
X23876000Y-184912000D01*
X20701000Y-168910000D02*
X20953000Y-169162000D01*
X26049999Y-170629000D02*
X26350000Y-170328999D01*
X22352000Y-169164000D02*
X22348000Y-169160000D01*
X23886500Y-184912000D02*
X25659000Y-183139500D01*
X23876000Y-184912000D02*
X23886500Y-184912000D01*
X27813000Y-170815000D02*
X27813000Y-169997000D01*
X20953000Y-169162000D02*
X22860000Y-169162000D01*
X27482500Y-169666500D02*
X27813000Y-169997000D01*
X28289051Y-175381071D02*
X28289051Y-174716051D01*
X24750001Y-170629000D02*
X26049999Y-170629000D01*
X17907000Y-173609000D02*
X18796000Y-173609000D01*
X26350000Y-169666500D02*
X27482500Y-169666500D01*
X23876000Y-184912000D02*
X22818000Y-184912000D01*
X25659000Y-183139500D02*
X25273000Y-182753500D01*
X22348000Y-169160000D02*
X21717000Y-169160000D01*
X24450000Y-170328999D02*
X24750001Y-170629000D01*
X27734000Y-174236000D02*
X28143200Y-174645200D01*
X26448500Y-174236000D02*
X27734000Y-174236000D01*
X24450000Y-169666500D02*
X24450000Y-170328999D01*
X22352000Y-169164000D02*
X22356000Y-169160000D01*
X23019000Y-169192000D02*
X22987000Y-169160000D01*
X25750400Y-187248800D02*
X25750400Y-185505900D01*
X25750400Y-185505900D02*
X25659000Y-185414500D01*
X25750400Y-188518800D02*
X25750400Y-187248800D01*
X25860000Y-188628400D02*
X25750400Y-188518800D01*
X25659000Y-185414500D02*
X25659000Y-185061448D01*
X25659000Y-185061448D02*
X26268448Y-184452000D01*
X27104000Y-184452000D02*
X27559000Y-184907000D01*
X27559000Y-184907000D02*
X27559000Y-185414500D01*
X25860000Y-191135000D02*
X25860000Y-188628400D01*
X26268448Y-184452000D02*
X27104000Y-184452000D01*
X25525200Y-177398000D02*
X27305000Y-177398000D01*
X27110000Y-177203000D02*
X27305000Y-177398000D01*
X27305000Y-176032500D02*
X26508500Y-175236000D01*
X27305000Y-177398000D02*
X27305000Y-176032500D01*
X27107000Y-177200000D02*
X27305000Y-177398000D01*
X25247600Y-177675600D02*
X25525200Y-177398000D01*
X28505000Y-178698000D02*
X28505000Y-176318494D01*
X27705000Y-176295000D02*
X27705000Y-175518494D01*
X28505000Y-176318494D02*
X27728494Y-176318494D01*
X27705000Y-175518494D02*
X26922506Y-174736000D01*
X25247600Y-180566000D02*
X26637000Y-180566000D01*
X27305000Y-179898000D02*
X28505000Y-178698000D01*
X27728494Y-176318494D02*
X27705000Y-176295000D01*
X26637000Y-180566000D02*
X27305000Y-179898000D01*
X26922506Y-174736000D02*
X26448500Y-174736000D01*
X18744076Y-189230000D02*
X18161000Y-188646924D01*
X18544000Y-187450000D02*
X18923000Y-187450000D01*
X18161000Y-188646924D02*
X18161000Y-187833000D01*
X21860000Y-191135000D02*
X19955000Y-189230000D01*
X19685000Y-186688000D02*
X19685000Y-185505000D01*
X18923000Y-187450000D02*
X19685000Y-186688000D01*
X18161000Y-187833000D02*
X18544000Y-187450000D01*
X19955000Y-189230000D02*
X18744076Y-189230000D01*
X23860000Y-189946000D02*
X21874000Y-187960000D01*
X23860000Y-191135000D02*
X23860000Y-189946000D01*
X21874000Y-187205000D02*
X20955000Y-186286000D01*
X21874000Y-187960000D02*
X21874000Y-187205000D01*
X20955000Y-186286000D02*
X20955000Y-185505000D01*
X25519000Y-173236000D02*
X26448500Y-173236000D01*
X17907000Y-174879000D02*
X18796000Y-174879000D01*
X25400000Y-173355000D02*
X25519000Y-173236000D01*
X21193000Y-174736000D02*
X22573500Y-174736000D01*
X20066000Y-173609000D02*
X21193000Y-174736000D01*
X20423000Y-175236000D02*
X22513500Y-175236000D01*
X20066000Y-174879000D02*
X20423000Y-175236000D01*
X18415000Y-180255000D02*
X18415000Y-179437724D01*
X25011000Y-176341072D02*
X25011000Y-175673500D01*
X19017724Y-178835000D02*
X22517071Y-178835000D01*
X18415000Y-179437724D02*
X19017724Y-178835000D01*
X22517071Y-178835000D02*
X25011000Y-176341072D01*
X22225000Y-179762066D02*
X25511000Y-176476066D01*
X25511000Y-176476066D02*
X25511000Y-175673500D01*
X22225000Y-180255000D02*
X22225000Y-179762066D01*
X20955000Y-180255000D02*
X19685000Y-180255000D01*
X19069999Y-181695000D02*
X18389448Y-181695000D01*
X19685000Y-180255000D02*
X19685000Y-181079999D01*
X19685000Y-181079999D02*
X19069999Y-181695000D01*
X17815000Y-179389448D02*
X18769448Y-178435000D01*
X18389448Y-181695000D02*
X17815000Y-181120552D01*
X17815000Y-181120552D02*
X17815000Y-179389448D01*
X18769448Y-178435000D02*
X22351386Y-178435000D01*
X24511000Y-176275386D02*
X24511000Y-175673500D01*
X22351386Y-178435000D02*
X24511000Y-176275386D01*
X20064000Y-188470000D02*
X20574000Y-187960000D01*
X18923000Y-188470000D02*
X20064000Y-188470000D01*
X24995000Y-163376000D02*
X25558418Y-163376000D01*
X26581600Y-162687000D02*
X26755600Y-162861000D01*
X25558418Y-163376000D02*
X26247418Y-162687000D01*
X26247418Y-162687000D02*
X26581600Y-162687000D01*
X25993600Y-165847900D02*
X25993600Y-165101400D01*
X20074000Y-166235000D02*
X20431200Y-165877800D01*
X19899600Y-163957000D02*
X20389800Y-163957000D01*
X20786600Y-163776000D02*
X21995000Y-163776000D01*
X25076600Y-161494400D02*
X25076600Y-160859600D01*
X25739600Y-161672400D02*
X24898600Y-161672400D01*
X25993600Y-165101400D02*
X25993600Y-164803240D01*
X24874600Y-161696400D02*
X25076600Y-161494400D01*
X22936300Y-165877800D02*
X20431200Y-165877800D01*
X25366360Y-164176000D02*
X24995000Y-164176000D01*
X20074000Y-166826000D02*
X20074000Y-166235000D01*
X27813000Y-166398000D02*
X25443500Y-166398000D01*
X25993600Y-164803240D02*
X25366360Y-164176000D01*
X24495000Y-162076000D02*
X24874600Y-161696400D01*
X20389800Y-163817200D02*
X20431000Y-163776000D01*
X20431200Y-165877800D02*
X20431200Y-165141400D01*
X25739600Y-161672400D02*
X25739600Y-161522600D01*
X24450000Y-167391500D02*
X25993600Y-165847900D01*
X20431200Y-165141400D02*
X20389800Y-165100000D01*
X19899600Y-165100000D02*
X20389800Y-165100000D01*
X25993600Y-165101400D02*
X26755600Y-165101400D01*
X20389800Y-165100000D02*
X20389800Y-163957000D01*
X24450000Y-167391500D02*
X22936300Y-165877800D01*
X24898600Y-161672400D02*
X24874600Y-161696400D01*
X20389800Y-163957000D02*
X20389800Y-163817200D01*
X20431000Y-163776000D02*
X20786600Y-163776000D01*
X26571200Y-163776000D02*
X24995000Y-163776000D01*
X26753600Y-163958400D02*
X26571200Y-163776000D01*
X19499000Y-167501000D02*
X19574000Y-167426000D01*
X20989800Y-164415600D02*
X21229400Y-164176000D01*
X18034000Y-166886000D02*
X18649000Y-167501000D01*
X18649000Y-167501000D02*
X19499000Y-167501000D01*
X21229400Y-164176000D02*
X21995000Y-164176000D01*
X18034000Y-166886000D02*
X18034000Y-164802600D01*
X19574000Y-167426000D02*
X19574000Y-166826000D01*
X18034000Y-164802600D02*
X18879600Y-163957000D01*
X18796000Y-166548000D02*
X19074000Y-166826000D01*
X21452165Y-165118835D02*
X21995000Y-164576000D01*
X18754600Y-165225000D02*
X18879600Y-165100000D01*
X21452165Y-165172435D02*
X21452165Y-165118835D01*
X18796000Y-166116000D02*
X18796000Y-165183600D01*
X18796000Y-165183600D02*
X18879600Y-165100000D01*
X18796000Y-166116000D02*
X18796000Y-166548000D01*
X18796000Y-166116000D02*
X18800000Y-166112000D01*
X20574000Y-169926000D02*
X20074000Y-169926000D01*
X21717000Y-170180000D02*
X20828000Y-170180000D01*
X20828000Y-170180000D02*
X20574000Y-169926000D01*
G04 #@! TA.AperFunction,Conductor*
G36*
X23692764Y-159905185D02*
G01*
X23738519Y-159957989D01*
X23748463Y-160027147D01*
X23719438Y-160090703D01*
X23688846Y-160116232D01*
X23581225Y-160179878D01*
X23581216Y-160179885D01*
X23466885Y-160294216D01*
X23466878Y-160294225D01*
X23384568Y-160433404D01*
X23384566Y-160433409D01*
X23339455Y-160588681D01*
X23339454Y-160588687D01*
X23337809Y-160609599D01*
X23337810Y-160609600D01*
X24172100Y-160609600D01*
X24239139Y-160629285D01*
X24284894Y-160682089D01*
X24296100Y-160733600D01*
X24296100Y-160985600D01*
X24276415Y-161052639D01*
X24223611Y-161098394D01*
X24172100Y-161109600D01*
X23337810Y-161109600D01*
X23339454Y-161130513D01*
X23340120Y-161132802D01*
X23340116Y-161134135D01*
X23340593Y-161136746D01*
X23340108Y-161136834D01*
X23339923Y-161202671D01*
X23301982Y-161261342D01*
X23238345Y-161290187D01*
X23221045Y-161291400D01*
X21294600Y-161291400D01*
X21294600Y-162207368D01*
X21285954Y-162252858D01*
X21230123Y-162394434D01*
X21227523Y-162416089D01*
X21219500Y-162482898D01*
X21219500Y-162669102D01*
X21227245Y-162733599D01*
X21230814Y-162763321D01*
X21230814Y-162792887D01*
X21220000Y-162882945D01*
X21220000Y-163051500D01*
X21200315Y-163118539D01*
X21147511Y-163164294D01*
X21096000Y-163175500D01*
X20517670Y-163175500D01*
X20517654Y-163175499D01*
X20510058Y-163175499D01*
X20351943Y-163175499D01*
X20351940Y-163175499D01*
X20337176Y-163179455D01*
X20270491Y-163178755D01*
X20134808Y-163139335D01*
X20134802Y-163139334D01*
X20098781Y-163136500D01*
X19700430Y-163136500D01*
X19700408Y-163136501D01*
X19664394Y-163139335D01*
X19510211Y-163184129D01*
X19510204Y-163184132D01*
X19452719Y-163218128D01*
X19384995Y-163235309D01*
X19326481Y-163218128D01*
X19268995Y-163184132D01*
X19268988Y-163184129D01*
X19114808Y-163139335D01*
X19114802Y-163139334D01*
X19078781Y-163136500D01*
X18680430Y-163136500D01*
X18680408Y-163136501D01*
X18644394Y-163139335D01*
X18490211Y-163184129D01*
X18490206Y-163184131D01*
X18352004Y-163265863D01*
X18351996Y-163265869D01*
X18238469Y-163379396D01*
X18238463Y-163379404D01*
X18156731Y-163517606D01*
X18156729Y-163517611D01*
X18111935Y-163671791D01*
X18111934Y-163671797D01*
X18109100Y-163707811D01*
X18109100Y-163826902D01*
X18089415Y-163893941D01*
X18072781Y-163914583D01*
X17553481Y-164433882D01*
X17553479Y-164433885D01*
X17515599Y-164499497D01*
X17515598Y-164499498D01*
X17488286Y-164546804D01*
X17474423Y-164570815D01*
X17433499Y-164723543D01*
X17433499Y-164723545D01*
X17433499Y-164891646D01*
X17433500Y-164891659D01*
X17433500Y-166303587D01*
X17413815Y-166370626D01*
X17406450Y-166380896D01*
X17404186Y-166383734D01*
X17308211Y-166536476D01*
X17248631Y-166706745D01*
X17248630Y-166706750D01*
X17228435Y-166885996D01*
X17228435Y-166886003D01*
X17248630Y-167065249D01*
X17248631Y-167065254D01*
X17308211Y-167235523D01*
X17390376Y-167366287D01*
X17404184Y-167388262D01*
X17531738Y-167515816D01*
X17684478Y-167611789D01*
X17854745Y-167671368D01*
X17941669Y-167681161D01*
X18006080Y-167708226D01*
X18015465Y-167716700D01*
X18164139Y-167865374D01*
X18164149Y-167865385D01*
X18168479Y-167869715D01*
X18168480Y-167869716D01*
X18280284Y-167981520D01*
X18280286Y-167981521D01*
X18280290Y-167981524D01*
X18417209Y-168060573D01*
X18417216Y-168060577D01*
X18529019Y-168090534D01*
X18569942Y-168101500D01*
X18569943Y-168101500D01*
X19412331Y-168101500D01*
X19412347Y-168101501D01*
X19419943Y-168101501D01*
X19578054Y-168101501D01*
X19578057Y-168101501D01*
X19730785Y-168060577D01*
X19780904Y-168031639D01*
X19867716Y-167981520D01*
X19979520Y-167869716D01*
X20054520Y-167794716D01*
X20072542Y-167763499D01*
X20123109Y-167715284D01*
X20179930Y-167701499D01*
X20246871Y-167701499D01*
X20246872Y-167701499D01*
X20306483Y-167695091D01*
X20306483Y-167695090D01*
X20313096Y-167694380D01*
X20339607Y-167694381D01*
X20401157Y-167700999D01*
X20401172Y-167701000D01*
X20449000Y-167701000D01*
X20449051Y-167700948D01*
X20468685Y-167634084D01*
X20498691Y-167601856D01*
X20500697Y-167600353D01*
X20566161Y-167575941D01*
X20634433Y-167590797D01*
X20683836Y-167640205D01*
X20699000Y-167699626D01*
X20699000Y-167701000D01*
X20746828Y-167701000D01*
X20746844Y-167700999D01*
X20806372Y-167694598D01*
X20806379Y-167694596D01*
X20941086Y-167644354D01*
X20941093Y-167644350D01*
X21056187Y-167558190D01*
X21056190Y-167558187D01*
X21142350Y-167443093D01*
X21142354Y-167443086D01*
X21192596Y-167308379D01*
X21192598Y-167308372D01*
X21198999Y-167248844D01*
X21199000Y-167248827D01*
X21199000Y-166951000D01*
X20823500Y-166951000D01*
X20756461Y-166931315D01*
X20710706Y-166878511D01*
X20699500Y-166827062D01*
X20699499Y-166825062D01*
X20719150Y-166758013D01*
X20771931Y-166712231D01*
X20823499Y-166701000D01*
X21199000Y-166701000D01*
X21199000Y-166602300D01*
X21218685Y-166535261D01*
X21271489Y-166489506D01*
X21323000Y-166478300D01*
X22636203Y-166478300D01*
X22703242Y-166497985D01*
X22723884Y-166514619D01*
X23613181Y-167403916D01*
X23646666Y-167465239D01*
X23649500Y-167491597D01*
X23649500Y-167969701D01*
X23652401Y-168006567D01*
X23652402Y-168006573D01*
X23698254Y-168164393D01*
X23698255Y-168164396D01*
X23781917Y-168305862D01*
X23781923Y-168305870D01*
X23898129Y-168422076D01*
X23898140Y-168422085D01*
X23898455Y-168422271D01*
X23898650Y-168422480D01*
X23904298Y-168426861D01*
X23903591Y-168427772D01*
X23946136Y-168473343D01*
X23958637Y-168542085D01*
X23931988Y-168606673D01*
X23904078Y-168630856D01*
X23904298Y-168631139D01*
X23899092Y-168635176D01*
X23898455Y-168635729D01*
X23898140Y-168635914D01*
X23898133Y-168635920D01*
X23793688Y-168740365D01*
X23732365Y-168773849D01*
X23662673Y-168768865D01*
X23606740Y-168726993D01*
X23599285Y-168715820D01*
X23551135Y-168634402D01*
X23551132Y-168634399D01*
X23551130Y-168634396D01*
X23437603Y-168520869D01*
X23437595Y-168520863D01*
X23299393Y-168439131D01*
X23299388Y-168439129D01*
X23145208Y-168394335D01*
X23145202Y-168394334D01*
X23109181Y-168391500D01*
X22610830Y-168391500D01*
X22610808Y-168391501D01*
X22574794Y-168394335D01*
X22420611Y-168439129D01*
X22420601Y-168439133D01*
X22353309Y-168478929D01*
X22285585Y-168496110D01*
X22227070Y-168478929D01*
X22156391Y-168437130D01*
X22156388Y-168437129D01*
X22002208Y-168392335D01*
X22002202Y-168392334D01*
X21966181Y-168389500D01*
X21467830Y-168389500D01*
X21467808Y-168389501D01*
X21431796Y-168392335D01*
X21431792Y-168392335D01*
X21412027Y-168398077D01*
X21342158Y-168397874D01*
X21289758Y-168366680D01*
X21203262Y-168280184D01*
X21050523Y-168184211D01*
X20880254Y-168124631D01*
X20880249Y-168124630D01*
X20701004Y-168104435D01*
X20700996Y-168104435D01*
X20521750Y-168124630D01*
X20521745Y-168124631D01*
X20351476Y-168184211D01*
X20198737Y-168280184D01*
X20071184Y-168407737D01*
X19975211Y-168560476D01*
X19915631Y-168730745D01*
X19915630Y-168730750D01*
X19895435Y-168909996D01*
X19895435Y-168910000D01*
X19895963Y-168914688D01*
X19883905Y-168983510D01*
X19836554Y-169034887D01*
X19768943Y-169052509D01*
X19759505Y-169051858D01*
X19746873Y-169050500D01*
X19746865Y-169050500D01*
X19401130Y-169050500D01*
X19401120Y-169050501D01*
X19337248Y-169057367D01*
X19310742Y-169057367D01*
X19306483Y-169056909D01*
X19246873Y-169050500D01*
X19246865Y-169050500D01*
X18901130Y-169050500D01*
X18901123Y-169050501D01*
X18838985Y-169057181D01*
X18770226Y-169044774D01*
X18719089Y-168997163D01*
X18702512Y-168947774D01*
X18692369Y-168857750D01*
X18692368Y-168857745D01*
X18667613Y-168787000D01*
X18632789Y-168687478D01*
X18536816Y-168534738D01*
X18409262Y-168407184D01*
X18385630Y-168392335D01*
X18256523Y-168311211D01*
X18086254Y-168251631D01*
X18086249Y-168251630D01*
X17907004Y-168231435D01*
X17906996Y-168231435D01*
X17727750Y-168251630D01*
X17727745Y-168251631D01*
X17557476Y-168311211D01*
X17404737Y-168407184D01*
X17277184Y-168534737D01*
X17181211Y-168687476D01*
X17121631Y-168857745D01*
X17121630Y-168857750D01*
X17101435Y-169036996D01*
X17101435Y-169037003D01*
X17121631Y-169216252D01*
X17148857Y-169294062D01*
X17152418Y-169363841D01*
X17138552Y-169398128D01*
X17134135Y-169405596D01*
X17134129Y-169405611D01*
X17089335Y-169559791D01*
X17089334Y-169559797D01*
X17086500Y-169595811D01*
X17086500Y-169994169D01*
X17086501Y-169994191D01*
X17089335Y-170030205D01*
X17134129Y-170184388D01*
X17134132Y-170184395D01*
X17168128Y-170241881D01*
X17185309Y-170309605D01*
X17168128Y-170368119D01*
X17134132Y-170425604D01*
X17134129Y-170425611D01*
X17089335Y-170579791D01*
X17089334Y-170579797D01*
X17086500Y-170615811D01*
X17086500Y-171014169D01*
X17086501Y-171014191D01*
X17089335Y-171050205D01*
X17134129Y-171204388D01*
X17134131Y-171204393D01*
X17215863Y-171342595D01*
X17215869Y-171342603D01*
X17329396Y-171456130D01*
X17329400Y-171456133D01*
X17329402Y-171456135D01*
X17467607Y-171537869D01*
X17477658Y-171540789D01*
X17621791Y-171582664D01*
X17621794Y-171582664D01*
X17621796Y-171582665D01*
X17657819Y-171585500D01*
X18156180Y-171585499D01*
X18192204Y-171582665D01*
X18346393Y-171537869D01*
X18484598Y-171456135D01*
X18484603Y-171456130D01*
X18488915Y-171451819D01*
X18550238Y-171418334D01*
X18576596Y-171415500D01*
X18757331Y-171415500D01*
X18757347Y-171415501D01*
X18764943Y-171415501D01*
X18923054Y-171415501D01*
X18923057Y-171415501D01*
X18958173Y-171406091D01*
X19028018Y-171407752D01*
X19077947Y-171438184D01*
X19116291Y-171476528D01*
X19149776Y-171537851D01*
X19144792Y-171607543D01*
X19102920Y-171663476D01*
X19082918Y-171674868D01*
X19083101Y-171675210D01*
X19077724Y-171678083D01*
X18955580Y-171759698D01*
X18955576Y-171759701D01*
X18851701Y-171863576D01*
X18851698Y-171863580D01*
X18770083Y-171985724D01*
X18770078Y-171985733D01*
X18713861Y-172121455D01*
X18713858Y-172121465D01*
X18685200Y-172265540D01*
X18685200Y-172412459D01*
X18713858Y-172556534D01*
X18713862Y-172556548D01*
X18716094Y-172561936D01*
X18723563Y-172631405D01*
X18692288Y-172693884D01*
X18632199Y-172729536D01*
X18627314Y-172730678D01*
X18518155Y-172753879D01*
X18518153Y-172753880D01*
X18346438Y-172830333D01*
X18346436Y-172830334D01*
X18320625Y-172849086D01*
X18254818Y-172872564D01*
X18206789Y-172865808D01*
X18086257Y-172823632D01*
X18086249Y-172823630D01*
X17907004Y-172803435D01*
X17906996Y-172803435D01*
X17727750Y-172823630D01*
X17727745Y-172823631D01*
X17557476Y-172883211D01*
X17404737Y-172979184D01*
X17277184Y-173106737D01*
X17181211Y-173259476D01*
X17121631Y-173429745D01*
X17121630Y-173429750D01*
X17101435Y-173608996D01*
X17101435Y-173609003D01*
X17121630Y-173788249D01*
X17121631Y-173788254D01*
X17181211Y-173958523D01*
X17277184Y-174111262D01*
X17277185Y-174111263D01*
X17322241Y-174156320D01*
X17355725Y-174217643D01*
X17350740Y-174287335D01*
X17322241Y-174331680D01*
X17277184Y-174376737D01*
X17181211Y-174529476D01*
X17121631Y-174699745D01*
X17121630Y-174699750D01*
X17101435Y-174878996D01*
X17101435Y-174879003D01*
X17121630Y-175058249D01*
X17121631Y-175058254D01*
X17181211Y-175228523D01*
X17277061Y-175381067D01*
X17277184Y-175381262D01*
X17404738Y-175508816D01*
X17486706Y-175560320D01*
X17548288Y-175599015D01*
X17557478Y-175604789D01*
X17708592Y-175657666D01*
X17727745Y-175664368D01*
X17727750Y-175664369D01*
X17832227Y-175676140D01*
X17852666Y-175678443D01*
X17917080Y-175705509D01*
X17956635Y-175763104D01*
X17958773Y-175832941D01*
X17956714Y-175839981D01*
X17917015Y-175962162D01*
X17897377Y-176149000D01*
X17917015Y-176335837D01*
X17975064Y-176514497D01*
X17975067Y-176514503D01*
X18042604Y-176631480D01*
X18059077Y-176699380D01*
X18036224Y-176765407D01*
X18004108Y-176796582D01*
X17939580Y-176839698D01*
X17939576Y-176839701D01*
X17835701Y-176943576D01*
X17835698Y-176943580D01*
X17754083Y-177065724D01*
X17754078Y-177065733D01*
X17697861Y-177201455D01*
X17697858Y-177201465D01*
X17669200Y-177345540D01*
X17669200Y-177492459D01*
X17697858Y-177636534D01*
X17697861Y-177636544D01*
X17754078Y-177772266D01*
X17754083Y-177772275D01*
X17835698Y-177894419D01*
X17835701Y-177894423D01*
X17939576Y-177998298D01*
X17939580Y-177998301D01*
X18064121Y-178081517D01*
X18108926Y-178135129D01*
X18117633Y-178204454D01*
X18087479Y-178267481D01*
X18082911Y-178272300D01*
X17446286Y-178908926D01*
X17334481Y-179020730D01*
X17334479Y-179020733D01*
X17284361Y-179107542D01*
X17284359Y-179107544D01*
X17255425Y-179157657D01*
X17255424Y-179157658D01*
X17247100Y-179188724D01*
X17214499Y-179310391D01*
X17214499Y-179310393D01*
X17214499Y-179478494D01*
X17214500Y-179478507D01*
X17214500Y-181033882D01*
X17214499Y-181033900D01*
X17214499Y-181199606D01*
X17214498Y-181199606D01*
X17255423Y-181352337D01*
X17284358Y-181402452D01*
X17284359Y-181402456D01*
X17284360Y-181402456D01*
X17334479Y-181489266D01*
X17334481Y-181489269D01*
X17453349Y-181608137D01*
X17453355Y-181608142D01*
X17904587Y-182059374D01*
X17904597Y-182059385D01*
X17908927Y-182063715D01*
X17908928Y-182063716D01*
X18020732Y-182175520D01*
X18106660Y-182225129D01*
X18107543Y-182225639D01*
X18107545Y-182225641D01*
X18132097Y-182239816D01*
X18157663Y-182254577D01*
X18310391Y-182295500D01*
X18468505Y-182295500D01*
X18983330Y-182295500D01*
X18983346Y-182295501D01*
X18990942Y-182295501D01*
X19149053Y-182295501D01*
X19149056Y-182295501D01*
X19301784Y-182254577D01*
X19351903Y-182225639D01*
X19438715Y-182175520D01*
X19550519Y-182063716D01*
X19550519Y-182063714D01*
X19560727Y-182053507D01*
X19560728Y-182053504D01*
X20055918Y-181558314D01*
X20088823Y-181535955D01*
X20088682Y-181535716D01*
X20092487Y-181533465D01*
X20094363Y-181532191D01*
X20095385Y-181531747D01*
X20095398Y-181531744D01*
X20236865Y-181448081D01*
X20236869Y-181448076D01*
X20243031Y-181443298D01*
X20244933Y-181445750D01*
X20293579Y-181419155D01*
X20363274Y-181424104D01*
X20395695Y-181444940D01*
X20396969Y-181443298D01*
X20403132Y-181448078D01*
X20403135Y-181448081D01*
X20544602Y-181531744D01*
X20562793Y-181537029D01*
X20702426Y-181577597D01*
X20702429Y-181577597D01*
X20702431Y-181577598D01*
X20739306Y-181580500D01*
X20739314Y-181580500D01*
X21170686Y-181580500D01*
X21170694Y-181580500D01*
X21207569Y-181577598D01*
X21207571Y-181577597D01*
X21207573Y-181577597D01*
X21273934Y-181558317D01*
X21365398Y-181531744D01*
X21506865Y-181448081D01*
X21506870Y-181448075D01*
X21513031Y-181443298D01*
X21514933Y-181445750D01*
X21563579Y-181419155D01*
X21633274Y-181424104D01*
X21665695Y-181444940D01*
X21666969Y-181443298D01*
X21673132Y-181448078D01*
X21673135Y-181448081D01*
X21814602Y-181531744D01*
X21832793Y-181537029D01*
X21972426Y-181577597D01*
X21972429Y-181577597D01*
X21972431Y-181577598D01*
X22009306Y-181580500D01*
X22009314Y-181580500D01*
X22440686Y-181580500D01*
X22440694Y-181580500D01*
X22477569Y-181577598D01*
X22477571Y-181577597D01*
X22477573Y-181577597D01*
X22543934Y-181558317D01*
X22635398Y-181531744D01*
X22776865Y-181448081D01*
X22893081Y-181331865D01*
X22976744Y-181190398D01*
X23016875Y-181052267D01*
X23022597Y-181032573D01*
X23022598Y-181032567D01*
X23025499Y-180995701D01*
X23025500Y-180995694D01*
X23025500Y-179862162D01*
X23045185Y-179795123D01*
X23061814Y-179774486D01*
X23950699Y-178885600D01*
X24443096Y-178885600D01*
X24485568Y-179031795D01*
X24485569Y-179031798D01*
X24500876Y-179057681D01*
X24518057Y-179125406D01*
X24500876Y-179183919D01*
X24485569Y-179209801D01*
X24485568Y-179209804D01*
X24443096Y-179356000D01*
X24997600Y-179356000D01*
X24997600Y-178885600D01*
X24443096Y-178885600D01*
X23950699Y-178885600D01*
X24414381Y-178421918D01*
X24475704Y-178388434D01*
X24502062Y-178385600D01*
X24749248Y-178385600D01*
X24812366Y-178402867D01*
X24821205Y-178408094D01*
X24821208Y-178408094D01*
X24821210Y-178408096D01*
X24976602Y-178453242D01*
X24976605Y-178453242D01*
X24976607Y-178453243D01*
X25012910Y-178456100D01*
X25012918Y-178456100D01*
X25482282Y-178456100D01*
X25482290Y-178456100D01*
X25518593Y-178453243D01*
X25518595Y-178453242D01*
X25518597Y-178453242D01*
X25673989Y-178408096D01*
X25673989Y-178408095D01*
X25673995Y-178408094D01*
X25682833Y-178402867D01*
X25745952Y-178385600D01*
X26056630Y-178385600D01*
X26102326Y-178351492D01*
X26172025Y-178346606D01*
X26188829Y-178351553D01*
X26297517Y-178392091D01*
X26297516Y-178392091D01*
X26304444Y-178392835D01*
X26357127Y-178398500D01*
X27655903Y-178398499D01*
X27722942Y-178418184D01*
X27768697Y-178470987D01*
X27778641Y-178540146D01*
X27749616Y-178603702D01*
X27743584Y-178610180D01*
X27492583Y-178861181D01*
X27431260Y-178894666D01*
X27404902Y-178897500D01*
X26357129Y-178897500D01*
X26357123Y-178897501D01*
X26297514Y-178903909D01*
X26203375Y-178939020D01*
X26133683Y-178944004D01*
X26072361Y-178910518D01*
X26060882Y-178897290D01*
X26052105Y-178885600D01*
X25497600Y-178885600D01*
X25497600Y-179661500D01*
X25477915Y-179728539D01*
X25425111Y-179774294D01*
X25373600Y-179785500D01*
X25012902Y-179785500D01*
X24976608Y-179788356D01*
X24976602Y-179788357D01*
X24821210Y-179833503D01*
X24821205Y-179833506D01*
X24812366Y-179838732D01*
X24749248Y-179856000D01*
X24443096Y-179856000D01*
X24485568Y-180002194D01*
X24497511Y-180022389D01*
X24514692Y-180090113D01*
X24497511Y-180148628D01*
X24485106Y-180169604D01*
X24485104Y-180169609D01*
X24439957Y-180325002D01*
X24439956Y-180325008D01*
X24437100Y-180361302D01*
X24437100Y-180687638D01*
X24417415Y-180754677D01*
X24364611Y-180800432D01*
X24326984Y-180810858D01*
X24204749Y-180824630D01*
X24204745Y-180824631D01*
X24034476Y-180884211D01*
X23881737Y-180980184D01*
X23754184Y-181107737D01*
X23658211Y-181260476D01*
X23598631Y-181430745D01*
X23598630Y-181430750D01*
X23578435Y-181609996D01*
X23578435Y-181610003D01*
X23598630Y-181789249D01*
X23598631Y-181789254D01*
X23658211Y-181959523D01*
X23723680Y-182063716D01*
X23754184Y-182112262D01*
X23881738Y-182239816D01*
X24034478Y-182335789D01*
X24204745Y-182395368D01*
X24204750Y-182395369D01*
X24383996Y-182415565D01*
X24384000Y-182415565D01*
X24384003Y-182415565D01*
X24534616Y-182398595D01*
X24603438Y-182410649D01*
X24654818Y-182457998D01*
X24672500Y-182521815D01*
X24672500Y-182666830D01*
X24672499Y-182666848D01*
X24672499Y-182832554D01*
X24672498Y-182832554D01*
X24713423Y-182985285D01*
X24742358Y-183035400D01*
X24742359Y-183035406D01*
X24742361Y-183035406D01*
X24757560Y-183061733D01*
X24774030Y-183129633D01*
X24751177Y-183195660D01*
X24737852Y-183211411D01*
X24554852Y-183394412D01*
X24493529Y-183427897D01*
X24423838Y-183422913D01*
X24383918Y-183397257D01*
X24383705Y-183397525D01*
X24381094Y-183395443D01*
X24379490Y-183394412D01*
X24378262Y-183393184D01*
X24225523Y-183297211D01*
X24055254Y-183237631D01*
X24055249Y-183237630D01*
X23876004Y-183217435D01*
X23875996Y-183217435D01*
X23696750Y-183237630D01*
X23696745Y-183237631D01*
X23526476Y-183297211D01*
X23373737Y-183393184D01*
X23246184Y-183520737D01*
X23150211Y-183673476D01*
X23090631Y-183843745D01*
X23090630Y-183843750D01*
X23070435Y-184022996D01*
X23070435Y-184023002D01*
X23087405Y-184173616D01*
X23075351Y-184242438D01*
X23028002Y-184293818D01*
X22964185Y-184311500D01*
X22904670Y-184311500D01*
X22904654Y-184311499D01*
X22897058Y-184311499D01*
X22810077Y-184311499D01*
X22746956Y-184294231D01*
X22678496Y-184253744D01*
X22635398Y-184228256D01*
X22635397Y-184228255D01*
X22635396Y-184228255D01*
X22635393Y-184228254D01*
X22477573Y-184182402D01*
X22477567Y-184182401D01*
X22440701Y-184179500D01*
X22440694Y-184179500D01*
X22009306Y-184179500D01*
X22009298Y-184179500D01*
X21972432Y-184182401D01*
X21972426Y-184182402D01*
X21814606Y-184228254D01*
X21814603Y-184228255D01*
X21673137Y-184311917D01*
X21666969Y-184316702D01*
X21665072Y-184314256D01*
X21616358Y-184340857D01*
X21546666Y-184335873D01*
X21514296Y-184315069D01*
X21513031Y-184316702D01*
X21506862Y-184311917D01*
X21408496Y-184253744D01*
X21365398Y-184228256D01*
X21365397Y-184228255D01*
X21365396Y-184228255D01*
X21365393Y-184228254D01*
X21207573Y-184182402D01*
X21207567Y-184182401D01*
X21170701Y-184179500D01*
X21170694Y-184179500D01*
X20739306Y-184179500D01*
X20739298Y-184179500D01*
X20702432Y-184182401D01*
X20702426Y-184182402D01*
X20544606Y-184228254D01*
X20544603Y-184228255D01*
X20403137Y-184311917D01*
X20396969Y-184316702D01*
X20395072Y-184314256D01*
X20346358Y-184340857D01*
X20276666Y-184335873D01*
X20244296Y-184315069D01*
X20243031Y-184316702D01*
X20236862Y-184311917D01*
X20138496Y-184253744D01*
X20095398Y-184228256D01*
X20095397Y-184228255D01*
X20095396Y-184228255D01*
X20095393Y-184228254D01*
X19937573Y-184182402D01*
X19937567Y-184182401D01*
X19900701Y-184179500D01*
X19900694Y-184179500D01*
X19469306Y-184179500D01*
X19469298Y-184179500D01*
X19432432Y-184182401D01*
X19432426Y-184182402D01*
X19274606Y-184228254D01*
X19274603Y-184228255D01*
X19133140Y-184311915D01*
X19126974Y-184316699D01*
X19125174Y-184314379D01*
X19075913Y-184341230D01*
X19006225Y-184336193D01*
X18973992Y-184315461D01*
X18972722Y-184317100D01*
X18966552Y-184312314D01*
X18825196Y-184228717D01*
X18825193Y-184228716D01*
X18667494Y-184182900D01*
X18667497Y-184182900D01*
X18665000Y-184182703D01*
X18665000Y-185631000D01*
X18645315Y-185698039D01*
X18592511Y-185743794D01*
X18541000Y-185755000D01*
X17615000Y-185755000D01*
X17615000Y-186245649D01*
X17617899Y-186282489D01*
X17617900Y-186282495D01*
X17663716Y-186440193D01*
X17663717Y-186440196D01*
X17747314Y-186581552D01*
X17747321Y-186581561D01*
X17863438Y-186697678D01*
X17863447Y-186697685D01*
X18004802Y-186781281D01*
X18081386Y-186803531D01*
X18140272Y-186841137D01*
X18169479Y-186904610D01*
X18159733Y-186973796D01*
X18134473Y-187010289D01*
X17785217Y-187359546D01*
X17785214Y-187359548D01*
X17785215Y-187359549D01*
X17680478Y-187464286D01*
X17680475Y-187464290D01*
X17643084Y-187529055D01*
X17643084Y-187529057D01*
X17601423Y-187601214D01*
X17591550Y-187638060D01*
X17560499Y-187753943D01*
X17560499Y-187753945D01*
X17560499Y-187922046D01*
X17560500Y-187922059D01*
X17560500Y-188560254D01*
X17560499Y-188560272D01*
X17560499Y-188725978D01*
X17560498Y-188725978D01*
X17601423Y-188878711D01*
X17606507Y-188887516D01*
X17606509Y-188887518D01*
X17680477Y-189015636D01*
X17680481Y-189015641D01*
X17799349Y-189134509D01*
X17799355Y-189134514D01*
X18259215Y-189594374D01*
X18259225Y-189594385D01*
X18263555Y-189598715D01*
X18263556Y-189598716D01*
X18375360Y-189710520D01*
X18460197Y-189759500D01*
X18512291Y-189789577D01*
X18665019Y-189830501D01*
X18665022Y-189830501D01*
X18829476Y-189830501D01*
X18896515Y-189850186D01*
X18942270Y-189902990D01*
X18952214Y-189972148D01*
X18923189Y-190035704D01*
X18917887Y-190041397D01*
X18917684Y-190041653D01*
X18825643Y-190190875D01*
X18825641Y-190190880D01*
X18770494Y-190357302D01*
X18770493Y-190357309D01*
X18760000Y-190460013D01*
X18760000Y-190885000D01*
X19579670Y-190885000D01*
X19559925Y-190904745D01*
X19510556Y-190990255D01*
X19485000Y-191085630D01*
X19485000Y-191184370D01*
X19510556Y-191279745D01*
X19559925Y-191365255D01*
X19579670Y-191385000D01*
X18760001Y-191385000D01*
X18760001Y-191809986D01*
X18770494Y-191912697D01*
X18825641Y-192079119D01*
X18825643Y-192079124D01*
X18917684Y-192228345D01*
X19041654Y-192352315D01*
X19190875Y-192444356D01*
X19190880Y-192444358D01*
X19357302Y-192499505D01*
X19357309Y-192499506D01*
X19460019Y-192509999D01*
X19609999Y-192509999D01*
X19610000Y-192509998D01*
X19610000Y-191415330D01*
X19629745Y-191435075D01*
X19715255Y-191484444D01*
X19810630Y-191510000D01*
X19909370Y-191510000D01*
X20004745Y-191484444D01*
X20090255Y-191435075D01*
X20110000Y-191415330D01*
X20110000Y-192509999D01*
X20259972Y-192509999D01*
X20259986Y-192509998D01*
X20362697Y-192499505D01*
X20529119Y-192444358D01*
X20529124Y-192444356D01*
X20678345Y-192352315D01*
X20802315Y-192228345D01*
X20841945Y-192164094D01*
X20893893Y-192117368D01*
X20962855Y-192106145D01*
X21026937Y-192133988D01*
X21035166Y-192141508D01*
X21143072Y-192249414D01*
X21283212Y-192351232D01*
X21437555Y-192429873D01*
X21602299Y-192483402D01*
X21773389Y-192510500D01*
X21773390Y-192510500D01*
X21946610Y-192510500D01*
X21946611Y-192510500D01*
X22117701Y-192483402D01*
X22282445Y-192429873D01*
X22436788Y-192351232D01*
X22576928Y-192249414D01*
X22699414Y-192126928D01*
X22759682Y-192043975D01*
X22815012Y-192001311D01*
X22884626Y-191995332D01*
X22946421Y-192027938D01*
X22960315Y-192043973D01*
X23020586Y-192126928D01*
X23143072Y-192249414D01*
X23283212Y-192351232D01*
X23437555Y-192429873D01*
X23602299Y-192483402D01*
X23773389Y-192510500D01*
X23773390Y-192510500D01*
X23946610Y-192510500D01*
X23946611Y-192510500D01*
X24117701Y-192483402D01*
X24282445Y-192429873D01*
X24436788Y-192351232D01*
X24576928Y-192249414D01*
X24699414Y-192126928D01*
X24759682Y-192043975D01*
X24815012Y-192001311D01*
X24884626Y-191995332D01*
X24946421Y-192027938D01*
X24960315Y-192043973D01*
X25020586Y-192126928D01*
X25143072Y-192249414D01*
X25283212Y-192351232D01*
X25437555Y-192429873D01*
X25602299Y-192483402D01*
X25773389Y-192510500D01*
X25773390Y-192510500D01*
X25946610Y-192510500D01*
X25946611Y-192510500D01*
X26117701Y-192483402D01*
X26282445Y-192429873D01*
X26436788Y-192351232D01*
X26576928Y-192249414D01*
X26699414Y-192126928D01*
X26801232Y-191986788D01*
X26879873Y-191832445D01*
X26933402Y-191667701D01*
X26960500Y-191496611D01*
X26960500Y-190773389D01*
X26933402Y-190602299D01*
X26879873Y-190437555D01*
X26801232Y-190283212D01*
X26699414Y-190143072D01*
X26576928Y-190020586D01*
X26511613Y-189973131D01*
X26468948Y-189917801D01*
X26460500Y-189872814D01*
X26460500Y-189016983D01*
X26477767Y-188953863D01*
X26482894Y-188945195D01*
X26528043Y-188789793D01*
X26530900Y-188753490D01*
X26530900Y-188284110D01*
X26528043Y-188247807D01*
X26482894Y-188092405D01*
X26400517Y-187953113D01*
X26400516Y-187953112D01*
X26396855Y-187946921D01*
X26379672Y-187879197D01*
X26396855Y-187820679D01*
X26436321Y-187753945D01*
X26482894Y-187675195D01*
X26528043Y-187519793D01*
X26530900Y-187483490D01*
X26530900Y-187014110D01*
X26528043Y-186977807D01*
X26482894Y-186822405D01*
X26400517Y-186683113D01*
X26400515Y-186683111D01*
X26400512Y-186683107D01*
X26395319Y-186677914D01*
X26361834Y-186616591D01*
X26359000Y-186590233D01*
X26359000Y-186308814D01*
X26376267Y-186245694D01*
X26410744Y-186187398D01*
X26456598Y-186029569D01*
X26459500Y-185992694D01*
X26459500Y-185288500D01*
X26479185Y-185221461D01*
X26531989Y-185175706D01*
X26583500Y-185164500D01*
X26634500Y-185164500D01*
X26701539Y-185184185D01*
X26747294Y-185236989D01*
X26758500Y-185288500D01*
X26758500Y-185992701D01*
X26761401Y-186029567D01*
X26761402Y-186029573D01*
X26807254Y-186187393D01*
X26807255Y-186187396D01*
X26807256Y-186187398D01*
X26841732Y-186245694D01*
X26859000Y-186308814D01*
X26859000Y-186574295D01*
X26859001Y-186574295D01*
X26861486Y-186574100D01*
X27019197Y-186528281D01*
X27020382Y-186527581D01*
X27021436Y-186527313D01*
X27026357Y-186525184D01*
X27026700Y-186525977D01*
X27088105Y-186510395D01*
X27141289Y-186526008D01*
X27141446Y-186525647D01*
X27144371Y-186526913D01*
X27146624Y-186527574D01*
X27148602Y-186528744D01*
X27148604Y-186528744D01*
X27148605Y-186528745D01*
X27306426Y-186574597D01*
X27306429Y-186574597D01*
X27306431Y-186574598D01*
X27343306Y-186577500D01*
X27343314Y-186577500D01*
X27774686Y-186577500D01*
X27774694Y-186577500D01*
X27811569Y-186574598D01*
X27811571Y-186574597D01*
X27811573Y-186574597D01*
X27853191Y-186562505D01*
X27969398Y-186528744D01*
X28110865Y-186445081D01*
X28227081Y-186328865D01*
X28310744Y-186187398D01*
X28356598Y-186029569D01*
X28359500Y-185992694D01*
X28359500Y-184836306D01*
X28356598Y-184799431D01*
X28351234Y-184780969D01*
X28310745Y-184641606D01*
X28310744Y-184641603D01*
X28310744Y-184641602D01*
X28227081Y-184500135D01*
X28227079Y-184500133D01*
X28227076Y-184500129D01*
X28110870Y-184383923D01*
X28110867Y-184383921D01*
X28110865Y-184383919D01*
X28110549Y-184383732D01*
X28110353Y-184383522D01*
X28104702Y-184379139D01*
X28105409Y-184378227D01*
X28062866Y-184332664D01*
X28050362Y-184263923D01*
X28077006Y-184199333D01*
X28104921Y-184175144D01*
X28104702Y-184174861D01*
X28109911Y-184170820D01*
X28110550Y-184170267D01*
X28110865Y-184170081D01*
X28227081Y-184053865D01*
X28310744Y-183912398D01*
X28356598Y-183754569D01*
X28359500Y-183717694D01*
X28359500Y-182561306D01*
X28356598Y-182524431D01*
X28356596Y-182524425D01*
X28310745Y-182366606D01*
X28310744Y-182366603D01*
X28310744Y-182366602D01*
X28227081Y-182225135D01*
X28227079Y-182225133D01*
X28227076Y-182225129D01*
X28110870Y-182108923D01*
X28110862Y-182108917D01*
X27969396Y-182025255D01*
X27969393Y-182025254D01*
X27811573Y-181979402D01*
X27811567Y-181979401D01*
X27774701Y-181976500D01*
X27774694Y-181976500D01*
X27343306Y-181976500D01*
X27343298Y-181976500D01*
X27306432Y-181979401D01*
X27306426Y-181979402D01*
X27167161Y-182019863D01*
X27097291Y-182019664D01*
X27038621Y-181981722D01*
X27009778Y-181918083D01*
X27010408Y-181887290D01*
X27009648Y-181887231D01*
X27011790Y-181860000D01*
X26177500Y-181860000D01*
X26110461Y-181840315D01*
X26064706Y-181787511D01*
X26053500Y-181736000D01*
X26053500Y-181484000D01*
X26073185Y-181416961D01*
X26125989Y-181371206D01*
X26177500Y-181360000D01*
X27011790Y-181360000D01*
X27010144Y-181339086D01*
X26963477Y-181178453D01*
X26963676Y-181108583D01*
X27000045Y-181052343D01*
X26999969Y-181052267D01*
X27000327Y-181051908D01*
X27001618Y-181049913D01*
X27005389Y-181046846D01*
X27005713Y-181046521D01*
X27005716Y-181046520D01*
X27117418Y-180934818D01*
X27178741Y-180901333D01*
X27205099Y-180898499D01*
X28252871Y-180898499D01*
X28252872Y-180898499D01*
X28312483Y-180892091D01*
X28447331Y-180841796D01*
X28562546Y-180755546D01*
X28648796Y-180640331D01*
X28699091Y-180505483D01*
X28705500Y-180445873D01*
X28705499Y-179398095D01*
X28725183Y-179331057D01*
X28741813Y-179310420D01*
X28863506Y-179188728D01*
X28863511Y-179188724D01*
X28873714Y-179178520D01*
X28873716Y-179178520D01*
X28985520Y-179066716D01*
X29048746Y-178957204D01*
X29064577Y-178929785D01*
X29105500Y-178777058D01*
X29105500Y-178618943D01*
X29105500Y-176239437D01*
X29064577Y-176086710D01*
X29052620Y-176066000D01*
X28985524Y-175949784D01*
X28985521Y-175949781D01*
X28985520Y-175949778D01*
X28985517Y-175949775D01*
X28980574Y-175943333D01*
X28982651Y-175941739D01*
X28955385Y-175891805D01*
X28960369Y-175822113D01*
X28971552Y-175799484D01*
X29014840Y-175730593D01*
X29074419Y-175560326D01*
X29080223Y-175508815D01*
X29094616Y-175381074D01*
X29094616Y-175381067D01*
X29074420Y-175201821D01*
X29074419Y-175201816D01*
X29024184Y-175058254D01*
X29014840Y-175031549D01*
X29002017Y-175011141D01*
X28983017Y-174943905D01*
X28987933Y-174910579D01*
X29001643Y-174863393D01*
X29004500Y-174827090D01*
X29004500Y-174417710D01*
X29001643Y-174381407D01*
X29000286Y-174376737D01*
X28956495Y-174226009D01*
X28956494Y-174226005D01*
X28944089Y-174205030D01*
X28926906Y-174137309D01*
X28944091Y-174078784D01*
X28956032Y-174058594D01*
X28998504Y-173912400D01*
X28692352Y-173912400D01*
X28629233Y-173895132D01*
X28620395Y-173889906D01*
X28620393Y-173889905D01*
X28620389Y-173889903D01*
X28464997Y-173844757D01*
X28464991Y-173844756D01*
X28428697Y-173841900D01*
X28428690Y-173841900D01*
X28240498Y-173841900D01*
X28173459Y-173822215D01*
X28152817Y-173805581D01*
X28102717Y-173755481D01*
X28102716Y-173755480D01*
X27985935Y-173688057D01*
X27965785Y-173676423D01*
X27890216Y-173656174D01*
X27830558Y-173619810D01*
X27800029Y-173556963D01*
X27808324Y-173487587D01*
X27852809Y-173433709D01*
X27919361Y-173412435D01*
X27922312Y-173412400D01*
X27944000Y-173412400D01*
X27944000Y-172883610D01*
X27943999Y-172883609D01*
X28444000Y-172883609D01*
X28444000Y-173412400D01*
X28998504Y-173412400D01*
X28956031Y-173266204D01*
X28873721Y-173127025D01*
X28873714Y-173127016D01*
X28759383Y-173012685D01*
X28759374Y-173012678D01*
X28620195Y-172930368D01*
X28620190Y-172930366D01*
X28464918Y-172885255D01*
X28464912Y-172885254D01*
X28444000Y-172883609D01*
X27943999Y-172883609D01*
X27923087Y-172885254D01*
X27923081Y-172885255D01*
X27767809Y-172930366D01*
X27767804Y-172930368D01*
X27628625Y-173012678D01*
X27628615Y-173012686D01*
X27580711Y-173060590D01*
X27519388Y-173094074D01*
X27449696Y-173089089D01*
X27393763Y-173047218D01*
X27369347Y-172981753D01*
X27372029Y-172953672D01*
X27370948Y-172953530D01*
X27373997Y-172930368D01*
X27386500Y-172835401D01*
X27386499Y-172636600D01*
X27372009Y-172526528D01*
X27372008Y-172526527D01*
X27370948Y-172518469D01*
X27373634Y-172518115D01*
X27374900Y-172464414D01*
X27374570Y-172464333D01*
X27374937Y-172462838D01*
X27374967Y-172461579D01*
X27376009Y-172458474D01*
X27376021Y-172458423D01*
X27376024Y-172458416D01*
X27396500Y-172316000D01*
X27396500Y-172156000D01*
X27393603Y-172101959D01*
X27358019Y-171962548D01*
X27350336Y-171944002D01*
X27343378Y-171927201D01*
X27343372Y-171927189D01*
X27291588Y-171832353D01*
X27193543Y-171727043D01*
X27193543Y-171727042D01*
X27069807Y-171653626D01*
X27034457Y-171638983D01*
X27034431Y-171638973D01*
X26983417Y-171620976D01*
X26935944Y-171614150D01*
X26841000Y-171600500D01*
X26840998Y-171600500D01*
X26770500Y-171600500D01*
X26703461Y-171580815D01*
X26657706Y-171528011D01*
X26646500Y-171476500D01*
X26646500Y-171405997D01*
X26646033Y-171397306D01*
X26643603Y-171351959D01*
X26608019Y-171212548D01*
X26600336Y-171194002D01*
X26593378Y-171177201D01*
X26593372Y-171177189D01*
X26552271Y-171101918D01*
X26537419Y-171033645D01*
X26561836Y-170968181D01*
X26573415Y-170954817D01*
X26708505Y-170819727D01*
X26708515Y-170819720D01*
X26718714Y-170809519D01*
X26718716Y-170809519D01*
X26720913Y-170807321D01*
X26753823Y-170784955D01*
X26753682Y-170784716D01*
X26757497Y-170782459D01*
X26759367Y-170781189D01*
X26760384Y-170780747D01*
X26760398Y-170780744D01*
X26823491Y-170743430D01*
X26891215Y-170726248D01*
X26957477Y-170748408D01*
X27001241Y-170802874D01*
X27009832Y-170836280D01*
X27027630Y-170994249D01*
X27027631Y-170994254D01*
X27087211Y-171164523D01*
X27117392Y-171212555D01*
X27183184Y-171317262D01*
X27310738Y-171444816D01*
X27401080Y-171501582D01*
X27458830Y-171537869D01*
X27463478Y-171540789D01*
X27488430Y-171549520D01*
X27633745Y-171600368D01*
X27633750Y-171600369D01*
X27812996Y-171620565D01*
X27813000Y-171620565D01*
X27813004Y-171620565D01*
X27992249Y-171600369D01*
X27992252Y-171600368D01*
X27992255Y-171600368D01*
X28162522Y-171540789D01*
X28315262Y-171444816D01*
X28442816Y-171317262D01*
X28538789Y-171164522D01*
X28598368Y-170994255D01*
X28601306Y-170968181D01*
X28618565Y-170815003D01*
X28618565Y-170814996D01*
X28598369Y-170635750D01*
X28598368Y-170635745D01*
X28555634Y-170513618D01*
X28552073Y-170443839D01*
X28565944Y-170409542D01*
X28575494Y-170393395D01*
X28608736Y-170278975D01*
X28620642Y-170237997D01*
X28620643Y-170237991D01*
X28623499Y-170201697D01*
X28623500Y-170201690D01*
X28623500Y-169792310D01*
X28620643Y-169756007D01*
X28596236Y-169672000D01*
X28575495Y-169600609D01*
X28575494Y-169600605D01*
X28563089Y-169579630D01*
X28545906Y-169511909D01*
X28563091Y-169453384D01*
X28575032Y-169433194D01*
X28617504Y-169287000D01*
X28311352Y-169287000D01*
X28248233Y-169269732D01*
X28239395Y-169264506D01*
X28239393Y-169264505D01*
X28239389Y-169264503D01*
X28083997Y-169219357D01*
X28083991Y-169219356D01*
X28047697Y-169216500D01*
X28047690Y-169216500D01*
X27933082Y-169216500D01*
X27866043Y-169196815D01*
X27857592Y-169190873D01*
X27851215Y-169185979D01*
X27764404Y-169135860D01*
X27764404Y-169135859D01*
X27764400Y-169135858D01*
X27714285Y-169106923D01*
X27714284Y-169106922D01*
X27714285Y-169106922D01*
X27654903Y-169091010D01*
X27595244Y-169054644D01*
X27564716Y-168991796D01*
X27563000Y-168971236D01*
X27563000Y-168911000D01*
X27582685Y-168843961D01*
X27635489Y-168798206D01*
X27687000Y-168787000D01*
X28617504Y-168787000D01*
X28575031Y-168640804D01*
X28492721Y-168501625D01*
X28492714Y-168501616D01*
X28378383Y-168387285D01*
X28378374Y-168387278D01*
X28237950Y-168304232D01*
X28190266Y-168253163D01*
X28177763Y-168184421D01*
X28204408Y-168119832D01*
X28237950Y-168090768D01*
X28378374Y-168007721D01*
X28378383Y-168007714D01*
X28492714Y-167893383D01*
X28492721Y-167893374D01*
X28575031Y-167754195D01*
X28617504Y-167608000D01*
X27687000Y-167608000D01*
X27619961Y-167588315D01*
X27574206Y-167535511D01*
X27563000Y-167484000D01*
X27563000Y-167302500D01*
X27582685Y-167235461D01*
X27635489Y-167189706D01*
X27687000Y-167178500D01*
X28047682Y-167178500D01*
X28047690Y-167178500D01*
X28083993Y-167175643D01*
X28083995Y-167175642D01*
X28083997Y-167175642D01*
X28239389Y-167130496D01*
X28239389Y-167130495D01*
X28239395Y-167130494D01*
X28248233Y-167125267D01*
X28311352Y-167108000D01*
X28617504Y-167108000D01*
X28575031Y-166961803D01*
X28563090Y-166941613D01*
X28545906Y-166873889D01*
X28563089Y-166815369D01*
X28575494Y-166794395D01*
X28620643Y-166638993D01*
X28623500Y-166602690D01*
X28623500Y-166193310D01*
X28620643Y-166157007D01*
X28575494Y-166001605D01*
X28493117Y-165862313D01*
X28493115Y-165862311D01*
X28493112Y-165862307D01*
X28378692Y-165747887D01*
X28378681Y-165747878D01*
X28376230Y-165746429D01*
X28374702Y-165744792D01*
X28372524Y-165743103D01*
X28372796Y-165742751D01*
X28328550Y-165695356D01*
X28316051Y-165626614D01*
X28342701Y-165562026D01*
X28351679Y-165552017D01*
X28365318Y-165538378D01*
X28365321Y-165538374D01*
X28447631Y-165399195D01*
X28447633Y-165399190D01*
X28492744Y-165243918D01*
X28492745Y-165243912D01*
X28494390Y-165223000D01*
X27660100Y-165223000D01*
X27593061Y-165203315D01*
X27547306Y-165150511D01*
X27536100Y-165099000D01*
X27536100Y-164738317D01*
X27536099Y-164738302D01*
X27533243Y-164702008D01*
X27533242Y-164702002D01*
X27488095Y-164546609D01*
X27488094Y-164546606D01*
X27488094Y-164546605D01*
X27415868Y-164424477D01*
X27398600Y-164361356D01*
X27398600Y-164090408D01*
X27398982Y-164080679D01*
X27399035Y-164080000D01*
X27898600Y-164080000D01*
X27898600Y-164120000D01*
X27929281Y-164150681D01*
X27962766Y-164212004D01*
X27965600Y-164238362D01*
X27965600Y-164723000D01*
X28494390Y-164723000D01*
X28492745Y-164702089D01*
X28447631Y-164546804D01*
X28364559Y-164406336D01*
X28347376Y-164338612D01*
X28364560Y-164280092D01*
X28371006Y-164269192D01*
X28371007Y-164269189D01*
X28415766Y-164115128D01*
X28415767Y-164115122D01*
X28418531Y-164080000D01*
X27898600Y-164080000D01*
X27399035Y-164080000D01*
X27399100Y-164079181D01*
X27399099Y-163580820D01*
X27399034Y-163580000D01*
X27398982Y-163579332D01*
X27398600Y-163569607D01*
X27398600Y-163513131D01*
X27397434Y-163510996D01*
X27394600Y-163484638D01*
X27394600Y-163185352D01*
X27411867Y-163122233D01*
X27417094Y-163113395D01*
X27434450Y-163053658D01*
X27462242Y-162957997D01*
X27462243Y-162957991D01*
X27463895Y-162937000D01*
X27894600Y-162937000D01*
X27894600Y-162993868D01*
X27895766Y-162996004D01*
X27898600Y-163022362D01*
X27898600Y-163580000D01*
X28418531Y-163580000D01*
X28415767Y-163544877D01*
X28415766Y-163544871D01*
X28371008Y-163390811D01*
X28329058Y-163319879D01*
X28311875Y-163252155D01*
X28329059Y-163193635D01*
X28376630Y-163113197D01*
X28376633Y-163113190D01*
X28421744Y-162957918D01*
X28421745Y-162957912D01*
X28423390Y-162937000D01*
X27894600Y-162937000D01*
X27463895Y-162937000D01*
X27465099Y-162921697D01*
X27465100Y-162921690D01*
X27465100Y-162452310D01*
X27463895Y-162437000D01*
X27894600Y-162437000D01*
X28423390Y-162437000D01*
X28421745Y-162416089D01*
X28376631Y-162260804D01*
X28294321Y-162121625D01*
X28294314Y-162121616D01*
X28179983Y-162007285D01*
X28179974Y-162007278D01*
X28040793Y-161924967D01*
X28040790Y-161924965D01*
X27894601Y-161882493D01*
X27894600Y-161882494D01*
X27894600Y-162437000D01*
X27463895Y-162437000D01*
X27462243Y-162416007D01*
X27455975Y-162394434D01*
X27417095Y-162260608D01*
X27417092Y-162260600D01*
X27411866Y-162251763D01*
X27394600Y-162188645D01*
X27394600Y-161882494D01*
X27394598Y-161882493D01*
X27248409Y-161924965D01*
X27248406Y-161924967D01*
X27228208Y-161936912D01*
X27160484Y-161954092D01*
X27101970Y-161936910D01*
X27080997Y-161924507D01*
X27080990Y-161924504D01*
X26925597Y-161879357D01*
X26925591Y-161879356D01*
X26889297Y-161876500D01*
X26889290Y-161876500D01*
X26660925Y-161876500D01*
X26593886Y-161856815D01*
X26548131Y-161804011D01*
X26537705Y-161738617D01*
X26545165Y-161672404D01*
X26545165Y-161672396D01*
X26524969Y-161493150D01*
X26524968Y-161493145D01*
X26465388Y-161322876D01*
X26369415Y-161170137D01*
X26241862Y-161042584D01*
X26089121Y-160946610D01*
X25940146Y-160894482D01*
X25883369Y-160853760D01*
X25857622Y-160788807D01*
X25857100Y-160777440D01*
X25857100Y-160624917D01*
X25857099Y-160624902D01*
X25854243Y-160588608D01*
X25854242Y-160588602D01*
X25809095Y-160433209D01*
X25809094Y-160433206D01*
X25809094Y-160433205D01*
X25726717Y-160293913D01*
X25726715Y-160293911D01*
X25726712Y-160293907D01*
X25612292Y-160179487D01*
X25612284Y-160179481D01*
X25505335Y-160116232D01*
X25457652Y-160065163D01*
X25445148Y-159996421D01*
X25471793Y-159931832D01*
X25529129Y-159891902D01*
X25568456Y-159885500D01*
X29855500Y-159885500D01*
X29922539Y-159905185D01*
X29968294Y-159957989D01*
X29979500Y-160009500D01*
X29979500Y-196510500D01*
X29959815Y-196577539D01*
X29907011Y-196623294D01*
X29855500Y-196634500D01*
X16104500Y-196634500D01*
X16037461Y-196614815D01*
X15991706Y-196562011D01*
X15980500Y-196510500D01*
X15980500Y-185255000D01*
X17615000Y-185255000D01*
X18165000Y-185255000D01*
X18165000Y-184182703D01*
X18162503Y-184182900D01*
X18004806Y-184228716D01*
X18004803Y-184228717D01*
X17863447Y-184312314D01*
X17863438Y-184312321D01*
X17747321Y-184428438D01*
X17747314Y-184428447D01*
X17663717Y-184569803D01*
X17663716Y-184569806D01*
X17617900Y-184727504D01*
X17617899Y-184727510D01*
X17615000Y-184764350D01*
X17615000Y-185255000D01*
X15980500Y-185255000D01*
X15980500Y-160009500D01*
X16000185Y-159942461D01*
X16052989Y-159896706D01*
X16104500Y-159885500D01*
X23625725Y-159885500D01*
X23692764Y-159905185D01*
G37*
G04 #@! TD.AperFunction*
G04 #@! TA.AperFunction,Conductor*
G36*
X24069039Y-185712185D02*
G01*
X24114794Y-185764989D01*
X24126000Y-185816500D01*
X24126000Y-186674323D01*
X24108732Y-186737444D01*
X24058368Y-186822604D01*
X24058366Y-186822609D01*
X24013255Y-186977881D01*
X24013254Y-186977887D01*
X24011609Y-186998799D01*
X24011610Y-186998800D01*
X24540400Y-186998800D01*
X24540400Y-186467202D01*
X24557668Y-186404080D01*
X24638032Y-186268192D01*
X24665303Y-186174323D01*
X24702909Y-186115437D01*
X24766381Y-186086230D01*
X24835568Y-186095975D01*
X24888503Y-186141579D01*
X24903456Y-186174320D01*
X24907255Y-186187396D01*
X24990917Y-186328862D01*
X24990923Y-186328870D01*
X25004081Y-186342028D01*
X25037566Y-186403351D01*
X25040400Y-186429709D01*
X25040400Y-186750445D01*
X25023134Y-186813563D01*
X25017907Y-186822400D01*
X25017904Y-186822408D01*
X24972757Y-186977802D01*
X24972756Y-186977808D01*
X24969900Y-187014102D01*
X24969900Y-187483497D01*
X24972756Y-187519791D01*
X24972757Y-187519797D01*
X25017903Y-187675189D01*
X25017905Y-187675193D01*
X25017906Y-187675195D01*
X25023132Y-187684033D01*
X25040400Y-187747152D01*
X25040400Y-188020445D01*
X25023134Y-188083563D01*
X25017907Y-188092400D01*
X25017904Y-188092408D01*
X24972757Y-188247802D01*
X24972756Y-188247808D01*
X24969900Y-188284102D01*
X24969900Y-188753497D01*
X24972756Y-188789791D01*
X24972757Y-188789797D01*
X25017903Y-188945189D01*
X25017905Y-188945193D01*
X25017906Y-188945195D01*
X25023132Y-188954033D01*
X25040400Y-189017152D01*
X25040400Y-189323303D01*
X25100906Y-189305726D01*
X25170775Y-189305926D01*
X25229445Y-189343869D01*
X25258288Y-189407507D01*
X25259500Y-189424803D01*
X25259500Y-189872814D01*
X25239815Y-189939853D01*
X25208387Y-189973131D01*
X25143072Y-190020585D01*
X25020588Y-190143069D01*
X25020581Y-190143078D01*
X24960317Y-190226023D01*
X24904987Y-190268689D01*
X24835374Y-190274667D01*
X24773579Y-190242061D01*
X24759683Y-190226023D01*
X24699418Y-190143078D01*
X24699415Y-190143074D01*
X24699414Y-190143072D01*
X24576928Y-190020586D01*
X24511613Y-189973131D01*
X24468948Y-189917801D01*
X24460500Y-189872814D01*
X24460500Y-189866945D01*
X24460500Y-189866943D01*
X24419577Y-189714216D01*
X24419577Y-189714215D01*
X24419577Y-189714214D01*
X24390639Y-189664095D01*
X24390637Y-189664092D01*
X24352893Y-189598716D01*
X24340520Y-189577284D01*
X24231357Y-189468121D01*
X24197873Y-189406798D01*
X24202857Y-189337106D01*
X24244729Y-189281173D01*
X24310193Y-189256756D01*
X24378466Y-189271608D01*
X24382162Y-189273709D01*
X24394205Y-189280831D01*
X24540400Y-189323304D01*
X24540400Y-188768800D01*
X24011610Y-188768800D01*
X24013254Y-188789710D01*
X24058368Y-188944995D01*
X24058369Y-188944997D01*
X24065494Y-188957045D01*
X24082675Y-189024769D01*
X24060515Y-189091031D01*
X24006048Y-189134793D01*
X23936568Y-189142162D01*
X23874134Y-189110797D01*
X23871080Y-189107845D01*
X23032034Y-188268799D01*
X24011609Y-188268799D01*
X24011610Y-188268800D01*
X24540400Y-188268800D01*
X24540400Y-187498800D01*
X24011610Y-187498800D01*
X24013254Y-187519710D01*
X24058368Y-187674995D01*
X24144525Y-187820679D01*
X24161708Y-187888403D01*
X24144525Y-187946921D01*
X24058368Y-188092604D01*
X24058366Y-188092609D01*
X24013255Y-188247881D01*
X24013254Y-188247887D01*
X24011609Y-188268799D01*
X23032034Y-188268799D01*
X22915819Y-188152584D01*
X22882334Y-188091261D01*
X22879500Y-188064903D01*
X22879500Y-187694426D01*
X22879497Y-187694399D01*
X22879497Y-187638060D01*
X22879497Y-187638059D01*
X22859474Y-187498800D01*
X22859035Y-187495744D01*
X22855437Y-187483490D01*
X22818498Y-187357691D01*
X22816118Y-187352480D01*
X22758776Y-187226918D01*
X22758773Y-187226914D01*
X22758770Y-187226906D01*
X22680986Y-187105870D01*
X22680985Y-187105869D01*
X22680984Y-187105867D01*
X22680981Y-187105863D01*
X22586847Y-186997226D01*
X22586830Y-186997207D01*
X22586814Y-186997193D01*
X22585013Y-186995632D01*
X22547237Y-186936855D01*
X22547236Y-186866985D01*
X22585010Y-186808206D01*
X22631622Y-186782840D01*
X22635398Y-186781744D01*
X22776865Y-186698081D01*
X22893081Y-186581865D01*
X22976744Y-186440398D01*
X22976745Y-186440391D01*
X22979844Y-186433235D01*
X22982030Y-186434181D01*
X23013243Y-186385295D01*
X23076712Y-186356081D01*
X23145900Y-186365819D01*
X23192705Y-186402768D01*
X23196282Y-186407380D01*
X23310616Y-186521714D01*
X23310625Y-186521721D01*
X23449804Y-186604031D01*
X23605089Y-186649145D01*
X23626000Y-186650789D01*
X23626000Y-185816500D01*
X23645685Y-185749461D01*
X23698489Y-185703706D01*
X23750000Y-185692500D01*
X24002000Y-185692500D01*
X24069039Y-185712185D01*
G37*
G04 #@! TD.AperFunction*
G04 #@! TA.AperFunction,Conductor*
G36*
X25468834Y-167324415D02*
G01*
X25524767Y-167366287D01*
X25549184Y-167431751D01*
X25549500Y-167440597D01*
X25549500Y-167969701D01*
X25552401Y-168006567D01*
X25552402Y-168006573D01*
X25598254Y-168164393D01*
X25598255Y-168164396D01*
X25681917Y-168305862D01*
X25686702Y-168312031D01*
X25685018Y-168313336D01*
X25713246Y-168365031D01*
X25708262Y-168434723D01*
X25676234Y-168482461D01*
X25650000Y-168506702D01*
X25650000Y-168772184D01*
X25632733Y-168835304D01*
X25598254Y-168893605D01*
X25598254Y-168893606D01*
X25552402Y-169051426D01*
X25552401Y-169051432D01*
X25549500Y-169088298D01*
X25549500Y-169792500D01*
X25529815Y-169859539D01*
X25477011Y-169905294D01*
X25425500Y-169916500D01*
X25374500Y-169916500D01*
X25307461Y-169896815D01*
X25261706Y-169844011D01*
X25250500Y-169792500D01*
X25250500Y-169088313D01*
X25250499Y-169088298D01*
X25248744Y-169066000D01*
X25247598Y-169051431D01*
X25243406Y-169037003D01*
X25201745Y-168893606D01*
X25201745Y-168893605D01*
X25201744Y-168893604D01*
X25201744Y-168893602D01*
X25167267Y-168835304D01*
X25150000Y-168772184D01*
X25150000Y-168506702D01*
X25123765Y-168482461D01*
X25087887Y-168422507D01*
X25090118Y-168352673D01*
X25114533Y-168312988D01*
X25113298Y-168312031D01*
X25118075Y-168305870D01*
X25118081Y-168305865D01*
X25201744Y-168164398D01*
X25247263Y-168007721D01*
X25247597Y-168006573D01*
X25247598Y-168006567D01*
X25250499Y-167969701D01*
X25250500Y-167969694D01*
X25250500Y-167491597D01*
X25270185Y-167424558D01*
X25286819Y-167403916D01*
X25337819Y-167352916D01*
X25399142Y-167319431D01*
X25468834Y-167324415D01*
G37*
G04 #@! TD.AperFunction*
M02*
