M48
; DRILL file {KiCad 8.0.0-8.0.0-1~ubuntu20.04.1} date 2025-04-10T19:36:53+0200
; FORMAT={-:-/ absolute / metric / decimal}
; #@! TF.CreationDate,2025-04-10T19:36:53+02:00
; #@! TF.GenerationSoftware,Kicad,Pcbnew,8.0.0-8.0.0-1~ubuntu20.04.1
; #@! TF.FileFunction,Plated,1,4,PTH
FMAT,2
METRIC
; #@! TA.AperFunction,Plated,PTH,ViaDrill
T1C0.300
; #@! TA.AperFunction,Plated,PTH,ComponentDrill
T2C1.000
%
G90
G05
T1
X21.209Y-151.765
X23.749Y-151.765
X25.019Y-155.702
X25.908Y-151.765
X26.67Y-163.449
X26.797Y-154.178
X27.813Y-161.036
X28.067Y-151.765
X30.226Y-151.765
X30.226Y-158.877
X32.385Y-151.765
X33.147Y-165.1
X33.861Y-164.239
X34.544Y-151.765
X34.696Y-159.614
X34.9Y-162.966
X36.17Y-161.036
X36.957Y-151.765
T2
X20.701Y-167.132
X20.828Y-148.082
X23.241Y-167.132
X23.368Y-148.082
X25.781Y-167.132
X25.908Y-148.082
X28.321Y-167.132
X28.448Y-148.082
X30.861Y-167.132
X30.988Y-148.082
X33.401Y-167.132
X33.528Y-148.082
X35.941Y-167.132
X36.068Y-148.082
X38.608Y-148.082
X41.148Y-148.082
M30
