%TF.GenerationSoftware,KiCad,Pcbnew,8.0.0-8.0.0-1~ubuntu20.04.1*%
%TF.CreationDate,2025-04-10T19:36:55+02:00*%
%TF.ProjectId,eeg-breakout-legendsemi,6565672d-6272-4656-916b-6f75742d6c65,1*%
%TF.SameCoordinates,Original*%
%TF.FileFunction,Drillmap*%
%TF.FilePolarity,Positive*%
%FSLAX45Y45*%
G04 Gerber Fmt 4.5, Leading zero omitted, Abs format (unit mm)*
G04 Created by KiCad (PCBNEW 8.0.0-8.0.0-1~ubuntu20.04.1) date 2025-04-10 19:36:55*
%MOMM*%
%LPD*%
G01*
G04 APERTURE LIST*
%ADD10C,0.050000*%
%ADD11C,0.200000*%
G04 APERTURE END LIST*
D10*
X1778000Y-13716000D02*
X4381500Y-13716000D01*
X4381500Y-17830800D01*
X1778000Y-17830800D01*
X1778000Y-13716000D01*
D11*
X2036277Y-18144784D02*
X2036277Y-17944784D01*
X2036277Y-17944784D02*
X2083896Y-17944784D01*
X2083896Y-17944784D02*
X2112467Y-17954308D01*
X2112467Y-17954308D02*
X2131515Y-17973355D01*
X2131515Y-17973355D02*
X2141039Y-17992403D01*
X2141039Y-17992403D02*
X2150563Y-18030498D01*
X2150563Y-18030498D02*
X2150563Y-18059070D01*
X2150563Y-18059070D02*
X2141039Y-18097165D01*
X2141039Y-18097165D02*
X2131515Y-18116212D01*
X2131515Y-18116212D02*
X2112467Y-18135260D01*
X2112467Y-18135260D02*
X2083896Y-18144784D01*
X2083896Y-18144784D02*
X2036277Y-18144784D01*
X2236277Y-18144784D02*
X2236277Y-18011450D01*
X2236277Y-18049546D02*
X2245801Y-18030498D01*
X2245801Y-18030498D02*
X2255324Y-18020974D01*
X2255324Y-18020974D02*
X2274372Y-18011450D01*
X2274372Y-18011450D02*
X2293420Y-18011450D01*
X2360086Y-18144784D02*
X2360086Y-18011450D01*
X2360086Y-17944784D02*
X2350563Y-17954308D01*
X2350563Y-17954308D02*
X2360086Y-17963831D01*
X2360086Y-17963831D02*
X2369610Y-17954308D01*
X2369610Y-17954308D02*
X2360086Y-17944784D01*
X2360086Y-17944784D02*
X2360086Y-17963831D01*
X2483896Y-18144784D02*
X2464848Y-18135260D01*
X2464848Y-18135260D02*
X2455324Y-18116212D01*
X2455324Y-18116212D02*
X2455324Y-17944784D01*
X2588658Y-18144784D02*
X2569610Y-18135260D01*
X2569610Y-18135260D02*
X2560086Y-18116212D01*
X2560086Y-18116212D02*
X2560086Y-17944784D01*
X2817229Y-18144784D02*
X2817229Y-17944784D01*
X2817229Y-17944784D02*
X2883896Y-18087641D01*
X2883896Y-18087641D02*
X2950562Y-17944784D01*
X2950562Y-17944784D02*
X2950562Y-18144784D01*
X3131515Y-18144784D02*
X3131515Y-18040022D01*
X3131515Y-18040022D02*
X3121991Y-18020974D01*
X3121991Y-18020974D02*
X3102943Y-18011450D01*
X3102943Y-18011450D02*
X3064848Y-18011450D01*
X3064848Y-18011450D02*
X3045801Y-18020974D01*
X3131515Y-18135260D02*
X3112467Y-18144784D01*
X3112467Y-18144784D02*
X3064848Y-18144784D01*
X3064848Y-18144784D02*
X3045801Y-18135260D01*
X3045801Y-18135260D02*
X3036277Y-18116212D01*
X3036277Y-18116212D02*
X3036277Y-18097165D01*
X3036277Y-18097165D02*
X3045801Y-18078117D01*
X3045801Y-18078117D02*
X3064848Y-18068593D01*
X3064848Y-18068593D02*
X3112467Y-18068593D01*
X3112467Y-18068593D02*
X3131515Y-18059070D01*
X3226753Y-18011450D02*
X3226753Y-18211450D01*
X3226753Y-18020974D02*
X3245801Y-18011450D01*
X3245801Y-18011450D02*
X3283896Y-18011450D01*
X3283896Y-18011450D02*
X3302943Y-18020974D01*
X3302943Y-18020974D02*
X3312467Y-18030498D01*
X3312467Y-18030498D02*
X3321991Y-18049546D01*
X3321991Y-18049546D02*
X3321991Y-18106689D01*
X3321991Y-18106689D02*
X3312467Y-18125736D01*
X3312467Y-18125736D02*
X3302943Y-18135260D01*
X3302943Y-18135260D02*
X3283896Y-18144784D01*
X3283896Y-18144784D02*
X3245801Y-18144784D01*
X3245801Y-18144784D02*
X3226753Y-18135260D01*
X3407705Y-18125736D02*
X3417229Y-18135260D01*
X3417229Y-18135260D02*
X3407705Y-18144784D01*
X3407705Y-18144784D02*
X3398182Y-18135260D01*
X3398182Y-18135260D02*
X3407705Y-18125736D01*
X3407705Y-18125736D02*
X3407705Y-18144784D01*
X3407705Y-18020974D02*
X3417229Y-18030498D01*
X3417229Y-18030498D02*
X3407705Y-18040022D01*
X3407705Y-18040022D02*
X3398182Y-18030498D01*
X3398182Y-18030498D02*
X3407705Y-18020974D01*
X3407705Y-18020974D02*
X3407705Y-18040022D01*
M02*
