G04 #@! TF.GenerationSoftware,KiCad,Pcbnew,8.0.0-8.0.0-1~ubuntu20.04.1*
G04 #@! TF.CreationDate,2025-04-10T19:36:48+02:00*
G04 #@! TF.ProjectId,eeg-breakout-legendsemi,6565672d-6272-4656-916b-6f75742d6c65,1*
G04 #@! TF.SameCoordinates,Original*
G04 #@! TF.FileFunction,Copper,L2,Inr*
G04 #@! TF.FilePolarity,Positive*
%FSLAX46Y46*%
G04 Gerber Fmt 4.6, Leading zero omitted, Abs format (unit mm)*
G04 Created by KiCad (PCBNEW 8.0.0-8.0.0-1~ubuntu20.04.1) date 2025-04-10 19:36:48*
%MOMM*%
%LPD*%
G01*
G04 APERTURE LIST*
G04 #@! TA.AperFunction,ComponentPad*
%ADD10R,1.700000X1.700000*%
G04 #@! TD*
G04 #@! TA.AperFunction,ComponentPad*
%ADD11O,1.700000X1.700000*%
G04 #@! TD*
G04 #@! TA.AperFunction,ViaPad*
%ADD12C,0.600000*%
G04 #@! TD*
G04 APERTURE END LIST*
D10*
X35941000Y-167132000D03*
D11*
X33401000Y-167132000D03*
X30861000Y-167132000D03*
X28321000Y-167132000D03*
X25781000Y-167132000D03*
X23241000Y-167132000D03*
X20701000Y-167132000D03*
D10*
X20828000Y-148082000D03*
D11*
X23368000Y-148082000D03*
X25908000Y-148082000D03*
X28448000Y-148082000D03*
X30988000Y-148082000D03*
X33528000Y-148082000D03*
X36068000Y-148082000D03*
X38608000Y-148082000D03*
X41148000Y-148082000D03*
D12*
X26670000Y-163449000D03*
X25019000Y-155702000D03*
X33861340Y-164239287D03*
X23749000Y-151765000D03*
X33147000Y-165100000D03*
X36957000Y-151765000D03*
X30226000Y-151765000D03*
X34696400Y-159613600D03*
X28067000Y-151765000D03*
X21209000Y-151765000D03*
X30226000Y-158877000D03*
X36169600Y-161036000D03*
X26797000Y-154178000D03*
X34899600Y-162966400D03*
X27813000Y-161036000D03*
X32385000Y-151765000D03*
X25908000Y-151765000D03*
X34544000Y-151765000D03*
G04 #@! TA.AperFunction,Conductor*
G36*
X43257539Y-137680185D02*
G01*
X43303294Y-137732989D01*
X43314500Y-137784500D01*
X43314500Y-177683500D01*
X43294815Y-177750539D01*
X43242011Y-177796294D01*
X43190500Y-177807500D01*
X18404500Y-177807500D01*
X18337461Y-177787815D01*
X18291706Y-177735011D01*
X18280500Y-177683500D01*
X18280500Y-167132000D01*
X19345341Y-167132000D01*
X19365936Y-167367403D01*
X19365938Y-167367413D01*
X19427094Y-167595655D01*
X19427096Y-167595659D01*
X19427097Y-167595663D01*
X19507004Y-167767023D01*
X19526965Y-167809830D01*
X19526967Y-167809834D01*
X19635281Y-167964521D01*
X19662505Y-168003401D01*
X19829599Y-168170495D01*
X19906135Y-168224086D01*
X20023165Y-168306032D01*
X20023167Y-168306033D01*
X20023170Y-168306035D01*
X20237337Y-168405903D01*
X20465592Y-168467063D01*
X20636319Y-168482000D01*
X20700999Y-168487659D01*
X20701000Y-168487659D01*
X20701001Y-168487659D01*
X20765681Y-168482000D01*
X20936408Y-168467063D01*
X21164663Y-168405903D01*
X21378830Y-168306035D01*
X21572401Y-168170495D01*
X21739495Y-168003401D01*
X21869425Y-167817842D01*
X21924002Y-167774217D01*
X21993500Y-167767023D01*
X22055855Y-167798546D01*
X22072575Y-167817842D01*
X22202500Y-168003395D01*
X22202505Y-168003401D01*
X22369599Y-168170495D01*
X22446135Y-168224086D01*
X22563165Y-168306032D01*
X22563167Y-168306033D01*
X22563170Y-168306035D01*
X22777337Y-168405903D01*
X23005592Y-168467063D01*
X23176319Y-168482000D01*
X23240999Y-168487659D01*
X23241000Y-168487659D01*
X23241001Y-168487659D01*
X23305681Y-168482000D01*
X23476408Y-168467063D01*
X23704663Y-168405903D01*
X23918830Y-168306035D01*
X24112401Y-168170495D01*
X24279495Y-168003401D01*
X24409425Y-167817842D01*
X24464002Y-167774217D01*
X24533500Y-167767023D01*
X24595855Y-167798546D01*
X24612575Y-167817842D01*
X24742500Y-168003395D01*
X24742505Y-168003401D01*
X24909599Y-168170495D01*
X24986135Y-168224086D01*
X25103165Y-168306032D01*
X25103167Y-168306033D01*
X25103170Y-168306035D01*
X25317337Y-168405903D01*
X25545592Y-168467063D01*
X25716319Y-168482000D01*
X25780999Y-168487659D01*
X25781000Y-168487659D01*
X25781001Y-168487659D01*
X25845681Y-168482000D01*
X26016408Y-168467063D01*
X26244663Y-168405903D01*
X26458830Y-168306035D01*
X26652401Y-168170495D01*
X26819495Y-168003401D01*
X26949425Y-167817842D01*
X27004002Y-167774217D01*
X27073500Y-167767023D01*
X27135855Y-167798546D01*
X27152575Y-167817842D01*
X27282500Y-168003395D01*
X27282505Y-168003401D01*
X27449599Y-168170495D01*
X27526135Y-168224086D01*
X27643165Y-168306032D01*
X27643167Y-168306033D01*
X27643170Y-168306035D01*
X27857337Y-168405903D01*
X28085592Y-168467063D01*
X28256319Y-168482000D01*
X28320999Y-168487659D01*
X28321000Y-168487659D01*
X28321001Y-168487659D01*
X28385681Y-168482000D01*
X28556408Y-168467063D01*
X28784663Y-168405903D01*
X28998830Y-168306035D01*
X29192401Y-168170495D01*
X29359495Y-168003401D01*
X29489425Y-167817842D01*
X29544002Y-167774217D01*
X29613500Y-167767023D01*
X29675855Y-167798546D01*
X29692575Y-167817842D01*
X29822500Y-168003395D01*
X29822505Y-168003401D01*
X29989599Y-168170495D01*
X30066135Y-168224086D01*
X30183165Y-168306032D01*
X30183167Y-168306033D01*
X30183170Y-168306035D01*
X30397337Y-168405903D01*
X30625592Y-168467063D01*
X30796319Y-168482000D01*
X30860999Y-168487659D01*
X30861000Y-168487659D01*
X30861001Y-168487659D01*
X30925681Y-168482000D01*
X31096408Y-168467063D01*
X31324663Y-168405903D01*
X31538830Y-168306035D01*
X31732401Y-168170495D01*
X31899495Y-168003401D01*
X32029425Y-167817842D01*
X32084002Y-167774217D01*
X32153500Y-167767023D01*
X32215855Y-167798546D01*
X32232575Y-167817842D01*
X32362500Y-168003395D01*
X32362505Y-168003401D01*
X32529599Y-168170495D01*
X32606135Y-168224086D01*
X32723165Y-168306032D01*
X32723167Y-168306033D01*
X32723170Y-168306035D01*
X32937337Y-168405903D01*
X33165592Y-168467063D01*
X33336319Y-168482000D01*
X33400999Y-168487659D01*
X33401000Y-168487659D01*
X33401001Y-168487659D01*
X33465681Y-168482000D01*
X33636408Y-168467063D01*
X33864663Y-168405903D01*
X34078830Y-168306035D01*
X34272401Y-168170495D01*
X34394717Y-168048178D01*
X34456036Y-168014696D01*
X34525728Y-168019680D01*
X34581662Y-168061551D01*
X34598577Y-168092528D01*
X34647646Y-168224088D01*
X34647649Y-168224093D01*
X34733809Y-168339187D01*
X34733812Y-168339190D01*
X34848906Y-168425350D01*
X34848913Y-168425354D01*
X34983620Y-168475596D01*
X34983627Y-168475598D01*
X35043155Y-168481999D01*
X35043172Y-168482000D01*
X35691000Y-168482000D01*
X35691000Y-167565012D01*
X35748007Y-167597925D01*
X35875174Y-167632000D01*
X36006826Y-167632000D01*
X36133993Y-167597925D01*
X36191000Y-167565012D01*
X36191000Y-168482000D01*
X36838828Y-168482000D01*
X36838844Y-168481999D01*
X36898372Y-168475598D01*
X36898379Y-168475596D01*
X37033086Y-168425354D01*
X37033093Y-168425350D01*
X37148187Y-168339190D01*
X37148190Y-168339187D01*
X37234350Y-168224093D01*
X37234354Y-168224086D01*
X37284596Y-168089379D01*
X37284598Y-168089372D01*
X37290999Y-168029844D01*
X37291000Y-168029827D01*
X37291000Y-167382000D01*
X36374012Y-167382000D01*
X36406925Y-167324993D01*
X36441000Y-167197826D01*
X36441000Y-167066174D01*
X36406925Y-166939007D01*
X36374012Y-166882000D01*
X37291000Y-166882000D01*
X37291000Y-166234172D01*
X37290999Y-166234155D01*
X37284598Y-166174627D01*
X37284596Y-166174620D01*
X37234354Y-166039913D01*
X37234350Y-166039906D01*
X37148190Y-165924812D01*
X37148187Y-165924809D01*
X37033093Y-165838649D01*
X37033086Y-165838645D01*
X36898379Y-165788403D01*
X36898372Y-165788401D01*
X36838844Y-165782000D01*
X36191000Y-165782000D01*
X36191000Y-166698988D01*
X36133993Y-166666075D01*
X36006826Y-166632000D01*
X35875174Y-166632000D01*
X35748007Y-166666075D01*
X35691000Y-166698988D01*
X35691000Y-165782000D01*
X35043155Y-165782000D01*
X34983627Y-165788401D01*
X34983620Y-165788403D01*
X34848913Y-165838645D01*
X34848906Y-165838649D01*
X34733812Y-165924809D01*
X34733809Y-165924812D01*
X34647649Y-166039906D01*
X34647645Y-166039913D01*
X34598578Y-166171470D01*
X34556707Y-166227404D01*
X34491242Y-166251821D01*
X34422969Y-166236969D01*
X34394715Y-166215819D01*
X34350366Y-166171470D01*
X34272401Y-166093505D01*
X34272397Y-166093502D01*
X34272396Y-166093501D01*
X34078834Y-165957967D01*
X34078830Y-165957965D01*
X34007727Y-165924809D01*
X33864663Y-165858097D01*
X33864659Y-165858096D01*
X33864655Y-165858094D01*
X33636413Y-165796938D01*
X33636403Y-165796936D01*
X33401001Y-165776341D01*
X33400999Y-165776341D01*
X33165596Y-165796936D01*
X33165586Y-165796938D01*
X32937344Y-165858094D01*
X32937335Y-165858098D01*
X32723171Y-165957964D01*
X32723169Y-165957965D01*
X32529597Y-166093505D01*
X32362505Y-166260597D01*
X32232575Y-166446158D01*
X32177998Y-166489783D01*
X32108500Y-166496977D01*
X32046145Y-166465454D01*
X32029425Y-166446158D01*
X31899494Y-166260597D01*
X31732402Y-166093506D01*
X31732395Y-166093501D01*
X31538834Y-165957967D01*
X31538830Y-165957965D01*
X31467727Y-165924809D01*
X31324663Y-165858097D01*
X31324659Y-165858096D01*
X31324655Y-165858094D01*
X31096413Y-165796938D01*
X31096403Y-165796936D01*
X30861001Y-165776341D01*
X30860999Y-165776341D01*
X30625596Y-165796936D01*
X30625586Y-165796938D01*
X30397344Y-165858094D01*
X30397335Y-165858098D01*
X30183171Y-165957964D01*
X30183169Y-165957965D01*
X29989597Y-166093505D01*
X29822505Y-166260597D01*
X29692575Y-166446158D01*
X29637998Y-166489783D01*
X29568500Y-166496977D01*
X29506145Y-166465454D01*
X29489425Y-166446158D01*
X29359494Y-166260597D01*
X29192402Y-166093506D01*
X29192395Y-166093501D01*
X28998834Y-165957967D01*
X28998830Y-165957965D01*
X28927727Y-165924809D01*
X28784663Y-165858097D01*
X28784659Y-165858096D01*
X28784655Y-165858094D01*
X28556413Y-165796938D01*
X28556403Y-165796936D01*
X28321001Y-165776341D01*
X28320999Y-165776341D01*
X28085596Y-165796936D01*
X28085586Y-165796938D01*
X27857344Y-165858094D01*
X27857335Y-165858098D01*
X27643171Y-165957964D01*
X27643169Y-165957965D01*
X27449597Y-166093505D01*
X27282505Y-166260597D01*
X27152575Y-166446158D01*
X27097998Y-166489783D01*
X27028500Y-166496977D01*
X26966145Y-166465454D01*
X26949425Y-166446158D01*
X26819494Y-166260597D01*
X26652402Y-166093506D01*
X26652395Y-166093501D01*
X26458834Y-165957967D01*
X26458830Y-165957965D01*
X26387727Y-165924809D01*
X26244663Y-165858097D01*
X26244659Y-165858096D01*
X26244655Y-165858094D01*
X26016413Y-165796938D01*
X26016403Y-165796936D01*
X25781001Y-165776341D01*
X25780999Y-165776341D01*
X25545596Y-165796936D01*
X25545586Y-165796938D01*
X25317344Y-165858094D01*
X25317335Y-165858098D01*
X25103171Y-165957964D01*
X25103169Y-165957965D01*
X24909597Y-166093505D01*
X24742505Y-166260597D01*
X24612575Y-166446158D01*
X24557998Y-166489783D01*
X24488500Y-166496977D01*
X24426145Y-166465454D01*
X24409425Y-166446158D01*
X24279494Y-166260597D01*
X24112402Y-166093506D01*
X24112395Y-166093501D01*
X23918834Y-165957967D01*
X23918830Y-165957965D01*
X23847727Y-165924809D01*
X23704663Y-165858097D01*
X23704659Y-165858096D01*
X23704655Y-165858094D01*
X23476413Y-165796938D01*
X23476403Y-165796936D01*
X23241001Y-165776341D01*
X23240999Y-165776341D01*
X23005596Y-165796936D01*
X23005586Y-165796938D01*
X22777344Y-165858094D01*
X22777335Y-165858098D01*
X22563171Y-165957964D01*
X22563169Y-165957965D01*
X22369597Y-166093505D01*
X22202505Y-166260597D01*
X22072575Y-166446158D01*
X22017998Y-166489783D01*
X21948500Y-166496977D01*
X21886145Y-166465454D01*
X21869425Y-166446158D01*
X21739494Y-166260597D01*
X21572402Y-166093506D01*
X21572395Y-166093501D01*
X21378834Y-165957967D01*
X21378830Y-165957965D01*
X21307727Y-165924809D01*
X21164663Y-165858097D01*
X21164659Y-165858096D01*
X21164655Y-165858094D01*
X20936413Y-165796938D01*
X20936403Y-165796936D01*
X20701001Y-165776341D01*
X20700999Y-165776341D01*
X20465596Y-165796936D01*
X20465586Y-165796938D01*
X20237344Y-165858094D01*
X20237335Y-165858098D01*
X20023171Y-165957964D01*
X20023169Y-165957965D01*
X19829597Y-166093505D01*
X19662505Y-166260597D01*
X19526965Y-166454169D01*
X19526964Y-166454171D01*
X19427098Y-166668335D01*
X19427094Y-166668344D01*
X19365938Y-166896586D01*
X19365936Y-166896596D01*
X19345341Y-167131999D01*
X19345341Y-167132000D01*
X18280500Y-167132000D01*
X18280500Y-163449003D01*
X25864435Y-163449003D01*
X25884630Y-163628249D01*
X25884631Y-163628254D01*
X25944211Y-163798523D01*
X26001543Y-163889765D01*
X26040184Y-163951262D01*
X26167738Y-164078816D01*
X26320478Y-164174789D01*
X26490745Y-164234368D01*
X26490750Y-164234369D01*
X26669996Y-164254565D01*
X26670000Y-164254565D01*
X26670004Y-164254565D01*
X26805574Y-164239290D01*
X33055775Y-164239290D01*
X33075970Y-164418536D01*
X33075971Y-164418541D01*
X33135551Y-164588810D01*
X33231524Y-164741549D01*
X33359078Y-164869103D01*
X33511818Y-164965076D01*
X33682085Y-165024655D01*
X33682090Y-165024656D01*
X33861336Y-165044852D01*
X33861340Y-165044852D01*
X33861344Y-165044852D01*
X34040589Y-165024656D01*
X34040592Y-165024655D01*
X34040595Y-165024655D01*
X34210862Y-164965076D01*
X34363602Y-164869103D01*
X34491156Y-164741549D01*
X34587129Y-164588809D01*
X34646708Y-164418542D01*
X34666905Y-164239287D01*
X34648824Y-164078816D01*
X34646709Y-164060037D01*
X34646708Y-164060032D01*
X34587128Y-163889763D01*
X34491155Y-163737024D01*
X34363602Y-163609471D01*
X34210863Y-163513498D01*
X34040594Y-163453918D01*
X34040589Y-163453917D01*
X33861344Y-163433722D01*
X33861336Y-163433722D01*
X33682090Y-163453917D01*
X33682085Y-163453918D01*
X33511816Y-163513498D01*
X33359077Y-163609471D01*
X33231524Y-163737024D01*
X33135551Y-163889763D01*
X33075971Y-164060032D01*
X33075970Y-164060037D01*
X33055775Y-164239283D01*
X33055775Y-164239290D01*
X26805574Y-164239290D01*
X26849249Y-164234369D01*
X26849252Y-164234368D01*
X26849255Y-164234368D01*
X27019522Y-164174789D01*
X27172262Y-164078816D01*
X27299816Y-163951262D01*
X27395789Y-163798522D01*
X27455368Y-163628255D01*
X27455369Y-163628249D01*
X27475565Y-163449003D01*
X27475565Y-163448996D01*
X27455369Y-163269750D01*
X27455368Y-163269745D01*
X27395788Y-163099476D01*
X27299815Y-162946737D01*
X27172262Y-162819184D01*
X27019523Y-162723211D01*
X26849254Y-162663631D01*
X26849249Y-162663630D01*
X26670004Y-162643435D01*
X26669996Y-162643435D01*
X26490750Y-162663630D01*
X26490745Y-162663631D01*
X26320476Y-162723211D01*
X26167737Y-162819184D01*
X26040184Y-162946737D01*
X25944211Y-163099476D01*
X25884631Y-163269745D01*
X25884630Y-163269750D01*
X25864435Y-163448996D01*
X25864435Y-163449003D01*
X18280500Y-163449003D01*
X18280500Y-155702003D01*
X24213435Y-155702003D01*
X24233630Y-155881249D01*
X24233631Y-155881254D01*
X24293211Y-156051523D01*
X24389184Y-156204262D01*
X24516738Y-156331816D01*
X24669478Y-156427789D01*
X24839745Y-156487368D01*
X24839750Y-156487369D01*
X25018996Y-156507565D01*
X25019000Y-156507565D01*
X25019004Y-156507565D01*
X25198249Y-156487369D01*
X25198252Y-156487368D01*
X25198255Y-156487368D01*
X25368522Y-156427789D01*
X25521262Y-156331816D01*
X25648816Y-156204262D01*
X25744789Y-156051522D01*
X25804368Y-155881255D01*
X25824565Y-155702000D01*
X25804368Y-155522745D01*
X25744789Y-155352478D01*
X25648816Y-155199738D01*
X25521262Y-155072184D01*
X25368523Y-154976211D01*
X25198254Y-154916631D01*
X25198249Y-154916630D01*
X25019004Y-154896435D01*
X25018996Y-154896435D01*
X24839750Y-154916630D01*
X24839745Y-154916631D01*
X24669476Y-154976211D01*
X24516737Y-155072184D01*
X24389184Y-155199737D01*
X24293211Y-155352476D01*
X24233631Y-155522745D01*
X24233630Y-155522750D01*
X24213435Y-155701996D01*
X24213435Y-155702003D01*
X18280500Y-155702003D01*
X18280500Y-148979870D01*
X19477500Y-148979870D01*
X19477501Y-148979876D01*
X19483908Y-149039483D01*
X19534202Y-149174328D01*
X19534206Y-149174335D01*
X19620452Y-149289544D01*
X19620455Y-149289547D01*
X19735664Y-149375793D01*
X19735671Y-149375797D01*
X19870517Y-149426091D01*
X19870516Y-149426091D01*
X19877444Y-149426835D01*
X19930127Y-149432500D01*
X21725872Y-149432499D01*
X21785483Y-149426091D01*
X21920331Y-149375796D01*
X22035546Y-149289546D01*
X22121796Y-149174331D01*
X22170810Y-149042916D01*
X22212681Y-148986984D01*
X22278145Y-148962566D01*
X22346418Y-148977417D01*
X22374673Y-148998569D01*
X22496599Y-149120495D01*
X22593384Y-149188265D01*
X22690165Y-149256032D01*
X22690167Y-149256033D01*
X22690170Y-149256035D01*
X22904337Y-149355903D01*
X23132592Y-149417063D01*
X23309034Y-149432500D01*
X23367999Y-149437659D01*
X23368000Y-149437659D01*
X23368001Y-149437659D01*
X23426966Y-149432500D01*
X23603408Y-149417063D01*
X23831663Y-149355903D01*
X24045830Y-149256035D01*
X24239401Y-149120495D01*
X24406495Y-148953401D01*
X24536425Y-148767842D01*
X24591002Y-148724217D01*
X24660500Y-148717023D01*
X24722855Y-148748546D01*
X24739575Y-148767842D01*
X24869500Y-148953395D01*
X24869505Y-148953401D01*
X25036599Y-149120495D01*
X25133384Y-149188265D01*
X25230165Y-149256032D01*
X25230167Y-149256033D01*
X25230170Y-149256035D01*
X25444337Y-149355903D01*
X25672592Y-149417063D01*
X25849034Y-149432500D01*
X25907999Y-149437659D01*
X25908000Y-149437659D01*
X25908001Y-149437659D01*
X25966966Y-149432500D01*
X26143408Y-149417063D01*
X26371663Y-149355903D01*
X26585830Y-149256035D01*
X26779401Y-149120495D01*
X26946495Y-148953401D01*
X27076425Y-148767842D01*
X27131002Y-148724217D01*
X27200500Y-148717023D01*
X27262855Y-148748546D01*
X27279575Y-148767842D01*
X27409500Y-148953395D01*
X27409505Y-148953401D01*
X27576599Y-149120495D01*
X27673384Y-149188265D01*
X27770165Y-149256032D01*
X27770167Y-149256033D01*
X27770170Y-149256035D01*
X27984337Y-149355903D01*
X28212592Y-149417063D01*
X28389034Y-149432500D01*
X28447999Y-149437659D01*
X28448000Y-149437659D01*
X28448001Y-149437659D01*
X28506966Y-149432500D01*
X28683408Y-149417063D01*
X28911663Y-149355903D01*
X29125830Y-149256035D01*
X29319401Y-149120495D01*
X29486495Y-148953401D01*
X29616425Y-148767842D01*
X29671002Y-148724217D01*
X29740500Y-148717023D01*
X29802855Y-148748546D01*
X29819575Y-148767842D01*
X29949500Y-148953395D01*
X29949505Y-148953401D01*
X30116599Y-149120495D01*
X30213384Y-149188265D01*
X30310165Y-149256032D01*
X30310167Y-149256033D01*
X30310170Y-149256035D01*
X30524337Y-149355903D01*
X30752592Y-149417063D01*
X30929034Y-149432500D01*
X30987999Y-149437659D01*
X30988000Y-149437659D01*
X30988001Y-149437659D01*
X31046966Y-149432500D01*
X31223408Y-149417063D01*
X31451663Y-149355903D01*
X31665830Y-149256035D01*
X31859401Y-149120495D01*
X32026495Y-148953401D01*
X32156425Y-148767842D01*
X32211002Y-148724217D01*
X32280500Y-148717023D01*
X32342855Y-148748546D01*
X32359575Y-148767842D01*
X32489500Y-148953395D01*
X32489505Y-148953401D01*
X32656599Y-149120495D01*
X32753384Y-149188265D01*
X32850165Y-149256032D01*
X32850167Y-149256033D01*
X32850170Y-149256035D01*
X33064337Y-149355903D01*
X33292592Y-149417063D01*
X33469034Y-149432500D01*
X33527999Y-149437659D01*
X33528000Y-149437659D01*
X33528001Y-149437659D01*
X33586966Y-149432500D01*
X33763408Y-149417063D01*
X33991663Y-149355903D01*
X34205830Y-149256035D01*
X34399401Y-149120495D01*
X34566495Y-148953401D01*
X34696425Y-148767842D01*
X34751002Y-148724217D01*
X34820500Y-148717023D01*
X34882855Y-148748546D01*
X34899575Y-148767842D01*
X35029500Y-148953395D01*
X35029505Y-148953401D01*
X35196599Y-149120495D01*
X35293384Y-149188265D01*
X35390165Y-149256032D01*
X35390167Y-149256033D01*
X35390170Y-149256035D01*
X35604337Y-149355903D01*
X35832592Y-149417063D01*
X36009034Y-149432500D01*
X36067999Y-149437659D01*
X36068000Y-149437659D01*
X36068001Y-149437659D01*
X36126966Y-149432500D01*
X36303408Y-149417063D01*
X36531663Y-149355903D01*
X36745830Y-149256035D01*
X36939401Y-149120495D01*
X37106495Y-148953401D01*
X37236425Y-148767842D01*
X37291002Y-148724217D01*
X37360500Y-148717023D01*
X37422855Y-148748546D01*
X37439575Y-148767842D01*
X37569500Y-148953395D01*
X37569505Y-148953401D01*
X37736599Y-149120495D01*
X37833384Y-149188265D01*
X37930165Y-149256032D01*
X37930167Y-149256033D01*
X37930170Y-149256035D01*
X38144337Y-149355903D01*
X38372592Y-149417063D01*
X38549034Y-149432500D01*
X38607999Y-149437659D01*
X38608000Y-149437659D01*
X38608001Y-149437659D01*
X38666966Y-149432500D01*
X38843408Y-149417063D01*
X39071663Y-149355903D01*
X39285830Y-149256035D01*
X39479401Y-149120495D01*
X39646495Y-148953401D01*
X39776425Y-148767842D01*
X39831002Y-148724217D01*
X39900500Y-148717023D01*
X39962855Y-148748546D01*
X39979575Y-148767842D01*
X40109500Y-148953395D01*
X40109505Y-148953401D01*
X40276599Y-149120495D01*
X40373384Y-149188265D01*
X40470165Y-149256032D01*
X40470167Y-149256033D01*
X40470170Y-149256035D01*
X40684337Y-149355903D01*
X40912592Y-149417063D01*
X41089034Y-149432500D01*
X41147999Y-149437659D01*
X41148000Y-149437659D01*
X41148001Y-149437659D01*
X41206966Y-149432500D01*
X41383408Y-149417063D01*
X41611663Y-149355903D01*
X41825830Y-149256035D01*
X42019401Y-149120495D01*
X42186495Y-148953401D01*
X42322035Y-148759830D01*
X42421903Y-148545663D01*
X42483063Y-148317408D01*
X42503659Y-148082000D01*
X42483063Y-147846592D01*
X42421903Y-147618337D01*
X42322035Y-147404171D01*
X42316425Y-147396158D01*
X42186494Y-147210597D01*
X42019402Y-147043506D01*
X42019395Y-147043501D01*
X41825834Y-146907967D01*
X41825830Y-146907965D01*
X41825828Y-146907964D01*
X41611663Y-146808097D01*
X41611659Y-146808096D01*
X41611655Y-146808094D01*
X41383413Y-146746938D01*
X41383403Y-146746936D01*
X41148001Y-146726341D01*
X41147999Y-146726341D01*
X40912596Y-146746936D01*
X40912586Y-146746938D01*
X40684344Y-146808094D01*
X40684335Y-146808098D01*
X40470171Y-146907964D01*
X40470169Y-146907965D01*
X40276597Y-147043505D01*
X40109505Y-147210597D01*
X39979575Y-147396158D01*
X39924998Y-147439783D01*
X39855500Y-147446977D01*
X39793145Y-147415454D01*
X39776425Y-147396158D01*
X39646494Y-147210597D01*
X39479402Y-147043506D01*
X39479395Y-147043501D01*
X39285834Y-146907967D01*
X39285830Y-146907965D01*
X39285828Y-146907964D01*
X39071663Y-146808097D01*
X39071659Y-146808096D01*
X39071655Y-146808094D01*
X38843413Y-146746938D01*
X38843403Y-146746936D01*
X38608001Y-146726341D01*
X38607999Y-146726341D01*
X38372596Y-146746936D01*
X38372586Y-146746938D01*
X38144344Y-146808094D01*
X38144335Y-146808098D01*
X37930171Y-146907964D01*
X37930169Y-146907965D01*
X37736597Y-147043505D01*
X37569505Y-147210597D01*
X37439575Y-147396158D01*
X37384998Y-147439783D01*
X37315500Y-147446977D01*
X37253145Y-147415454D01*
X37236425Y-147396158D01*
X37106494Y-147210597D01*
X36939402Y-147043506D01*
X36939395Y-147043501D01*
X36745834Y-146907967D01*
X36745830Y-146907965D01*
X36745828Y-146907964D01*
X36531663Y-146808097D01*
X36531659Y-146808096D01*
X36531655Y-146808094D01*
X36303413Y-146746938D01*
X36303403Y-146746936D01*
X36068001Y-146726341D01*
X36067999Y-146726341D01*
X35832596Y-146746936D01*
X35832586Y-146746938D01*
X35604344Y-146808094D01*
X35604335Y-146808098D01*
X35390171Y-146907964D01*
X35390169Y-146907965D01*
X35196597Y-147043505D01*
X35029505Y-147210597D01*
X34899575Y-147396158D01*
X34844998Y-147439783D01*
X34775500Y-147446977D01*
X34713145Y-147415454D01*
X34696425Y-147396158D01*
X34566494Y-147210597D01*
X34399402Y-147043506D01*
X34399395Y-147043501D01*
X34205834Y-146907967D01*
X34205830Y-146907965D01*
X34205828Y-146907964D01*
X33991663Y-146808097D01*
X33991659Y-146808096D01*
X33991655Y-146808094D01*
X33763413Y-146746938D01*
X33763403Y-146746936D01*
X33528001Y-146726341D01*
X33527999Y-146726341D01*
X33292596Y-146746936D01*
X33292586Y-146746938D01*
X33064344Y-146808094D01*
X33064335Y-146808098D01*
X32850171Y-146907964D01*
X32850169Y-146907965D01*
X32656597Y-147043505D01*
X32489505Y-147210597D01*
X32359575Y-147396158D01*
X32304998Y-147439783D01*
X32235500Y-147446977D01*
X32173145Y-147415454D01*
X32156425Y-147396158D01*
X32026494Y-147210597D01*
X31859402Y-147043506D01*
X31859395Y-147043501D01*
X31665834Y-146907967D01*
X31665830Y-146907965D01*
X31665828Y-146907964D01*
X31451663Y-146808097D01*
X31451659Y-146808096D01*
X31451655Y-146808094D01*
X31223413Y-146746938D01*
X31223403Y-146746936D01*
X30988001Y-146726341D01*
X30987999Y-146726341D01*
X30752596Y-146746936D01*
X30752586Y-146746938D01*
X30524344Y-146808094D01*
X30524335Y-146808098D01*
X30310171Y-146907964D01*
X30310169Y-146907965D01*
X30116597Y-147043505D01*
X29949505Y-147210597D01*
X29819575Y-147396158D01*
X29764998Y-147439783D01*
X29695500Y-147446977D01*
X29633145Y-147415454D01*
X29616425Y-147396158D01*
X29486494Y-147210597D01*
X29319402Y-147043506D01*
X29319395Y-147043501D01*
X29125834Y-146907967D01*
X29125830Y-146907965D01*
X29125828Y-146907964D01*
X28911663Y-146808097D01*
X28911659Y-146808096D01*
X28911655Y-146808094D01*
X28683413Y-146746938D01*
X28683403Y-146746936D01*
X28448001Y-146726341D01*
X28447999Y-146726341D01*
X28212596Y-146746936D01*
X28212586Y-146746938D01*
X27984344Y-146808094D01*
X27984335Y-146808098D01*
X27770171Y-146907964D01*
X27770169Y-146907965D01*
X27576597Y-147043505D01*
X27409505Y-147210597D01*
X27279575Y-147396158D01*
X27224998Y-147439783D01*
X27155500Y-147446977D01*
X27093145Y-147415454D01*
X27076425Y-147396158D01*
X26946494Y-147210597D01*
X26779402Y-147043506D01*
X26779395Y-147043501D01*
X26585834Y-146907967D01*
X26585830Y-146907965D01*
X26585828Y-146907964D01*
X26371663Y-146808097D01*
X26371659Y-146808096D01*
X26371655Y-146808094D01*
X26143413Y-146746938D01*
X26143403Y-146746936D01*
X25908001Y-146726341D01*
X25907999Y-146726341D01*
X25672596Y-146746936D01*
X25672586Y-146746938D01*
X25444344Y-146808094D01*
X25444335Y-146808098D01*
X25230171Y-146907964D01*
X25230169Y-146907965D01*
X25036597Y-147043505D01*
X24869505Y-147210597D01*
X24739575Y-147396158D01*
X24684998Y-147439783D01*
X24615500Y-147446977D01*
X24553145Y-147415454D01*
X24536425Y-147396158D01*
X24406494Y-147210597D01*
X24239402Y-147043506D01*
X24239395Y-147043501D01*
X24045834Y-146907967D01*
X24045830Y-146907965D01*
X24045828Y-146907964D01*
X23831663Y-146808097D01*
X23831659Y-146808096D01*
X23831655Y-146808094D01*
X23603413Y-146746938D01*
X23603403Y-146746936D01*
X23368001Y-146726341D01*
X23367999Y-146726341D01*
X23132596Y-146746936D01*
X23132586Y-146746938D01*
X22904344Y-146808094D01*
X22904335Y-146808098D01*
X22690171Y-146907964D01*
X22690169Y-146907965D01*
X22496600Y-147043503D01*
X22374673Y-147165430D01*
X22313350Y-147198914D01*
X22243658Y-147193930D01*
X22187725Y-147152058D01*
X22170810Y-147121081D01*
X22121797Y-146989671D01*
X22121793Y-146989664D01*
X22035547Y-146874455D01*
X22035544Y-146874452D01*
X21920335Y-146788206D01*
X21920328Y-146788202D01*
X21785482Y-146737908D01*
X21785483Y-146737908D01*
X21725883Y-146731501D01*
X21725881Y-146731500D01*
X21725873Y-146731500D01*
X21725864Y-146731500D01*
X19930129Y-146731500D01*
X19930123Y-146731501D01*
X19870516Y-146737908D01*
X19735671Y-146788202D01*
X19735664Y-146788206D01*
X19620455Y-146874452D01*
X19620452Y-146874455D01*
X19534206Y-146989664D01*
X19534202Y-146989671D01*
X19483908Y-147124517D01*
X19477501Y-147184116D01*
X19477500Y-147184135D01*
X19477500Y-148979870D01*
X18280500Y-148979870D01*
X18280500Y-137784500D01*
X18300185Y-137717461D01*
X18352989Y-137671706D01*
X18404500Y-137660500D01*
X43190500Y-137660500D01*
X43257539Y-137680185D01*
G37*
G04 #@! TD.AperFunction*
M02*
