G04 #@! TF.GenerationSoftware,KiCad,Pcbnew,8.0.0-8.0.0-1~ubuntu20.04.1*
G04 #@! TF.CreationDate,2025-04-10T19:36:48+02:00*
G04 #@! TF.ProjectId,eeg-breakout-legendsemi,6565672d-6272-4656-916b-6f75742d6c65,1*
G04 #@! TF.SameCoordinates,Original*
G04 #@! TF.FileFunction,Copper,L1,Top*
G04 #@! TF.FilePolarity,Positive*
%FSLAX46Y46*%
G04 Gerber Fmt 4.6, Leading zero omitted, Abs format (unit mm)*
G04 Created by KiCad (PCBNEW 8.0.0-8.0.0-1~ubuntu20.04.1) date 2025-04-10 19:36:48*
%MOMM*%
%LPD*%
G01*
G04 APERTURE LIST*
G04 Aperture macros list*
%AMRoundRect*
0 Rectangle with rounded corners*
0 $1 Rounding radius*
0 $2 $3 $4 $5 $6 $7 $8 $9 X,Y pos of 4 corners*
0 Add a 4 corners polygon primitive as box body*
4,1,4,$2,$3,$4,$5,$6,$7,$8,$9,$2,$3,0*
0 Add four circle primitives for the rounded corners*
1,1,$1+$1,$2,$3*
1,1,$1+$1,$4,$5*
1,1,$1+$1,$6,$7*
1,1,$1+$1,$8,$9*
0 Add four rect primitives between the rounded corners*
20,1,$1+$1,$2,$3,$4,$5,0*
20,1,$1+$1,$4,$5,$6,$7,0*
20,1,$1+$1,$6,$7,$8,$9,0*
20,1,$1+$1,$8,$9,$2,$3,0*%
G04 Aperture macros list end*
G04 #@! TA.AperFunction,SMDPad,CuDef*
%ADD10RoundRect,0.140000X0.140000X0.170000X-0.140000X0.170000X-0.140000X-0.170000X0.140000X-0.170000X0*%
G04 #@! TD*
G04 #@! TA.AperFunction,SMDPad,CuDef*
%ADD11RoundRect,0.135000X-0.185000X0.135000X-0.185000X-0.135000X0.185000X-0.135000X0.185000X0.135000X0*%
G04 #@! TD*
G04 #@! TA.AperFunction,SMDPad,CuDef*
%ADD12RoundRect,0.140000X-0.140000X-0.170000X0.140000X-0.170000X0.140000X0.170000X-0.140000X0.170000X0*%
G04 #@! TD*
G04 #@! TA.AperFunction,SMDPad,CuDef*
%ADD13RoundRect,0.135000X0.135000X0.185000X-0.135000X0.185000X-0.135000X-0.185000X0.135000X-0.185000X0*%
G04 #@! TD*
G04 #@! TA.AperFunction,SMDPad,CuDef*
%ADD14RoundRect,0.140000X0.170000X-0.140000X0.170000X0.140000X-0.170000X0.140000X-0.170000X-0.140000X0*%
G04 #@! TD*
G04 #@! TA.AperFunction,ComponentPad*
%ADD15R,1.700000X1.700000*%
G04 #@! TD*
G04 #@! TA.AperFunction,ComponentPad*
%ADD16O,1.700000X1.700000*%
G04 #@! TD*
G04 #@! TA.AperFunction,SMDPad,CuDef*
%ADD17RoundRect,0.140000X-0.170000X0.140000X-0.170000X-0.140000X0.170000X-0.140000X0.170000X0.140000X0*%
G04 #@! TD*
G04 #@! TA.AperFunction,SMDPad,CuDef*
%ADD18RoundRect,0.225000X-0.225000X-0.250000X0.225000X-0.250000X0.225000X0.250000X-0.225000X0.250000X0*%
G04 #@! TD*
G04 #@! TA.AperFunction,SMDPad,CuDef*
%ADD19RoundRect,0.135000X-0.135000X-0.185000X0.135000X-0.185000X0.135000X0.185000X-0.135000X0.185000X0*%
G04 #@! TD*
G04 #@! TA.AperFunction,SMDPad,CuDef*
%ADD20RoundRect,0.062500X-0.062500X0.350000X-0.062500X-0.350000X0.062500X-0.350000X0.062500X0.350000X0*%
G04 #@! TD*
G04 #@! TA.AperFunction,SMDPad,CuDef*
%ADD21RoundRect,0.062500X-0.350000X0.062500X-0.350000X-0.062500X0.350000X-0.062500X0.350000X0.062500X0*%
G04 #@! TD*
G04 #@! TA.AperFunction,HeatsinkPad*
%ADD22R,3.600000X3.600000*%
G04 #@! TD*
G04 #@! TA.AperFunction,ViaPad*
%ADD23C,0.600000*%
G04 #@! TD*
G04 #@! TA.AperFunction,Conductor*
%ADD24C,0.203200*%
G04 #@! TD*
G04 #@! TA.AperFunction,Conductor*
%ADD25C,0.200000*%
G04 #@! TD*
G04 APERTURE END LIST*
D10*
X26924000Y-152781000D03*
X25964000Y-152781000D03*
D11*
X24765000Y-150495000D03*
X24765000Y-151515000D03*
D12*
X33020000Y-159639000D03*
X33980000Y-159639000D03*
D11*
X31242000Y-150493000D03*
X31242000Y-151513000D03*
D10*
X22225000Y-152781000D03*
X21265000Y-152781000D03*
X24765000Y-152781000D03*
X23805000Y-152781000D03*
D11*
X33401000Y-150493000D03*
X33401000Y-151513000D03*
D13*
X36165000Y-156563000D03*
X35145000Y-156563000D03*
D11*
X29083000Y-150493000D03*
X29083000Y-151513000D03*
D14*
X26797000Y-155928000D03*
X26797000Y-154968000D03*
D11*
X26924000Y-150493000D03*
X26924000Y-151513000D03*
D15*
X35941000Y-167132000D03*
D16*
X33401000Y-167132000D03*
X30861000Y-167132000D03*
X28321000Y-167132000D03*
X25781000Y-167132000D03*
X23241000Y-167132000D03*
X20701000Y-167132000D03*
D11*
X22352000Y-150620000D03*
X22352000Y-151640000D03*
D10*
X35814000Y-152781000D03*
X34854000Y-152781000D03*
D17*
X34006000Y-157607000D03*
X34006000Y-158567000D03*
D11*
X32990000Y-157577000D03*
X32990000Y-158597000D03*
D12*
X33203000Y-162433000D03*
X34163000Y-162433000D03*
X33203000Y-163449000D03*
X34163000Y-163449000D03*
D15*
X20828000Y-148082000D03*
D16*
X23368000Y-148082000D03*
X25908000Y-148082000D03*
X28448000Y-148082000D03*
X30988000Y-148082000D03*
X33528000Y-148082000D03*
X36068000Y-148082000D03*
X38608000Y-148082000D03*
X41148000Y-148082000D03*
D10*
X38072000Y-152781000D03*
X37112000Y-152781000D03*
X31369000Y-152781000D03*
X30409000Y-152781000D03*
D18*
X33642000Y-161036000D03*
X35192000Y-161036000D03*
D10*
X29182000Y-152781000D03*
X28222000Y-152781000D03*
X33528000Y-152781000D03*
X32568000Y-152781000D03*
X36109000Y-155547000D03*
X35149000Y-155547000D03*
D14*
X25781000Y-155928000D03*
X25781000Y-154968000D03*
X27841000Y-155900000D03*
X27841000Y-154940000D03*
D19*
X32988000Y-156563000D03*
X34008000Y-156563000D03*
D11*
X37973000Y-150495000D03*
X37973000Y-151515000D03*
D17*
X32004000Y-163703000D03*
X32004000Y-164663000D03*
D11*
X35687000Y-150493000D03*
X35687000Y-151513000D03*
D20*
X30899000Y-157607000D03*
X30499000Y-157607000D03*
X30099000Y-157607000D03*
X29699000Y-157607000D03*
X29299000Y-157607000D03*
X28899000Y-157607000D03*
X28499000Y-157607000D03*
X28099000Y-157607000D03*
X27699000Y-157607000D03*
X27299000Y-157607000D03*
D21*
X26661500Y-158244500D03*
X26661500Y-158644500D03*
X26661500Y-159044500D03*
X26661500Y-159444500D03*
X26661500Y-159844500D03*
X26661500Y-160244500D03*
X26661500Y-160644500D03*
X26661500Y-161044500D03*
X26661500Y-161444500D03*
X26661500Y-161844500D03*
D20*
X27299000Y-162482000D03*
X27699000Y-162482000D03*
X28099000Y-162482000D03*
X28499000Y-162482000D03*
X28899000Y-162482000D03*
X29299000Y-162482000D03*
X29699000Y-162482000D03*
X30099000Y-162482000D03*
X30499000Y-162482000D03*
X30899000Y-162482000D03*
D21*
X31536500Y-161844500D03*
X31536500Y-161444500D03*
X31536500Y-161044500D03*
X31536500Y-160644500D03*
X31536500Y-160244500D03*
X31536500Y-159844500D03*
X31536500Y-159444500D03*
X31536500Y-159044500D03*
X31536500Y-158644500D03*
X31536500Y-158244500D03*
D22*
X29099000Y-160044500D03*
D23*
X26670000Y-163449000D03*
X25019000Y-155702000D03*
X33861340Y-164239287D03*
X23749000Y-151765000D03*
X33147000Y-165100000D03*
X36957000Y-151765000D03*
X30226000Y-151765000D03*
X34696400Y-159613600D03*
X28067000Y-151765000D03*
X21209000Y-151765000D03*
X30226000Y-158877000D03*
X36169600Y-161036000D03*
X26797000Y-154178000D03*
X34899600Y-162966400D03*
X27813000Y-161036000D03*
X32385000Y-151765000D03*
X25908000Y-151765000D03*
X34544000Y-151765000D03*
D24*
X25781000Y-155928000D02*
X25245000Y-155928000D01*
X27299000Y-162482000D02*
X27699000Y-162482000D01*
X28099000Y-157607000D02*
X28099000Y-156750000D01*
X33175000Y-163552947D02*
X33175000Y-163477000D01*
X33203000Y-162433000D02*
X32766000Y-161996000D01*
X32766000Y-161036000D02*
X32374500Y-160644500D01*
X26670000Y-163111000D02*
X27299000Y-162482000D01*
X27813000Y-156464000D02*
X27333000Y-156464000D01*
X32374500Y-160644500D02*
X31536500Y-160644500D01*
X25245000Y-155928000D02*
X25019000Y-155702000D01*
X28099000Y-156750000D02*
X27813000Y-156464000D01*
X33861340Y-164239287D02*
X33175000Y-163552947D01*
X26670000Y-163449000D02*
X26670000Y-163111000D01*
X32766000Y-161996000D02*
X32766000Y-161036000D01*
X27333000Y-156464000D02*
X26797000Y-155928000D01*
X33401000Y-163477000D02*
X33429000Y-163449000D01*
X25781000Y-155928000D02*
X26797000Y-155928000D01*
X33203000Y-162433000D02*
X33203000Y-163449000D01*
X27841000Y-154940000D02*
X25809000Y-154940000D01*
X34163000Y-163449000D02*
X34417000Y-163449000D01*
X34163000Y-162433000D02*
X34366200Y-162433000D01*
X26797000Y-154968000D02*
X26797000Y-154178000D01*
D25*
X34544000Y-152471000D02*
X34854000Y-152781000D01*
X28067000Y-152626000D02*
X28222000Y-152781000D01*
D24*
X30899000Y-162482000D02*
X30899000Y-162065436D01*
X33147000Y-165100000D02*
X32710000Y-164663000D01*
X30872400Y-162038836D02*
X30872400Y-161817900D01*
D25*
X21209000Y-151765000D02*
X21209000Y-152725000D01*
D24*
X25809000Y-154940000D02*
X25781000Y-154968000D01*
D25*
X36957000Y-152626000D02*
X37112000Y-152781000D01*
X23749000Y-151765000D02*
X23749000Y-152725000D01*
D24*
X34366200Y-162433000D02*
X34899600Y-162966400D01*
X30899000Y-162065436D02*
X30872400Y-162038836D01*
X31536500Y-160244500D02*
X29299000Y-160244500D01*
X34696400Y-159613600D02*
X34005400Y-159613600D01*
X30872400Y-161817900D02*
X29099000Y-160044500D01*
X34005400Y-159613600D02*
X33980000Y-159639000D01*
D25*
X32385000Y-151765000D02*
X32385000Y-152598000D01*
X32385000Y-152598000D02*
X32568000Y-152781000D01*
X30226000Y-152598000D02*
X30409000Y-152781000D01*
D24*
X26661500Y-160644500D02*
X26661500Y-161844500D01*
X29299000Y-160244500D02*
X29099000Y-160044500D01*
D25*
X28067000Y-151765000D02*
X28067000Y-152626000D01*
X34544000Y-151765000D02*
X34544000Y-152471000D01*
X25908000Y-152725000D02*
X25964000Y-152781000D01*
D24*
X35192000Y-161036000D02*
X36169600Y-161036000D01*
D25*
X25908000Y-151765000D02*
X25908000Y-152725000D01*
D24*
X27804500Y-161044500D02*
X27813000Y-161036000D01*
X32710000Y-164663000D02*
X32004000Y-164663000D01*
D25*
X30226000Y-151765000D02*
X30226000Y-152598000D01*
X21209000Y-152725000D02*
X21265000Y-152781000D01*
X36957000Y-151765000D02*
X36957000Y-152626000D01*
D24*
X34417000Y-163449000D02*
X34899600Y-162966400D01*
D25*
X23749000Y-152725000D02*
X23805000Y-152781000D01*
D24*
X26661500Y-161044500D02*
X27804500Y-161044500D01*
X34248172Y-155364759D02*
X35790531Y-153822400D01*
X31871241Y-155364759D02*
X30899000Y-156337000D01*
X31871241Y-155364759D02*
X34248172Y-155364759D01*
X35790531Y-153822400D02*
X37030600Y-153822400D01*
D25*
X37973000Y-152682000D02*
X38072000Y-152781000D01*
D24*
X37030600Y-153822400D02*
X38072000Y-152781000D01*
X30899000Y-156337000D02*
X30899000Y-157607000D01*
D25*
X37973000Y-151515000D02*
X37973000Y-152682000D01*
D24*
X30499000Y-155784600D02*
X31496000Y-154787600D01*
D25*
X35687000Y-151513000D02*
X35687000Y-152654000D01*
D24*
X30499000Y-157607000D02*
X30499000Y-155784600D01*
X33807400Y-154787600D02*
X35814000Y-152781000D01*
X31496000Y-154787600D02*
X33807400Y-154787600D01*
D25*
X35616000Y-151584000D02*
X35687000Y-151513000D01*
X35687000Y-152654000D02*
X35814000Y-152781000D01*
D24*
X39116000Y-150114000D02*
X41148000Y-148082000D01*
X36576000Y-154305000D02*
X38171000Y-154305000D01*
X38171000Y-154305000D02*
X39116000Y-153360000D01*
X36109000Y-155547000D02*
X36109000Y-156507000D01*
X36109000Y-155547000D02*
X36109000Y-154772000D01*
X36109000Y-154772000D02*
X36576000Y-154305000D01*
X39116000Y-153360000D02*
X39116000Y-150114000D01*
X32342354Y-153873200D02*
X33434554Y-152781000D01*
X30099000Y-157607000D02*
X30099000Y-155143200D01*
X31369000Y-153873200D02*
X32342354Y-153873200D01*
X30099000Y-155143200D02*
X31369000Y-153873200D01*
D25*
X33401000Y-152654000D02*
X33528000Y-152781000D01*
X33401000Y-151513000D02*
X33401000Y-152654000D01*
D24*
X29699000Y-154451000D02*
X31369000Y-152781000D01*
X29699000Y-157607000D02*
X29699000Y-154451000D01*
D25*
X31242000Y-152654000D02*
X31369000Y-152781000D01*
X31242000Y-151513000D02*
X31242000Y-152654000D01*
X29083000Y-151513000D02*
X29083000Y-152682000D01*
X29083000Y-152682000D02*
X29182000Y-152781000D01*
D24*
X29299000Y-157607000D02*
X29299000Y-152898000D01*
X28899000Y-157607000D02*
X28899000Y-154756000D01*
D25*
X26924000Y-151513000D02*
X26924000Y-152781000D01*
D24*
X28899000Y-154756000D02*
X26924000Y-152781000D01*
X27699000Y-157148564D02*
X27395436Y-156845000D01*
X25311209Y-156845000D02*
X24384000Y-155917791D01*
X24384000Y-155917791D02*
X24384000Y-153162000D01*
X27699000Y-157607000D02*
X27699000Y-157148564D01*
D25*
X24765000Y-151515000D02*
X24765000Y-152781000D01*
D24*
X24384000Y-153162000D02*
X24765000Y-152781000D01*
X27395436Y-156845000D02*
X25311209Y-156845000D01*
X27299000Y-157607000D02*
X25400000Y-157607000D01*
X22225000Y-154432000D02*
X22225000Y-152781000D01*
D25*
X22352000Y-151640000D02*
X22352000Y-152654000D01*
D24*
X25400000Y-157607000D02*
X22225000Y-154432000D01*
D25*
X22352000Y-152654000D02*
X22225000Y-152781000D01*
X29083000Y-148717000D02*
X28448000Y-148082000D01*
X29083000Y-150493000D02*
X29083000Y-148717000D01*
X33401000Y-150493000D02*
X33401000Y-148209000D01*
X33401000Y-148209000D02*
X33528000Y-148082000D01*
X33401000Y-148082000D02*
X33655000Y-147828000D01*
X26924000Y-149098000D02*
X25908000Y-148082000D01*
X26924000Y-150493000D02*
X26924000Y-149098000D01*
X31242000Y-148336000D02*
X30988000Y-148082000D01*
X31242000Y-147955000D02*
X31115000Y-147828000D01*
X31242000Y-150493000D02*
X31242000Y-148336000D01*
X35687000Y-148463000D02*
X36068000Y-148082000D01*
X35687000Y-150493000D02*
X35687000Y-148463000D01*
X37973000Y-150495000D02*
X37973000Y-148717000D01*
X37973000Y-148717000D02*
X38608000Y-148082000D01*
X24765000Y-149479000D02*
X23368000Y-148082000D01*
X24765000Y-150495000D02*
X24765000Y-149479000D01*
X22352000Y-149606000D02*
X20828000Y-148082000D01*
X22352000Y-150620000D02*
X22352000Y-149606000D01*
D24*
X28829000Y-164973000D02*
X28829000Y-166624000D01*
X28829000Y-166624000D02*
X28321000Y-167132000D01*
X29699000Y-164103000D02*
X28829000Y-164973000D01*
X29699000Y-162482000D02*
X29699000Y-164103000D01*
X30099000Y-166370000D02*
X30861000Y-167132000D01*
X30099000Y-162482000D02*
X30099000Y-166370000D01*
X29299000Y-162482000D02*
X29299000Y-163614000D01*
X29299000Y-163614000D02*
X25781000Y-167132000D01*
X30499000Y-164865000D02*
X30499000Y-162482000D01*
X33401000Y-167132000D02*
X32004000Y-165735000D01*
X31369000Y-165735000D02*
X30499000Y-164865000D01*
X32004000Y-165735000D02*
X31369000Y-165735000D01*
X28899000Y-163159718D02*
X26450718Y-165608000D01*
X24765000Y-165608000D02*
X23241000Y-167132000D01*
X28899000Y-162482000D02*
X28899000Y-163159718D01*
X26450718Y-165608000D02*
X24765000Y-165608000D01*
X28499000Y-157607000D02*
X28499000Y-156558000D01*
X28499000Y-156558000D02*
X27841000Y-155900000D01*
X32004000Y-163703000D02*
X32258000Y-163449000D01*
X31536500Y-161044500D02*
X31994936Y-161044500D01*
X32258000Y-163449000D02*
X32258000Y-161307564D01*
X31994936Y-161044500D02*
X32258000Y-161307564D01*
X32990000Y-157649436D02*
X32990000Y-157577000D01*
X34006000Y-157607000D02*
X33020000Y-157607000D01*
X31994936Y-158644500D02*
X32990000Y-157649436D01*
X31536500Y-158644500D02*
X31994936Y-158644500D01*
X35145000Y-156563000D02*
X35145000Y-155551000D01*
X34567600Y-158005400D02*
X34567600Y-157122600D01*
X34006000Y-158567000D02*
X34567600Y-158005400D01*
X35175000Y-156341000D02*
X35179000Y-156337000D01*
X32990000Y-158597000D02*
X33976000Y-158597000D01*
X32542500Y-159044500D02*
X32990000Y-158597000D01*
X34567600Y-157122600D02*
X34008000Y-156563000D01*
X31536500Y-159044500D02*
X32542500Y-159044500D01*
X34008000Y-156563000D02*
X35145000Y-156563000D01*
X33401000Y-161036000D02*
X33642000Y-161036000D01*
X31536500Y-159844500D02*
X32209500Y-159844500D01*
X32209500Y-159844500D02*
X33401000Y-161036000D01*
X32825500Y-159444500D02*
X33020000Y-159639000D01*
X31536500Y-159444500D02*
X32825500Y-159444500D01*
X31536500Y-158244500D02*
X31536500Y-158014500D01*
X31536500Y-158014500D02*
X32988000Y-156563000D01*
G04 #@! TA.AperFunction,Conductor*
G36*
X25521586Y-149376601D02*
G01*
X25672592Y-149417063D01*
X25849034Y-149432500D01*
X25907999Y-149437659D01*
X25908000Y-149437659D01*
X25908001Y-149437659D01*
X25966966Y-149432500D01*
X26143408Y-149417063D01*
X26167405Y-149410633D01*
X26237255Y-149412294D01*
X26295118Y-149451456D01*
X26322623Y-149515684D01*
X26323500Y-149530407D01*
X26323500Y-149823404D01*
X26303815Y-149890443D01*
X26287181Y-149911085D01*
X26232869Y-149965396D01*
X26232863Y-149965404D01*
X26151131Y-150103606D01*
X26151129Y-150103611D01*
X26106335Y-150257791D01*
X26106334Y-150257797D01*
X26103500Y-150293811D01*
X26103500Y-150692169D01*
X26103501Y-150692191D01*
X26106335Y-150728205D01*
X26151129Y-150882388D01*
X26151132Y-150882395D01*
X26185128Y-150939881D01*
X26202309Y-151007605D01*
X26185128Y-151066119D01*
X26151132Y-151123604D01*
X26151129Y-151123611D01*
X26106335Y-151277791D01*
X26106334Y-151277797D01*
X26103500Y-151313811D01*
X26103500Y-151712169D01*
X26103501Y-151712191D01*
X26106334Y-151748200D01*
X26106335Y-151748202D01*
X26106335Y-151748204D01*
X26106916Y-151750204D01*
X26151129Y-151902388D01*
X26151131Y-151902393D01*
X26196733Y-151979502D01*
X26214000Y-152042620D01*
X26214000Y-152282645D01*
X26196734Y-152345763D01*
X26191507Y-152354600D01*
X26191504Y-152354608D01*
X26146357Y-152510002D01*
X26146356Y-152510008D01*
X26143500Y-152546302D01*
X26143500Y-153015697D01*
X26146356Y-153051991D01*
X26146357Y-153051997D01*
X26191503Y-153207389D01*
X26191505Y-153207393D01*
X26191506Y-153207395D01*
X26196732Y-153216233D01*
X26214000Y-153279352D01*
X26214000Y-153585503D01*
X26360194Y-153543032D01*
X26380384Y-153531091D01*
X26448108Y-153513906D01*
X26506629Y-153531089D01*
X26527605Y-153543494D01*
X26568587Y-153555400D01*
X26683002Y-153588642D01*
X26683005Y-153588642D01*
X26683007Y-153588643D01*
X26719310Y-153591500D01*
X26831640Y-153591500D01*
X26898679Y-153611185D01*
X26919321Y-153627819D01*
X27310574Y-154019072D01*
X27344059Y-154080395D01*
X27339075Y-154150087D01*
X27297203Y-154206020D01*
X27231739Y-154230437D01*
X27188298Y-154225830D01*
X27067909Y-154190854D01*
X27067912Y-154190854D01*
X27047000Y-154189209D01*
X27047000Y-154690000D01*
X27930140Y-154690000D01*
X27997179Y-154709685D01*
X28017821Y-154726319D01*
X28054681Y-154763179D01*
X28088166Y-154824502D01*
X28091000Y-154850860D01*
X28091000Y-154995500D01*
X28071315Y-155062539D01*
X28018511Y-155108294D01*
X27967000Y-155119500D01*
X27606302Y-155119500D01*
X27570008Y-155122356D01*
X27570002Y-155122357D01*
X27414609Y-155167504D01*
X27414604Y-155167506D01*
X27358446Y-155200717D01*
X27290722Y-155217898D01*
X27232206Y-155200716D01*
X27223399Y-155195507D01*
X27223391Y-155195504D01*
X27067997Y-155150357D01*
X27067991Y-155150356D01*
X27031697Y-155147500D01*
X27031690Y-155147500D01*
X26562310Y-155147500D01*
X26562302Y-155147500D01*
X26526008Y-155150356D01*
X26526002Y-155150357D01*
X26370610Y-155195503D01*
X26370605Y-155195506D01*
X26361766Y-155200732D01*
X26298648Y-155218000D01*
X26279352Y-155218000D01*
X26216233Y-155200732D01*
X26207395Y-155195506D01*
X26207393Y-155195505D01*
X26207389Y-155195503D01*
X26051997Y-155150357D01*
X26051991Y-155150356D01*
X26015697Y-155147500D01*
X26015690Y-155147500D01*
X25655000Y-155147500D01*
X25587961Y-155127815D01*
X25542206Y-155075011D01*
X25531000Y-155023500D01*
X25531000Y-154718000D01*
X26031000Y-154718000D01*
X26547000Y-154718000D01*
X26547000Y-154189210D01*
X26546999Y-154189209D01*
X26526087Y-154190854D01*
X26526081Y-154190855D01*
X26370809Y-154235966D01*
X26370804Y-154235968D01*
X26352118Y-154247019D01*
X26284394Y-154264199D01*
X26225882Y-154247019D01*
X26207195Y-154235968D01*
X26207190Y-154235966D01*
X26051918Y-154190855D01*
X26051912Y-154190854D01*
X26031000Y-154189209D01*
X26031000Y-154718000D01*
X25531000Y-154718000D01*
X25531000Y-154189210D01*
X25530999Y-154189209D01*
X25510087Y-154190854D01*
X25510081Y-154190855D01*
X25354809Y-154235966D01*
X25354804Y-154235968D01*
X25215625Y-154318278D01*
X25215616Y-154318285D01*
X25197781Y-154336121D01*
X25136458Y-154369606D01*
X25066766Y-154364622D01*
X25010833Y-154322750D01*
X24986416Y-154257286D01*
X24986100Y-154248440D01*
X24986100Y-153687524D01*
X25005785Y-153620485D01*
X25058589Y-153574730D01*
X25075505Y-153568448D01*
X25112763Y-153557622D01*
X25161395Y-153543494D01*
X25300687Y-153461117D01*
X25300689Y-153461114D01*
X25301869Y-153460417D01*
X25369592Y-153443234D01*
X25428111Y-153460417D01*
X25567804Y-153543031D01*
X25714000Y-153585504D01*
X25714000Y-151976494D01*
X25713467Y-151976094D01*
X25645484Y-151975901D01*
X25586814Y-151937959D01*
X25557970Y-151874320D01*
X25561682Y-151822429D01*
X25582664Y-151750208D01*
X25582664Y-151750206D01*
X25582665Y-151750204D01*
X25585500Y-151714181D01*
X25585499Y-151315820D01*
X25582665Y-151279796D01*
X25537869Y-151125607D01*
X25503869Y-151068117D01*
X25486688Y-151000398D01*
X25503869Y-150941882D01*
X25537869Y-150884393D01*
X25538450Y-150882395D01*
X25582664Y-150730208D01*
X25582664Y-150730206D01*
X25582665Y-150730204D01*
X25585500Y-150694181D01*
X25585499Y-150295820D01*
X25582665Y-150259796D01*
X25537869Y-150105607D01*
X25456135Y-149967402D01*
X25456133Y-149967400D01*
X25456130Y-149967396D01*
X25401819Y-149913085D01*
X25368334Y-149851762D01*
X25365500Y-149825404D01*
X25365500Y-149496378D01*
X25385185Y-149429339D01*
X25437989Y-149383584D01*
X25507147Y-149373640D01*
X25521586Y-149376601D01*
G37*
G04 #@! TD.AperFunction*
G04 #@! TA.AperFunction,Conductor*
G36*
X23801606Y-149384335D02*
G01*
X23851531Y-149414766D01*
X24128181Y-149691416D01*
X24161666Y-149752739D01*
X24164500Y-149779097D01*
X24164500Y-149825404D01*
X24144815Y-149892443D01*
X24128181Y-149913085D01*
X24073869Y-149967396D01*
X24073863Y-149967404D01*
X23992131Y-150105606D01*
X23992129Y-150105611D01*
X23947335Y-150259791D01*
X23947334Y-150259797D01*
X23944500Y-150295811D01*
X23944500Y-150694169D01*
X23944501Y-150694191D01*
X23947335Y-150730205D01*
X23992129Y-150884388D01*
X23992132Y-150884395D01*
X24026128Y-150941881D01*
X24043309Y-151009605D01*
X24026128Y-151068119D01*
X23992132Y-151125604D01*
X23992129Y-151125611D01*
X23947335Y-151279791D01*
X23947334Y-151279797D01*
X23944500Y-151315811D01*
X23944500Y-151714169D01*
X23944501Y-151714191D01*
X23947334Y-151750200D01*
X23992129Y-151904388D01*
X23992131Y-151904393D01*
X24037733Y-151981502D01*
X24055000Y-152044620D01*
X24055000Y-152282645D01*
X24037734Y-152345763D01*
X24032507Y-152354600D01*
X24032504Y-152354608D01*
X23987357Y-152510002D01*
X23987356Y-152510008D01*
X23984500Y-152546302D01*
X23984500Y-152658640D01*
X23964815Y-152725679D01*
X23948181Y-152746321D01*
X23902201Y-152792300D01*
X23902199Y-152792303D01*
X23823959Y-152927821D01*
X23822933Y-152929598D01*
X23820387Y-152939097D01*
X23784023Y-152998755D01*
X23721176Y-153029283D01*
X23700614Y-153031000D01*
X23679000Y-153031000D01*
X23611961Y-153011315D01*
X23566206Y-152958511D01*
X23555000Y-152907000D01*
X23555000Y-151976494D01*
X23554998Y-151976493D01*
X23408809Y-152018965D01*
X23408802Y-152018969D01*
X23339192Y-152060136D01*
X23271468Y-152077319D01*
X23205206Y-152055159D01*
X23161443Y-152000692D01*
X23154074Y-151931212D01*
X23156990Y-151918828D01*
X23169665Y-151875204D01*
X23172500Y-151839181D01*
X23172499Y-151440820D01*
X23169665Y-151404796D01*
X23124869Y-151250607D01*
X23090869Y-151193117D01*
X23073688Y-151125398D01*
X23090869Y-151066882D01*
X23124869Y-151009393D01*
X23125389Y-151007605D01*
X23169664Y-150855208D01*
X23169664Y-150855206D01*
X23169665Y-150855204D01*
X23172500Y-150819181D01*
X23172499Y-150420820D01*
X23169665Y-150384796D01*
X23124869Y-150230607D01*
X23043135Y-150092402D01*
X23043133Y-150092400D01*
X23043130Y-150092396D01*
X22988819Y-150038085D01*
X22955334Y-149976762D01*
X22952500Y-149950404D01*
X22952500Y-149530407D01*
X22972185Y-149463368D01*
X23024989Y-149417613D01*
X23094147Y-149407669D01*
X23108593Y-149410632D01*
X23132592Y-149417063D01*
X23309034Y-149432500D01*
X23367999Y-149437659D01*
X23368000Y-149437659D01*
X23368001Y-149437659D01*
X23426966Y-149432500D01*
X23603408Y-149417063D01*
X23731757Y-149382672D01*
X23801606Y-149384335D01*
G37*
G04 #@! TD.AperFunction*
G04 #@! TA.AperFunction,Conductor*
G36*
X27719621Y-149220640D02*
G01*
X27770170Y-149256035D01*
X27984337Y-149355903D01*
X27984343Y-149355904D01*
X27984344Y-149355905D01*
X28009592Y-149362670D01*
X28212592Y-149417063D01*
X28369308Y-149430774D01*
X28434376Y-149456227D01*
X28475355Y-149512817D01*
X28482500Y-149554302D01*
X28482500Y-149823404D01*
X28462815Y-149890443D01*
X28446181Y-149911085D01*
X28391869Y-149965396D01*
X28391863Y-149965404D01*
X28310131Y-150103606D01*
X28310129Y-150103611D01*
X28265335Y-150257791D01*
X28265334Y-150257797D01*
X28262500Y-150293811D01*
X28262500Y-150692169D01*
X28262501Y-150692191D01*
X28265335Y-150728205D01*
X28310129Y-150882388D01*
X28310132Y-150882395D01*
X28344128Y-150939881D01*
X28361309Y-151007605D01*
X28344128Y-151066119D01*
X28310132Y-151123604D01*
X28310129Y-151123611D01*
X28265335Y-151277791D01*
X28265334Y-151277797D01*
X28262500Y-151313811D01*
X28262500Y-151712169D01*
X28262501Y-151712191D01*
X28265335Y-151748205D01*
X28310129Y-151902388D01*
X28310131Y-151902393D01*
X28391863Y-152040595D01*
X28391869Y-152040603D01*
X28435680Y-152084413D01*
X28469166Y-152145736D01*
X28472000Y-152172095D01*
X28472000Y-152282645D01*
X28454734Y-152345763D01*
X28449507Y-152354600D01*
X28449504Y-152354608D01*
X28404357Y-152510002D01*
X28404356Y-152510008D01*
X28401500Y-152546302D01*
X28401500Y-152907000D01*
X28381815Y-152974039D01*
X28329011Y-153019794D01*
X28277500Y-153031000D01*
X28096000Y-153031000D01*
X28028961Y-153011315D01*
X27983206Y-152958511D01*
X27972000Y-152907000D01*
X27972000Y-151976494D01*
X27971998Y-151976493D01*
X27864591Y-152007698D01*
X27794721Y-152007499D01*
X27736051Y-151969557D01*
X27707208Y-151905918D01*
X27710919Y-151854030D01*
X27741665Y-151748204D01*
X27744500Y-151712181D01*
X27744499Y-151313820D01*
X27741665Y-151277796D01*
X27696869Y-151123607D01*
X27662869Y-151066117D01*
X27645688Y-150998398D01*
X27662869Y-150939882D01*
X27696869Y-150882393D01*
X27741665Y-150728204D01*
X27744500Y-150692181D01*
X27744499Y-150293820D01*
X27741665Y-150257796D01*
X27696869Y-150103607D01*
X27615135Y-149965402D01*
X27615133Y-149965400D01*
X27615130Y-149965396D01*
X27560819Y-149911085D01*
X27527334Y-149849762D01*
X27524500Y-149823404D01*
X27524500Y-149322216D01*
X27544185Y-149255177D01*
X27596989Y-149209422D01*
X27666147Y-149199478D01*
X27719621Y-149220640D01*
G37*
G04 #@! TD.AperFunction*
G04 #@! TA.AperFunction,Conductor*
G36*
X29888703Y-148873071D02*
G01*
X29909075Y-148895661D01*
X29949500Y-148953395D01*
X29949505Y-148953401D01*
X30116599Y-149120495D01*
X30197378Y-149177057D01*
X30310165Y-149256032D01*
X30310167Y-149256033D01*
X30310170Y-149256035D01*
X30524337Y-149355903D01*
X30524344Y-149355904D01*
X30524349Y-149355907D01*
X30549591Y-149362670D01*
X30609252Y-149399033D01*
X30639783Y-149461879D01*
X30641500Y-149482445D01*
X30641500Y-149823404D01*
X30621815Y-149890443D01*
X30605181Y-149911085D01*
X30550869Y-149965396D01*
X30550863Y-149965404D01*
X30469131Y-150103606D01*
X30469129Y-150103611D01*
X30424335Y-150257791D01*
X30424334Y-150257797D01*
X30421500Y-150293811D01*
X30421500Y-150692169D01*
X30421501Y-150692191D01*
X30424335Y-150728205D01*
X30469129Y-150882388D01*
X30469132Y-150882395D01*
X30503128Y-150939881D01*
X30520309Y-151007605D01*
X30503128Y-151066119D01*
X30469132Y-151123604D01*
X30469129Y-151123611D01*
X30424335Y-151277791D01*
X30424334Y-151277797D01*
X30421500Y-151313811D01*
X30421500Y-151712169D01*
X30421501Y-151712191D01*
X30424335Y-151748205D01*
X30469129Y-151902388D01*
X30469131Y-151902393D01*
X30538073Y-152018969D01*
X30550865Y-152040598D01*
X30605182Y-152094915D01*
X30638666Y-152156236D01*
X30641500Y-152182595D01*
X30641500Y-152319767D01*
X30636576Y-152354362D01*
X30591357Y-152510002D01*
X30591356Y-152510008D01*
X30588500Y-152546302D01*
X30588500Y-152658640D01*
X30568815Y-152725679D01*
X30552181Y-152746321D01*
X30370681Y-152927821D01*
X30309358Y-152961306D01*
X30239666Y-152956322D01*
X30183733Y-152914450D01*
X30159316Y-152848986D01*
X30159000Y-152840140D01*
X30159000Y-151976494D01*
X30158998Y-151976493D01*
X30021010Y-152016583D01*
X29951141Y-152016384D01*
X29892471Y-151978442D01*
X29863627Y-151914804D01*
X29867338Y-151862913D01*
X29900665Y-151748204D01*
X29903500Y-151712181D01*
X29903499Y-151313820D01*
X29900665Y-151277796D01*
X29855869Y-151123607D01*
X29821869Y-151066117D01*
X29804688Y-150998398D01*
X29821869Y-150939882D01*
X29855869Y-150882393D01*
X29900665Y-150728204D01*
X29903500Y-150692181D01*
X29903499Y-150293820D01*
X29900665Y-150257796D01*
X29855869Y-150103607D01*
X29774135Y-149965402D01*
X29774133Y-149965400D01*
X29774130Y-149965396D01*
X29719819Y-149911085D01*
X29686334Y-149849762D01*
X29683500Y-149823404D01*
X29683500Y-148966784D01*
X29703185Y-148899745D01*
X29755989Y-148853990D01*
X29825147Y-148844046D01*
X29888703Y-148873071D01*
G37*
G04 #@! TD.AperFunction*
G04 #@! TA.AperFunction,Conductor*
G36*
X34882855Y-148748546D02*
G01*
X34899575Y-148767842D01*
X35029501Y-148953396D01*
X35029506Y-148953402D01*
X35050181Y-148974077D01*
X35083666Y-149035400D01*
X35086500Y-149061758D01*
X35086500Y-149823404D01*
X35066815Y-149890443D01*
X35050181Y-149911085D01*
X34995869Y-149965396D01*
X34995863Y-149965404D01*
X34914131Y-150103606D01*
X34914129Y-150103611D01*
X34869335Y-150257791D01*
X34869334Y-150257797D01*
X34866500Y-150293811D01*
X34866500Y-150692169D01*
X34866501Y-150692191D01*
X34869335Y-150728205D01*
X34914129Y-150882388D01*
X34914132Y-150882395D01*
X34948128Y-150939881D01*
X34965309Y-151007605D01*
X34948128Y-151066119D01*
X34914132Y-151123604D01*
X34914129Y-151123611D01*
X34869335Y-151277791D01*
X34869334Y-151277797D01*
X34866500Y-151313811D01*
X34866500Y-151712169D01*
X34866501Y-151712191D01*
X34869335Y-151748205D01*
X34914129Y-151902388D01*
X34914131Y-151902393D01*
X34983073Y-152018969D01*
X34995865Y-152040598D01*
X35050182Y-152094915D01*
X35083666Y-152156236D01*
X35086500Y-152182595D01*
X35086500Y-152319767D01*
X35081576Y-152354362D01*
X35036357Y-152510002D01*
X35036356Y-152510008D01*
X35033500Y-152546302D01*
X35033500Y-152658640D01*
X35013815Y-152725679D01*
X34997181Y-152746321D01*
X34815681Y-152927821D01*
X34754358Y-152961306D01*
X34684666Y-152956322D01*
X34628733Y-152914450D01*
X34604316Y-152848986D01*
X34604000Y-152840140D01*
X34604000Y-151976494D01*
X34603998Y-151976493D01*
X34457809Y-152018965D01*
X34457806Y-152018967D01*
X34330815Y-152094069D01*
X34263091Y-152111252D01*
X34196828Y-152089092D01*
X34153065Y-152034626D01*
X34145696Y-151965146D01*
X34160961Y-151924219D01*
X34173869Y-151902393D01*
X34218665Y-151748204D01*
X34221500Y-151712181D01*
X34221499Y-151313820D01*
X34218665Y-151277796D01*
X34173869Y-151123607D01*
X34139869Y-151066117D01*
X34122688Y-150998398D01*
X34139869Y-150939882D01*
X34173869Y-150882393D01*
X34218665Y-150728204D01*
X34221500Y-150692181D01*
X34221499Y-150293820D01*
X34218665Y-150257796D01*
X34173869Y-150103607D01*
X34092135Y-149965402D01*
X34092133Y-149965400D01*
X34092130Y-149965396D01*
X34037819Y-149911085D01*
X34004334Y-149849762D01*
X34001500Y-149823404D01*
X34001500Y-149430311D01*
X34021185Y-149363272D01*
X34073094Y-149317929D01*
X34205830Y-149256035D01*
X34399401Y-149120495D01*
X34566495Y-148953401D01*
X34696425Y-148767842D01*
X34751002Y-148724217D01*
X34820500Y-148717023D01*
X34882855Y-148748546D01*
G37*
G04 #@! TD.AperFunction*
G04 #@! TA.AperFunction,Conductor*
G36*
X37333355Y-148876365D02*
G01*
X37368769Y-148936594D01*
X37372500Y-148966784D01*
X37372500Y-149825404D01*
X37352815Y-149892443D01*
X37336181Y-149913085D01*
X37281869Y-149967396D01*
X37281863Y-149967404D01*
X37200131Y-150105606D01*
X37200129Y-150105611D01*
X37155335Y-150259791D01*
X37155334Y-150259797D01*
X37152500Y-150295811D01*
X37152500Y-150694169D01*
X37152501Y-150694191D01*
X37155335Y-150730205D01*
X37200129Y-150884388D01*
X37200132Y-150884395D01*
X37234128Y-150941881D01*
X37251309Y-151009605D01*
X37234128Y-151068119D01*
X37200132Y-151125604D01*
X37200129Y-151125611D01*
X37155335Y-151279791D01*
X37155334Y-151279797D01*
X37152500Y-151315811D01*
X37152500Y-151714169D01*
X37152501Y-151714191D01*
X37155335Y-151750205D01*
X37200129Y-151904388D01*
X37200131Y-151904393D01*
X37281863Y-152042595D01*
X37281869Y-152042603D01*
X37325680Y-152086413D01*
X37359166Y-152147736D01*
X37362000Y-152174095D01*
X37362000Y-152282645D01*
X37344734Y-152345763D01*
X37339507Y-152354600D01*
X37339504Y-152354608D01*
X37294357Y-152510002D01*
X37294356Y-152510008D01*
X37291500Y-152546302D01*
X37291500Y-152658640D01*
X37271815Y-152725679D01*
X37255181Y-152746321D01*
X37073681Y-152927821D01*
X37012358Y-152961306D01*
X36942666Y-152956322D01*
X36886733Y-152914450D01*
X36862316Y-152848986D01*
X36862000Y-152840140D01*
X36862000Y-151976494D01*
X36861998Y-151976493D01*
X36715809Y-152018965D01*
X36715808Y-152018966D01*
X36631874Y-152068604D01*
X36564150Y-152085785D01*
X36497888Y-152063625D01*
X36454125Y-152009159D01*
X36446756Y-151939679D01*
X36457827Y-151910008D01*
X36456771Y-151909551D01*
X36459864Y-151902400D01*
X36459869Y-151902393D01*
X36504665Y-151748204D01*
X36507500Y-151712181D01*
X36507499Y-151313820D01*
X36504665Y-151277796D01*
X36459869Y-151123607D01*
X36425869Y-151066117D01*
X36408688Y-150998398D01*
X36425869Y-150939882D01*
X36459869Y-150882393D01*
X36504665Y-150728204D01*
X36507500Y-150692181D01*
X36507499Y-150293820D01*
X36504665Y-150257796D01*
X36459869Y-150103607D01*
X36378135Y-149965402D01*
X36378133Y-149965400D01*
X36378130Y-149965396D01*
X36323819Y-149911085D01*
X36290334Y-149849762D01*
X36287500Y-149823404D01*
X36287500Y-149516474D01*
X36307185Y-149449435D01*
X36359989Y-149403680D01*
X36379402Y-149396700D01*
X36531663Y-149355903D01*
X36745830Y-149256035D01*
X36939401Y-149120495D01*
X37106495Y-148953401D01*
X37146925Y-148895660D01*
X37201502Y-148852036D01*
X37271000Y-148844842D01*
X37333355Y-148876365D01*
G37*
G04 #@! TD.AperFunction*
G04 #@! TA.AperFunction,Conductor*
G36*
X32342855Y-148748546D02*
G01*
X32359575Y-148767842D01*
X32489501Y-148953396D01*
X32489506Y-148953402D01*
X32656596Y-149120493D01*
X32656599Y-149120495D01*
X32737378Y-149177057D01*
X32747623Y-149184230D01*
X32791248Y-149238806D01*
X32800500Y-149285805D01*
X32800500Y-149823404D01*
X32780815Y-149890443D01*
X32764181Y-149911085D01*
X32709869Y-149965396D01*
X32709863Y-149965404D01*
X32628131Y-150103606D01*
X32628129Y-150103611D01*
X32583335Y-150257791D01*
X32583334Y-150257797D01*
X32580500Y-150293811D01*
X32580500Y-150692169D01*
X32580501Y-150692191D01*
X32583335Y-150728205D01*
X32628129Y-150882388D01*
X32628132Y-150882395D01*
X32662128Y-150939881D01*
X32679309Y-151007605D01*
X32662128Y-151066119D01*
X32628132Y-151123604D01*
X32628129Y-151123611D01*
X32583335Y-151277791D01*
X32583334Y-151277797D01*
X32580500Y-151313811D01*
X32580500Y-151712169D01*
X32580501Y-151712191D01*
X32583335Y-151748205D01*
X32628129Y-151902388D01*
X32628131Y-151902393D01*
X32697073Y-152018969D01*
X32709865Y-152040598D01*
X32764182Y-152094915D01*
X32797666Y-152156236D01*
X32800500Y-152182595D01*
X32800500Y-152319767D01*
X32795576Y-152354362D01*
X32750357Y-152510002D01*
X32750356Y-152510008D01*
X32747500Y-152546302D01*
X32747500Y-152565194D01*
X32727815Y-152632233D01*
X32711181Y-152652875D01*
X32529681Y-152834375D01*
X32468358Y-152867860D01*
X32398666Y-152862876D01*
X32342733Y-152821004D01*
X32318316Y-152755540D01*
X32318000Y-152746694D01*
X32318000Y-151976494D01*
X32317998Y-151976493D01*
X32180010Y-152016583D01*
X32110141Y-152016384D01*
X32051471Y-151978442D01*
X32022627Y-151914804D01*
X32026338Y-151862913D01*
X32059665Y-151748204D01*
X32062500Y-151712181D01*
X32062499Y-151313820D01*
X32059665Y-151277796D01*
X32014869Y-151123607D01*
X31980869Y-151066117D01*
X31963688Y-150998398D01*
X31980869Y-150939882D01*
X32014869Y-150882393D01*
X32059665Y-150728204D01*
X32062500Y-150692181D01*
X32062499Y-150293820D01*
X32059665Y-150257796D01*
X32014869Y-150103607D01*
X31933135Y-149965402D01*
X31933133Y-149965400D01*
X31933130Y-149965396D01*
X31878819Y-149911085D01*
X31845334Y-149849762D01*
X31842500Y-149823404D01*
X31842500Y-149188758D01*
X31862185Y-149121719D01*
X31878819Y-149101077D01*
X31944496Y-149035400D01*
X32026495Y-148953401D01*
X32156425Y-148767842D01*
X32211002Y-148724217D01*
X32280500Y-148717023D01*
X32342855Y-148748546D01*
G37*
G04 #@! TD.AperFunction*
G04 #@! TA.AperFunction,Conductor*
G36*
X43257539Y-137680185D02*
G01*
X43303294Y-137732989D01*
X43314500Y-137784500D01*
X43314500Y-177683500D01*
X43294815Y-177750539D01*
X43242011Y-177796294D01*
X43190500Y-177807500D01*
X18404500Y-177807500D01*
X18337461Y-177787815D01*
X18291706Y-177735011D01*
X18280500Y-177683500D01*
X18280500Y-167132000D01*
X19345341Y-167132000D01*
X19365936Y-167367403D01*
X19365938Y-167367413D01*
X19427094Y-167595655D01*
X19427096Y-167595659D01*
X19427097Y-167595663D01*
X19507004Y-167767023D01*
X19526965Y-167809830D01*
X19526967Y-167809834D01*
X19635281Y-167964521D01*
X19662505Y-168003401D01*
X19829599Y-168170495D01*
X19906135Y-168224086D01*
X20023165Y-168306032D01*
X20023167Y-168306033D01*
X20023170Y-168306035D01*
X20237337Y-168405903D01*
X20465592Y-168467063D01*
X20636319Y-168482000D01*
X20700999Y-168487659D01*
X20701000Y-168487659D01*
X20701001Y-168487659D01*
X20765681Y-168482000D01*
X20936408Y-168467063D01*
X21164663Y-168405903D01*
X21378830Y-168306035D01*
X21572401Y-168170495D01*
X21739495Y-168003401D01*
X21869425Y-167817842D01*
X21924002Y-167774217D01*
X21993500Y-167767023D01*
X22055855Y-167798546D01*
X22072575Y-167817842D01*
X22202500Y-168003395D01*
X22202505Y-168003401D01*
X22369599Y-168170495D01*
X22446135Y-168224086D01*
X22563165Y-168306032D01*
X22563167Y-168306033D01*
X22563170Y-168306035D01*
X22777337Y-168405903D01*
X23005592Y-168467063D01*
X23176319Y-168482000D01*
X23240999Y-168487659D01*
X23241000Y-168487659D01*
X23241001Y-168487659D01*
X23305681Y-168482000D01*
X23476408Y-168467063D01*
X23704663Y-168405903D01*
X23918830Y-168306035D01*
X24112401Y-168170495D01*
X24279495Y-168003401D01*
X24409425Y-167817842D01*
X24464002Y-167774217D01*
X24533500Y-167767023D01*
X24595855Y-167798546D01*
X24612575Y-167817842D01*
X24742500Y-168003395D01*
X24742505Y-168003401D01*
X24909599Y-168170495D01*
X24986135Y-168224086D01*
X25103165Y-168306032D01*
X25103167Y-168306033D01*
X25103170Y-168306035D01*
X25317337Y-168405903D01*
X25545592Y-168467063D01*
X25716319Y-168482000D01*
X25780999Y-168487659D01*
X25781000Y-168487659D01*
X25781001Y-168487659D01*
X25845681Y-168482000D01*
X26016408Y-168467063D01*
X26244663Y-168405903D01*
X26458830Y-168306035D01*
X26652401Y-168170495D01*
X26819495Y-168003401D01*
X26949425Y-167817842D01*
X27004002Y-167774217D01*
X27073500Y-167767023D01*
X27135855Y-167798546D01*
X27152575Y-167817842D01*
X27282500Y-168003395D01*
X27282505Y-168003401D01*
X27449599Y-168170495D01*
X27526135Y-168224086D01*
X27643165Y-168306032D01*
X27643167Y-168306033D01*
X27643170Y-168306035D01*
X27857337Y-168405903D01*
X28085592Y-168467063D01*
X28256319Y-168482000D01*
X28320999Y-168487659D01*
X28321000Y-168487659D01*
X28321001Y-168487659D01*
X28385681Y-168482000D01*
X28556408Y-168467063D01*
X28784663Y-168405903D01*
X28998830Y-168306035D01*
X29192401Y-168170495D01*
X29359495Y-168003401D01*
X29489425Y-167817842D01*
X29544002Y-167774217D01*
X29613500Y-167767023D01*
X29675855Y-167798546D01*
X29692575Y-167817842D01*
X29822500Y-168003395D01*
X29822505Y-168003401D01*
X29989599Y-168170495D01*
X30066135Y-168224086D01*
X30183165Y-168306032D01*
X30183167Y-168306033D01*
X30183170Y-168306035D01*
X30397337Y-168405903D01*
X30625592Y-168467063D01*
X30796319Y-168482000D01*
X30860999Y-168487659D01*
X30861000Y-168487659D01*
X30861001Y-168487659D01*
X30925681Y-168482000D01*
X31096408Y-168467063D01*
X31324663Y-168405903D01*
X31538830Y-168306035D01*
X31732401Y-168170495D01*
X31899495Y-168003401D01*
X32029425Y-167817842D01*
X32084002Y-167774217D01*
X32153500Y-167767023D01*
X32215855Y-167798546D01*
X32232575Y-167817842D01*
X32362500Y-168003395D01*
X32362505Y-168003401D01*
X32529599Y-168170495D01*
X32606135Y-168224086D01*
X32723165Y-168306032D01*
X32723167Y-168306033D01*
X32723170Y-168306035D01*
X32937337Y-168405903D01*
X33165592Y-168467063D01*
X33336319Y-168482000D01*
X33400999Y-168487659D01*
X33401000Y-168487659D01*
X33401001Y-168487659D01*
X33465681Y-168482000D01*
X33636408Y-168467063D01*
X33864663Y-168405903D01*
X34078830Y-168306035D01*
X34272401Y-168170495D01*
X34394717Y-168048178D01*
X34456036Y-168014696D01*
X34525728Y-168019680D01*
X34581662Y-168061551D01*
X34598577Y-168092528D01*
X34647646Y-168224088D01*
X34647649Y-168224093D01*
X34733809Y-168339187D01*
X34733812Y-168339190D01*
X34848906Y-168425350D01*
X34848913Y-168425354D01*
X34983620Y-168475596D01*
X34983627Y-168475598D01*
X35043155Y-168481999D01*
X35043172Y-168482000D01*
X35691000Y-168482000D01*
X35691000Y-167565012D01*
X35748007Y-167597925D01*
X35875174Y-167632000D01*
X36006826Y-167632000D01*
X36133993Y-167597925D01*
X36191000Y-167565012D01*
X36191000Y-168482000D01*
X36838828Y-168482000D01*
X36838844Y-168481999D01*
X36898372Y-168475598D01*
X36898379Y-168475596D01*
X37033086Y-168425354D01*
X37033093Y-168425350D01*
X37148187Y-168339190D01*
X37148190Y-168339187D01*
X37234350Y-168224093D01*
X37234354Y-168224086D01*
X37284596Y-168089379D01*
X37284598Y-168089372D01*
X37290999Y-168029844D01*
X37291000Y-168029827D01*
X37291000Y-167382000D01*
X36374012Y-167382000D01*
X36406925Y-167324993D01*
X36441000Y-167197826D01*
X36441000Y-167066174D01*
X36406925Y-166939007D01*
X36374012Y-166882000D01*
X37291000Y-166882000D01*
X37291000Y-166234172D01*
X37290999Y-166234155D01*
X37284598Y-166174627D01*
X37284596Y-166174620D01*
X37234354Y-166039913D01*
X37234350Y-166039906D01*
X37148190Y-165924812D01*
X37148187Y-165924809D01*
X37033093Y-165838649D01*
X37033086Y-165838645D01*
X36898379Y-165788403D01*
X36898372Y-165788401D01*
X36838844Y-165782000D01*
X36191000Y-165782000D01*
X36191000Y-166698988D01*
X36133993Y-166666075D01*
X36006826Y-166632000D01*
X35875174Y-166632000D01*
X35748007Y-166666075D01*
X35691000Y-166698988D01*
X35691000Y-165782000D01*
X35043155Y-165782000D01*
X34983627Y-165788401D01*
X34983620Y-165788403D01*
X34848913Y-165838645D01*
X34848906Y-165838649D01*
X34733812Y-165924809D01*
X34733809Y-165924812D01*
X34647649Y-166039906D01*
X34647645Y-166039913D01*
X34598578Y-166171470D01*
X34556707Y-166227404D01*
X34491242Y-166251821D01*
X34422969Y-166236969D01*
X34394715Y-166215819D01*
X34350366Y-166171470D01*
X34272401Y-166093505D01*
X34272397Y-166093502D01*
X34272396Y-166093501D01*
X34078834Y-165957967D01*
X34078830Y-165957965D01*
X34007727Y-165924809D01*
X33864663Y-165858097D01*
X33864659Y-165858096D01*
X33864655Y-165858094D01*
X33636413Y-165796938D01*
X33636403Y-165796936D01*
X33401001Y-165776341D01*
X33400999Y-165776341D01*
X33165596Y-165796936D01*
X33165586Y-165796938D01*
X33039027Y-165830849D01*
X32969177Y-165829186D01*
X32919253Y-165798755D01*
X32588979Y-165468481D01*
X32555494Y-165407158D01*
X32560478Y-165337466D01*
X32588979Y-165293119D01*
X32683714Y-165198383D01*
X32683721Y-165198374D01*
X32766031Y-165059195D01*
X32808504Y-164913000D01*
X31878000Y-164913000D01*
X31810961Y-164893315D01*
X31765206Y-164840511D01*
X31754000Y-164789000D01*
X31754000Y-164607500D01*
X31773685Y-164540461D01*
X31826489Y-164494706D01*
X31878000Y-164483500D01*
X32238682Y-164483500D01*
X32238690Y-164483500D01*
X32274993Y-164480643D01*
X32274995Y-164480642D01*
X32274997Y-164480642D01*
X32430389Y-164435496D01*
X32430389Y-164435495D01*
X32430395Y-164435494D01*
X32439233Y-164430267D01*
X32502352Y-164413000D01*
X32808504Y-164413000D01*
X32807668Y-164410120D01*
X32807867Y-164340250D01*
X32845809Y-164281580D01*
X32909448Y-164252737D01*
X32955678Y-164256044D01*
X32955777Y-164255505D01*
X32960696Y-164256403D01*
X32961341Y-164256449D01*
X32962007Y-164256643D01*
X32962015Y-164256643D01*
X32968243Y-164257782D01*
X32967745Y-164260504D01*
X33021738Y-164281018D01*
X33063268Y-164337205D01*
X33070045Y-164365947D01*
X33075970Y-164418536D01*
X33135550Y-164588808D01*
X33147295Y-164607500D01*
X33231524Y-164741549D01*
X33359078Y-164869103D01*
X33511818Y-164965076D01*
X33682085Y-165024655D01*
X33682090Y-165024656D01*
X33861336Y-165044852D01*
X33861340Y-165044852D01*
X33861344Y-165044852D01*
X34040589Y-165024656D01*
X34040592Y-165024655D01*
X34040595Y-165024655D01*
X34210862Y-164965076D01*
X34363602Y-164869103D01*
X34491156Y-164741549D01*
X34587129Y-164588809D01*
X34646708Y-164418542D01*
X34647333Y-164413000D01*
X34655872Y-164337205D01*
X34666905Y-164239287D01*
X34665581Y-164227542D01*
X34677633Y-164158724D01*
X34701121Y-164125975D01*
X34812714Y-164014383D01*
X34812721Y-164014374D01*
X34895031Y-163875195D01*
X34895033Y-163875190D01*
X34940144Y-163719918D01*
X34940145Y-163719912D01*
X34941790Y-163699000D01*
X34504493Y-163699000D01*
X34437454Y-163679315D01*
X34416812Y-163662681D01*
X34363602Y-163609471D01*
X34210859Y-163513496D01*
X34114145Y-163479654D01*
X34057369Y-163438933D01*
X34033084Y-163377669D01*
X34032161Y-163377791D01*
X34031677Y-163374120D01*
X34031622Y-163373980D01*
X34031602Y-163373546D01*
X34031100Y-163369734D01*
X34031100Y-163369732D01*
X33990067Y-163216599D01*
X33990062Y-163216590D01*
X33989700Y-163215715D01*
X33988585Y-163211070D01*
X33987963Y-163208749D01*
X33988023Y-163208732D01*
X33982129Y-163184179D01*
X33981782Y-163184243D01*
X33980642Y-163178002D01*
X33935495Y-163022609D01*
X33935494Y-163022605D01*
X33930267Y-163013766D01*
X33913000Y-162950647D01*
X33913000Y-162931352D01*
X33930269Y-162868229D01*
X33935494Y-162859395D01*
X33980643Y-162703993D01*
X33982295Y-162683000D01*
X34413000Y-162683000D01*
X34413000Y-163199000D01*
X34941790Y-163199000D01*
X34940145Y-163178089D01*
X34895031Y-163022804D01*
X34883983Y-163004123D01*
X34866799Y-162936400D01*
X34883983Y-162877877D01*
X34895031Y-162859196D01*
X34940145Y-162703910D01*
X34941790Y-162683000D01*
X34413000Y-162683000D01*
X33982295Y-162683000D01*
X33983500Y-162667690D01*
X33983500Y-162307000D01*
X34003185Y-162239961D01*
X34055989Y-162194206D01*
X34107500Y-162183000D01*
X34941790Y-162183000D01*
X34940145Y-162162088D01*
X34927008Y-162116872D01*
X34927207Y-162047003D01*
X34942000Y-162022151D01*
X34942000Y-161286000D01*
X35442000Y-161286000D01*
X35442000Y-162010999D01*
X35465308Y-162010999D01*
X35465322Y-162010998D01*
X35564607Y-162000855D01*
X35725481Y-161947547D01*
X35725492Y-161947542D01*
X35869728Y-161858575D01*
X35869732Y-161858572D01*
X35989572Y-161738732D01*
X35989575Y-161738728D01*
X36078542Y-161594492D01*
X36078547Y-161594481D01*
X36131855Y-161433606D01*
X36141999Y-161334322D01*
X36142000Y-161334309D01*
X36142000Y-161286000D01*
X35442000Y-161286000D01*
X34942000Y-161286000D01*
X34942000Y-160061000D01*
X35442000Y-160061000D01*
X35442000Y-160786000D01*
X36141999Y-160786000D01*
X36141999Y-160737692D01*
X36141998Y-160737677D01*
X36131855Y-160638392D01*
X36078547Y-160477518D01*
X36078542Y-160477507D01*
X35989575Y-160333271D01*
X35989572Y-160333267D01*
X35869732Y-160213427D01*
X35869728Y-160213424D01*
X35725492Y-160124457D01*
X35725481Y-160124452D01*
X35564606Y-160071144D01*
X35465322Y-160061000D01*
X35442000Y-160061000D01*
X34942000Y-160061000D01*
X34942000Y-160060999D01*
X34918693Y-160061000D01*
X34918666Y-160061002D01*
X34889962Y-160063934D01*
X34821270Y-160051163D01*
X34770386Y-160003281D01*
X34753467Y-159935491D01*
X34756613Y-159916254D01*
X34756007Y-159916144D01*
X34757145Y-159909912D01*
X34758790Y-159889000D01*
X33924500Y-159889000D01*
X33857461Y-159869315D01*
X33811706Y-159816511D01*
X33800500Y-159765000D01*
X33800500Y-159513000D01*
X33820185Y-159445961D01*
X33872989Y-159400206D01*
X33924500Y-159389000D01*
X34758790Y-159389000D01*
X34757145Y-159368089D01*
X34712031Y-159212804D01*
X34712030Y-159212801D01*
X34703841Y-159198954D01*
X34686660Y-159131230D01*
X34703840Y-159072718D01*
X34768494Y-158963395D01*
X34813643Y-158807993D01*
X34816500Y-158771690D01*
X34816500Y-158659360D01*
X34836185Y-158592321D01*
X34852819Y-158571679D01*
X34917743Y-158506755D01*
X35049400Y-158375098D01*
X35058962Y-158358536D01*
X35128667Y-158237802D01*
X35169700Y-158084668D01*
X35169700Y-157507499D01*
X35189385Y-157440460D01*
X35242189Y-157394705D01*
X35293700Y-157383499D01*
X35344168Y-157383499D01*
X35344180Y-157383499D01*
X35380204Y-157380665D01*
X35534393Y-157335869D01*
X35591882Y-157301869D01*
X35659602Y-157284688D01*
X35718117Y-157301869D01*
X35775607Y-157335869D01*
X35775610Y-157335869D01*
X35775612Y-157335871D01*
X35929791Y-157380664D01*
X35929794Y-157380664D01*
X35929796Y-157380665D01*
X35965819Y-157383500D01*
X36364180Y-157383499D01*
X36400204Y-157380665D01*
X36554393Y-157335869D01*
X36692598Y-157254135D01*
X36806135Y-157140598D01*
X36887869Y-157002393D01*
X36932665Y-156848204D01*
X36935500Y-156812181D01*
X36935499Y-156313820D01*
X36932665Y-156277796D01*
X36887869Y-156123607D01*
X36854820Y-156067724D01*
X36837638Y-156000002D01*
X36842476Y-155970014D01*
X36886643Y-155817993D01*
X36889500Y-155781690D01*
X36889500Y-155312310D01*
X36886643Y-155276007D01*
X36886642Y-155276002D01*
X36841496Y-155120610D01*
X36841494Y-155120608D01*
X36841494Y-155120605D01*
X36825889Y-155094218D01*
X36808707Y-155026498D01*
X36830866Y-154960235D01*
X36885332Y-154916472D01*
X36932622Y-154907100D01*
X38250266Y-154907100D01*
X38250268Y-154907100D01*
X38403402Y-154866067D01*
X38540698Y-154786800D01*
X38652800Y-154674698D01*
X39597800Y-153729698D01*
X39613272Y-153702900D01*
X39677067Y-153592402D01*
X39718100Y-153439268D01*
X39718100Y-150414759D01*
X39737785Y-150347720D01*
X39754415Y-150327082D01*
X40666254Y-149415242D01*
X40727575Y-149381759D01*
X40786026Y-149383150D01*
X40836593Y-149396699D01*
X40912592Y-149417063D01*
X41089034Y-149432500D01*
X41147999Y-149437659D01*
X41148000Y-149437659D01*
X41148001Y-149437659D01*
X41206966Y-149432500D01*
X41383408Y-149417063D01*
X41611663Y-149355903D01*
X41825830Y-149256035D01*
X42019401Y-149120495D01*
X42186495Y-148953401D01*
X42322035Y-148759830D01*
X42421903Y-148545663D01*
X42483063Y-148317408D01*
X42503659Y-148082000D01*
X42483063Y-147846592D01*
X42421903Y-147618337D01*
X42322035Y-147404171D01*
X42316425Y-147396158D01*
X42186494Y-147210597D01*
X42019402Y-147043506D01*
X42019395Y-147043501D01*
X41825834Y-146907967D01*
X41825830Y-146907965D01*
X41825828Y-146907964D01*
X41611663Y-146808097D01*
X41611659Y-146808096D01*
X41611655Y-146808094D01*
X41383413Y-146746938D01*
X41383403Y-146746936D01*
X41148001Y-146726341D01*
X41147999Y-146726341D01*
X40912596Y-146746936D01*
X40912586Y-146746938D01*
X40684344Y-146808094D01*
X40684335Y-146808098D01*
X40470171Y-146907964D01*
X40470169Y-146907965D01*
X40276597Y-147043505D01*
X40109505Y-147210597D01*
X39979575Y-147396158D01*
X39924998Y-147439783D01*
X39855500Y-147446977D01*
X39793145Y-147415454D01*
X39776425Y-147396158D01*
X39646494Y-147210597D01*
X39479402Y-147043506D01*
X39479395Y-147043501D01*
X39285834Y-146907967D01*
X39285830Y-146907965D01*
X39285828Y-146907964D01*
X39071663Y-146808097D01*
X39071659Y-146808096D01*
X39071655Y-146808094D01*
X38843413Y-146746938D01*
X38843403Y-146746936D01*
X38608001Y-146726341D01*
X38607999Y-146726341D01*
X38372596Y-146746936D01*
X38372586Y-146746938D01*
X38144344Y-146808094D01*
X38144335Y-146808098D01*
X37930171Y-146907964D01*
X37930169Y-146907965D01*
X37736597Y-147043505D01*
X37569505Y-147210597D01*
X37439575Y-147396158D01*
X37384998Y-147439783D01*
X37315500Y-147446977D01*
X37253145Y-147415454D01*
X37236425Y-147396158D01*
X37106494Y-147210597D01*
X36939402Y-147043506D01*
X36939395Y-147043501D01*
X36745834Y-146907967D01*
X36745830Y-146907965D01*
X36745828Y-146907964D01*
X36531663Y-146808097D01*
X36531659Y-146808096D01*
X36531655Y-146808094D01*
X36303413Y-146746938D01*
X36303403Y-146746936D01*
X36068001Y-146726341D01*
X36067999Y-146726341D01*
X35832596Y-146746936D01*
X35832586Y-146746938D01*
X35604344Y-146808094D01*
X35604335Y-146808098D01*
X35390171Y-146907964D01*
X35390169Y-146907965D01*
X35196597Y-147043505D01*
X35029505Y-147210597D01*
X34899575Y-147396158D01*
X34844998Y-147439783D01*
X34775500Y-147446977D01*
X34713145Y-147415454D01*
X34696425Y-147396158D01*
X34566494Y-147210597D01*
X34399402Y-147043506D01*
X34399395Y-147043501D01*
X34205834Y-146907967D01*
X34205830Y-146907965D01*
X34205828Y-146907964D01*
X33991663Y-146808097D01*
X33991659Y-146808096D01*
X33991655Y-146808094D01*
X33763413Y-146746938D01*
X33763403Y-146746936D01*
X33528001Y-146726341D01*
X33527999Y-146726341D01*
X33292596Y-146746936D01*
X33292586Y-146746938D01*
X33064344Y-146808094D01*
X33064335Y-146808098D01*
X32850171Y-146907964D01*
X32850169Y-146907965D01*
X32656597Y-147043505D01*
X32489505Y-147210597D01*
X32359575Y-147396158D01*
X32304998Y-147439783D01*
X32235500Y-147446977D01*
X32173145Y-147415454D01*
X32156425Y-147396158D01*
X32026494Y-147210597D01*
X31859402Y-147043506D01*
X31859395Y-147043501D01*
X31665834Y-146907967D01*
X31665830Y-146907965D01*
X31665828Y-146907964D01*
X31451663Y-146808097D01*
X31451659Y-146808096D01*
X31451655Y-146808094D01*
X31223413Y-146746938D01*
X31223403Y-146746936D01*
X30988001Y-146726341D01*
X30987999Y-146726341D01*
X30752596Y-146746936D01*
X30752586Y-146746938D01*
X30524344Y-146808094D01*
X30524335Y-146808098D01*
X30310171Y-146907964D01*
X30310169Y-146907965D01*
X30116597Y-147043505D01*
X29949505Y-147210597D01*
X29819575Y-147396158D01*
X29764998Y-147439783D01*
X29695500Y-147446977D01*
X29633145Y-147415454D01*
X29616425Y-147396158D01*
X29486494Y-147210597D01*
X29319402Y-147043506D01*
X29319395Y-147043501D01*
X29125834Y-146907967D01*
X29125830Y-146907965D01*
X29125828Y-146907964D01*
X28911663Y-146808097D01*
X28911659Y-146808096D01*
X28911655Y-146808094D01*
X28683413Y-146746938D01*
X28683403Y-146746936D01*
X28448001Y-146726341D01*
X28447999Y-146726341D01*
X28212596Y-146746936D01*
X28212586Y-146746938D01*
X27984344Y-146808094D01*
X27984335Y-146808098D01*
X27770171Y-146907964D01*
X27770169Y-146907965D01*
X27576597Y-147043505D01*
X27409505Y-147210597D01*
X27279575Y-147396158D01*
X27224998Y-147439783D01*
X27155500Y-147446977D01*
X27093145Y-147415454D01*
X27076425Y-147396158D01*
X26946494Y-147210597D01*
X26779402Y-147043506D01*
X26779395Y-147043501D01*
X26585834Y-146907967D01*
X26585830Y-146907965D01*
X26585828Y-146907964D01*
X26371663Y-146808097D01*
X26371659Y-146808096D01*
X26371655Y-146808094D01*
X26143413Y-146746938D01*
X26143403Y-146746936D01*
X25908001Y-146726341D01*
X25907999Y-146726341D01*
X25672596Y-146746936D01*
X25672586Y-146746938D01*
X25444344Y-146808094D01*
X25444335Y-146808098D01*
X25230171Y-146907964D01*
X25230169Y-146907965D01*
X25036597Y-147043505D01*
X24869505Y-147210597D01*
X24739575Y-147396158D01*
X24684998Y-147439783D01*
X24615500Y-147446977D01*
X24553145Y-147415454D01*
X24536425Y-147396158D01*
X24406494Y-147210597D01*
X24239402Y-147043506D01*
X24239395Y-147043501D01*
X24045834Y-146907967D01*
X24045830Y-146907965D01*
X24045828Y-146907964D01*
X23831663Y-146808097D01*
X23831659Y-146808096D01*
X23831655Y-146808094D01*
X23603413Y-146746938D01*
X23603403Y-146746936D01*
X23368001Y-146726341D01*
X23367999Y-146726341D01*
X23132596Y-146746936D01*
X23132586Y-146746938D01*
X22904344Y-146808094D01*
X22904335Y-146808098D01*
X22690171Y-146907964D01*
X22690169Y-146907965D01*
X22496600Y-147043503D01*
X22374673Y-147165430D01*
X22313350Y-147198914D01*
X22243658Y-147193930D01*
X22187725Y-147152058D01*
X22170810Y-147121081D01*
X22121797Y-146989671D01*
X22121793Y-146989664D01*
X22035547Y-146874455D01*
X22035544Y-146874452D01*
X21920335Y-146788206D01*
X21920328Y-146788202D01*
X21785482Y-146737908D01*
X21785483Y-146737908D01*
X21725883Y-146731501D01*
X21725881Y-146731500D01*
X21725873Y-146731500D01*
X21725864Y-146731500D01*
X19930129Y-146731500D01*
X19930123Y-146731501D01*
X19870516Y-146737908D01*
X19735671Y-146788202D01*
X19735664Y-146788206D01*
X19620455Y-146874452D01*
X19620452Y-146874455D01*
X19534206Y-146989664D01*
X19534202Y-146989671D01*
X19483908Y-147124517D01*
X19477501Y-147184116D01*
X19477500Y-147184135D01*
X19477500Y-148979870D01*
X19477501Y-148979876D01*
X19483908Y-149039483D01*
X19534202Y-149174328D01*
X19534206Y-149174335D01*
X19620452Y-149289544D01*
X19620455Y-149289547D01*
X19735664Y-149375793D01*
X19735671Y-149375797D01*
X19870517Y-149426091D01*
X19870516Y-149426091D01*
X19877444Y-149426835D01*
X19930127Y-149432500D01*
X21277902Y-149432499D01*
X21344941Y-149452184D01*
X21365583Y-149468818D01*
X21715181Y-149818416D01*
X21748666Y-149879739D01*
X21751500Y-149906097D01*
X21751500Y-149950404D01*
X21731815Y-150017443D01*
X21715181Y-150038085D01*
X21660869Y-150092396D01*
X21660863Y-150092404D01*
X21579131Y-150230606D01*
X21579129Y-150230611D01*
X21534335Y-150384791D01*
X21534334Y-150384797D01*
X21531500Y-150420811D01*
X21531500Y-150819169D01*
X21531501Y-150819191D01*
X21534335Y-150855205D01*
X21579129Y-151009388D01*
X21579132Y-151009395D01*
X21613128Y-151066881D01*
X21630309Y-151134605D01*
X21613128Y-151193119D01*
X21579132Y-151250604D01*
X21579129Y-151250611D01*
X21534335Y-151404791D01*
X21534334Y-151404797D01*
X21531500Y-151440811D01*
X21531500Y-151839169D01*
X21531501Y-151839191D01*
X21534335Y-151875206D01*
X21534500Y-151876109D01*
X21534446Y-151876618D01*
X21534832Y-151881520D01*
X21533922Y-151881591D01*
X21527175Y-151945594D01*
X21515000Y-151961324D01*
X21515000Y-152282645D01*
X21497734Y-152345763D01*
X21492507Y-152354600D01*
X21492504Y-152354608D01*
X21447357Y-152510002D01*
X21447356Y-152510008D01*
X21444500Y-152546302D01*
X21444500Y-153015697D01*
X21447356Y-153051991D01*
X21447357Y-153051997D01*
X21492503Y-153207389D01*
X21492505Y-153207393D01*
X21492506Y-153207395D01*
X21497732Y-153216233D01*
X21515000Y-153279352D01*
X21515000Y-153585504D01*
X21539288Y-153603740D01*
X21592843Y-153638373D01*
X21621687Y-153702011D01*
X21622900Y-153719310D01*
X21622900Y-154511268D01*
X21650255Y-154613357D01*
X21663933Y-154664403D01*
X21663934Y-154664404D01*
X21707208Y-154739357D01*
X21743200Y-154801698D01*
X24918200Y-157976698D01*
X25030302Y-158088800D01*
X25167598Y-158168067D01*
X25320732Y-158209100D01*
X25479268Y-158209100D01*
X25624501Y-158209100D01*
X25691540Y-158228785D01*
X25737295Y-158281589D01*
X25748501Y-158333100D01*
X25748501Y-158343902D01*
X25759613Y-158428314D01*
X25759613Y-158460683D01*
X25748500Y-158545097D01*
X25748500Y-158743901D01*
X25759613Y-158828314D01*
X25759613Y-158860683D01*
X25748500Y-158945097D01*
X25748500Y-159143901D01*
X25759613Y-159228314D01*
X25759613Y-159260683D01*
X25748500Y-159345097D01*
X25748500Y-159543901D01*
X25759613Y-159628314D01*
X25759613Y-159660683D01*
X25748500Y-159745097D01*
X25748500Y-159943901D01*
X25759613Y-160028314D01*
X25759613Y-160060683D01*
X25748500Y-160145097D01*
X25748500Y-160343901D01*
X25759865Y-160430228D01*
X25759865Y-160462597D01*
X25752373Y-160519500D01*
X25768012Y-160537333D01*
X25774319Y-160539185D01*
X25820074Y-160591989D01*
X25821850Y-160596068D01*
X25822678Y-160598068D01*
X25830134Y-160667539D01*
X25798848Y-160730012D01*
X25774165Y-160744650D01*
X25752373Y-160769499D01*
X25760117Y-160828313D01*
X25760117Y-160860685D01*
X25752373Y-160919500D01*
X26536500Y-160919500D01*
X26549682Y-160906318D01*
X26611005Y-160872833D01*
X26637358Y-160869999D01*
X26685638Y-160869999D01*
X26752676Y-160889684D01*
X26773318Y-160906318D01*
X26786500Y-160919500D01*
X27570625Y-160919500D01*
X27570625Y-160919499D01*
X27562882Y-160860686D01*
X27562882Y-160828312D01*
X27570625Y-160769500D01*
X27555273Y-160751993D01*
X27547853Y-160749815D01*
X27502098Y-160697011D01*
X27492154Y-160627853D01*
X27500322Y-160598068D01*
X27501150Y-160596068D01*
X27544981Y-160541657D01*
X27553758Y-160538733D01*
X27570625Y-160519499D01*
X27563134Y-160462600D01*
X27563134Y-160430235D01*
X27574500Y-160343901D01*
X27574499Y-160145100D01*
X27574499Y-160145097D01*
X27563386Y-160060684D01*
X27563386Y-160028312D01*
X27574499Y-159943906D01*
X27574500Y-159943901D01*
X27574499Y-159745100D01*
X27563386Y-159660684D01*
X27563386Y-159628312D01*
X27574499Y-159543906D01*
X27574500Y-159543901D01*
X27574499Y-159345100D01*
X27563386Y-159260684D01*
X27563386Y-159228312D01*
X27565428Y-159212804D01*
X27574500Y-159143901D01*
X27574499Y-158945100D01*
X27563386Y-158860684D01*
X27563386Y-158828312D01*
X27566061Y-158807997D01*
X27574500Y-158743901D01*
X27574499Y-158643998D01*
X27594183Y-158576961D01*
X27646986Y-158531205D01*
X27698496Y-158519999D01*
X27798400Y-158519999D01*
X27882820Y-158508885D01*
X27915177Y-158508885D01*
X27999599Y-158520000D01*
X28198400Y-158519999D01*
X28282820Y-158508885D01*
X28315177Y-158508885D01*
X28399599Y-158520000D01*
X28598400Y-158519999D01*
X28682820Y-158508885D01*
X28715177Y-158508885D01*
X28799599Y-158520000D01*
X28998400Y-158519999D01*
X29082820Y-158508885D01*
X29115177Y-158508885D01*
X29199599Y-158520000D01*
X29398400Y-158519999D01*
X29482820Y-158508885D01*
X29515177Y-158508885D01*
X29599599Y-158520000D01*
X29798400Y-158519999D01*
X29882820Y-158508885D01*
X29915177Y-158508885D01*
X29999599Y-158520000D01*
X30198400Y-158519999D01*
X30282820Y-158508885D01*
X30315177Y-158508885D01*
X30399599Y-158520000D01*
X30499500Y-158519999D01*
X30566538Y-158539683D01*
X30612294Y-158592486D01*
X30623500Y-158643998D01*
X30623500Y-158743901D01*
X30634613Y-158828314D01*
X30634613Y-158860683D01*
X30623500Y-158945097D01*
X30623500Y-159143901D01*
X30634613Y-159228314D01*
X30634613Y-159260683D01*
X30623500Y-159345097D01*
X30623500Y-159543901D01*
X30634613Y-159628314D01*
X30634613Y-159660683D01*
X30623500Y-159745097D01*
X30623500Y-159943901D01*
X30634865Y-160030228D01*
X30634865Y-160062597D01*
X30627373Y-160119500D01*
X30643012Y-160137333D01*
X30649319Y-160139185D01*
X30695074Y-160191989D01*
X30696850Y-160196068D01*
X30697264Y-160197068D01*
X30704720Y-160266539D01*
X30697264Y-160291932D01*
X30696850Y-160292932D01*
X30653019Y-160347343D01*
X30644241Y-160350266D01*
X30627373Y-160369499D01*
X30634865Y-160426399D01*
X30634865Y-160458770D01*
X30623500Y-160545097D01*
X30623500Y-160743901D01*
X30634613Y-160828314D01*
X30634613Y-160860683D01*
X30623500Y-160945097D01*
X30623500Y-161143901D01*
X30634613Y-161228314D01*
X30634613Y-161260683D01*
X30623500Y-161345098D01*
X30623500Y-161445000D01*
X30603815Y-161512039D01*
X30551011Y-161557794D01*
X30499501Y-161569000D01*
X30399598Y-161569000D01*
X30315185Y-161580113D01*
X30282816Y-161580113D01*
X30198402Y-161569000D01*
X29999597Y-161569000D01*
X29915185Y-161580113D01*
X29882816Y-161580113D01*
X29798402Y-161569000D01*
X29599597Y-161569000D01*
X29515185Y-161580113D01*
X29482816Y-161580113D01*
X29398402Y-161569000D01*
X29199597Y-161569000D01*
X29115185Y-161580113D01*
X29082816Y-161580113D01*
X28998402Y-161569000D01*
X28799597Y-161569000D01*
X28715185Y-161580113D01*
X28682816Y-161580113D01*
X28598402Y-161569000D01*
X28399597Y-161569000D01*
X28315185Y-161580113D01*
X28282816Y-161580113D01*
X28198402Y-161569000D01*
X27999597Y-161569000D01*
X27915185Y-161580113D01*
X27882816Y-161580113D01*
X27798402Y-161569000D01*
X27599597Y-161569000D01*
X27596044Y-161569234D01*
X27587931Y-161569500D01*
X27410088Y-161569500D01*
X27401977Y-161569234D01*
X27398407Y-161569000D01*
X27199594Y-161569000D01*
X27196040Y-161569234D01*
X27187929Y-161569500D01*
X26786500Y-161569500D01*
X26786500Y-161751530D01*
X26766815Y-161818569D01*
X26760883Y-161827006D01*
X26758883Y-161829613D01*
X26745926Y-161839075D01*
X26744308Y-161849066D01*
X26726131Y-161892951D01*
X26682291Y-161947355D01*
X26615997Y-161969421D01*
X26611569Y-161969500D01*
X25752374Y-161969500D01*
X25763478Y-162053840D01*
X25763478Y-162053842D01*
X25820156Y-162190675D01*
X25910320Y-162308179D01*
X26027824Y-162398343D01*
X26164657Y-162455021D01*
X26164659Y-162455022D01*
X26189140Y-162458245D01*
X26253037Y-162486511D01*
X26291508Y-162544836D01*
X26292339Y-162614701D01*
X26260637Y-162668865D01*
X26188200Y-162741302D01*
X26117927Y-162863018D01*
X26098223Y-162888697D01*
X26040184Y-162946736D01*
X25944211Y-163099476D01*
X25884631Y-163269745D01*
X25884630Y-163269750D01*
X25864435Y-163448996D01*
X25864435Y-163449003D01*
X25884630Y-163628249D01*
X25884631Y-163628254D01*
X25944211Y-163798523D01*
X25992388Y-163875195D01*
X26040184Y-163951262D01*
X26167738Y-164078816D01*
X26242791Y-164125975D01*
X26304693Y-164164871D01*
X26320478Y-164174789D01*
X26425375Y-164211494D01*
X26490745Y-164234368D01*
X26490750Y-164234369D01*
X26668162Y-164254358D01*
X26732576Y-164281424D01*
X26772131Y-164339019D01*
X26774269Y-164408856D01*
X26741960Y-164465259D01*
X26237639Y-164969581D01*
X26176316Y-165003066D01*
X26149958Y-165005900D01*
X24844268Y-165005900D01*
X24685732Y-165005900D01*
X24583642Y-165033255D01*
X24532597Y-165046933D01*
X24395303Y-165126199D01*
X24395300Y-165126201D01*
X23722745Y-165798755D01*
X23661422Y-165832240D01*
X23602971Y-165830849D01*
X23476413Y-165796938D01*
X23476403Y-165796936D01*
X23241001Y-165776341D01*
X23240999Y-165776341D01*
X23005596Y-165796936D01*
X23005586Y-165796938D01*
X22777344Y-165858094D01*
X22777335Y-165858098D01*
X22563171Y-165957964D01*
X22563169Y-165957965D01*
X22369597Y-166093505D01*
X22202505Y-166260597D01*
X22072575Y-166446158D01*
X22017998Y-166489783D01*
X21948500Y-166496977D01*
X21886145Y-166465454D01*
X21869425Y-166446158D01*
X21739494Y-166260597D01*
X21572402Y-166093506D01*
X21572395Y-166093501D01*
X21378834Y-165957967D01*
X21378830Y-165957965D01*
X21307727Y-165924809D01*
X21164663Y-165858097D01*
X21164659Y-165858096D01*
X21164655Y-165858094D01*
X20936413Y-165796938D01*
X20936403Y-165796936D01*
X20701001Y-165776341D01*
X20700999Y-165776341D01*
X20465596Y-165796936D01*
X20465586Y-165796938D01*
X20237344Y-165858094D01*
X20237335Y-165858098D01*
X20023171Y-165957964D01*
X20023169Y-165957965D01*
X19829597Y-166093505D01*
X19662505Y-166260597D01*
X19526965Y-166454169D01*
X19526964Y-166454171D01*
X19427098Y-166668335D01*
X19427094Y-166668344D01*
X19365938Y-166896586D01*
X19365936Y-166896596D01*
X19345341Y-167131999D01*
X19345341Y-167132000D01*
X18280500Y-167132000D01*
X18280500Y-161719500D01*
X25752373Y-161719500D01*
X26536499Y-161719500D01*
X26536500Y-161719499D01*
X26536500Y-161569500D01*
X25752374Y-161569500D01*
X25760117Y-161628314D01*
X25760117Y-161660686D01*
X25752373Y-161719500D01*
X18280500Y-161719500D01*
X18280500Y-161319500D01*
X25752373Y-161319500D01*
X26536500Y-161319500D01*
X26536500Y-161169500D01*
X26786500Y-161169500D01*
X26786500Y-161319500D01*
X27570625Y-161319500D01*
X27570625Y-161319499D01*
X27562882Y-161260686D01*
X27562882Y-161228312D01*
X27570626Y-161169500D01*
X26786500Y-161169500D01*
X26536500Y-161169500D01*
X25752374Y-161169500D01*
X25760117Y-161228313D01*
X25760117Y-161260685D01*
X25752373Y-161319500D01*
X18280500Y-161319500D01*
X18280500Y-153031000D01*
X20486210Y-153031000D01*
X20487854Y-153051910D01*
X20532968Y-153207195D01*
X20615278Y-153346374D01*
X20615285Y-153346383D01*
X20729616Y-153460714D01*
X20729625Y-153460721D01*
X20868804Y-153543031D01*
X21015000Y-153585504D01*
X21015000Y-153031000D01*
X20486210Y-153031000D01*
X18280500Y-153031000D01*
X18280500Y-152530999D01*
X20486209Y-152530999D01*
X20486210Y-152531000D01*
X21015000Y-152531000D01*
X21015000Y-151976494D01*
X21014998Y-151976493D01*
X20868809Y-152018965D01*
X20868806Y-152018967D01*
X20729625Y-152101278D01*
X20729616Y-152101285D01*
X20615285Y-152215616D01*
X20615278Y-152215625D01*
X20532968Y-152354804D01*
X20532966Y-152354809D01*
X20487855Y-152510081D01*
X20487854Y-152510087D01*
X20486209Y-152530999D01*
X18280500Y-152530999D01*
X18280500Y-137784500D01*
X18300185Y-137717461D01*
X18352989Y-137671706D01*
X18404500Y-137660500D01*
X43190500Y-137660500D01*
X43257539Y-137680185D01*
G37*
G04 #@! TD.AperFunction*
M02*
