G04 #@! TF.GenerationSoftware,KiCad,Pcbnew,8.0.0-8.0.0-1~ubuntu20.04.1*
G04 #@! TF.CreationDate,2025-04-10T19:36:48+02:00*
G04 #@! TF.ProjectId,eeg-breakout-legendsemi,6565672d-6272-4656-916b-6f75742d6c65,1*
G04 #@! TF.SameCoordinates,Original*
G04 #@! TF.FileFunction,Copper,L3,Inr*
G04 #@! TF.FilePolarity,Positive*
%FSLAX46Y46*%
G04 Gerber Fmt 4.6, Leading zero omitted, Abs format (unit mm)*
G04 Created by KiCad (PCBNEW 8.0.0-8.0.0-1~ubuntu20.04.1) date 2025-04-10 19:36:48*
%MOMM*%
%LPD*%
G01*
G04 APERTURE LIST*
G04 #@! TA.AperFunction,ComponentPad*
%ADD10R,1.700000X1.700000*%
G04 #@! TD*
G04 #@! TA.AperFunction,ComponentPad*
%ADD11O,1.700000X1.700000*%
G04 #@! TD*
G04 #@! TA.AperFunction,ViaPad*
%ADD12C,0.600000*%
G04 #@! TD*
G04 APERTURE END LIST*
D10*
X35941000Y-167132000D03*
D11*
X33401000Y-167132000D03*
X30861000Y-167132000D03*
X28321000Y-167132000D03*
X25781000Y-167132000D03*
X23241000Y-167132000D03*
X20701000Y-167132000D03*
D10*
X20828000Y-148082000D03*
D11*
X23368000Y-148082000D03*
X25908000Y-148082000D03*
X28448000Y-148082000D03*
X30988000Y-148082000D03*
X33528000Y-148082000D03*
X36068000Y-148082000D03*
X38608000Y-148082000D03*
X41148000Y-148082000D03*
D12*
X26670000Y-163449000D03*
X25019000Y-155702000D03*
X33861340Y-164239287D03*
X23749000Y-151765000D03*
X33147000Y-165100000D03*
X36957000Y-151765000D03*
X30226000Y-151765000D03*
X34696400Y-159613600D03*
X28067000Y-151765000D03*
X21209000Y-151765000D03*
X30226000Y-158877000D03*
X36169600Y-161036000D03*
X26797000Y-154178000D03*
X34899600Y-162966400D03*
X27813000Y-161036000D03*
X32385000Y-151765000D03*
X25908000Y-151765000D03*
X34544000Y-151765000D03*
G04 #@! TA.AperFunction,Conductor*
G36*
X43257539Y-137680185D02*
G01*
X43303294Y-137732989D01*
X43314500Y-137784500D01*
X43314500Y-177683500D01*
X43294815Y-177750539D01*
X43242011Y-177796294D01*
X43190500Y-177807500D01*
X18404500Y-177807500D01*
X18337461Y-177787815D01*
X18291706Y-177735011D01*
X18280500Y-177683500D01*
X18280500Y-167382000D01*
X19370364Y-167382000D01*
X19427567Y-167595486D01*
X19427570Y-167595492D01*
X19527399Y-167809578D01*
X19662894Y-168003082D01*
X19829917Y-168170105D01*
X20023421Y-168305600D01*
X20237507Y-168405429D01*
X20237516Y-168405433D01*
X20451000Y-168462634D01*
X20451000Y-167565012D01*
X20508007Y-167597925D01*
X20635174Y-167632000D01*
X20766826Y-167632000D01*
X20893993Y-167597925D01*
X20951000Y-167565012D01*
X20951000Y-168462633D01*
X21164483Y-168405433D01*
X21164492Y-168405429D01*
X21378578Y-168305600D01*
X21572082Y-168170105D01*
X21739105Y-168003082D01*
X21869119Y-167817405D01*
X21923696Y-167773781D01*
X21993195Y-167766588D01*
X22055549Y-167798110D01*
X22072269Y-167817405D01*
X22202505Y-168003401D01*
X22369599Y-168170495D01*
X22466384Y-168238265D01*
X22563165Y-168306032D01*
X22563167Y-168306033D01*
X22563170Y-168306035D01*
X22777337Y-168405903D01*
X23005592Y-168467063D01*
X23182034Y-168482500D01*
X23240999Y-168487659D01*
X23241000Y-168487659D01*
X23241001Y-168487659D01*
X23299966Y-168482500D01*
X23476408Y-168467063D01*
X23704663Y-168405903D01*
X23918830Y-168306035D01*
X24112401Y-168170495D01*
X24279495Y-168003401D01*
X24409425Y-167817842D01*
X24464002Y-167774217D01*
X24533500Y-167767023D01*
X24595855Y-167798546D01*
X24612575Y-167817842D01*
X24742281Y-168003082D01*
X24742505Y-168003401D01*
X24909599Y-168170495D01*
X25006384Y-168238265D01*
X25103165Y-168306032D01*
X25103167Y-168306033D01*
X25103170Y-168306035D01*
X25317337Y-168405903D01*
X25545592Y-168467063D01*
X25722034Y-168482500D01*
X25780999Y-168487659D01*
X25781000Y-168487659D01*
X25781001Y-168487659D01*
X25839966Y-168482500D01*
X26016408Y-168467063D01*
X26244663Y-168405903D01*
X26458830Y-168306035D01*
X26652401Y-168170495D01*
X26819495Y-168003401D01*
X26949425Y-167817842D01*
X27004002Y-167774217D01*
X27073500Y-167767023D01*
X27135855Y-167798546D01*
X27152575Y-167817842D01*
X27282281Y-168003082D01*
X27282505Y-168003401D01*
X27449599Y-168170495D01*
X27546384Y-168238265D01*
X27643165Y-168306032D01*
X27643167Y-168306033D01*
X27643170Y-168306035D01*
X27857337Y-168405903D01*
X28085592Y-168467063D01*
X28262034Y-168482500D01*
X28320999Y-168487659D01*
X28321000Y-168487659D01*
X28321001Y-168487659D01*
X28379966Y-168482500D01*
X28556408Y-168467063D01*
X28784663Y-168405903D01*
X28998830Y-168306035D01*
X29192401Y-168170495D01*
X29359495Y-168003401D01*
X29489425Y-167817842D01*
X29544002Y-167774217D01*
X29613500Y-167767023D01*
X29675855Y-167798546D01*
X29692575Y-167817842D01*
X29822281Y-168003082D01*
X29822505Y-168003401D01*
X29989599Y-168170495D01*
X30086384Y-168238265D01*
X30183165Y-168306032D01*
X30183167Y-168306033D01*
X30183170Y-168306035D01*
X30397337Y-168405903D01*
X30625592Y-168467063D01*
X30802034Y-168482500D01*
X30860999Y-168487659D01*
X30861000Y-168487659D01*
X30861001Y-168487659D01*
X30919966Y-168482500D01*
X31096408Y-168467063D01*
X31324663Y-168405903D01*
X31538830Y-168306035D01*
X31732401Y-168170495D01*
X31899495Y-168003401D01*
X32029425Y-167817842D01*
X32084002Y-167774217D01*
X32153500Y-167767023D01*
X32215855Y-167798546D01*
X32232575Y-167817842D01*
X32362281Y-168003082D01*
X32362505Y-168003401D01*
X32529599Y-168170495D01*
X32626384Y-168238265D01*
X32723165Y-168306032D01*
X32723167Y-168306033D01*
X32723170Y-168306035D01*
X32937337Y-168405903D01*
X33165592Y-168467063D01*
X33342034Y-168482500D01*
X33400999Y-168487659D01*
X33401000Y-168487659D01*
X33401001Y-168487659D01*
X33459966Y-168482500D01*
X33636408Y-168467063D01*
X33864663Y-168405903D01*
X34078830Y-168306035D01*
X34272401Y-168170495D01*
X34394329Y-168048566D01*
X34455648Y-168015084D01*
X34525340Y-168020068D01*
X34581274Y-168061939D01*
X34598189Y-168092917D01*
X34647202Y-168224328D01*
X34647206Y-168224335D01*
X34733452Y-168339544D01*
X34733455Y-168339547D01*
X34848664Y-168425793D01*
X34848671Y-168425797D01*
X34983517Y-168476091D01*
X34983516Y-168476091D01*
X34990444Y-168476835D01*
X35043127Y-168482500D01*
X36838872Y-168482499D01*
X36898483Y-168476091D01*
X37033331Y-168425796D01*
X37148546Y-168339546D01*
X37234796Y-168224331D01*
X37285091Y-168089483D01*
X37291500Y-168029873D01*
X37291499Y-166234128D01*
X37285091Y-166174517D01*
X37283810Y-166171083D01*
X37234797Y-166039671D01*
X37234793Y-166039664D01*
X37148547Y-165924455D01*
X37148544Y-165924452D01*
X37033335Y-165838206D01*
X37033328Y-165838202D01*
X36898482Y-165787908D01*
X36898483Y-165787908D01*
X36838883Y-165781501D01*
X36838881Y-165781500D01*
X36838873Y-165781500D01*
X36838864Y-165781500D01*
X35043129Y-165781500D01*
X35043123Y-165781501D01*
X34983516Y-165787908D01*
X34848671Y-165838202D01*
X34848664Y-165838206D01*
X34733455Y-165924452D01*
X34733452Y-165924455D01*
X34647206Y-166039664D01*
X34647203Y-166039669D01*
X34598189Y-166171083D01*
X34556317Y-166227016D01*
X34490853Y-166251433D01*
X34422580Y-166236581D01*
X34394326Y-166215430D01*
X34272402Y-166093506D01*
X34272395Y-166093501D01*
X34078834Y-165957967D01*
X34078830Y-165957965D01*
X34078828Y-165957964D01*
X33864663Y-165858097D01*
X33864659Y-165858096D01*
X33864655Y-165858094D01*
X33801065Y-165841056D01*
X33741404Y-165804691D01*
X33710875Y-165741845D01*
X33719169Y-165672469D01*
X33745475Y-165633602D01*
X33776816Y-165602262D01*
X33872789Y-165449522D01*
X33932368Y-165279255D01*
X33952565Y-165100000D01*
X33932368Y-164920745D01*
X33872789Y-164750478D01*
X33776816Y-164597738D01*
X33649262Y-164470184D01*
X33496523Y-164374211D01*
X33326254Y-164314631D01*
X33326249Y-164314630D01*
X33147004Y-164294435D01*
X33146996Y-164294435D01*
X32967750Y-164314630D01*
X32967745Y-164314631D01*
X32797476Y-164374211D01*
X32644737Y-164470184D01*
X32517184Y-164597737D01*
X32421211Y-164750476D01*
X32361631Y-164920745D01*
X32361630Y-164920750D01*
X32341435Y-165099996D01*
X32341435Y-165100003D01*
X32361630Y-165279249D01*
X32361631Y-165279254D01*
X32421211Y-165449523D01*
X32517184Y-165602262D01*
X32644738Y-165729816D01*
X32699605Y-165764291D01*
X32745895Y-165816624D01*
X32756544Y-165885678D01*
X32728169Y-165949526D01*
X32704755Y-165970859D01*
X32529597Y-166093505D01*
X32362505Y-166260597D01*
X32232575Y-166446158D01*
X32177998Y-166489783D01*
X32108500Y-166496977D01*
X32046145Y-166465454D01*
X32029425Y-166446158D01*
X31899494Y-166260597D01*
X31732402Y-166093506D01*
X31732395Y-166093501D01*
X31538834Y-165957967D01*
X31538830Y-165957965D01*
X31538828Y-165957964D01*
X31324663Y-165858097D01*
X31324659Y-165858096D01*
X31324655Y-165858094D01*
X31096413Y-165796938D01*
X31096403Y-165796936D01*
X30861001Y-165776341D01*
X30860999Y-165776341D01*
X30625596Y-165796936D01*
X30625586Y-165796938D01*
X30397344Y-165858094D01*
X30397335Y-165858098D01*
X30183171Y-165957964D01*
X30183169Y-165957965D01*
X29989597Y-166093505D01*
X29822505Y-166260597D01*
X29692575Y-166446158D01*
X29637998Y-166489783D01*
X29568500Y-166496977D01*
X29506145Y-166465454D01*
X29489425Y-166446158D01*
X29359494Y-166260597D01*
X29192402Y-166093506D01*
X29192395Y-166093501D01*
X28998834Y-165957967D01*
X28998830Y-165957965D01*
X28998828Y-165957964D01*
X28784663Y-165858097D01*
X28784659Y-165858096D01*
X28784655Y-165858094D01*
X28556413Y-165796938D01*
X28556403Y-165796936D01*
X28321001Y-165776341D01*
X28320999Y-165776341D01*
X28085596Y-165796936D01*
X28085586Y-165796938D01*
X27857344Y-165858094D01*
X27857335Y-165858098D01*
X27643171Y-165957964D01*
X27643169Y-165957965D01*
X27449597Y-166093505D01*
X27282505Y-166260597D01*
X27152575Y-166446158D01*
X27097998Y-166489783D01*
X27028500Y-166496977D01*
X26966145Y-166465454D01*
X26949425Y-166446158D01*
X26819494Y-166260597D01*
X26652402Y-166093506D01*
X26652395Y-166093501D01*
X26458834Y-165957967D01*
X26458830Y-165957965D01*
X26458828Y-165957964D01*
X26244663Y-165858097D01*
X26244659Y-165858096D01*
X26244655Y-165858094D01*
X26016413Y-165796938D01*
X26016403Y-165796936D01*
X25781001Y-165776341D01*
X25780999Y-165776341D01*
X25545596Y-165796936D01*
X25545586Y-165796938D01*
X25317344Y-165858094D01*
X25317335Y-165858098D01*
X25103171Y-165957964D01*
X25103169Y-165957965D01*
X24909597Y-166093505D01*
X24742505Y-166260597D01*
X24612575Y-166446158D01*
X24557998Y-166489783D01*
X24488500Y-166496977D01*
X24426145Y-166465454D01*
X24409425Y-166446158D01*
X24279494Y-166260597D01*
X24112402Y-166093506D01*
X24112395Y-166093501D01*
X23918834Y-165957967D01*
X23918830Y-165957965D01*
X23918828Y-165957964D01*
X23704663Y-165858097D01*
X23704659Y-165858096D01*
X23704655Y-165858094D01*
X23476413Y-165796938D01*
X23476403Y-165796936D01*
X23241001Y-165776341D01*
X23240999Y-165776341D01*
X23005596Y-165796936D01*
X23005586Y-165796938D01*
X22777344Y-165858094D01*
X22777335Y-165858098D01*
X22563171Y-165957964D01*
X22563169Y-165957965D01*
X22369597Y-166093505D01*
X22202508Y-166260594D01*
X22072269Y-166446595D01*
X22017692Y-166490219D01*
X21948193Y-166497412D01*
X21885839Y-166465890D01*
X21869119Y-166446594D01*
X21739113Y-166260926D01*
X21739108Y-166260920D01*
X21572082Y-166093894D01*
X21378578Y-165958399D01*
X21164492Y-165858570D01*
X21164486Y-165858567D01*
X20951000Y-165801364D01*
X20951000Y-166698988D01*
X20893993Y-166666075D01*
X20766826Y-166632000D01*
X20635174Y-166632000D01*
X20508007Y-166666075D01*
X20451000Y-166698988D01*
X20451000Y-165801364D01*
X20450999Y-165801364D01*
X20237513Y-165858567D01*
X20237507Y-165858570D01*
X20023422Y-165958399D01*
X20023420Y-165958400D01*
X19829926Y-166093886D01*
X19829920Y-166093891D01*
X19662891Y-166260920D01*
X19662886Y-166260926D01*
X19527400Y-166454420D01*
X19527399Y-166454422D01*
X19427570Y-166668507D01*
X19427567Y-166668513D01*
X19370364Y-166881999D01*
X19370364Y-166882000D01*
X20267988Y-166882000D01*
X20235075Y-166939007D01*
X20201000Y-167066174D01*
X20201000Y-167197826D01*
X20235075Y-167324993D01*
X20267988Y-167382000D01*
X19370364Y-167382000D01*
X18280500Y-167382000D01*
X18280500Y-162966403D01*
X34094035Y-162966403D01*
X34114230Y-163145649D01*
X34114231Y-163145654D01*
X34173811Y-163315923D01*
X34269784Y-163468662D01*
X34397338Y-163596216D01*
X34550078Y-163692189D01*
X34720345Y-163751768D01*
X34720350Y-163751769D01*
X34899596Y-163771965D01*
X34899600Y-163771965D01*
X34899604Y-163771965D01*
X35078849Y-163751769D01*
X35078852Y-163751768D01*
X35078855Y-163751768D01*
X35249122Y-163692189D01*
X35401862Y-163596216D01*
X35529416Y-163468662D01*
X35625389Y-163315922D01*
X35684968Y-163145655D01*
X35705165Y-162966400D01*
X35684968Y-162787145D01*
X35625389Y-162616878D01*
X35529416Y-162464138D01*
X35401862Y-162336584D01*
X35249123Y-162240611D01*
X35078854Y-162181031D01*
X35078849Y-162181030D01*
X34899604Y-162160835D01*
X34899596Y-162160835D01*
X34720350Y-162181030D01*
X34720345Y-162181031D01*
X34550076Y-162240611D01*
X34397337Y-162336584D01*
X34269784Y-162464137D01*
X34173811Y-162616876D01*
X34114231Y-162787145D01*
X34114230Y-162787150D01*
X34094035Y-162966396D01*
X34094035Y-162966403D01*
X18280500Y-162966403D01*
X18280500Y-161036003D01*
X27007435Y-161036003D01*
X27027630Y-161215249D01*
X27027631Y-161215254D01*
X27087211Y-161385523D01*
X27183184Y-161538262D01*
X27310738Y-161665816D01*
X27463478Y-161761789D01*
X27633745Y-161821368D01*
X27633750Y-161821369D01*
X27812996Y-161841565D01*
X27813000Y-161841565D01*
X27813004Y-161841565D01*
X27992249Y-161821369D01*
X27992252Y-161821368D01*
X27992255Y-161821368D01*
X28162522Y-161761789D01*
X28315262Y-161665816D01*
X28442816Y-161538262D01*
X28538789Y-161385522D01*
X28598368Y-161215255D01*
X28618565Y-161036003D01*
X35364035Y-161036003D01*
X35384230Y-161215249D01*
X35384231Y-161215254D01*
X35443811Y-161385523D01*
X35539784Y-161538262D01*
X35667338Y-161665816D01*
X35820078Y-161761789D01*
X35990345Y-161821368D01*
X35990350Y-161821369D01*
X36169596Y-161841565D01*
X36169600Y-161841565D01*
X36169604Y-161841565D01*
X36348849Y-161821369D01*
X36348852Y-161821368D01*
X36348855Y-161821368D01*
X36519122Y-161761789D01*
X36671862Y-161665816D01*
X36799416Y-161538262D01*
X36895389Y-161385522D01*
X36954968Y-161215255D01*
X36975165Y-161036000D01*
X36954968Y-160856745D01*
X36895389Y-160686478D01*
X36799416Y-160533738D01*
X36671862Y-160406184D01*
X36660378Y-160398968D01*
X36519123Y-160310211D01*
X36348854Y-160250631D01*
X36348849Y-160250630D01*
X36169604Y-160230435D01*
X36169596Y-160230435D01*
X35990350Y-160250630D01*
X35990345Y-160250631D01*
X35820076Y-160310211D01*
X35667337Y-160406184D01*
X35539784Y-160533737D01*
X35443811Y-160686476D01*
X35384231Y-160856745D01*
X35384230Y-160856750D01*
X35364035Y-161035996D01*
X35364035Y-161036003D01*
X28618565Y-161036003D01*
X28618565Y-161036000D01*
X28598368Y-160856745D01*
X28538789Y-160686478D01*
X28442816Y-160533738D01*
X28315262Y-160406184D01*
X28303778Y-160398968D01*
X28162523Y-160310211D01*
X27992254Y-160250631D01*
X27992249Y-160250630D01*
X27813004Y-160230435D01*
X27812996Y-160230435D01*
X27633750Y-160250630D01*
X27633745Y-160250631D01*
X27463476Y-160310211D01*
X27310737Y-160406184D01*
X27183184Y-160533737D01*
X27087211Y-160686476D01*
X27027631Y-160856745D01*
X27027630Y-160856750D01*
X27007435Y-161035996D01*
X27007435Y-161036003D01*
X18280500Y-161036003D01*
X18280500Y-158877003D01*
X29420435Y-158877003D01*
X29440630Y-159056249D01*
X29440631Y-159056254D01*
X29500211Y-159226523D01*
X29523809Y-159264078D01*
X29596184Y-159379262D01*
X29723738Y-159506816D01*
X29876478Y-159602789D01*
X29907383Y-159613603D01*
X30046745Y-159662368D01*
X30046750Y-159662369D01*
X30225996Y-159682565D01*
X30226000Y-159682565D01*
X30226004Y-159682565D01*
X30405249Y-159662369D01*
X30405252Y-159662368D01*
X30405255Y-159662368D01*
X30544617Y-159613603D01*
X33890835Y-159613603D01*
X33911030Y-159792849D01*
X33911031Y-159792854D01*
X33970611Y-159963123D01*
X34066584Y-160115862D01*
X34194138Y-160243416D01*
X34284480Y-160300182D01*
X34300441Y-160310211D01*
X34346878Y-160339389D01*
X34517145Y-160398968D01*
X34517150Y-160398969D01*
X34696396Y-160419165D01*
X34696400Y-160419165D01*
X34696404Y-160419165D01*
X34875649Y-160398969D01*
X34875652Y-160398968D01*
X34875655Y-160398968D01*
X35045922Y-160339389D01*
X35198662Y-160243416D01*
X35326216Y-160115862D01*
X35422189Y-159963122D01*
X35481768Y-159792855D01*
X35496470Y-159662369D01*
X35501965Y-159613603D01*
X35501965Y-159613596D01*
X35481769Y-159434350D01*
X35481768Y-159434345D01*
X35422188Y-159264076D01*
X35326215Y-159111337D01*
X35198662Y-158983784D01*
X35045923Y-158887811D01*
X34875654Y-158828231D01*
X34875649Y-158828230D01*
X34696404Y-158808035D01*
X34696396Y-158808035D01*
X34517150Y-158828230D01*
X34517145Y-158828231D01*
X34346876Y-158887811D01*
X34194137Y-158983784D01*
X34066584Y-159111337D01*
X33970611Y-159264076D01*
X33911031Y-159434345D01*
X33911030Y-159434350D01*
X33890835Y-159613596D01*
X33890835Y-159613603D01*
X30544617Y-159613603D01*
X30575522Y-159602789D01*
X30728262Y-159506816D01*
X30855816Y-159379262D01*
X30951789Y-159226522D01*
X31011368Y-159056255D01*
X31011369Y-159056249D01*
X31031565Y-158877003D01*
X31031565Y-158876996D01*
X31011369Y-158697750D01*
X31011368Y-158697745D01*
X30951788Y-158527476D01*
X30855815Y-158374737D01*
X30728262Y-158247184D01*
X30575523Y-158151211D01*
X30405254Y-158091631D01*
X30405249Y-158091630D01*
X30226004Y-158071435D01*
X30225996Y-158071435D01*
X30046750Y-158091630D01*
X30046745Y-158091631D01*
X29876476Y-158151211D01*
X29723737Y-158247184D01*
X29596184Y-158374737D01*
X29500211Y-158527476D01*
X29440631Y-158697745D01*
X29440630Y-158697750D01*
X29420435Y-158876996D01*
X29420435Y-158877003D01*
X18280500Y-158877003D01*
X18280500Y-154178003D01*
X25991435Y-154178003D01*
X26011630Y-154357249D01*
X26011631Y-154357254D01*
X26071211Y-154527523D01*
X26167184Y-154680262D01*
X26294738Y-154807816D01*
X26447478Y-154903789D01*
X26617745Y-154963368D01*
X26617750Y-154963369D01*
X26796996Y-154983565D01*
X26797000Y-154983565D01*
X26797004Y-154983565D01*
X26976249Y-154963369D01*
X26976252Y-154963368D01*
X26976255Y-154963368D01*
X27146522Y-154903789D01*
X27299262Y-154807816D01*
X27426816Y-154680262D01*
X27522789Y-154527522D01*
X27582368Y-154357255D01*
X27602565Y-154178000D01*
X27582368Y-153998745D01*
X27522789Y-153828478D01*
X27426816Y-153675738D01*
X27299262Y-153548184D01*
X27146523Y-153452211D01*
X26976254Y-153392631D01*
X26976249Y-153392630D01*
X26797004Y-153372435D01*
X26796996Y-153372435D01*
X26617750Y-153392630D01*
X26617745Y-153392631D01*
X26447476Y-153452211D01*
X26294737Y-153548184D01*
X26167184Y-153675737D01*
X26071211Y-153828476D01*
X26011631Y-153998745D01*
X26011630Y-153998750D01*
X25991435Y-154177996D01*
X25991435Y-154178003D01*
X18280500Y-154178003D01*
X18280500Y-151765003D01*
X20403435Y-151765003D01*
X20423630Y-151944249D01*
X20423631Y-151944254D01*
X20483211Y-152114523D01*
X20579184Y-152267262D01*
X20706738Y-152394816D01*
X20859478Y-152490789D01*
X21029745Y-152550368D01*
X21029750Y-152550369D01*
X21208996Y-152570565D01*
X21209000Y-152570565D01*
X21209004Y-152570565D01*
X21388249Y-152550369D01*
X21388252Y-152550368D01*
X21388255Y-152550368D01*
X21558522Y-152490789D01*
X21711262Y-152394816D01*
X21838816Y-152267262D01*
X21934789Y-152114522D01*
X21994368Y-151944255D01*
X22014565Y-151765003D01*
X22943435Y-151765003D01*
X22963630Y-151944249D01*
X22963631Y-151944254D01*
X23023211Y-152114523D01*
X23119184Y-152267262D01*
X23246738Y-152394816D01*
X23399478Y-152490789D01*
X23569745Y-152550368D01*
X23569750Y-152550369D01*
X23748996Y-152570565D01*
X23749000Y-152570565D01*
X23749004Y-152570565D01*
X23928249Y-152550369D01*
X23928252Y-152550368D01*
X23928255Y-152550368D01*
X24098522Y-152490789D01*
X24251262Y-152394816D01*
X24378816Y-152267262D01*
X24474789Y-152114522D01*
X24534368Y-151944255D01*
X24554565Y-151765003D01*
X25102435Y-151765003D01*
X25122630Y-151944249D01*
X25122631Y-151944254D01*
X25182211Y-152114523D01*
X25278184Y-152267262D01*
X25405738Y-152394816D01*
X25558478Y-152490789D01*
X25728745Y-152550368D01*
X25728750Y-152550369D01*
X25907996Y-152570565D01*
X25908000Y-152570565D01*
X25908004Y-152570565D01*
X26087249Y-152550369D01*
X26087252Y-152550368D01*
X26087255Y-152550368D01*
X26257522Y-152490789D01*
X26410262Y-152394816D01*
X26537816Y-152267262D01*
X26633789Y-152114522D01*
X26693368Y-151944255D01*
X26713565Y-151765003D01*
X27261435Y-151765003D01*
X27281630Y-151944249D01*
X27281631Y-151944254D01*
X27341211Y-152114523D01*
X27437184Y-152267262D01*
X27564738Y-152394816D01*
X27717478Y-152490789D01*
X27887745Y-152550368D01*
X27887750Y-152550369D01*
X28066996Y-152570565D01*
X28067000Y-152570565D01*
X28067004Y-152570565D01*
X28246249Y-152550369D01*
X28246252Y-152550368D01*
X28246255Y-152550368D01*
X28416522Y-152490789D01*
X28569262Y-152394816D01*
X28696816Y-152267262D01*
X28792789Y-152114522D01*
X28852368Y-151944255D01*
X28872565Y-151765003D01*
X29420435Y-151765003D01*
X29440630Y-151944249D01*
X29440631Y-151944254D01*
X29500211Y-152114523D01*
X29596184Y-152267262D01*
X29723738Y-152394816D01*
X29876478Y-152490789D01*
X30046745Y-152550368D01*
X30046750Y-152550369D01*
X30225996Y-152570565D01*
X30226000Y-152570565D01*
X30226004Y-152570565D01*
X30405249Y-152550369D01*
X30405252Y-152550368D01*
X30405255Y-152550368D01*
X30575522Y-152490789D01*
X30728262Y-152394816D01*
X30855816Y-152267262D01*
X30951789Y-152114522D01*
X31011368Y-151944255D01*
X31031565Y-151765003D01*
X31579435Y-151765003D01*
X31599630Y-151944249D01*
X31599631Y-151944254D01*
X31659211Y-152114523D01*
X31755184Y-152267262D01*
X31882738Y-152394816D01*
X32035478Y-152490789D01*
X32205745Y-152550368D01*
X32205750Y-152550369D01*
X32384996Y-152570565D01*
X32385000Y-152570565D01*
X32385004Y-152570565D01*
X32564249Y-152550369D01*
X32564252Y-152550368D01*
X32564255Y-152550368D01*
X32734522Y-152490789D01*
X32887262Y-152394816D01*
X33014816Y-152267262D01*
X33110789Y-152114522D01*
X33170368Y-151944255D01*
X33190565Y-151765003D01*
X33738435Y-151765003D01*
X33758630Y-151944249D01*
X33758631Y-151944254D01*
X33818211Y-152114523D01*
X33914184Y-152267262D01*
X34041738Y-152394816D01*
X34194478Y-152490789D01*
X34364745Y-152550368D01*
X34364750Y-152550369D01*
X34543996Y-152570565D01*
X34544000Y-152570565D01*
X34544004Y-152570565D01*
X34723249Y-152550369D01*
X34723252Y-152550368D01*
X34723255Y-152550368D01*
X34893522Y-152490789D01*
X35046262Y-152394816D01*
X35173816Y-152267262D01*
X35269789Y-152114522D01*
X35329368Y-151944255D01*
X35349565Y-151765003D01*
X36151435Y-151765003D01*
X36171630Y-151944249D01*
X36171631Y-151944254D01*
X36231211Y-152114523D01*
X36327184Y-152267262D01*
X36454738Y-152394816D01*
X36607478Y-152490789D01*
X36777745Y-152550368D01*
X36777750Y-152550369D01*
X36956996Y-152570565D01*
X36957000Y-152570565D01*
X36957004Y-152570565D01*
X37136249Y-152550369D01*
X37136252Y-152550368D01*
X37136255Y-152550368D01*
X37306522Y-152490789D01*
X37459262Y-152394816D01*
X37586816Y-152267262D01*
X37682789Y-152114522D01*
X37742368Y-151944255D01*
X37762565Y-151765000D01*
X37742368Y-151585745D01*
X37682789Y-151415478D01*
X37586816Y-151262738D01*
X37459262Y-151135184D01*
X37306523Y-151039211D01*
X37136254Y-150979631D01*
X37136249Y-150979630D01*
X36957004Y-150959435D01*
X36956996Y-150959435D01*
X36777750Y-150979630D01*
X36777745Y-150979631D01*
X36607476Y-151039211D01*
X36454737Y-151135184D01*
X36327184Y-151262737D01*
X36231211Y-151415476D01*
X36171631Y-151585745D01*
X36171630Y-151585750D01*
X36151435Y-151764996D01*
X36151435Y-151765003D01*
X35349565Y-151765003D01*
X35349565Y-151765000D01*
X35329368Y-151585745D01*
X35269789Y-151415478D01*
X35173816Y-151262738D01*
X35046262Y-151135184D01*
X34893523Y-151039211D01*
X34723254Y-150979631D01*
X34723249Y-150979630D01*
X34544004Y-150959435D01*
X34543996Y-150959435D01*
X34364750Y-150979630D01*
X34364745Y-150979631D01*
X34194476Y-151039211D01*
X34041737Y-151135184D01*
X33914184Y-151262737D01*
X33818211Y-151415476D01*
X33758631Y-151585745D01*
X33758630Y-151585750D01*
X33738435Y-151764996D01*
X33738435Y-151765003D01*
X33190565Y-151765003D01*
X33190565Y-151765000D01*
X33170368Y-151585745D01*
X33110789Y-151415478D01*
X33014816Y-151262738D01*
X32887262Y-151135184D01*
X32734523Y-151039211D01*
X32564254Y-150979631D01*
X32564249Y-150979630D01*
X32385004Y-150959435D01*
X32384996Y-150959435D01*
X32205750Y-150979630D01*
X32205745Y-150979631D01*
X32035476Y-151039211D01*
X31882737Y-151135184D01*
X31755184Y-151262737D01*
X31659211Y-151415476D01*
X31599631Y-151585745D01*
X31599630Y-151585750D01*
X31579435Y-151764996D01*
X31579435Y-151765003D01*
X31031565Y-151765003D01*
X31031565Y-151765000D01*
X31011368Y-151585745D01*
X30951789Y-151415478D01*
X30855816Y-151262738D01*
X30728262Y-151135184D01*
X30575523Y-151039211D01*
X30405254Y-150979631D01*
X30405249Y-150979630D01*
X30226004Y-150959435D01*
X30225996Y-150959435D01*
X30046750Y-150979630D01*
X30046745Y-150979631D01*
X29876476Y-151039211D01*
X29723737Y-151135184D01*
X29596184Y-151262737D01*
X29500211Y-151415476D01*
X29440631Y-151585745D01*
X29440630Y-151585750D01*
X29420435Y-151764996D01*
X29420435Y-151765003D01*
X28872565Y-151765003D01*
X28872565Y-151765000D01*
X28852368Y-151585745D01*
X28792789Y-151415478D01*
X28696816Y-151262738D01*
X28569262Y-151135184D01*
X28416523Y-151039211D01*
X28246254Y-150979631D01*
X28246249Y-150979630D01*
X28067004Y-150959435D01*
X28066996Y-150959435D01*
X27887750Y-150979630D01*
X27887745Y-150979631D01*
X27717476Y-151039211D01*
X27564737Y-151135184D01*
X27437184Y-151262737D01*
X27341211Y-151415476D01*
X27281631Y-151585745D01*
X27281630Y-151585750D01*
X27261435Y-151764996D01*
X27261435Y-151765003D01*
X26713565Y-151765003D01*
X26713565Y-151765000D01*
X26693368Y-151585745D01*
X26633789Y-151415478D01*
X26537816Y-151262738D01*
X26410262Y-151135184D01*
X26257523Y-151039211D01*
X26087254Y-150979631D01*
X26087249Y-150979630D01*
X25908004Y-150959435D01*
X25907996Y-150959435D01*
X25728750Y-150979630D01*
X25728745Y-150979631D01*
X25558476Y-151039211D01*
X25405737Y-151135184D01*
X25278184Y-151262737D01*
X25182211Y-151415476D01*
X25122631Y-151585745D01*
X25122630Y-151585750D01*
X25102435Y-151764996D01*
X25102435Y-151765003D01*
X24554565Y-151765003D01*
X24554565Y-151765000D01*
X24534368Y-151585745D01*
X24474789Y-151415478D01*
X24378816Y-151262738D01*
X24251262Y-151135184D01*
X24098523Y-151039211D01*
X23928254Y-150979631D01*
X23928249Y-150979630D01*
X23749004Y-150959435D01*
X23748996Y-150959435D01*
X23569750Y-150979630D01*
X23569745Y-150979631D01*
X23399476Y-151039211D01*
X23246737Y-151135184D01*
X23119184Y-151262737D01*
X23023211Y-151415476D01*
X22963631Y-151585745D01*
X22963630Y-151585750D01*
X22943435Y-151764996D01*
X22943435Y-151765003D01*
X22014565Y-151765003D01*
X22014565Y-151765000D01*
X21994368Y-151585745D01*
X21934789Y-151415478D01*
X21838816Y-151262738D01*
X21711262Y-151135184D01*
X21558523Y-151039211D01*
X21388254Y-150979631D01*
X21388249Y-150979630D01*
X21209004Y-150959435D01*
X21208996Y-150959435D01*
X21029750Y-150979630D01*
X21029745Y-150979631D01*
X20859476Y-151039211D01*
X20706737Y-151135184D01*
X20579184Y-151262737D01*
X20483211Y-151415476D01*
X20423631Y-151585745D01*
X20423630Y-151585750D01*
X20403435Y-151764996D01*
X20403435Y-151765003D01*
X18280500Y-151765003D01*
X18280500Y-148979870D01*
X19477500Y-148979870D01*
X19477501Y-148979876D01*
X19483908Y-149039483D01*
X19534202Y-149174328D01*
X19534206Y-149174335D01*
X19620452Y-149289544D01*
X19620455Y-149289547D01*
X19735664Y-149375793D01*
X19735671Y-149375797D01*
X19870517Y-149426091D01*
X19870516Y-149426091D01*
X19877444Y-149426835D01*
X19930127Y-149432500D01*
X21725872Y-149432499D01*
X21785483Y-149426091D01*
X21920331Y-149375796D01*
X22035546Y-149289546D01*
X22121796Y-149174331D01*
X22170810Y-149042916D01*
X22212681Y-148986984D01*
X22278145Y-148962566D01*
X22346418Y-148977417D01*
X22374673Y-148998569D01*
X22496599Y-149120495D01*
X22593384Y-149188265D01*
X22690165Y-149256032D01*
X22690167Y-149256033D01*
X22690170Y-149256035D01*
X22904337Y-149355903D01*
X23132592Y-149417063D01*
X23309034Y-149432500D01*
X23367999Y-149437659D01*
X23368000Y-149437659D01*
X23368001Y-149437659D01*
X23426966Y-149432500D01*
X23603408Y-149417063D01*
X23831663Y-149355903D01*
X24045830Y-149256035D01*
X24239401Y-149120495D01*
X24406495Y-148953401D01*
X24536425Y-148767842D01*
X24591002Y-148724217D01*
X24660500Y-148717023D01*
X24722855Y-148748546D01*
X24739575Y-148767842D01*
X24869500Y-148953395D01*
X24869505Y-148953401D01*
X25036599Y-149120495D01*
X25133384Y-149188265D01*
X25230165Y-149256032D01*
X25230167Y-149256033D01*
X25230170Y-149256035D01*
X25444337Y-149355903D01*
X25672592Y-149417063D01*
X25849034Y-149432500D01*
X25907999Y-149437659D01*
X25908000Y-149437659D01*
X25908001Y-149437659D01*
X25966966Y-149432500D01*
X26143408Y-149417063D01*
X26371663Y-149355903D01*
X26585830Y-149256035D01*
X26779401Y-149120495D01*
X26946495Y-148953401D01*
X27076425Y-148767842D01*
X27131002Y-148724217D01*
X27200500Y-148717023D01*
X27262855Y-148748546D01*
X27279575Y-148767842D01*
X27409500Y-148953395D01*
X27409505Y-148953401D01*
X27576599Y-149120495D01*
X27673384Y-149188265D01*
X27770165Y-149256032D01*
X27770167Y-149256033D01*
X27770170Y-149256035D01*
X27984337Y-149355903D01*
X28212592Y-149417063D01*
X28389034Y-149432500D01*
X28447999Y-149437659D01*
X28448000Y-149437659D01*
X28448001Y-149437659D01*
X28506966Y-149432500D01*
X28683408Y-149417063D01*
X28911663Y-149355903D01*
X29125830Y-149256035D01*
X29319401Y-149120495D01*
X29486495Y-148953401D01*
X29616425Y-148767842D01*
X29671002Y-148724217D01*
X29740500Y-148717023D01*
X29802855Y-148748546D01*
X29819575Y-148767842D01*
X29949500Y-148953395D01*
X29949505Y-148953401D01*
X30116599Y-149120495D01*
X30213384Y-149188265D01*
X30310165Y-149256032D01*
X30310167Y-149256033D01*
X30310170Y-149256035D01*
X30524337Y-149355903D01*
X30752592Y-149417063D01*
X30929034Y-149432500D01*
X30987999Y-149437659D01*
X30988000Y-149437659D01*
X30988001Y-149437659D01*
X31046966Y-149432500D01*
X31223408Y-149417063D01*
X31451663Y-149355903D01*
X31665830Y-149256035D01*
X31859401Y-149120495D01*
X32026495Y-148953401D01*
X32156425Y-148767842D01*
X32211002Y-148724217D01*
X32280500Y-148717023D01*
X32342855Y-148748546D01*
X32359575Y-148767842D01*
X32489500Y-148953395D01*
X32489505Y-148953401D01*
X32656599Y-149120495D01*
X32753384Y-149188265D01*
X32850165Y-149256032D01*
X32850167Y-149256033D01*
X32850170Y-149256035D01*
X33064337Y-149355903D01*
X33292592Y-149417063D01*
X33469034Y-149432500D01*
X33527999Y-149437659D01*
X33528000Y-149437659D01*
X33528001Y-149437659D01*
X33586966Y-149432500D01*
X33763408Y-149417063D01*
X33991663Y-149355903D01*
X34205830Y-149256035D01*
X34399401Y-149120495D01*
X34566495Y-148953401D01*
X34696425Y-148767842D01*
X34751002Y-148724217D01*
X34820500Y-148717023D01*
X34882855Y-148748546D01*
X34899575Y-148767842D01*
X35029500Y-148953395D01*
X35029505Y-148953401D01*
X35196599Y-149120495D01*
X35293384Y-149188265D01*
X35390165Y-149256032D01*
X35390167Y-149256033D01*
X35390170Y-149256035D01*
X35604337Y-149355903D01*
X35832592Y-149417063D01*
X36009034Y-149432500D01*
X36067999Y-149437659D01*
X36068000Y-149437659D01*
X36068001Y-149437659D01*
X36126966Y-149432500D01*
X36303408Y-149417063D01*
X36531663Y-149355903D01*
X36745830Y-149256035D01*
X36939401Y-149120495D01*
X37106495Y-148953401D01*
X37236425Y-148767842D01*
X37291002Y-148724217D01*
X37360500Y-148717023D01*
X37422855Y-148748546D01*
X37439575Y-148767842D01*
X37569500Y-148953395D01*
X37569505Y-148953401D01*
X37736599Y-149120495D01*
X37833384Y-149188265D01*
X37930165Y-149256032D01*
X37930167Y-149256033D01*
X37930170Y-149256035D01*
X38144337Y-149355903D01*
X38372592Y-149417063D01*
X38549034Y-149432500D01*
X38607999Y-149437659D01*
X38608000Y-149437659D01*
X38608001Y-149437659D01*
X38666966Y-149432500D01*
X38843408Y-149417063D01*
X39071663Y-149355903D01*
X39285830Y-149256035D01*
X39479401Y-149120495D01*
X39646495Y-148953401D01*
X39776425Y-148767842D01*
X39831002Y-148724217D01*
X39900500Y-148717023D01*
X39962855Y-148748546D01*
X39979575Y-148767842D01*
X40109500Y-148953395D01*
X40109505Y-148953401D01*
X40276599Y-149120495D01*
X40373384Y-149188265D01*
X40470165Y-149256032D01*
X40470167Y-149256033D01*
X40470170Y-149256035D01*
X40684337Y-149355903D01*
X40912592Y-149417063D01*
X41089034Y-149432500D01*
X41147999Y-149437659D01*
X41148000Y-149437659D01*
X41148001Y-149437659D01*
X41206966Y-149432500D01*
X41383408Y-149417063D01*
X41611663Y-149355903D01*
X41825830Y-149256035D01*
X42019401Y-149120495D01*
X42186495Y-148953401D01*
X42322035Y-148759830D01*
X42421903Y-148545663D01*
X42483063Y-148317408D01*
X42503659Y-148082000D01*
X42483063Y-147846592D01*
X42421903Y-147618337D01*
X42322035Y-147404171D01*
X42316425Y-147396158D01*
X42186494Y-147210597D01*
X42019402Y-147043506D01*
X42019395Y-147043501D01*
X41825834Y-146907967D01*
X41825830Y-146907965D01*
X41825828Y-146907964D01*
X41611663Y-146808097D01*
X41611659Y-146808096D01*
X41611655Y-146808094D01*
X41383413Y-146746938D01*
X41383403Y-146746936D01*
X41148001Y-146726341D01*
X41147999Y-146726341D01*
X40912596Y-146746936D01*
X40912586Y-146746938D01*
X40684344Y-146808094D01*
X40684335Y-146808098D01*
X40470171Y-146907964D01*
X40470169Y-146907965D01*
X40276597Y-147043505D01*
X40109505Y-147210597D01*
X39979575Y-147396158D01*
X39924998Y-147439783D01*
X39855500Y-147446977D01*
X39793145Y-147415454D01*
X39776425Y-147396158D01*
X39646494Y-147210597D01*
X39479402Y-147043506D01*
X39479395Y-147043501D01*
X39285834Y-146907967D01*
X39285830Y-146907965D01*
X39285828Y-146907964D01*
X39071663Y-146808097D01*
X39071659Y-146808096D01*
X39071655Y-146808094D01*
X38843413Y-146746938D01*
X38843403Y-146746936D01*
X38608001Y-146726341D01*
X38607999Y-146726341D01*
X38372596Y-146746936D01*
X38372586Y-146746938D01*
X38144344Y-146808094D01*
X38144335Y-146808098D01*
X37930171Y-146907964D01*
X37930169Y-146907965D01*
X37736597Y-147043505D01*
X37569505Y-147210597D01*
X37439575Y-147396158D01*
X37384998Y-147439783D01*
X37315500Y-147446977D01*
X37253145Y-147415454D01*
X37236425Y-147396158D01*
X37106494Y-147210597D01*
X36939402Y-147043506D01*
X36939395Y-147043501D01*
X36745834Y-146907967D01*
X36745830Y-146907965D01*
X36745828Y-146907964D01*
X36531663Y-146808097D01*
X36531659Y-146808096D01*
X36531655Y-146808094D01*
X36303413Y-146746938D01*
X36303403Y-146746936D01*
X36068001Y-146726341D01*
X36067999Y-146726341D01*
X35832596Y-146746936D01*
X35832586Y-146746938D01*
X35604344Y-146808094D01*
X35604335Y-146808098D01*
X35390171Y-146907964D01*
X35390169Y-146907965D01*
X35196597Y-147043505D01*
X35029505Y-147210597D01*
X34899575Y-147396158D01*
X34844998Y-147439783D01*
X34775500Y-147446977D01*
X34713145Y-147415454D01*
X34696425Y-147396158D01*
X34566494Y-147210597D01*
X34399402Y-147043506D01*
X34399395Y-147043501D01*
X34205834Y-146907967D01*
X34205830Y-146907965D01*
X34205828Y-146907964D01*
X33991663Y-146808097D01*
X33991659Y-146808096D01*
X33991655Y-146808094D01*
X33763413Y-146746938D01*
X33763403Y-146746936D01*
X33528001Y-146726341D01*
X33527999Y-146726341D01*
X33292596Y-146746936D01*
X33292586Y-146746938D01*
X33064344Y-146808094D01*
X33064335Y-146808098D01*
X32850171Y-146907964D01*
X32850169Y-146907965D01*
X32656597Y-147043505D01*
X32489505Y-147210597D01*
X32359575Y-147396158D01*
X32304998Y-147439783D01*
X32235500Y-147446977D01*
X32173145Y-147415454D01*
X32156425Y-147396158D01*
X32026494Y-147210597D01*
X31859402Y-147043506D01*
X31859395Y-147043501D01*
X31665834Y-146907967D01*
X31665830Y-146907965D01*
X31665828Y-146907964D01*
X31451663Y-146808097D01*
X31451659Y-146808096D01*
X31451655Y-146808094D01*
X31223413Y-146746938D01*
X31223403Y-146746936D01*
X30988001Y-146726341D01*
X30987999Y-146726341D01*
X30752596Y-146746936D01*
X30752586Y-146746938D01*
X30524344Y-146808094D01*
X30524335Y-146808098D01*
X30310171Y-146907964D01*
X30310169Y-146907965D01*
X30116597Y-147043505D01*
X29949505Y-147210597D01*
X29819575Y-147396158D01*
X29764998Y-147439783D01*
X29695500Y-147446977D01*
X29633145Y-147415454D01*
X29616425Y-147396158D01*
X29486494Y-147210597D01*
X29319402Y-147043506D01*
X29319395Y-147043501D01*
X29125834Y-146907967D01*
X29125830Y-146907965D01*
X29125828Y-146907964D01*
X28911663Y-146808097D01*
X28911659Y-146808096D01*
X28911655Y-146808094D01*
X28683413Y-146746938D01*
X28683403Y-146746936D01*
X28448001Y-146726341D01*
X28447999Y-146726341D01*
X28212596Y-146746936D01*
X28212586Y-146746938D01*
X27984344Y-146808094D01*
X27984335Y-146808098D01*
X27770171Y-146907964D01*
X27770169Y-146907965D01*
X27576597Y-147043505D01*
X27409505Y-147210597D01*
X27279575Y-147396158D01*
X27224998Y-147439783D01*
X27155500Y-147446977D01*
X27093145Y-147415454D01*
X27076425Y-147396158D01*
X26946494Y-147210597D01*
X26779402Y-147043506D01*
X26779395Y-147043501D01*
X26585834Y-146907967D01*
X26585830Y-146907965D01*
X26585828Y-146907964D01*
X26371663Y-146808097D01*
X26371659Y-146808096D01*
X26371655Y-146808094D01*
X26143413Y-146746938D01*
X26143403Y-146746936D01*
X25908001Y-146726341D01*
X25907999Y-146726341D01*
X25672596Y-146746936D01*
X25672586Y-146746938D01*
X25444344Y-146808094D01*
X25444335Y-146808098D01*
X25230171Y-146907964D01*
X25230169Y-146907965D01*
X25036597Y-147043505D01*
X24869505Y-147210597D01*
X24739575Y-147396158D01*
X24684998Y-147439783D01*
X24615500Y-147446977D01*
X24553145Y-147415454D01*
X24536425Y-147396158D01*
X24406494Y-147210597D01*
X24239402Y-147043506D01*
X24239395Y-147043501D01*
X24045834Y-146907967D01*
X24045830Y-146907965D01*
X24045828Y-146907964D01*
X23831663Y-146808097D01*
X23831659Y-146808096D01*
X23831655Y-146808094D01*
X23603413Y-146746938D01*
X23603403Y-146746936D01*
X23368001Y-146726341D01*
X23367999Y-146726341D01*
X23132596Y-146746936D01*
X23132586Y-146746938D01*
X22904344Y-146808094D01*
X22904335Y-146808098D01*
X22690171Y-146907964D01*
X22690169Y-146907965D01*
X22496600Y-147043503D01*
X22374673Y-147165430D01*
X22313350Y-147198914D01*
X22243658Y-147193930D01*
X22187725Y-147152058D01*
X22170810Y-147121081D01*
X22121797Y-146989671D01*
X22121793Y-146989664D01*
X22035547Y-146874455D01*
X22035544Y-146874452D01*
X21920335Y-146788206D01*
X21920328Y-146788202D01*
X21785482Y-146737908D01*
X21785483Y-146737908D01*
X21725883Y-146731501D01*
X21725881Y-146731500D01*
X21725873Y-146731500D01*
X21725864Y-146731500D01*
X19930129Y-146731500D01*
X19930123Y-146731501D01*
X19870516Y-146737908D01*
X19735671Y-146788202D01*
X19735664Y-146788206D01*
X19620455Y-146874452D01*
X19620452Y-146874455D01*
X19534206Y-146989664D01*
X19534202Y-146989671D01*
X19483908Y-147124517D01*
X19477501Y-147184116D01*
X19477500Y-147184135D01*
X19477500Y-148979870D01*
X18280500Y-148979870D01*
X18280500Y-137784500D01*
X18300185Y-137717461D01*
X18352989Y-137671706D01*
X18404500Y-137660500D01*
X43190500Y-137660500D01*
X43257539Y-137680185D01*
G37*
G04 #@! TD.AperFunction*
M02*
