%TF.GenerationSoftware,KiCad,Pcbnew,8.0.0-8.0.0-1~ubuntu20.04.1*%
%TF.CreationDate,2025-03-11T22:14:09+01:00*%
%TF.ProjectId,motherboard,6d6f7468-6572-4626-9f61-72642e6b6963,1*%
%TF.SameCoordinates,Original*%
%TF.FileFunction,Soldermask,Top*%
%TF.FilePolarity,Negative*%
%FSLAX46Y46*%
G04 Gerber Fmt 4.6, Leading zero omitted, Abs format (unit mm)*
G04 Created by KiCad (PCBNEW 8.0.0-8.0.0-1~ubuntu20.04.1) date 2025-03-11 22:14:09*
%MOMM*%
%LPD*%
G01*
G04 APERTURE LIST*
G04 Aperture macros list*
%AMRoundRect*
0 Rectangle with rounded corners*
0 $1 Rounding radius*
0 $2 $3 $4 $5 $6 $7 $8 $9 X,Y pos of 4 corners*
0 Add a 4 corners polygon primitive as box body*
4,1,4,$2,$3,$4,$5,$6,$7,$8,$9,$2,$3,0*
0 Add four circle primitives for the rounded corners*
1,1,$1+$1,$2,$3*
1,1,$1+$1,$4,$5*
1,1,$1+$1,$6,$7*
1,1,$1+$1,$8,$9*
0 Add four rect primitives between the rounded corners*
20,1,$1+$1,$2,$3,$4,$5,0*
20,1,$1+$1,$4,$5,$6,$7,0*
20,1,$1+$1,$6,$7,$8,$9,0*
20,1,$1+$1,$8,$9,$2,$3,0*%
G04 Aperture macros list end*
%ADD10RoundRect,0.200000X-0.275000X0.200000X-0.275000X-0.200000X0.275000X-0.200000X0.275000X0.200000X0*%
%ADD11R,1.700000X1.700000*%
%ADD12O,1.700000X1.700000*%
%ADD13RoundRect,0.075000X-0.725000X-0.075000X0.725000X-0.075000X0.725000X0.075000X-0.725000X0.075000X0*%
%ADD14RoundRect,0.075000X-0.075000X-0.725000X0.075000X-0.725000X0.075000X0.725000X-0.075000X0.725000X0*%
%ADD15R,1.000000X1.800000*%
%ADD16RoundRect,0.200000X0.275000X-0.200000X0.275000X0.200000X-0.275000X0.200000X-0.275000X-0.200000X0*%
%ADD17RoundRect,0.225000X-0.225000X-0.250000X0.225000X-0.250000X0.225000X0.250000X-0.225000X0.250000X0*%
%ADD18RoundRect,0.225000X0.250000X-0.225000X0.250000X0.225000X-0.250000X0.225000X-0.250000X-0.225000X0*%
%ADD19C,3.200000*%
%ADD20RoundRect,0.250000X-0.625000X0.312500X-0.625000X-0.312500X0.625000X-0.312500X0.625000X0.312500X0*%
%ADD21RoundRect,0.200000X-0.200000X-0.275000X0.200000X-0.275000X0.200000X0.275000X-0.200000X0.275000X0*%
%ADD22RoundRect,0.175000X-0.325000X-0.175000X0.325000X-0.175000X0.325000X0.175000X-0.325000X0.175000X0*%
%ADD23RoundRect,0.225000X0.225000X0.250000X-0.225000X0.250000X-0.225000X-0.250000X0.225000X-0.250000X0*%
%ADD24RoundRect,0.225000X-0.250000X0.225000X-0.250000X-0.225000X0.250000X-0.225000X0.250000X0.225000X0*%
%ADD25RoundRect,0.112500X0.112500X0.237500X-0.112500X0.237500X-0.112500X-0.237500X0.112500X-0.237500X0*%
%ADD26R,1.270000X2.500000*%
%ADD27RoundRect,0.200000X0.200000X0.275000X-0.200000X0.275000X-0.200000X-0.275000X0.200000X-0.275000X0*%
%ADD28RoundRect,0.150000X0.512500X0.150000X-0.512500X0.150000X-0.512500X-0.150000X0.512500X-0.150000X0*%
%ADD29RoundRect,0.250000X-1.000000X-0.650000X1.000000X-0.650000X1.000000X0.650000X-1.000000X0.650000X0*%
%ADD30RoundRect,0.250000X0.600000X-0.600000X0.600000X0.600000X-0.600000X0.600000X-0.600000X-0.600000X0*%
%ADD31C,1.700000*%
%ADD32RoundRect,0.100000X-0.637500X-0.100000X0.637500X-0.100000X0.637500X0.100000X-0.637500X0.100000X0*%
%ADD33RoundRect,0.150000X-0.150000X0.587500X-0.150000X-0.587500X0.150000X-0.587500X0.150000X0.587500X0*%
%ADD34RoundRect,0.375000X-0.625000X-0.375000X0.625000X-0.375000X0.625000X0.375000X-0.625000X0.375000X0*%
%ADD35RoundRect,0.500000X-0.500000X-1.400000X0.500000X-1.400000X0.500000X1.400000X-0.500000X1.400000X0*%
%ADD36R,1.500000X1.600000*%
%ADD37RoundRect,0.250000X-0.550000X1.500000X-0.550000X-1.500000X0.550000X-1.500000X0.550000X1.500000X0*%
%ADD38RoundRect,0.075000X-0.662500X-0.075000X0.662500X-0.075000X0.662500X0.075000X-0.662500X0.075000X0*%
%ADD39RoundRect,0.075000X-0.075000X-0.662500X0.075000X-0.662500X0.075000X0.662500X-0.075000X0.662500X0*%
%ADD40RoundRect,0.102000X-0.720000X1.045000X-0.720000X-1.045000X0.720000X-1.045000X0.720000X1.045000X0*%
%ADD41C,2.000000*%
%ADD42R,1.250000X1.000000*%
%ADD43RoundRect,0.250000X0.850000X-0.375000X0.850000X0.375000X-0.850000X0.375000X-0.850000X-0.375000X0*%
%ADD44RoundRect,0.250000X-0.650000X1.000000X-0.650000X-1.000000X0.650000X-1.000000X0.650000X1.000000X0*%
%ADD45RoundRect,0.218750X-0.218750X-0.381250X0.218750X-0.381250X0.218750X0.381250X-0.218750X0.381250X0*%
%ADD46R,2.400000X2.000000*%
%ADD47C,3.250000*%
%ADD48RoundRect,0.102000X0.704000X-0.704000X0.704000X0.704000X-0.704000X0.704000X-0.704000X-0.704000X0*%
%ADD49C,1.612000*%
%ADD50C,1.728000*%
%ADD51C,2.649000*%
G04 APERTURE END LIST*
D10*
%TO.C,R28*%
X44704000Y-174231000D03*
X44704000Y-175881000D03*
%TD*%
D11*
%TO.C,J3*%
X65878000Y-137105000D03*
D12*
X65878000Y-134565000D03*
X65878000Y-132025000D03*
X65878000Y-129485000D03*
X65878000Y-126945000D03*
X65878000Y-124405000D03*
X65878000Y-121865000D03*
X65878000Y-119325000D03*
%TD*%
D13*
%TO.C,U1*%
X34489000Y-105665000D03*
X34489000Y-106165000D03*
X34489000Y-106665000D03*
X34489000Y-107165000D03*
X34489000Y-107665000D03*
X34489000Y-108165000D03*
X34489000Y-108665000D03*
X34489000Y-109165000D03*
X34489000Y-109665000D03*
X34489000Y-110165000D03*
X34489000Y-110665000D03*
X34489000Y-111165000D03*
X34489000Y-111665000D03*
X34489000Y-112165000D03*
X34489000Y-112665000D03*
X34489000Y-113165000D03*
X34489000Y-113665000D03*
X34489000Y-114165000D03*
X34489000Y-114665000D03*
X34489000Y-115165000D03*
X34489000Y-115665000D03*
X34489000Y-116165000D03*
X34489000Y-116665000D03*
X34489000Y-117165000D03*
X34489000Y-117665000D03*
D14*
X36164000Y-119340000D03*
X36664000Y-119340000D03*
X37164000Y-119340000D03*
X37664000Y-119340000D03*
X38164000Y-119340000D03*
X38664000Y-119340000D03*
X39164000Y-119340000D03*
X39664000Y-119340000D03*
X40164000Y-119340000D03*
X40664000Y-119340000D03*
X41164000Y-119340000D03*
X41664000Y-119340000D03*
X42164000Y-119340000D03*
X42664000Y-119340000D03*
X43164000Y-119340000D03*
X43664000Y-119340000D03*
X44164000Y-119340000D03*
X44664000Y-119340000D03*
X45164000Y-119340000D03*
X45664000Y-119340000D03*
X46164000Y-119340000D03*
X46664000Y-119340000D03*
X47164000Y-119340000D03*
X47664000Y-119340000D03*
X48164000Y-119340000D03*
D13*
X49839000Y-117665000D03*
X49839000Y-117165000D03*
X49839000Y-116665000D03*
X49839000Y-116165000D03*
X49839000Y-115665000D03*
X49839000Y-115165000D03*
X49839000Y-114665000D03*
X49839000Y-114165000D03*
X49839000Y-113665000D03*
X49839000Y-113165000D03*
X49839000Y-112665000D03*
X49839000Y-112165000D03*
X49839000Y-111665000D03*
X49839000Y-111165000D03*
X49839000Y-110665000D03*
X49839000Y-110165000D03*
X49839000Y-109665000D03*
X49839000Y-109165000D03*
X49839000Y-108665000D03*
X49839000Y-108165000D03*
X49839000Y-107665000D03*
X49839000Y-107165000D03*
X49839000Y-106665000D03*
X49839000Y-106165000D03*
X49839000Y-105665000D03*
D14*
X48164000Y-103990000D03*
X47664000Y-103990000D03*
X47164000Y-103990000D03*
X46664000Y-103990000D03*
X46164000Y-103990000D03*
X45664000Y-103990000D03*
X45164000Y-103990000D03*
X44664000Y-103990000D03*
X44164000Y-103990000D03*
X43664000Y-103990000D03*
X43164000Y-103990000D03*
X42664000Y-103990000D03*
X42164000Y-103990000D03*
X41664000Y-103990000D03*
X41164000Y-103990000D03*
X40664000Y-103990000D03*
X40164000Y-103990000D03*
X39664000Y-103990000D03*
X39164000Y-103990000D03*
X38664000Y-103990000D03*
X38164000Y-103990000D03*
X37664000Y-103990000D03*
X37164000Y-103990000D03*
X36664000Y-103990000D03*
X36164000Y-103990000D03*
%TD*%
D10*
%TO.C,R10*%
X45212000Y-122460000D03*
X45212000Y-124110000D03*
%TD*%
D15*
%TO.C,Y2*%
X25654000Y-106934000D03*
X28154000Y-106934000D03*
%TD*%
D16*
%TO.C,R46*%
X24130000Y-168688000D03*
X24130000Y-167038000D03*
%TD*%
D10*
%TO.C,R38*%
X25654000Y-150337000D03*
X25654000Y-151987000D03*
%TD*%
%TO.C,R5*%
X22606000Y-170466000D03*
X22606000Y-172116000D03*
%TD*%
D17*
%TO.C,C1*%
X27419000Y-173260000D03*
X28969000Y-173260000D03*
%TD*%
D11*
%TO.C,J4*%
X65878000Y-114265000D03*
D12*
X65878000Y-111725000D03*
X65878000Y-109185000D03*
X65878000Y-106645000D03*
X65878000Y-104105000D03*
X65878000Y-101565000D03*
%TD*%
D18*
%TO.C,C44*%
X20320000Y-151950000D03*
X20320000Y-150400000D03*
%TD*%
D10*
%TO.C,R30*%
X59645000Y-167644000D03*
X59645000Y-169294000D03*
%TD*%
D19*
%TO.C,H4*%
X68200000Y-86600000D03*
%TD*%
D20*
%TO.C,R27*%
X52324000Y-171765500D03*
X52324000Y-174690500D03*
%TD*%
D21*
%TO.C,R8*%
X21131000Y-97997000D03*
X22781000Y-97997000D03*
%TD*%
%TO.C,R9*%
X29338000Y-112300000D03*
X30988000Y-112300000D03*
%TD*%
D10*
%TO.C,R1*%
X19558000Y-170466000D03*
X19558000Y-172116000D03*
%TD*%
%TO.C,R6*%
X24130000Y-170466000D03*
X24130000Y-172116000D03*
%TD*%
D22*
%TO.C,Q1*%
X48962000Y-167640000D03*
X48962000Y-168590000D03*
X48962000Y-169540000D03*
X51562000Y-169540000D03*
X51562000Y-168590000D03*
X51562000Y-167640000D03*
%TD*%
D23*
%TO.C,C33*%
X61912000Y-143507000D03*
X60362000Y-143507000D03*
%TD*%
D11*
%TO.C,J2*%
X17653000Y-95155000D03*
D12*
X20193000Y-95155000D03*
X22733000Y-95155000D03*
%TD*%
D24*
%TO.C,C26*%
X55626000Y-171704000D03*
X55626000Y-173254000D03*
%TD*%
D25*
%TO.C,D4*%
X62439000Y-167707000D03*
X61139000Y-167707000D03*
X61789000Y-169707000D03*
%TD*%
D26*
%TO.C,T1*%
X59523000Y-164100000D03*
X57023000Y-164100000D03*
X54523000Y-164100000D03*
X52023000Y-164100000D03*
X52023000Y-150400000D03*
X54523000Y-150400000D03*
X57023000Y-150400000D03*
X59523000Y-150400000D03*
%TD*%
D24*
%TO.C,C36*%
X45466000Y-139049000D03*
X45466000Y-140599000D03*
%TD*%
D10*
%TO.C,R4*%
X21082000Y-170466000D03*
X21082000Y-172116000D03*
%TD*%
D27*
%TO.C,R25*%
X56007000Y-179197000D03*
X54357000Y-179197000D03*
%TD*%
D17*
%TO.C,C42*%
X30467000Y-158528000D03*
X32017000Y-158528000D03*
%TD*%
D18*
%TO.C,C27*%
X57912000Y-169177000D03*
X57912000Y-167627000D03*
%TD*%
D24*
%TO.C,C40*%
X27305000Y-167138000D03*
X27305000Y-168688000D03*
%TD*%
D27*
%TO.C,R20*%
X65786000Y-185674000D03*
X64136000Y-185674000D03*
%TD*%
D10*
%TO.C,R45*%
X22098000Y-150337000D03*
X22098000Y-151987000D03*
%TD*%
D21*
%TO.C,R18*%
X64262000Y-184150000D03*
X65912000Y-184150000D03*
%TD*%
D18*
%TO.C,C35*%
X43434000Y-143851000D03*
X43434000Y-142301000D03*
%TD*%
D24*
%TO.C,C3*%
X18034000Y-170466000D03*
X18034000Y-172016000D03*
%TD*%
%TO.C,C17*%
X64262000Y-171196000D03*
X64262000Y-172746000D03*
%TD*%
D21*
%TO.C,R43*%
X17146000Y-154718000D03*
X18796000Y-154718000D03*
%TD*%
D24*
%TO.C,C12*%
X37084000Y-122460000D03*
X37084000Y-124010000D03*
%TD*%
D17*
%TO.C,C46*%
X45707000Y-134366000D03*
X47257000Y-134366000D03*
%TD*%
D28*
%TO.C,U4*%
X41396500Y-143886000D03*
X41396500Y-141986000D03*
X39121500Y-142936000D03*
%TD*%
D29*
%TO.C,D5*%
X60992000Y-146682000D03*
X64992000Y-146682000D03*
%TD*%
D30*
%TO.C,J7*%
X30988000Y-89440000D03*
D31*
X30988000Y-86900000D03*
X33528000Y-89440000D03*
X33528000Y-86900000D03*
X36068000Y-89440000D03*
X36068000Y-86900000D03*
X38608000Y-89440000D03*
X38608000Y-86900000D03*
X41148000Y-89440000D03*
X41148000Y-86900000D03*
X43688000Y-89440000D03*
X43688000Y-86900000D03*
X46228000Y-89440000D03*
X46228000Y-86900000D03*
X48768000Y-89440000D03*
X48768000Y-86900000D03*
X51308000Y-89440000D03*
X51308000Y-86900000D03*
X53848000Y-89440000D03*
X53848000Y-86900000D03*
%TD*%
D23*
%TO.C,C16*%
X31001000Y-110236000D03*
X29451000Y-110236000D03*
%TD*%
%TO.C,C15*%
X31014000Y-102140000D03*
X29464000Y-102140000D03*
%TD*%
D19*
%TO.C,H2*%
X16100000Y-190600000D03*
%TD*%
D10*
%TO.C,R14*%
X41148000Y-94203000D03*
X41148000Y-95853000D03*
%TD*%
D16*
%TO.C,R12*%
X36322000Y-95853000D03*
X36322000Y-94203000D03*
%TD*%
D10*
%TO.C,R35*%
X40471500Y-146302000D03*
X40471500Y-147952000D03*
%TD*%
D24*
%TO.C,C4*%
X25781000Y-170453000D03*
X25781000Y-172003000D03*
%TD*%
D19*
%TO.C,H1*%
X16100000Y-86600000D03*
%TD*%
D23*
%TO.C,C7*%
X56085000Y-97695000D03*
X54535000Y-97695000D03*
%TD*%
D16*
%TO.C,R26*%
X48895000Y-172656000D03*
X48895000Y-171006000D03*
%TD*%
D32*
%TO.C,U2*%
X55811500Y-181946000D03*
X55811500Y-182596000D03*
X55811500Y-183246000D03*
X55811500Y-183896000D03*
X55811500Y-184546000D03*
X55811500Y-185196000D03*
X55811500Y-185846000D03*
X61536500Y-185846000D03*
X61536500Y-185196000D03*
X61536500Y-184546000D03*
X61536500Y-183896000D03*
X61536500Y-183246000D03*
X61536500Y-182596000D03*
X61536500Y-181946000D03*
%TD*%
D33*
%TO.C,D6*%
X44596500Y-146212000D03*
X42696500Y-146212000D03*
X43646500Y-148087000D03*
%TD*%
D23*
%TO.C,C11*%
X31001000Y-114586000D03*
X29451000Y-114586000D03*
%TD*%
D34*
%TO.C,U6*%
X51892000Y-133590000D03*
X51892000Y-135890000D03*
D35*
X58192000Y-135890000D03*
D34*
X51892000Y-138190000D03*
%TD*%
D36*
%TO.C,X1*%
X36363000Y-159290000D03*
X36363000Y-156750000D03*
X34163000Y-156750000D03*
X34163000Y-159290000D03*
%TD*%
D37*
%TO.C,C25*%
X49022000Y-183388000D03*
X49022000Y-188788000D03*
%TD*%
D21*
%TO.C,R42*%
X15685000Y-159290000D03*
X17335000Y-159290000D03*
%TD*%
%TO.C,R21*%
X64199000Y-182372000D03*
X65849000Y-182372000D03*
%TD*%
D18*
%TO.C,C2*%
X20066000Y-177845000D03*
X20066000Y-176295000D03*
%TD*%
D24*
%TO.C,C8*%
X46990000Y-122460000D03*
X46990000Y-124010000D03*
%TD*%
%TO.C,C31*%
X46836000Y-163958000D03*
X46836000Y-165508000D03*
%TD*%
D18*
%TO.C,C34*%
X57658000Y-145047000D03*
X57658000Y-143497000D03*
%TD*%
D27*
%TO.C,R31*%
X65277000Y-143507000D03*
X63627000Y-143507000D03*
%TD*%
D16*
%TO.C,R11*%
X33528000Y-95853000D03*
X33528000Y-94203000D03*
%TD*%
D21*
%TO.C,R7*%
X54422000Y-95790000D03*
X56072000Y-95790000D03*
%TD*%
D16*
%TO.C,R32*%
X47498000Y-143825000D03*
X47498000Y-142175000D03*
%TD*%
D24*
%TO.C,C5*%
X23114000Y-110490000D03*
X23114000Y-112040000D03*
%TD*%
D16*
%TO.C,R15*%
X46228000Y-95853000D03*
X46228000Y-94203000D03*
%TD*%
D17*
%TO.C,C32*%
X25628000Y-110236000D03*
X27178000Y-110236000D03*
%TD*%
D27*
%TO.C,R40*%
X32004000Y-160306000D03*
X30354000Y-160306000D03*
%TD*%
D17*
%TO.C,C30*%
X31750000Y-151892000D03*
X33300000Y-151892000D03*
%TD*%
%TO.C,C39*%
X34518000Y-161830000D03*
X36068000Y-161830000D03*
%TD*%
D21*
%TO.C,R48*%
X30276800Y-163608000D03*
X31926800Y-163608000D03*
%TD*%
D38*
%TO.C,U5*%
X19205500Y-156540000D03*
X19205500Y-157040000D03*
X19205500Y-157540000D03*
X19205500Y-158040000D03*
X19205500Y-158540000D03*
X19205500Y-159040000D03*
X19205500Y-159540000D03*
X19205500Y-160040000D03*
X19205500Y-160540000D03*
X19205500Y-161040000D03*
X19205500Y-161540000D03*
X19205500Y-162040000D03*
D39*
X20618000Y-163452500D03*
X21118000Y-163452500D03*
X21618000Y-163452500D03*
X22118000Y-163452500D03*
X22618000Y-163452500D03*
X23118000Y-163452500D03*
X23618000Y-163452500D03*
X24118000Y-163452500D03*
X24618000Y-163452500D03*
X25118000Y-163452500D03*
X25618000Y-163452500D03*
X26118000Y-163452500D03*
D38*
X27530500Y-162040000D03*
X27530500Y-161540000D03*
X27530500Y-161040000D03*
X27530500Y-160540000D03*
X27530500Y-160040000D03*
X27530500Y-159540000D03*
X27530500Y-159040000D03*
X27530500Y-158540000D03*
X27530500Y-158040000D03*
X27530500Y-157540000D03*
X27530500Y-157040000D03*
X27530500Y-156540000D03*
D39*
X26118000Y-155127500D03*
X25618000Y-155127500D03*
X25118000Y-155127500D03*
X24618000Y-155127500D03*
X24118000Y-155127500D03*
X23618000Y-155127500D03*
X23118000Y-155127500D03*
X22618000Y-155127500D03*
X22118000Y-155127500D03*
X21618000Y-155127500D03*
X21118000Y-155127500D03*
X20618000Y-155127500D03*
%TD*%
D18*
%TO.C,C47*%
X55880000Y-145047000D03*
X55880000Y-143497000D03*
%TD*%
D19*
%TO.C,H3*%
X68200000Y-190600000D03*
%TD*%
D18*
%TO.C,C28*%
X46482000Y-175781000D03*
X46482000Y-174231000D03*
%TD*%
D23*
%TO.C,C24*%
X56020000Y-177419000D03*
X54470000Y-177419000D03*
%TD*%
D18*
%TO.C,C6*%
X23368000Y-119139000D03*
X23368000Y-117589000D03*
%TD*%
D10*
%TO.C,R2*%
X17780000Y-176182000D03*
X17780000Y-177832000D03*
%TD*%
D16*
%TO.C,R13*%
X39116000Y-95916000D03*
X39116000Y-94266000D03*
%TD*%
D40*
%TO.C,U3*%
X47498000Y-151575000D03*
X44958000Y-151575000D03*
X44958000Y-160655000D03*
X47498000Y-160655000D03*
%TD*%
D24*
%TO.C,C18*%
X32785000Y-122478800D03*
X32785000Y-124028800D03*
%TD*%
D16*
%TO.C,R33*%
X47498000Y-140726000D03*
X47498000Y-139076000D03*
%TD*%
D10*
%TO.C,R39*%
X27432000Y-150337000D03*
X27432000Y-151987000D03*
%TD*%
D16*
%TO.C,R23*%
X58039000Y-179197000D03*
X58039000Y-177547000D03*
%TD*%
D18*
%TO.C,C37*%
X52578000Y-145057000D03*
X52578000Y-143507000D03*
%TD*%
D41*
%TO.C,CY1*%
X65913000Y-151115000D03*
X65913000Y-161115000D03*
%TD*%
D10*
%TO.C,R44*%
X23876000Y-150337000D03*
X23876000Y-151987000D03*
%TD*%
D11*
%TO.C,J5*%
X17678000Y-123465000D03*
D12*
X17678000Y-126005000D03*
X17678000Y-128545000D03*
X17678000Y-131085000D03*
X17678000Y-133625000D03*
X17678000Y-136165000D03*
X17678000Y-138705000D03*
X17678000Y-141245000D03*
X17678000Y-143785000D03*
X17678000Y-146325000D03*
%TD*%
D27*
%TO.C,R34*%
X41719000Y-139761000D03*
X40069000Y-139761000D03*
%TD*%
D24*
%TO.C,C13*%
X48768000Y-122460000D03*
X48768000Y-124010000D03*
%TD*%
D42*
%TO.C,SW1*%
X58355000Y-95790000D03*
X66105000Y-95790000D03*
%TD*%
D18*
%TO.C,C21*%
X26924000Y-103912000D03*
X26924000Y-102362000D03*
%TD*%
D43*
%TO.C,L2*%
X54864000Y-169790000D03*
X54864000Y-167640000D03*
%TD*%
D23*
%TO.C,C10*%
X30988000Y-103886000D03*
X29438000Y-103886000D03*
%TD*%
D18*
%TO.C,C29*%
X64217000Y-169485000D03*
X64217000Y-167935000D03*
%TD*%
D24*
%TO.C,C19*%
X31053500Y-122459800D03*
X31053500Y-124009800D03*
%TD*%
%TO.C,C41*%
X22555200Y-167138000D03*
X22555200Y-168688000D03*
%TD*%
%TO.C,C23*%
X45974000Y-178549000D03*
X45974000Y-180099000D03*
%TD*%
%TO.C,C49*%
X60986000Y-137795000D03*
X60986000Y-139345000D03*
%TD*%
D18*
%TO.C,C45*%
X29083000Y-151937000D03*
X29083000Y-150387000D03*
%TD*%
D17*
%TO.C,C9*%
X53073000Y-107220000D03*
X54623000Y-107220000D03*
%TD*%
D44*
%TO.C,D2*%
X43180000Y-179324000D03*
X43180000Y-183324000D03*
%TD*%
D45*
%TO.C,L1*%
X29055500Y-120713800D03*
X31180500Y-120713800D03*
%TD*%
D21*
%TO.C,R41*%
X15622000Y-157639000D03*
X17272000Y-157639000D03*
%TD*%
D24*
%TO.C,C43*%
X28956000Y-167138000D03*
X28956000Y-168688000D03*
%TD*%
D27*
%TO.C,R37*%
X27432000Y-148368000D03*
X25782000Y-148368000D03*
%TD*%
D18*
%TO.C,C22*%
X59785000Y-179210000D03*
X59785000Y-177660000D03*
%TD*%
D24*
%TO.C,C20*%
X29021500Y-122465800D03*
X29021500Y-124015800D03*
%TD*%
D17*
%TO.C,C48*%
X52565000Y-140970000D03*
X54115000Y-140970000D03*
%TD*%
D46*
%TO.C,Y1*%
X26416000Y-116984000D03*
X26416000Y-113284000D03*
%TD*%
D18*
%TO.C,C38*%
X38566500Y-147889000D03*
X38566500Y-146339000D03*
%TD*%
D16*
%TO.C,R36*%
X45466000Y-143824000D03*
X45466000Y-142174000D03*
%TD*%
D47*
%TO.C,J8*%
X24130000Y-185960000D03*
X35560000Y-185960000D03*
D48*
X24130000Y-177070000D03*
D49*
X25400000Y-179610000D03*
X26670000Y-177070000D03*
X27940000Y-179610000D03*
X29210000Y-177070000D03*
X30480000Y-179610000D03*
X31750000Y-177070000D03*
X33020000Y-179610000D03*
X34290000Y-177070000D03*
X35560000Y-179610000D03*
D50*
X23220000Y-190040000D03*
X25760000Y-190040000D03*
X33930000Y-190040000D03*
X36470000Y-190040000D03*
D51*
X22100000Y-182910000D03*
X37590000Y-182910000D03*
%TD*%
D10*
%TO.C,R29*%
X45058000Y-163958000D03*
X45058000Y-165608000D03*
%TD*%
D17*
%TO.C,C14*%
X53073000Y-105315000D03*
X54623000Y-105315000D03*
%TD*%
D27*
%TO.C,R22*%
X59054000Y-187706000D03*
X57404000Y-187706000D03*
%TD*%
D44*
%TO.C,D3*%
X45566000Y-167894000D03*
X45566000Y-171894000D03*
%TD*%
D16*
%TO.C,R47*%
X25755600Y-168688000D03*
X25755600Y-167038000D03*
%TD*%
D11*
%TO.C,J6*%
X17678000Y-101565000D03*
D12*
X17678000Y-104105000D03*
X17678000Y-106645000D03*
X17678000Y-109185000D03*
X17678000Y-111725000D03*
X17678000Y-114265000D03*
X17678000Y-116805000D03*
X17678000Y-119345000D03*
%TD*%
M02*
