M48
; DRILL file {KiCad 8.0.0-8.0.0-1~ubuntu20.04.1} date 2025-03-11T22:14:13+0100
; FORMAT={-:-/ absolute / metric / decimal}
; #@! TF.CreationDate,2025-03-11T22:14:13+01:00
; #@! TF.GenerationSoftware,Kicad,Pcbnew,8.0.0-8.0.0-1~ubuntu20.04.1
; #@! TF.FileFunction,Plated,1,4,PTH
FMAT,2
METRIC
; #@! TA.AperFunction,Plated,PTH,ViaDrill
T1C0.400
; #@! TA.AperFunction,Plated,PTH,ComponentDrill
T2C0.900
; #@! TA.AperFunction,Plated,PTH,ComponentDrill
T3C1.000
; #@! TA.AperFunction,Plated,PTH,ComponentDrill
T4C1.016
; #@! TA.AperFunction,Plated,PTH,ComponentDrill
T5C1.630
%
G90
G05
T1
X15.748Y-160.56
X16.383Y-156.115
X16.383Y-165.894
X16.764Y-170.466
X17.018Y-153.575
X17.526Y-93.218
X17.653Y-166.021
X17.78Y-178.848
X18.034Y-173.006
X18.224Y-121.888
X19.05Y-176.308
X19.05Y-177.832
X19.177Y-166.021
X20.32Y-130.791
X20.32Y-153.194
X20.574Y-166.034
X21.336Y-156.75
X21.59Y-161.957
X21.844Y-174.022
X22.098Y-149.13
X23.114Y-127.032
X23.749Y-161.957
X23.876Y-109.474
X24.003Y-149.13
X24.13Y-103.632
X24.257Y-125.73
X24.384Y-122.936
X25.654Y-120.65
X25.781Y-157.131
X25.781Y-159.036
X25.781Y-169.45
X25.908Y-147.225
X25.908Y-161.83
X25.908Y-173.006
X26.416Y-165.64
X27.432Y-149.384
X27.432Y-172.244
X28.194Y-102.108
X28.194Y-110.236
X28.956Y-149.384
X28.969Y-172.257
X29.083Y-160.941
X29.413Y-158.528
X29.464Y-116.205
X31.115Y-161.576
X31.496Y-157.004
X31.623Y-155.829
X32.004Y-114.713
X32.258Y-95.79
X32.258Y-110.268
X32.385Y-105.41
X32.766Y-102.14
X33.02Y-163.557
X33.655Y-130.842
X33.782Y-124.968
X34.036Y-126.524
X34.29Y-151.892
X34.544Y-162.846
X35.306Y-130.842
X35.56Y-102.14
X36.068Y-162.846
X36.322Y-96.806
X36.322Y-115.094
X36.322Y-116.618
X36.576Y-110.014
X37.084Y-113.57
X37.084Y-125.0
X37.211Y-121.444
X37.338Y-129.318
X37.592Y-117.634
X37.846Y-106.153
X37.846Y-143.063
X37.846Y-145.349
X38.608Y-129.318
X39.116Y-93.25
X39.116Y-96.806
X39.116Y-139.761
X39.624Y-107.982
X39.897Y-117.337
X40.386Y-129.826
X40.64Y-107.22
X41.148Y-96.806
X41.148Y-130.715
X41.402Y-109.76
X41.402Y-117.38
X41.656Y-105.918
X41.91Y-175.895
X41.91Y-177.165
X41.91Y-185.42
X41.91Y-186.69
X42.291Y-131.417
X42.418Y-101.632
X42.462Y-144.689
X42.926Y-123.349
X43.18Y-116.11
X43.18Y-175.895
X43.18Y-177.165
X43.18Y-185.42
X43.18Y-186.69
X43.688Y-101.632
X44.704Y-105.95
X44.958Y-101.608
X44.958Y-162.306
X45.212Y-121.19
X45.974Y-111.411
X46.228Y-96.806
X46.228Y-117.38
X46.609Y-109.379
X46.962Y-101.632
X46.99Y-178.562
X47.498Y-141.475
X47.498Y-162.306
X47.498Y-174.244
X47.752Y-112.935
X48.006Y-191.008
X48.768Y-120.428
X48.768Y-125.254
X49.022Y-180.594
X50.038Y-98.33
X50.038Y-138.938
X50.038Y-191.008
X50.559Y-137.919
X50.572Y-132.077
X50.673Y-149.13
X50.673Y-150.4
X50.8Y-174.625
X51.054Y-118.904
X51.435Y-175.895
X51.816Y-110.776
X51.816Y-117.38
X51.842Y-132.077
X51.943Y-105.315
X51.943Y-148.495
X52.07Y-114.586
X53.086Y-175.895
X53.112Y-132.077
X53.213Y-148.495
X53.34Y-110.776
X53.34Y-112.3
X53.405Y-95.79
X53.594Y-114.078
X54.356Y-178.308
X54.483Y-148.495
X54.61Y-186.69
X54.61Y-187.96
X55.626Y-140.716
X55.626Y-174.244
X55.88Y-105.442
X55.88Y-186.69
X55.88Y-187.96
X56.388Y-162.465
X56.388Y-165.735
X56.515Y-140.716
X56.541Y-134.617
X56.541Y-135.887
X56.541Y-137.157
X56.642Y-170.434
X56.642Y-171.45
X57.074Y-103.715
X57.531Y-140.716
X57.658Y-162.465
X57.658Y-170.434
X57.658Y-171.45
X57.658Y-185.166
X57.785Y-165.735
X58.801Y-184.277
X59.716Y-134.617
X59.716Y-135.887
X59.716Y-137.157
X59.817Y-176.657
X59.832Y-183.246
X60.198Y-100.87
X60.198Y-111.03
X60.96Y-140.335
X60.96Y-186.69
X60.96Y-187.96
X62.23Y-186.69
X62.23Y-187.96
X64.135Y-167.005
X64.262Y-173.99
X66.105Y-93.885
X66.802Y-183.134
X66.802Y-185.674
T2
X24.13Y-177.07
X25.4Y-179.61
X26.67Y-177.07
X27.94Y-179.61
X29.21Y-177.07
X30.48Y-179.61
X31.75Y-177.07
X33.02Y-179.61
X34.29Y-177.07
X35.56Y-179.61
T3
X17.653Y-95.155
X17.678Y-101.565
X17.678Y-104.105
X17.678Y-106.645
X17.678Y-109.185
X17.678Y-111.725
X17.678Y-114.265
X17.678Y-116.805
X17.678Y-119.345
X17.678Y-123.465
X17.678Y-126.005
X17.678Y-128.545
X17.678Y-131.085
X17.678Y-133.625
X17.678Y-136.165
X17.678Y-138.705
X17.678Y-141.245
X17.678Y-143.785
X17.678Y-146.325
X20.193Y-95.155
X22.733Y-95.155
X30.988Y-86.9
X30.988Y-89.44
X33.528Y-86.9
X33.528Y-89.44
X36.068Y-86.9
X36.068Y-89.44
X38.608Y-86.9
X38.608Y-89.44
X41.148Y-86.9
X41.148Y-89.44
X43.688Y-86.9
X43.688Y-89.44
X46.228Y-86.9
X46.228Y-89.44
X48.768Y-86.9
X48.768Y-89.44
X51.308Y-86.9
X51.308Y-89.44
X53.848Y-86.9
X53.848Y-89.44
X65.878Y-101.565
X65.878Y-104.105
X65.878Y-106.645
X65.878Y-109.185
X65.878Y-111.725
X65.878Y-114.265
X65.878Y-119.325
X65.878Y-121.865
X65.878Y-124.405
X65.878Y-126.945
X65.878Y-129.485
X65.878Y-132.025
X65.878Y-134.565
X65.878Y-137.105
X65.913Y-151.115
X65.913Y-161.115
T4
X23.22Y-190.04
X25.76Y-190.04
X33.93Y-190.04
X36.47Y-190.04
T5
X22.1Y-182.91
X37.59Y-182.91
M30
