%TF.GenerationSoftware,KiCad,Pcbnew,8.0.0-8.0.0-1~ubuntu20.04.1*%
%TF.CreationDate,2025-03-11T22:14:09+01:00*%
%TF.ProjectId,motherboard,6d6f7468-6572-4626-9f61-72642e6b6963,1*%
%TF.SameCoordinates,Original*%
%TF.FileFunction,Copper,L2,Inr*%
%TF.FilePolarity,Positive*%
%FSLAX46Y46*%
G04 Gerber Fmt 4.6, Leading zero omitted, Abs format (unit mm)*
G04 Created by KiCad (PCBNEW 8.0.0-8.0.0-1~ubuntu20.04.1) date 2025-03-11 22:14:09*
%MOMM*%
%LPD*%
G01*
G04 APERTURE LIST*
G04 Aperture macros list*
%AMRoundRect*
0 Rectangle with rounded corners*
0 $1 Rounding radius*
0 $2 $3 $4 $5 $6 $7 $8 $9 X,Y pos of 4 corners*
0 Add a 4 corners polygon primitive as box body*
4,1,4,$2,$3,$4,$5,$6,$7,$8,$9,$2,$3,0*
0 Add four circle primitives for the rounded corners*
1,1,$1+$1,$2,$3*
1,1,$1+$1,$4,$5*
1,1,$1+$1,$6,$7*
1,1,$1+$1,$8,$9*
0 Add four rect primitives between the rounded corners*
20,1,$1+$1,$2,$3,$4,$5,0*
20,1,$1+$1,$4,$5,$6,$7,0*
20,1,$1+$1,$6,$7,$8,$9,0*
20,1,$1+$1,$8,$9,$2,$3,0*%
G04 Aperture macros list end*
%TA.AperFunction,ComponentPad*%
%ADD10R,1.700000X1.700000*%
%TD*%
%TA.AperFunction,ComponentPad*%
%ADD11O,1.700000X1.700000*%
%TD*%
%TA.AperFunction,ComponentPad*%
%ADD12RoundRect,0.250000X0.600000X-0.600000X0.600000X0.600000X-0.600000X0.600000X-0.600000X-0.600000X0*%
%TD*%
%TA.AperFunction,ComponentPad*%
%ADD13C,1.700000*%
%TD*%
%TA.AperFunction,ComponentPad*%
%ADD14C,2.000000*%
%TD*%
%TA.AperFunction,ComponentPad*%
%ADD15R,1.408000X1.408000*%
%TD*%
%TA.AperFunction,ComponentPad*%
%ADD16C,1.408000*%
%TD*%
%TA.AperFunction,ComponentPad*%
%ADD17C,1.524000*%
%TD*%
%TA.AperFunction,ComponentPad*%
%ADD18C,2.445000*%
%TD*%
%TA.AperFunction,ViaPad*%
%ADD19C,0.800000*%
%TD*%
G04 APERTURE END LIST*
D10*
%TO.N,unconnected-(J3-Pin_1-Pad1)*%
%TO.C,J3*%
X65878000Y-137105000D03*
D11*
%TO.N,+3.3V*%
X65878000Y-134565000D03*
%TO.N,/NRST*%
X65878000Y-132025000D03*
%TO.N,+3.3V*%
X65878000Y-129485000D03*
%TO.N,+5V*%
X65878000Y-126945000D03*
%TO.N,GND*%
X65878000Y-124405000D03*
X65878000Y-121865000D03*
%TO.N,+5V*%
X65878000Y-119325000D03*
%TD*%
D10*
%TO.N,/ARD_A0*%
%TO.C,J4*%
X65878000Y-114265000D03*
D11*
%TO.N,/ARD_A1*%
X65878000Y-111725000D03*
%TO.N,/ARD_A2*%
X65878000Y-109185000D03*
%TO.N,/ARD_A3*%
X65878000Y-106645000D03*
%TO.N,/ARD_A4*%
X65878000Y-104105000D03*
%TO.N,/ARD_A5*%
X65878000Y-101565000D03*
%TD*%
D10*
%TO.N,+3.3V*%
%TO.C,J2*%
X17653000Y-95155000D03*
D11*
%TO.N,/BOOT0*%
X20193000Y-95155000D03*
%TO.N,GND*%
X22733000Y-95155000D03*
%TD*%
D12*
%TO.N,+3.3V*%
%TO.C,J7*%
X30988000Y-89440000D03*
D13*
X30988000Y-86900000D03*
%TO.N,/JTAG_NTRST*%
X33528000Y-89440000D03*
%TO.N,GND*%
X33528000Y-86900000D03*
%TO.N,/JTAG_TDI*%
X36068000Y-89440000D03*
%TO.N,GND*%
X36068000Y-86900000D03*
%TO.N,/JTAG_TMS*%
X38608000Y-89440000D03*
%TO.N,GND*%
X38608000Y-86900000D03*
%TO.N,/JTAG_TCK*%
X41148000Y-89440000D03*
%TO.N,GND*%
X41148000Y-86900000D03*
%TO.N,unconnected-(J7-Pin_11-Pad11)*%
X43688000Y-89440000D03*
%TO.N,GND*%
X43688000Y-86900000D03*
%TO.N,/JTAG_TDO*%
X46228000Y-89440000D03*
%TO.N,GND*%
X46228000Y-86900000D03*
%TO.N,/NRST*%
X48768000Y-89440000D03*
%TO.N,GND*%
X48768000Y-86900000D03*
%TO.N,unconnected-(J7-Pin_17-Pad17)*%
X51308000Y-89440000D03*
%TO.N,GND*%
X51308000Y-86900000D03*
%TO.N,unconnected-(J7-Pin_19-Pad19)*%
X53848000Y-89440000D03*
%TO.N,GND*%
X53848000Y-86900000D03*
%TD*%
D14*
%TO.N,GND*%
%TO.C,CY1*%
X65913000Y-151115000D03*
%TO.N,GND2*%
X65913000Y-161115000D03*
%TD*%
D10*
%TO.N,/ARD_D8*%
%TO.C,J5*%
X17678000Y-123465000D03*
D11*
%TO.N,/ARD_D9*%
X17678000Y-126005000D03*
%TO.N,/ARD_D10*%
X17678000Y-128545000D03*
%TO.N,/ARD_D11*%
X17678000Y-131085000D03*
%TO.N,/ARD_D12*%
X17678000Y-133625000D03*
%TO.N,/ARD_D13*%
X17678000Y-136165000D03*
%TO.N,GND*%
X17678000Y-138705000D03*
%TO.N,/VDDA*%
X17678000Y-141245000D03*
%TO.N,/ARD_A4*%
X17678000Y-143785000D03*
%TO.N,/ARD_A5*%
X17678000Y-146325000D03*
%TD*%
D15*
%TO.N,/ETH_RX+*%
%TO.C,J8*%
X24130000Y-177070000D03*
D16*
%TO.N,/ETH_RX-*%
X25400000Y-179610000D03*
%TO.N,+3.3V*%
X26670000Y-177070000D03*
X27940000Y-179610000D03*
%TO.N,/ETH_TX+*%
X29210000Y-177070000D03*
%TO.N,/ETH_TX-*%
X30480000Y-179610000D03*
%TO.N,N/C*%
X31750000Y-177070000D03*
X33020000Y-179610000D03*
%TO.N,/VDD_POE*%
X34290000Y-177070000D03*
%TO.N,/VSS_POE*%
X35560000Y-179610000D03*
D17*
%TO.N,unconnected-(J8-Y+-Pad11)*%
X23220000Y-190040000D03*
%TO.N,unconnected-(J8-Y--Pad12)*%
X25760000Y-190040000D03*
%TO.N,Net-(J8-G+)*%
X33930000Y-190040000D03*
%TO.N,/LED_LINK*%
X36470000Y-190040000D03*
D18*
%TO.N,unconnected-(J8-PadGND1)*%
X22100000Y-182910000D03*
%TO.N,unconnected-(J8-PadGND2)*%
X37590000Y-182910000D03*
%TD*%
D10*
%TO.N,/ARD_D0*%
%TO.C,J6*%
X17678000Y-101565000D03*
D11*
%TO.N,/ARD_D1*%
X17678000Y-104105000D03*
%TO.N,/ARD_D2*%
X17678000Y-106645000D03*
%TO.N,/ARD_D3*%
X17678000Y-109185000D03*
%TO.N,/ARD_D4*%
X17678000Y-111725000D03*
%TO.N,/ARD_D5*%
X17678000Y-114265000D03*
%TO.N,/ARD_D6*%
X17678000Y-116805000D03*
%TO.N,/ARD_D7*%
X17678000Y-119345000D03*
%TD*%
D19*
%TO.N,+3.3V*%
X32385000Y-105410000D03*
X39116000Y-96806000D03*
X56541000Y-137157000D03*
X29413200Y-158528000D03*
X59716000Y-137157000D03*
X25781000Y-169450000D03*
X25654000Y-120650000D03*
X59716000Y-135887000D03*
X48768000Y-120428000D03*
X46228000Y-96806000D03*
X37211000Y-121444000D03*
X59716000Y-134617000D03*
X36322000Y-96806000D03*
X34544000Y-162846000D03*
X19050000Y-176308000D03*
X16764000Y-170466000D03*
X28969000Y-172257000D03*
X53405000Y-95790000D03*
X32004000Y-114713000D03*
X27432000Y-149384000D03*
X32258000Y-110268000D03*
X51943000Y-105315000D03*
X56541000Y-135887000D03*
X32258000Y-95790000D03*
X20320000Y-153194000D03*
X17526000Y-93218000D03*
X32766000Y-102140000D03*
X56541000Y-134617000D03*
X26416000Y-165640000D03*
%TO.N,GND*%
X37846000Y-106153200D03*
X48768000Y-125254000D03*
X51943000Y-148495000D03*
X60198000Y-111030000D03*
X36068000Y-162846000D03*
X50572000Y-132077000D03*
X28194000Y-110236000D03*
X51842000Y-132077000D03*
X31496000Y-157004000D03*
X27432000Y-172244000D03*
X37084000Y-125000000D03*
X66105000Y-93885000D03*
X25781000Y-157131000D03*
X37846000Y-145349000D03*
X21590000Y-161957000D03*
X18034000Y-173006000D03*
X54483000Y-148495000D03*
X55880000Y-105442000D03*
X23876000Y-109474000D03*
X37846000Y-143063000D03*
X50038000Y-98330000D03*
X43180000Y-116110000D03*
X60960000Y-140335000D03*
X41148000Y-96806000D03*
X21844000Y-174022000D03*
X55626000Y-140716000D03*
X24384000Y-122936000D03*
X29464000Y-116205000D03*
X42926000Y-123349000D03*
X34290000Y-151892000D03*
X25908000Y-173006000D03*
X57531000Y-140716000D03*
X19050000Y-177832000D03*
X23749000Y-161957000D03*
X41402000Y-109760000D03*
X21336000Y-156750000D03*
X50673000Y-149130000D03*
X20320000Y-130791200D03*
X56515000Y-140716000D03*
X36576000Y-110014000D03*
X39116000Y-139761000D03*
X44704000Y-105950000D03*
X33782000Y-124968000D03*
X53112000Y-132077000D03*
X53213000Y-148495000D03*
X33020000Y-163557200D03*
X28956000Y-149384000D03*
X46609000Y-109379000D03*
X28194000Y-102108000D03*
X60198000Y-100870000D03*
X50673000Y-150400000D03*
%TO.N,/NRST*%
X29083000Y-160941000D03*
%TO.N,/VDDA*%
X24257000Y-125730000D03*
%TO.N,GND2*%
X44958000Y-162306000D03*
X58801000Y-184277000D03*
X51435000Y-175895000D03*
X50800000Y-174625000D03*
X56388000Y-165735000D03*
X64135000Y-167005000D03*
X57658000Y-185166000D03*
X55626000Y-174244000D03*
X50038000Y-191008000D03*
X48006000Y-191008000D03*
X66802000Y-183134000D03*
X47498000Y-174244000D03*
X53086000Y-175895000D03*
X64262000Y-173990000D03*
X59817000Y-176657000D03*
X57785000Y-165735000D03*
X57658000Y-162465000D03*
X56388000Y-162465000D03*
X59832000Y-183246000D03*
%TO.N,/VSS_POE*%
X41910000Y-185420000D03*
X43180000Y-185420000D03*
X54610000Y-187960000D03*
X55880000Y-187960000D03*
X54610000Y-186690000D03*
X55880000Y-186690000D03*
X41910000Y-186690000D03*
X43180000Y-186690000D03*
%TO.N,/VDD_POE*%
X60960000Y-186690000D03*
X43180000Y-177165000D03*
X66802000Y-185674000D03*
X60960000Y-187960000D03*
X41910000Y-175895000D03*
X62230000Y-186690000D03*
X49022000Y-180594000D03*
X57658000Y-171450000D03*
X56642000Y-171450000D03*
X46990000Y-178562000D03*
X62230000Y-187960000D03*
X41910000Y-177165000D03*
X43180000Y-175895000D03*
X56642000Y-170434000D03*
X57658000Y-170434000D03*
%TO.N,/Power over Ethernet/CTL*%
X54356000Y-178308000D03*
X47498000Y-162306000D03*
%TO.N,+5V*%
X47498000Y-141475000D03*
X50559000Y-137919000D03*
X42462002Y-144689200D03*
X50038000Y-138938000D03*
%TO.N,/ARD_A5*%
X40640000Y-107220000D03*
%TO.N,/ARD_A4*%
X39624000Y-107982000D03*
%TO.N,/ARD_D8*%
X42418000Y-101632000D03*
X18224500Y-121888500D03*
%TO.N,/ARD_D10*%
X35560000Y-102140000D03*
%TO.N,/ARD_D9*%
X40386000Y-129826000D03*
X51816000Y-110776000D03*
%TO.N,/ARD_D13*%
X34036000Y-126524000D03*
X45212000Y-121190000D03*
X23114000Y-127032000D03*
%TO.N,/ARD_D12*%
X45974000Y-111411000D03*
X42291000Y-131416600D03*
%TO.N,/ARD_D11*%
X47752000Y-112935000D03*
X41148000Y-130715000D03*
%TO.N,/ARD_D7*%
X43688000Y-101632000D03*
%TO.N,/ARD_D4*%
X35306000Y-130842000D03*
X53594000Y-114078000D03*
%TO.N,/ARD_D0*%
X44958000Y-101608213D03*
%TO.N,/ARD_D5*%
X37338000Y-129318000D03*
X53340000Y-112300000D03*
%TO.N,/ARD_D2*%
X41656000Y-105918000D03*
X24130000Y-103632000D03*
%TO.N,/ARD_D3*%
X33655000Y-130842000D03*
X52070000Y-114586000D03*
%TO.N,/ARD_D1*%
X46962400Y-101632000D03*
%TO.N,/ARD_D6*%
X38608000Y-129318000D03*
X53340000Y-110776000D03*
%TO.N,/JTAG_TMS*%
X39116000Y-93250000D03*
X57073800Y-103714800D03*
%TO.N,/ETH_RX-*%
X16383000Y-165894000D03*
%TO.N,Net-(J8-G+)*%
X17780000Y-178848000D03*
%TO.N,/ETH_RX+*%
X17653000Y-166021000D03*
%TO.N,/ETH_TX-*%
X19177000Y-166021000D03*
%TO.N,/ETH_TX+*%
X20574000Y-166034025D03*
%TO.N,/RMII_CRS_DV*%
X25908000Y-147225000D03*
X37084000Y-113570000D03*
%TO.N,/RMII_MDIO*%
X31115000Y-161576000D03*
X37592000Y-117634000D03*
%TO.N,/RMII_TXD0*%
X16383000Y-156115000D03*
X51054000Y-118904000D03*
%TO.N,/RMII_TXD1*%
X15748000Y-160560000D03*
X51816000Y-117380000D03*
%TO.N,/RMII_TXEN*%
X17018000Y-153575000D03*
X46228000Y-117380000D03*
%TO.N,/RMII_RXD0*%
X39897420Y-117336793D03*
X24003000Y-149130000D03*
%TO.N,/RMII_RXD1*%
X22098000Y-149130000D03*
X41402000Y-117380000D03*
%TO.N,/RMII_MDC*%
X25781000Y-159036000D03*
X36322000Y-115094000D03*
%TO.N,/RMII_REF_CLK*%
X36322000Y-116618000D03*
X31623000Y-155829100D03*
%TO.N,/LED_LINK*%
X25908000Y-161830000D03*
%TD*%
%TA.AperFunction,Conductor*%
%TO.N,GND2*%
G36*
X64507143Y-160325685D02*
G01*
X64552898Y-160378489D01*
X64562842Y-160447647D01*
X64553660Y-160479810D01*
X64489412Y-160626282D01*
X64428387Y-160867261D01*
X64428385Y-160867270D01*
X64407859Y-161114994D01*
X64407859Y-161115005D01*
X64428385Y-161362729D01*
X64428387Y-161362738D01*
X64489412Y-161603717D01*
X64589266Y-161831364D01*
X64689564Y-161984882D01*
X65430037Y-161244408D01*
X65447075Y-161307993D01*
X65512901Y-161422007D01*
X65605993Y-161515099D01*
X65720007Y-161580925D01*
X65783590Y-161597962D01*
X65042942Y-162338609D01*
X65089768Y-162375055D01*
X65089770Y-162375056D01*
X65308385Y-162493364D01*
X65308396Y-162493369D01*
X65543506Y-162574083D01*
X65788707Y-162615000D01*
X66037293Y-162615000D01*
X66282493Y-162574083D01*
X66517603Y-162493369D01*
X66517614Y-162493364D01*
X66736228Y-162375057D01*
X66736231Y-162375055D01*
X66783056Y-162338609D01*
X66042409Y-161597962D01*
X66105993Y-161580925D01*
X66220007Y-161515099D01*
X66313099Y-161422007D01*
X66378925Y-161307993D01*
X66395962Y-161244410D01*
X67136434Y-161984882D01*
X67236731Y-161831369D01*
X67336587Y-161603717D01*
X67397612Y-161362738D01*
X67397614Y-161362729D01*
X67418141Y-161115005D01*
X67418141Y-161114994D01*
X67397614Y-160867270D01*
X67397612Y-160867261D01*
X67336587Y-160626282D01*
X67272340Y-160479810D01*
X67263437Y-160410509D01*
X67293415Y-160347397D01*
X67352754Y-160310511D01*
X67385896Y-160306000D01*
X72012000Y-160306000D01*
X72079039Y-160325685D01*
X72124794Y-160378489D01*
X72136000Y-160430000D01*
X72136000Y-194472000D01*
X72116315Y-194539039D01*
X72063511Y-194584794D01*
X72012000Y-194596000D01*
X41272000Y-194596000D01*
X41204961Y-194576315D01*
X41159206Y-194523511D01*
X41148000Y-194472000D01*
X41148000Y-190721288D01*
X66349500Y-190721288D01*
X66381161Y-190961785D01*
X66443947Y-191196104D01*
X66536773Y-191420205D01*
X66536776Y-191420212D01*
X66658064Y-191630289D01*
X66658066Y-191630292D01*
X66658067Y-191630293D01*
X66805733Y-191822736D01*
X66805739Y-191822743D01*
X66977256Y-191994260D01*
X66977262Y-191994265D01*
X67169711Y-192141936D01*
X67379788Y-192263224D01*
X67603900Y-192356054D01*
X67838211Y-192418838D01*
X68018586Y-192442584D01*
X68078711Y-192450500D01*
X68078712Y-192450500D01*
X68321289Y-192450500D01*
X68369388Y-192444167D01*
X68561789Y-192418838D01*
X68796100Y-192356054D01*
X69020212Y-192263224D01*
X69230289Y-192141936D01*
X69422738Y-191994265D01*
X69594265Y-191822738D01*
X69741936Y-191630289D01*
X69863224Y-191420212D01*
X69956054Y-191196100D01*
X70018838Y-190961789D01*
X70050500Y-190721288D01*
X70050500Y-190478712D01*
X70018838Y-190238211D01*
X69956054Y-190003900D01*
X69863224Y-189779788D01*
X69741936Y-189569711D01*
X69594265Y-189377262D01*
X69594260Y-189377256D01*
X69422743Y-189205739D01*
X69422736Y-189205733D01*
X69230293Y-189058067D01*
X69230292Y-189058066D01*
X69230289Y-189058064D01*
X69020212Y-188936776D01*
X69020205Y-188936773D01*
X68796104Y-188843947D01*
X68561785Y-188781161D01*
X68321289Y-188749500D01*
X68321288Y-188749500D01*
X68078712Y-188749500D01*
X68078711Y-188749500D01*
X67838214Y-188781161D01*
X67603895Y-188843947D01*
X67379794Y-188936773D01*
X67379785Y-188936777D01*
X67169706Y-189058067D01*
X66977263Y-189205733D01*
X66977256Y-189205739D01*
X66805739Y-189377256D01*
X66805733Y-189377263D01*
X66658067Y-189569706D01*
X66536777Y-189779785D01*
X66536773Y-189779794D01*
X66443947Y-190003895D01*
X66381161Y-190238214D01*
X66349500Y-190478711D01*
X66349500Y-190721288D01*
X41148000Y-190721288D01*
X41148000Y-187960000D01*
X53696496Y-187960000D01*
X53716458Y-188149928D01*
X53716459Y-188149931D01*
X53775470Y-188331549D01*
X53775473Y-188331556D01*
X53870960Y-188496944D01*
X53998747Y-188638866D01*
X54153248Y-188751118D01*
X54327712Y-188828794D01*
X54514513Y-188868500D01*
X54705487Y-188868500D01*
X54892288Y-188828794D01*
X55066752Y-188751118D01*
X55172115Y-188674566D01*
X55237920Y-188651087D01*
X55305974Y-188666912D01*
X55317877Y-188674561D01*
X55423248Y-188751118D01*
X55597712Y-188828794D01*
X55784513Y-188868500D01*
X55975487Y-188868500D01*
X56162288Y-188828794D01*
X56336752Y-188751118D01*
X56491253Y-188638866D01*
X56619040Y-188496944D01*
X56714527Y-188331556D01*
X56773542Y-188149928D01*
X56793504Y-187960000D01*
X60046496Y-187960000D01*
X60066458Y-188149928D01*
X60066459Y-188149931D01*
X60125470Y-188331549D01*
X60125473Y-188331556D01*
X60220960Y-188496944D01*
X60348747Y-188638866D01*
X60503248Y-188751118D01*
X60677712Y-188828794D01*
X60864513Y-188868500D01*
X61055487Y-188868500D01*
X61242288Y-188828794D01*
X61416752Y-188751118D01*
X61522115Y-188674566D01*
X61587920Y-188651087D01*
X61655974Y-188666912D01*
X61667877Y-188674561D01*
X61773248Y-188751118D01*
X61947712Y-188828794D01*
X62134513Y-188868500D01*
X62325487Y-188868500D01*
X62512288Y-188828794D01*
X62686752Y-188751118D01*
X62841253Y-188638866D01*
X62969040Y-188496944D01*
X63064527Y-188331556D01*
X63123542Y-188149928D01*
X63143504Y-187960000D01*
X63123542Y-187770072D01*
X63064527Y-187588444D01*
X62969040Y-187423056D01*
X62955458Y-187407972D01*
X62925229Y-187344981D01*
X62933853Y-187275646D01*
X62955459Y-187242027D01*
X62969040Y-187226944D01*
X63064527Y-187061556D01*
X63123542Y-186879928D01*
X63143504Y-186690000D01*
X63123542Y-186500072D01*
X63064527Y-186318444D01*
X62969040Y-186153056D01*
X62841253Y-186011134D01*
X62686752Y-185898882D01*
X62512288Y-185821206D01*
X62512286Y-185821205D01*
X62325487Y-185781500D01*
X62134513Y-185781500D01*
X61947714Y-185821205D01*
X61773243Y-185898884D01*
X61667885Y-185975432D01*
X61602079Y-185998912D01*
X61534025Y-185983086D01*
X61522115Y-185975432D01*
X61416756Y-185898884D01*
X61338250Y-185863931D01*
X61242288Y-185821206D01*
X61242286Y-185821205D01*
X61055487Y-185781500D01*
X60864513Y-185781500D01*
X60677714Y-185821205D01*
X60503246Y-185898883D01*
X60348745Y-186011135D01*
X60220959Y-186153057D01*
X60125473Y-186318443D01*
X60125470Y-186318450D01*
X60077816Y-186465116D01*
X60066458Y-186500072D01*
X60046496Y-186690000D01*
X60066458Y-186879928D01*
X60066459Y-186879931D01*
X60125470Y-187061549D01*
X60125473Y-187061556D01*
X60220957Y-187226940D01*
X60220961Y-187226945D01*
X60234542Y-187242029D01*
X60264771Y-187305022D01*
X60256145Y-187374357D01*
X60234542Y-187407971D01*
X60220961Y-187423054D01*
X60220957Y-187423059D01*
X60125473Y-187588443D01*
X60125470Y-187588450D01*
X60066459Y-187770068D01*
X60066458Y-187770072D01*
X60046496Y-187960000D01*
X56793504Y-187960000D01*
X56773542Y-187770072D01*
X56714527Y-187588444D01*
X56619040Y-187423056D01*
X56605458Y-187407972D01*
X56575229Y-187344981D01*
X56583853Y-187275646D01*
X56605459Y-187242027D01*
X56619040Y-187226944D01*
X56714527Y-187061556D01*
X56773542Y-186879928D01*
X56793504Y-186690000D01*
X56773542Y-186500072D01*
X56714527Y-186318444D01*
X56619040Y-186153056D01*
X56491253Y-186011134D01*
X56336752Y-185898882D01*
X56162288Y-185821206D01*
X56162286Y-185821205D01*
X55975487Y-185781500D01*
X55784513Y-185781500D01*
X55597714Y-185821205D01*
X55423243Y-185898884D01*
X55317885Y-185975432D01*
X55252079Y-185998912D01*
X55184025Y-185983086D01*
X55172115Y-185975432D01*
X55066756Y-185898884D01*
X54988250Y-185863931D01*
X54892288Y-185821206D01*
X54892286Y-185821205D01*
X54705487Y-185781500D01*
X54514513Y-185781500D01*
X54327714Y-185821205D01*
X54153246Y-185898883D01*
X53998745Y-186011135D01*
X53870959Y-186153057D01*
X53775473Y-186318443D01*
X53775470Y-186318450D01*
X53727816Y-186465116D01*
X53716458Y-186500072D01*
X53696496Y-186690000D01*
X53716458Y-186879928D01*
X53716459Y-186879931D01*
X53775470Y-187061549D01*
X53775473Y-187061556D01*
X53870957Y-187226940D01*
X53870961Y-187226945D01*
X53884542Y-187242029D01*
X53914771Y-187305022D01*
X53906145Y-187374357D01*
X53884542Y-187407971D01*
X53870961Y-187423054D01*
X53870957Y-187423059D01*
X53775473Y-187588443D01*
X53775470Y-187588450D01*
X53716459Y-187770068D01*
X53716458Y-187770072D01*
X53696496Y-187960000D01*
X41148000Y-187960000D01*
X41148000Y-187502705D01*
X41167685Y-187435666D01*
X41220489Y-187389911D01*
X41289647Y-187379967D01*
X41344882Y-187402385D01*
X41453248Y-187481118D01*
X41627712Y-187558794D01*
X41814513Y-187598500D01*
X42005487Y-187598500D01*
X42192288Y-187558794D01*
X42366752Y-187481118D01*
X42472115Y-187404566D01*
X42537920Y-187381087D01*
X42605974Y-187396912D01*
X42617877Y-187404561D01*
X42723248Y-187481118D01*
X42897712Y-187558794D01*
X43084513Y-187598500D01*
X43275487Y-187598500D01*
X43462288Y-187558794D01*
X43636752Y-187481118D01*
X43791253Y-187368866D01*
X43919040Y-187226944D01*
X44014527Y-187061556D01*
X44073542Y-186879928D01*
X44093504Y-186690000D01*
X44073542Y-186500072D01*
X44014527Y-186318444D01*
X43919040Y-186153056D01*
X43905458Y-186137972D01*
X43875229Y-186074981D01*
X43883853Y-186005646D01*
X43905459Y-185972027D01*
X43919040Y-185956944D01*
X44014527Y-185791556D01*
X44052724Y-185674000D01*
X65888496Y-185674000D01*
X65908458Y-185863928D01*
X65908459Y-185863931D01*
X65967470Y-186045549D01*
X65967473Y-186045556D01*
X66062960Y-186210944D01*
X66190747Y-186352866D01*
X66345248Y-186465118D01*
X66519712Y-186542794D01*
X66706513Y-186582500D01*
X66897487Y-186582500D01*
X67084288Y-186542794D01*
X67258752Y-186465118D01*
X67413253Y-186352866D01*
X67541040Y-186210944D01*
X67636527Y-186045556D01*
X67695542Y-185863928D01*
X67715504Y-185674000D01*
X67695542Y-185484072D01*
X67636527Y-185302444D01*
X67541040Y-185137056D01*
X67413253Y-184995134D01*
X67258752Y-184882882D01*
X67084288Y-184805206D01*
X67084286Y-184805205D01*
X66897487Y-184765500D01*
X66706513Y-184765500D01*
X66519714Y-184805205D01*
X66345246Y-184882883D01*
X66190745Y-184995135D01*
X66062959Y-185137057D01*
X65967473Y-185302443D01*
X65967470Y-185302450D01*
X65929276Y-185420000D01*
X65908458Y-185484072D01*
X65888496Y-185674000D01*
X44052724Y-185674000D01*
X44073542Y-185609928D01*
X44093504Y-185420000D01*
X44073542Y-185230072D01*
X44014527Y-185048444D01*
X43919040Y-184883056D01*
X43791253Y-184741134D01*
X43636752Y-184628882D01*
X43462288Y-184551206D01*
X43462286Y-184551205D01*
X43275487Y-184511500D01*
X43084513Y-184511500D01*
X42897714Y-184551205D01*
X42723243Y-184628884D01*
X42617885Y-184705432D01*
X42552079Y-184728912D01*
X42484025Y-184713086D01*
X42472115Y-184705432D01*
X42366756Y-184628884D01*
X42318264Y-184607294D01*
X42192288Y-184551206D01*
X42192286Y-184551205D01*
X42005487Y-184511500D01*
X41814513Y-184511500D01*
X41627714Y-184551205D01*
X41453246Y-184628883D01*
X41344886Y-184707612D01*
X41279079Y-184731092D01*
X41211025Y-184715267D01*
X41162330Y-184665161D01*
X41148000Y-184607294D01*
X41148000Y-180594000D01*
X48108496Y-180594000D01*
X48128458Y-180783928D01*
X48128459Y-180783931D01*
X48187470Y-180965549D01*
X48187473Y-180965556D01*
X48282960Y-181130944D01*
X48410747Y-181272866D01*
X48565248Y-181385118D01*
X48739712Y-181462794D01*
X48926513Y-181502500D01*
X49117487Y-181502500D01*
X49304288Y-181462794D01*
X49478752Y-181385118D01*
X49633253Y-181272866D01*
X49761040Y-181130944D01*
X49856527Y-180965556D01*
X49915542Y-180783928D01*
X49935504Y-180594000D01*
X49915542Y-180404072D01*
X49856527Y-180222444D01*
X49761040Y-180057056D01*
X49633253Y-179915134D01*
X49478752Y-179802882D01*
X49304288Y-179725206D01*
X49304286Y-179725205D01*
X49117487Y-179685500D01*
X48926513Y-179685500D01*
X48739714Y-179725205D01*
X48565246Y-179802883D01*
X48410745Y-179915135D01*
X48282959Y-180057057D01*
X48187473Y-180222443D01*
X48187470Y-180222450D01*
X48128459Y-180404068D01*
X48128458Y-180404072D01*
X48108496Y-180594000D01*
X41148000Y-180594000D01*
X41148000Y-178562000D01*
X46076496Y-178562000D01*
X46096458Y-178751928D01*
X46096459Y-178751931D01*
X46155470Y-178933549D01*
X46155473Y-178933556D01*
X46250960Y-179098944D01*
X46378747Y-179240866D01*
X46533248Y-179353118D01*
X46707712Y-179430794D01*
X46894513Y-179470500D01*
X47085487Y-179470500D01*
X47272288Y-179430794D01*
X47446752Y-179353118D01*
X47601253Y-179240866D01*
X47729040Y-179098944D01*
X47824527Y-178933556D01*
X47883542Y-178751928D01*
X47903504Y-178562000D01*
X47883542Y-178372072D01*
X47862724Y-178308000D01*
X53442496Y-178308000D01*
X53462458Y-178497928D01*
X53462459Y-178497931D01*
X53521470Y-178679549D01*
X53521473Y-178679556D01*
X53616960Y-178844944D01*
X53744747Y-178986866D01*
X53899248Y-179099118D01*
X54073712Y-179176794D01*
X54260513Y-179216500D01*
X54451487Y-179216500D01*
X54638288Y-179176794D01*
X54812752Y-179099118D01*
X54967253Y-178986866D01*
X55095040Y-178844944D01*
X55190527Y-178679556D01*
X55249542Y-178497928D01*
X55269504Y-178308000D01*
X55249542Y-178118072D01*
X55190527Y-177936444D01*
X55095040Y-177771056D01*
X54967253Y-177629134D01*
X54812752Y-177516882D01*
X54638288Y-177439206D01*
X54638286Y-177439205D01*
X54451487Y-177399500D01*
X54260513Y-177399500D01*
X54073714Y-177439205D01*
X53899246Y-177516883D01*
X53744745Y-177629135D01*
X53616959Y-177771057D01*
X53521473Y-177936443D01*
X53521470Y-177936450D01*
X53476940Y-178073500D01*
X53462458Y-178118072D01*
X53442496Y-178308000D01*
X47862724Y-178308000D01*
X47824527Y-178190444D01*
X47729040Y-178025056D01*
X47601253Y-177883134D01*
X47446752Y-177770882D01*
X47272288Y-177693206D01*
X47272286Y-177693205D01*
X47085487Y-177653500D01*
X46894513Y-177653500D01*
X46707714Y-177693205D01*
X46533246Y-177770883D01*
X46378745Y-177883135D01*
X46250959Y-178025057D01*
X46155473Y-178190443D01*
X46155470Y-178190450D01*
X46117276Y-178308000D01*
X46096458Y-178372072D01*
X46076496Y-178562000D01*
X41148000Y-178562000D01*
X41148000Y-177977705D01*
X41167685Y-177910666D01*
X41220489Y-177864911D01*
X41289647Y-177854967D01*
X41344882Y-177877385D01*
X41453248Y-177956118D01*
X41627712Y-178033794D01*
X41814513Y-178073500D01*
X42005487Y-178073500D01*
X42192288Y-178033794D01*
X42366752Y-177956118D01*
X42472115Y-177879566D01*
X42537920Y-177856087D01*
X42605974Y-177871912D01*
X42617877Y-177879561D01*
X42723248Y-177956118D01*
X42897712Y-178033794D01*
X43084513Y-178073500D01*
X43275487Y-178073500D01*
X43462288Y-178033794D01*
X43636752Y-177956118D01*
X43791253Y-177843866D01*
X43919040Y-177701944D01*
X44014527Y-177536556D01*
X44073542Y-177354928D01*
X44093504Y-177165000D01*
X44073542Y-176975072D01*
X44014527Y-176793444D01*
X43919040Y-176628056D01*
X43905458Y-176612972D01*
X43875229Y-176549981D01*
X43883853Y-176480646D01*
X43905459Y-176447027D01*
X43919040Y-176431944D01*
X44014527Y-176266556D01*
X44073542Y-176084928D01*
X44093504Y-175895000D01*
X44073542Y-175705072D01*
X44014527Y-175523444D01*
X43919040Y-175358056D01*
X43791253Y-175216134D01*
X43636752Y-175103882D01*
X43462288Y-175026206D01*
X43462286Y-175026205D01*
X43275487Y-174986500D01*
X43084513Y-174986500D01*
X42897714Y-175026205D01*
X42723243Y-175103884D01*
X42617885Y-175180432D01*
X42552079Y-175203912D01*
X42484025Y-175188086D01*
X42472115Y-175180432D01*
X42366756Y-175103884D01*
X42318264Y-175082294D01*
X42192288Y-175026206D01*
X42192286Y-175026205D01*
X42005487Y-174986500D01*
X41814513Y-174986500D01*
X41627714Y-175026205D01*
X41453246Y-175103883D01*
X41344886Y-175182612D01*
X41279079Y-175206092D01*
X41211025Y-175190267D01*
X41162330Y-175140161D01*
X41148000Y-175082294D01*
X41148000Y-171450000D01*
X55728496Y-171450000D01*
X55748458Y-171639928D01*
X55748459Y-171639931D01*
X55807470Y-171821549D01*
X55807473Y-171821556D01*
X55902960Y-171986944D01*
X56030747Y-172128866D01*
X56185248Y-172241118D01*
X56359712Y-172318794D01*
X56546513Y-172358500D01*
X56737487Y-172358500D01*
X56924283Y-172318795D01*
X56924282Y-172318795D01*
X56924288Y-172318794D01*
X57098752Y-172241118D01*
X57098757Y-172241114D01*
X57099564Y-172240755D01*
X57168814Y-172231471D01*
X57200436Y-172240755D01*
X57201242Y-172241114D01*
X57201248Y-172241118D01*
X57375712Y-172318794D01*
X57375715Y-172318794D01*
X57375716Y-172318795D01*
X57562513Y-172358500D01*
X57753487Y-172358500D01*
X57940288Y-172318794D01*
X58114752Y-172241118D01*
X58269253Y-172128866D01*
X58397040Y-171986944D01*
X58492527Y-171821556D01*
X58551542Y-171639928D01*
X58571504Y-171450000D01*
X58551542Y-171260072D01*
X58492527Y-171078444D01*
X58449545Y-171003998D01*
X58433073Y-170936101D01*
X58449545Y-170880001D01*
X58492527Y-170805556D01*
X58551542Y-170623928D01*
X58571504Y-170434000D01*
X58551542Y-170244072D01*
X58492527Y-170062444D01*
X58397040Y-169897056D01*
X58269253Y-169755134D01*
X58114752Y-169642882D01*
X57940288Y-169565206D01*
X57940286Y-169565205D01*
X57753487Y-169525500D01*
X57562513Y-169525500D01*
X57375714Y-169565205D01*
X57200435Y-169643244D01*
X57131185Y-169652528D01*
X57099565Y-169643244D01*
X57098752Y-169642882D01*
X56924288Y-169565206D01*
X56924286Y-169565205D01*
X56737487Y-169525500D01*
X56546513Y-169525500D01*
X56359714Y-169565205D01*
X56185246Y-169642883D01*
X56030745Y-169755135D01*
X55902959Y-169897057D01*
X55807473Y-170062443D01*
X55807470Y-170062450D01*
X55748459Y-170244068D01*
X55748458Y-170244072D01*
X55728496Y-170434000D01*
X55748458Y-170623928D01*
X55748459Y-170623931D01*
X55807470Y-170805549D01*
X55807475Y-170805561D01*
X55850453Y-170880001D01*
X55866926Y-170947901D01*
X55850453Y-171003999D01*
X55807475Y-171078438D01*
X55807470Y-171078450D01*
X55748459Y-171260068D01*
X55748458Y-171260072D01*
X55728496Y-171450000D01*
X41148000Y-171450000D01*
X41148000Y-170209000D01*
X41167685Y-170141961D01*
X41220489Y-170096206D01*
X41272000Y-170085000D01*
X43052999Y-170085000D01*
X43053000Y-170085000D01*
X42951974Y-162306000D01*
X46584496Y-162306000D01*
X46604458Y-162495928D01*
X46604459Y-162495931D01*
X46663470Y-162677549D01*
X46663473Y-162677556D01*
X46758960Y-162842944D01*
X46886747Y-162984866D01*
X47041248Y-163097118D01*
X47215712Y-163174794D01*
X47402513Y-163214500D01*
X47593487Y-163214500D01*
X47780288Y-163174794D01*
X47954752Y-163097118D01*
X48109253Y-162984866D01*
X48237040Y-162842944D01*
X48332527Y-162677556D01*
X48391542Y-162495928D01*
X48411504Y-162306000D01*
X48391542Y-162116072D01*
X48332527Y-161934444D01*
X48237040Y-161769056D01*
X48109253Y-161627134D01*
X47954752Y-161514882D01*
X47780288Y-161437206D01*
X47780286Y-161437205D01*
X47593487Y-161397500D01*
X47402513Y-161397500D01*
X47215714Y-161437205D01*
X47041246Y-161514883D01*
X46886745Y-161627135D01*
X46758959Y-161769057D01*
X46663473Y-161934443D01*
X46663470Y-161934450D01*
X46604459Y-162116068D01*
X46604458Y-162116072D01*
X46584496Y-162306000D01*
X42951974Y-162306000D01*
X42927631Y-160431608D01*
X42946444Y-160364321D01*
X42998649Y-160317884D01*
X43051621Y-160306000D01*
X64440104Y-160306000D01*
X64507143Y-160325685D01*
G37*
%TD.AperFunction*%
%TD*%
%TA.AperFunction,Conductor*%
%TO.N,GND*%
G36*
X66128000Y-123971988D02*
G01*
X66070993Y-123939075D01*
X65943826Y-123905000D01*
X65812174Y-123905000D01*
X65685007Y-123939075D01*
X65628000Y-123971988D01*
X65628000Y-122298012D01*
X65685007Y-122330925D01*
X65812174Y-122365000D01*
X65943826Y-122365000D01*
X66070993Y-122330925D01*
X66128000Y-122298012D01*
X66128000Y-123971988D01*
G37*
%TD.AperFunction*%
%TA.AperFunction,Conductor*%
G36*
X35602075Y-87092993D02*
G01*
X35667901Y-87207007D01*
X35760993Y-87300099D01*
X35875007Y-87365925D01*
X35938590Y-87382962D01*
X35306625Y-88014925D01*
X35377801Y-88064763D01*
X35421426Y-88119340D01*
X35428620Y-88188838D01*
X35397097Y-88251193D01*
X35365697Y-88275392D01*
X35322427Y-88298809D01*
X35322422Y-88298812D01*
X35144761Y-88437092D01*
X35144756Y-88437097D01*
X34992284Y-88602723D01*
X34992276Y-88602734D01*
X34901808Y-88741206D01*
X34848662Y-88786562D01*
X34779431Y-88795986D01*
X34716095Y-88766484D01*
X34694192Y-88741206D01*
X34603723Y-88602734D01*
X34603715Y-88602723D01*
X34451243Y-88437097D01*
X34451238Y-88437092D01*
X34273577Y-88298812D01*
X34273577Y-88298811D01*
X34230303Y-88275393D01*
X34180713Y-88226173D01*
X34165605Y-88157957D01*
X34189775Y-88092401D01*
X34218198Y-88064763D01*
X34289373Y-88014925D01*
X33657409Y-87382962D01*
X33720993Y-87365925D01*
X33835007Y-87300099D01*
X33928099Y-87207007D01*
X33993925Y-87092993D01*
X34010962Y-87029410D01*
X34642925Y-87661373D01*
X34696425Y-87584968D01*
X34751002Y-87541344D01*
X34820501Y-87534151D01*
X34882855Y-87565673D01*
X34899576Y-87584969D01*
X34953073Y-87661372D01*
X35585037Y-87029409D01*
X35602075Y-87092993D01*
G37*
%TD.AperFunction*%
%TA.AperFunction,Conductor*%
G36*
X38142075Y-87092993D02*
G01*
X38207901Y-87207007D01*
X38300993Y-87300099D01*
X38415007Y-87365925D01*
X38478590Y-87382962D01*
X37846625Y-88014925D01*
X37917801Y-88064763D01*
X37961426Y-88119340D01*
X37968620Y-88188838D01*
X37937097Y-88251193D01*
X37905697Y-88275392D01*
X37862427Y-88298809D01*
X37862422Y-88298812D01*
X37684761Y-88437092D01*
X37684756Y-88437097D01*
X37532284Y-88602723D01*
X37532276Y-88602734D01*
X37441808Y-88741206D01*
X37388662Y-88786562D01*
X37319431Y-88795986D01*
X37256095Y-88766484D01*
X37234192Y-88741206D01*
X37143723Y-88602734D01*
X37143715Y-88602723D01*
X36991243Y-88437097D01*
X36991238Y-88437092D01*
X36813577Y-88298812D01*
X36813577Y-88298811D01*
X36770303Y-88275393D01*
X36720713Y-88226173D01*
X36705605Y-88157957D01*
X36729775Y-88092401D01*
X36758198Y-88064763D01*
X36829373Y-88014925D01*
X36197409Y-87382962D01*
X36260993Y-87365925D01*
X36375007Y-87300099D01*
X36468099Y-87207007D01*
X36533925Y-87092993D01*
X36550962Y-87029410D01*
X37182925Y-87661373D01*
X37236425Y-87584968D01*
X37291002Y-87541344D01*
X37360501Y-87534151D01*
X37422855Y-87565673D01*
X37439576Y-87584969D01*
X37493073Y-87661372D01*
X38125037Y-87029409D01*
X38142075Y-87092993D01*
G37*
%TD.AperFunction*%
%TA.AperFunction,Conductor*%
G36*
X40682075Y-87092993D02*
G01*
X40747901Y-87207007D01*
X40840993Y-87300099D01*
X40955007Y-87365925D01*
X41018590Y-87382962D01*
X40386625Y-88014925D01*
X40457801Y-88064763D01*
X40501426Y-88119340D01*
X40508620Y-88188838D01*
X40477097Y-88251193D01*
X40445697Y-88275392D01*
X40402427Y-88298809D01*
X40402422Y-88298812D01*
X40224761Y-88437092D01*
X40224756Y-88437097D01*
X40072284Y-88602723D01*
X40072276Y-88602734D01*
X39981808Y-88741206D01*
X39928662Y-88786562D01*
X39859431Y-88795986D01*
X39796095Y-88766484D01*
X39774192Y-88741206D01*
X39683723Y-88602734D01*
X39683715Y-88602723D01*
X39531243Y-88437097D01*
X39531238Y-88437092D01*
X39353577Y-88298812D01*
X39353577Y-88298811D01*
X39310303Y-88275393D01*
X39260713Y-88226173D01*
X39245605Y-88157957D01*
X39269775Y-88092401D01*
X39298198Y-88064763D01*
X39369373Y-88014925D01*
X38737409Y-87382962D01*
X38800993Y-87365925D01*
X38915007Y-87300099D01*
X39008099Y-87207007D01*
X39073925Y-87092993D01*
X39090962Y-87029410D01*
X39722925Y-87661373D01*
X39776425Y-87584968D01*
X39831002Y-87541344D01*
X39900501Y-87534151D01*
X39962855Y-87565673D01*
X39979576Y-87584969D01*
X40033073Y-87661372D01*
X40665037Y-87029409D01*
X40682075Y-87092993D01*
G37*
%TD.AperFunction*%
%TA.AperFunction,Conductor*%
G36*
X43222075Y-87092993D02*
G01*
X43287901Y-87207007D01*
X43380993Y-87300099D01*
X43495007Y-87365925D01*
X43558590Y-87382962D01*
X42926625Y-88014925D01*
X42997801Y-88064763D01*
X43041426Y-88119340D01*
X43048620Y-88188838D01*
X43017097Y-88251193D01*
X42985697Y-88275392D01*
X42942427Y-88298809D01*
X42942422Y-88298812D01*
X42764761Y-88437092D01*
X42764756Y-88437097D01*
X42612284Y-88602723D01*
X42612276Y-88602734D01*
X42521808Y-88741206D01*
X42468662Y-88786562D01*
X42399431Y-88795986D01*
X42336095Y-88766484D01*
X42314192Y-88741206D01*
X42223723Y-88602734D01*
X42223715Y-88602723D01*
X42071243Y-88437097D01*
X42071238Y-88437092D01*
X41893577Y-88298812D01*
X41893577Y-88298811D01*
X41850303Y-88275393D01*
X41800713Y-88226173D01*
X41785605Y-88157957D01*
X41809775Y-88092401D01*
X41838198Y-88064763D01*
X41909373Y-88014925D01*
X41277409Y-87382962D01*
X41340993Y-87365925D01*
X41455007Y-87300099D01*
X41548099Y-87207007D01*
X41613925Y-87092993D01*
X41630962Y-87029410D01*
X42262925Y-87661373D01*
X42316425Y-87584968D01*
X42371002Y-87541344D01*
X42440501Y-87534151D01*
X42502855Y-87565673D01*
X42519576Y-87584969D01*
X42573073Y-87661372D01*
X43205037Y-87029409D01*
X43222075Y-87092993D01*
G37*
%TD.AperFunction*%
%TA.AperFunction,Conductor*%
G36*
X45762075Y-87092993D02*
G01*
X45827901Y-87207007D01*
X45920993Y-87300099D01*
X46035007Y-87365925D01*
X46098590Y-87382962D01*
X45466625Y-88014925D01*
X45537801Y-88064763D01*
X45581426Y-88119340D01*
X45588620Y-88188838D01*
X45557097Y-88251193D01*
X45525697Y-88275392D01*
X45482427Y-88298809D01*
X45482422Y-88298812D01*
X45304761Y-88437092D01*
X45304756Y-88437097D01*
X45152284Y-88602723D01*
X45152276Y-88602734D01*
X45061808Y-88741206D01*
X45008662Y-88786562D01*
X44939431Y-88795986D01*
X44876095Y-88766484D01*
X44854192Y-88741206D01*
X44763723Y-88602734D01*
X44763715Y-88602723D01*
X44611243Y-88437097D01*
X44611238Y-88437092D01*
X44433577Y-88298812D01*
X44433577Y-88298811D01*
X44390303Y-88275393D01*
X44340713Y-88226173D01*
X44325605Y-88157957D01*
X44349775Y-88092401D01*
X44378198Y-88064763D01*
X44449373Y-88014925D01*
X43817409Y-87382962D01*
X43880993Y-87365925D01*
X43995007Y-87300099D01*
X44088099Y-87207007D01*
X44153925Y-87092993D01*
X44170962Y-87029410D01*
X44802925Y-87661373D01*
X44856425Y-87584968D01*
X44911002Y-87541344D01*
X44980501Y-87534151D01*
X45042855Y-87565673D01*
X45059576Y-87584969D01*
X45113073Y-87661372D01*
X45745037Y-87029409D01*
X45762075Y-87092993D01*
G37*
%TD.AperFunction*%
%TA.AperFunction,Conductor*%
G36*
X48302075Y-87092993D02*
G01*
X48367901Y-87207007D01*
X48460993Y-87300099D01*
X48575007Y-87365925D01*
X48638590Y-87382962D01*
X48006625Y-88014925D01*
X48077801Y-88064763D01*
X48121426Y-88119340D01*
X48128620Y-88188838D01*
X48097097Y-88251193D01*
X48065697Y-88275392D01*
X48022427Y-88298809D01*
X48022422Y-88298812D01*
X47844761Y-88437092D01*
X47844756Y-88437097D01*
X47692284Y-88602723D01*
X47692276Y-88602734D01*
X47601808Y-88741206D01*
X47548662Y-88786562D01*
X47479431Y-88795986D01*
X47416095Y-88766484D01*
X47394192Y-88741206D01*
X47303723Y-88602734D01*
X47303715Y-88602723D01*
X47151243Y-88437097D01*
X47151238Y-88437092D01*
X46973577Y-88298812D01*
X46973577Y-88298811D01*
X46930303Y-88275393D01*
X46880713Y-88226173D01*
X46865605Y-88157957D01*
X46889775Y-88092401D01*
X46918198Y-88064763D01*
X46989373Y-88014925D01*
X46357409Y-87382962D01*
X46420993Y-87365925D01*
X46535007Y-87300099D01*
X46628099Y-87207007D01*
X46693925Y-87092993D01*
X46710962Y-87029410D01*
X47342925Y-87661373D01*
X47396425Y-87584968D01*
X47451002Y-87541344D01*
X47520501Y-87534151D01*
X47582855Y-87565673D01*
X47599576Y-87584969D01*
X47653073Y-87661372D01*
X48285037Y-87029409D01*
X48302075Y-87092993D01*
G37*
%TD.AperFunction*%
%TA.AperFunction,Conductor*%
G36*
X50842075Y-87092993D02*
G01*
X50907901Y-87207007D01*
X51000993Y-87300099D01*
X51115007Y-87365925D01*
X51178590Y-87382962D01*
X50546625Y-88014925D01*
X50617801Y-88064763D01*
X50661426Y-88119340D01*
X50668620Y-88188838D01*
X50637097Y-88251193D01*
X50605697Y-88275392D01*
X50562427Y-88298809D01*
X50562422Y-88298812D01*
X50384761Y-88437092D01*
X50384756Y-88437097D01*
X50232284Y-88602723D01*
X50232276Y-88602734D01*
X50141808Y-88741206D01*
X50088662Y-88786562D01*
X50019431Y-88795986D01*
X49956095Y-88766484D01*
X49934192Y-88741206D01*
X49843723Y-88602734D01*
X49843715Y-88602723D01*
X49691243Y-88437097D01*
X49691238Y-88437092D01*
X49513577Y-88298812D01*
X49513577Y-88298811D01*
X49470303Y-88275393D01*
X49420713Y-88226173D01*
X49405605Y-88157957D01*
X49429775Y-88092401D01*
X49458198Y-88064763D01*
X49529373Y-88014925D01*
X48897409Y-87382962D01*
X48960993Y-87365925D01*
X49075007Y-87300099D01*
X49168099Y-87207007D01*
X49233925Y-87092993D01*
X49250962Y-87029410D01*
X49882925Y-87661373D01*
X49936425Y-87584968D01*
X49991002Y-87541344D01*
X50060501Y-87534151D01*
X50122855Y-87565673D01*
X50139576Y-87584969D01*
X50193073Y-87661372D01*
X50825037Y-87029409D01*
X50842075Y-87092993D01*
G37*
%TD.AperFunction*%
%TA.AperFunction,Conductor*%
G36*
X53382075Y-87092993D02*
G01*
X53447901Y-87207007D01*
X53540993Y-87300099D01*
X53655007Y-87365925D01*
X53718590Y-87382962D01*
X53086625Y-88014925D01*
X53157801Y-88064763D01*
X53201426Y-88119340D01*
X53208620Y-88188838D01*
X53177097Y-88251193D01*
X53145697Y-88275392D01*
X53102427Y-88298809D01*
X53102422Y-88298812D01*
X52924761Y-88437092D01*
X52924756Y-88437097D01*
X52772284Y-88602723D01*
X52772276Y-88602734D01*
X52681808Y-88741206D01*
X52628662Y-88786562D01*
X52559431Y-88795986D01*
X52496095Y-88766484D01*
X52474192Y-88741206D01*
X52383723Y-88602734D01*
X52383715Y-88602723D01*
X52231243Y-88437097D01*
X52231238Y-88437092D01*
X52053577Y-88298812D01*
X52053577Y-88298811D01*
X52010303Y-88275393D01*
X51960713Y-88226173D01*
X51945605Y-88157957D01*
X51969775Y-88092401D01*
X51998198Y-88064763D01*
X52069373Y-88014925D01*
X51437409Y-87382962D01*
X51500993Y-87365925D01*
X51615007Y-87300099D01*
X51708099Y-87207007D01*
X51773925Y-87092993D01*
X51790962Y-87029410D01*
X52422925Y-87661373D01*
X52476425Y-87584968D01*
X52531002Y-87541344D01*
X52600501Y-87534151D01*
X52662855Y-87565673D01*
X52679576Y-87584969D01*
X52733073Y-87661372D01*
X53365037Y-87029409D01*
X53382075Y-87092993D01*
G37*
%TD.AperFunction*%
%TA.AperFunction,Conductor*%
G36*
X33062075Y-87092993D02*
G01*
X33127901Y-87207007D01*
X33220993Y-87300099D01*
X33335007Y-87365925D01*
X33398590Y-87382962D01*
X32766625Y-88014925D01*
X32837801Y-88064763D01*
X32881426Y-88119340D01*
X32888620Y-88188838D01*
X32857097Y-88251193D01*
X32825697Y-88275392D01*
X32782427Y-88298809D01*
X32782422Y-88298812D01*
X32604761Y-88437092D01*
X32489182Y-88562643D01*
X32429294Y-88598633D01*
X32359456Y-88596532D01*
X32301841Y-88557007D01*
X32283526Y-88523636D01*
X32283165Y-88523805D01*
X32280599Y-88518303D01*
X32280247Y-88517661D01*
X32280115Y-88517262D01*
X32187030Y-88366348D01*
X32061652Y-88240970D01*
X31910738Y-88147885D01*
X31910732Y-88147883D01*
X31910730Y-88147882D01*
X31910636Y-88147851D01*
X31910579Y-88147812D01*
X31904195Y-88144835D01*
X31904703Y-88143743D01*
X31853193Y-88108076D01*
X31826372Y-88043559D01*
X31838690Y-87974784D01*
X31873481Y-87932295D01*
X31911240Y-87902906D01*
X32063722Y-87737268D01*
X32157749Y-87593347D01*
X32210894Y-87547994D01*
X32280125Y-87538570D01*
X32343461Y-87568072D01*
X32363131Y-87590049D01*
X32413072Y-87661373D01*
X32413073Y-87661373D01*
X33045037Y-87029409D01*
X33062075Y-87092993D01*
G37*
%TD.AperFunction*%
%TA.AperFunction,Conductor*%
G36*
X15482235Y-82596001D02*
G01*
X71758529Y-82835474D01*
X71825483Y-82855444D01*
X71871013Y-82908442D01*
X71882000Y-82959473D01*
X71882000Y-152307543D01*
X71862315Y-152374582D01*
X71809511Y-152420337D01*
X71757544Y-152431542D01*
X66909071Y-152413717D01*
X66842104Y-152393786D01*
X66821846Y-152377399D01*
X66042409Y-151597962D01*
X66105993Y-151580925D01*
X66220007Y-151515099D01*
X66313099Y-151422007D01*
X66378925Y-151307993D01*
X66395962Y-151244410D01*
X67136434Y-151984882D01*
X67236731Y-151831369D01*
X67336587Y-151603717D01*
X67397612Y-151362738D01*
X67397614Y-151362729D01*
X67418141Y-151115005D01*
X67418141Y-151114994D01*
X67397614Y-150867270D01*
X67397612Y-150867261D01*
X67336587Y-150626282D01*
X67236731Y-150398630D01*
X67136434Y-150245116D01*
X66395962Y-150985589D01*
X66378925Y-150922007D01*
X66313099Y-150807993D01*
X66220007Y-150714901D01*
X66105993Y-150649075D01*
X66042410Y-150632037D01*
X66783057Y-149891390D01*
X66783056Y-149891389D01*
X66736229Y-149854943D01*
X66517614Y-149736635D01*
X66517603Y-149736630D01*
X66282493Y-149655916D01*
X66037293Y-149615000D01*
X65788707Y-149615000D01*
X65543506Y-149655916D01*
X65308396Y-149736630D01*
X65308390Y-149736632D01*
X65089761Y-149854949D01*
X65042942Y-149891388D01*
X65042942Y-149891390D01*
X65783590Y-150632037D01*
X65720007Y-150649075D01*
X65605993Y-150714901D01*
X65512901Y-150807993D01*
X65447075Y-150922007D01*
X65430037Y-150985589D01*
X64689564Y-150245116D01*
X64589267Y-150398632D01*
X64489412Y-150626282D01*
X64428387Y-150867261D01*
X64428385Y-150867270D01*
X64407859Y-151114994D01*
X64407859Y-151115005D01*
X64428385Y-151362729D01*
X64428387Y-151362738D01*
X64489412Y-151603717D01*
X64589266Y-151831364D01*
X64689564Y-151984882D01*
X65430037Y-151244409D01*
X65447075Y-151307993D01*
X65512901Y-151422007D01*
X65605993Y-151515099D01*
X65720007Y-151580925D01*
X65783590Y-151597962D01*
X65011453Y-152370098D01*
X64950130Y-152403583D01*
X64923316Y-152406416D01*
X37338000Y-152305000D01*
X37338000Y-164246000D01*
X37318315Y-164313039D01*
X37265511Y-164358794D01*
X37214000Y-164370000D01*
X29718000Y-164370000D01*
X29718000Y-170720000D01*
X29718000Y-171434849D01*
X29698315Y-171501888D01*
X29645511Y-171547643D01*
X29576353Y-171557587D01*
X29521114Y-171535167D01*
X29425753Y-171465883D01*
X29425752Y-171465882D01*
X29251288Y-171388206D01*
X29251286Y-171388205D01*
X29064487Y-171348500D01*
X28873513Y-171348500D01*
X28686714Y-171388205D01*
X28512246Y-171465883D01*
X28357745Y-171578135D01*
X28229959Y-171720057D01*
X28134473Y-171885443D01*
X28134470Y-171885450D01*
X28101493Y-171986944D01*
X28075458Y-172067072D01*
X28055496Y-172257000D01*
X28075458Y-172446928D01*
X28075459Y-172446931D01*
X28134470Y-172628549D01*
X28134473Y-172628556D01*
X28229960Y-172793944D01*
X28357747Y-172935866D01*
X28512248Y-173048118D01*
X28686712Y-173125794D01*
X28873513Y-173165500D01*
X29064487Y-173165500D01*
X29251288Y-173125794D01*
X29425752Y-173048118D01*
X29521114Y-172978832D01*
X29586920Y-172955352D01*
X29654974Y-172971177D01*
X29703669Y-173021282D01*
X29718000Y-173079150D01*
X29718000Y-175789245D01*
X29698315Y-175856284D01*
X29645511Y-175902039D01*
X29576353Y-175911983D01*
X29561907Y-175909020D01*
X29421358Y-175871360D01*
X29421354Y-175871359D01*
X29421353Y-175871359D01*
X29421352Y-175871358D01*
X29421347Y-175871358D01*
X29210002Y-175852868D01*
X29209998Y-175852868D01*
X28998652Y-175871358D01*
X28998641Y-175871360D01*
X28793723Y-175926267D01*
X28793714Y-175926271D01*
X28601436Y-176015931D01*
X28506577Y-176082352D01*
X28427643Y-176137623D01*
X28427641Y-176137624D01*
X28427638Y-176137627D01*
X28277627Y-176287638D01*
X28277624Y-176287641D01*
X28277623Y-176287643D01*
X28222352Y-176366577D01*
X28155931Y-176461436D01*
X28066271Y-176653714D01*
X28066268Y-176653721D01*
X28059775Y-176677955D01*
X28023410Y-176737615D01*
X27960563Y-176768144D01*
X27891187Y-176759849D01*
X27837309Y-176715364D01*
X27820225Y-176677955D01*
X27813731Y-176653721D01*
X27813730Y-176653716D01*
X27724067Y-176461434D01*
X27602377Y-176287643D01*
X27452357Y-176137623D01*
X27278566Y-176015933D01*
X27278565Y-176015932D01*
X27278563Y-176015931D01*
X27176715Y-175968439D01*
X27086284Y-175926270D01*
X27086280Y-175926269D01*
X27086276Y-175926267D01*
X26881358Y-175871360D01*
X26881354Y-175871359D01*
X26881353Y-175871359D01*
X26881352Y-175871358D01*
X26881347Y-175871358D01*
X26670002Y-175852868D01*
X26669998Y-175852868D01*
X26458652Y-175871358D01*
X26458641Y-175871360D01*
X26253723Y-175926267D01*
X26253714Y-175926271D01*
X26061436Y-176015931D01*
X25966577Y-176082352D01*
X25887643Y-176137623D01*
X25887641Y-176137624D01*
X25887638Y-176137627D01*
X25737627Y-176287638D01*
X25737624Y-176287641D01*
X25737623Y-176287643D01*
X25682352Y-176366577D01*
X25615931Y-176461436D01*
X25578882Y-176540889D01*
X25532709Y-176593328D01*
X25465516Y-176612480D01*
X25398635Y-176592264D01*
X25353300Y-176539099D01*
X25342500Y-176488484D01*
X25342500Y-176317362D01*
X25342499Y-176317345D01*
X25338719Y-176282191D01*
X25335989Y-176256799D01*
X25284889Y-176119796D01*
X25197261Y-176002739D01*
X25080204Y-175915111D01*
X25045157Y-175902039D01*
X24943203Y-175864011D01*
X24882654Y-175857500D01*
X24882638Y-175857500D01*
X23377362Y-175857500D01*
X23377345Y-175857500D01*
X23316797Y-175864011D01*
X23316795Y-175864011D01*
X23179795Y-175915111D01*
X23062739Y-176002739D01*
X22975111Y-176119795D01*
X22924011Y-176256795D01*
X22924011Y-176256797D01*
X22917500Y-176317345D01*
X22917500Y-177822654D01*
X22924011Y-177883202D01*
X22924011Y-177883204D01*
X22959819Y-177979205D01*
X22975111Y-178020204D01*
X23062739Y-178137261D01*
X23179796Y-178224889D01*
X23316799Y-178275989D01*
X23344050Y-178278918D01*
X23377345Y-178282499D01*
X23377362Y-178282500D01*
X24818485Y-178282500D01*
X24885524Y-178302185D01*
X24931279Y-178354989D01*
X24941223Y-178424147D01*
X24912198Y-178487703D01*
X24870890Y-178518882D01*
X24791436Y-178555931D01*
X24696577Y-178622352D01*
X24617643Y-178677623D01*
X24617641Y-178677624D01*
X24617638Y-178677627D01*
X24467627Y-178827638D01*
X24345931Y-179001436D01*
X24256271Y-179193714D01*
X24256267Y-179193723D01*
X24201360Y-179398641D01*
X24201358Y-179398652D01*
X24182868Y-179609998D01*
X24182868Y-179610001D01*
X24201358Y-179821347D01*
X24201360Y-179821358D01*
X24256267Y-180026276D01*
X24256269Y-180026281D01*
X24294704Y-180108706D01*
X24305195Y-180177784D01*
X24276675Y-180241567D01*
X24218198Y-180279806D01*
X24183220Y-180285107D01*
X12316899Y-180371094D01*
X12249718Y-180351895D01*
X12203582Y-180299424D01*
X12192000Y-180247097D01*
X12192000Y-178848000D01*
X16866496Y-178848000D01*
X16886458Y-179037928D01*
X16886459Y-179037931D01*
X16945470Y-179219549D01*
X16945473Y-179219556D01*
X17040960Y-179384944D01*
X17168747Y-179526866D01*
X17323248Y-179639118D01*
X17497712Y-179716794D01*
X17684513Y-179756500D01*
X17875487Y-179756500D01*
X18062288Y-179716794D01*
X18236752Y-179639118D01*
X18391253Y-179526866D01*
X18519040Y-179384944D01*
X18614527Y-179219556D01*
X18673542Y-179037928D01*
X18693504Y-178848000D01*
X18673542Y-178658072D01*
X18614527Y-178476444D01*
X18519040Y-178311056D01*
X18391253Y-178169134D01*
X18236752Y-178056882D01*
X18062288Y-177979206D01*
X18062286Y-177979205D01*
X17875487Y-177939500D01*
X17684513Y-177939500D01*
X17497714Y-177979205D01*
X17323246Y-178056883D01*
X17168745Y-178169135D01*
X17040959Y-178311057D01*
X16945473Y-178476443D01*
X16945470Y-178476450D01*
X16886459Y-178658068D01*
X16886458Y-178658072D01*
X16866496Y-178848000D01*
X12192000Y-178848000D01*
X12192000Y-176308000D01*
X18136496Y-176308000D01*
X18156458Y-176497928D01*
X18156459Y-176497931D01*
X18215470Y-176679549D01*
X18215473Y-176679556D01*
X18310960Y-176844944D01*
X18438747Y-176986866D01*
X18593248Y-177099118D01*
X18767712Y-177176794D01*
X18954513Y-177216500D01*
X19145487Y-177216500D01*
X19332288Y-177176794D01*
X19506752Y-177099118D01*
X19661253Y-176986866D01*
X19789040Y-176844944D01*
X19884527Y-176679556D01*
X19943542Y-176497928D01*
X19963504Y-176308000D01*
X19943542Y-176118072D01*
X19884527Y-175936444D01*
X19789040Y-175771056D01*
X19661253Y-175629134D01*
X19506752Y-175516882D01*
X19332288Y-175439206D01*
X19332286Y-175439205D01*
X19145487Y-175399500D01*
X18954513Y-175399500D01*
X18767714Y-175439205D01*
X18593246Y-175516883D01*
X18438745Y-175629135D01*
X18310959Y-175771057D01*
X18215473Y-175936443D01*
X18215470Y-175936450D01*
X18189645Y-176015933D01*
X18156458Y-176118072D01*
X18136496Y-176308000D01*
X12192000Y-176308000D01*
X12192000Y-170466000D01*
X15850496Y-170466000D01*
X15870458Y-170655928D01*
X15870459Y-170655931D01*
X15929470Y-170837549D01*
X15929473Y-170837556D01*
X16024960Y-171002944D01*
X16152747Y-171144866D01*
X16307248Y-171257118D01*
X16481712Y-171334794D01*
X16668513Y-171374500D01*
X16859487Y-171374500D01*
X17046288Y-171334794D01*
X17220752Y-171257118D01*
X17375253Y-171144866D01*
X17503040Y-171002944D01*
X17598527Y-170837556D01*
X17657542Y-170655928D01*
X17677504Y-170466000D01*
X17657542Y-170276072D01*
X17598527Y-170094444D01*
X17503040Y-169929056D01*
X17375253Y-169787134D01*
X17220752Y-169674882D01*
X17046288Y-169597206D01*
X17046286Y-169597205D01*
X16859487Y-169557500D01*
X16668513Y-169557500D01*
X16481714Y-169597205D01*
X16307246Y-169674883D01*
X16152745Y-169787135D01*
X16024959Y-169929057D01*
X15929473Y-170094443D01*
X15929470Y-170094450D01*
X15870459Y-170276068D01*
X15870458Y-170276072D01*
X15850496Y-170466000D01*
X12192000Y-170466000D01*
X12192000Y-169450000D01*
X24867496Y-169450000D01*
X24887458Y-169639928D01*
X24887459Y-169639931D01*
X24946470Y-169821549D01*
X24946473Y-169821556D01*
X25041960Y-169986944D01*
X25169747Y-170128866D01*
X25324248Y-170241118D01*
X25498712Y-170318794D01*
X25685513Y-170358500D01*
X25876487Y-170358500D01*
X26063288Y-170318794D01*
X26237752Y-170241118D01*
X26392253Y-170128866D01*
X26520040Y-169986944D01*
X26615527Y-169821556D01*
X26674542Y-169639928D01*
X26694504Y-169450000D01*
X26674542Y-169260072D01*
X26615527Y-169078444D01*
X26520040Y-168913056D01*
X26392253Y-168771134D01*
X26237752Y-168658882D01*
X26063288Y-168581206D01*
X26063286Y-168581205D01*
X25876487Y-168541500D01*
X25685513Y-168541500D01*
X25498714Y-168581205D01*
X25324246Y-168658883D01*
X25169745Y-168771135D01*
X25041959Y-168913057D01*
X24946473Y-169078443D01*
X24946470Y-169078450D01*
X24887459Y-169260068D01*
X24887458Y-169260072D01*
X24867496Y-169450000D01*
X12192000Y-169450000D01*
X12192000Y-165894000D01*
X15469496Y-165894000D01*
X15489458Y-166083928D01*
X15489459Y-166083931D01*
X15548470Y-166265549D01*
X15548473Y-166265556D01*
X15643960Y-166430944D01*
X15771747Y-166572866D01*
X15926248Y-166685118D01*
X16100712Y-166762794D01*
X16287513Y-166802500D01*
X16478487Y-166802500D01*
X16665288Y-166762794D01*
X16839752Y-166685118D01*
X16863508Y-166667857D01*
X16929310Y-166644377D01*
X16997364Y-166660200D01*
X17028542Y-166685202D01*
X17041740Y-166699860D01*
X17041744Y-166699863D01*
X17041747Y-166699866D01*
X17196248Y-166812118D01*
X17370712Y-166889794D01*
X17557513Y-166929500D01*
X17748487Y-166929500D01*
X17935288Y-166889794D01*
X18109752Y-166812118D01*
X18264253Y-166699866D01*
X18322850Y-166634786D01*
X18382336Y-166598138D01*
X18452193Y-166599468D01*
X18507150Y-166634787D01*
X18565741Y-166699860D01*
X18565747Y-166699866D01*
X18720248Y-166812118D01*
X18894712Y-166889794D01*
X19081513Y-166929500D01*
X19272487Y-166929500D01*
X19459288Y-166889794D01*
X19633752Y-166812118D01*
X19788253Y-166699866D01*
X19788256Y-166699863D01*
X19793510Y-166696046D01*
X19794722Y-166697715D01*
X19848962Y-166671674D01*
X19918299Y-166680286D01*
X19957787Y-166708686D01*
X19957917Y-166708542D01*
X19959229Y-166709723D01*
X19961118Y-166711082D01*
X19962747Y-166712891D01*
X20117248Y-166825143D01*
X20291712Y-166902819D01*
X20478513Y-166942525D01*
X20669487Y-166942525D01*
X20856288Y-166902819D01*
X21030752Y-166825143D01*
X21185253Y-166712891D01*
X21313040Y-166570969D01*
X21408527Y-166405581D01*
X21467542Y-166223953D01*
X21487504Y-166034025D01*
X21467542Y-165844097D01*
X21408527Y-165662469D01*
X21395554Y-165640000D01*
X25502496Y-165640000D01*
X25522458Y-165829928D01*
X25522459Y-165829931D01*
X25581470Y-166011549D01*
X25581473Y-166011556D01*
X25676960Y-166176944D01*
X25804747Y-166318866D01*
X25959248Y-166431118D01*
X26133712Y-166508794D01*
X26320513Y-166548500D01*
X26511487Y-166548500D01*
X26698288Y-166508794D01*
X26872752Y-166431118D01*
X27027253Y-166318866D01*
X27155040Y-166176944D01*
X27250527Y-166011556D01*
X27309542Y-165829928D01*
X27329504Y-165640000D01*
X27309542Y-165450072D01*
X27250527Y-165268444D01*
X27155040Y-165103056D01*
X27027253Y-164961134D01*
X26872752Y-164848882D01*
X26698288Y-164771206D01*
X26698286Y-164771205D01*
X26511487Y-164731500D01*
X26320513Y-164731500D01*
X26133714Y-164771205D01*
X25959246Y-164848883D01*
X25804745Y-164961135D01*
X25676959Y-165103057D01*
X25581473Y-165268443D01*
X25581470Y-165268450D01*
X25524476Y-165443861D01*
X25522458Y-165450072D01*
X25502496Y-165640000D01*
X21395554Y-165640000D01*
X21313040Y-165497081D01*
X21185253Y-165355159D01*
X21030752Y-165242907D01*
X20856288Y-165165231D01*
X20856286Y-165165230D01*
X20669487Y-165125525D01*
X20478513Y-165125525D01*
X20291714Y-165165230D01*
X20291712Y-165165231D01*
X20146701Y-165229794D01*
X20117246Y-165242908D01*
X20045122Y-165295309D01*
X19962747Y-165355159D01*
X19962745Y-165355160D01*
X19957490Y-165358979D01*
X19956282Y-165357316D01*
X19901987Y-165383358D01*
X19832654Y-165374718D01*
X19793212Y-165346339D01*
X19793083Y-165346483D01*
X19791776Y-165345306D01*
X19789882Y-165343943D01*
X19788253Y-165342134D01*
X19633752Y-165229882D01*
X19459288Y-165152206D01*
X19459286Y-165152205D01*
X19272487Y-165112500D01*
X19081513Y-165112500D01*
X18894714Y-165152205D01*
X18894712Y-165152206D01*
X18753371Y-165215135D01*
X18720246Y-165229883D01*
X18565747Y-165342133D01*
X18507150Y-165407213D01*
X18447663Y-165443861D01*
X18377806Y-165442530D01*
X18322850Y-165407213D01*
X18283440Y-165363444D01*
X18264253Y-165342134D01*
X18109752Y-165229882D01*
X17935288Y-165152206D01*
X17935286Y-165152205D01*
X17748487Y-165112500D01*
X17557513Y-165112500D01*
X17370714Y-165152205D01*
X17196247Y-165229881D01*
X17172489Y-165247143D01*
X17106682Y-165270622D01*
X17038629Y-165254796D01*
X17007453Y-165229794D01*
X16994256Y-165215137D01*
X16994255Y-165215136D01*
X16994254Y-165215135D01*
X16994253Y-165215134D01*
X16839752Y-165102882D01*
X16665288Y-165025206D01*
X16665286Y-165025205D01*
X16478487Y-164985500D01*
X16287513Y-164985500D01*
X16100714Y-165025205D01*
X15926246Y-165102883D01*
X15771745Y-165215135D01*
X15643959Y-165357057D01*
X15548473Y-165522443D01*
X15548470Y-165522450D01*
X15489459Y-165704068D01*
X15489458Y-165704072D01*
X15469496Y-165894000D01*
X12192000Y-165894000D01*
X12192000Y-162846000D01*
X33630496Y-162846000D01*
X33650458Y-163035928D01*
X33650459Y-163035931D01*
X33709470Y-163217549D01*
X33709473Y-163217556D01*
X33804960Y-163382944D01*
X33932747Y-163524866D01*
X34087248Y-163637118D01*
X34261712Y-163714794D01*
X34448513Y-163754500D01*
X34639487Y-163754500D01*
X34826288Y-163714794D01*
X35000752Y-163637118D01*
X35155253Y-163524866D01*
X35283040Y-163382944D01*
X35378527Y-163217556D01*
X35437542Y-163035928D01*
X35457504Y-162846000D01*
X35437542Y-162656072D01*
X35378527Y-162474444D01*
X35283040Y-162309056D01*
X35155253Y-162167134D01*
X35000752Y-162054882D01*
X34826288Y-161977206D01*
X34826286Y-161977205D01*
X34639487Y-161937500D01*
X34448513Y-161937500D01*
X34261714Y-161977205D01*
X34087246Y-162054883D01*
X33932745Y-162167135D01*
X33804959Y-162309057D01*
X33709473Y-162474443D01*
X33709470Y-162474450D01*
X33650459Y-162656068D01*
X33650458Y-162656072D01*
X33630496Y-162846000D01*
X12192000Y-162846000D01*
X12192000Y-161830000D01*
X24994496Y-161830000D01*
X25014458Y-162019928D01*
X25014459Y-162019931D01*
X25073470Y-162201549D01*
X25073473Y-162201556D01*
X25168960Y-162366944D01*
X25255665Y-162463240D01*
X25285097Y-162495928D01*
X25296747Y-162508866D01*
X25451248Y-162621118D01*
X25625712Y-162698794D01*
X25812513Y-162738500D01*
X26003487Y-162738500D01*
X26190288Y-162698794D01*
X26364752Y-162621118D01*
X26519253Y-162508866D01*
X26647040Y-162366944D01*
X26742527Y-162201556D01*
X26801542Y-162019928D01*
X26821504Y-161830000D01*
X26801542Y-161640072D01*
X26742527Y-161458444D01*
X26647040Y-161293056D01*
X26519253Y-161151134D01*
X26364752Y-161038882D01*
X26190288Y-160961206D01*
X26190286Y-160961205D01*
X26095228Y-160941000D01*
X28169496Y-160941000D01*
X28189458Y-161130928D01*
X28189459Y-161130931D01*
X28248470Y-161312549D01*
X28248473Y-161312556D01*
X28343960Y-161477944D01*
X28471747Y-161619866D01*
X28626248Y-161732118D01*
X28800712Y-161809794D01*
X28987513Y-161849500D01*
X29178487Y-161849500D01*
X29365288Y-161809794D01*
X29539752Y-161732118D01*
X29694253Y-161619866D01*
X29733750Y-161576000D01*
X30201496Y-161576000D01*
X30221458Y-161765928D01*
X30221459Y-161765931D01*
X30280470Y-161947549D01*
X30280473Y-161947556D01*
X30375960Y-162112944D01*
X30503747Y-162254866D01*
X30658248Y-162367118D01*
X30832712Y-162444794D01*
X31019513Y-162484500D01*
X31210487Y-162484500D01*
X31397288Y-162444794D01*
X31571752Y-162367118D01*
X31726253Y-162254866D01*
X31854040Y-162112944D01*
X31949527Y-161947556D01*
X32008542Y-161765928D01*
X32028504Y-161576000D01*
X32008542Y-161386072D01*
X31949527Y-161204444D01*
X31854040Y-161039056D01*
X31726253Y-160897134D01*
X31571752Y-160784882D01*
X31397288Y-160707206D01*
X31397286Y-160707205D01*
X31210487Y-160667500D01*
X31019513Y-160667500D01*
X30832714Y-160707205D01*
X30658246Y-160784883D01*
X30503745Y-160897135D01*
X30375959Y-161039057D01*
X30280473Y-161204443D01*
X30280470Y-161204450D01*
X30221459Y-161386068D01*
X30221458Y-161386072D01*
X30201496Y-161576000D01*
X29733750Y-161576000D01*
X29822040Y-161477944D01*
X29917527Y-161312556D01*
X29976542Y-161130928D01*
X29996504Y-160941000D01*
X29976542Y-160751072D01*
X29917527Y-160569444D01*
X29822040Y-160404056D01*
X29694253Y-160262134D01*
X29539752Y-160149882D01*
X29365288Y-160072206D01*
X29365286Y-160072205D01*
X29178487Y-160032500D01*
X28987513Y-160032500D01*
X28800714Y-160072205D01*
X28626246Y-160149883D01*
X28471745Y-160262135D01*
X28343959Y-160404057D01*
X28248473Y-160569443D01*
X28248470Y-160569450D01*
X28189459Y-160751068D01*
X28189458Y-160751072D01*
X28169496Y-160941000D01*
X26095228Y-160941000D01*
X26003487Y-160921500D01*
X25812513Y-160921500D01*
X25625714Y-160961205D01*
X25451246Y-161038883D01*
X25296745Y-161151135D01*
X25168959Y-161293057D01*
X25073473Y-161458443D01*
X25073470Y-161458450D01*
X25014459Y-161640068D01*
X25014458Y-161640072D01*
X24994496Y-161830000D01*
X12192000Y-161830000D01*
X12192000Y-160560000D01*
X14834496Y-160560000D01*
X14854458Y-160749928D01*
X14854459Y-160749931D01*
X14913470Y-160931549D01*
X14913473Y-160931556D01*
X15008960Y-161096944D01*
X15136747Y-161238866D01*
X15291248Y-161351118D01*
X15465712Y-161428794D01*
X15652513Y-161468500D01*
X15843487Y-161468500D01*
X16030288Y-161428794D01*
X16204752Y-161351118D01*
X16359253Y-161238866D01*
X16487040Y-161096944D01*
X16582527Y-160931556D01*
X16641542Y-160749928D01*
X16661504Y-160560000D01*
X16641542Y-160370072D01*
X16582527Y-160188444D01*
X16487040Y-160023056D01*
X16359253Y-159881134D01*
X16204752Y-159768882D01*
X16030288Y-159691206D01*
X16030286Y-159691205D01*
X15843487Y-159651500D01*
X15652513Y-159651500D01*
X15465714Y-159691205D01*
X15291246Y-159768883D01*
X15136745Y-159881135D01*
X15008959Y-160023057D01*
X14913473Y-160188443D01*
X14913470Y-160188450D01*
X14854459Y-160370068D01*
X14854458Y-160370072D01*
X14834496Y-160560000D01*
X12192000Y-160560000D01*
X12192000Y-159036000D01*
X24867496Y-159036000D01*
X24887458Y-159225928D01*
X24887459Y-159225931D01*
X24946470Y-159407549D01*
X24946473Y-159407556D01*
X25041960Y-159572944D01*
X25169747Y-159714866D01*
X25324248Y-159827118D01*
X25498712Y-159904794D01*
X25685513Y-159944500D01*
X25876487Y-159944500D01*
X26063288Y-159904794D01*
X26237752Y-159827118D01*
X26392253Y-159714866D01*
X26520040Y-159572944D01*
X26615527Y-159407556D01*
X26674542Y-159225928D01*
X26694504Y-159036000D01*
X26674542Y-158846072D01*
X26615527Y-158664444D01*
X26536751Y-158528000D01*
X28499696Y-158528000D01*
X28519658Y-158717928D01*
X28519659Y-158717931D01*
X28578670Y-158899549D01*
X28578673Y-158899556D01*
X28674160Y-159064944D01*
X28801947Y-159206866D01*
X28956448Y-159319118D01*
X29130912Y-159396794D01*
X29317713Y-159436500D01*
X29508687Y-159436500D01*
X29695488Y-159396794D01*
X29869952Y-159319118D01*
X30024453Y-159206866D01*
X30152240Y-159064944D01*
X30247727Y-158899556D01*
X30306742Y-158717928D01*
X30326704Y-158528000D01*
X30306742Y-158338072D01*
X30247727Y-158156444D01*
X30152240Y-157991056D01*
X30024453Y-157849134D01*
X29869952Y-157736882D01*
X29695488Y-157659206D01*
X29695486Y-157659205D01*
X29508687Y-157619500D01*
X29317713Y-157619500D01*
X29130914Y-157659205D01*
X28956446Y-157736883D01*
X28801945Y-157849135D01*
X28674159Y-157991057D01*
X28578673Y-158156443D01*
X28578670Y-158156450D01*
X28549937Y-158244883D01*
X28519658Y-158338072D01*
X28499696Y-158528000D01*
X26536751Y-158528000D01*
X26520040Y-158499056D01*
X26392253Y-158357134D01*
X26237752Y-158244882D01*
X26063288Y-158167206D01*
X26063286Y-158167205D01*
X25876487Y-158127500D01*
X25685513Y-158127500D01*
X25498714Y-158167205D01*
X25324246Y-158244883D01*
X25169745Y-158357135D01*
X25041959Y-158499057D01*
X24946473Y-158664443D01*
X24946470Y-158664450D01*
X24887459Y-158846068D01*
X24887458Y-158846072D01*
X24867496Y-159036000D01*
X12192000Y-159036000D01*
X12192000Y-156115000D01*
X15469496Y-156115000D01*
X15489458Y-156304928D01*
X15489459Y-156304931D01*
X15548470Y-156486549D01*
X15548473Y-156486556D01*
X15643960Y-156651944D01*
X15771747Y-156793866D01*
X15926248Y-156906118D01*
X16100712Y-156983794D01*
X16287513Y-157023500D01*
X16478487Y-157023500D01*
X16665288Y-156983794D01*
X16839752Y-156906118D01*
X16994253Y-156793866D01*
X17122040Y-156651944D01*
X17217527Y-156486556D01*
X17276542Y-156304928D01*
X17296504Y-156115000D01*
X17276542Y-155925072D01*
X17245359Y-155829100D01*
X30709496Y-155829100D01*
X30729458Y-156019028D01*
X30729459Y-156019031D01*
X30788470Y-156200649D01*
X30788473Y-156200656D01*
X30883960Y-156366044D01*
X31011747Y-156507966D01*
X31166248Y-156620218D01*
X31340712Y-156697894D01*
X31527513Y-156737600D01*
X31718487Y-156737600D01*
X31905288Y-156697894D01*
X32079752Y-156620218D01*
X32234253Y-156507966D01*
X32362040Y-156366044D01*
X32457527Y-156200656D01*
X32516542Y-156019028D01*
X32536504Y-155829100D01*
X32516542Y-155639172D01*
X32457527Y-155457544D01*
X32362040Y-155292156D01*
X32234253Y-155150234D01*
X32079752Y-155037982D01*
X31905288Y-154960306D01*
X31905286Y-154960305D01*
X31718487Y-154920600D01*
X31527513Y-154920600D01*
X31340714Y-154960305D01*
X31166246Y-155037983D01*
X31011745Y-155150235D01*
X30883959Y-155292157D01*
X30788473Y-155457543D01*
X30788470Y-155457550D01*
X30729459Y-155639168D01*
X30729458Y-155639172D01*
X30709496Y-155829100D01*
X17245359Y-155829100D01*
X17217527Y-155743444D01*
X17122040Y-155578056D01*
X16994253Y-155436134D01*
X16839752Y-155323882D01*
X16665288Y-155246206D01*
X16665286Y-155246205D01*
X16478487Y-155206500D01*
X16287513Y-155206500D01*
X16100714Y-155246205D01*
X15926246Y-155323883D01*
X15771745Y-155436135D01*
X15643959Y-155578057D01*
X15548473Y-155743443D01*
X15548470Y-155743450D01*
X15520641Y-155829100D01*
X15489458Y-155925072D01*
X15469496Y-156115000D01*
X12192000Y-156115000D01*
X12192000Y-153575000D01*
X16104496Y-153575000D01*
X16124458Y-153764928D01*
X16124459Y-153764931D01*
X16183470Y-153946549D01*
X16183473Y-153946556D01*
X16278960Y-154111944D01*
X16406747Y-154253866D01*
X16561248Y-154366118D01*
X16735712Y-154443794D01*
X16922513Y-154483500D01*
X17113487Y-154483500D01*
X17300288Y-154443794D01*
X17474752Y-154366118D01*
X17629253Y-154253866D01*
X17757040Y-154111944D01*
X17852527Y-153946556D01*
X17911542Y-153764928D01*
X17931504Y-153575000D01*
X17911542Y-153385072D01*
X17852527Y-153203444D01*
X17847074Y-153194000D01*
X19406496Y-153194000D01*
X19426458Y-153383928D01*
X19426459Y-153383931D01*
X19485470Y-153565549D01*
X19485473Y-153565556D01*
X19580960Y-153730944D01*
X19708747Y-153872866D01*
X19863248Y-153985118D01*
X20037712Y-154062794D01*
X20224513Y-154102500D01*
X20415487Y-154102500D01*
X20602288Y-154062794D01*
X20776752Y-153985118D01*
X20931253Y-153872866D01*
X21059040Y-153730944D01*
X21154527Y-153565556D01*
X21213542Y-153383928D01*
X21233504Y-153194000D01*
X21213542Y-153004072D01*
X21154527Y-152822444D01*
X21059040Y-152657056D01*
X20931253Y-152515134D01*
X20776752Y-152402882D01*
X20602288Y-152325206D01*
X20602286Y-152325205D01*
X20415487Y-152285500D01*
X20224513Y-152285500D01*
X20037714Y-152325205D01*
X19863246Y-152402883D01*
X19708745Y-152515135D01*
X19580959Y-152657057D01*
X19485473Y-152822443D01*
X19485470Y-152822450D01*
X19426459Y-153004068D01*
X19426458Y-153004072D01*
X19406496Y-153194000D01*
X17847074Y-153194000D01*
X17757040Y-153038056D01*
X17629253Y-152896134D01*
X17474752Y-152783882D01*
X17300288Y-152706206D01*
X17300286Y-152706205D01*
X17113487Y-152666500D01*
X16922513Y-152666500D01*
X16735714Y-152706205D01*
X16561246Y-152783883D01*
X16406745Y-152896135D01*
X16278959Y-153038057D01*
X16183473Y-153203443D01*
X16183470Y-153203450D01*
X16124459Y-153385068D01*
X16124458Y-153385072D01*
X16104496Y-153575000D01*
X12192000Y-153575000D01*
X12192000Y-149130000D01*
X21184496Y-149130000D01*
X21204458Y-149319928D01*
X21204459Y-149319931D01*
X21263470Y-149501549D01*
X21263473Y-149501556D01*
X21358960Y-149666944D01*
X21486747Y-149808866D01*
X21641248Y-149921118D01*
X21815712Y-149998794D01*
X22002513Y-150038500D01*
X22193487Y-150038500D01*
X22380288Y-149998794D01*
X22554752Y-149921118D01*
X22709253Y-149808866D01*
X22837040Y-149666944D01*
X22932527Y-149501556D01*
X22932568Y-149501431D01*
X22932608Y-149501371D01*
X22935173Y-149495613D01*
X22936225Y-149496081D01*
X22972003Y-149443754D01*
X23036361Y-149416554D01*
X23105208Y-149428466D01*
X23156685Y-149475708D01*
X23165783Y-149495632D01*
X23165827Y-149495613D01*
X23167859Y-149500176D01*
X23168432Y-149501431D01*
X23168470Y-149501549D01*
X23168473Y-149501556D01*
X23263960Y-149666944D01*
X23391747Y-149808866D01*
X23546248Y-149921118D01*
X23720712Y-149998794D01*
X23907513Y-150038500D01*
X24098487Y-150038500D01*
X24285288Y-149998794D01*
X24459752Y-149921118D01*
X24614253Y-149808866D01*
X24742040Y-149666944D01*
X24837527Y-149501556D01*
X24875724Y-149384000D01*
X26518496Y-149384000D01*
X26538458Y-149573928D01*
X26538459Y-149573931D01*
X26597470Y-149755549D01*
X26597473Y-149755556D01*
X26692960Y-149920944D01*
X26820747Y-150062866D01*
X26975248Y-150175118D01*
X27149712Y-150252794D01*
X27336513Y-150292500D01*
X27527487Y-150292500D01*
X27714288Y-150252794D01*
X27888752Y-150175118D01*
X28043253Y-150062866D01*
X28171040Y-149920944D01*
X28266527Y-149755556D01*
X28325542Y-149573928D01*
X28345504Y-149384000D01*
X28325542Y-149194072D01*
X28266527Y-149012444D01*
X28171040Y-148847056D01*
X28043253Y-148705134D01*
X27888752Y-148592882D01*
X27714288Y-148515206D01*
X27714286Y-148515205D01*
X27527487Y-148475500D01*
X27336513Y-148475500D01*
X27149714Y-148515205D01*
X26975246Y-148592883D01*
X26820745Y-148705135D01*
X26692959Y-148847057D01*
X26597473Y-149012443D01*
X26597470Y-149012450D01*
X26559276Y-149130000D01*
X26538458Y-149194072D01*
X26518496Y-149384000D01*
X24875724Y-149384000D01*
X24896542Y-149319928D01*
X24916504Y-149130000D01*
X24896542Y-148940072D01*
X24837527Y-148758444D01*
X24742040Y-148593056D01*
X24614253Y-148451134D01*
X24459752Y-148338882D01*
X24285288Y-148261206D01*
X24285286Y-148261205D01*
X24098487Y-148221500D01*
X23907513Y-148221500D01*
X23720714Y-148261205D01*
X23546246Y-148338883D01*
X23391745Y-148451135D01*
X23263959Y-148593057D01*
X23168473Y-148758443D01*
X23168471Y-148758447D01*
X23168431Y-148758573D01*
X23168387Y-148758636D01*
X23165827Y-148764387D01*
X23164775Y-148763918D01*
X23128992Y-148816248D01*
X23064633Y-148843446D01*
X22995787Y-148831531D01*
X22944312Y-148784286D01*
X22935215Y-148764368D01*
X22935173Y-148764387D01*
X22933171Y-148759893D01*
X22932569Y-148758573D01*
X22932528Y-148758447D01*
X22932527Y-148758446D01*
X22932527Y-148758444D01*
X22837040Y-148593056D01*
X22709253Y-148451134D01*
X22554752Y-148338882D01*
X22380288Y-148261206D01*
X22380286Y-148261205D01*
X22193487Y-148221500D01*
X22002513Y-148221500D01*
X21815714Y-148261205D01*
X21641246Y-148338883D01*
X21486745Y-148451135D01*
X21358959Y-148593057D01*
X21263473Y-148758443D01*
X21263470Y-148758450D01*
X21204459Y-148940068D01*
X21204458Y-148940072D01*
X21184496Y-149130000D01*
X12192000Y-149130000D01*
X12192000Y-146325005D01*
X16314844Y-146325005D01*
X16333434Y-146549359D01*
X16333436Y-146549371D01*
X16388703Y-146767614D01*
X16479140Y-146973792D01*
X16602276Y-147162265D01*
X16602284Y-147162276D01*
X16754756Y-147327902D01*
X16754760Y-147327906D01*
X16932424Y-147466189D01*
X16932425Y-147466189D01*
X16932427Y-147466191D01*
X17059135Y-147534761D01*
X17130426Y-147573342D01*
X17343365Y-147646444D01*
X17565431Y-147683500D01*
X17790569Y-147683500D01*
X18012635Y-147646444D01*
X18225574Y-147573342D01*
X18423576Y-147466189D01*
X18601240Y-147327906D01*
X18695973Y-147225000D01*
X24994496Y-147225000D01*
X25014458Y-147414928D01*
X25014459Y-147414931D01*
X25073470Y-147596549D01*
X25073473Y-147596556D01*
X25168960Y-147761944D01*
X25296747Y-147903866D01*
X25451248Y-148016118D01*
X25625712Y-148093794D01*
X25812513Y-148133500D01*
X26003487Y-148133500D01*
X26190288Y-148093794D01*
X26364752Y-148016118D01*
X26519253Y-147903866D01*
X26647040Y-147761944D01*
X26742527Y-147596556D01*
X26801542Y-147414928D01*
X26821504Y-147225000D01*
X26801542Y-147035072D01*
X26742527Y-146853444D01*
X26647040Y-146688056D01*
X26519253Y-146546134D01*
X26364752Y-146433882D01*
X26190288Y-146356206D01*
X26190286Y-146356205D01*
X26003487Y-146316500D01*
X25812513Y-146316500D01*
X25625714Y-146356205D01*
X25451246Y-146433883D01*
X25296745Y-146546135D01*
X25168959Y-146688057D01*
X25073473Y-146853443D01*
X25073470Y-146853450D01*
X25034369Y-146973792D01*
X25014458Y-147035072D01*
X24994496Y-147225000D01*
X18695973Y-147225000D01*
X18753722Y-147162268D01*
X18876860Y-146973791D01*
X18967296Y-146767616D01*
X19022564Y-146549368D01*
X19032134Y-146433882D01*
X19041156Y-146325005D01*
X19041156Y-146324994D01*
X19022565Y-146100640D01*
X19022563Y-146100628D01*
X18967296Y-145882385D01*
X18876859Y-145676207D01*
X18753723Y-145487734D01*
X18753715Y-145487723D01*
X18601243Y-145322097D01*
X18601238Y-145322092D01*
X18423577Y-145183812D01*
X18423578Y-145183812D01*
X18423576Y-145183811D01*
X18387070Y-145164055D01*
X18337479Y-145114836D01*
X18322371Y-145046619D01*
X18346541Y-144981064D01*
X18387070Y-144945945D01*
X18387084Y-144945936D01*
X18423576Y-144926189D01*
X18601240Y-144787906D01*
X18692106Y-144689200D01*
X41548498Y-144689200D01*
X41568460Y-144879128D01*
X41568461Y-144879131D01*
X41627472Y-145060749D01*
X41627475Y-145060756D01*
X41722962Y-145226144D01*
X41850749Y-145368066D01*
X42005250Y-145480318D01*
X42179714Y-145557994D01*
X42366515Y-145597700D01*
X42557489Y-145597700D01*
X42744290Y-145557994D01*
X42918754Y-145480318D01*
X43073255Y-145368066D01*
X43201042Y-145226144D01*
X43296529Y-145060756D01*
X43355544Y-144879128D01*
X43375506Y-144689200D01*
X43355544Y-144499272D01*
X43296529Y-144317644D01*
X43201042Y-144152256D01*
X43073255Y-144010334D01*
X42918754Y-143898082D01*
X42744290Y-143820406D01*
X42744288Y-143820405D01*
X42557489Y-143780700D01*
X42366515Y-143780700D01*
X42179716Y-143820405D01*
X42005248Y-143898083D01*
X41850747Y-144010335D01*
X41722961Y-144152257D01*
X41627475Y-144317643D01*
X41627472Y-144317650D01*
X41568461Y-144499268D01*
X41568460Y-144499272D01*
X41548498Y-144689200D01*
X18692106Y-144689200D01*
X18753722Y-144622268D01*
X18876860Y-144433791D01*
X18967296Y-144227616D01*
X19022564Y-144009368D01*
X19031786Y-143898082D01*
X19041156Y-143785005D01*
X19041156Y-143784994D01*
X19022565Y-143560640D01*
X19022563Y-143560628D01*
X18967296Y-143342385D01*
X18876859Y-143136207D01*
X18753723Y-142947734D01*
X18753715Y-142947723D01*
X18601243Y-142782097D01*
X18601238Y-142782092D01*
X18423577Y-142643812D01*
X18423578Y-142643812D01*
X18423576Y-142643811D01*
X18387070Y-142624055D01*
X18337479Y-142574836D01*
X18322371Y-142506619D01*
X18346541Y-142441064D01*
X18387070Y-142405945D01*
X18387084Y-142405936D01*
X18423576Y-142386189D01*
X18601240Y-142247906D01*
X18753722Y-142082268D01*
X18876860Y-141893791D01*
X18967296Y-141687616D01*
X19021138Y-141475000D01*
X46584496Y-141475000D01*
X46604458Y-141664928D01*
X46604459Y-141664931D01*
X46663470Y-141846549D01*
X46663473Y-141846556D01*
X46758960Y-142011944D01*
X46886747Y-142153866D01*
X47041248Y-142266118D01*
X47215712Y-142343794D01*
X47402513Y-142383500D01*
X47593487Y-142383500D01*
X47780288Y-142343794D01*
X47954752Y-142266118D01*
X48109253Y-142153866D01*
X48237040Y-142011944D01*
X48332527Y-141846556D01*
X48391542Y-141664928D01*
X48411504Y-141475000D01*
X48391542Y-141285072D01*
X48332527Y-141103444D01*
X48237040Y-140938056D01*
X48109253Y-140796134D01*
X47954752Y-140683882D01*
X47780288Y-140606206D01*
X47780286Y-140606205D01*
X47593487Y-140566500D01*
X47402513Y-140566500D01*
X47215714Y-140606205D01*
X47041246Y-140683883D01*
X46886745Y-140796135D01*
X46758959Y-140938057D01*
X46663473Y-141103443D01*
X46663470Y-141103450D01*
X46604459Y-141285068D01*
X46604458Y-141285072D01*
X46584496Y-141475000D01*
X19021138Y-141475000D01*
X19022564Y-141469368D01*
X19022565Y-141469359D01*
X19041156Y-141245005D01*
X19041156Y-141244994D01*
X19022565Y-141020640D01*
X19022563Y-141020628D01*
X18967296Y-140802385D01*
X18964554Y-140796134D01*
X18876860Y-140596209D01*
X18753722Y-140407732D01*
X18753719Y-140407729D01*
X18753715Y-140407723D01*
X18601243Y-140242097D01*
X18601238Y-140242092D01*
X18423577Y-140103812D01*
X18423577Y-140103811D01*
X18380303Y-140080393D01*
X18330713Y-140031173D01*
X18315605Y-139962957D01*
X18339775Y-139897401D01*
X18368198Y-139869763D01*
X18549079Y-139743108D01*
X18716105Y-139576082D01*
X18851600Y-139382578D01*
X18951429Y-139168492D01*
X18951432Y-139168486D01*
X19008636Y-138955000D01*
X18111012Y-138955000D01*
X18120827Y-138938000D01*
X49124496Y-138938000D01*
X49144458Y-139127928D01*
X49144459Y-139127931D01*
X49203470Y-139309549D01*
X49203473Y-139309556D01*
X49298960Y-139474944D01*
X49426747Y-139616866D01*
X49581248Y-139729118D01*
X49755712Y-139806794D01*
X49942513Y-139846500D01*
X50133487Y-139846500D01*
X50320288Y-139806794D01*
X50494752Y-139729118D01*
X50649253Y-139616866D01*
X50777040Y-139474944D01*
X50872527Y-139309556D01*
X50931542Y-139127928D01*
X50951504Y-138938000D01*
X50940912Y-138837226D01*
X50953481Y-138768499D01*
X51001213Y-138717475D01*
X51013800Y-138710986D01*
X51015752Y-138710118D01*
X51170253Y-138597866D01*
X51298040Y-138455944D01*
X51393527Y-138290556D01*
X51452542Y-138108928D01*
X51472504Y-137919000D01*
X51452542Y-137729072D01*
X51393527Y-137547444D01*
X51298040Y-137382056D01*
X51170253Y-137240134D01*
X51055829Y-137157000D01*
X55627496Y-137157000D01*
X55647458Y-137346928D01*
X55647459Y-137346931D01*
X55706470Y-137528549D01*
X55706473Y-137528556D01*
X55801960Y-137693944D01*
X55929747Y-137835866D01*
X56084248Y-137948118D01*
X56258712Y-138025794D01*
X56445513Y-138065500D01*
X56636487Y-138065500D01*
X56823288Y-138025794D01*
X56997752Y-137948118D01*
X57152253Y-137835866D01*
X57280040Y-137693944D01*
X57375527Y-137528556D01*
X57434542Y-137346928D01*
X57454504Y-137157000D01*
X58802496Y-137157000D01*
X58822458Y-137346928D01*
X58822459Y-137346931D01*
X58881470Y-137528549D01*
X58881473Y-137528556D01*
X58976960Y-137693944D01*
X59104747Y-137835866D01*
X59259248Y-137948118D01*
X59433712Y-138025794D01*
X59620513Y-138065500D01*
X59811487Y-138065500D01*
X59998288Y-138025794D01*
X60172752Y-137948118D01*
X60327253Y-137835866D01*
X60455040Y-137693944D01*
X60550527Y-137528556D01*
X60609542Y-137346928D01*
X60629504Y-137157000D01*
X60609542Y-136967072D01*
X60550527Y-136785444D01*
X60455040Y-136620056D01*
X60441458Y-136604972D01*
X60411229Y-136541981D01*
X60419853Y-136472646D01*
X60441459Y-136439027D01*
X60455040Y-136423944D01*
X60550527Y-136258556D01*
X60609542Y-136076928D01*
X60629504Y-135887000D01*
X60609542Y-135697072D01*
X60550527Y-135515444D01*
X60455040Y-135350056D01*
X60441458Y-135334972D01*
X60411229Y-135271981D01*
X60419853Y-135202646D01*
X60441459Y-135169027D01*
X60455040Y-135153944D01*
X60550527Y-134988556D01*
X60609542Y-134806928D01*
X60629504Y-134617000D01*
X60624039Y-134565005D01*
X64514844Y-134565005D01*
X64533434Y-134789359D01*
X64533436Y-134789371D01*
X64588703Y-135007614D01*
X64679140Y-135213792D01*
X64802276Y-135402265D01*
X64802284Y-135402276D01*
X64947489Y-135560008D01*
X64978412Y-135622662D01*
X64970552Y-135692088D01*
X64926405Y-135746244D01*
X64899596Y-135760172D01*
X64781794Y-135804111D01*
X64664739Y-135891739D01*
X64577111Y-136008795D01*
X64526011Y-136145795D01*
X64526011Y-136145797D01*
X64519500Y-136206345D01*
X64519500Y-138003654D01*
X64526011Y-138064202D01*
X64526011Y-138064204D01*
X64577111Y-138201204D01*
X64664739Y-138318261D01*
X64781796Y-138405889D01*
X64896949Y-138448839D01*
X64913463Y-138454999D01*
X64918799Y-138456989D01*
X64946050Y-138459918D01*
X64979345Y-138463499D01*
X64979362Y-138463500D01*
X66776638Y-138463500D01*
X66776654Y-138463499D01*
X66803692Y-138460591D01*
X66837201Y-138456989D01*
X66842537Y-138454999D01*
X66851768Y-138451555D01*
X66974204Y-138405889D01*
X67091261Y-138318261D01*
X67178889Y-138201204D01*
X67224555Y-138078768D01*
X67229988Y-138064204D01*
X67229988Y-138064203D01*
X67229989Y-138064201D01*
X67234766Y-138019771D01*
X67236499Y-138003654D01*
X67236500Y-138003637D01*
X67236500Y-136206362D01*
X67236499Y-136206345D01*
X67232053Y-136165000D01*
X67229989Y-136145799D01*
X67178889Y-136008796D01*
X67091261Y-135891739D01*
X66974204Y-135804111D01*
X66856404Y-135760172D01*
X66800471Y-135718300D01*
X66776055Y-135652835D01*
X66790908Y-135584562D01*
X66808504Y-135560014D01*
X66953722Y-135402268D01*
X67076860Y-135213791D01*
X67167296Y-135007616D01*
X67222564Y-134789368D01*
X67222848Y-134785945D01*
X67241156Y-134565005D01*
X67241156Y-134564994D01*
X67222565Y-134340640D01*
X67222563Y-134340628D01*
X67205638Y-134273792D01*
X67167296Y-134122384D01*
X67076860Y-133916209D01*
X66953722Y-133727732D01*
X66953719Y-133727729D01*
X66953715Y-133727723D01*
X66801243Y-133562097D01*
X66801238Y-133562092D01*
X66623577Y-133423812D01*
X66623578Y-133423812D01*
X66623576Y-133423811D01*
X66587070Y-133404055D01*
X66537479Y-133354836D01*
X66522371Y-133286619D01*
X66546541Y-133221064D01*
X66587070Y-133185945D01*
X66593650Y-133182384D01*
X66623576Y-133166189D01*
X66801240Y-133027906D01*
X66953722Y-132862268D01*
X67076860Y-132673791D01*
X67167296Y-132467616D01*
X67222564Y-132249368D01*
X67222848Y-132245945D01*
X67241156Y-132025005D01*
X67241156Y-132024994D01*
X67222565Y-131800640D01*
X67222563Y-131800628D01*
X67205638Y-131733792D01*
X67167296Y-131582384D01*
X67076860Y-131376209D01*
X67058831Y-131348614D01*
X66979160Y-131226668D01*
X66953722Y-131187732D01*
X66953719Y-131187729D01*
X66953715Y-131187723D01*
X66801243Y-131022097D01*
X66801238Y-131022092D01*
X66623577Y-130883812D01*
X66623578Y-130883812D01*
X66623576Y-130883811D01*
X66587070Y-130864055D01*
X66537479Y-130814836D01*
X66522371Y-130746619D01*
X66546541Y-130681064D01*
X66587070Y-130645945D01*
X66593650Y-130642384D01*
X66623576Y-130626189D01*
X66801240Y-130487906D01*
X66953722Y-130322268D01*
X67076860Y-130133791D01*
X67167296Y-129927616D01*
X67222564Y-129709368D01*
X67224206Y-129689556D01*
X67241156Y-129485005D01*
X67241156Y-129484994D01*
X67222565Y-129260640D01*
X67222563Y-129260628D01*
X67205638Y-129193792D01*
X67167296Y-129042384D01*
X67076860Y-128836209D01*
X67040827Y-128781057D01*
X66953723Y-128647734D01*
X66953715Y-128647723D01*
X66801243Y-128482097D01*
X66801238Y-128482092D01*
X66623577Y-128343812D01*
X66623578Y-128343812D01*
X66623576Y-128343811D01*
X66587070Y-128324055D01*
X66537479Y-128274836D01*
X66522371Y-128206619D01*
X66546541Y-128141064D01*
X66587070Y-128105945D01*
X66593650Y-128102384D01*
X66623576Y-128086189D01*
X66801240Y-127947906D01*
X66916117Y-127823118D01*
X66953715Y-127782276D01*
X66953716Y-127782274D01*
X66953722Y-127782268D01*
X67076860Y-127593791D01*
X67167296Y-127387616D01*
X67222564Y-127169368D01*
X67222848Y-127165945D01*
X67241156Y-126945005D01*
X67241156Y-126944994D01*
X67222565Y-126720640D01*
X67222563Y-126720628D01*
X67205638Y-126653792D01*
X67167296Y-126502384D01*
X67076860Y-126296209D01*
X66953722Y-126107732D01*
X66953719Y-126107729D01*
X66953715Y-126107723D01*
X66801243Y-125942097D01*
X66801238Y-125942092D01*
X66623577Y-125803812D01*
X66623577Y-125803811D01*
X66587375Y-125784220D01*
X66580302Y-125780392D01*
X66530713Y-125731173D01*
X66515605Y-125662957D01*
X66539775Y-125597401D01*
X66568198Y-125569763D01*
X66749079Y-125443108D01*
X66916105Y-125276082D01*
X67051600Y-125082578D01*
X67151429Y-124868492D01*
X67151432Y-124868486D01*
X67208636Y-124655000D01*
X66311012Y-124655000D01*
X66343925Y-124597993D01*
X66378000Y-124470826D01*
X66378000Y-124339174D01*
X66343925Y-124212007D01*
X66311012Y-124155000D01*
X67208636Y-124155000D01*
X67208635Y-124154999D01*
X67151432Y-123941513D01*
X67151429Y-123941507D01*
X67051600Y-123727422D01*
X67051599Y-123727420D01*
X66916113Y-123533926D01*
X66916108Y-123533920D01*
X66749082Y-123366894D01*
X66562968Y-123236575D01*
X66519344Y-123181998D01*
X66512151Y-123112499D01*
X66543673Y-123050145D01*
X66562968Y-123033425D01*
X66749082Y-122903105D01*
X66916105Y-122736082D01*
X67051600Y-122542578D01*
X67151429Y-122328492D01*
X67151432Y-122328486D01*
X67208636Y-122115000D01*
X66311012Y-122115000D01*
X66343925Y-122057993D01*
X66378000Y-121930826D01*
X66378000Y-121799174D01*
X66343925Y-121672007D01*
X66311012Y-121615000D01*
X67208636Y-121615000D01*
X67208635Y-121614999D01*
X67151432Y-121401513D01*
X67151429Y-121401507D01*
X67051600Y-121187422D01*
X67051599Y-121187420D01*
X66916113Y-120993926D01*
X66916108Y-120993920D01*
X66749082Y-120826894D01*
X66568197Y-120700236D01*
X66524572Y-120645659D01*
X66517380Y-120576160D01*
X66548902Y-120513806D01*
X66580300Y-120489608D01*
X66623576Y-120466189D01*
X66801240Y-120327906D01*
X66935311Y-120182268D01*
X66953715Y-120162276D01*
X66953716Y-120162274D01*
X66953722Y-120162268D01*
X67076860Y-119973791D01*
X67167296Y-119767616D01*
X67222564Y-119549368D01*
X67225039Y-119519500D01*
X67241156Y-119325005D01*
X67241156Y-119324994D01*
X67222565Y-119100640D01*
X67222563Y-119100628D01*
X67172361Y-118902385D01*
X67167296Y-118882384D01*
X67076860Y-118676209D01*
X66953722Y-118487732D01*
X66953719Y-118487729D01*
X66953715Y-118487723D01*
X66801243Y-118322097D01*
X66801238Y-118322092D01*
X66623577Y-118183812D01*
X66623572Y-118183808D01*
X66425580Y-118076661D01*
X66425577Y-118076659D01*
X66425574Y-118076658D01*
X66425571Y-118076657D01*
X66425569Y-118076656D01*
X66212637Y-118003556D01*
X65990569Y-117966500D01*
X65765431Y-117966500D01*
X65543362Y-118003556D01*
X65330430Y-118076656D01*
X65330419Y-118076661D01*
X65132427Y-118183808D01*
X65132422Y-118183812D01*
X64954761Y-118322092D01*
X64954756Y-118322097D01*
X64802284Y-118487723D01*
X64802276Y-118487734D01*
X64679140Y-118676207D01*
X64588703Y-118882385D01*
X64533436Y-119100628D01*
X64533434Y-119100640D01*
X64514844Y-119324994D01*
X64514844Y-119325005D01*
X64533434Y-119549359D01*
X64533436Y-119549371D01*
X64588703Y-119767614D01*
X64679140Y-119973792D01*
X64802276Y-120162265D01*
X64802284Y-120162276D01*
X64954756Y-120327902D01*
X64954761Y-120327907D01*
X64980456Y-120347906D01*
X65132424Y-120466189D01*
X65169377Y-120486187D01*
X65175695Y-120489606D01*
X65225286Y-120538825D01*
X65240394Y-120607042D01*
X65216224Y-120672597D01*
X65187802Y-120700236D01*
X65006922Y-120826890D01*
X65006920Y-120826891D01*
X64839891Y-120993920D01*
X64839886Y-120993926D01*
X64704400Y-121187420D01*
X64704399Y-121187422D01*
X64604570Y-121401507D01*
X64604567Y-121401513D01*
X64547364Y-121614999D01*
X64547364Y-121615000D01*
X65444988Y-121615000D01*
X65412075Y-121672007D01*
X65378000Y-121799174D01*
X65378000Y-121930826D01*
X65412075Y-122057993D01*
X65444988Y-122115000D01*
X64547364Y-122115000D01*
X64604567Y-122328486D01*
X64604570Y-122328492D01*
X64704399Y-122542578D01*
X64839894Y-122736082D01*
X65006917Y-122903105D01*
X65193031Y-123033425D01*
X65236656Y-123088003D01*
X65243848Y-123157501D01*
X65212326Y-123219856D01*
X65193031Y-123236575D01*
X65006922Y-123366890D01*
X65006920Y-123366891D01*
X64839891Y-123533920D01*
X64839886Y-123533926D01*
X64704400Y-123727420D01*
X64704399Y-123727422D01*
X64604570Y-123941507D01*
X64604567Y-123941513D01*
X64547364Y-124154999D01*
X64547364Y-124155000D01*
X65444988Y-124155000D01*
X65412075Y-124212007D01*
X65378000Y-124339174D01*
X65378000Y-124470826D01*
X65412075Y-124597993D01*
X65444988Y-124655000D01*
X64547364Y-124655000D01*
X64604567Y-124868486D01*
X64604570Y-124868492D01*
X64704399Y-125082578D01*
X64839894Y-125276082D01*
X65006917Y-125443105D01*
X65187802Y-125569763D01*
X65231427Y-125624340D01*
X65238619Y-125693839D01*
X65207097Y-125756193D01*
X65175697Y-125780392D01*
X65132427Y-125803809D01*
X65132422Y-125803812D01*
X64954761Y-125942092D01*
X64954756Y-125942097D01*
X64802284Y-126107723D01*
X64802276Y-126107734D01*
X64679140Y-126296207D01*
X64588703Y-126502385D01*
X64533436Y-126720628D01*
X64533434Y-126720640D01*
X64514844Y-126944994D01*
X64514844Y-126945005D01*
X64533434Y-127169359D01*
X64533436Y-127169371D01*
X64588703Y-127387614D01*
X64679140Y-127593792D01*
X64802276Y-127782265D01*
X64802284Y-127782276D01*
X64947942Y-127940500D01*
X64954760Y-127947906D01*
X65132424Y-128086189D01*
X65132429Y-128086191D01*
X65132431Y-128086193D01*
X65168930Y-128105946D01*
X65218520Y-128155165D01*
X65233628Y-128223382D01*
X65209457Y-128288937D01*
X65168930Y-128324054D01*
X65132431Y-128343806D01*
X65132422Y-128343812D01*
X64954761Y-128482092D01*
X64954756Y-128482097D01*
X64802284Y-128647723D01*
X64802276Y-128647734D01*
X64679140Y-128836207D01*
X64588703Y-129042385D01*
X64533436Y-129260628D01*
X64533434Y-129260640D01*
X64514844Y-129484994D01*
X64514844Y-129485005D01*
X64533434Y-129709359D01*
X64533436Y-129709371D01*
X64588703Y-129927614D01*
X64679140Y-130133792D01*
X64802276Y-130322265D01*
X64802284Y-130322276D01*
X64954756Y-130487902D01*
X64954761Y-130487907D01*
X64991622Y-130516597D01*
X65132424Y-130626189D01*
X65132429Y-130626191D01*
X65132431Y-130626193D01*
X65168930Y-130645946D01*
X65218520Y-130695165D01*
X65233628Y-130763382D01*
X65209457Y-130828937D01*
X65168930Y-130864054D01*
X65132431Y-130883806D01*
X65132422Y-130883812D01*
X64954761Y-131022092D01*
X64954756Y-131022097D01*
X64802284Y-131187723D01*
X64802276Y-131187734D01*
X64679140Y-131376207D01*
X64588703Y-131582385D01*
X64533436Y-131800628D01*
X64533434Y-131800640D01*
X64514844Y-132024994D01*
X64514844Y-132025005D01*
X64533434Y-132249359D01*
X64533436Y-132249371D01*
X64588703Y-132467614D01*
X64679140Y-132673792D01*
X64802276Y-132862265D01*
X64802284Y-132862276D01*
X64954756Y-133027902D01*
X64954760Y-133027906D01*
X65132424Y-133166189D01*
X65132429Y-133166191D01*
X65132431Y-133166193D01*
X65168930Y-133185946D01*
X65218520Y-133235165D01*
X65233628Y-133303382D01*
X65209457Y-133368937D01*
X65168930Y-133404054D01*
X65132431Y-133423806D01*
X65132422Y-133423812D01*
X64954761Y-133562092D01*
X64954756Y-133562097D01*
X64802284Y-133727723D01*
X64802276Y-133727734D01*
X64679140Y-133916207D01*
X64588703Y-134122385D01*
X64533436Y-134340628D01*
X64533434Y-134340640D01*
X64514844Y-134564994D01*
X64514844Y-134565005D01*
X60624039Y-134565005D01*
X60609542Y-134427072D01*
X60550527Y-134245444D01*
X60455040Y-134080056D01*
X60327253Y-133938134D01*
X60172752Y-133825882D01*
X59998288Y-133748206D01*
X59998286Y-133748205D01*
X59811487Y-133708500D01*
X59620513Y-133708500D01*
X59433714Y-133748205D01*
X59259246Y-133825883D01*
X59104745Y-133938135D01*
X58976959Y-134080057D01*
X58881473Y-134245443D01*
X58881470Y-134245450D01*
X58822459Y-134427068D01*
X58822458Y-134427072D01*
X58802496Y-134617000D01*
X58822458Y-134806928D01*
X58822459Y-134806931D01*
X58881470Y-134988549D01*
X58881473Y-134988556D01*
X58976957Y-135153940D01*
X58976961Y-135153945D01*
X58990542Y-135169029D01*
X59020771Y-135232022D01*
X59012145Y-135301357D01*
X58990542Y-135334971D01*
X58976961Y-135350054D01*
X58976957Y-135350059D01*
X58881473Y-135515443D01*
X58881470Y-135515450D01*
X58824077Y-135692088D01*
X58822458Y-135697072D01*
X58802496Y-135887000D01*
X58822458Y-136076928D01*
X58822459Y-136076931D01*
X58881470Y-136258549D01*
X58881473Y-136258556D01*
X58976957Y-136423940D01*
X58976961Y-136423945D01*
X58990542Y-136439029D01*
X59020771Y-136502022D01*
X59012145Y-136571357D01*
X58990542Y-136604971D01*
X58976961Y-136620054D01*
X58976957Y-136620059D01*
X58881473Y-136785443D01*
X58881470Y-136785450D01*
X58822459Y-136967068D01*
X58822458Y-136967072D01*
X58802496Y-137157000D01*
X57454504Y-137157000D01*
X57434542Y-136967072D01*
X57375527Y-136785444D01*
X57280040Y-136620056D01*
X57266458Y-136604972D01*
X57236229Y-136541981D01*
X57244853Y-136472646D01*
X57266459Y-136439027D01*
X57280040Y-136423944D01*
X57375527Y-136258556D01*
X57434542Y-136076928D01*
X57454504Y-135887000D01*
X57434542Y-135697072D01*
X57375527Y-135515444D01*
X57280040Y-135350056D01*
X57266458Y-135334972D01*
X57236229Y-135271981D01*
X57244853Y-135202646D01*
X57266459Y-135169027D01*
X57280040Y-135153944D01*
X57375527Y-134988556D01*
X57434542Y-134806928D01*
X57454504Y-134617000D01*
X57434542Y-134427072D01*
X57375527Y-134245444D01*
X57280040Y-134080056D01*
X57152253Y-133938134D01*
X56997752Y-133825882D01*
X56823288Y-133748206D01*
X56823286Y-133748205D01*
X56636487Y-133708500D01*
X56445513Y-133708500D01*
X56258714Y-133748205D01*
X56084246Y-133825883D01*
X55929745Y-133938135D01*
X55801959Y-134080057D01*
X55706473Y-134245443D01*
X55706470Y-134245450D01*
X55647459Y-134427068D01*
X55647458Y-134427072D01*
X55627496Y-134617000D01*
X55647458Y-134806928D01*
X55647459Y-134806931D01*
X55706470Y-134988549D01*
X55706473Y-134988556D01*
X55801957Y-135153940D01*
X55801961Y-135153945D01*
X55815542Y-135169029D01*
X55845771Y-135232022D01*
X55837145Y-135301357D01*
X55815542Y-135334971D01*
X55801961Y-135350054D01*
X55801957Y-135350059D01*
X55706473Y-135515443D01*
X55706470Y-135515450D01*
X55649077Y-135692088D01*
X55647458Y-135697072D01*
X55627496Y-135887000D01*
X55647458Y-136076928D01*
X55647459Y-136076931D01*
X55706470Y-136258549D01*
X55706473Y-136258556D01*
X55801957Y-136423940D01*
X55801961Y-136423945D01*
X55815542Y-136439029D01*
X55845771Y-136502022D01*
X55837145Y-136571357D01*
X55815542Y-136604971D01*
X55801961Y-136620054D01*
X55801957Y-136620059D01*
X55706473Y-136785443D01*
X55706470Y-136785450D01*
X55647459Y-136967068D01*
X55647458Y-136967072D01*
X55627496Y-137157000D01*
X51055829Y-137157000D01*
X51015752Y-137127882D01*
X50841288Y-137050206D01*
X50841286Y-137050205D01*
X50654487Y-137010500D01*
X50463513Y-137010500D01*
X50276714Y-137050205D01*
X50102246Y-137127883D01*
X49947745Y-137240135D01*
X49819959Y-137382057D01*
X49724473Y-137547443D01*
X49724470Y-137547450D01*
X49665459Y-137729068D01*
X49665458Y-137729072D01*
X49654438Y-137833920D01*
X49645496Y-137919000D01*
X49656087Y-138019771D01*
X49643517Y-138088501D01*
X49595785Y-138139524D01*
X49583215Y-138146006D01*
X49581248Y-138146881D01*
X49426745Y-138259135D01*
X49298959Y-138401057D01*
X49203473Y-138566443D01*
X49203470Y-138566450D01*
X49144589Y-138747668D01*
X49144458Y-138748072D01*
X49124496Y-138938000D01*
X18120827Y-138938000D01*
X18143925Y-138897993D01*
X18178000Y-138770826D01*
X18178000Y-138639174D01*
X18143925Y-138512007D01*
X18111012Y-138455000D01*
X19008636Y-138455000D01*
X19008635Y-138454999D01*
X18951432Y-138241513D01*
X18951429Y-138241507D01*
X18851600Y-138027422D01*
X18851599Y-138027420D01*
X18716113Y-137833926D01*
X18716108Y-137833920D01*
X18549082Y-137666894D01*
X18368197Y-137540236D01*
X18324572Y-137485659D01*
X18317380Y-137416160D01*
X18348902Y-137353806D01*
X18380300Y-137329608D01*
X18423576Y-137306189D01*
X18601240Y-137167906D01*
X18709592Y-137050206D01*
X18753715Y-137002276D01*
X18753716Y-137002274D01*
X18753722Y-137002268D01*
X18876860Y-136813791D01*
X18967296Y-136607616D01*
X19022564Y-136389368D01*
X19033404Y-136258556D01*
X19041156Y-136165005D01*
X19041156Y-136164994D01*
X19022565Y-135940640D01*
X19022563Y-135940628D01*
X19010183Y-135891739D01*
X18967296Y-135722384D01*
X18876860Y-135516209D01*
X18876360Y-135515444D01*
X18768309Y-135350059D01*
X18753722Y-135327732D01*
X18753719Y-135327729D01*
X18753715Y-135327723D01*
X18601243Y-135162097D01*
X18601238Y-135162092D01*
X18423577Y-135023812D01*
X18423578Y-135023812D01*
X18423576Y-135023811D01*
X18387070Y-135004055D01*
X18337479Y-134954836D01*
X18322371Y-134886619D01*
X18346541Y-134821064D01*
X18387070Y-134785945D01*
X18387084Y-134785936D01*
X18423576Y-134766189D01*
X18601240Y-134627906D01*
X18753722Y-134462268D01*
X18876860Y-134273791D01*
X18967296Y-134067616D01*
X19022564Y-133849368D01*
X19032643Y-133727734D01*
X19041156Y-133625005D01*
X19041156Y-133624994D01*
X19022565Y-133400640D01*
X19022563Y-133400628D01*
X18967296Y-133182385D01*
X18960192Y-133166190D01*
X18876860Y-132976209D01*
X18753722Y-132787732D01*
X18753719Y-132787729D01*
X18753715Y-132787723D01*
X18601243Y-132622097D01*
X18601238Y-132622092D01*
X18423577Y-132483812D01*
X18423578Y-132483812D01*
X18423576Y-132483811D01*
X18387070Y-132464055D01*
X18337479Y-132414836D01*
X18322371Y-132346619D01*
X18346541Y-132281064D01*
X18387070Y-132245945D01*
X18387084Y-132245936D01*
X18423576Y-132226189D01*
X18601240Y-132087906D01*
X18753722Y-131922268D01*
X18876860Y-131733791D01*
X18967296Y-131527616D01*
X19022564Y-131309368D01*
X19022565Y-131309359D01*
X19041156Y-131085005D01*
X19041156Y-131084994D01*
X19022565Y-130860640D01*
X19022563Y-130860628D01*
X19017846Y-130842000D01*
X32741496Y-130842000D01*
X32761458Y-131031928D01*
X32761459Y-131031931D01*
X32820470Y-131213549D01*
X32820473Y-131213556D01*
X32915960Y-131378944D01*
X33043747Y-131520866D01*
X33198248Y-131633118D01*
X33372712Y-131710794D01*
X33559513Y-131750500D01*
X33750487Y-131750500D01*
X33937288Y-131710794D01*
X34111752Y-131633118D01*
X34266253Y-131520866D01*
X34388350Y-131385262D01*
X34447836Y-131348614D01*
X34517693Y-131349944D01*
X34572649Y-131385262D01*
X34694747Y-131520866D01*
X34849248Y-131633118D01*
X35023712Y-131710794D01*
X35210513Y-131750500D01*
X35401487Y-131750500D01*
X35588288Y-131710794D01*
X35762752Y-131633118D01*
X35917253Y-131520866D01*
X36045040Y-131378944D01*
X36140527Y-131213556D01*
X36199542Y-131031928D01*
X36219504Y-130842000D01*
X36199542Y-130652072D01*
X36140527Y-130470444D01*
X36045040Y-130305056D01*
X35917253Y-130163134D01*
X35762752Y-130050882D01*
X35588288Y-129973206D01*
X35588286Y-129973205D01*
X35401487Y-129933500D01*
X35210513Y-129933500D01*
X35023714Y-129973205D01*
X34959524Y-130001784D01*
X34882371Y-130036135D01*
X34849246Y-130050883D01*
X34694745Y-130163135D01*
X34572650Y-130298736D01*
X34513163Y-130335385D01*
X34443306Y-130334054D01*
X34388350Y-130298736D01*
X34266254Y-130163135D01*
X34191907Y-130109118D01*
X34111752Y-130050882D01*
X33937288Y-129973206D01*
X33937286Y-129973205D01*
X33750487Y-129933500D01*
X33559513Y-129933500D01*
X33372714Y-129973205D01*
X33308524Y-130001784D01*
X33231371Y-130036135D01*
X33198246Y-130050883D01*
X33043745Y-130163135D01*
X32915959Y-130305057D01*
X32820473Y-130470443D01*
X32820470Y-130470450D01*
X32763448Y-130645946D01*
X32761458Y-130652072D01*
X32741496Y-130842000D01*
X19017846Y-130842000D01*
X18991442Y-130737734D01*
X18967296Y-130642384D01*
X18876860Y-130436209D01*
X18875170Y-130433623D01*
X18791174Y-130305057D01*
X18753722Y-130247732D01*
X18753719Y-130247729D01*
X18753715Y-130247723D01*
X18601243Y-130082097D01*
X18601238Y-130082092D01*
X18423577Y-129943812D01*
X18423578Y-129943812D01*
X18423576Y-129943811D01*
X18387070Y-129924055D01*
X18337479Y-129874836D01*
X18322371Y-129806619D01*
X18346541Y-129741064D01*
X18387070Y-129705945D01*
X18387084Y-129705936D01*
X18423576Y-129686189D01*
X18601240Y-129547906D01*
X18753722Y-129382268D01*
X18795710Y-129318000D01*
X36424496Y-129318000D01*
X36444458Y-129507928D01*
X36444459Y-129507931D01*
X36503470Y-129689549D01*
X36503473Y-129689556D01*
X36598960Y-129854944D01*
X36726747Y-129996866D01*
X36881248Y-130109118D01*
X37055712Y-130186794D01*
X37242513Y-130226500D01*
X37433487Y-130226500D01*
X37620288Y-130186794D01*
X37794752Y-130109118D01*
X37900115Y-130032566D01*
X37965920Y-130009087D01*
X38033974Y-130024912D01*
X38045877Y-130032561D01*
X38151248Y-130109118D01*
X38325712Y-130186794D01*
X38512513Y-130226500D01*
X38703487Y-130226500D01*
X38890288Y-130186794D01*
X39064752Y-130109118D01*
X39219253Y-129996866D01*
X39275750Y-129934119D01*
X39335232Y-129897473D01*
X39405089Y-129898802D01*
X39463138Y-129937688D01*
X39490948Y-130001784D01*
X39491217Y-130004125D01*
X39492458Y-130015927D01*
X39492458Y-130015929D01*
X39551470Y-130197549D01*
X39551473Y-130197556D01*
X39646960Y-130362944D01*
X39712928Y-130436209D01*
X39759472Y-130487902D01*
X39774747Y-130504866D01*
X39929248Y-130617118D01*
X40103712Y-130694794D01*
X40143668Y-130703286D01*
X40147188Y-130704035D01*
X40208670Y-130737227D01*
X40242447Y-130798390D01*
X40244729Y-130812363D01*
X40254458Y-130904929D01*
X40254459Y-130904932D01*
X40313470Y-131086549D01*
X40313473Y-131086556D01*
X40408960Y-131251944D01*
X40536747Y-131393866D01*
X40691248Y-131506118D01*
X40865712Y-131583794D01*
X41052513Y-131623500D01*
X41243485Y-131623500D01*
X41243487Y-131623500D01*
X41283460Y-131615003D01*
X41353124Y-131620318D01*
X41408859Y-131662455D01*
X41427171Y-131697975D01*
X41456470Y-131788149D01*
X41456473Y-131788156D01*
X41551960Y-131953544D01*
X41679747Y-132095466D01*
X41834248Y-132207718D01*
X42008712Y-132285394D01*
X42195513Y-132325100D01*
X42386487Y-132325100D01*
X42573288Y-132285394D01*
X42747752Y-132207718D01*
X42902253Y-132095466D01*
X43030040Y-131953544D01*
X43125527Y-131788156D01*
X43184542Y-131606528D01*
X43204504Y-131416600D01*
X43184542Y-131226672D01*
X43125527Y-131045044D01*
X43030040Y-130879656D01*
X42902253Y-130737734D01*
X42747752Y-130625482D01*
X42573288Y-130547806D01*
X42573286Y-130547805D01*
X42386487Y-130508100D01*
X42195513Y-130508100D01*
X42155537Y-130516596D01*
X42085871Y-130511280D01*
X42030138Y-130469142D01*
X42011828Y-130433623D01*
X41982530Y-130343452D01*
X41982528Y-130343448D01*
X41982527Y-130343444D01*
X41887040Y-130178056D01*
X41759253Y-130036134D01*
X41617990Y-129933500D01*
X41604755Y-129923884D01*
X41604754Y-129923883D01*
X41604752Y-129923882D01*
X41449914Y-129854944D01*
X41430286Y-129846205D01*
X41386809Y-129836964D01*
X41325328Y-129803771D01*
X41291551Y-129742608D01*
X41289270Y-129728634D01*
X41287245Y-129709371D01*
X41279542Y-129636072D01*
X41220527Y-129454444D01*
X41125040Y-129289056D01*
X40997253Y-129147134D01*
X40842752Y-129034882D01*
X40668288Y-128957206D01*
X40668286Y-128957205D01*
X40481487Y-128917500D01*
X40290513Y-128917500D01*
X40103714Y-128957205D01*
X39929246Y-129034883D01*
X39774745Y-129147135D01*
X39718252Y-129209878D01*
X39658765Y-129246527D01*
X39588908Y-129245196D01*
X39530860Y-129206310D01*
X39503050Y-129142213D01*
X39502790Y-129139950D01*
X39501542Y-129128072D01*
X39442527Y-128946444D01*
X39347040Y-128781056D01*
X39231981Y-128653270D01*
X39219254Y-128639135D01*
X39170114Y-128603432D01*
X39064752Y-128526882D01*
X38890288Y-128449206D01*
X38890286Y-128449205D01*
X38703487Y-128409500D01*
X38512513Y-128409500D01*
X38325714Y-128449205D01*
X38151243Y-128526884D01*
X38045885Y-128603432D01*
X37980079Y-128626912D01*
X37912025Y-128611086D01*
X37900115Y-128603432D01*
X37794756Y-128526884D01*
X37794752Y-128526882D01*
X37620288Y-128449206D01*
X37620286Y-128449205D01*
X37433487Y-128409500D01*
X37242513Y-128409500D01*
X37055714Y-128449205D01*
X36881246Y-128526883D01*
X36726745Y-128639135D01*
X36598959Y-128781057D01*
X36503473Y-128946443D01*
X36503470Y-128946450D01*
X36444459Y-129128068D01*
X36444458Y-129128072D01*
X36424496Y-129318000D01*
X18795710Y-129318000D01*
X18876860Y-129193791D01*
X18967296Y-128987616D01*
X19022564Y-128769368D01*
X19022565Y-128769359D01*
X19041156Y-128545005D01*
X19041156Y-128544994D01*
X19022565Y-128320640D01*
X19022563Y-128320628D01*
X18967296Y-128102385D01*
X18960192Y-128086190D01*
X18876860Y-127896209D01*
X18753722Y-127707732D01*
X18753719Y-127707729D01*
X18753715Y-127707723D01*
X18601243Y-127542097D01*
X18601238Y-127542092D01*
X18423577Y-127403812D01*
X18423578Y-127403812D01*
X18423576Y-127403811D01*
X18387070Y-127384055D01*
X18337479Y-127334836D01*
X18322371Y-127266619D01*
X18346541Y-127201064D01*
X18387070Y-127165945D01*
X18387084Y-127165936D01*
X18423576Y-127146189D01*
X18570284Y-127032000D01*
X22200496Y-127032000D01*
X22220458Y-127221928D01*
X22220459Y-127221931D01*
X22279470Y-127403549D01*
X22279473Y-127403556D01*
X22374960Y-127568944D01*
X22502747Y-127710866D01*
X22657248Y-127823118D01*
X22831712Y-127900794D01*
X23018513Y-127940500D01*
X23209487Y-127940500D01*
X23396288Y-127900794D01*
X23570752Y-127823118D01*
X23725253Y-127710866D01*
X23853040Y-127568944D01*
X23948527Y-127403556D01*
X24007542Y-127221928D01*
X24027504Y-127032000D01*
X24007542Y-126842072D01*
X23991435Y-126792503D01*
X23989441Y-126722664D01*
X24025521Y-126662831D01*
X24088222Y-126632002D01*
X24135148Y-126632896D01*
X24161513Y-126638500D01*
X24352487Y-126638500D01*
X24539288Y-126598794D01*
X24707279Y-126524000D01*
X33122496Y-126524000D01*
X33142458Y-126713928D01*
X33142459Y-126713931D01*
X33201470Y-126895549D01*
X33201473Y-126895556D01*
X33296960Y-127060944D01*
X33424747Y-127202866D01*
X33579248Y-127315118D01*
X33753712Y-127392794D01*
X33940513Y-127432500D01*
X34131487Y-127432500D01*
X34318288Y-127392794D01*
X34492752Y-127315118D01*
X34647253Y-127202866D01*
X34775040Y-127060944D01*
X34870527Y-126895556D01*
X34929542Y-126713928D01*
X34949504Y-126524000D01*
X34929542Y-126334072D01*
X34870527Y-126152444D01*
X34775040Y-125987056D01*
X34647253Y-125845134D01*
X34492752Y-125732882D01*
X34318288Y-125655206D01*
X34318286Y-125655205D01*
X34131487Y-125615500D01*
X33940513Y-125615500D01*
X33753714Y-125655205D01*
X33753712Y-125655206D01*
X33583087Y-125731173D01*
X33579246Y-125732883D01*
X33424745Y-125845135D01*
X33296959Y-125987057D01*
X33201473Y-126152443D01*
X33201470Y-126152450D01*
X33142459Y-126334068D01*
X33142458Y-126334072D01*
X33122496Y-126524000D01*
X24707279Y-126524000D01*
X24713752Y-126521118D01*
X24868253Y-126408866D01*
X24996040Y-126266944D01*
X25091527Y-126101556D01*
X25150542Y-125919928D01*
X25170504Y-125730000D01*
X25150542Y-125540072D01*
X25091527Y-125358444D01*
X24996040Y-125193056D01*
X24868253Y-125051134D01*
X24713752Y-124938882D01*
X24539288Y-124861206D01*
X24539286Y-124861205D01*
X24352487Y-124821500D01*
X24161513Y-124821500D01*
X23974714Y-124861205D01*
X23800246Y-124938883D01*
X23645745Y-125051135D01*
X23517959Y-125193057D01*
X23422473Y-125358443D01*
X23422470Y-125358450D01*
X23363459Y-125540068D01*
X23363458Y-125540072D01*
X23343496Y-125730000D01*
X23363458Y-125919928D01*
X23363459Y-125919931D01*
X23379563Y-125969495D01*
X23381558Y-126039337D01*
X23345477Y-126099169D01*
X23282776Y-126129997D01*
X23235854Y-126129104D01*
X23217241Y-126125148D01*
X23209487Y-126123500D01*
X23018513Y-126123500D01*
X22831714Y-126163205D01*
X22657246Y-126240883D01*
X22502745Y-126353135D01*
X22374959Y-126495057D01*
X22279473Y-126660443D01*
X22279470Y-126660450D01*
X22259256Y-126722664D01*
X22220458Y-126842072D01*
X22200496Y-127032000D01*
X18570284Y-127032000D01*
X18601240Y-127007906D01*
X18753722Y-126842268D01*
X18876860Y-126653791D01*
X18967296Y-126447616D01*
X19022564Y-126229368D01*
X19024979Y-126200228D01*
X19041156Y-126005005D01*
X19041156Y-126004994D01*
X19022565Y-125780640D01*
X19022563Y-125780628D01*
X19000585Y-125693839D01*
X18967296Y-125562384D01*
X18876860Y-125356209D01*
X18824510Y-125276082D01*
X18815291Y-125261970D01*
X18753722Y-125167732D01*
X18753719Y-125167729D01*
X18753715Y-125167723D01*
X18608510Y-125009991D01*
X18577587Y-124947337D01*
X18585447Y-124877911D01*
X18629594Y-124823755D01*
X18656405Y-124809827D01*
X18736584Y-124779920D01*
X18774204Y-124765889D01*
X18891261Y-124678261D01*
X18978889Y-124561204D01*
X19029989Y-124424201D01*
X19033591Y-124390692D01*
X19036499Y-124363654D01*
X19036500Y-124363637D01*
X19036500Y-122566362D01*
X19036499Y-122566345D01*
X19033157Y-122535270D01*
X19029989Y-122505799D01*
X19006118Y-122441798D01*
X19001133Y-122372106D01*
X19014910Y-122336466D01*
X19059027Y-122260056D01*
X19118042Y-122078428D01*
X19138004Y-121888500D01*
X19118042Y-121698572D01*
X19059027Y-121516944D01*
X18963540Y-121351556D01*
X18835753Y-121209634D01*
X18681252Y-121097382D01*
X18506788Y-121019706D01*
X18506786Y-121019705D01*
X18319987Y-120980000D01*
X18129013Y-120980000D01*
X17942214Y-121019705D01*
X17938057Y-121021556D01*
X17823747Y-121072450D01*
X17767746Y-121097383D01*
X17613245Y-121209635D01*
X17485459Y-121351557D01*
X17389973Y-121516943D01*
X17389970Y-121516950D01*
X17330959Y-121698568D01*
X17330958Y-121698572D01*
X17310996Y-121888500D01*
X17319513Y-121969540D01*
X17306945Y-122038268D01*
X17259213Y-122089292D01*
X17196193Y-122106500D01*
X16779345Y-122106500D01*
X16718797Y-122113011D01*
X16718795Y-122113011D01*
X16581795Y-122164111D01*
X16464739Y-122251739D01*
X16377111Y-122368795D01*
X16326011Y-122505795D01*
X16326011Y-122505797D01*
X16319500Y-122566345D01*
X16319500Y-124363654D01*
X16326011Y-124424202D01*
X16326011Y-124424204D01*
X16343401Y-124470826D01*
X16377111Y-124561204D01*
X16464739Y-124678261D01*
X16581796Y-124765889D01*
X16633737Y-124785262D01*
X16699595Y-124809827D01*
X16755528Y-124851699D01*
X16779944Y-124917163D01*
X16765092Y-124985436D01*
X16747490Y-125009991D01*
X16602279Y-125167730D01*
X16602276Y-125167734D01*
X16479140Y-125356207D01*
X16388703Y-125562385D01*
X16333436Y-125780628D01*
X16333434Y-125780640D01*
X16314844Y-126004994D01*
X16314844Y-126005005D01*
X16333434Y-126229359D01*
X16333436Y-126229371D01*
X16388703Y-126447614D01*
X16479140Y-126653792D01*
X16602276Y-126842265D01*
X16602284Y-126842276D01*
X16754756Y-127007902D01*
X16754761Y-127007907D01*
X16813981Y-127054000D01*
X16932424Y-127146189D01*
X16932429Y-127146191D01*
X16932431Y-127146193D01*
X16968930Y-127165946D01*
X17018520Y-127215165D01*
X17033628Y-127283382D01*
X17009457Y-127348937D01*
X16968930Y-127384054D01*
X16932431Y-127403806D01*
X16932422Y-127403812D01*
X16754761Y-127542092D01*
X16754756Y-127542097D01*
X16602284Y-127707723D01*
X16602276Y-127707734D01*
X16479140Y-127896207D01*
X16388703Y-128102385D01*
X16333436Y-128320628D01*
X16333434Y-128320640D01*
X16314844Y-128544994D01*
X16314844Y-128545005D01*
X16333434Y-128769359D01*
X16333436Y-128769371D01*
X16388703Y-128987614D01*
X16479140Y-129193792D01*
X16602276Y-129382265D01*
X16602284Y-129382276D01*
X16754756Y-129547902D01*
X16754760Y-129547906D01*
X16932424Y-129686189D01*
X16932429Y-129686191D01*
X16932431Y-129686193D01*
X16968930Y-129705946D01*
X17018520Y-129755165D01*
X17033628Y-129823382D01*
X17009457Y-129888937D01*
X16968930Y-129924054D01*
X16932431Y-129943806D01*
X16932422Y-129943812D01*
X16754761Y-130082092D01*
X16754756Y-130082097D01*
X16602284Y-130247723D01*
X16602276Y-130247734D01*
X16479140Y-130436207D01*
X16388703Y-130642385D01*
X16333436Y-130860628D01*
X16333434Y-130860640D01*
X16314844Y-131084994D01*
X16314844Y-131085005D01*
X16333434Y-131309359D01*
X16333436Y-131309371D01*
X16388703Y-131527614D01*
X16479140Y-131733792D01*
X16602276Y-131922265D01*
X16602284Y-131922276D01*
X16754756Y-132087902D01*
X16754760Y-132087906D01*
X16932424Y-132226189D01*
X16932429Y-132226191D01*
X16932431Y-132226193D01*
X16968930Y-132245946D01*
X17018520Y-132295165D01*
X17033628Y-132363382D01*
X17009457Y-132428937D01*
X16968930Y-132464054D01*
X16932431Y-132483806D01*
X16932422Y-132483812D01*
X16754761Y-132622092D01*
X16754756Y-132622097D01*
X16602284Y-132787723D01*
X16602276Y-132787734D01*
X16479140Y-132976207D01*
X16388703Y-133182385D01*
X16333436Y-133400628D01*
X16333434Y-133400640D01*
X16314844Y-133624994D01*
X16314844Y-133625005D01*
X16333434Y-133849359D01*
X16333436Y-133849371D01*
X16388703Y-134067614D01*
X16479140Y-134273792D01*
X16602276Y-134462265D01*
X16602284Y-134462276D01*
X16744720Y-134617000D01*
X16754760Y-134627906D01*
X16932424Y-134766189D01*
X16932429Y-134766191D01*
X16932431Y-134766193D01*
X16968930Y-134785946D01*
X17018520Y-134835165D01*
X17033628Y-134903382D01*
X17009457Y-134968937D01*
X16968930Y-135004054D01*
X16932431Y-135023806D01*
X16932422Y-135023812D01*
X16754761Y-135162092D01*
X16754756Y-135162097D01*
X16602284Y-135327723D01*
X16602276Y-135327734D01*
X16479140Y-135516207D01*
X16388703Y-135722385D01*
X16333436Y-135940628D01*
X16333434Y-135940640D01*
X16314844Y-136164994D01*
X16314844Y-136165005D01*
X16333434Y-136389359D01*
X16333436Y-136389371D01*
X16388703Y-136607614D01*
X16479140Y-136813792D01*
X16602276Y-137002265D01*
X16602284Y-137002276D01*
X16744720Y-137157000D01*
X16754760Y-137167906D01*
X16932424Y-137306189D01*
X16975693Y-137329605D01*
X16975695Y-137329606D01*
X17025286Y-137378825D01*
X17040394Y-137447042D01*
X17016224Y-137512597D01*
X16987802Y-137540236D01*
X16806922Y-137666890D01*
X16806920Y-137666891D01*
X16639891Y-137833920D01*
X16639886Y-137833926D01*
X16504400Y-138027420D01*
X16504399Y-138027422D01*
X16404570Y-138241507D01*
X16404567Y-138241513D01*
X16347364Y-138454999D01*
X16347364Y-138455000D01*
X17244988Y-138455000D01*
X17212075Y-138512007D01*
X17178000Y-138639174D01*
X17178000Y-138770826D01*
X17212075Y-138897993D01*
X17244988Y-138955000D01*
X16347364Y-138955000D01*
X16404567Y-139168486D01*
X16404570Y-139168492D01*
X16504399Y-139382578D01*
X16639894Y-139576082D01*
X16806917Y-139743105D01*
X16987802Y-139869763D01*
X17031427Y-139924340D01*
X17038619Y-139993839D01*
X17007097Y-140056193D01*
X16975697Y-140080392D01*
X16932427Y-140103809D01*
X16932422Y-140103812D01*
X16754761Y-140242092D01*
X16754756Y-140242097D01*
X16602284Y-140407723D01*
X16602276Y-140407734D01*
X16479140Y-140596207D01*
X16388703Y-140802385D01*
X16333436Y-141020628D01*
X16333434Y-141020640D01*
X16314844Y-141244994D01*
X16314844Y-141245005D01*
X16333434Y-141469359D01*
X16333436Y-141469371D01*
X16388703Y-141687614D01*
X16479140Y-141893792D01*
X16602276Y-142082265D01*
X16602284Y-142082276D01*
X16754756Y-142247902D01*
X16754761Y-142247907D01*
X16813981Y-142294000D01*
X16932424Y-142386189D01*
X16932429Y-142386191D01*
X16932431Y-142386193D01*
X16968930Y-142405946D01*
X17018520Y-142455165D01*
X17033628Y-142523382D01*
X17009457Y-142588937D01*
X16968930Y-142624054D01*
X16932431Y-142643806D01*
X16932422Y-142643812D01*
X16754761Y-142782092D01*
X16754756Y-142782097D01*
X16602284Y-142947723D01*
X16602276Y-142947734D01*
X16479140Y-143136207D01*
X16388703Y-143342385D01*
X16333436Y-143560628D01*
X16333434Y-143560640D01*
X16314844Y-143784994D01*
X16314844Y-143785005D01*
X16333434Y-144009359D01*
X16333436Y-144009371D01*
X16388703Y-144227614D01*
X16479140Y-144433792D01*
X16602276Y-144622265D01*
X16602284Y-144622276D01*
X16754756Y-144787902D01*
X16754760Y-144787906D01*
X16932424Y-144926189D01*
X16932429Y-144926191D01*
X16932431Y-144926193D01*
X16968930Y-144945946D01*
X17018520Y-144995165D01*
X17033628Y-145063382D01*
X17009457Y-145128937D01*
X16968930Y-145164054D01*
X16932431Y-145183806D01*
X16932422Y-145183812D01*
X16754761Y-145322092D01*
X16754756Y-145322097D01*
X16602284Y-145487723D01*
X16602276Y-145487734D01*
X16479140Y-145676207D01*
X16388703Y-145882385D01*
X16333436Y-146100628D01*
X16333434Y-146100640D01*
X16314844Y-146324994D01*
X16314844Y-146325005D01*
X12192000Y-146325005D01*
X12192000Y-119345005D01*
X16314844Y-119345005D01*
X16333434Y-119569359D01*
X16333436Y-119569371D01*
X16388703Y-119787614D01*
X16479140Y-119993792D01*
X16602276Y-120182265D01*
X16602284Y-120182276D01*
X16736349Y-120327907D01*
X16754760Y-120347906D01*
X16932424Y-120486189D01*
X16932425Y-120486189D01*
X16932427Y-120486191D01*
X17023543Y-120535500D01*
X17130426Y-120593342D01*
X17343365Y-120666444D01*
X17565431Y-120703500D01*
X17790569Y-120703500D01*
X18012635Y-120666444D01*
X18060535Y-120650000D01*
X24740496Y-120650000D01*
X24760458Y-120839928D01*
X24760459Y-120839931D01*
X24819470Y-121021549D01*
X24819473Y-121021556D01*
X24914960Y-121186944D01*
X25042747Y-121328866D01*
X25197248Y-121441118D01*
X25371712Y-121518794D01*
X25558513Y-121558500D01*
X25749487Y-121558500D01*
X25936288Y-121518794D01*
X26104279Y-121444000D01*
X36297496Y-121444000D01*
X36317458Y-121633928D01*
X36317459Y-121633931D01*
X36376470Y-121815549D01*
X36376473Y-121815556D01*
X36471960Y-121980944D01*
X36559735Y-122078428D01*
X36590873Y-122113011D01*
X36599747Y-122122866D01*
X36754248Y-122235118D01*
X36928712Y-122312794D01*
X37115513Y-122352500D01*
X37306487Y-122352500D01*
X37493288Y-122312794D01*
X37667752Y-122235118D01*
X37822253Y-122122866D01*
X37950040Y-121980944D01*
X38045527Y-121815556D01*
X38104542Y-121633928D01*
X38124504Y-121444000D01*
X38104542Y-121254072D01*
X38083724Y-121190000D01*
X44298496Y-121190000D01*
X44318458Y-121379928D01*
X44318459Y-121379931D01*
X44377470Y-121561549D01*
X44377473Y-121561556D01*
X44472960Y-121726944D01*
X44600747Y-121868866D01*
X44755248Y-121981118D01*
X44929712Y-122058794D01*
X45116513Y-122098500D01*
X45307487Y-122098500D01*
X45494288Y-122058794D01*
X45668752Y-121981118D01*
X45823253Y-121868866D01*
X45951040Y-121726944D01*
X46046527Y-121561556D01*
X46105542Y-121379928D01*
X46125504Y-121190000D01*
X46105542Y-121000072D01*
X46046527Y-120818444D01*
X45951040Y-120653056D01*
X45823253Y-120511134D01*
X45708829Y-120428000D01*
X47854496Y-120428000D01*
X47874458Y-120617928D01*
X47874459Y-120617931D01*
X47933470Y-120799549D01*
X47933473Y-120799556D01*
X48028960Y-120964944D01*
X48079934Y-121021556D01*
X48148207Y-121097382D01*
X48156747Y-121106866D01*
X48311248Y-121219118D01*
X48485712Y-121296794D01*
X48672513Y-121336500D01*
X48863487Y-121336500D01*
X49050288Y-121296794D01*
X49224752Y-121219118D01*
X49379253Y-121106866D01*
X49507040Y-120964944D01*
X49602527Y-120799556D01*
X49661542Y-120617928D01*
X49681504Y-120428000D01*
X49661542Y-120238072D01*
X49602527Y-120056444D01*
X49507040Y-119891056D01*
X49379253Y-119749134D01*
X49224752Y-119636882D01*
X49050288Y-119559206D01*
X49050286Y-119559205D01*
X48863487Y-119519500D01*
X48672513Y-119519500D01*
X48485714Y-119559205D01*
X48311246Y-119636883D01*
X48156745Y-119749135D01*
X48028959Y-119891057D01*
X47933473Y-120056443D01*
X47933470Y-120056450D01*
X47892587Y-120182276D01*
X47874458Y-120238072D01*
X47854496Y-120428000D01*
X45708829Y-120428000D01*
X45668752Y-120398882D01*
X45494288Y-120321206D01*
X45494286Y-120321205D01*
X45307487Y-120281500D01*
X45116513Y-120281500D01*
X44929714Y-120321205D01*
X44755246Y-120398883D01*
X44600745Y-120511135D01*
X44472959Y-120653057D01*
X44377473Y-120818443D01*
X44377470Y-120818450D01*
X44320457Y-120993920D01*
X44318458Y-121000072D01*
X44298496Y-121190000D01*
X38083724Y-121190000D01*
X38045527Y-121072444D01*
X37950040Y-120907056D01*
X37822253Y-120765134D01*
X37667752Y-120652882D01*
X37493288Y-120575206D01*
X37493286Y-120575205D01*
X37306487Y-120535500D01*
X37115513Y-120535500D01*
X36928714Y-120575205D01*
X36754246Y-120652883D01*
X36599745Y-120765135D01*
X36471959Y-120907057D01*
X36376473Y-121072443D01*
X36376470Y-121072450D01*
X36328816Y-121219116D01*
X36317458Y-121254072D01*
X36297496Y-121444000D01*
X26104279Y-121444000D01*
X26110752Y-121441118D01*
X26265253Y-121328866D01*
X26393040Y-121186944D01*
X26488527Y-121021556D01*
X26547542Y-120839928D01*
X26567504Y-120650000D01*
X26547542Y-120460072D01*
X26488527Y-120278444D01*
X26393040Y-120113056D01*
X26265253Y-119971134D01*
X26110752Y-119858882D01*
X25936288Y-119781206D01*
X25936286Y-119781205D01*
X25749487Y-119741500D01*
X25558513Y-119741500D01*
X25371714Y-119781205D01*
X25197246Y-119858883D01*
X25042745Y-119971135D01*
X24914959Y-120113057D01*
X24819473Y-120278443D01*
X24819470Y-120278450D01*
X24760459Y-120460068D01*
X24760458Y-120460072D01*
X24740496Y-120650000D01*
X18060535Y-120650000D01*
X18225574Y-120593342D01*
X18423576Y-120486189D01*
X18601240Y-120347906D01*
X18753722Y-120182268D01*
X18876860Y-119993791D01*
X18967296Y-119787616D01*
X19022564Y-119569368D01*
X19024221Y-119549371D01*
X19041156Y-119345005D01*
X19041156Y-119344994D01*
X19022565Y-119120640D01*
X19022563Y-119120628D01*
X18967705Y-118904000D01*
X50140496Y-118904000D01*
X50160458Y-119093928D01*
X50160459Y-119093931D01*
X50219470Y-119275549D01*
X50219473Y-119275556D01*
X50314960Y-119440944D01*
X50442747Y-119582866D01*
X50597248Y-119695118D01*
X50771712Y-119772794D01*
X50958513Y-119812500D01*
X51149487Y-119812500D01*
X51336288Y-119772794D01*
X51510752Y-119695118D01*
X51665253Y-119582866D01*
X51793040Y-119440944D01*
X51888527Y-119275556D01*
X51947542Y-119093928D01*
X51967504Y-118904000D01*
X51947542Y-118714072D01*
X51888527Y-118532444D01*
X51850924Y-118467315D01*
X51834452Y-118399416D01*
X51857305Y-118333389D01*
X51912226Y-118290198D01*
X51932524Y-118284028D01*
X52069813Y-118254846D01*
X52098284Y-118248795D01*
X52098284Y-118248794D01*
X52098288Y-118248794D01*
X52272752Y-118171118D01*
X52427253Y-118058866D01*
X52555040Y-117916944D01*
X52650527Y-117751556D01*
X52709542Y-117569928D01*
X52729504Y-117380000D01*
X52709542Y-117190072D01*
X52650527Y-117008444D01*
X52555040Y-116843056D01*
X52427253Y-116701134D01*
X52272752Y-116588882D01*
X52098288Y-116511206D01*
X52098286Y-116511205D01*
X51911487Y-116471500D01*
X51720513Y-116471500D01*
X51533714Y-116511205D01*
X51359246Y-116588883D01*
X51204745Y-116701135D01*
X51076959Y-116843057D01*
X50981473Y-117008443D01*
X50981470Y-117008450D01*
X50922459Y-117190068D01*
X50922458Y-117190072D01*
X50902496Y-117380000D01*
X50922458Y-117569928D01*
X50922459Y-117569931D01*
X50981470Y-117751549D01*
X50981473Y-117751556D01*
X51019074Y-117816683D01*
X51035547Y-117884584D01*
X51012694Y-117950611D01*
X50957773Y-117993801D01*
X50937468Y-117999973D01*
X50771714Y-118035205D01*
X50597246Y-118112883D01*
X50442745Y-118225135D01*
X50314959Y-118367057D01*
X50219473Y-118532443D01*
X50219470Y-118532450D01*
X50166262Y-118696209D01*
X50160458Y-118714072D01*
X50140496Y-118904000D01*
X18967705Y-118904000D01*
X18967296Y-118902385D01*
X18958523Y-118882385D01*
X18876860Y-118696209D01*
X18863793Y-118676209D01*
X18753723Y-118507734D01*
X18753715Y-118507723D01*
X18601243Y-118342097D01*
X18601238Y-118342092D01*
X18423577Y-118203812D01*
X18423578Y-118203812D01*
X18423576Y-118203811D01*
X18387070Y-118184055D01*
X18337479Y-118134836D01*
X18322371Y-118066619D01*
X18346541Y-118001064D01*
X18387070Y-117965945D01*
X18387084Y-117965936D01*
X18423576Y-117946189D01*
X18601240Y-117807906D01*
X18753722Y-117642268D01*
X18876860Y-117453791D01*
X18967296Y-117247616D01*
X19022564Y-117029368D01*
X19022565Y-117029359D01*
X19041156Y-116805005D01*
X19041156Y-116804994D01*
X19025661Y-116618000D01*
X35408496Y-116618000D01*
X35428458Y-116807928D01*
X35428459Y-116807931D01*
X35487470Y-116989549D01*
X35487473Y-116989556D01*
X35582960Y-117154944D01*
X35710747Y-117296866D01*
X35865248Y-117409118D01*
X36039712Y-117486794D01*
X36226513Y-117526500D01*
X36417487Y-117526500D01*
X36529075Y-117502781D01*
X36598742Y-117508097D01*
X36654476Y-117550234D01*
X36678581Y-117615814D01*
X36678359Y-117627502D01*
X36678496Y-117627502D01*
X36678496Y-117633997D01*
X36678496Y-117634000D01*
X36698458Y-117823928D01*
X36698459Y-117823931D01*
X36757470Y-118005549D01*
X36757473Y-118005556D01*
X36852960Y-118170944D01*
X36980747Y-118312866D01*
X37135248Y-118425118D01*
X37309712Y-118502794D01*
X37496513Y-118542500D01*
X37687487Y-118542500D01*
X37874288Y-118502794D01*
X38048752Y-118425118D01*
X38203253Y-118312866D01*
X38331040Y-118170944D01*
X38426527Y-118005556D01*
X38485542Y-117823928D01*
X38505504Y-117634000D01*
X38485542Y-117444072D01*
X38450685Y-117336793D01*
X38983916Y-117336793D01*
X39003878Y-117526721D01*
X39003879Y-117526724D01*
X39062890Y-117708342D01*
X39062893Y-117708349D01*
X39158380Y-117873737D01*
X39286167Y-118015659D01*
X39440668Y-118127911D01*
X39615132Y-118205587D01*
X39801933Y-118245293D01*
X39992907Y-118245293D01*
X40179708Y-118205587D01*
X40354172Y-118127911D01*
X40508673Y-118015659D01*
X40538109Y-117982966D01*
X40597593Y-117946319D01*
X40667450Y-117947648D01*
X40722406Y-117982965D01*
X40790747Y-118058866D01*
X40945248Y-118171118D01*
X41119712Y-118248794D01*
X41306513Y-118288500D01*
X41497487Y-118288500D01*
X41684288Y-118248794D01*
X41858752Y-118171118D01*
X42013253Y-118058866D01*
X42141040Y-117916944D01*
X42236527Y-117751556D01*
X42295542Y-117569928D01*
X42315504Y-117380000D01*
X45314496Y-117380000D01*
X45334458Y-117569928D01*
X45334459Y-117569931D01*
X45393470Y-117751549D01*
X45393473Y-117751556D01*
X45488960Y-117916944D01*
X45616747Y-118058866D01*
X45771248Y-118171118D01*
X45945712Y-118248794D01*
X46132513Y-118288500D01*
X46323487Y-118288500D01*
X46510288Y-118248794D01*
X46684752Y-118171118D01*
X46839253Y-118058866D01*
X46967040Y-117916944D01*
X47062527Y-117751556D01*
X47121542Y-117569928D01*
X47141504Y-117380000D01*
X47121542Y-117190072D01*
X47062527Y-117008444D01*
X46967040Y-116843056D01*
X46839253Y-116701134D01*
X46684752Y-116588882D01*
X46510288Y-116511206D01*
X46510286Y-116511205D01*
X46323487Y-116471500D01*
X46132513Y-116471500D01*
X45945714Y-116511205D01*
X45771246Y-116588883D01*
X45616745Y-116701135D01*
X45488959Y-116843057D01*
X45393473Y-117008443D01*
X45393470Y-117008450D01*
X45334459Y-117190068D01*
X45334458Y-117190072D01*
X45314496Y-117380000D01*
X42315504Y-117380000D01*
X42295542Y-117190072D01*
X42236527Y-117008444D01*
X42141040Y-116843056D01*
X42013253Y-116701134D01*
X41858752Y-116588882D01*
X41684288Y-116511206D01*
X41684286Y-116511205D01*
X41497487Y-116471500D01*
X41306513Y-116471500D01*
X41119714Y-116511205D01*
X40945246Y-116588883D01*
X40790744Y-116701136D01*
X40761311Y-116733825D01*
X40701824Y-116770473D01*
X40631967Y-116769142D01*
X40577013Y-116733825D01*
X40508675Y-116657928D01*
X40354173Y-116545676D01*
X40354172Y-116545675D01*
X40179708Y-116467999D01*
X40179706Y-116467998D01*
X39992907Y-116428293D01*
X39801933Y-116428293D01*
X39615134Y-116467998D01*
X39440666Y-116545676D01*
X39286165Y-116657928D01*
X39158379Y-116799850D01*
X39062893Y-116965236D01*
X39062890Y-116965243D01*
X39003879Y-117146861D01*
X39003878Y-117146865D01*
X38983916Y-117336793D01*
X38450685Y-117336793D01*
X38426527Y-117262444D01*
X38331040Y-117097056D01*
X38203253Y-116955134D01*
X38048752Y-116842882D01*
X37874288Y-116765206D01*
X37874286Y-116765205D01*
X37687487Y-116725500D01*
X37496513Y-116725500D01*
X37415380Y-116742745D01*
X37384923Y-116749219D01*
X37315256Y-116743902D01*
X37259523Y-116701764D01*
X37235418Y-116636184D01*
X37235642Y-116624499D01*
X37235504Y-116624499D01*
X37235504Y-116618003D01*
X37235504Y-116618000D01*
X37215542Y-116428072D01*
X37156527Y-116246444D01*
X37061040Y-116081056D01*
X36958995Y-115967723D01*
X36933108Y-115938972D01*
X36902878Y-115875980D01*
X36911504Y-115806645D01*
X36933108Y-115773028D01*
X36974628Y-115726913D01*
X37061040Y-115630944D01*
X37156527Y-115465556D01*
X37215542Y-115283928D01*
X37235504Y-115094000D01*
X37215542Y-114904072D01*
X37156527Y-114722444D01*
X37118924Y-114657315D01*
X37102452Y-114589416D01*
X37125305Y-114523389D01*
X37180226Y-114480198D01*
X37200524Y-114474028D01*
X37337813Y-114444846D01*
X37366284Y-114438795D01*
X37366284Y-114438794D01*
X37366288Y-114438794D01*
X37540752Y-114361118D01*
X37695253Y-114248866D01*
X37823040Y-114106944D01*
X37918527Y-113941556D01*
X37977542Y-113759928D01*
X37997504Y-113570000D01*
X37977542Y-113380072D01*
X37918527Y-113198444D01*
X37823040Y-113033056D01*
X37734750Y-112935000D01*
X46838496Y-112935000D01*
X46858458Y-113124928D01*
X46858459Y-113124931D01*
X46917470Y-113306549D01*
X46917473Y-113306556D01*
X47012960Y-113471944D01*
X47140747Y-113613866D01*
X47295248Y-113726118D01*
X47469712Y-113803794D01*
X47656513Y-113843500D01*
X47847487Y-113843500D01*
X48034288Y-113803794D01*
X48208752Y-113726118D01*
X48363253Y-113613866D01*
X48491040Y-113471944D01*
X48586527Y-113306556D01*
X48645542Y-113124928D01*
X48665504Y-112935000D01*
X48645542Y-112745072D01*
X48586527Y-112563444D01*
X48491040Y-112398056D01*
X48363253Y-112256134D01*
X48208752Y-112143882D01*
X48034288Y-112066206D01*
X48034286Y-112066205D01*
X47847487Y-112026500D01*
X47656513Y-112026500D01*
X47469714Y-112066205D01*
X47295246Y-112143883D01*
X47140745Y-112256135D01*
X47012959Y-112398057D01*
X46917473Y-112563443D01*
X46917470Y-112563450D01*
X46858459Y-112745068D01*
X46858458Y-112745072D01*
X46838496Y-112935000D01*
X37734750Y-112935000D01*
X37695253Y-112891134D01*
X37540752Y-112778882D01*
X37366288Y-112701206D01*
X37366286Y-112701205D01*
X37179487Y-112661500D01*
X36988513Y-112661500D01*
X36801714Y-112701205D01*
X36627246Y-112778883D01*
X36472745Y-112891135D01*
X36344959Y-113033057D01*
X36249473Y-113198443D01*
X36249470Y-113198450D01*
X36190459Y-113380068D01*
X36190458Y-113380072D01*
X36170496Y-113570000D01*
X36190458Y-113759928D01*
X36190459Y-113759931D01*
X36249470Y-113941549D01*
X36249473Y-113941556D01*
X36287074Y-114006683D01*
X36303547Y-114074584D01*
X36280694Y-114140611D01*
X36225773Y-114183801D01*
X36205468Y-114189973D01*
X36039714Y-114225205D01*
X35865246Y-114302883D01*
X35710745Y-114415135D01*
X35582959Y-114557057D01*
X35487473Y-114722443D01*
X35487470Y-114722450D01*
X35428459Y-114904068D01*
X35428458Y-114904072D01*
X35408496Y-115094000D01*
X35428458Y-115283928D01*
X35428459Y-115283931D01*
X35487470Y-115465549D01*
X35487473Y-115465556D01*
X35582960Y-115630944D01*
X35644449Y-115699235D01*
X35710892Y-115773028D01*
X35741122Y-115836020D01*
X35732496Y-115905355D01*
X35710892Y-115938972D01*
X35582959Y-116081057D01*
X35487473Y-116246443D01*
X35487470Y-116246450D01*
X35449801Y-116362385D01*
X35428458Y-116428072D01*
X35408496Y-116618000D01*
X19025661Y-116618000D01*
X19022565Y-116580640D01*
X19022563Y-116580628D01*
X18967296Y-116362385D01*
X18876859Y-116156207D01*
X18753723Y-115967734D01*
X18753715Y-115967723D01*
X18601243Y-115802097D01*
X18601238Y-115802092D01*
X18423577Y-115663812D01*
X18423578Y-115663812D01*
X18423576Y-115663811D01*
X18387070Y-115644055D01*
X18337479Y-115594836D01*
X18322371Y-115526619D01*
X18346541Y-115461064D01*
X18387070Y-115425945D01*
X18387084Y-115425936D01*
X18423576Y-115406189D01*
X18601240Y-115267906D01*
X18753722Y-115102268D01*
X18876860Y-114913791D01*
X18964934Y-114713000D01*
X31090496Y-114713000D01*
X31110458Y-114902928D01*
X31110459Y-114902931D01*
X31169470Y-115084549D01*
X31169473Y-115084556D01*
X31264960Y-115249944D01*
X31392747Y-115391866D01*
X31547248Y-115504118D01*
X31721712Y-115581794D01*
X31908513Y-115621500D01*
X32099487Y-115621500D01*
X32286288Y-115581794D01*
X32460752Y-115504118D01*
X32615253Y-115391866D01*
X32743040Y-115249944D01*
X32838527Y-115084556D01*
X32897542Y-114902928D01*
X32917504Y-114713000D01*
X32897542Y-114523072D01*
X32838527Y-114341444D01*
X32743040Y-114176056D01*
X32615253Y-114034134D01*
X32460752Y-113921882D01*
X32286288Y-113844206D01*
X32286286Y-113844205D01*
X32099487Y-113804500D01*
X31908513Y-113804500D01*
X31721714Y-113844205D01*
X31721712Y-113844206D01*
X31580371Y-113907135D01*
X31547246Y-113921883D01*
X31392745Y-114034135D01*
X31264959Y-114176057D01*
X31169473Y-114341443D01*
X31169470Y-114341450D01*
X31121412Y-114489359D01*
X31110458Y-114523072D01*
X31090496Y-114713000D01*
X18964934Y-114713000D01*
X18967296Y-114707616D01*
X19022564Y-114489368D01*
X19023465Y-114478500D01*
X19041156Y-114265005D01*
X19041156Y-114264994D01*
X19022565Y-114040640D01*
X19022563Y-114040628D01*
X19013967Y-114006683D01*
X18967296Y-113822384D01*
X18876860Y-113616209D01*
X18875329Y-113613866D01*
X18753723Y-113427734D01*
X18753715Y-113427723D01*
X18601243Y-113262097D01*
X18601238Y-113262092D01*
X18423577Y-113123812D01*
X18423578Y-113123812D01*
X18423576Y-113123811D01*
X18387070Y-113104055D01*
X18337479Y-113054836D01*
X18322371Y-112986619D01*
X18346541Y-112921064D01*
X18387070Y-112885945D01*
X18387084Y-112885936D01*
X18423576Y-112866189D01*
X18601240Y-112727906D01*
X18752634Y-112563450D01*
X18753715Y-112562276D01*
X18753716Y-112562274D01*
X18753722Y-112562268D01*
X18876860Y-112373791D01*
X18967296Y-112167616D01*
X19022564Y-111949368D01*
X19022682Y-111947942D01*
X19041156Y-111725005D01*
X19041156Y-111724994D01*
X19022565Y-111500640D01*
X19022563Y-111500628D01*
X18999866Y-111411000D01*
X45060496Y-111411000D01*
X45080458Y-111600928D01*
X45080459Y-111600931D01*
X45139470Y-111782549D01*
X45139473Y-111782556D01*
X45234960Y-111947944D01*
X45362747Y-112089866D01*
X45517248Y-112202118D01*
X45691712Y-112279794D01*
X45878513Y-112319500D01*
X46069487Y-112319500D01*
X46256288Y-112279794D01*
X46430752Y-112202118D01*
X46585253Y-112089866D01*
X46713040Y-111947944D01*
X46808527Y-111782556D01*
X46867542Y-111600928D01*
X46887504Y-111411000D01*
X46867542Y-111221072D01*
X46808527Y-111039444D01*
X46713040Y-110874056D01*
X46624750Y-110776000D01*
X50902496Y-110776000D01*
X50922458Y-110965928D01*
X50922459Y-110965931D01*
X50981470Y-111147549D01*
X50981473Y-111147556D01*
X51076960Y-111312944D01*
X51204747Y-111454866D01*
X51359248Y-111567118D01*
X51533712Y-111644794D01*
X51720513Y-111684500D01*
X51911487Y-111684500D01*
X52098288Y-111644794D01*
X52272752Y-111567118D01*
X52427253Y-111454866D01*
X52485850Y-111389786D01*
X52545336Y-111353138D01*
X52615193Y-111354468D01*
X52670151Y-111389788D01*
X52728893Y-111455029D01*
X52759122Y-111518021D01*
X52750496Y-111587356D01*
X52728892Y-111620972D01*
X52600959Y-111763057D01*
X52505473Y-111928443D01*
X52505470Y-111928450D01*
X52473612Y-112026500D01*
X52446458Y-112110072D01*
X52426496Y-112300000D01*
X52446458Y-112489928D01*
X52446459Y-112489931D01*
X52505470Y-112671549D01*
X52505473Y-112671556D01*
X52600960Y-112836944D01*
X52703290Y-112950594D01*
X52715461Y-112964111D01*
X52728747Y-112978866D01*
X52883248Y-113091118D01*
X53011600Y-113148263D01*
X53064835Y-113193512D01*
X53085157Y-113260361D01*
X53066112Y-113327585D01*
X53034050Y-113361859D01*
X52982746Y-113399134D01*
X52854959Y-113541057D01*
X52759473Y-113706443D01*
X52759470Y-113706450D01*
X52744520Y-113752463D01*
X52705082Y-113810139D01*
X52640724Y-113837337D01*
X52571877Y-113825422D01*
X52553704Y-113814463D01*
X52526756Y-113794884D01*
X52448250Y-113759931D01*
X52352288Y-113717206D01*
X52352286Y-113717205D01*
X52165487Y-113677500D01*
X51974513Y-113677500D01*
X51787714Y-113717205D01*
X51613246Y-113794883D01*
X51458745Y-113907135D01*
X51330959Y-114049057D01*
X51235473Y-114214443D01*
X51235470Y-114214450D01*
X51187816Y-114361116D01*
X51176458Y-114396072D01*
X51156496Y-114586000D01*
X51176458Y-114775928D01*
X51176459Y-114775931D01*
X51235470Y-114957549D01*
X51235472Y-114957554D01*
X51235473Y-114957556D01*
X51330960Y-115122944D01*
X51458747Y-115264866D01*
X51613248Y-115377118D01*
X51787712Y-115454794D01*
X51974513Y-115494500D01*
X52165487Y-115494500D01*
X52352288Y-115454794D01*
X52526752Y-115377118D01*
X52681253Y-115264866D01*
X52809040Y-115122944D01*
X52904527Y-114957556D01*
X52919480Y-114911534D01*
X52958915Y-114853862D01*
X53023273Y-114826663D01*
X53092119Y-114838576D01*
X53110294Y-114849535D01*
X53137248Y-114869118D01*
X53311712Y-114946794D01*
X53498513Y-114986500D01*
X53689487Y-114986500D01*
X53876288Y-114946794D01*
X54050752Y-114869118D01*
X54205253Y-114756866D01*
X54333040Y-114614944D01*
X54428527Y-114449556D01*
X54487542Y-114267928D01*
X54507504Y-114078000D01*
X54487542Y-113888072D01*
X54428527Y-113706444D01*
X54333040Y-113541056D01*
X54205253Y-113399134D01*
X54050752Y-113286882D01*
X53922400Y-113229736D01*
X53869163Y-113184486D01*
X53848842Y-113117637D01*
X53867887Y-113050414D01*
X53899951Y-113016139D01*
X53951253Y-112978866D01*
X54079040Y-112836944D01*
X54174527Y-112671556D01*
X54233542Y-112489928D01*
X54253504Y-112300000D01*
X54233542Y-112110072D01*
X54174527Y-111928444D01*
X54079040Y-111763056D01*
X54044779Y-111725005D01*
X64514844Y-111725005D01*
X64533434Y-111949359D01*
X64533436Y-111949371D01*
X64588703Y-112167614D01*
X64679140Y-112373792D01*
X64802276Y-112562265D01*
X64802284Y-112562276D01*
X64947489Y-112720008D01*
X64978412Y-112782662D01*
X64970552Y-112852088D01*
X64926405Y-112906244D01*
X64899596Y-112920172D01*
X64781794Y-112964111D01*
X64664739Y-113051739D01*
X64577111Y-113168795D01*
X64526011Y-113305795D01*
X64526011Y-113305797D01*
X64519500Y-113366345D01*
X64519500Y-115163654D01*
X64526011Y-115224202D01*
X64526011Y-115224204D01*
X64548288Y-115283928D01*
X64577111Y-115361204D01*
X64664739Y-115478261D01*
X64781796Y-115565889D01*
X64918799Y-115616989D01*
X64946050Y-115619918D01*
X64979345Y-115623499D01*
X64979362Y-115623500D01*
X66776638Y-115623500D01*
X66776654Y-115623499D01*
X66803692Y-115620591D01*
X66837201Y-115616989D01*
X66974204Y-115565889D01*
X67091261Y-115478261D01*
X67178889Y-115361204D01*
X67229989Y-115224201D01*
X67233591Y-115190692D01*
X67236499Y-115163654D01*
X67236500Y-115163637D01*
X67236500Y-113366362D01*
X67236499Y-113366345D01*
X67230070Y-113306556D01*
X67229989Y-113305799D01*
X67222933Y-113286882D01*
X67189947Y-113198444D01*
X67178889Y-113168796D01*
X67091261Y-113051739D01*
X66974204Y-112964111D01*
X66856404Y-112920172D01*
X66800471Y-112878300D01*
X66776055Y-112812835D01*
X66790908Y-112744562D01*
X66808504Y-112720014D01*
X66953722Y-112562268D01*
X67076860Y-112373791D01*
X67167296Y-112167616D01*
X67222564Y-111949368D01*
X67222682Y-111947942D01*
X67241156Y-111725005D01*
X67241156Y-111724994D01*
X67222565Y-111500640D01*
X67222563Y-111500628D01*
X67167296Y-111282385D01*
X67140400Y-111221068D01*
X67076860Y-111076209D01*
X66953722Y-110887732D01*
X66953719Y-110887729D01*
X66953715Y-110887723D01*
X66801243Y-110722097D01*
X66801238Y-110722092D01*
X66626481Y-110586072D01*
X66623576Y-110583811D01*
X66587070Y-110564055D01*
X66537479Y-110514836D01*
X66522371Y-110446619D01*
X66546541Y-110381064D01*
X66587070Y-110345945D01*
X66587084Y-110345936D01*
X66623576Y-110326189D01*
X66801240Y-110187906D01*
X66953722Y-110022268D01*
X67076860Y-109833791D01*
X67167296Y-109627616D01*
X67222564Y-109409368D01*
X67223406Y-109399205D01*
X67241156Y-109185005D01*
X67241156Y-109184994D01*
X67222565Y-108960640D01*
X67222563Y-108960628D01*
X67167296Y-108742385D01*
X67076859Y-108536207D01*
X66953723Y-108347734D01*
X66953715Y-108347723D01*
X66801243Y-108182097D01*
X66801238Y-108182092D01*
X66623577Y-108043812D01*
X66623578Y-108043812D01*
X66623576Y-108043811D01*
X66587070Y-108024055D01*
X66537479Y-107974836D01*
X66522371Y-107906619D01*
X66546541Y-107841064D01*
X66587070Y-107805945D01*
X66587084Y-107805936D01*
X66623576Y-107786189D01*
X66801240Y-107647906D01*
X66953722Y-107482268D01*
X67076860Y-107293791D01*
X67167296Y-107087616D01*
X67222564Y-106869368D01*
X67223411Y-106859144D01*
X67241156Y-106645005D01*
X67241156Y-106644994D01*
X67222565Y-106420640D01*
X67222563Y-106420628D01*
X67167296Y-106202385D01*
X67166740Y-106201118D01*
X67076860Y-105996209D01*
X67075329Y-105993866D01*
X66953723Y-105807734D01*
X66953715Y-105807723D01*
X66801243Y-105642097D01*
X66801238Y-105642092D01*
X66623577Y-105503812D01*
X66623578Y-105503812D01*
X66623576Y-105503811D01*
X66587070Y-105484055D01*
X66537479Y-105434836D01*
X66522371Y-105366619D01*
X66546541Y-105301064D01*
X66587070Y-105265945D01*
X66587084Y-105265936D01*
X66623576Y-105246189D01*
X66801240Y-105107906D01*
X66952634Y-104943450D01*
X66953715Y-104942276D01*
X66953716Y-104942274D01*
X66953722Y-104942268D01*
X67076860Y-104753791D01*
X67167296Y-104547616D01*
X67222564Y-104329368D01*
X67224097Y-104310866D01*
X67241156Y-104105005D01*
X67241156Y-104104994D01*
X67222565Y-103880640D01*
X67222563Y-103880628D01*
X67207698Y-103821928D01*
X67167296Y-103662384D01*
X67076860Y-103456209D01*
X66953722Y-103267732D01*
X66953719Y-103267729D01*
X66953715Y-103267723D01*
X66801243Y-103102097D01*
X66801238Y-103102092D01*
X66623577Y-102963812D01*
X66623578Y-102963812D01*
X66623576Y-102963811D01*
X66587070Y-102944055D01*
X66537479Y-102894836D01*
X66522371Y-102826619D01*
X66546541Y-102761064D01*
X66587070Y-102725945D01*
X66591588Y-102723500D01*
X66623576Y-102706189D01*
X66801240Y-102567906D01*
X66953722Y-102402268D01*
X67076860Y-102213791D01*
X67167296Y-102007616D01*
X67222564Y-101789368D01*
X67223266Y-101780898D01*
X67241156Y-101565005D01*
X67241156Y-101564994D01*
X67222565Y-101340640D01*
X67222563Y-101340628D01*
X67167296Y-101122385D01*
X67144875Y-101071270D01*
X67076860Y-100916209D01*
X67074890Y-100913194D01*
X66976898Y-100763206D01*
X66953722Y-100727732D01*
X66953719Y-100727729D01*
X66953715Y-100727723D01*
X66801243Y-100562097D01*
X66801238Y-100562092D01*
X66623577Y-100423812D01*
X66623572Y-100423808D01*
X66425580Y-100316661D01*
X66425577Y-100316659D01*
X66425574Y-100316658D01*
X66425571Y-100316657D01*
X66425569Y-100316656D01*
X66212637Y-100243556D01*
X65990569Y-100206500D01*
X65765431Y-100206500D01*
X65543362Y-100243556D01*
X65330430Y-100316656D01*
X65330419Y-100316661D01*
X65132427Y-100423808D01*
X65132422Y-100423812D01*
X64954761Y-100562092D01*
X64954756Y-100562097D01*
X64802284Y-100727723D01*
X64802276Y-100727734D01*
X64679140Y-100916207D01*
X64588703Y-101122385D01*
X64533436Y-101340628D01*
X64533434Y-101340640D01*
X64514844Y-101564994D01*
X64514844Y-101565005D01*
X64533434Y-101789359D01*
X64533436Y-101789371D01*
X64588703Y-102007614D01*
X64679140Y-102213792D01*
X64802276Y-102402265D01*
X64802284Y-102402276D01*
X64954756Y-102567902D01*
X64954760Y-102567906D01*
X65132424Y-102706189D01*
X65132429Y-102706191D01*
X65132431Y-102706193D01*
X65168930Y-102725946D01*
X65218520Y-102775165D01*
X65233628Y-102843382D01*
X65209457Y-102908937D01*
X65168930Y-102944054D01*
X65132431Y-102963806D01*
X65132422Y-102963812D01*
X64954761Y-103102092D01*
X64954756Y-103102097D01*
X64802284Y-103267723D01*
X64802276Y-103267734D01*
X64679140Y-103456207D01*
X64588703Y-103662385D01*
X64533436Y-103880628D01*
X64533434Y-103880640D01*
X64514844Y-104104994D01*
X64514844Y-104105005D01*
X64533434Y-104329359D01*
X64533436Y-104329371D01*
X64588703Y-104547614D01*
X64679140Y-104753792D01*
X64802276Y-104942265D01*
X64802284Y-104942276D01*
X64954756Y-105107902D01*
X64954761Y-105107907D01*
X64979140Y-105126882D01*
X65132424Y-105246189D01*
X65132429Y-105246191D01*
X65132431Y-105246193D01*
X65168930Y-105265946D01*
X65218520Y-105315165D01*
X65233628Y-105383382D01*
X65209457Y-105448937D01*
X65168930Y-105484054D01*
X65132431Y-105503806D01*
X65132422Y-105503812D01*
X64954761Y-105642092D01*
X64954756Y-105642097D01*
X64802284Y-105807723D01*
X64802276Y-105807734D01*
X64679140Y-105996207D01*
X64588703Y-106202385D01*
X64533436Y-106420628D01*
X64533434Y-106420640D01*
X64514844Y-106644994D01*
X64514844Y-106645005D01*
X64533434Y-106869359D01*
X64533436Y-106869371D01*
X64588703Y-107087614D01*
X64679140Y-107293792D01*
X64802276Y-107482265D01*
X64802284Y-107482276D01*
X64954756Y-107647902D01*
X64954760Y-107647906D01*
X65132424Y-107786189D01*
X65132429Y-107786191D01*
X65132431Y-107786193D01*
X65168930Y-107805946D01*
X65218520Y-107855165D01*
X65233628Y-107923382D01*
X65209457Y-107988937D01*
X65168930Y-108024054D01*
X65132431Y-108043806D01*
X65132422Y-108043812D01*
X64954761Y-108182092D01*
X64954756Y-108182097D01*
X64802284Y-108347723D01*
X64802276Y-108347734D01*
X64679140Y-108536207D01*
X64588703Y-108742385D01*
X64533436Y-108960628D01*
X64533434Y-108960640D01*
X64514844Y-109184994D01*
X64514844Y-109185005D01*
X64533434Y-109409359D01*
X64533436Y-109409371D01*
X64588703Y-109627614D01*
X64679140Y-109833792D01*
X64802276Y-110022265D01*
X64802284Y-110022276D01*
X64954756Y-110187902D01*
X64954760Y-110187906D01*
X65132424Y-110326189D01*
X65132429Y-110326191D01*
X65132431Y-110326193D01*
X65168930Y-110345946D01*
X65218520Y-110395165D01*
X65233628Y-110463382D01*
X65209457Y-110528937D01*
X65168930Y-110564054D01*
X65132431Y-110583806D01*
X65132422Y-110583812D01*
X64954761Y-110722092D01*
X64954756Y-110722097D01*
X64802284Y-110887723D01*
X64802276Y-110887734D01*
X64679140Y-111076207D01*
X64588703Y-111282385D01*
X64533436Y-111500628D01*
X64533434Y-111500640D01*
X64514844Y-111724994D01*
X64514844Y-111725005D01*
X54044779Y-111725005D01*
X53972557Y-111644794D01*
X53951108Y-111620972D01*
X53920878Y-111557980D01*
X53929504Y-111488645D01*
X53951108Y-111455028D01*
X54009850Y-111389787D01*
X54079040Y-111312944D01*
X54174527Y-111147556D01*
X54233542Y-110965928D01*
X54253504Y-110776000D01*
X54233542Y-110586072D01*
X54174527Y-110404444D01*
X54079040Y-110239056D01*
X53951253Y-110097134D01*
X53796752Y-109984882D01*
X53622288Y-109907206D01*
X53622286Y-109907205D01*
X53435487Y-109867500D01*
X53244513Y-109867500D01*
X53057714Y-109907205D01*
X52883246Y-109984883D01*
X52728747Y-110097133D01*
X52670150Y-110162213D01*
X52610663Y-110198861D01*
X52540806Y-110197530D01*
X52485850Y-110162213D01*
X52427252Y-110097133D01*
X52272753Y-109984883D01*
X52272752Y-109984882D01*
X52098288Y-109907206D01*
X52098286Y-109907205D01*
X51911487Y-109867500D01*
X51720513Y-109867500D01*
X51533714Y-109907205D01*
X51359246Y-109984883D01*
X51204745Y-110097135D01*
X51076959Y-110239057D01*
X50981473Y-110404443D01*
X50981470Y-110404450D01*
X50923192Y-110583812D01*
X50922458Y-110586072D01*
X50902496Y-110776000D01*
X46624750Y-110776000D01*
X46585253Y-110732134D01*
X46430752Y-110619882D01*
X46256288Y-110542206D01*
X46256286Y-110542205D01*
X46069487Y-110502500D01*
X45878513Y-110502500D01*
X45691714Y-110542205D01*
X45517246Y-110619883D01*
X45362745Y-110732135D01*
X45234959Y-110874057D01*
X45139473Y-111039443D01*
X45139470Y-111039450D01*
X45094940Y-111176500D01*
X45080458Y-111221072D01*
X45060496Y-111411000D01*
X18999866Y-111411000D01*
X18967296Y-111282385D01*
X18940400Y-111221068D01*
X18876860Y-111076209D01*
X18753722Y-110887732D01*
X18753719Y-110887729D01*
X18753715Y-110887723D01*
X18601243Y-110722097D01*
X18601238Y-110722092D01*
X18426481Y-110586072D01*
X18423576Y-110583811D01*
X18387070Y-110564055D01*
X18337479Y-110514836D01*
X18322371Y-110446619D01*
X18346541Y-110381064D01*
X18387070Y-110345945D01*
X18387084Y-110345936D01*
X18423576Y-110326189D01*
X18498336Y-110268000D01*
X31344496Y-110268000D01*
X31364458Y-110457928D01*
X31364459Y-110457931D01*
X31423470Y-110639549D01*
X31423473Y-110639556D01*
X31518960Y-110804944D01*
X31646747Y-110946866D01*
X31801248Y-111059118D01*
X31975712Y-111136794D01*
X32162513Y-111176500D01*
X32353487Y-111176500D01*
X32540288Y-111136794D01*
X32714752Y-111059118D01*
X32869253Y-110946866D01*
X32997040Y-110804944D01*
X33092527Y-110639556D01*
X33151542Y-110457928D01*
X33171504Y-110268000D01*
X33151542Y-110078072D01*
X33092527Y-109896444D01*
X32997040Y-109731056D01*
X32869253Y-109589134D01*
X32714752Y-109476882D01*
X32540288Y-109399206D01*
X32540286Y-109399205D01*
X32353487Y-109359500D01*
X32162513Y-109359500D01*
X31975714Y-109399205D01*
X31801246Y-109476883D01*
X31646745Y-109589135D01*
X31518959Y-109731057D01*
X31423473Y-109896443D01*
X31423470Y-109896450D01*
X31382587Y-110022276D01*
X31364458Y-110078072D01*
X31344496Y-110268000D01*
X18498336Y-110268000D01*
X18601240Y-110187906D01*
X18753722Y-110022268D01*
X18876860Y-109833791D01*
X18967296Y-109627616D01*
X19022564Y-109409368D01*
X19023406Y-109399205D01*
X19041156Y-109185005D01*
X19041156Y-109184994D01*
X19022565Y-108960640D01*
X19022563Y-108960628D01*
X18967296Y-108742385D01*
X18876859Y-108536207D01*
X18753723Y-108347734D01*
X18753715Y-108347723D01*
X18601243Y-108182097D01*
X18601238Y-108182092D01*
X18423577Y-108043812D01*
X18423578Y-108043812D01*
X18423576Y-108043811D01*
X18387070Y-108024055D01*
X18344697Y-107982000D01*
X38710496Y-107982000D01*
X38730458Y-108171928D01*
X38730459Y-108171931D01*
X38789470Y-108353549D01*
X38789473Y-108353556D01*
X38884960Y-108518944D01*
X39012747Y-108660866D01*
X39167248Y-108773118D01*
X39341712Y-108850794D01*
X39528513Y-108890500D01*
X39719487Y-108890500D01*
X39906288Y-108850794D01*
X40080752Y-108773118D01*
X40235253Y-108660866D01*
X40363040Y-108518944D01*
X40458527Y-108353556D01*
X40503813Y-108214182D01*
X40543251Y-108156506D01*
X40607609Y-108129308D01*
X40621744Y-108128500D01*
X40735487Y-108128500D01*
X40922288Y-108088794D01*
X41096752Y-108011118D01*
X41251253Y-107898866D01*
X41379040Y-107756944D01*
X41474527Y-107591556D01*
X41533542Y-107409928D01*
X41553504Y-107220000D01*
X41533542Y-107030072D01*
X41520138Y-106988818D01*
X41518143Y-106918976D01*
X41554224Y-106859144D01*
X41616925Y-106828316D01*
X41638069Y-106826500D01*
X41751487Y-106826500D01*
X41938288Y-106786794D01*
X42112752Y-106709118D01*
X42267253Y-106596866D01*
X42395040Y-106454944D01*
X42490527Y-106289556D01*
X42549542Y-106107928D01*
X42569504Y-105918000D01*
X42549542Y-105728072D01*
X42490527Y-105546444D01*
X42395040Y-105381056D01*
X42335563Y-105315000D01*
X51029496Y-105315000D01*
X51049458Y-105504928D01*
X51049459Y-105504931D01*
X51108470Y-105686549D01*
X51108473Y-105686556D01*
X51203960Y-105851944D01*
X51331747Y-105993866D01*
X51486248Y-106106118D01*
X51660712Y-106183794D01*
X51847513Y-106223500D01*
X52038487Y-106223500D01*
X52225288Y-106183794D01*
X52399752Y-106106118D01*
X52554253Y-105993866D01*
X52682040Y-105851944D01*
X52777527Y-105686556D01*
X52836542Y-105504928D01*
X52856504Y-105315000D01*
X52836542Y-105125072D01*
X52777527Y-104943444D01*
X52682040Y-104778056D01*
X52554253Y-104636134D01*
X52399752Y-104523882D01*
X52225288Y-104446206D01*
X52225286Y-104446205D01*
X52038487Y-104406500D01*
X51847513Y-104406500D01*
X51660714Y-104446205D01*
X51660712Y-104446206D01*
X51526601Y-104505916D01*
X51486246Y-104523883D01*
X51331745Y-104636135D01*
X51203959Y-104778057D01*
X51108473Y-104943443D01*
X51108470Y-104943450D01*
X51055035Y-105107907D01*
X51049458Y-105125072D01*
X51029496Y-105315000D01*
X42335563Y-105315000D01*
X42267253Y-105239134D01*
X42112752Y-105126882D01*
X41938288Y-105049206D01*
X41938286Y-105049205D01*
X41751487Y-105009500D01*
X41560513Y-105009500D01*
X41373714Y-105049205D01*
X41373712Y-105049206D01*
X41203314Y-105125072D01*
X41199246Y-105126883D01*
X41044745Y-105239135D01*
X40916959Y-105381057D01*
X40821473Y-105546443D01*
X40821470Y-105546450D01*
X40775947Y-105686556D01*
X40762458Y-105728072D01*
X40742496Y-105918000D01*
X40762458Y-106107928D01*
X40762459Y-106107931D01*
X40775862Y-106149182D01*
X40777857Y-106219024D01*
X40741776Y-106278856D01*
X40679075Y-106309684D01*
X40657931Y-106311500D01*
X40544513Y-106311500D01*
X40357714Y-106351205D01*
X40183246Y-106428883D01*
X40028745Y-106541135D01*
X39900959Y-106683057D01*
X39805473Y-106848443D01*
X39805470Y-106848450D01*
X39760187Y-106987818D01*
X39720749Y-107045494D01*
X39656391Y-107072692D01*
X39642256Y-107073500D01*
X39528513Y-107073500D01*
X39341714Y-107113205D01*
X39167246Y-107190883D01*
X39012745Y-107303135D01*
X38884959Y-107445057D01*
X38789473Y-107610443D01*
X38789470Y-107610450D01*
X38732369Y-107786190D01*
X38730458Y-107792072D01*
X38710496Y-107982000D01*
X18344697Y-107982000D01*
X18337479Y-107974836D01*
X18322371Y-107906619D01*
X18346541Y-107841064D01*
X18387070Y-107805945D01*
X18387084Y-107805936D01*
X18423576Y-107786189D01*
X18601240Y-107647906D01*
X18753722Y-107482268D01*
X18876860Y-107293791D01*
X18967296Y-107087616D01*
X19022564Y-106869368D01*
X19023411Y-106859144D01*
X19041156Y-106645005D01*
X19041156Y-106644994D01*
X19022565Y-106420640D01*
X19022563Y-106420628D01*
X18967296Y-106202385D01*
X18966740Y-106201118D01*
X18876860Y-105996209D01*
X18875329Y-105993866D01*
X18753723Y-105807734D01*
X18753715Y-105807723D01*
X18601243Y-105642097D01*
X18601238Y-105642092D01*
X18423577Y-105503812D01*
X18423578Y-105503812D01*
X18423576Y-105503811D01*
X18387070Y-105484055D01*
X18337479Y-105434836D01*
X18331979Y-105410000D01*
X31471496Y-105410000D01*
X31491458Y-105599928D01*
X31491459Y-105599931D01*
X31550470Y-105781549D01*
X31550473Y-105781556D01*
X31645960Y-105946944D01*
X31773747Y-106088866D01*
X31928248Y-106201118D01*
X32102712Y-106278794D01*
X32289513Y-106318500D01*
X32480487Y-106318500D01*
X32667288Y-106278794D01*
X32841752Y-106201118D01*
X32996253Y-106088866D01*
X33124040Y-105946944D01*
X33219527Y-105781556D01*
X33278542Y-105599928D01*
X33298504Y-105410000D01*
X33278542Y-105220072D01*
X33219527Y-105038444D01*
X33124040Y-104873056D01*
X32996253Y-104731134D01*
X32841752Y-104618882D01*
X32667288Y-104541206D01*
X32667286Y-104541205D01*
X32480487Y-104501500D01*
X32289513Y-104501500D01*
X32102714Y-104541205D01*
X31928246Y-104618883D01*
X31773745Y-104731135D01*
X31645959Y-104873057D01*
X31550473Y-105038443D01*
X31550470Y-105038450D01*
X31521737Y-105126883D01*
X31491458Y-105220072D01*
X31471496Y-105410000D01*
X18331979Y-105410000D01*
X18322371Y-105366619D01*
X18346541Y-105301064D01*
X18387070Y-105265945D01*
X18387084Y-105265936D01*
X18423576Y-105246189D01*
X18601240Y-105107906D01*
X18752634Y-104943450D01*
X18753715Y-104942276D01*
X18753716Y-104942274D01*
X18753722Y-104942268D01*
X18876860Y-104753791D01*
X18967296Y-104547616D01*
X19022564Y-104329368D01*
X19024097Y-104310866D01*
X19041156Y-104105005D01*
X19041156Y-104104994D01*
X19022565Y-103880640D01*
X19022563Y-103880628D01*
X19007698Y-103821928D01*
X18967296Y-103662384D01*
X18953968Y-103632000D01*
X23216496Y-103632000D01*
X23236458Y-103821928D01*
X23236459Y-103821931D01*
X23295470Y-104003549D01*
X23295473Y-104003556D01*
X23390960Y-104168944D01*
X23518747Y-104310866D01*
X23673248Y-104423118D01*
X23847712Y-104500794D01*
X24034513Y-104540500D01*
X24225487Y-104540500D01*
X24412288Y-104500794D01*
X24586752Y-104423118D01*
X24741253Y-104310866D01*
X24869040Y-104168944D01*
X24964527Y-104003556D01*
X25023542Y-103821928D01*
X25034801Y-103714800D01*
X56160296Y-103714800D01*
X56180258Y-103904728D01*
X56180259Y-103904731D01*
X56239270Y-104086349D01*
X56239273Y-104086356D01*
X56334760Y-104251744D01*
X56462547Y-104393666D01*
X56617048Y-104505918D01*
X56791512Y-104583594D01*
X56978313Y-104623300D01*
X57169287Y-104623300D01*
X57356088Y-104583594D01*
X57530552Y-104505918D01*
X57685053Y-104393666D01*
X57812840Y-104251744D01*
X57908327Y-104086356D01*
X57967342Y-103904728D01*
X57987304Y-103714800D01*
X57967342Y-103524872D01*
X57908327Y-103343244D01*
X57812840Y-103177856D01*
X57685053Y-103035934D01*
X57530552Y-102923682D01*
X57356088Y-102846006D01*
X57356086Y-102846005D01*
X57169287Y-102806300D01*
X56978313Y-102806300D01*
X56791514Y-102846005D01*
X56791512Y-102846006D01*
X56681838Y-102894836D01*
X56617046Y-102923683D01*
X56462545Y-103035935D01*
X56334759Y-103177857D01*
X56239273Y-103343243D01*
X56239270Y-103343250D01*
X56202568Y-103456209D01*
X56180258Y-103524872D01*
X56160296Y-103714800D01*
X25034801Y-103714800D01*
X25043504Y-103632000D01*
X25023542Y-103442072D01*
X24964527Y-103260444D01*
X24869040Y-103095056D01*
X24741253Y-102953134D01*
X24586752Y-102840882D01*
X24412288Y-102763206D01*
X24412286Y-102763205D01*
X24225487Y-102723500D01*
X24034513Y-102723500D01*
X23847714Y-102763205D01*
X23813900Y-102778260D01*
X23705284Y-102826619D01*
X23673246Y-102840883D01*
X23518745Y-102953135D01*
X23390959Y-103095057D01*
X23295473Y-103260443D01*
X23295470Y-103260450D01*
X23268569Y-103343244D01*
X23236458Y-103442072D01*
X23216496Y-103632000D01*
X18953968Y-103632000D01*
X18876860Y-103456209D01*
X18753722Y-103267732D01*
X18753719Y-103267729D01*
X18753715Y-103267723D01*
X18608510Y-103109991D01*
X18577587Y-103047337D01*
X18585447Y-102977911D01*
X18629594Y-102923755D01*
X18656405Y-102909827D01*
X18736584Y-102879920D01*
X18774204Y-102865889D01*
X18891261Y-102778261D01*
X18978889Y-102661204D01*
X19029989Y-102524201D01*
X19035063Y-102477007D01*
X19036499Y-102463654D01*
X19036500Y-102463637D01*
X19036500Y-102140000D01*
X31852496Y-102140000D01*
X31872458Y-102329928D01*
X31872459Y-102329931D01*
X31931470Y-102511549D01*
X31931473Y-102511556D01*
X32026960Y-102676944D01*
X32118185Y-102778260D01*
X32143432Y-102806300D01*
X32154747Y-102818866D01*
X32309248Y-102931118D01*
X32483712Y-103008794D01*
X32670513Y-103048500D01*
X32861487Y-103048500D01*
X33048288Y-103008794D01*
X33222752Y-102931118D01*
X33377253Y-102818866D01*
X33505040Y-102676944D01*
X33600527Y-102511556D01*
X33659542Y-102329928D01*
X33679504Y-102140000D01*
X34646496Y-102140000D01*
X34666458Y-102329928D01*
X34666459Y-102329931D01*
X34725470Y-102511549D01*
X34725473Y-102511556D01*
X34820960Y-102676944D01*
X34912185Y-102778260D01*
X34937432Y-102806300D01*
X34948747Y-102818866D01*
X35103248Y-102931118D01*
X35277712Y-103008794D01*
X35464513Y-103048500D01*
X35655487Y-103048500D01*
X35842288Y-103008794D01*
X36016752Y-102931118D01*
X36171253Y-102818866D01*
X36299040Y-102676944D01*
X36394527Y-102511556D01*
X36453542Y-102329928D01*
X36473504Y-102140000D01*
X36453542Y-101950072D01*
X36394527Y-101768444D01*
X36315751Y-101632000D01*
X41504496Y-101632000D01*
X41524458Y-101821928D01*
X41524459Y-101821931D01*
X41583470Y-102003549D01*
X41583473Y-102003556D01*
X41678960Y-102168944D01*
X41806747Y-102310866D01*
X41961248Y-102423118D01*
X42135712Y-102500794D01*
X42322513Y-102540500D01*
X42513487Y-102540500D01*
X42700288Y-102500794D01*
X42874752Y-102423118D01*
X42980115Y-102346566D01*
X43045920Y-102323087D01*
X43113974Y-102338912D01*
X43125877Y-102346561D01*
X43231248Y-102423118D01*
X43405712Y-102500794D01*
X43592513Y-102540500D01*
X43783487Y-102540500D01*
X43970288Y-102500794D01*
X44144752Y-102423118D01*
X44266484Y-102334673D01*
X44332291Y-102311194D01*
X44400345Y-102327019D01*
X44412252Y-102334671D01*
X44501248Y-102399331D01*
X44675712Y-102477007D01*
X44862513Y-102516713D01*
X45053487Y-102516713D01*
X45240288Y-102477007D01*
X45414752Y-102399331D01*
X45569253Y-102287079D01*
X45697040Y-102145157D01*
X45792527Y-101979769D01*
X45838405Y-101838570D01*
X45877841Y-101780898D01*
X45942200Y-101753699D01*
X46011046Y-101765613D01*
X46062522Y-101812857D01*
X46074266Y-101838573D01*
X46127870Y-102003549D01*
X46127873Y-102003556D01*
X46223360Y-102168944D01*
X46351147Y-102310866D01*
X46505648Y-102423118D01*
X46680112Y-102500794D01*
X46866913Y-102540500D01*
X47057887Y-102540500D01*
X47244688Y-102500794D01*
X47419152Y-102423118D01*
X47573653Y-102310866D01*
X47701440Y-102168944D01*
X47796927Y-102003556D01*
X47855942Y-101821928D01*
X47875904Y-101632000D01*
X47855942Y-101442072D01*
X47796927Y-101260444D01*
X47701440Y-101095056D01*
X47573653Y-100953134D01*
X47419152Y-100840882D01*
X47244688Y-100763206D01*
X47244686Y-100763205D01*
X47057887Y-100723500D01*
X46866913Y-100723500D01*
X46680114Y-100763205D01*
X46680112Y-100763206D01*
X46559073Y-100817096D01*
X46505646Y-100840883D01*
X46351145Y-100953135D01*
X46223359Y-101095057D01*
X46127873Y-101260443D01*
X46127871Y-101260447D01*
X46081995Y-101401640D01*
X46042557Y-101459315D01*
X45978198Y-101486513D01*
X45909352Y-101474598D01*
X45857876Y-101427354D01*
X45846134Y-101401641D01*
X45803753Y-101271206D01*
X45792529Y-101236662D01*
X45792526Y-101236656D01*
X45697040Y-101071269D01*
X45569253Y-100929347D01*
X45414752Y-100817095D01*
X45240288Y-100739419D01*
X45240286Y-100739418D01*
X45053487Y-100699713D01*
X44862513Y-100699713D01*
X44675714Y-100739418D01*
X44501246Y-100817096D01*
X44379516Y-100905539D01*
X44313709Y-100929019D01*
X44245655Y-100913194D01*
X44233744Y-100905539D01*
X44144752Y-100840882D01*
X43970288Y-100763206D01*
X43970286Y-100763205D01*
X43783487Y-100723500D01*
X43592513Y-100723500D01*
X43405714Y-100763205D01*
X43231243Y-100840884D01*
X43125885Y-100917432D01*
X43060079Y-100940912D01*
X42992025Y-100925086D01*
X42980115Y-100917432D01*
X42874756Y-100840884D01*
X42874752Y-100840882D01*
X42700288Y-100763206D01*
X42700286Y-100763205D01*
X42513487Y-100723500D01*
X42322513Y-100723500D01*
X42135714Y-100763205D01*
X42135712Y-100763206D01*
X42014673Y-100817096D01*
X41961246Y-100840883D01*
X41806745Y-100953135D01*
X41678959Y-101095057D01*
X41583473Y-101260443D01*
X41583470Y-101260450D01*
X41537595Y-101401640D01*
X41524458Y-101442072D01*
X41504496Y-101632000D01*
X36315751Y-101632000D01*
X36299040Y-101603056D01*
X36171253Y-101461134D01*
X36016752Y-101348882D01*
X35842288Y-101271206D01*
X35842286Y-101271205D01*
X35655487Y-101231500D01*
X35464513Y-101231500D01*
X35277714Y-101271205D01*
X35103246Y-101348883D01*
X34948745Y-101461135D01*
X34820959Y-101603057D01*
X34725473Y-101768443D01*
X34725470Y-101768450D01*
X34666459Y-101950068D01*
X34666458Y-101950072D01*
X34646496Y-102140000D01*
X33679504Y-102140000D01*
X33659542Y-101950072D01*
X33600527Y-101768444D01*
X33505040Y-101603056D01*
X33377253Y-101461134D01*
X33222752Y-101348882D01*
X33048288Y-101271206D01*
X33048286Y-101271205D01*
X32861487Y-101231500D01*
X32670513Y-101231500D01*
X32483714Y-101271205D01*
X32309246Y-101348883D01*
X32154745Y-101461135D01*
X32026959Y-101603057D01*
X31931473Y-101768443D01*
X31931470Y-101768450D01*
X31872459Y-101950068D01*
X31872458Y-101950072D01*
X31852496Y-102140000D01*
X19036500Y-102140000D01*
X19036500Y-100666362D01*
X19036499Y-100666345D01*
X19033157Y-100635270D01*
X19029989Y-100605799D01*
X18978889Y-100468796D01*
X18891261Y-100351739D01*
X18774204Y-100264111D01*
X18637203Y-100213011D01*
X18576654Y-100206500D01*
X18576638Y-100206500D01*
X16779362Y-100206500D01*
X16779345Y-100206500D01*
X16718797Y-100213011D01*
X16718795Y-100213011D01*
X16581795Y-100264111D01*
X16464739Y-100351739D01*
X16377111Y-100468795D01*
X16326011Y-100605795D01*
X16326011Y-100605797D01*
X16319500Y-100666345D01*
X16319500Y-102463654D01*
X16326011Y-102524202D01*
X16326011Y-102524204D01*
X16377111Y-102661204D01*
X16464739Y-102778261D01*
X16581796Y-102865889D01*
X16633737Y-102885262D01*
X16699595Y-102909827D01*
X16755528Y-102951699D01*
X16779944Y-103017163D01*
X16765092Y-103085436D01*
X16747490Y-103109991D01*
X16602279Y-103267730D01*
X16602276Y-103267734D01*
X16479140Y-103456207D01*
X16388703Y-103662385D01*
X16333436Y-103880628D01*
X16333434Y-103880640D01*
X16314844Y-104104994D01*
X16314844Y-104105005D01*
X16333434Y-104329359D01*
X16333436Y-104329371D01*
X16388703Y-104547614D01*
X16479140Y-104753792D01*
X16602276Y-104942265D01*
X16602284Y-104942276D01*
X16754756Y-105107902D01*
X16754761Y-105107907D01*
X16779140Y-105126882D01*
X16932424Y-105246189D01*
X16932429Y-105246191D01*
X16932431Y-105246193D01*
X16968930Y-105265946D01*
X17018520Y-105315165D01*
X17033628Y-105383382D01*
X17009457Y-105448937D01*
X16968930Y-105484054D01*
X16932431Y-105503806D01*
X16932422Y-105503812D01*
X16754761Y-105642092D01*
X16754756Y-105642097D01*
X16602284Y-105807723D01*
X16602276Y-105807734D01*
X16479140Y-105996207D01*
X16388703Y-106202385D01*
X16333436Y-106420628D01*
X16333434Y-106420640D01*
X16314844Y-106644994D01*
X16314844Y-106645005D01*
X16333434Y-106869359D01*
X16333436Y-106869371D01*
X16388703Y-107087614D01*
X16479140Y-107293792D01*
X16602276Y-107482265D01*
X16602284Y-107482276D01*
X16754756Y-107647902D01*
X16754760Y-107647906D01*
X16932424Y-107786189D01*
X16932429Y-107786191D01*
X16932431Y-107786193D01*
X16968930Y-107805946D01*
X17018520Y-107855165D01*
X17033628Y-107923382D01*
X17009457Y-107988937D01*
X16968930Y-108024054D01*
X16932431Y-108043806D01*
X16932422Y-108043812D01*
X16754761Y-108182092D01*
X16754756Y-108182097D01*
X16602284Y-108347723D01*
X16602276Y-108347734D01*
X16479140Y-108536207D01*
X16388703Y-108742385D01*
X16333436Y-108960628D01*
X16333434Y-108960640D01*
X16314844Y-109184994D01*
X16314844Y-109185005D01*
X16333434Y-109409359D01*
X16333436Y-109409371D01*
X16388703Y-109627614D01*
X16479140Y-109833792D01*
X16602276Y-110022265D01*
X16602284Y-110022276D01*
X16754756Y-110187902D01*
X16754760Y-110187906D01*
X16932424Y-110326189D01*
X16932429Y-110326191D01*
X16932431Y-110326193D01*
X16968930Y-110345946D01*
X17018520Y-110395165D01*
X17033628Y-110463382D01*
X17009457Y-110528937D01*
X16968930Y-110564054D01*
X16932431Y-110583806D01*
X16932422Y-110583812D01*
X16754761Y-110722092D01*
X16754756Y-110722097D01*
X16602284Y-110887723D01*
X16602276Y-110887734D01*
X16479140Y-111076207D01*
X16388703Y-111282385D01*
X16333436Y-111500628D01*
X16333434Y-111500640D01*
X16314844Y-111724994D01*
X16314844Y-111725005D01*
X16333434Y-111949359D01*
X16333436Y-111949371D01*
X16388703Y-112167614D01*
X16479140Y-112373792D01*
X16602276Y-112562265D01*
X16602284Y-112562276D01*
X16754756Y-112727902D01*
X16754761Y-112727907D01*
X16813981Y-112774000D01*
X16932424Y-112866189D01*
X16932429Y-112866191D01*
X16932431Y-112866193D01*
X16968930Y-112885946D01*
X17018520Y-112935165D01*
X17033628Y-113003382D01*
X17009457Y-113068937D01*
X16968930Y-113104054D01*
X16932431Y-113123806D01*
X16932422Y-113123812D01*
X16754761Y-113262092D01*
X16754756Y-113262097D01*
X16602284Y-113427723D01*
X16602276Y-113427734D01*
X16479140Y-113616207D01*
X16388703Y-113822385D01*
X16333436Y-114040628D01*
X16333434Y-114040640D01*
X16314844Y-114264994D01*
X16314844Y-114265005D01*
X16333434Y-114489359D01*
X16333436Y-114489371D01*
X16388703Y-114707614D01*
X16479140Y-114913792D01*
X16602276Y-115102265D01*
X16602284Y-115102276D01*
X16751961Y-115264866D01*
X16754760Y-115267906D01*
X16932424Y-115406189D01*
X16932429Y-115406191D01*
X16932431Y-115406193D01*
X16968930Y-115425946D01*
X17018520Y-115475165D01*
X17033628Y-115543382D01*
X17009457Y-115608937D01*
X16968930Y-115644054D01*
X16932431Y-115663806D01*
X16932422Y-115663812D01*
X16754761Y-115802092D01*
X16754756Y-115802097D01*
X16602284Y-115967723D01*
X16602276Y-115967734D01*
X16479140Y-116156207D01*
X16388703Y-116362385D01*
X16333436Y-116580628D01*
X16333434Y-116580640D01*
X16314844Y-116804994D01*
X16314844Y-116805005D01*
X16333434Y-117029359D01*
X16333436Y-117029371D01*
X16388703Y-117247614D01*
X16479140Y-117453792D01*
X16602276Y-117642265D01*
X16602284Y-117642276D01*
X16754756Y-117807902D01*
X16754761Y-117807907D01*
X16775345Y-117823928D01*
X16932424Y-117946189D01*
X16932429Y-117946191D01*
X16932431Y-117946193D01*
X16968930Y-117965946D01*
X17018520Y-118015165D01*
X17033628Y-118083382D01*
X17009457Y-118148937D01*
X16968930Y-118184054D01*
X16932431Y-118203806D01*
X16932422Y-118203812D01*
X16754761Y-118342092D01*
X16754756Y-118342097D01*
X16602284Y-118507723D01*
X16602276Y-118507734D01*
X16479140Y-118696207D01*
X16388703Y-118902385D01*
X16333436Y-119120628D01*
X16333434Y-119120640D01*
X16314844Y-119344994D01*
X16314844Y-119345005D01*
X12192000Y-119345005D01*
X12192000Y-96806000D01*
X35408496Y-96806000D01*
X35428458Y-96995928D01*
X35428459Y-96995931D01*
X35487470Y-97177549D01*
X35487473Y-97177556D01*
X35582960Y-97342944D01*
X35710747Y-97484866D01*
X35865248Y-97597118D01*
X36039712Y-97674794D01*
X36226513Y-97714500D01*
X36417487Y-97714500D01*
X36604288Y-97674794D01*
X36778752Y-97597118D01*
X36933253Y-97484866D01*
X37061040Y-97342944D01*
X37156527Y-97177556D01*
X37215542Y-96995928D01*
X37235504Y-96806000D01*
X38202496Y-96806000D01*
X38222458Y-96995928D01*
X38222459Y-96995931D01*
X38281470Y-97177549D01*
X38281473Y-97177556D01*
X38376960Y-97342944D01*
X38504747Y-97484866D01*
X38659248Y-97597118D01*
X38833712Y-97674794D01*
X39020513Y-97714500D01*
X39211487Y-97714500D01*
X39398288Y-97674794D01*
X39572752Y-97597118D01*
X39727253Y-97484866D01*
X39855040Y-97342944D01*
X39950527Y-97177556D01*
X40009542Y-96995928D01*
X40029504Y-96806000D01*
X45314496Y-96806000D01*
X45334458Y-96995928D01*
X45334459Y-96995931D01*
X45393470Y-97177549D01*
X45393473Y-97177556D01*
X45488960Y-97342944D01*
X45616747Y-97484866D01*
X45771248Y-97597118D01*
X45945712Y-97674794D01*
X46132513Y-97714500D01*
X46323487Y-97714500D01*
X46510288Y-97674794D01*
X46684752Y-97597118D01*
X46839253Y-97484866D01*
X46967040Y-97342944D01*
X47062527Y-97177556D01*
X47121542Y-96995928D01*
X47141504Y-96806000D01*
X47121542Y-96616072D01*
X47062527Y-96434444D01*
X46967040Y-96269056D01*
X46839253Y-96127134D01*
X46684752Y-96014882D01*
X46510288Y-95937206D01*
X46510286Y-95937205D01*
X46323487Y-95897500D01*
X46132513Y-95897500D01*
X45945714Y-95937205D01*
X45771246Y-96014883D01*
X45616745Y-96127135D01*
X45488959Y-96269057D01*
X45393473Y-96434443D01*
X45393470Y-96434450D01*
X45345816Y-96581116D01*
X45334458Y-96616072D01*
X45314496Y-96806000D01*
X40029504Y-96806000D01*
X40009542Y-96616072D01*
X39950527Y-96434444D01*
X39855040Y-96269056D01*
X39727253Y-96127134D01*
X39572752Y-96014882D01*
X39398288Y-95937206D01*
X39398286Y-95937205D01*
X39211487Y-95897500D01*
X39020513Y-95897500D01*
X38833714Y-95937205D01*
X38659246Y-96014883D01*
X38504745Y-96127135D01*
X38376959Y-96269057D01*
X38281473Y-96434443D01*
X38281470Y-96434450D01*
X38233816Y-96581116D01*
X38222458Y-96616072D01*
X38202496Y-96806000D01*
X37235504Y-96806000D01*
X37215542Y-96616072D01*
X37156527Y-96434444D01*
X37061040Y-96269056D01*
X36933253Y-96127134D01*
X36778752Y-96014882D01*
X36604288Y-95937206D01*
X36604286Y-95937205D01*
X36417487Y-95897500D01*
X36226513Y-95897500D01*
X36039714Y-95937205D01*
X35865246Y-96014883D01*
X35710745Y-96127135D01*
X35582959Y-96269057D01*
X35487473Y-96434443D01*
X35487470Y-96434450D01*
X35439816Y-96581116D01*
X35428458Y-96616072D01*
X35408496Y-96806000D01*
X12192000Y-96806000D01*
X12192000Y-96053654D01*
X16294500Y-96053654D01*
X16301011Y-96114202D01*
X16301011Y-96114204D01*
X16352111Y-96251204D01*
X16439739Y-96368261D01*
X16556796Y-96455889D01*
X16693799Y-96506989D01*
X16721050Y-96509918D01*
X16754345Y-96513499D01*
X16754362Y-96513500D01*
X18551638Y-96513500D01*
X18551654Y-96513499D01*
X18578692Y-96510591D01*
X18612201Y-96506989D01*
X18749204Y-96455889D01*
X18866261Y-96368261D01*
X18953889Y-96251204D01*
X18999138Y-96129887D01*
X19041009Y-96073956D01*
X19106474Y-96049539D01*
X19174746Y-96064391D01*
X19206545Y-96089236D01*
X19269760Y-96157906D01*
X19447424Y-96296189D01*
X19447425Y-96296189D01*
X19447427Y-96296191D01*
X19504254Y-96326944D01*
X19645426Y-96403342D01*
X19858365Y-96476444D01*
X20080431Y-96513500D01*
X20305569Y-96513500D01*
X20527635Y-96476444D01*
X20740574Y-96403342D01*
X20938576Y-96296189D01*
X21116240Y-96157906D01*
X21237594Y-96026082D01*
X21268715Y-95992276D01*
X21268715Y-95992275D01*
X21268722Y-95992268D01*
X21362749Y-95848347D01*
X21415894Y-95802994D01*
X21485125Y-95793570D01*
X21548461Y-95823072D01*
X21568130Y-95845048D01*
X21694890Y-96026078D01*
X21861917Y-96193105D01*
X22055421Y-96328600D01*
X22269507Y-96428429D01*
X22269516Y-96428433D01*
X22483000Y-96485634D01*
X22483000Y-95588012D01*
X22540007Y-95620925D01*
X22667174Y-95655000D01*
X22798826Y-95655000D01*
X22925993Y-95620925D01*
X22983000Y-95588012D01*
X22983000Y-96485633D01*
X23196483Y-96428433D01*
X23196492Y-96428429D01*
X23410578Y-96328600D01*
X23604082Y-96193105D01*
X23771105Y-96026082D01*
X23906600Y-95832578D01*
X23926454Y-95790000D01*
X31344496Y-95790000D01*
X31364458Y-95979928D01*
X31364459Y-95979931D01*
X31423470Y-96161549D01*
X31423473Y-96161556D01*
X31518960Y-96326944D01*
X31587749Y-96403342D01*
X31635061Y-96455888D01*
X31646747Y-96468866D01*
X31801248Y-96581118D01*
X31975712Y-96658794D01*
X32162513Y-96698500D01*
X32353487Y-96698500D01*
X32540288Y-96658794D01*
X32714752Y-96581118D01*
X32869253Y-96468866D01*
X32997040Y-96326944D01*
X33092527Y-96161556D01*
X33151542Y-95979928D01*
X33171504Y-95790000D01*
X52491496Y-95790000D01*
X52511458Y-95979928D01*
X52511459Y-95979931D01*
X52570470Y-96161549D01*
X52570473Y-96161556D01*
X52665960Y-96326944D01*
X52734749Y-96403342D01*
X52782061Y-96455888D01*
X52793747Y-96468866D01*
X52948248Y-96581118D01*
X53122712Y-96658794D01*
X53309513Y-96698500D01*
X53500487Y-96698500D01*
X53687288Y-96658794D01*
X53861752Y-96581118D01*
X54016253Y-96468866D01*
X54144040Y-96326944D01*
X54239527Y-96161556D01*
X54298542Y-95979928D01*
X54318504Y-95790000D01*
X54298542Y-95600072D01*
X54239527Y-95418444D01*
X54144040Y-95253056D01*
X54016253Y-95111134D01*
X53861752Y-94998882D01*
X53687288Y-94921206D01*
X53687286Y-94921205D01*
X53500487Y-94881500D01*
X53309513Y-94881500D01*
X53122714Y-94921205D01*
X52948246Y-94998883D01*
X52793745Y-95111135D01*
X52665959Y-95253057D01*
X52570473Y-95418443D01*
X52570470Y-95418450D01*
X52512256Y-95597616D01*
X52511458Y-95600072D01*
X52491496Y-95790000D01*
X33171504Y-95790000D01*
X33151542Y-95600072D01*
X33092527Y-95418444D01*
X32997040Y-95253056D01*
X32869253Y-95111134D01*
X32714752Y-94998882D01*
X32540288Y-94921206D01*
X32540286Y-94921205D01*
X32353487Y-94881500D01*
X32162513Y-94881500D01*
X31975714Y-94921205D01*
X31801246Y-94998883D01*
X31646745Y-95111135D01*
X31518959Y-95253057D01*
X31423473Y-95418443D01*
X31423470Y-95418450D01*
X31365256Y-95597616D01*
X31364458Y-95600072D01*
X31344496Y-95790000D01*
X23926454Y-95790000D01*
X24006429Y-95618492D01*
X24006432Y-95618486D01*
X24063636Y-95405000D01*
X23166012Y-95405000D01*
X23198925Y-95347993D01*
X23233000Y-95220826D01*
X23233000Y-95089174D01*
X23198925Y-94962007D01*
X23166012Y-94905000D01*
X24063636Y-94905000D01*
X24063635Y-94904999D01*
X24006432Y-94691513D01*
X24006429Y-94691507D01*
X23906600Y-94477422D01*
X23906599Y-94477420D01*
X23771113Y-94283926D01*
X23771108Y-94283920D01*
X23604082Y-94116894D01*
X23410578Y-93981399D01*
X23196492Y-93881570D01*
X23196486Y-93881567D01*
X22983000Y-93824364D01*
X22983000Y-94721988D01*
X22925993Y-94689075D01*
X22798826Y-94655000D01*
X22667174Y-94655000D01*
X22540007Y-94689075D01*
X22483000Y-94721988D01*
X22483000Y-93824364D01*
X22482999Y-93824364D01*
X22269513Y-93881567D01*
X22269507Y-93881570D01*
X22055422Y-93981399D01*
X22055420Y-93981400D01*
X21861926Y-94116886D01*
X21861920Y-94116891D01*
X21694891Y-94283920D01*
X21694890Y-94283922D01*
X21568131Y-94464952D01*
X21513554Y-94508577D01*
X21444055Y-94515769D01*
X21381701Y-94484247D01*
X21362752Y-94461656D01*
X21268722Y-94317732D01*
X21268715Y-94317725D01*
X21268715Y-94317723D01*
X21116243Y-94152097D01*
X21116238Y-94152092D01*
X20938577Y-94013812D01*
X20938572Y-94013808D01*
X20740580Y-93906661D01*
X20740577Y-93906659D01*
X20740574Y-93906658D01*
X20740571Y-93906657D01*
X20740569Y-93906656D01*
X20527637Y-93833556D01*
X20305569Y-93796500D01*
X20080431Y-93796500D01*
X19858362Y-93833556D01*
X19645430Y-93906656D01*
X19645419Y-93906661D01*
X19447427Y-94013808D01*
X19447422Y-94013812D01*
X19269761Y-94152092D01*
X19206548Y-94220760D01*
X19146661Y-94256750D01*
X19076823Y-94254649D01*
X19019207Y-94215124D01*
X18999138Y-94180110D01*
X18953889Y-94058796D01*
X18920214Y-94013812D01*
X18866261Y-93941739D01*
X18749204Y-93854111D01*
X18612203Y-93803011D01*
X18551654Y-93796500D01*
X18551638Y-93796500D01*
X18455822Y-93796500D01*
X18388783Y-93776815D01*
X18343028Y-93724011D01*
X18333084Y-93654853D01*
X18348434Y-93610501D01*
X18360527Y-93589556D01*
X18419542Y-93407928D01*
X18436141Y-93250000D01*
X38202496Y-93250000D01*
X38222458Y-93439928D01*
X38222459Y-93439931D01*
X38281470Y-93621549D01*
X38281473Y-93621556D01*
X38376960Y-93786944D01*
X38504747Y-93928866D01*
X38659248Y-94041118D01*
X38833712Y-94118794D01*
X39020513Y-94158500D01*
X39211487Y-94158500D01*
X39398288Y-94118794D01*
X39572752Y-94041118D01*
X39727253Y-93928866D01*
X39855040Y-93786944D01*
X39950527Y-93621556D01*
X40009542Y-93439928D01*
X40029504Y-93250000D01*
X40009542Y-93060072D01*
X39950527Y-92878444D01*
X39855040Y-92713056D01*
X39727253Y-92571134D01*
X39572752Y-92458882D01*
X39398288Y-92381206D01*
X39398286Y-92381205D01*
X39211487Y-92341500D01*
X39020513Y-92341500D01*
X38833714Y-92381205D01*
X38659246Y-92458883D01*
X38504745Y-92571135D01*
X38376959Y-92713057D01*
X38281473Y-92878443D01*
X38281470Y-92878450D01*
X38222459Y-93060068D01*
X38222458Y-93060072D01*
X38202496Y-93250000D01*
X18436141Y-93250000D01*
X18439504Y-93218000D01*
X18419542Y-93028072D01*
X18360527Y-92846444D01*
X18265040Y-92681056D01*
X18137253Y-92539134D01*
X17982752Y-92426882D01*
X17808288Y-92349206D01*
X17808286Y-92349205D01*
X17621487Y-92309500D01*
X17430513Y-92309500D01*
X17243714Y-92349205D01*
X17069246Y-92426883D01*
X16914745Y-92539135D01*
X16786959Y-92681057D01*
X16691473Y-92846443D01*
X16691470Y-92846450D01*
X16632459Y-93028068D01*
X16632458Y-93028072D01*
X16612496Y-93218000D01*
X16632458Y-93407928D01*
X16632459Y-93407931D01*
X16691470Y-93589549D01*
X16691473Y-93589556D01*
X16719991Y-93638950D01*
X16736464Y-93706850D01*
X16713611Y-93772877D01*
X16658690Y-93816068D01*
X16655939Y-93817131D01*
X16556795Y-93854111D01*
X16439739Y-93941739D01*
X16352111Y-94058795D01*
X16301011Y-94195795D01*
X16301011Y-94195797D01*
X16294500Y-94256345D01*
X16294500Y-96053654D01*
X12192000Y-96053654D01*
X12192000Y-86721288D01*
X14249500Y-86721288D01*
X14281161Y-86961785D01*
X14343947Y-87196104D01*
X14428404Y-87400000D01*
X14436776Y-87420212D01*
X14558064Y-87630289D01*
X14558066Y-87630292D01*
X14558067Y-87630293D01*
X14705733Y-87822736D01*
X14705739Y-87822743D01*
X14877256Y-87994260D01*
X14877263Y-87994266D01*
X14938415Y-88041189D01*
X15069711Y-88141936D01*
X15279788Y-88263224D01*
X15503900Y-88356054D01*
X15738211Y-88418838D01*
X15918586Y-88442584D01*
X15978711Y-88450500D01*
X15978712Y-88450500D01*
X16221289Y-88450500D01*
X16269388Y-88444167D01*
X16461789Y-88418838D01*
X16696100Y-88356054D01*
X16920212Y-88263224D01*
X17130289Y-88141936D01*
X17322738Y-87994265D01*
X17494265Y-87822738D01*
X17641936Y-87630289D01*
X17763224Y-87420212D01*
X17856054Y-87196100D01*
X17918838Y-86961789D01*
X17926972Y-86900005D01*
X29624844Y-86900005D01*
X29643434Y-87124359D01*
X29643436Y-87124371D01*
X29698703Y-87342614D01*
X29789140Y-87548792D01*
X29912276Y-87737265D01*
X29912284Y-87737276D01*
X30064756Y-87902902D01*
X30064761Y-87902907D01*
X30102517Y-87932294D01*
X30143330Y-87989005D01*
X30147003Y-88058778D01*
X30112372Y-88119461D01*
X30071487Y-88144154D01*
X30071805Y-88144835D01*
X30065466Y-88147790D01*
X30065368Y-88147850D01*
X30065267Y-88147883D01*
X30065259Y-88147886D01*
X29914346Y-88240971D01*
X29788971Y-88366346D01*
X29695886Y-88517259D01*
X29695884Y-88517264D01*
X29640113Y-88685572D01*
X29629500Y-88789447D01*
X29629500Y-90090537D01*
X29629501Y-90090553D01*
X29640113Y-90194427D01*
X29667565Y-90277273D01*
X29695885Y-90362738D01*
X29788970Y-90513652D01*
X29914348Y-90639030D01*
X30065262Y-90732115D01*
X30233574Y-90787887D01*
X30337455Y-90798500D01*
X31638544Y-90798499D01*
X31742426Y-90787887D01*
X31910738Y-90732115D01*
X32061652Y-90639030D01*
X32187030Y-90513652D01*
X32280115Y-90362738D01*
X32280246Y-90362342D01*
X32280406Y-90362110D01*
X32283165Y-90356195D01*
X32284175Y-90356666D01*
X32320011Y-90304898D01*
X32384524Y-90278069D01*
X32453301Y-90290378D01*
X32489181Y-90317355D01*
X32604760Y-90442906D01*
X32782424Y-90581189D01*
X32782425Y-90581189D01*
X32782427Y-90581191D01*
X32889301Y-90639028D01*
X32980426Y-90688342D01*
X33193365Y-90761444D01*
X33415431Y-90798500D01*
X33640569Y-90798500D01*
X33862635Y-90761444D01*
X34075574Y-90688342D01*
X34273576Y-90581189D01*
X34451240Y-90442906D01*
X34578287Y-90304898D01*
X34603715Y-90277276D01*
X34603715Y-90277275D01*
X34603722Y-90277268D01*
X34694193Y-90138790D01*
X34747338Y-90093437D01*
X34816569Y-90084013D01*
X34879905Y-90113515D01*
X34901804Y-90138787D01*
X34992278Y-90277268D01*
X34992283Y-90277273D01*
X34992284Y-90277276D01*
X35144756Y-90442902D01*
X35144760Y-90442906D01*
X35322424Y-90581189D01*
X35322425Y-90581189D01*
X35322427Y-90581191D01*
X35429301Y-90639028D01*
X35520426Y-90688342D01*
X35733365Y-90761444D01*
X35955431Y-90798500D01*
X36180569Y-90798500D01*
X36402635Y-90761444D01*
X36615574Y-90688342D01*
X36813576Y-90581189D01*
X36991240Y-90442906D01*
X37118287Y-90304898D01*
X37143715Y-90277276D01*
X37143715Y-90277275D01*
X37143722Y-90277268D01*
X37234193Y-90138790D01*
X37287338Y-90093437D01*
X37356569Y-90084013D01*
X37419905Y-90113515D01*
X37441804Y-90138787D01*
X37532278Y-90277268D01*
X37532283Y-90277273D01*
X37532284Y-90277276D01*
X37684756Y-90442902D01*
X37684760Y-90442906D01*
X37862424Y-90581189D01*
X37862425Y-90581189D01*
X37862427Y-90581191D01*
X37969301Y-90639028D01*
X38060426Y-90688342D01*
X38273365Y-90761444D01*
X38495431Y-90798500D01*
X38720569Y-90798500D01*
X38942635Y-90761444D01*
X39155574Y-90688342D01*
X39353576Y-90581189D01*
X39531240Y-90442906D01*
X39658287Y-90304898D01*
X39683715Y-90277276D01*
X39683715Y-90277275D01*
X39683722Y-90277268D01*
X39774193Y-90138790D01*
X39827338Y-90093437D01*
X39896569Y-90084013D01*
X39959905Y-90113515D01*
X39981804Y-90138787D01*
X40072278Y-90277268D01*
X40072283Y-90277273D01*
X40072284Y-90277276D01*
X40224756Y-90442902D01*
X40224760Y-90442906D01*
X40402424Y-90581189D01*
X40402425Y-90581189D01*
X40402427Y-90581191D01*
X40509301Y-90639028D01*
X40600426Y-90688342D01*
X40813365Y-90761444D01*
X41035431Y-90798500D01*
X41260569Y-90798500D01*
X41482635Y-90761444D01*
X41695574Y-90688342D01*
X41893576Y-90581189D01*
X42071240Y-90442906D01*
X42198287Y-90304898D01*
X42223715Y-90277276D01*
X42223715Y-90277275D01*
X42223722Y-90277268D01*
X42314193Y-90138790D01*
X42367338Y-90093437D01*
X42436569Y-90084013D01*
X42499905Y-90113515D01*
X42521804Y-90138787D01*
X42612278Y-90277268D01*
X42612283Y-90277273D01*
X42612284Y-90277276D01*
X42764756Y-90442902D01*
X42764760Y-90442906D01*
X42942424Y-90581189D01*
X42942425Y-90581189D01*
X42942427Y-90581191D01*
X43049301Y-90639028D01*
X43140426Y-90688342D01*
X43353365Y-90761444D01*
X43575431Y-90798500D01*
X43800569Y-90798500D01*
X44022635Y-90761444D01*
X44235574Y-90688342D01*
X44433576Y-90581189D01*
X44611240Y-90442906D01*
X44738287Y-90304898D01*
X44763715Y-90277276D01*
X44763715Y-90277275D01*
X44763722Y-90277268D01*
X44854193Y-90138790D01*
X44907338Y-90093437D01*
X44976569Y-90084013D01*
X45039905Y-90113515D01*
X45061804Y-90138787D01*
X45152278Y-90277268D01*
X45152283Y-90277273D01*
X45152284Y-90277276D01*
X45304756Y-90442902D01*
X45304760Y-90442906D01*
X45482424Y-90581189D01*
X45482425Y-90581189D01*
X45482427Y-90581191D01*
X45589301Y-90639028D01*
X45680426Y-90688342D01*
X45893365Y-90761444D01*
X46115431Y-90798500D01*
X46340569Y-90798500D01*
X46562635Y-90761444D01*
X46775574Y-90688342D01*
X46973576Y-90581189D01*
X47151240Y-90442906D01*
X47278287Y-90304898D01*
X47303715Y-90277276D01*
X47303715Y-90277275D01*
X47303722Y-90277268D01*
X47394193Y-90138790D01*
X47447338Y-90093437D01*
X47516569Y-90084013D01*
X47579905Y-90113515D01*
X47601804Y-90138787D01*
X47692278Y-90277268D01*
X47692283Y-90277273D01*
X47692284Y-90277276D01*
X47844756Y-90442902D01*
X47844760Y-90442906D01*
X48022424Y-90581189D01*
X48022425Y-90581189D01*
X48022427Y-90581191D01*
X48129301Y-90639028D01*
X48220426Y-90688342D01*
X48433365Y-90761444D01*
X48655431Y-90798500D01*
X48880569Y-90798500D01*
X49102635Y-90761444D01*
X49315574Y-90688342D01*
X49513576Y-90581189D01*
X49691240Y-90442906D01*
X49818287Y-90304898D01*
X49843715Y-90277276D01*
X49843715Y-90277275D01*
X49843722Y-90277268D01*
X49934193Y-90138790D01*
X49987338Y-90093437D01*
X50056569Y-90084013D01*
X50119905Y-90113515D01*
X50141804Y-90138787D01*
X50232278Y-90277268D01*
X50232283Y-90277273D01*
X50232284Y-90277276D01*
X50384756Y-90442902D01*
X50384760Y-90442906D01*
X50562424Y-90581189D01*
X50562425Y-90581189D01*
X50562427Y-90581191D01*
X50669301Y-90639028D01*
X50760426Y-90688342D01*
X50973365Y-90761444D01*
X51195431Y-90798500D01*
X51420569Y-90798500D01*
X51642635Y-90761444D01*
X51855574Y-90688342D01*
X52053576Y-90581189D01*
X52231240Y-90442906D01*
X52358287Y-90304898D01*
X52383715Y-90277276D01*
X52383715Y-90277275D01*
X52383722Y-90277268D01*
X52474193Y-90138790D01*
X52527338Y-90093437D01*
X52596569Y-90084013D01*
X52659905Y-90113515D01*
X52681804Y-90138787D01*
X52772278Y-90277268D01*
X52772283Y-90277273D01*
X52772284Y-90277276D01*
X52924756Y-90442902D01*
X52924760Y-90442906D01*
X53102424Y-90581189D01*
X53102425Y-90581189D01*
X53102427Y-90581191D01*
X53209301Y-90639028D01*
X53300426Y-90688342D01*
X53513365Y-90761444D01*
X53735431Y-90798500D01*
X53960569Y-90798500D01*
X54182635Y-90761444D01*
X54395574Y-90688342D01*
X54593576Y-90581189D01*
X54771240Y-90442906D01*
X54898287Y-90304898D01*
X54923715Y-90277276D01*
X54923717Y-90277273D01*
X54923722Y-90277268D01*
X55046860Y-90088791D01*
X55137296Y-89882616D01*
X55192564Y-89664368D01*
X55211156Y-89440000D01*
X55192564Y-89215632D01*
X55137296Y-88997384D01*
X55046860Y-88791209D01*
X55030706Y-88766484D01*
X54923723Y-88602734D01*
X54923715Y-88602723D01*
X54771243Y-88437097D01*
X54771238Y-88437092D01*
X54593577Y-88298812D01*
X54593577Y-88298811D01*
X54550303Y-88275393D01*
X54500713Y-88226173D01*
X54485605Y-88157957D01*
X54509775Y-88092401D01*
X54538198Y-88064763D01*
X54609373Y-88014925D01*
X53977409Y-87382962D01*
X54040993Y-87365925D01*
X54155007Y-87300099D01*
X54248099Y-87207007D01*
X54313925Y-87092993D01*
X54330962Y-87029410D01*
X54962925Y-87661373D01*
X54962926Y-87661373D01*
X55021598Y-87577582D01*
X55021600Y-87577578D01*
X55121429Y-87363492D01*
X55121433Y-87363483D01*
X55182567Y-87135326D01*
X55182569Y-87135315D01*
X55203157Y-86900001D01*
X55203157Y-86899998D01*
X55187521Y-86721288D01*
X66349500Y-86721288D01*
X66381161Y-86961785D01*
X66443947Y-87196104D01*
X66528404Y-87400000D01*
X66536776Y-87420212D01*
X66658064Y-87630289D01*
X66658066Y-87630292D01*
X66658067Y-87630293D01*
X66805733Y-87822736D01*
X66805739Y-87822743D01*
X66977256Y-87994260D01*
X66977263Y-87994266D01*
X67038415Y-88041189D01*
X67169711Y-88141936D01*
X67379788Y-88263224D01*
X67603900Y-88356054D01*
X67838211Y-88418838D01*
X68018586Y-88442584D01*
X68078711Y-88450500D01*
X68078712Y-88450500D01*
X68321289Y-88450500D01*
X68369388Y-88444167D01*
X68561789Y-88418838D01*
X68796100Y-88356054D01*
X69020212Y-88263224D01*
X69230289Y-88141936D01*
X69422738Y-87994265D01*
X69594265Y-87822738D01*
X69741936Y-87630289D01*
X69863224Y-87420212D01*
X69956054Y-87196100D01*
X70018838Y-86961789D01*
X70050500Y-86721288D01*
X70050500Y-86478712D01*
X70018838Y-86238211D01*
X69956054Y-86003900D01*
X69863224Y-85779788D01*
X69741936Y-85569711D01*
X69594265Y-85377262D01*
X69594260Y-85377256D01*
X69422743Y-85205739D01*
X69422736Y-85205733D01*
X69230293Y-85058067D01*
X69230292Y-85058066D01*
X69230289Y-85058064D01*
X69020212Y-84936776D01*
X69020205Y-84936773D01*
X68796104Y-84843947D01*
X68561785Y-84781161D01*
X68321289Y-84749500D01*
X68321288Y-84749500D01*
X68078712Y-84749500D01*
X68078711Y-84749500D01*
X67838214Y-84781161D01*
X67603895Y-84843947D01*
X67379794Y-84936773D01*
X67379785Y-84936777D01*
X67169706Y-85058067D01*
X66977263Y-85205733D01*
X66977256Y-85205739D01*
X66805739Y-85377256D01*
X66805733Y-85377263D01*
X66658067Y-85569706D01*
X66536777Y-85779785D01*
X66536773Y-85779794D01*
X66443947Y-86003895D01*
X66381161Y-86238214D01*
X66349500Y-86478711D01*
X66349500Y-86721288D01*
X55187521Y-86721288D01*
X55182569Y-86664684D01*
X55182567Y-86664673D01*
X55121433Y-86436516D01*
X55121429Y-86436507D01*
X55021600Y-86222423D01*
X55021599Y-86222421D01*
X54962925Y-86138626D01*
X54962925Y-86138625D01*
X54330962Y-86770589D01*
X54313925Y-86707007D01*
X54248099Y-86592993D01*
X54155007Y-86499901D01*
X54040993Y-86434075D01*
X53977410Y-86417037D01*
X54609373Y-85785073D01*
X54609373Y-85785072D01*
X54525583Y-85726402D01*
X54525579Y-85726400D01*
X54311492Y-85626570D01*
X54311483Y-85626566D01*
X54083326Y-85565432D01*
X54083315Y-85565430D01*
X53848002Y-85544843D01*
X53847998Y-85544843D01*
X53612684Y-85565430D01*
X53612673Y-85565432D01*
X53384516Y-85626566D01*
X53384507Y-85626570D01*
X53170419Y-85726401D01*
X53086625Y-85785072D01*
X53718590Y-86417037D01*
X53655007Y-86434075D01*
X53540993Y-86499901D01*
X53447901Y-86592993D01*
X53382075Y-86707007D01*
X53365037Y-86770590D01*
X52733072Y-86138625D01*
X52733072Y-86138626D01*
X52679574Y-86215030D01*
X52624998Y-86258655D01*
X52555499Y-86265849D01*
X52493144Y-86234326D01*
X52476424Y-86215030D01*
X52422925Y-86138626D01*
X52422925Y-86138625D01*
X51790962Y-86770589D01*
X51773925Y-86707007D01*
X51708099Y-86592993D01*
X51615007Y-86499901D01*
X51500993Y-86434075D01*
X51437410Y-86417037D01*
X52069373Y-85785073D01*
X52069373Y-85785072D01*
X51985583Y-85726402D01*
X51985579Y-85726400D01*
X51771492Y-85626570D01*
X51771483Y-85626566D01*
X51543326Y-85565432D01*
X51543315Y-85565430D01*
X51308002Y-85544843D01*
X51307998Y-85544843D01*
X51072684Y-85565430D01*
X51072673Y-85565432D01*
X50844516Y-85626566D01*
X50844507Y-85626570D01*
X50630419Y-85726401D01*
X50546625Y-85785072D01*
X51178590Y-86417037D01*
X51115007Y-86434075D01*
X51000993Y-86499901D01*
X50907901Y-86592993D01*
X50842075Y-86707007D01*
X50825037Y-86770590D01*
X50193072Y-86138625D01*
X50193072Y-86138626D01*
X50139574Y-86215030D01*
X50084998Y-86258655D01*
X50015499Y-86265849D01*
X49953144Y-86234326D01*
X49936424Y-86215030D01*
X49882925Y-86138626D01*
X49882925Y-86138625D01*
X49250962Y-86770589D01*
X49233925Y-86707007D01*
X49168099Y-86592993D01*
X49075007Y-86499901D01*
X48960993Y-86434075D01*
X48897410Y-86417037D01*
X49529373Y-85785073D01*
X49529373Y-85785072D01*
X49445583Y-85726402D01*
X49445579Y-85726400D01*
X49231492Y-85626570D01*
X49231483Y-85626566D01*
X49003326Y-85565432D01*
X49003315Y-85565430D01*
X48768002Y-85544843D01*
X48767998Y-85544843D01*
X48532684Y-85565430D01*
X48532673Y-85565432D01*
X48304516Y-85626566D01*
X48304507Y-85626570D01*
X48090419Y-85726401D01*
X48006625Y-85785072D01*
X48638590Y-86417037D01*
X48575007Y-86434075D01*
X48460993Y-86499901D01*
X48367901Y-86592993D01*
X48302075Y-86707007D01*
X48285037Y-86770590D01*
X47653072Y-86138625D01*
X47653072Y-86138626D01*
X47599574Y-86215030D01*
X47544998Y-86258655D01*
X47475499Y-86265849D01*
X47413144Y-86234326D01*
X47396424Y-86215030D01*
X47342925Y-86138626D01*
X47342925Y-86138625D01*
X46710962Y-86770589D01*
X46693925Y-86707007D01*
X46628099Y-86592993D01*
X46535007Y-86499901D01*
X46420993Y-86434075D01*
X46357410Y-86417037D01*
X46989373Y-85785073D01*
X46989373Y-85785072D01*
X46905583Y-85726402D01*
X46905579Y-85726400D01*
X46691492Y-85626570D01*
X46691483Y-85626566D01*
X46463326Y-85565432D01*
X46463315Y-85565430D01*
X46228002Y-85544843D01*
X46227998Y-85544843D01*
X45992684Y-85565430D01*
X45992673Y-85565432D01*
X45764516Y-85626566D01*
X45764507Y-85626570D01*
X45550419Y-85726401D01*
X45466625Y-85785072D01*
X46098590Y-86417037D01*
X46035007Y-86434075D01*
X45920993Y-86499901D01*
X45827901Y-86592993D01*
X45762075Y-86707007D01*
X45745037Y-86770590D01*
X45113072Y-86138625D01*
X45113072Y-86138626D01*
X45059574Y-86215030D01*
X45004998Y-86258655D01*
X44935499Y-86265849D01*
X44873144Y-86234326D01*
X44856424Y-86215030D01*
X44802925Y-86138626D01*
X44802925Y-86138625D01*
X44170962Y-86770589D01*
X44153925Y-86707007D01*
X44088099Y-86592993D01*
X43995007Y-86499901D01*
X43880993Y-86434075D01*
X43817410Y-86417037D01*
X44449373Y-85785073D01*
X44449373Y-85785072D01*
X44365583Y-85726402D01*
X44365579Y-85726400D01*
X44151492Y-85626570D01*
X44151483Y-85626566D01*
X43923326Y-85565432D01*
X43923315Y-85565430D01*
X43688002Y-85544843D01*
X43687998Y-85544843D01*
X43452684Y-85565430D01*
X43452673Y-85565432D01*
X43224516Y-85626566D01*
X43224507Y-85626570D01*
X43010419Y-85726401D01*
X42926625Y-85785072D01*
X43558590Y-86417037D01*
X43495007Y-86434075D01*
X43380993Y-86499901D01*
X43287901Y-86592993D01*
X43222075Y-86707007D01*
X43205037Y-86770590D01*
X42573072Y-86138625D01*
X42573072Y-86138626D01*
X42519574Y-86215030D01*
X42464998Y-86258655D01*
X42395499Y-86265849D01*
X42333144Y-86234326D01*
X42316424Y-86215030D01*
X42262925Y-86138626D01*
X42262925Y-86138625D01*
X41630962Y-86770589D01*
X41613925Y-86707007D01*
X41548099Y-86592993D01*
X41455007Y-86499901D01*
X41340993Y-86434075D01*
X41277410Y-86417037D01*
X41909373Y-85785073D01*
X41909373Y-85785072D01*
X41825583Y-85726402D01*
X41825579Y-85726400D01*
X41611492Y-85626570D01*
X41611483Y-85626566D01*
X41383326Y-85565432D01*
X41383315Y-85565430D01*
X41148002Y-85544843D01*
X41147998Y-85544843D01*
X40912684Y-85565430D01*
X40912673Y-85565432D01*
X40684516Y-85626566D01*
X40684507Y-85626570D01*
X40470419Y-85726401D01*
X40386625Y-85785072D01*
X41018590Y-86417037D01*
X40955007Y-86434075D01*
X40840993Y-86499901D01*
X40747901Y-86592993D01*
X40682075Y-86707007D01*
X40665037Y-86770590D01*
X40033072Y-86138625D01*
X40033072Y-86138626D01*
X39979574Y-86215030D01*
X39924998Y-86258655D01*
X39855499Y-86265849D01*
X39793144Y-86234326D01*
X39776424Y-86215030D01*
X39722925Y-86138626D01*
X39722925Y-86138625D01*
X39090962Y-86770589D01*
X39073925Y-86707007D01*
X39008099Y-86592993D01*
X38915007Y-86499901D01*
X38800993Y-86434075D01*
X38737410Y-86417037D01*
X39369373Y-85785073D01*
X39369373Y-85785072D01*
X39285583Y-85726402D01*
X39285579Y-85726400D01*
X39071492Y-85626570D01*
X39071483Y-85626566D01*
X38843326Y-85565432D01*
X38843315Y-85565430D01*
X38608002Y-85544843D01*
X38607998Y-85544843D01*
X38372684Y-85565430D01*
X38372673Y-85565432D01*
X38144516Y-85626566D01*
X38144507Y-85626570D01*
X37930419Y-85726401D01*
X37846625Y-85785072D01*
X38478590Y-86417037D01*
X38415007Y-86434075D01*
X38300993Y-86499901D01*
X38207901Y-86592993D01*
X38142075Y-86707007D01*
X38125037Y-86770590D01*
X37493072Y-86138625D01*
X37493072Y-86138626D01*
X37439574Y-86215030D01*
X37384998Y-86258655D01*
X37315499Y-86265849D01*
X37253144Y-86234326D01*
X37236424Y-86215030D01*
X37182925Y-86138626D01*
X37182925Y-86138625D01*
X36550962Y-86770589D01*
X36533925Y-86707007D01*
X36468099Y-86592993D01*
X36375007Y-86499901D01*
X36260993Y-86434075D01*
X36197410Y-86417037D01*
X36829373Y-85785073D01*
X36829373Y-85785072D01*
X36745583Y-85726402D01*
X36745579Y-85726400D01*
X36531492Y-85626570D01*
X36531483Y-85626566D01*
X36303326Y-85565432D01*
X36303315Y-85565430D01*
X36068002Y-85544843D01*
X36067998Y-85544843D01*
X35832684Y-85565430D01*
X35832673Y-85565432D01*
X35604516Y-85626566D01*
X35604507Y-85626570D01*
X35390419Y-85726401D01*
X35306625Y-85785072D01*
X35938590Y-86417037D01*
X35875007Y-86434075D01*
X35760993Y-86499901D01*
X35667901Y-86592993D01*
X35602075Y-86707007D01*
X35585037Y-86770590D01*
X34953072Y-86138625D01*
X34953072Y-86138626D01*
X34899574Y-86215030D01*
X34844998Y-86258655D01*
X34775499Y-86265849D01*
X34713144Y-86234326D01*
X34696424Y-86215030D01*
X34642925Y-86138626D01*
X34642925Y-86138625D01*
X34010962Y-86770589D01*
X33993925Y-86707007D01*
X33928099Y-86592993D01*
X33835007Y-86499901D01*
X33720993Y-86434075D01*
X33657410Y-86417037D01*
X34289373Y-85785073D01*
X34289373Y-85785072D01*
X34205583Y-85726402D01*
X34205579Y-85726400D01*
X33991492Y-85626570D01*
X33991483Y-85626566D01*
X33763326Y-85565432D01*
X33763315Y-85565430D01*
X33528002Y-85544843D01*
X33527998Y-85544843D01*
X33292684Y-85565430D01*
X33292673Y-85565432D01*
X33064516Y-85626566D01*
X33064507Y-85626570D01*
X32850419Y-85726401D01*
X32766625Y-85785072D01*
X33398590Y-86417037D01*
X33335007Y-86434075D01*
X33220993Y-86499901D01*
X33127901Y-86592993D01*
X33062075Y-86707007D01*
X33045037Y-86770590D01*
X32413072Y-86138625D01*
X32413072Y-86138626D01*
X32363131Y-86209950D01*
X32308555Y-86253575D01*
X32239056Y-86260769D01*
X32176701Y-86229246D01*
X32157748Y-86206649D01*
X32063723Y-86062734D01*
X32063715Y-86062723D01*
X31911243Y-85897097D01*
X31911238Y-85897092D01*
X31733577Y-85758812D01*
X31733572Y-85758808D01*
X31535580Y-85651661D01*
X31535577Y-85651659D01*
X31535574Y-85651658D01*
X31535571Y-85651657D01*
X31535569Y-85651656D01*
X31322637Y-85578556D01*
X31100569Y-85541500D01*
X30875431Y-85541500D01*
X30653362Y-85578556D01*
X30440430Y-85651656D01*
X30440419Y-85651661D01*
X30242427Y-85758808D01*
X30242422Y-85758812D01*
X30064761Y-85897092D01*
X30064756Y-85897097D01*
X29912284Y-86062723D01*
X29912276Y-86062734D01*
X29789140Y-86251207D01*
X29698703Y-86457385D01*
X29643436Y-86675628D01*
X29643434Y-86675640D01*
X29624844Y-86899994D01*
X29624844Y-86900005D01*
X17926972Y-86900005D01*
X17950500Y-86721288D01*
X17950500Y-86478712D01*
X17918838Y-86238211D01*
X17856054Y-86003900D01*
X17763224Y-85779788D01*
X17641936Y-85569711D01*
X17494265Y-85377262D01*
X17494260Y-85377256D01*
X17322743Y-85205739D01*
X17322736Y-85205733D01*
X17130293Y-85058067D01*
X17130292Y-85058066D01*
X17130289Y-85058064D01*
X16920212Y-84936776D01*
X16920205Y-84936773D01*
X16696104Y-84843947D01*
X16461785Y-84781161D01*
X16221289Y-84749500D01*
X16221288Y-84749500D01*
X15978712Y-84749500D01*
X15978711Y-84749500D01*
X15738214Y-84781161D01*
X15503895Y-84843947D01*
X15279794Y-84936773D01*
X15279785Y-84936777D01*
X15069706Y-85058067D01*
X14877263Y-85205733D01*
X14877256Y-85205739D01*
X14705739Y-85377256D01*
X14705733Y-85377263D01*
X14558067Y-85569706D01*
X14436777Y-85779785D01*
X14436773Y-85779794D01*
X14343947Y-86003895D01*
X14281161Y-86238214D01*
X14249500Y-86478711D01*
X14249500Y-86721288D01*
X12192000Y-86721288D01*
X12192000Y-82720000D01*
X12211685Y-82652961D01*
X12264489Y-82607206D01*
X12316000Y-82596000D01*
X15481707Y-82596000D01*
X15482235Y-82596001D01*
G37*
%TD.AperFunction*%
%TD*%
%TA.AperFunction,Conductor*%
%TO.N,GND*%
G36*
X35052000Y-170596000D02*
G01*
X35032315Y-170663039D01*
X34979511Y-170708794D01*
X34928000Y-170720000D01*
X29718000Y-170720000D01*
X29718000Y-164370000D01*
X35052000Y-164370000D01*
X35052000Y-170596000D01*
G37*
%TD.AperFunction*%
%TD*%
M02*
