%TF.GenerationSoftware,KiCad,Pcbnew,8.0.0-8.0.0-1~ubuntu20.04.1*%
%TF.CreationDate,2025-03-11T22:14:10+01:00*%
%TF.ProjectId,motherboard,6d6f7468-6572-4626-9f61-72642e6b6963,1*%
%TF.SameCoordinates,Original*%
%TF.FileFunction,Soldermask,Bot*%
%TF.FilePolarity,Negative*%
%FSLAX46Y46*%
G04 Gerber Fmt 4.6, Leading zero omitted, Abs format (unit mm)*
G04 Created by KiCad (PCBNEW 8.0.0-8.0.0-1~ubuntu20.04.1) date 2025-03-11 22:14:10*
%MOMM*%
%LPD*%
G01*
G04 APERTURE LIST*
G04 Aperture macros list*
%AMRoundRect*
0 Rectangle with rounded corners*
0 $1 Rounding radius*
0 $2 $3 $4 $5 $6 $7 $8 $9 X,Y pos of 4 corners*
0 Add a 4 corners polygon primitive as box body*
4,1,4,$2,$3,$4,$5,$6,$7,$8,$9,$2,$3,0*
0 Add four circle primitives for the rounded corners*
1,1,$1+$1,$2,$3*
1,1,$1+$1,$4,$5*
1,1,$1+$1,$6,$7*
1,1,$1+$1,$8,$9*
0 Add four rect primitives between the rounded corners*
20,1,$1+$1,$2,$3,$4,$5,0*
20,1,$1+$1,$4,$5,$6,$7,0*
20,1,$1+$1,$6,$7,$8,$9,0*
20,1,$1+$1,$8,$9,$2,$3,0*%
G04 Aperture macros list end*
%ADD10R,1.700000X1.700000*%
%ADD11O,1.700000X1.700000*%
%ADD12C,3.200000*%
%ADD13RoundRect,0.250000X0.600000X-0.600000X0.600000X0.600000X-0.600000X0.600000X-0.600000X-0.600000X0*%
%ADD14C,1.700000*%
%ADD15C,2.000000*%
%ADD16C,3.250000*%
%ADD17RoundRect,0.102000X0.704000X-0.704000X0.704000X0.704000X-0.704000X0.704000X-0.704000X-0.704000X0*%
%ADD18C,1.612000*%
%ADD19C,1.728000*%
%ADD20C,2.649000*%
G04 APERTURE END LIST*
D10*
%TO.C,J3*%
X65878000Y-137105000D03*
D11*
X65878000Y-134565000D03*
X65878000Y-132025000D03*
X65878000Y-129485000D03*
X65878000Y-126945000D03*
X65878000Y-124405000D03*
X65878000Y-121865000D03*
X65878000Y-119325000D03*
%TD*%
D10*
%TO.C,J4*%
X65878000Y-114265000D03*
D11*
X65878000Y-111725000D03*
X65878000Y-109185000D03*
X65878000Y-106645000D03*
X65878000Y-104105000D03*
X65878000Y-101565000D03*
%TD*%
D12*
%TO.C,H4*%
X68200000Y-86600000D03*
%TD*%
D10*
%TO.C,J2*%
X17653000Y-95155000D03*
D11*
X20193000Y-95155000D03*
X22733000Y-95155000D03*
%TD*%
D13*
%TO.C,J7*%
X30988000Y-89440000D03*
D14*
X30988000Y-86900000D03*
X33528000Y-89440000D03*
X33528000Y-86900000D03*
X36068000Y-89440000D03*
X36068000Y-86900000D03*
X38608000Y-89440000D03*
X38608000Y-86900000D03*
X41148000Y-89440000D03*
X41148000Y-86900000D03*
X43688000Y-89440000D03*
X43688000Y-86900000D03*
X46228000Y-89440000D03*
X46228000Y-86900000D03*
X48768000Y-89440000D03*
X48768000Y-86900000D03*
X51308000Y-89440000D03*
X51308000Y-86900000D03*
X53848000Y-89440000D03*
X53848000Y-86900000D03*
%TD*%
D12*
%TO.C,H2*%
X16100000Y-190600000D03*
%TD*%
%TO.C,H1*%
X16100000Y-86600000D03*
%TD*%
%TO.C,H3*%
X68200000Y-190600000D03*
%TD*%
D15*
%TO.C,CY1*%
X65913000Y-151115000D03*
X65913000Y-161115000D03*
%TD*%
D10*
%TO.C,J5*%
X17678000Y-123465000D03*
D11*
X17678000Y-126005000D03*
X17678000Y-128545000D03*
X17678000Y-131085000D03*
X17678000Y-133625000D03*
X17678000Y-136165000D03*
X17678000Y-138705000D03*
X17678000Y-141245000D03*
X17678000Y-143785000D03*
X17678000Y-146325000D03*
%TD*%
D16*
%TO.C,J8*%
X24130000Y-185960000D03*
X35560000Y-185960000D03*
D17*
X24130000Y-177070000D03*
D18*
X25400000Y-179610000D03*
X26670000Y-177070000D03*
X27940000Y-179610000D03*
X29210000Y-177070000D03*
X30480000Y-179610000D03*
X31750000Y-177070000D03*
X33020000Y-179610000D03*
X34290000Y-177070000D03*
X35560000Y-179610000D03*
D19*
X23220000Y-190040000D03*
X25760000Y-190040000D03*
X33930000Y-190040000D03*
X36470000Y-190040000D03*
D20*
X22100000Y-182910000D03*
X37590000Y-182910000D03*
%TD*%
D10*
%TO.C,J6*%
X17678000Y-101565000D03*
D11*
X17678000Y-104105000D03*
X17678000Y-106645000D03*
X17678000Y-109185000D03*
X17678000Y-111725000D03*
X17678000Y-114265000D03*
X17678000Y-116805000D03*
X17678000Y-119345000D03*
%TD*%
M02*
