%TF.GenerationSoftware,KiCad,Pcbnew,8.0.0-8.0.0-1~ubuntu20.04.1*%
%TF.CreationDate,2025-04-15T15:36:41+02:00*%
%TF.ProjectId,actuator-vibration-motor,61637475-6174-46f7-922d-766962726174,1*%
%TF.SameCoordinates,Original*%
%TF.FileFunction,Drillmap*%
%TF.FilePolarity,Positive*%
%FSLAX45Y45*%
G04 Gerber Fmt 4.5, Leading zero omitted, Abs format (unit mm)*
G04 Created by KiCad (PCBNEW 8.0.0-8.0.0-1~ubuntu20.04.1) date 2025-04-15 15:36:41*
%MOMM*%
%LPD*%
G01*
G04 APERTURE LIST*
%ADD10C,0.050000*%
%ADD11C,0.200000*%
%ADD12C,0.100000*%
G04 APERTURE END LIST*
D10*
X1548000Y-15748000D02*
X3048000Y-15748000D01*
X3048000Y-19748000D01*
X1548000Y-19748000D01*
X1548000Y-15748000D01*
D11*
D12*
X1710690Y-17400270D02*
X1809750Y-17499330D01*
X1809750Y-17400270D02*
X1710690Y-17499330D01*
X1812290Y-16892270D02*
X1911350Y-16991330D01*
X1911350Y-16892270D02*
X1812290Y-16991330D01*
X1913890Y-17400270D02*
X2012950Y-17499330D01*
X2012950Y-17400270D02*
X1913890Y-17499330D01*
D11*
X1806277Y-20061984D02*
X1806277Y-19861984D01*
X1806277Y-19861984D02*
X1853896Y-19861984D01*
X1853896Y-19861984D02*
X1882467Y-19871508D01*
X1882467Y-19871508D02*
X1901515Y-19890555D01*
X1901515Y-19890555D02*
X1911039Y-19909603D01*
X1911039Y-19909603D02*
X1920562Y-19947698D01*
X1920562Y-19947698D02*
X1920562Y-19976270D01*
X1920562Y-19976270D02*
X1911039Y-20014365D01*
X1911039Y-20014365D02*
X1901515Y-20033412D01*
X1901515Y-20033412D02*
X1882467Y-20052460D01*
X1882467Y-20052460D02*
X1853896Y-20061984D01*
X1853896Y-20061984D02*
X1806277Y-20061984D01*
X2006277Y-20061984D02*
X2006277Y-19928650D01*
X2006277Y-19966746D02*
X2015801Y-19947698D01*
X2015801Y-19947698D02*
X2025324Y-19938174D01*
X2025324Y-19938174D02*
X2044372Y-19928650D01*
X2044372Y-19928650D02*
X2063420Y-19928650D01*
X2130086Y-20061984D02*
X2130086Y-19928650D01*
X2130086Y-19861984D02*
X2120563Y-19871508D01*
X2120563Y-19871508D02*
X2130086Y-19881031D01*
X2130086Y-19881031D02*
X2139610Y-19871508D01*
X2139610Y-19871508D02*
X2130086Y-19861984D01*
X2130086Y-19861984D02*
X2130086Y-19881031D01*
X2253896Y-20061984D02*
X2234848Y-20052460D01*
X2234848Y-20052460D02*
X2225324Y-20033412D01*
X2225324Y-20033412D02*
X2225324Y-19861984D01*
X2358658Y-20061984D02*
X2339610Y-20052460D01*
X2339610Y-20052460D02*
X2330086Y-20033412D01*
X2330086Y-20033412D02*
X2330086Y-19861984D01*
X2587229Y-20061984D02*
X2587229Y-19861984D01*
X2587229Y-19861984D02*
X2653896Y-20004841D01*
X2653896Y-20004841D02*
X2720563Y-19861984D01*
X2720563Y-19861984D02*
X2720563Y-20061984D01*
X2901515Y-20061984D02*
X2901515Y-19957222D01*
X2901515Y-19957222D02*
X2891991Y-19938174D01*
X2891991Y-19938174D02*
X2872943Y-19928650D01*
X2872943Y-19928650D02*
X2834848Y-19928650D01*
X2834848Y-19928650D02*
X2815801Y-19938174D01*
X2901515Y-20052460D02*
X2882467Y-20061984D01*
X2882467Y-20061984D02*
X2834848Y-20061984D01*
X2834848Y-20061984D02*
X2815801Y-20052460D01*
X2815801Y-20052460D02*
X2806277Y-20033412D01*
X2806277Y-20033412D02*
X2806277Y-20014365D01*
X2806277Y-20014365D02*
X2815801Y-19995317D01*
X2815801Y-19995317D02*
X2834848Y-19985793D01*
X2834848Y-19985793D02*
X2882467Y-19985793D01*
X2882467Y-19985793D02*
X2901515Y-19976270D01*
X2996753Y-19928650D02*
X2996753Y-20128650D01*
X2996753Y-19938174D02*
X3015801Y-19928650D01*
X3015801Y-19928650D02*
X3053896Y-19928650D01*
X3053896Y-19928650D02*
X3072943Y-19938174D01*
X3072943Y-19938174D02*
X3082467Y-19947698D01*
X3082467Y-19947698D02*
X3091991Y-19966746D01*
X3091991Y-19966746D02*
X3091991Y-20023889D01*
X3091991Y-20023889D02*
X3082467Y-20042936D01*
X3082467Y-20042936D02*
X3072943Y-20052460D01*
X3072943Y-20052460D02*
X3053896Y-20061984D01*
X3053896Y-20061984D02*
X3015801Y-20061984D01*
X3015801Y-20061984D02*
X2996753Y-20052460D01*
X3177705Y-20042936D02*
X3187229Y-20052460D01*
X3187229Y-20052460D02*
X3177705Y-20061984D01*
X3177705Y-20061984D02*
X3168182Y-20052460D01*
X3168182Y-20052460D02*
X3177705Y-20042936D01*
X3177705Y-20042936D02*
X3177705Y-20061984D01*
X3177705Y-19938174D02*
X3187229Y-19947698D01*
X3187229Y-19947698D02*
X3177705Y-19957222D01*
X3177705Y-19957222D02*
X3168182Y-19947698D01*
X3168182Y-19947698D02*
X3177705Y-19938174D01*
X3177705Y-19938174D02*
X3177705Y-19957222D01*
D12*
X1446440Y-20340970D02*
X1545500Y-20440030D01*
X1545500Y-20340970D02*
X1446440Y-20440030D01*
D11*
X1844372Y-20281984D02*
X1863420Y-20281984D01*
X1863420Y-20281984D02*
X1882467Y-20291508D01*
X1882467Y-20291508D02*
X1891991Y-20301031D01*
X1891991Y-20301031D02*
X1901515Y-20320079D01*
X1901515Y-20320079D02*
X1911039Y-20358174D01*
X1911039Y-20358174D02*
X1911039Y-20405793D01*
X1911039Y-20405793D02*
X1901515Y-20443889D01*
X1901515Y-20443889D02*
X1891991Y-20462936D01*
X1891991Y-20462936D02*
X1882467Y-20472460D01*
X1882467Y-20472460D02*
X1863420Y-20481984D01*
X1863420Y-20481984D02*
X1844372Y-20481984D01*
X1844372Y-20481984D02*
X1825324Y-20472460D01*
X1825324Y-20472460D02*
X1815801Y-20462936D01*
X1815801Y-20462936D02*
X1806277Y-20443889D01*
X1806277Y-20443889D02*
X1796753Y-20405793D01*
X1796753Y-20405793D02*
X1796753Y-20358174D01*
X1796753Y-20358174D02*
X1806277Y-20320079D01*
X1806277Y-20320079D02*
X1815801Y-20301031D01*
X1815801Y-20301031D02*
X1825324Y-20291508D01*
X1825324Y-20291508D02*
X1844372Y-20281984D01*
X1996753Y-20462936D02*
X2006277Y-20472460D01*
X2006277Y-20472460D02*
X1996753Y-20481984D01*
X1996753Y-20481984D02*
X1987229Y-20472460D01*
X1987229Y-20472460D02*
X1996753Y-20462936D01*
X1996753Y-20462936D02*
X1996753Y-20481984D01*
X2101515Y-20481984D02*
X2139610Y-20481984D01*
X2139610Y-20481984D02*
X2158658Y-20472460D01*
X2158658Y-20472460D02*
X2168182Y-20462936D01*
X2168182Y-20462936D02*
X2187229Y-20434365D01*
X2187229Y-20434365D02*
X2196753Y-20396270D01*
X2196753Y-20396270D02*
X2196753Y-20320079D01*
X2196753Y-20320079D02*
X2187229Y-20301031D01*
X2187229Y-20301031D02*
X2177705Y-20291508D01*
X2177705Y-20291508D02*
X2158658Y-20281984D01*
X2158658Y-20281984D02*
X2120563Y-20281984D01*
X2120563Y-20281984D02*
X2101515Y-20291508D01*
X2101515Y-20291508D02*
X2091991Y-20301031D01*
X2091991Y-20301031D02*
X2082467Y-20320079D01*
X2082467Y-20320079D02*
X2082467Y-20367698D01*
X2082467Y-20367698D02*
X2091991Y-20386746D01*
X2091991Y-20386746D02*
X2101515Y-20396270D01*
X2101515Y-20396270D02*
X2120563Y-20405793D01*
X2120563Y-20405793D02*
X2158658Y-20405793D01*
X2158658Y-20405793D02*
X2177705Y-20396270D01*
X2177705Y-20396270D02*
X2187229Y-20386746D01*
X2187229Y-20386746D02*
X2196753Y-20367698D01*
X2291991Y-20481984D02*
X2330086Y-20481984D01*
X2330086Y-20481984D02*
X2349134Y-20472460D01*
X2349134Y-20472460D02*
X2358658Y-20462936D01*
X2358658Y-20462936D02*
X2377705Y-20434365D01*
X2377705Y-20434365D02*
X2387229Y-20396270D01*
X2387229Y-20396270D02*
X2387229Y-20320079D01*
X2387229Y-20320079D02*
X2377705Y-20301031D01*
X2377705Y-20301031D02*
X2368182Y-20291508D01*
X2368182Y-20291508D02*
X2349134Y-20281984D01*
X2349134Y-20281984D02*
X2311039Y-20281984D01*
X2311039Y-20281984D02*
X2291991Y-20291508D01*
X2291991Y-20291508D02*
X2282467Y-20301031D01*
X2282467Y-20301031D02*
X2272944Y-20320079D01*
X2272944Y-20320079D02*
X2272944Y-20367698D01*
X2272944Y-20367698D02*
X2282467Y-20386746D01*
X2282467Y-20386746D02*
X2291991Y-20396270D01*
X2291991Y-20396270D02*
X2311039Y-20405793D01*
X2311039Y-20405793D02*
X2349134Y-20405793D01*
X2349134Y-20405793D02*
X2368182Y-20396270D01*
X2368182Y-20396270D02*
X2377705Y-20386746D01*
X2377705Y-20386746D02*
X2387229Y-20367698D01*
X2577705Y-20481984D02*
X2463420Y-20481984D01*
X2520563Y-20481984D02*
X2520563Y-20281984D01*
X2520563Y-20281984D02*
X2501515Y-20310555D01*
X2501515Y-20310555D02*
X2482467Y-20329603D01*
X2482467Y-20329603D02*
X2463420Y-20339127D01*
X2663420Y-20481984D02*
X2663420Y-20348650D01*
X2663420Y-20367698D02*
X2672944Y-20358174D01*
X2672944Y-20358174D02*
X2691991Y-20348650D01*
X2691991Y-20348650D02*
X2720563Y-20348650D01*
X2720563Y-20348650D02*
X2739610Y-20358174D01*
X2739610Y-20358174D02*
X2749134Y-20377222D01*
X2749134Y-20377222D02*
X2749134Y-20481984D01*
X2749134Y-20377222D02*
X2758658Y-20358174D01*
X2758658Y-20358174D02*
X2777705Y-20348650D01*
X2777705Y-20348650D02*
X2806277Y-20348650D01*
X2806277Y-20348650D02*
X2825324Y-20358174D01*
X2825324Y-20358174D02*
X2834848Y-20377222D01*
X2834848Y-20377222D02*
X2834848Y-20481984D01*
X2930086Y-20481984D02*
X2930086Y-20348650D01*
X2930086Y-20367698D02*
X2939610Y-20358174D01*
X2939610Y-20358174D02*
X2958658Y-20348650D01*
X2958658Y-20348650D02*
X2987229Y-20348650D01*
X2987229Y-20348650D02*
X3006277Y-20358174D01*
X3006277Y-20358174D02*
X3015801Y-20377222D01*
X3015801Y-20377222D02*
X3015801Y-20481984D01*
X3015801Y-20377222D02*
X3025324Y-20358174D01*
X3025324Y-20358174D02*
X3044372Y-20348650D01*
X3044372Y-20348650D02*
X3072943Y-20348650D01*
X3072943Y-20348650D02*
X3091991Y-20358174D01*
X3091991Y-20358174D02*
X3101515Y-20377222D01*
X3101515Y-20377222D02*
X3101515Y-20481984D01*
X3491991Y-20272460D02*
X3320563Y-20529603D01*
X3749134Y-20281984D02*
X3768182Y-20281984D01*
X3768182Y-20281984D02*
X3787229Y-20291508D01*
X3787229Y-20291508D02*
X3796753Y-20301031D01*
X3796753Y-20301031D02*
X3806277Y-20320079D01*
X3806277Y-20320079D02*
X3815801Y-20358174D01*
X3815801Y-20358174D02*
X3815801Y-20405793D01*
X3815801Y-20405793D02*
X3806277Y-20443889D01*
X3806277Y-20443889D02*
X3796753Y-20462936D01*
X3796753Y-20462936D02*
X3787229Y-20472460D01*
X3787229Y-20472460D02*
X3768182Y-20481984D01*
X3768182Y-20481984D02*
X3749134Y-20481984D01*
X3749134Y-20481984D02*
X3730086Y-20472460D01*
X3730086Y-20472460D02*
X3720563Y-20462936D01*
X3720563Y-20462936D02*
X3711039Y-20443889D01*
X3711039Y-20443889D02*
X3701515Y-20405793D01*
X3701515Y-20405793D02*
X3701515Y-20358174D01*
X3701515Y-20358174D02*
X3711039Y-20320079D01*
X3711039Y-20320079D02*
X3720563Y-20301031D01*
X3720563Y-20301031D02*
X3730086Y-20291508D01*
X3730086Y-20291508D02*
X3749134Y-20281984D01*
X3901515Y-20462936D02*
X3911039Y-20472460D01*
X3911039Y-20472460D02*
X3901515Y-20481984D01*
X3901515Y-20481984D02*
X3891991Y-20472460D01*
X3891991Y-20472460D02*
X3901515Y-20462936D01*
X3901515Y-20462936D02*
X3901515Y-20481984D01*
X4034848Y-20281984D02*
X4053896Y-20281984D01*
X4053896Y-20281984D02*
X4072944Y-20291508D01*
X4072944Y-20291508D02*
X4082467Y-20301031D01*
X4082467Y-20301031D02*
X4091991Y-20320079D01*
X4091991Y-20320079D02*
X4101515Y-20358174D01*
X4101515Y-20358174D02*
X4101515Y-20405793D01*
X4101515Y-20405793D02*
X4091991Y-20443889D01*
X4091991Y-20443889D02*
X4082467Y-20462936D01*
X4082467Y-20462936D02*
X4072944Y-20472460D01*
X4072944Y-20472460D02*
X4053896Y-20481984D01*
X4053896Y-20481984D02*
X4034848Y-20481984D01*
X4034848Y-20481984D02*
X4015801Y-20472460D01*
X4015801Y-20472460D02*
X4006277Y-20462936D01*
X4006277Y-20462936D02*
X3996753Y-20443889D01*
X3996753Y-20443889D02*
X3987229Y-20405793D01*
X3987229Y-20405793D02*
X3987229Y-20358174D01*
X3987229Y-20358174D02*
X3996753Y-20320079D01*
X3996753Y-20320079D02*
X4006277Y-20301031D01*
X4006277Y-20301031D02*
X4015801Y-20291508D01*
X4015801Y-20291508D02*
X4034848Y-20281984D01*
X4168182Y-20281984D02*
X4291991Y-20281984D01*
X4291991Y-20281984D02*
X4225325Y-20358174D01*
X4225325Y-20358174D02*
X4253896Y-20358174D01*
X4253896Y-20358174D02*
X4272944Y-20367698D01*
X4272944Y-20367698D02*
X4282468Y-20377222D01*
X4282468Y-20377222D02*
X4291991Y-20396270D01*
X4291991Y-20396270D02*
X4291991Y-20443889D01*
X4291991Y-20443889D02*
X4282468Y-20462936D01*
X4282468Y-20462936D02*
X4272944Y-20472460D01*
X4272944Y-20472460D02*
X4253896Y-20481984D01*
X4253896Y-20481984D02*
X4196753Y-20481984D01*
X4196753Y-20481984D02*
X4177706Y-20472460D01*
X4177706Y-20472460D02*
X4168182Y-20462936D01*
X4387229Y-20481984D02*
X4425325Y-20481984D01*
X4425325Y-20481984D02*
X4444372Y-20472460D01*
X4444372Y-20472460D02*
X4453896Y-20462936D01*
X4453896Y-20462936D02*
X4472944Y-20434365D01*
X4472944Y-20434365D02*
X4482468Y-20396270D01*
X4482468Y-20396270D02*
X4482468Y-20320079D01*
X4482468Y-20320079D02*
X4472944Y-20301031D01*
X4472944Y-20301031D02*
X4463420Y-20291508D01*
X4463420Y-20291508D02*
X4444372Y-20281984D01*
X4444372Y-20281984D02*
X4406277Y-20281984D01*
X4406277Y-20281984D02*
X4387229Y-20291508D01*
X4387229Y-20291508D02*
X4377706Y-20301031D01*
X4377706Y-20301031D02*
X4368182Y-20320079D01*
X4368182Y-20320079D02*
X4368182Y-20367698D01*
X4368182Y-20367698D02*
X4377706Y-20386746D01*
X4377706Y-20386746D02*
X4387229Y-20396270D01*
X4387229Y-20396270D02*
X4406277Y-20405793D01*
X4406277Y-20405793D02*
X4444372Y-20405793D01*
X4444372Y-20405793D02*
X4463420Y-20396270D01*
X4463420Y-20396270D02*
X4472944Y-20386746D01*
X4472944Y-20386746D02*
X4482468Y-20367698D01*
X4606277Y-20281984D02*
X4625325Y-20281984D01*
X4625325Y-20281984D02*
X4644372Y-20291508D01*
X4644372Y-20291508D02*
X4653896Y-20301031D01*
X4653896Y-20301031D02*
X4663420Y-20320079D01*
X4663420Y-20320079D02*
X4672944Y-20358174D01*
X4672944Y-20358174D02*
X4672944Y-20405793D01*
X4672944Y-20405793D02*
X4663420Y-20443889D01*
X4663420Y-20443889D02*
X4653896Y-20462936D01*
X4653896Y-20462936D02*
X4644372Y-20472460D01*
X4644372Y-20472460D02*
X4625325Y-20481984D01*
X4625325Y-20481984D02*
X4606277Y-20481984D01*
X4606277Y-20481984D02*
X4587229Y-20472460D01*
X4587229Y-20472460D02*
X4577706Y-20462936D01*
X4577706Y-20462936D02*
X4568182Y-20443889D01*
X4568182Y-20443889D02*
X4558658Y-20405793D01*
X4558658Y-20405793D02*
X4558658Y-20358174D01*
X4558658Y-20358174D02*
X4568182Y-20320079D01*
X4568182Y-20320079D02*
X4577706Y-20301031D01*
X4577706Y-20301031D02*
X4587229Y-20291508D01*
X4587229Y-20291508D02*
X4606277Y-20281984D01*
X4749134Y-20281984D02*
X4749134Y-20320079D01*
X4825325Y-20281984D02*
X4825325Y-20320079D01*
X5120563Y-20558174D02*
X5111039Y-20548650D01*
X5111039Y-20548650D02*
X5091991Y-20520079D01*
X5091991Y-20520079D02*
X5082468Y-20501031D01*
X5082468Y-20501031D02*
X5072944Y-20472460D01*
X5072944Y-20472460D02*
X5063420Y-20424841D01*
X5063420Y-20424841D02*
X5063420Y-20386746D01*
X5063420Y-20386746D02*
X5072944Y-20339127D01*
X5072944Y-20339127D02*
X5082468Y-20310555D01*
X5082468Y-20310555D02*
X5091991Y-20291508D01*
X5091991Y-20291508D02*
X5111039Y-20262936D01*
X5111039Y-20262936D02*
X5120563Y-20253412D01*
X5177706Y-20281984D02*
X5301515Y-20281984D01*
X5301515Y-20281984D02*
X5234849Y-20358174D01*
X5234849Y-20358174D02*
X5263420Y-20358174D01*
X5263420Y-20358174D02*
X5282468Y-20367698D01*
X5282468Y-20367698D02*
X5291991Y-20377222D01*
X5291991Y-20377222D02*
X5301515Y-20396270D01*
X5301515Y-20396270D02*
X5301515Y-20443889D01*
X5301515Y-20443889D02*
X5291991Y-20462936D01*
X5291991Y-20462936D02*
X5282468Y-20472460D01*
X5282468Y-20472460D02*
X5263420Y-20481984D01*
X5263420Y-20481984D02*
X5206277Y-20481984D01*
X5206277Y-20481984D02*
X5187230Y-20472460D01*
X5187230Y-20472460D02*
X5177706Y-20462936D01*
X5539611Y-20481984D02*
X5539611Y-20281984D01*
X5625325Y-20481984D02*
X5625325Y-20377222D01*
X5625325Y-20377222D02*
X5615801Y-20358174D01*
X5615801Y-20358174D02*
X5596753Y-20348650D01*
X5596753Y-20348650D02*
X5568182Y-20348650D01*
X5568182Y-20348650D02*
X5549134Y-20358174D01*
X5549134Y-20358174D02*
X5539611Y-20367698D01*
X5749134Y-20481984D02*
X5730087Y-20472460D01*
X5730087Y-20472460D02*
X5720563Y-20462936D01*
X5720563Y-20462936D02*
X5711039Y-20443889D01*
X5711039Y-20443889D02*
X5711039Y-20386746D01*
X5711039Y-20386746D02*
X5720563Y-20367698D01*
X5720563Y-20367698D02*
X5730087Y-20358174D01*
X5730087Y-20358174D02*
X5749134Y-20348650D01*
X5749134Y-20348650D02*
X5777706Y-20348650D01*
X5777706Y-20348650D02*
X5796753Y-20358174D01*
X5796753Y-20358174D02*
X5806277Y-20367698D01*
X5806277Y-20367698D02*
X5815801Y-20386746D01*
X5815801Y-20386746D02*
X5815801Y-20443889D01*
X5815801Y-20443889D02*
X5806277Y-20462936D01*
X5806277Y-20462936D02*
X5796753Y-20472460D01*
X5796753Y-20472460D02*
X5777706Y-20481984D01*
X5777706Y-20481984D02*
X5749134Y-20481984D01*
X5930087Y-20481984D02*
X5911039Y-20472460D01*
X5911039Y-20472460D02*
X5901515Y-20453412D01*
X5901515Y-20453412D02*
X5901515Y-20281984D01*
X6082468Y-20472460D02*
X6063420Y-20481984D01*
X6063420Y-20481984D02*
X6025325Y-20481984D01*
X6025325Y-20481984D02*
X6006277Y-20472460D01*
X6006277Y-20472460D02*
X5996753Y-20453412D01*
X5996753Y-20453412D02*
X5996753Y-20377222D01*
X5996753Y-20377222D02*
X6006277Y-20358174D01*
X6006277Y-20358174D02*
X6025325Y-20348650D01*
X6025325Y-20348650D02*
X6063420Y-20348650D01*
X6063420Y-20348650D02*
X6082468Y-20358174D01*
X6082468Y-20358174D02*
X6091991Y-20377222D01*
X6091991Y-20377222D02*
X6091991Y-20396270D01*
X6091991Y-20396270D02*
X5996753Y-20415317D01*
X6168182Y-20472460D02*
X6187230Y-20481984D01*
X6187230Y-20481984D02*
X6225325Y-20481984D01*
X6225325Y-20481984D02*
X6244372Y-20472460D01*
X6244372Y-20472460D02*
X6253896Y-20453412D01*
X6253896Y-20453412D02*
X6253896Y-20443889D01*
X6253896Y-20443889D02*
X6244372Y-20424841D01*
X6244372Y-20424841D02*
X6225325Y-20415317D01*
X6225325Y-20415317D02*
X6196753Y-20415317D01*
X6196753Y-20415317D02*
X6177706Y-20405793D01*
X6177706Y-20405793D02*
X6168182Y-20386746D01*
X6168182Y-20386746D02*
X6168182Y-20377222D01*
X6168182Y-20377222D02*
X6177706Y-20358174D01*
X6177706Y-20358174D02*
X6196753Y-20348650D01*
X6196753Y-20348650D02*
X6225325Y-20348650D01*
X6225325Y-20348650D02*
X6244372Y-20358174D01*
X6320563Y-20558174D02*
X6330087Y-20548650D01*
X6330087Y-20548650D02*
X6349134Y-20520079D01*
X6349134Y-20520079D02*
X6358658Y-20501031D01*
X6358658Y-20501031D02*
X6368182Y-20472460D01*
X6368182Y-20472460D02*
X6377706Y-20424841D01*
X6377706Y-20424841D02*
X6377706Y-20386746D01*
X6377706Y-20386746D02*
X6368182Y-20339127D01*
X6368182Y-20339127D02*
X6358658Y-20310555D01*
X6358658Y-20310555D02*
X6349134Y-20291508D01*
X6349134Y-20291508D02*
X6330087Y-20262936D01*
X6330087Y-20262936D02*
X6320563Y-20253412D01*
X6682468Y-20558174D02*
X6672944Y-20548650D01*
X6672944Y-20548650D02*
X6653896Y-20520079D01*
X6653896Y-20520079D02*
X6644372Y-20501031D01*
X6644372Y-20501031D02*
X6634849Y-20472460D01*
X6634849Y-20472460D02*
X6625325Y-20424841D01*
X6625325Y-20424841D02*
X6625325Y-20386746D01*
X6625325Y-20386746D02*
X6634849Y-20339127D01*
X6634849Y-20339127D02*
X6644372Y-20310555D01*
X6644372Y-20310555D02*
X6653896Y-20291508D01*
X6653896Y-20291508D02*
X6672944Y-20262936D01*
X6672944Y-20262936D02*
X6682468Y-20253412D01*
X6758658Y-20348650D02*
X6758658Y-20481984D01*
X6758658Y-20367698D02*
X6768182Y-20358174D01*
X6768182Y-20358174D02*
X6787230Y-20348650D01*
X6787230Y-20348650D02*
X6815801Y-20348650D01*
X6815801Y-20348650D02*
X6834849Y-20358174D01*
X6834849Y-20358174D02*
X6844372Y-20377222D01*
X6844372Y-20377222D02*
X6844372Y-20481984D01*
X6968182Y-20481984D02*
X6949134Y-20472460D01*
X6949134Y-20472460D02*
X6939611Y-20462936D01*
X6939611Y-20462936D02*
X6930087Y-20443889D01*
X6930087Y-20443889D02*
X6930087Y-20386746D01*
X6930087Y-20386746D02*
X6939611Y-20367698D01*
X6939611Y-20367698D02*
X6949134Y-20358174D01*
X6949134Y-20358174D02*
X6968182Y-20348650D01*
X6968182Y-20348650D02*
X6996753Y-20348650D01*
X6996753Y-20348650D02*
X7015801Y-20358174D01*
X7015801Y-20358174D02*
X7025325Y-20367698D01*
X7025325Y-20367698D02*
X7034849Y-20386746D01*
X7034849Y-20386746D02*
X7034849Y-20443889D01*
X7034849Y-20443889D02*
X7025325Y-20462936D01*
X7025325Y-20462936D02*
X7015801Y-20472460D01*
X7015801Y-20472460D02*
X6996753Y-20481984D01*
X6996753Y-20481984D02*
X6968182Y-20481984D01*
X7091992Y-20348650D02*
X7168182Y-20348650D01*
X7120563Y-20281984D02*
X7120563Y-20453412D01*
X7120563Y-20453412D02*
X7130087Y-20472460D01*
X7130087Y-20472460D02*
X7149134Y-20481984D01*
X7149134Y-20481984D02*
X7168182Y-20481984D01*
X7387230Y-20348650D02*
X7387230Y-20548650D01*
X7387230Y-20358174D02*
X7406277Y-20348650D01*
X7406277Y-20348650D02*
X7444373Y-20348650D01*
X7444373Y-20348650D02*
X7463420Y-20358174D01*
X7463420Y-20358174D02*
X7472944Y-20367698D01*
X7472944Y-20367698D02*
X7482468Y-20386746D01*
X7482468Y-20386746D02*
X7482468Y-20443889D01*
X7482468Y-20443889D02*
X7472944Y-20462936D01*
X7472944Y-20462936D02*
X7463420Y-20472460D01*
X7463420Y-20472460D02*
X7444373Y-20481984D01*
X7444373Y-20481984D02*
X7406277Y-20481984D01*
X7406277Y-20481984D02*
X7387230Y-20472460D01*
X7596753Y-20481984D02*
X7577706Y-20472460D01*
X7577706Y-20472460D02*
X7568182Y-20453412D01*
X7568182Y-20453412D02*
X7568182Y-20281984D01*
X7758658Y-20481984D02*
X7758658Y-20377222D01*
X7758658Y-20377222D02*
X7749134Y-20358174D01*
X7749134Y-20358174D02*
X7730087Y-20348650D01*
X7730087Y-20348650D02*
X7691992Y-20348650D01*
X7691992Y-20348650D02*
X7672944Y-20358174D01*
X7758658Y-20472460D02*
X7739611Y-20481984D01*
X7739611Y-20481984D02*
X7691992Y-20481984D01*
X7691992Y-20481984D02*
X7672944Y-20472460D01*
X7672944Y-20472460D02*
X7663420Y-20453412D01*
X7663420Y-20453412D02*
X7663420Y-20434365D01*
X7663420Y-20434365D02*
X7672944Y-20415317D01*
X7672944Y-20415317D02*
X7691992Y-20405793D01*
X7691992Y-20405793D02*
X7739611Y-20405793D01*
X7739611Y-20405793D02*
X7758658Y-20396270D01*
X7825325Y-20348650D02*
X7901515Y-20348650D01*
X7853896Y-20281984D02*
X7853896Y-20453412D01*
X7853896Y-20453412D02*
X7863420Y-20472460D01*
X7863420Y-20472460D02*
X7882468Y-20481984D01*
X7882468Y-20481984D02*
X7901515Y-20481984D01*
X8044373Y-20472460D02*
X8025325Y-20481984D01*
X8025325Y-20481984D02*
X7987230Y-20481984D01*
X7987230Y-20481984D02*
X7968182Y-20472460D01*
X7968182Y-20472460D02*
X7958658Y-20453412D01*
X7958658Y-20453412D02*
X7958658Y-20377222D01*
X7958658Y-20377222D02*
X7968182Y-20358174D01*
X7968182Y-20358174D02*
X7987230Y-20348650D01*
X7987230Y-20348650D02*
X8025325Y-20348650D01*
X8025325Y-20348650D02*
X8044373Y-20358174D01*
X8044373Y-20358174D02*
X8053896Y-20377222D01*
X8053896Y-20377222D02*
X8053896Y-20396270D01*
X8053896Y-20396270D02*
X7958658Y-20415317D01*
X8225325Y-20481984D02*
X8225325Y-20281984D01*
X8225325Y-20472460D02*
X8206277Y-20481984D01*
X8206277Y-20481984D02*
X8168182Y-20481984D01*
X8168182Y-20481984D02*
X8149134Y-20472460D01*
X8149134Y-20472460D02*
X8139611Y-20462936D01*
X8139611Y-20462936D02*
X8130087Y-20443889D01*
X8130087Y-20443889D02*
X8130087Y-20386746D01*
X8130087Y-20386746D02*
X8139611Y-20367698D01*
X8139611Y-20367698D02*
X8149134Y-20358174D01*
X8149134Y-20358174D02*
X8168182Y-20348650D01*
X8168182Y-20348650D02*
X8206277Y-20348650D01*
X8206277Y-20348650D02*
X8225325Y-20358174D01*
X8301515Y-20558174D02*
X8311039Y-20548650D01*
X8311039Y-20548650D02*
X8330087Y-20520079D01*
X8330087Y-20520079D02*
X8339611Y-20501031D01*
X8339611Y-20501031D02*
X8349134Y-20472460D01*
X8349134Y-20472460D02*
X8358658Y-20424841D01*
X8358658Y-20424841D02*
X8358658Y-20386746D01*
X8358658Y-20386746D02*
X8349134Y-20339127D01*
X8349134Y-20339127D02*
X8339611Y-20310555D01*
X8339611Y-20310555D02*
X8330087Y-20291508D01*
X8330087Y-20291508D02*
X8311039Y-20262936D01*
X8311039Y-20262936D02*
X8301515Y-20253412D01*
M02*
