G04 #@! TF.GenerationSoftware,KiCad,Pcbnew,8.0.0-8.0.0-1~ubuntu20.04.1*
G04 #@! TF.CreationDate,2025-04-15T15:36:13+02:00*
G04 #@! TF.ProjectId,actuator-vibration-motor,61637475-6174-46f7-922d-766962726174,1*
G04 #@! TF.SameCoordinates,Original*
G04 #@! TF.FileFunction,Legend,Top*
G04 #@! TF.FilePolarity,Positive*
%FSLAX46Y46*%
G04 Gerber Fmt 4.6, Leading zero omitted, Abs format (unit mm)*
G04 Created by KiCad (PCBNEW 8.0.0-8.0.0-1~ubuntu20.04.1) date 2025-04-15 15:36:13*
%MOMM*%
%LPD*%
G01*
G04 APERTURE LIST*
G04 Aperture macros list*
%AMRoundRect*
0 Rectangle with rounded corners*
0 $1 Rounding radius*
0 $2 $3 $4 $5 $6 $7 $8 $9 X,Y pos of 4 corners*
0 Add a 4 corners polygon primitive as box body*
4,1,4,$2,$3,$4,$5,$6,$7,$8,$9,$2,$3,0*
0 Add four circle primitives for the rounded corners*
1,1,$1+$1,$2,$3*
1,1,$1+$1,$4,$5*
1,1,$1+$1,$6,$7*
1,1,$1+$1,$8,$9*
0 Add four rect primitives between the rounded corners*
20,1,$1+$1,$2,$3,$4,$5,0*
20,1,$1+$1,$4,$5,$6,$7,0*
20,1,$1+$1,$6,$7,$8,$9,0*
20,1,$1+$1,$8,$9,$2,$3,0*%
%AMFreePoly0*
4,1,14,0.230680,0.111820,0.364320,-0.021820,0.377500,-0.053640,0.377500,-0.080000,0.364320,-0.111820,0.332500,-0.125000,-0.332500,-0.125000,-0.364320,-0.111820,-0.377500,-0.080000,-0.377500,0.080000,-0.364320,0.111820,-0.332500,0.125000,0.198860,0.125000,0.230680,0.111820,0.230680,0.111820,$1*%
%AMFreePoly1*
4,1,14,0.364320,0.111820,0.377500,0.080000,0.377500,0.053640,0.364320,0.021820,0.230680,-0.111820,0.198860,-0.125000,-0.332500,-0.125000,-0.364320,-0.111820,-0.377500,-0.080000,-0.377500,0.080000,-0.364320,0.111820,-0.332500,0.125000,0.332500,0.125000,0.364320,0.111820,0.364320,0.111820,$1*%
%AMFreePoly2*
4,1,14,0.111820,0.364320,0.125000,0.332500,0.125000,-0.332500,0.111820,-0.364320,0.080000,-0.377500,-0.080000,-0.377500,-0.111820,-0.364320,-0.125000,-0.332500,-0.125000,0.198860,-0.111820,0.230680,0.021820,0.364320,0.053640,0.377500,0.080000,0.377500,0.111820,0.364320,0.111820,0.364320,$1*%
%AMFreePoly3*
4,1,14,-0.021820,0.364320,0.111820,0.230680,0.125000,0.198860,0.125000,-0.332500,0.111820,-0.364320,0.080000,-0.377500,-0.080000,-0.377500,-0.111820,-0.364320,-0.125000,-0.332500,-0.125000,0.332500,-0.111820,0.364320,-0.080000,0.377500,-0.053640,0.377500,-0.021820,0.364320,-0.021820,0.364320,$1*%
%AMFreePoly4*
4,1,14,0.364320,0.111820,0.377500,0.080000,0.377500,-0.080000,0.364320,-0.111820,0.332500,-0.125000,-0.198860,-0.125000,-0.230680,-0.111820,-0.364320,0.021820,-0.377500,0.053640,-0.377500,0.080000,-0.364320,0.111820,-0.332500,0.125000,0.332500,0.125000,0.364320,0.111820,0.364320,0.111820,$1*%
%AMFreePoly5*
4,1,14,0.364320,0.111820,0.377500,0.080000,0.377500,-0.080000,0.364320,-0.111820,0.332500,-0.125000,-0.332500,-0.125000,-0.364320,-0.111820,-0.377500,-0.080000,-0.377500,-0.053640,-0.364320,-0.021820,-0.230680,0.111820,-0.198860,0.125000,0.332500,0.125000,0.364320,0.111820,0.364320,0.111820,$1*%
%AMFreePoly6*
4,1,14,0.111820,0.364320,0.125000,0.332500,0.125000,-0.198860,0.111820,-0.230680,-0.021820,-0.364320,-0.053640,-0.377500,-0.080000,-0.377500,-0.111820,-0.364320,-0.125000,-0.332500,-0.125000,0.332500,-0.111820,0.364320,-0.080000,0.377500,0.080000,0.377500,0.111820,0.364320,0.111820,0.364320,$1*%
%AMFreePoly7*
4,1,14,0.111820,0.364320,0.125000,0.332500,0.125000,-0.332500,0.111820,-0.364320,0.080000,-0.377500,0.053640,-0.377500,0.021820,-0.364320,-0.111820,-0.230680,-0.125000,-0.198860,-0.125000,0.332500,-0.111820,0.364320,-0.080000,0.377500,0.080000,0.377500,0.111820,0.364320,0.111820,0.364320,$1*%
G04 Aperture macros list end*
%ADD10C,0.150000*%
%ADD11C,0.120000*%
%ADD12RoundRect,0.250000X-0.350000X-0.625000X0.350000X-0.625000X0.350000X0.625000X-0.350000X0.625000X0*%
%ADD13O,1.200000X1.750000*%
%ADD14RoundRect,0.135000X0.135000X0.185000X-0.135000X0.185000X-0.135000X-0.185000X0.135000X-0.185000X0*%
%ADD15RoundRect,0.150000X-0.150000X0.675000X-0.150000X-0.675000X0.150000X-0.675000X0.150000X0.675000X0*%
%ADD16RoundRect,0.140000X-0.170000X0.140000X-0.170000X-0.140000X0.170000X-0.140000X0.170000X0.140000X0*%
%ADD17C,0.990600*%
%ADD18C,0.787400*%
%ADD19RoundRect,0.250000X0.350000X0.625000X-0.350000X0.625000X-0.350000X-0.625000X0.350000X-0.625000X0*%
%ADD20RoundRect,0.112500X-0.187500X-0.112500X0.187500X-0.112500X0.187500X0.112500X-0.187500X0.112500X0*%
%ADD21R,1.800000X1.000000*%
%ADD22RoundRect,0.140000X0.170000X-0.140000X0.170000X0.140000X-0.170000X0.140000X-0.170000X-0.140000X0*%
%ADD23RoundRect,0.140000X-0.140000X-0.170000X0.140000X-0.170000X0.140000X0.170000X-0.140000X0.170000X0*%
%ADD24RoundRect,0.150000X-0.512500X-0.150000X0.512500X-0.150000X0.512500X0.150000X-0.512500X0.150000X0*%
%ADD25RoundRect,0.140000X0.140000X0.170000X-0.140000X0.170000X-0.140000X-0.170000X0.140000X-0.170000X0*%
%ADD26R,1.000000X1.000000*%
%ADD27O,1.000000X1.000000*%
%ADD28RoundRect,0.150000X0.587500X0.150000X-0.587500X0.150000X-0.587500X-0.150000X0.587500X-0.150000X0*%
%ADD29FreePoly0,180.000000*%
%ADD30RoundRect,0.062500X0.375000X0.062500X-0.375000X0.062500X-0.375000X-0.062500X0.375000X-0.062500X0*%
%ADD31FreePoly1,180.000000*%
%ADD32FreePoly2,180.000000*%
%ADD33RoundRect,0.062500X0.062500X0.375000X-0.062500X0.375000X-0.062500X-0.375000X0.062500X-0.375000X0*%
%ADD34FreePoly3,180.000000*%
%ADD35FreePoly4,180.000000*%
%ADD36FreePoly5,180.000000*%
%ADD37FreePoly6,180.000000*%
%ADD38FreePoly7,180.000000*%
G04 APERTURE END LIST*
D10*
X27762200Y-164001316D02*
X27762200Y-164763220D01*
X27571723Y-164001316D02*
X27286009Y-164763220D01*
X27286009Y-164763220D02*
X27000295Y-164001316D01*
X26905057Y-163572744D02*
X26857438Y-163525125D01*
X26857438Y-163525125D02*
X26809819Y-163429887D01*
X26809819Y-163429887D02*
X26809819Y-163191792D01*
X26809819Y-163191792D02*
X26857438Y-163096554D01*
X26857438Y-163096554D02*
X26905057Y-163048935D01*
X26905057Y-163048935D02*
X27000295Y-163001316D01*
X27000295Y-163001316D02*
X27095533Y-163001316D01*
X27095533Y-163001316D02*
X27238390Y-163048935D01*
X27238390Y-163048935D02*
X27809819Y-163620363D01*
X27809819Y-163620363D02*
X27809819Y-163001316D01*
X26809819Y-162382268D02*
X26809819Y-162287030D01*
X26809819Y-162287030D02*
X26857438Y-162191792D01*
X26857438Y-162191792D02*
X26905057Y-162144173D01*
X26905057Y-162144173D02*
X27000295Y-162096554D01*
X27000295Y-162096554D02*
X27190771Y-162048935D01*
X27190771Y-162048935D02*
X27428866Y-162048935D01*
X27428866Y-162048935D02*
X27619342Y-162096554D01*
X27619342Y-162096554D02*
X27714580Y-162144173D01*
X27714580Y-162144173D02*
X27762200Y-162191792D01*
X27762200Y-162191792D02*
X27809819Y-162287030D01*
X27809819Y-162287030D02*
X27809819Y-162382268D01*
X27809819Y-162382268D02*
X27762200Y-162477506D01*
X27762200Y-162477506D02*
X27714580Y-162525125D01*
X27714580Y-162525125D02*
X27619342Y-162572744D01*
X27619342Y-162572744D02*
X27428866Y-162620363D01*
X27428866Y-162620363D02*
X27190771Y-162620363D01*
X27190771Y-162620363D02*
X27000295Y-162572744D01*
X27000295Y-162572744D02*
X26905057Y-162525125D01*
X26905057Y-162525125D02*
X26857438Y-162477506D01*
X26857438Y-162477506D02*
X26809819Y-162382268D01*
X26809819Y-161429887D02*
X26809819Y-161334649D01*
X26809819Y-161334649D02*
X26857438Y-161239411D01*
X26857438Y-161239411D02*
X26905057Y-161191792D01*
X26905057Y-161191792D02*
X27000295Y-161144173D01*
X27000295Y-161144173D02*
X27190771Y-161096554D01*
X27190771Y-161096554D02*
X27428866Y-161096554D01*
X27428866Y-161096554D02*
X27619342Y-161144173D01*
X27619342Y-161144173D02*
X27714580Y-161191792D01*
X27714580Y-161191792D02*
X27762200Y-161239411D01*
X27762200Y-161239411D02*
X27809819Y-161334649D01*
X27809819Y-161334649D02*
X27809819Y-161429887D01*
X27809819Y-161429887D02*
X27762200Y-161525125D01*
X27762200Y-161525125D02*
X27714580Y-161572744D01*
X27714580Y-161572744D02*
X27619342Y-161620363D01*
X27619342Y-161620363D02*
X27428866Y-161667982D01*
X27428866Y-161667982D02*
X27190771Y-161667982D01*
X27190771Y-161667982D02*
X27000295Y-161620363D01*
X27000295Y-161620363D02*
X26905057Y-161572744D01*
X26905057Y-161572744D02*
X26857438Y-161525125D01*
X26857438Y-161525125D02*
X26809819Y-161429887D01*
X27809819Y-160667982D02*
X27143152Y-160667982D01*
X27238390Y-160667982D02*
X27190771Y-160620363D01*
X27190771Y-160620363D02*
X27143152Y-160525125D01*
X27143152Y-160525125D02*
X27143152Y-160382268D01*
X27143152Y-160382268D02*
X27190771Y-160287030D01*
X27190771Y-160287030D02*
X27286009Y-160239411D01*
X27286009Y-160239411D02*
X27809819Y-160239411D01*
X27286009Y-160239411D02*
X27190771Y-160191792D01*
X27190771Y-160191792D02*
X27143152Y-160096554D01*
X27143152Y-160096554D02*
X27143152Y-159953697D01*
X27143152Y-159953697D02*
X27190771Y-159858458D01*
X27190771Y-159858458D02*
X27286009Y-159810839D01*
X27286009Y-159810839D02*
X27809819Y-159810839D01*
X27524104Y-159382268D02*
X27524104Y-158906078D01*
X27809819Y-159477506D02*
X26809819Y-159144173D01*
X26809819Y-159144173D02*
X27809819Y-158810840D01*
X22180779Y-165477866D02*
X22942684Y-165477866D01*
X23911112Y-189465009D02*
X24053969Y-189512628D01*
X24053969Y-189512628D02*
X24101588Y-189560247D01*
X24101588Y-189560247D02*
X24149207Y-189655485D01*
X24149207Y-189655485D02*
X24149207Y-189798342D01*
X24149207Y-189798342D02*
X24101588Y-189893580D01*
X24101588Y-189893580D02*
X24053969Y-189941200D01*
X24053969Y-189941200D02*
X23958731Y-189988819D01*
X23958731Y-189988819D02*
X23577779Y-189988819D01*
X23577779Y-189988819D02*
X23577779Y-188988819D01*
X23577779Y-188988819D02*
X23911112Y-188988819D01*
X23911112Y-188988819D02*
X24006350Y-189036438D01*
X24006350Y-189036438D02*
X24053969Y-189084057D01*
X24053969Y-189084057D02*
X24101588Y-189179295D01*
X24101588Y-189179295D02*
X24101588Y-189274533D01*
X24101588Y-189274533D02*
X24053969Y-189369771D01*
X24053969Y-189369771D02*
X24006350Y-189417390D01*
X24006350Y-189417390D02*
X23911112Y-189465009D01*
X23911112Y-189465009D02*
X23577779Y-189465009D01*
X21625160Y-189703104D02*
X22101350Y-189703104D01*
X21529922Y-189988819D02*
X21863255Y-188988819D01*
X21863255Y-188988819D02*
X22196588Y-189988819D01*
X23958779Y-165477866D02*
X24720684Y-165477866D01*
X24339731Y-165858819D02*
X24339731Y-165096914D01*
X17100779Y-179955819D02*
X17100779Y-178955819D01*
X17100779Y-178955819D02*
X17338874Y-178955819D01*
X17338874Y-178955819D02*
X17481731Y-179003438D01*
X17481731Y-179003438D02*
X17576969Y-179098676D01*
X17576969Y-179098676D02*
X17624588Y-179193914D01*
X17624588Y-179193914D02*
X17672207Y-179384390D01*
X17672207Y-179384390D02*
X17672207Y-179527247D01*
X17672207Y-179527247D02*
X17624588Y-179717723D01*
X17624588Y-179717723D02*
X17576969Y-179812961D01*
X17576969Y-179812961D02*
X17481731Y-179908200D01*
X17481731Y-179908200D02*
X17338874Y-179955819D01*
X17338874Y-179955819D02*
X17100779Y-179955819D01*
X18576969Y-179955819D02*
X18100779Y-179955819D01*
X18100779Y-179955819D02*
X18100779Y-178955819D01*
X19100779Y-178955819D02*
X19291255Y-178955819D01*
X19291255Y-178955819D02*
X19386493Y-179003438D01*
X19386493Y-179003438D02*
X19481731Y-179098676D01*
X19481731Y-179098676D02*
X19529350Y-179289152D01*
X19529350Y-179289152D02*
X19529350Y-179622485D01*
X19529350Y-179622485D02*
X19481731Y-179812961D01*
X19481731Y-179812961D02*
X19386493Y-179908200D01*
X19386493Y-179908200D02*
X19291255Y-179955819D01*
X19291255Y-179955819D02*
X19100779Y-179955819D01*
X19100779Y-179955819D02*
X19005541Y-179908200D01*
X19005541Y-179908200D02*
X18910303Y-179812961D01*
X18910303Y-179812961D02*
X18862684Y-179622485D01*
X18862684Y-179622485D02*
X18862684Y-179289152D01*
X18862684Y-179289152D02*
X18910303Y-179098676D01*
X18910303Y-179098676D02*
X19005541Y-179003438D01*
X19005541Y-179003438D02*
X19100779Y-178955819D01*
X19910303Y-179670104D02*
X20386493Y-179670104D01*
X19815065Y-179955819D02*
X20148398Y-178955819D01*
X20148398Y-178955819D02*
X20481731Y-179955819D01*
X20815065Y-179955819D02*
X20815065Y-178955819D01*
X20815065Y-178955819D02*
X21053160Y-178955819D01*
X21053160Y-178955819D02*
X21196017Y-179003438D01*
X21196017Y-179003438D02*
X21291255Y-179098676D01*
X21291255Y-179098676D02*
X21338874Y-179193914D01*
X21338874Y-179193914D02*
X21386493Y-179384390D01*
X21386493Y-179384390D02*
X21386493Y-179527247D01*
X21386493Y-179527247D02*
X21338874Y-179717723D01*
X21338874Y-179717723D02*
X21291255Y-179812961D01*
X21291255Y-179812961D02*
X21196017Y-179908200D01*
X21196017Y-179908200D02*
X21053160Y-179955819D01*
X21053160Y-179955819D02*
X20815065Y-179955819D01*
X25482779Y-189607866D02*
X26244684Y-189607866D01*
X25863731Y-189988819D02*
X25863731Y-189226914D01*
X19513779Y-189607866D02*
X20275684Y-189607866D01*
X16091819Y-193283333D02*
X16806104Y-193283333D01*
X16806104Y-193283333D02*
X16948961Y-193330952D01*
X16948961Y-193330952D02*
X17044200Y-193426190D01*
X17044200Y-193426190D02*
X17091819Y-193569047D01*
X17091819Y-193569047D02*
X17091819Y-193664285D01*
X17091819Y-192283333D02*
X17091819Y-192854761D01*
X17091819Y-192569047D02*
X16091819Y-192569047D01*
X16091819Y-192569047D02*
X16234676Y-192664285D01*
X16234676Y-192664285D02*
X16329914Y-192759523D01*
X16329914Y-192759523D02*
X16377533Y-192854761D01*
X18883333Y-188922819D02*
X18550000Y-188446628D01*
X18311905Y-188922819D02*
X18311905Y-187922819D01*
X18311905Y-187922819D02*
X18692857Y-187922819D01*
X18692857Y-187922819D02*
X18788095Y-187970438D01*
X18788095Y-187970438D02*
X18835714Y-188018057D01*
X18835714Y-188018057D02*
X18883333Y-188113295D01*
X18883333Y-188113295D02*
X18883333Y-188256152D01*
X18883333Y-188256152D02*
X18835714Y-188351390D01*
X18835714Y-188351390D02*
X18788095Y-188399009D01*
X18788095Y-188399009D02*
X18692857Y-188446628D01*
X18692857Y-188446628D02*
X18311905Y-188446628D01*
X19264286Y-188018057D02*
X19311905Y-187970438D01*
X19311905Y-187970438D02*
X19407143Y-187922819D01*
X19407143Y-187922819D02*
X19645238Y-187922819D01*
X19645238Y-187922819D02*
X19740476Y-187970438D01*
X19740476Y-187970438D02*
X19788095Y-188018057D01*
X19788095Y-188018057D02*
X19835714Y-188113295D01*
X19835714Y-188113295D02*
X19835714Y-188208533D01*
X19835714Y-188208533D02*
X19788095Y-188351390D01*
X19788095Y-188351390D02*
X19216667Y-188922819D01*
X19216667Y-188922819D02*
X19835714Y-188922819D01*
X16269619Y-184657904D02*
X17079142Y-184657904D01*
X17079142Y-184657904D02*
X17174380Y-184610285D01*
X17174380Y-184610285D02*
X17222000Y-184562666D01*
X17222000Y-184562666D02*
X17269619Y-184467428D01*
X17269619Y-184467428D02*
X17269619Y-184276952D01*
X17269619Y-184276952D02*
X17222000Y-184181714D01*
X17222000Y-184181714D02*
X17174380Y-184134095D01*
X17174380Y-184134095D02*
X17079142Y-184086476D01*
X17079142Y-184086476D02*
X16269619Y-184086476D01*
X16364857Y-183657904D02*
X16317238Y-183610285D01*
X16317238Y-183610285D02*
X16269619Y-183515047D01*
X16269619Y-183515047D02*
X16269619Y-183276952D01*
X16269619Y-183276952D02*
X16317238Y-183181714D01*
X16317238Y-183181714D02*
X16364857Y-183134095D01*
X16364857Y-183134095D02*
X16460095Y-183086476D01*
X16460095Y-183086476D02*
X16555333Y-183086476D01*
X16555333Y-183086476D02*
X16698190Y-183134095D01*
X16698190Y-183134095D02*
X17269619Y-183705523D01*
X17269619Y-183705523D02*
X17269619Y-183086476D01*
X24235580Y-180760666D02*
X24283200Y-180808285D01*
X24283200Y-180808285D02*
X24330819Y-180951142D01*
X24330819Y-180951142D02*
X24330819Y-181046380D01*
X24330819Y-181046380D02*
X24283200Y-181189237D01*
X24283200Y-181189237D02*
X24187961Y-181284475D01*
X24187961Y-181284475D02*
X24092723Y-181332094D01*
X24092723Y-181332094D02*
X23902247Y-181379713D01*
X23902247Y-181379713D02*
X23759390Y-181379713D01*
X23759390Y-181379713D02*
X23568914Y-181332094D01*
X23568914Y-181332094D02*
X23473676Y-181284475D01*
X23473676Y-181284475D02*
X23378438Y-181189237D01*
X23378438Y-181189237D02*
X23330819Y-181046380D01*
X23330819Y-181046380D02*
X23330819Y-180951142D01*
X23330819Y-180951142D02*
X23378438Y-180808285D01*
X23378438Y-180808285D02*
X23426057Y-180760666D01*
X23330819Y-179903523D02*
X23330819Y-180093999D01*
X23330819Y-180093999D02*
X23378438Y-180189237D01*
X23378438Y-180189237D02*
X23426057Y-180236856D01*
X23426057Y-180236856D02*
X23568914Y-180332094D01*
X23568914Y-180332094D02*
X23759390Y-180379713D01*
X23759390Y-180379713D02*
X24140342Y-180379713D01*
X24140342Y-180379713D02*
X24235580Y-180332094D01*
X24235580Y-180332094D02*
X24283200Y-180284475D01*
X24283200Y-180284475D02*
X24330819Y-180189237D01*
X24330819Y-180189237D02*
X24330819Y-179998761D01*
X24330819Y-179998761D02*
X24283200Y-179903523D01*
X24283200Y-179903523D02*
X24235580Y-179855904D01*
X24235580Y-179855904D02*
X24140342Y-179808285D01*
X24140342Y-179808285D02*
X23902247Y-179808285D01*
X23902247Y-179808285D02*
X23807009Y-179855904D01*
X23807009Y-179855904D02*
X23759390Y-179903523D01*
X23759390Y-179903523D02*
X23711771Y-179998761D01*
X23711771Y-179998761D02*
X23711771Y-180189237D01*
X23711771Y-180189237D02*
X23759390Y-180284475D01*
X23759390Y-180284475D02*
X23807009Y-180332094D01*
X23807009Y-180332094D02*
X23902247Y-180379713D01*
X20409819Y-172672333D02*
X21124104Y-172672333D01*
X21124104Y-172672333D02*
X21266961Y-172719952D01*
X21266961Y-172719952D02*
X21362200Y-172815190D01*
X21362200Y-172815190D02*
X21409819Y-172958047D01*
X21409819Y-172958047D02*
X21409819Y-173053285D01*
X20505057Y-172243761D02*
X20457438Y-172196142D01*
X20457438Y-172196142D02*
X20409819Y-172100904D01*
X20409819Y-172100904D02*
X20409819Y-171862809D01*
X20409819Y-171862809D02*
X20457438Y-171767571D01*
X20457438Y-171767571D02*
X20505057Y-171719952D01*
X20505057Y-171719952D02*
X20600295Y-171672333D01*
X20600295Y-171672333D02*
X20695533Y-171672333D01*
X20695533Y-171672333D02*
X20838390Y-171719952D01*
X20838390Y-171719952D02*
X21409819Y-172291380D01*
X21409819Y-172291380D02*
X21409819Y-171672333D01*
X18504819Y-161877333D02*
X19219104Y-161877333D01*
X19219104Y-161877333D02*
X19361961Y-161924952D01*
X19361961Y-161924952D02*
X19457200Y-162020190D01*
X19457200Y-162020190D02*
X19504819Y-162163047D01*
X19504819Y-162163047D02*
X19504819Y-162258285D01*
X18838152Y-160972571D02*
X19504819Y-160972571D01*
X18457200Y-161210666D02*
X19171485Y-161448761D01*
X19171485Y-161448761D02*
X19171485Y-160829714D01*
X17803905Y-165605619D02*
X17803905Y-164605619D01*
X17803905Y-164605619D02*
X18042000Y-164605619D01*
X18042000Y-164605619D02*
X18184857Y-164653238D01*
X18184857Y-164653238D02*
X18280095Y-164748476D01*
X18280095Y-164748476D02*
X18327714Y-164843714D01*
X18327714Y-164843714D02*
X18375333Y-165034190D01*
X18375333Y-165034190D02*
X18375333Y-165177047D01*
X18375333Y-165177047D02*
X18327714Y-165367523D01*
X18327714Y-165367523D02*
X18280095Y-165462761D01*
X18280095Y-165462761D02*
X18184857Y-165558000D01*
X18184857Y-165558000D02*
X18042000Y-165605619D01*
X18042000Y-165605619D02*
X17803905Y-165605619D01*
X19327714Y-165605619D02*
X18756286Y-165605619D01*
X19042000Y-165605619D02*
X19042000Y-164605619D01*
X19042000Y-164605619D02*
X18946762Y-164748476D01*
X18946762Y-164748476D02*
X18851524Y-164843714D01*
X18851524Y-164843714D02*
X18756286Y-164891333D01*
X27463809Y-176508628D02*
X27463809Y-176984819D01*
X27130476Y-175984819D02*
X27463809Y-176508628D01*
X27463809Y-176508628D02*
X27797142Y-175984819D01*
X28654285Y-176984819D02*
X28082857Y-176984819D01*
X28368571Y-176984819D02*
X28368571Y-175984819D01*
X28368571Y-175984819D02*
X28273333Y-176127676D01*
X28273333Y-176127676D02*
X28178095Y-176222914D01*
X28178095Y-176222914D02*
X28082857Y-176270533D01*
X29569580Y-173775666D02*
X29617200Y-173823285D01*
X29617200Y-173823285D02*
X29664819Y-173966142D01*
X29664819Y-173966142D02*
X29664819Y-174061380D01*
X29664819Y-174061380D02*
X29617200Y-174204237D01*
X29617200Y-174204237D02*
X29521961Y-174299475D01*
X29521961Y-174299475D02*
X29426723Y-174347094D01*
X29426723Y-174347094D02*
X29236247Y-174394713D01*
X29236247Y-174394713D02*
X29093390Y-174394713D01*
X29093390Y-174394713D02*
X28902914Y-174347094D01*
X28902914Y-174347094D02*
X28807676Y-174299475D01*
X28807676Y-174299475D02*
X28712438Y-174204237D01*
X28712438Y-174204237D02*
X28664819Y-174061380D01*
X28664819Y-174061380D02*
X28664819Y-173966142D01*
X28664819Y-173966142D02*
X28712438Y-173823285D01*
X28712438Y-173823285D02*
X28760057Y-173775666D01*
X28664819Y-173442332D02*
X28664819Y-172775666D01*
X28664819Y-172775666D02*
X29664819Y-173204237D01*
X27646333Y-187557580D02*
X27598714Y-187605200D01*
X27598714Y-187605200D02*
X27455857Y-187652819D01*
X27455857Y-187652819D02*
X27360619Y-187652819D01*
X27360619Y-187652819D02*
X27217762Y-187605200D01*
X27217762Y-187605200D02*
X27122524Y-187509961D01*
X27122524Y-187509961D02*
X27074905Y-187414723D01*
X27074905Y-187414723D02*
X27027286Y-187224247D01*
X27027286Y-187224247D02*
X27027286Y-187081390D01*
X27027286Y-187081390D02*
X27074905Y-186890914D01*
X27074905Y-186890914D02*
X27122524Y-186795676D01*
X27122524Y-186795676D02*
X27217762Y-186700438D01*
X27217762Y-186700438D02*
X27360619Y-186652819D01*
X27360619Y-186652819D02*
X27455857Y-186652819D01*
X27455857Y-186652819D02*
X27598714Y-186700438D01*
X27598714Y-186700438D02*
X27646333Y-186748057D01*
X28027286Y-186748057D02*
X28074905Y-186700438D01*
X28074905Y-186700438D02*
X28170143Y-186652819D01*
X28170143Y-186652819D02*
X28408238Y-186652819D01*
X28408238Y-186652819D02*
X28503476Y-186700438D01*
X28503476Y-186700438D02*
X28551095Y-186748057D01*
X28551095Y-186748057D02*
X28598714Y-186843295D01*
X28598714Y-186843295D02*
X28598714Y-186938533D01*
X28598714Y-186938533D02*
X28551095Y-187081390D01*
X28551095Y-187081390D02*
X27979667Y-187652819D01*
X27979667Y-187652819D02*
X28598714Y-187652819D01*
X27432095Y-181826819D02*
X27432095Y-182636342D01*
X27432095Y-182636342D02*
X27479714Y-182731580D01*
X27479714Y-182731580D02*
X27527333Y-182779200D01*
X27527333Y-182779200D02*
X27622571Y-182826819D01*
X27622571Y-182826819D02*
X27813047Y-182826819D01*
X27813047Y-182826819D02*
X27908285Y-182779200D01*
X27908285Y-182779200D02*
X27955904Y-182731580D01*
X27955904Y-182731580D02*
X28003523Y-182636342D01*
X28003523Y-182636342D02*
X28003523Y-181826819D01*
X29003523Y-182826819D02*
X28432095Y-182826819D01*
X28717809Y-182826819D02*
X28717809Y-181826819D01*
X28717809Y-181826819D02*
X28622571Y-181969676D01*
X28622571Y-181969676D02*
X28527333Y-182064914D01*
X28527333Y-182064914D02*
X28432095Y-182112533D01*
X23800833Y-182858580D02*
X23753214Y-182906200D01*
X23753214Y-182906200D02*
X23610357Y-182953819D01*
X23610357Y-182953819D02*
X23515119Y-182953819D01*
X23515119Y-182953819D02*
X23372262Y-182906200D01*
X23372262Y-182906200D02*
X23277024Y-182810961D01*
X23277024Y-182810961D02*
X23229405Y-182715723D01*
X23229405Y-182715723D02*
X23181786Y-182525247D01*
X23181786Y-182525247D02*
X23181786Y-182382390D01*
X23181786Y-182382390D02*
X23229405Y-182191914D01*
X23229405Y-182191914D02*
X23277024Y-182096676D01*
X23277024Y-182096676D02*
X23372262Y-182001438D01*
X23372262Y-182001438D02*
X23515119Y-181953819D01*
X23515119Y-181953819D02*
X23610357Y-181953819D01*
X23610357Y-181953819D02*
X23753214Y-182001438D01*
X23753214Y-182001438D02*
X23800833Y-182049057D01*
X24657976Y-182287152D02*
X24657976Y-182953819D01*
X24419881Y-181906200D02*
X24181786Y-182620485D01*
X24181786Y-182620485D02*
X24800833Y-182620485D01*
X24235580Y-178728666D02*
X24283200Y-178776285D01*
X24283200Y-178776285D02*
X24330819Y-178919142D01*
X24330819Y-178919142D02*
X24330819Y-179014380D01*
X24330819Y-179014380D02*
X24283200Y-179157237D01*
X24283200Y-179157237D02*
X24187961Y-179252475D01*
X24187961Y-179252475D02*
X24092723Y-179300094D01*
X24092723Y-179300094D02*
X23902247Y-179347713D01*
X23902247Y-179347713D02*
X23759390Y-179347713D01*
X23759390Y-179347713D02*
X23568914Y-179300094D01*
X23568914Y-179300094D02*
X23473676Y-179252475D01*
X23473676Y-179252475D02*
X23378438Y-179157237D01*
X23378438Y-179157237D02*
X23330819Y-179014380D01*
X23330819Y-179014380D02*
X23330819Y-178919142D01*
X23330819Y-178919142D02*
X23378438Y-178776285D01*
X23378438Y-178776285D02*
X23426057Y-178728666D01*
X23330819Y-177823904D02*
X23330819Y-178300094D01*
X23330819Y-178300094D02*
X23807009Y-178347713D01*
X23807009Y-178347713D02*
X23759390Y-178300094D01*
X23759390Y-178300094D02*
X23711771Y-178204856D01*
X23711771Y-178204856D02*
X23711771Y-177966761D01*
X23711771Y-177966761D02*
X23759390Y-177871523D01*
X23759390Y-177871523D02*
X23807009Y-177823904D01*
X23807009Y-177823904D02*
X23902247Y-177776285D01*
X23902247Y-177776285D02*
X24140342Y-177776285D01*
X24140342Y-177776285D02*
X24235580Y-177823904D01*
X24235580Y-177823904D02*
X24283200Y-177871523D01*
X24283200Y-177871523D02*
X24330819Y-177966761D01*
X24330819Y-177966761D02*
X24330819Y-178204856D01*
X24330819Y-178204856D02*
X24283200Y-178300094D01*
X24283200Y-178300094D02*
X24235580Y-178347713D01*
X16345819Y-177625333D02*
X17060104Y-177625333D01*
X17060104Y-177625333D02*
X17202961Y-177672952D01*
X17202961Y-177672952D02*
X17298200Y-177768190D01*
X17298200Y-177768190D02*
X17345819Y-177911047D01*
X17345819Y-177911047D02*
X17345819Y-178006285D01*
X16345819Y-177244380D02*
X16345819Y-176625333D01*
X16345819Y-176625333D02*
X16726771Y-176958666D01*
X16726771Y-176958666D02*
X16726771Y-176815809D01*
X16726771Y-176815809D02*
X16774390Y-176720571D01*
X16774390Y-176720571D02*
X16822009Y-176672952D01*
X16822009Y-176672952D02*
X16917247Y-176625333D01*
X16917247Y-176625333D02*
X17155342Y-176625333D01*
X17155342Y-176625333D02*
X17250580Y-176672952D01*
X17250580Y-176672952D02*
X17298200Y-176720571D01*
X17298200Y-176720571D02*
X17345819Y-176815809D01*
X17345819Y-176815809D02*
X17345819Y-177101523D01*
X17345819Y-177101523D02*
X17298200Y-177196761D01*
X17298200Y-177196761D02*
X17250580Y-177244380D01*
X27773333Y-188827580D02*
X27725714Y-188875200D01*
X27725714Y-188875200D02*
X27582857Y-188922819D01*
X27582857Y-188922819D02*
X27487619Y-188922819D01*
X27487619Y-188922819D02*
X27344762Y-188875200D01*
X27344762Y-188875200D02*
X27249524Y-188779961D01*
X27249524Y-188779961D02*
X27201905Y-188684723D01*
X27201905Y-188684723D02*
X27154286Y-188494247D01*
X27154286Y-188494247D02*
X27154286Y-188351390D01*
X27154286Y-188351390D02*
X27201905Y-188160914D01*
X27201905Y-188160914D02*
X27249524Y-188065676D01*
X27249524Y-188065676D02*
X27344762Y-187970438D01*
X27344762Y-187970438D02*
X27487619Y-187922819D01*
X27487619Y-187922819D02*
X27582857Y-187922819D01*
X27582857Y-187922819D02*
X27725714Y-187970438D01*
X27725714Y-187970438D02*
X27773333Y-188018057D01*
X28725714Y-188922819D02*
X28154286Y-188922819D01*
X28440000Y-188922819D02*
X28440000Y-187922819D01*
X28440000Y-187922819D02*
X28344762Y-188065676D01*
X28344762Y-188065676D02*
X28249524Y-188160914D01*
X28249524Y-188160914D02*
X28154286Y-188208533D01*
X24032380Y-184519866D02*
X24080000Y-184567485D01*
X24080000Y-184567485D02*
X24127619Y-184710342D01*
X24127619Y-184710342D02*
X24127619Y-184805580D01*
X24127619Y-184805580D02*
X24080000Y-184948437D01*
X24080000Y-184948437D02*
X23984761Y-185043675D01*
X23984761Y-185043675D02*
X23889523Y-185091294D01*
X23889523Y-185091294D02*
X23699047Y-185138913D01*
X23699047Y-185138913D02*
X23556190Y-185138913D01*
X23556190Y-185138913D02*
X23365714Y-185091294D01*
X23365714Y-185091294D02*
X23270476Y-185043675D01*
X23270476Y-185043675D02*
X23175238Y-184948437D01*
X23175238Y-184948437D02*
X23127619Y-184805580D01*
X23127619Y-184805580D02*
X23127619Y-184710342D01*
X23127619Y-184710342D02*
X23175238Y-184567485D01*
X23175238Y-184567485D02*
X23222857Y-184519866D01*
X23127619Y-184186532D02*
X23127619Y-183567485D01*
X23127619Y-183567485D02*
X23508571Y-183900818D01*
X23508571Y-183900818D02*
X23508571Y-183757961D01*
X23508571Y-183757961D02*
X23556190Y-183662723D01*
X23556190Y-183662723D02*
X23603809Y-183615104D01*
X23603809Y-183615104D02*
X23699047Y-183567485D01*
X23699047Y-183567485D02*
X23937142Y-183567485D01*
X23937142Y-183567485D02*
X24032380Y-183615104D01*
X24032380Y-183615104D02*
X24080000Y-183662723D01*
X24080000Y-183662723D02*
X24127619Y-183757961D01*
X24127619Y-183757961D02*
X24127619Y-184043675D01*
X24127619Y-184043675D02*
X24080000Y-184138913D01*
X24080000Y-184138913D02*
X24032380Y-184186532D01*
X24928533Y-166780380D02*
X24880914Y-166828000D01*
X24880914Y-166828000D02*
X24738057Y-166875619D01*
X24738057Y-166875619D02*
X24642819Y-166875619D01*
X24642819Y-166875619D02*
X24499962Y-166828000D01*
X24499962Y-166828000D02*
X24404724Y-166732761D01*
X24404724Y-166732761D02*
X24357105Y-166637523D01*
X24357105Y-166637523D02*
X24309486Y-166447047D01*
X24309486Y-166447047D02*
X24309486Y-166304190D01*
X24309486Y-166304190D02*
X24357105Y-166113714D01*
X24357105Y-166113714D02*
X24404724Y-166018476D01*
X24404724Y-166018476D02*
X24499962Y-165923238D01*
X24499962Y-165923238D02*
X24642819Y-165875619D01*
X24642819Y-165875619D02*
X24738057Y-165875619D01*
X24738057Y-165875619D02*
X24880914Y-165923238D01*
X24880914Y-165923238D02*
X24928533Y-165970857D01*
X25499962Y-166304190D02*
X25404724Y-166256571D01*
X25404724Y-166256571D02*
X25357105Y-166208952D01*
X25357105Y-166208952D02*
X25309486Y-166113714D01*
X25309486Y-166113714D02*
X25309486Y-166066095D01*
X25309486Y-166066095D02*
X25357105Y-165970857D01*
X25357105Y-165970857D02*
X25404724Y-165923238D01*
X25404724Y-165923238D02*
X25499962Y-165875619D01*
X25499962Y-165875619D02*
X25690438Y-165875619D01*
X25690438Y-165875619D02*
X25785676Y-165923238D01*
X25785676Y-165923238D02*
X25833295Y-165970857D01*
X25833295Y-165970857D02*
X25880914Y-166066095D01*
X25880914Y-166066095D02*
X25880914Y-166113714D01*
X25880914Y-166113714D02*
X25833295Y-166208952D01*
X25833295Y-166208952D02*
X25785676Y-166256571D01*
X25785676Y-166256571D02*
X25690438Y-166304190D01*
X25690438Y-166304190D02*
X25499962Y-166304190D01*
X25499962Y-166304190D02*
X25404724Y-166351809D01*
X25404724Y-166351809D02*
X25357105Y-166399428D01*
X25357105Y-166399428D02*
X25309486Y-166494666D01*
X25309486Y-166494666D02*
X25309486Y-166685142D01*
X25309486Y-166685142D02*
X25357105Y-166780380D01*
X25357105Y-166780380D02*
X25404724Y-166828000D01*
X25404724Y-166828000D02*
X25499962Y-166875619D01*
X25499962Y-166875619D02*
X25690438Y-166875619D01*
X25690438Y-166875619D02*
X25785676Y-166828000D01*
X25785676Y-166828000D02*
X25833295Y-166780380D01*
X25833295Y-166780380D02*
X25880914Y-166685142D01*
X25880914Y-166685142D02*
X25880914Y-166494666D01*
X25880914Y-166494666D02*
X25833295Y-166399428D01*
X25833295Y-166399428D02*
X25785676Y-166351809D01*
X25785676Y-166351809D02*
X25690438Y-166304190D01*
X21240761Y-170577657D02*
X21145523Y-170530038D01*
X21145523Y-170530038D02*
X21050285Y-170434800D01*
X21050285Y-170434800D02*
X20907428Y-170291942D01*
X20907428Y-170291942D02*
X20812190Y-170244323D01*
X20812190Y-170244323D02*
X20716952Y-170244323D01*
X20764571Y-170482419D02*
X20669333Y-170434800D01*
X20669333Y-170434800D02*
X20574095Y-170339561D01*
X20574095Y-170339561D02*
X20526476Y-170149085D01*
X20526476Y-170149085D02*
X20526476Y-169815752D01*
X20526476Y-169815752D02*
X20574095Y-169625276D01*
X20574095Y-169625276D02*
X20669333Y-169530038D01*
X20669333Y-169530038D02*
X20764571Y-169482419D01*
X20764571Y-169482419D02*
X20955047Y-169482419D01*
X20955047Y-169482419D02*
X21050285Y-169530038D01*
X21050285Y-169530038D02*
X21145523Y-169625276D01*
X21145523Y-169625276D02*
X21193142Y-169815752D01*
X21193142Y-169815752D02*
X21193142Y-170149085D01*
X21193142Y-170149085D02*
X21145523Y-170339561D01*
X21145523Y-170339561D02*
X21050285Y-170434800D01*
X21050285Y-170434800D02*
X20955047Y-170482419D01*
X20955047Y-170482419D02*
X20764571Y-170482419D01*
X22145523Y-170482419D02*
X21574095Y-170482419D01*
X21859809Y-170482419D02*
X21859809Y-169482419D01*
X21859809Y-169482419D02*
X21764571Y-169625276D01*
X21764571Y-169625276D02*
X21669333Y-169720514D01*
X21669333Y-169720514D02*
X21574095Y-169768133D01*
X27394819Y-172338904D02*
X28204342Y-172338904D01*
X28204342Y-172338904D02*
X28299580Y-172291285D01*
X28299580Y-172291285D02*
X28347200Y-172243666D01*
X28347200Y-172243666D02*
X28394819Y-172148428D01*
X28394819Y-172148428D02*
X28394819Y-171957952D01*
X28394819Y-171957952D02*
X28347200Y-171862714D01*
X28347200Y-171862714D02*
X28299580Y-171815095D01*
X28299580Y-171815095D02*
X28204342Y-171767476D01*
X28204342Y-171767476D02*
X27394819Y-171767476D01*
X27394819Y-171386523D02*
X27394819Y-170767476D01*
X27394819Y-170767476D02*
X27775771Y-171100809D01*
X27775771Y-171100809D02*
X27775771Y-170957952D01*
X27775771Y-170957952D02*
X27823390Y-170862714D01*
X27823390Y-170862714D02*
X27871009Y-170815095D01*
X27871009Y-170815095D02*
X27966247Y-170767476D01*
X27966247Y-170767476D02*
X28204342Y-170767476D01*
X28204342Y-170767476D02*
X28299580Y-170815095D01*
X28299580Y-170815095D02*
X28347200Y-170862714D01*
X28347200Y-170862714D02*
X28394819Y-170957952D01*
X28394819Y-170957952D02*
X28394819Y-171243666D01*
X28394819Y-171243666D02*
X28347200Y-171338904D01*
X28347200Y-171338904D02*
X28299580Y-171386523D01*
X26249333Y-169058919D02*
X25916000Y-168582728D01*
X25677905Y-169058919D02*
X25677905Y-168058919D01*
X25677905Y-168058919D02*
X26058857Y-168058919D01*
X26058857Y-168058919D02*
X26154095Y-168106538D01*
X26154095Y-168106538D02*
X26201714Y-168154157D01*
X26201714Y-168154157D02*
X26249333Y-168249395D01*
X26249333Y-168249395D02*
X26249333Y-168392252D01*
X26249333Y-168392252D02*
X26201714Y-168487490D01*
X26201714Y-168487490D02*
X26154095Y-168535109D01*
X26154095Y-168535109D02*
X26058857Y-168582728D01*
X26058857Y-168582728D02*
X25677905Y-168582728D01*
X27201714Y-169058919D02*
X26630286Y-169058919D01*
X26916000Y-169058919D02*
X26916000Y-168058919D01*
X26916000Y-168058919D02*
X26820762Y-168201776D01*
X26820762Y-168201776D02*
X26725524Y-168297014D01*
X26725524Y-168297014D02*
X26630286Y-168344633D01*
D11*
X17800000Y-189675000D02*
X17800000Y-197495000D01*
X17800000Y-191275000D02*
X18720000Y-191275000D01*
X17800000Y-197495000D02*
X27920000Y-197495000D01*
X18560000Y-193635000D02*
X18560000Y-195235000D01*
X18560000Y-195235000D02*
X19560000Y-195235000D01*
X18720000Y-189675000D02*
X17800000Y-189675000D01*
X18720000Y-191275000D02*
X18720000Y-189675000D01*
X19000000Y-191275000D02*
X18720000Y-191275000D01*
X19000000Y-191275000D02*
X19000000Y-190060000D01*
X19060000Y-195235000D02*
X19060000Y-197495000D01*
X19560000Y-193635000D02*
X18560000Y-193635000D01*
X19560000Y-195235000D02*
X19560000Y-193635000D01*
X19560000Y-195235000D02*
X19560000Y-197495000D01*
X20360000Y-193135000D02*
X25360000Y-193135000D01*
X20360000Y-197495000D02*
X20360000Y-193135000D01*
X25360000Y-193135000D02*
X25360000Y-197495000D01*
X26160000Y-193635000D02*
X27160000Y-193635000D01*
X26160000Y-195235000D02*
X26160000Y-193635000D01*
X27000000Y-189675000D02*
X27000000Y-191275000D01*
X27000000Y-191275000D02*
X26720000Y-191275000D01*
X27160000Y-193635000D02*
X27160000Y-195235000D01*
X27160000Y-195235000D02*
X26160000Y-195235000D01*
X27920000Y-189675000D02*
X27000000Y-189675000D01*
X27920000Y-191275000D02*
X27000000Y-191275000D01*
X27920000Y-197495000D02*
X27920000Y-189675000D01*
X21591241Y-188088000D02*
X21283959Y-188088000D01*
X21591241Y-188848000D02*
X21283959Y-188848000D01*
X17683800Y-183938000D02*
X17683800Y-181988000D01*
X17683800Y-183938000D02*
X17683800Y-185888000D01*
X22803800Y-183938000D02*
X22803800Y-181988000D01*
X22803800Y-183938000D02*
X22803800Y-185888000D01*
X23038800Y-181478000D02*
X22708800Y-181238000D01*
X23038800Y-180998000D01*
X23038800Y-181478000D01*
G36*
X23038800Y-181478000D02*
G01*
X22708800Y-181238000D01*
X23038800Y-180998000D01*
X23038800Y-181478000D01*
G37*
X24532000Y-180232164D02*
X24532000Y-180447836D01*
X25252000Y-180232164D02*
X25252000Y-180447836D01*
X17348200Y-170053000D02*
X17983200Y-170053000D01*
X17348200Y-170688000D02*
X17348200Y-170053000D01*
X20038000Y-157470000D02*
X20038000Y-165290000D01*
X20038000Y-163690000D02*
X20958000Y-163690000D01*
X20038000Y-165290000D02*
X20958000Y-165290000D01*
X20798000Y-159730000D02*
X21798000Y-159730000D01*
X20798000Y-161330000D02*
X20798000Y-159730000D01*
X20958000Y-163690000D02*
X21238000Y-163690000D01*
X20958000Y-165290000D02*
X20958000Y-163690000D01*
X21798000Y-159730000D02*
X21798000Y-161330000D01*
X21798000Y-161330000D02*
X20798000Y-161330000D01*
X22598000Y-161830000D02*
X22598000Y-157470000D01*
X23598000Y-157470000D02*
X23598000Y-161830000D01*
X23598000Y-161830000D02*
X22598000Y-161830000D01*
X24398000Y-159730000D02*
X24398000Y-157470000D01*
X24398000Y-159730000D02*
X24398000Y-161330000D01*
X24398000Y-161330000D02*
X25398000Y-161330000D01*
X24898000Y-159730000D02*
X24898000Y-157470000D01*
X24958000Y-163690000D02*
X24958000Y-164905000D01*
X24958000Y-163690000D02*
X25238000Y-163690000D01*
X25238000Y-163690000D02*
X25238000Y-165290000D01*
X25238000Y-165290000D02*
X26158000Y-165290000D01*
X25398000Y-159730000D02*
X24398000Y-159730000D01*
X25398000Y-161330000D02*
X25398000Y-159730000D01*
X26158000Y-157470000D02*
X20038000Y-157470000D01*
X26158000Y-163690000D02*
X25238000Y-163690000D01*
X26158000Y-165290000D02*
X26158000Y-157470000D01*
X18041000Y-166155000D02*
X18041000Y-167855000D01*
X18041000Y-166155000D02*
X20701000Y-166155000D01*
X18041000Y-167855000D02*
X20701000Y-167855000D01*
X26303000Y-178395000D02*
X26303000Y-179745000D01*
X28053000Y-178395000D02*
X28053000Y-179745000D01*
X27707000Y-173815836D02*
X27707000Y-173600164D01*
X28427000Y-173815836D02*
X28427000Y-173600164D01*
X25899164Y-187092000D02*
X26114836Y-187092000D01*
X25899164Y-187812000D02*
X26114836Y-187812000D01*
X26537500Y-183291000D02*
X25737500Y-183291000D01*
X26537500Y-183291000D02*
X27337500Y-183291000D01*
X26537500Y-186411000D02*
X25737500Y-186411000D01*
X26537500Y-186411000D02*
X27337500Y-186411000D01*
X25237500Y-183341000D02*
X24997500Y-183011000D01*
X25477500Y-183011000D01*
X25237500Y-183341000D01*
G36*
X25237500Y-183341000D02*
G01*
X24997500Y-183011000D01*
X25477500Y-183011000D01*
X25237500Y-183341000D01*
G37*
X26206336Y-182139000D02*
X25990664Y-182139000D01*
X26206336Y-182859000D02*
X25990664Y-182859000D01*
X24532000Y-177974164D02*
X24532000Y-178189836D01*
X25252000Y-177974164D02*
X25252000Y-178189836D01*
X18021000Y-178402000D02*
X18021000Y-177292000D01*
X18781000Y-178402000D02*
X18021000Y-178402000D01*
X19541000Y-176182000D02*
X20746000Y-176182000D01*
X19541000Y-176728529D02*
X19541000Y-176182000D01*
X19541000Y-178402000D02*
X19541000Y-177855471D01*
X19541000Y-178402000D02*
X20746000Y-178402000D01*
X20746000Y-176984470D02*
X20746000Y-176182000D01*
X20746000Y-178402000D02*
X20746000Y-177599530D01*
X25927164Y-188108000D02*
X26142836Y-188108000D01*
X25927164Y-188828000D02*
X26142836Y-188828000D01*
X23262000Y-186444836D02*
X23262000Y-186229164D01*
X23982000Y-186444836D02*
X23982000Y-186229164D01*
X23249836Y-165959200D02*
X23034164Y-165959200D01*
X23249836Y-166679200D02*
X23034164Y-166679200D01*
X23395700Y-167160900D02*
X22745700Y-167160900D01*
X23395700Y-167160900D02*
X24045700Y-167160900D01*
X23395700Y-170280900D02*
X22745700Y-170280900D01*
X23395700Y-170280900D02*
X24045700Y-170280900D01*
X24798200Y-170560900D02*
X24318200Y-170560900D01*
X24558200Y-170230900D01*
X24798200Y-170560900D01*
G36*
X24798200Y-170560900D02*
G01*
X24318200Y-170560900D01*
X24558200Y-170230900D01*
X24798200Y-170560900D01*
G37*
X22383600Y-171626000D02*
X22383600Y-171851000D01*
X22383600Y-175846000D02*
X22383600Y-175621000D01*
X22608600Y-171626000D02*
X22383600Y-171626000D01*
X22608600Y-175846000D02*
X22383600Y-175846000D01*
X26378600Y-171626000D02*
X26603600Y-171626000D01*
X26603600Y-171626000D02*
X26603600Y-171851000D01*
X26863600Y-176176000D02*
X26383600Y-176176000D01*
X26623600Y-175846000D01*
X26863600Y-176176000D01*
G36*
X26863600Y-176176000D02*
G01*
X26383600Y-176176000D01*
X26623600Y-175846000D01*
X26863600Y-176176000D01*
G37*
X26516841Y-169443300D02*
X26209559Y-169443300D01*
X26516841Y-170203300D02*
X26209559Y-170203300D01*
%LPC*%
D12*
X19860000Y-191135000D03*
D13*
X21860000Y-191135000D03*
X23860000Y-191135000D03*
X25860000Y-191135000D03*
D14*
X21947600Y-188468000D03*
X20927600Y-188468000D03*
D15*
X22148800Y-181313000D03*
X20878800Y-181313000D03*
X19608800Y-181313000D03*
X18338800Y-181313000D03*
X18338800Y-186563000D03*
X19608800Y-186563000D03*
X20878800Y-186563000D03*
X22148800Y-186563000D03*
D16*
X24892000Y-179860000D03*
X24892000Y-180820000D03*
D17*
X18618200Y-169418000D03*
X19634200Y-174498000D03*
X17602200Y-174498000D03*
D18*
X17983200Y-170688000D03*
X19253200Y-170688000D03*
X17983200Y-171958000D03*
X19253200Y-171958000D03*
X17983200Y-173228000D03*
X19253200Y-173228000D03*
D19*
X24098000Y-163830000D03*
D13*
X22098000Y-163830000D03*
D20*
X18601000Y-167005000D03*
X20701000Y-167005000D03*
D21*
X27178000Y-180320000D03*
X27178000Y-177820000D03*
D22*
X28067000Y-174188000D03*
X28067000Y-173228000D03*
D23*
X25527000Y-187452000D03*
X26487000Y-187452000D03*
D24*
X25400000Y-183901000D03*
X25400000Y-184851000D03*
X25400000Y-185801000D03*
X27675000Y-185801000D03*
X27675000Y-183901000D03*
D25*
X26578500Y-182499000D03*
X25618500Y-182499000D03*
D16*
X24892000Y-177602000D03*
X24892000Y-178562000D03*
D26*
X18781000Y-177292000D03*
D27*
X20051000Y-177292000D03*
D23*
X25555000Y-188468000D03*
X26515000Y-188468000D03*
D22*
X23622000Y-186817000D03*
X23622000Y-185857000D03*
D25*
X23622000Y-166319200D03*
X22662000Y-166319200D03*
D28*
X24333200Y-169670900D03*
X24333200Y-167770900D03*
X22458200Y-168720900D03*
D29*
X26491100Y-175236000D03*
D30*
X26431100Y-174736000D03*
X26431100Y-174236000D03*
X26431100Y-173736000D03*
X26431100Y-173236000D03*
X26431100Y-172736000D03*
D31*
X26491100Y-172236000D03*
D32*
X25993600Y-171738500D03*
D33*
X25493600Y-171798500D03*
X24993600Y-171798500D03*
X24493600Y-171798500D03*
X23993600Y-171798500D03*
X23493600Y-171798500D03*
D34*
X22993600Y-171738500D03*
D35*
X22496100Y-172236000D03*
D30*
X22556100Y-172736000D03*
X22556100Y-173236000D03*
X22556100Y-173736000D03*
X22556100Y-174236000D03*
X22556100Y-174736000D03*
D36*
X22496100Y-175236000D03*
D37*
X22993600Y-175733500D03*
D33*
X23493600Y-175673500D03*
X23993600Y-175673500D03*
X24493600Y-175673500D03*
X24993600Y-175673500D03*
X25493600Y-175673500D03*
D38*
X25993600Y-175733500D03*
D14*
X26873200Y-169823300D03*
X25853200Y-169823300D03*
%LPD*%
M02*
