G04 #@! TF.GenerationSoftware,KiCad,Pcbnew,8.0.0-8.0.0-1~ubuntu20.04.1*
G04 #@! TF.CreationDate,2025-04-15T15:36:13+02:00*
G04 #@! TF.ProjectId,actuator-vibration-motor,61637475-6174-46f7-922d-766962726174,1*
G04 #@! TF.SameCoordinates,Original*
G04 #@! TF.FileFunction,Soldermask,Top*
G04 #@! TF.FilePolarity,Negative*
%FSLAX46Y46*%
G04 Gerber Fmt 4.6, Leading zero omitted, Abs format (unit mm)*
G04 Created by KiCad (PCBNEW 8.0.0-8.0.0-1~ubuntu20.04.1) date 2025-04-15 15:36:13*
%MOMM*%
%LPD*%
G01*
G04 APERTURE LIST*
G04 Aperture macros list*
%AMRoundRect*
0 Rectangle with rounded corners*
0 $1 Rounding radius*
0 $2 $3 $4 $5 $6 $7 $8 $9 X,Y pos of 4 corners*
0 Add a 4 corners polygon primitive as box body*
4,1,4,$2,$3,$4,$5,$6,$7,$8,$9,$2,$3,0*
0 Add four circle primitives for the rounded corners*
1,1,$1+$1,$2,$3*
1,1,$1+$1,$4,$5*
1,1,$1+$1,$6,$7*
1,1,$1+$1,$8,$9*
0 Add four rect primitives between the rounded corners*
20,1,$1+$1,$2,$3,$4,$5,0*
20,1,$1+$1,$4,$5,$6,$7,0*
20,1,$1+$1,$6,$7,$8,$9,0*
20,1,$1+$1,$8,$9,$2,$3,0*%
%AMFreePoly0*
4,1,14,0.230680,0.111820,0.364320,-0.021820,0.377500,-0.053640,0.377500,-0.080000,0.364320,-0.111820,0.332500,-0.125000,-0.332500,-0.125000,-0.364320,-0.111820,-0.377500,-0.080000,-0.377500,0.080000,-0.364320,0.111820,-0.332500,0.125000,0.198860,0.125000,0.230680,0.111820,0.230680,0.111820,$1*%
%AMFreePoly1*
4,1,14,0.364320,0.111820,0.377500,0.080000,0.377500,0.053640,0.364320,0.021820,0.230680,-0.111820,0.198860,-0.125000,-0.332500,-0.125000,-0.364320,-0.111820,-0.377500,-0.080000,-0.377500,0.080000,-0.364320,0.111820,-0.332500,0.125000,0.332500,0.125000,0.364320,0.111820,0.364320,0.111820,$1*%
%AMFreePoly2*
4,1,14,0.111820,0.364320,0.125000,0.332500,0.125000,-0.332500,0.111820,-0.364320,0.080000,-0.377500,-0.080000,-0.377500,-0.111820,-0.364320,-0.125000,-0.332500,-0.125000,0.198860,-0.111820,0.230680,0.021820,0.364320,0.053640,0.377500,0.080000,0.377500,0.111820,0.364320,0.111820,0.364320,$1*%
%AMFreePoly3*
4,1,14,-0.021820,0.364320,0.111820,0.230680,0.125000,0.198860,0.125000,-0.332500,0.111820,-0.364320,0.080000,-0.377500,-0.080000,-0.377500,-0.111820,-0.364320,-0.125000,-0.332500,-0.125000,0.332500,-0.111820,0.364320,-0.080000,0.377500,-0.053640,0.377500,-0.021820,0.364320,-0.021820,0.364320,$1*%
%AMFreePoly4*
4,1,14,0.364320,0.111820,0.377500,0.080000,0.377500,-0.080000,0.364320,-0.111820,0.332500,-0.125000,-0.198860,-0.125000,-0.230680,-0.111820,-0.364320,0.021820,-0.377500,0.053640,-0.377500,0.080000,-0.364320,0.111820,-0.332500,0.125000,0.332500,0.125000,0.364320,0.111820,0.364320,0.111820,$1*%
%AMFreePoly5*
4,1,14,0.364320,0.111820,0.377500,0.080000,0.377500,-0.080000,0.364320,-0.111820,0.332500,-0.125000,-0.332500,-0.125000,-0.364320,-0.111820,-0.377500,-0.080000,-0.377500,-0.053640,-0.364320,-0.021820,-0.230680,0.111820,-0.198860,0.125000,0.332500,0.125000,0.364320,0.111820,0.364320,0.111820,$1*%
%AMFreePoly6*
4,1,14,0.111820,0.364320,0.125000,0.332500,0.125000,-0.198860,0.111820,-0.230680,-0.021820,-0.364320,-0.053640,-0.377500,-0.080000,-0.377500,-0.111820,-0.364320,-0.125000,-0.332500,-0.125000,0.332500,-0.111820,0.364320,-0.080000,0.377500,0.080000,0.377500,0.111820,0.364320,0.111820,0.364320,$1*%
%AMFreePoly7*
4,1,14,0.111820,0.364320,0.125000,0.332500,0.125000,-0.332500,0.111820,-0.364320,0.080000,-0.377500,0.053640,-0.377500,0.021820,-0.364320,-0.111820,-0.230680,-0.125000,-0.198860,-0.125000,0.332500,-0.111820,0.364320,-0.080000,0.377500,0.080000,0.377500,0.111820,0.364320,0.111820,0.364320,$1*%
G04 Aperture macros list end*
%ADD10RoundRect,0.250000X-0.350000X-0.625000X0.350000X-0.625000X0.350000X0.625000X-0.350000X0.625000X0*%
%ADD11O,1.200000X1.750000*%
%ADD12RoundRect,0.135000X0.135000X0.185000X-0.135000X0.185000X-0.135000X-0.185000X0.135000X-0.185000X0*%
%ADD13RoundRect,0.150000X-0.150000X0.675000X-0.150000X-0.675000X0.150000X-0.675000X0.150000X0.675000X0*%
%ADD14RoundRect,0.140000X-0.170000X0.140000X-0.170000X-0.140000X0.170000X-0.140000X0.170000X0.140000X0*%
%ADD15C,0.990600*%
%ADD16C,0.787400*%
%ADD17RoundRect,0.250000X0.350000X0.625000X-0.350000X0.625000X-0.350000X-0.625000X0.350000X-0.625000X0*%
%ADD18RoundRect,0.112500X-0.187500X-0.112500X0.187500X-0.112500X0.187500X0.112500X-0.187500X0.112500X0*%
%ADD19R,1.800000X1.000000*%
%ADD20RoundRect,0.140000X0.170000X-0.140000X0.170000X0.140000X-0.170000X0.140000X-0.170000X-0.140000X0*%
%ADD21RoundRect,0.140000X-0.140000X-0.170000X0.140000X-0.170000X0.140000X0.170000X-0.140000X0.170000X0*%
%ADD22RoundRect,0.150000X-0.512500X-0.150000X0.512500X-0.150000X0.512500X0.150000X-0.512500X0.150000X0*%
%ADD23RoundRect,0.140000X0.140000X0.170000X-0.140000X0.170000X-0.140000X-0.170000X0.140000X-0.170000X0*%
%ADD24R,1.000000X1.000000*%
%ADD25O,1.000000X1.000000*%
%ADD26RoundRect,0.150000X0.587500X0.150000X-0.587500X0.150000X-0.587500X-0.150000X0.587500X-0.150000X0*%
%ADD27FreePoly0,180.000000*%
%ADD28RoundRect,0.062500X0.375000X0.062500X-0.375000X0.062500X-0.375000X-0.062500X0.375000X-0.062500X0*%
%ADD29FreePoly1,180.000000*%
%ADD30FreePoly2,180.000000*%
%ADD31RoundRect,0.062500X0.062500X0.375000X-0.062500X0.375000X-0.062500X-0.375000X0.062500X-0.375000X0*%
%ADD32FreePoly3,180.000000*%
%ADD33FreePoly4,180.000000*%
%ADD34FreePoly5,180.000000*%
%ADD35FreePoly6,180.000000*%
%ADD36FreePoly7,180.000000*%
G04 APERTURE END LIST*
D10*
X19860000Y-191135000D03*
D11*
X21860000Y-191135000D03*
X23860000Y-191135000D03*
X25860000Y-191135000D03*
D12*
X21947600Y-188468000D03*
X20927600Y-188468000D03*
D13*
X22148800Y-181313000D03*
X20878800Y-181313000D03*
X19608800Y-181313000D03*
X18338800Y-181313000D03*
X18338800Y-186563000D03*
X19608800Y-186563000D03*
X20878800Y-186563000D03*
X22148800Y-186563000D03*
D14*
X24892000Y-179860000D03*
X24892000Y-180820000D03*
D15*
X18618200Y-169418000D03*
X19634200Y-174498000D03*
X17602200Y-174498000D03*
D16*
X17983200Y-170688000D03*
X19253200Y-170688000D03*
X17983200Y-171958000D03*
X19253200Y-171958000D03*
X17983200Y-173228000D03*
X19253200Y-173228000D03*
D17*
X24098000Y-163830000D03*
D11*
X22098000Y-163830000D03*
D18*
X18601000Y-167005000D03*
X20701000Y-167005000D03*
D19*
X27178000Y-180320000D03*
X27178000Y-177820000D03*
D20*
X28067000Y-174188000D03*
X28067000Y-173228000D03*
D21*
X25527000Y-187452000D03*
X26487000Y-187452000D03*
D22*
X25400000Y-183901000D03*
X25400000Y-184851000D03*
X25400000Y-185801000D03*
X27675000Y-185801000D03*
X27675000Y-183901000D03*
D23*
X26578500Y-182499000D03*
X25618500Y-182499000D03*
D14*
X24892000Y-177602000D03*
X24892000Y-178562000D03*
D24*
X18781000Y-177292000D03*
D25*
X20051000Y-177292000D03*
D21*
X25555000Y-188468000D03*
X26515000Y-188468000D03*
D20*
X23622000Y-186817000D03*
X23622000Y-185857000D03*
D23*
X23622000Y-166319200D03*
X22662000Y-166319200D03*
D26*
X24333200Y-169670900D03*
X24333200Y-167770900D03*
X22458200Y-168720900D03*
D27*
X26491100Y-175236000D03*
D28*
X26431100Y-174736000D03*
X26431100Y-174236000D03*
X26431100Y-173736000D03*
X26431100Y-173236000D03*
X26431100Y-172736000D03*
D29*
X26491100Y-172236000D03*
D30*
X25993600Y-171738500D03*
D31*
X25493600Y-171798500D03*
X24993600Y-171798500D03*
X24493600Y-171798500D03*
X23993600Y-171798500D03*
X23493600Y-171798500D03*
D32*
X22993600Y-171738500D03*
D33*
X22496100Y-172236000D03*
D28*
X22556100Y-172736000D03*
X22556100Y-173236000D03*
X22556100Y-173736000D03*
X22556100Y-174236000D03*
X22556100Y-174736000D03*
D34*
X22496100Y-175236000D03*
D35*
X22993600Y-175733500D03*
D31*
X23493600Y-175673500D03*
X23993600Y-175673500D03*
X24493600Y-175673500D03*
X24993600Y-175673500D03*
X25493600Y-175673500D03*
D36*
X25993600Y-175733500D03*
D12*
X26873200Y-169823300D03*
X25853200Y-169823300D03*
M02*
