G04 #@! TF.GenerationSoftware,KiCad,Pcbnew,8.0.0-8.0.0-1~ubuntu20.04.1*
G04 #@! TF.CreationDate,2025-04-15T15:36:10+02:00*
G04 #@! TF.ProjectId,actuator-vibration-motor,61637475-6174-46f7-922d-766962726174,1*
G04 #@! TF.SameCoordinates,Original*
G04 #@! TF.FileFunction,Copper,L1,Top*
G04 #@! TF.FilePolarity,Positive*
%FSLAX46Y46*%
G04 Gerber Fmt 4.6, Leading zero omitted, Abs format (unit mm)*
G04 Created by KiCad (PCBNEW 8.0.0-8.0.0-1~ubuntu20.04.1) date 2025-04-15 15:36:10*
%MOMM*%
%LPD*%
G01*
G04 APERTURE LIST*
G04 Aperture macros list*
%AMRoundRect*
0 Rectangle with rounded corners*
0 $1 Rounding radius*
0 $2 $3 $4 $5 $6 $7 $8 $9 X,Y pos of 4 corners*
0 Add a 4 corners polygon primitive as box body*
4,1,4,$2,$3,$4,$5,$6,$7,$8,$9,$2,$3,0*
0 Add four circle primitives for the rounded corners*
1,1,$1+$1,$2,$3*
1,1,$1+$1,$4,$5*
1,1,$1+$1,$6,$7*
1,1,$1+$1,$8,$9*
0 Add four rect primitives between the rounded corners*
20,1,$1+$1,$2,$3,$4,$5,0*
20,1,$1+$1,$4,$5,$6,$7,0*
20,1,$1+$1,$6,$7,$8,$9,0*
20,1,$1+$1,$8,$9,$2,$3,0*%
%AMFreePoly0*
4,1,14,0.230680,0.111820,0.364320,-0.021820,0.377500,-0.053640,0.377500,-0.080000,0.364320,-0.111820,0.332500,-0.125000,-0.332500,-0.125000,-0.364320,-0.111820,-0.377500,-0.080000,-0.377500,0.080000,-0.364320,0.111820,-0.332500,0.125000,0.198860,0.125000,0.230680,0.111820,0.230680,0.111820,$1*%
%AMFreePoly1*
4,1,14,0.364320,0.111820,0.377500,0.080000,0.377500,0.053640,0.364320,0.021820,0.230680,-0.111820,0.198860,-0.125000,-0.332500,-0.125000,-0.364320,-0.111820,-0.377500,-0.080000,-0.377500,0.080000,-0.364320,0.111820,-0.332500,0.125000,0.332500,0.125000,0.364320,0.111820,0.364320,0.111820,$1*%
%AMFreePoly2*
4,1,14,0.111820,0.364320,0.125000,0.332500,0.125000,-0.332500,0.111820,-0.364320,0.080000,-0.377500,-0.080000,-0.377500,-0.111820,-0.364320,-0.125000,-0.332500,-0.125000,0.198860,-0.111820,0.230680,0.021820,0.364320,0.053640,0.377500,0.080000,0.377500,0.111820,0.364320,0.111820,0.364320,$1*%
%AMFreePoly3*
4,1,14,-0.021820,0.364320,0.111820,0.230680,0.125000,0.198860,0.125000,-0.332500,0.111820,-0.364320,0.080000,-0.377500,-0.080000,-0.377500,-0.111820,-0.364320,-0.125000,-0.332500,-0.125000,0.332500,-0.111820,0.364320,-0.080000,0.377500,-0.053640,0.377500,-0.021820,0.364320,-0.021820,0.364320,$1*%
%AMFreePoly4*
4,1,14,0.364320,0.111820,0.377500,0.080000,0.377500,-0.080000,0.364320,-0.111820,0.332500,-0.125000,-0.198860,-0.125000,-0.230680,-0.111820,-0.364320,0.021820,-0.377500,0.053640,-0.377500,0.080000,-0.364320,0.111820,-0.332500,0.125000,0.332500,0.125000,0.364320,0.111820,0.364320,0.111820,$1*%
%AMFreePoly5*
4,1,14,0.364320,0.111820,0.377500,0.080000,0.377500,-0.080000,0.364320,-0.111820,0.332500,-0.125000,-0.332500,-0.125000,-0.364320,-0.111820,-0.377500,-0.080000,-0.377500,-0.053640,-0.364320,-0.021820,-0.230680,0.111820,-0.198860,0.125000,0.332500,0.125000,0.364320,0.111820,0.364320,0.111820,$1*%
%AMFreePoly6*
4,1,14,0.111820,0.364320,0.125000,0.332500,0.125000,-0.198860,0.111820,-0.230680,-0.021820,-0.364320,-0.053640,-0.377500,-0.080000,-0.377500,-0.111820,-0.364320,-0.125000,-0.332500,-0.125000,0.332500,-0.111820,0.364320,-0.080000,0.377500,0.080000,0.377500,0.111820,0.364320,0.111820,0.364320,$1*%
%AMFreePoly7*
4,1,14,0.111820,0.364320,0.125000,0.332500,0.125000,-0.332500,0.111820,-0.364320,0.080000,-0.377500,0.053640,-0.377500,0.021820,-0.364320,-0.111820,-0.230680,-0.125000,-0.198860,-0.125000,0.332500,-0.111820,0.364320,-0.080000,0.377500,0.080000,0.377500,0.111820,0.364320,0.111820,0.364320,$1*%
G04 Aperture macros list end*
G04 #@! TA.AperFunction,ComponentPad*
%ADD10RoundRect,0.250000X-0.350000X-0.625000X0.350000X-0.625000X0.350000X0.625000X-0.350000X0.625000X0*%
G04 #@! TD*
G04 #@! TA.AperFunction,ComponentPad*
%ADD11O,1.200000X1.750000*%
G04 #@! TD*
G04 #@! TA.AperFunction,SMDPad,CuDef*
%ADD12RoundRect,0.135000X0.135000X0.185000X-0.135000X0.185000X-0.135000X-0.185000X0.135000X-0.185000X0*%
G04 #@! TD*
G04 #@! TA.AperFunction,SMDPad,CuDef*
%ADD13RoundRect,0.150000X-0.150000X0.675000X-0.150000X-0.675000X0.150000X-0.675000X0.150000X0.675000X0*%
G04 #@! TD*
G04 #@! TA.AperFunction,SMDPad,CuDef*
%ADD14RoundRect,0.140000X-0.170000X0.140000X-0.170000X-0.140000X0.170000X-0.140000X0.170000X0.140000X0*%
G04 #@! TD*
G04 #@! TA.AperFunction,ConnectorPad*
%ADD15C,0.787400*%
G04 #@! TD*
G04 #@! TA.AperFunction,ComponentPad*
%ADD16RoundRect,0.250000X0.350000X0.625000X-0.350000X0.625000X-0.350000X-0.625000X0.350000X-0.625000X0*%
G04 #@! TD*
G04 #@! TA.AperFunction,SMDPad,CuDef*
%ADD17RoundRect,0.112500X-0.187500X-0.112500X0.187500X-0.112500X0.187500X0.112500X-0.187500X0.112500X0*%
G04 #@! TD*
G04 #@! TA.AperFunction,SMDPad,CuDef*
%ADD18R,1.800000X1.000000*%
G04 #@! TD*
G04 #@! TA.AperFunction,SMDPad,CuDef*
%ADD19RoundRect,0.140000X0.170000X-0.140000X0.170000X0.140000X-0.170000X0.140000X-0.170000X-0.140000X0*%
G04 #@! TD*
G04 #@! TA.AperFunction,SMDPad,CuDef*
%ADD20RoundRect,0.140000X-0.140000X-0.170000X0.140000X-0.170000X0.140000X0.170000X-0.140000X0.170000X0*%
G04 #@! TD*
G04 #@! TA.AperFunction,SMDPad,CuDef*
%ADD21RoundRect,0.150000X-0.512500X-0.150000X0.512500X-0.150000X0.512500X0.150000X-0.512500X0.150000X0*%
G04 #@! TD*
G04 #@! TA.AperFunction,SMDPad,CuDef*
%ADD22RoundRect,0.140000X0.140000X0.170000X-0.140000X0.170000X-0.140000X-0.170000X0.140000X-0.170000X0*%
G04 #@! TD*
G04 #@! TA.AperFunction,ComponentPad*
%ADD23R,1.000000X1.000000*%
G04 #@! TD*
G04 #@! TA.AperFunction,ComponentPad*
%ADD24O,1.000000X1.000000*%
G04 #@! TD*
G04 #@! TA.AperFunction,SMDPad,CuDef*
%ADD25RoundRect,0.150000X0.587500X0.150000X-0.587500X0.150000X-0.587500X-0.150000X0.587500X-0.150000X0*%
G04 #@! TD*
G04 #@! TA.AperFunction,SMDPad,CuDef*
%ADD26FreePoly0,180.000000*%
G04 #@! TD*
G04 #@! TA.AperFunction,SMDPad,CuDef*
%ADD27RoundRect,0.062500X0.375000X0.062500X-0.375000X0.062500X-0.375000X-0.062500X0.375000X-0.062500X0*%
G04 #@! TD*
G04 #@! TA.AperFunction,SMDPad,CuDef*
%ADD28FreePoly1,180.000000*%
G04 #@! TD*
G04 #@! TA.AperFunction,SMDPad,CuDef*
%ADD29FreePoly2,180.000000*%
G04 #@! TD*
G04 #@! TA.AperFunction,SMDPad,CuDef*
%ADD30RoundRect,0.062500X0.062500X0.375000X-0.062500X0.375000X-0.062500X-0.375000X0.062500X-0.375000X0*%
G04 #@! TD*
G04 #@! TA.AperFunction,SMDPad,CuDef*
%ADD31FreePoly3,180.000000*%
G04 #@! TD*
G04 #@! TA.AperFunction,SMDPad,CuDef*
%ADD32FreePoly4,180.000000*%
G04 #@! TD*
G04 #@! TA.AperFunction,SMDPad,CuDef*
%ADD33FreePoly5,180.000000*%
G04 #@! TD*
G04 #@! TA.AperFunction,SMDPad,CuDef*
%ADD34FreePoly6,180.000000*%
G04 #@! TD*
G04 #@! TA.AperFunction,SMDPad,CuDef*
%ADD35FreePoly7,180.000000*%
G04 #@! TD*
G04 #@! TA.AperFunction,ViaPad*
%ADD36C,0.600000*%
G04 #@! TD*
G04 #@! TA.AperFunction,Conductor*
%ADD37C,0.200000*%
G04 #@! TD*
G04 #@! TA.AperFunction,Conductor*
%ADD38C,0.304800*%
G04 #@! TD*
G04 APERTURE END LIST*
D10*
X19860000Y-191135000D03*
D11*
X21860000Y-191135000D03*
X23860000Y-191135000D03*
X25860000Y-191135000D03*
D12*
X21947600Y-188468000D03*
X20927600Y-188468000D03*
D13*
X22148800Y-181313000D03*
X20878800Y-181313000D03*
X19608800Y-181313000D03*
X18338800Y-181313000D03*
X18338800Y-186563000D03*
X19608800Y-186563000D03*
X20878800Y-186563000D03*
X22148800Y-186563000D03*
D14*
X24892000Y-179860000D03*
X24892000Y-180820000D03*
D15*
X17983200Y-170688000D03*
X19253200Y-170688000D03*
X17983200Y-171958000D03*
X19253200Y-171958000D03*
X17983200Y-173228000D03*
X19253200Y-173228000D03*
D16*
X24098000Y-163830000D03*
D11*
X22098000Y-163830000D03*
D17*
X18601000Y-167005000D03*
X20701000Y-167005000D03*
D18*
X27178000Y-180320000D03*
X27178000Y-177820000D03*
D19*
X28067000Y-174188000D03*
X28067000Y-173228000D03*
D20*
X25527000Y-187452000D03*
X26487000Y-187452000D03*
D21*
X25400000Y-183901000D03*
X25400000Y-184851000D03*
X25400000Y-185801000D03*
X27675000Y-185801000D03*
X27675000Y-183901000D03*
D22*
X26578500Y-182499000D03*
X25618500Y-182499000D03*
D14*
X24892000Y-177602000D03*
X24892000Y-178562000D03*
D23*
X18781000Y-177292000D03*
D24*
X20051000Y-177292000D03*
D20*
X25555000Y-188468000D03*
X26515000Y-188468000D03*
D19*
X23622000Y-186817000D03*
X23622000Y-185857000D03*
D22*
X23622000Y-166319200D03*
X22662000Y-166319200D03*
D25*
X24333200Y-169670900D03*
X24333200Y-167770900D03*
X22458200Y-168720900D03*
D26*
X26491100Y-175236000D03*
D27*
X26431100Y-174736000D03*
X26431100Y-174236000D03*
X26431100Y-173736000D03*
X26431100Y-173236000D03*
X26431100Y-172736000D03*
D28*
X26491100Y-172236000D03*
D29*
X25993600Y-171738500D03*
D30*
X25493600Y-171798500D03*
X24993600Y-171798500D03*
X24493600Y-171798500D03*
X23993600Y-171798500D03*
X23493600Y-171798500D03*
D31*
X22993600Y-171738500D03*
D32*
X22496100Y-172236000D03*
D27*
X22556100Y-172736000D03*
X22556100Y-173236000D03*
X22556100Y-173736000D03*
X22556100Y-174236000D03*
X22556100Y-174736000D03*
D33*
X22496100Y-175236000D03*
D34*
X22993600Y-175733500D03*
D30*
X23493600Y-175673500D03*
X23993600Y-175673500D03*
X24493600Y-175673500D03*
X24993600Y-175673500D03*
X25493600Y-175673500D03*
D35*
X25993600Y-175733500D03*
D12*
X26873200Y-169823300D03*
X25853200Y-169823300D03*
D36*
X25603200Y-167791300D03*
X18338800Y-188087000D03*
X24927500Y-182499000D03*
X24638000Y-184785000D03*
X23571200Y-185064400D03*
X17145000Y-173228000D03*
X24866600Y-179197000D03*
X28067000Y-172389800D03*
X24003000Y-187706000D03*
X17145000Y-170688000D03*
X17653000Y-177292000D03*
X28270200Y-175006000D03*
X27559000Y-182499000D03*
X24384000Y-166319200D03*
X18669000Y-166116000D03*
X17119600Y-172008800D03*
X25400000Y-173228000D03*
X18415000Y-182753000D03*
X23876000Y-173355000D03*
X22098000Y-179959000D03*
X24536400Y-174236000D03*
X20066000Y-188595000D03*
D37*
X20701000Y-172847000D02*
X19812000Y-171958000D01*
X20701000Y-173990000D02*
X20701000Y-172847000D01*
X19812000Y-171958000D02*
X19253200Y-171958000D01*
X21947000Y-175236000D02*
X20701000Y-173990000D01*
X22496100Y-175236000D02*
X21947000Y-175236000D01*
X28270200Y-175006000D02*
X28019000Y-174754800D01*
X28019000Y-174754800D02*
X28019000Y-174236000D01*
X17653000Y-177292000D02*
X18781000Y-177292000D01*
D38*
X23571200Y-185064400D02*
X23794600Y-184841000D01*
D37*
X24866600Y-179044600D02*
X24866600Y-179197000D01*
X24866600Y-179197000D02*
X24866600Y-178635600D01*
X25726000Y-184785000D02*
X25792000Y-184851000D01*
X28067000Y-172389800D02*
X28067000Y-173228000D01*
X17145000Y-173228000D02*
X17983200Y-173228000D01*
X27051000Y-173736000D02*
X27559000Y-173228000D01*
D38*
X24927500Y-182499000D02*
X25618500Y-182499000D01*
D37*
X24582000Y-184841000D02*
X24638000Y-184785000D01*
X25582800Y-167770900D02*
X25603200Y-167791300D01*
D38*
X24638000Y-184785000D02*
X25726000Y-184785000D01*
D37*
X24866600Y-179197000D02*
X24866600Y-179606000D01*
D38*
X23794600Y-184841000D02*
X24582000Y-184841000D01*
X24333200Y-167770900D02*
X25582800Y-167770900D01*
D37*
X23622000Y-185115200D02*
X23571200Y-185064400D01*
X26431100Y-173736000D02*
X27051000Y-173736000D01*
D38*
X23622000Y-185857000D02*
X23622000Y-185115200D01*
D37*
X18338800Y-188087000D02*
X18338800Y-188188600D01*
D38*
X18338800Y-188087000D02*
X18338800Y-186563000D01*
D37*
X27559000Y-173228000D02*
X28067000Y-173228000D01*
D38*
X25555000Y-186038000D02*
X25792000Y-185801000D01*
X25946499Y-185801000D02*
X26543000Y-185204499D01*
D37*
X25555000Y-188468000D02*
X25555000Y-187480000D01*
D38*
X25555000Y-188468000D02*
X25555000Y-189075000D01*
X26543000Y-184497501D02*
X25946499Y-183901000D01*
X25555000Y-188468000D02*
X25555000Y-186038000D01*
X25946499Y-183901000D02*
X25284000Y-183901000D01*
X25860000Y-189380000D02*
X25860000Y-191135000D01*
X25555000Y-189075000D02*
X25860000Y-189380000D01*
X25284000Y-185801000D02*
X25946499Y-185801000D01*
X26543000Y-185204499D02*
X26543000Y-184497501D01*
D37*
X25555000Y-187480000D02*
X25527000Y-187452000D01*
X24866600Y-177675600D02*
X24866600Y-177627400D01*
X26960000Y-177602000D02*
X27178000Y-177820000D01*
X27178000Y-177820000D02*
X27178000Y-175922900D01*
X24892000Y-177602000D02*
X26960000Y-177602000D01*
X27178000Y-175922900D02*
X26491100Y-175236000D01*
X27178000Y-180320000D02*
X28702000Y-178796000D01*
X26678000Y-180820000D02*
X27178000Y-180320000D01*
X28702000Y-178796000D02*
X28702000Y-176569402D01*
X28555299Y-176422701D02*
X26868599Y-174736000D01*
X26868599Y-174736000D02*
X26431100Y-174736000D01*
X28702000Y-176569402D02*
X28555299Y-176422701D01*
X24892000Y-180820000D02*
X26678000Y-180820000D01*
D38*
X23622000Y-186817000D02*
X22402800Y-186817000D01*
X27559000Y-182499000D02*
X26670000Y-182499000D01*
D37*
X24384000Y-166319200D02*
X23622000Y-166319200D01*
X24098000Y-165741600D02*
X24098000Y-163830000D01*
X26431100Y-174236000D02*
X28019000Y-174236000D01*
X22148800Y-183207799D02*
X22148800Y-186563000D01*
X22402800Y-186817000D02*
X22148800Y-186563000D01*
X28019000Y-174236000D02*
X28067000Y-174188000D01*
X18669000Y-166116000D02*
X18669000Y-167013200D01*
X19555000Y-181059000D02*
X20825000Y-181059000D01*
D38*
X24003000Y-187706000D02*
X23622000Y-187325000D01*
D37*
X23622000Y-166217600D02*
X24098000Y-165741600D01*
X17145000Y-170688000D02*
X17983200Y-170688000D01*
X20825000Y-181059000D02*
X20825000Y-181883999D01*
D38*
X27675000Y-183595500D02*
X26578500Y-182499000D01*
D37*
X20825000Y-181883999D02*
X22148800Y-183207799D01*
D38*
X23622000Y-187325000D02*
X23622000Y-186817000D01*
X27675000Y-183901000D02*
X27675000Y-183595500D01*
D37*
X19308801Y-186862999D02*
X19308801Y-188686330D01*
X21947600Y-191047400D02*
X21860000Y-191135000D01*
X21757471Y-191135000D02*
X21860000Y-191135000D01*
X21860000Y-188555600D02*
X21947600Y-188468000D01*
X21860000Y-191135000D02*
X21860000Y-188555600D01*
X19608800Y-186563000D02*
X19308801Y-186862999D01*
X19308801Y-188686330D02*
X21757471Y-191135000D01*
X21590000Y-191135000D02*
X21860000Y-191135000D01*
X20878800Y-187387999D02*
X20878800Y-186563000D01*
X21323801Y-187833000D02*
X20878800Y-187387999D01*
X23860000Y-189214000D02*
X22479000Y-187833000D01*
X22479000Y-187833000D02*
X21323801Y-187833000D01*
X23860000Y-191135000D02*
X23860000Y-189214000D01*
X26423100Y-173228000D02*
X26431100Y-173236000D01*
X17119600Y-172008800D02*
X17932400Y-172008800D01*
X17932400Y-172008800D02*
X17983200Y-171958000D01*
X25400000Y-173228000D02*
X26423100Y-173228000D01*
X21209000Y-172643800D02*
X19253200Y-170688000D01*
X22031200Y-174736000D02*
X21209000Y-173913800D01*
X21209000Y-173913800D02*
X21209000Y-172643800D01*
X22556100Y-174736000D02*
X22031200Y-174736000D01*
X22107000Y-175236000D02*
X22496100Y-175236000D01*
X20178000Y-177165000D02*
X20051000Y-177292000D01*
X20051000Y-177292000D02*
X22107000Y-175236000D01*
X22458200Y-168720900D02*
X20742300Y-167005000D01*
D38*
X22662000Y-168517100D02*
X22662000Y-166319200D01*
D37*
X22458200Y-168720900D02*
X22662000Y-168517100D01*
D38*
X22662000Y-166319200D02*
X22098000Y-165755200D01*
X22098000Y-165755200D02*
X22098000Y-163830000D01*
D37*
X23749000Y-173355000D02*
X23368000Y-173736000D01*
X23876000Y-173355000D02*
X23749000Y-173355000D01*
X18415000Y-181189000D02*
X18285000Y-181059000D01*
X23368000Y-173736000D02*
X22556100Y-173736000D01*
X18415000Y-182753000D02*
X18415000Y-181189000D01*
X24536400Y-174236000D02*
X22556100Y-174236000D01*
X22098000Y-181056000D02*
X22095000Y-181059000D01*
X22098000Y-179959000D02*
X22098000Y-181310000D01*
X20066000Y-188595000D02*
X20193000Y-188468000D01*
X20193000Y-188468000D02*
X20927600Y-188468000D01*
X25853200Y-169823300D02*
X24485600Y-169823300D01*
X25993600Y-170061300D02*
X25958800Y-170026500D01*
X24485600Y-169823300D02*
X24333200Y-169670900D01*
X24493600Y-171798500D02*
X24493600Y-171361001D01*
X26008500Y-170688000D02*
X26873200Y-169823300D01*
X24493600Y-171361001D02*
X25166601Y-170688000D01*
X25166601Y-170688000D02*
X26008500Y-170688000D01*
G04 #@! TA.AperFunction,Conductor*
G36*
X29922539Y-158000185D02*
G01*
X29968294Y-158052989D01*
X29979500Y-158104500D01*
X29979500Y-196855500D01*
X29959815Y-196922539D01*
X29907011Y-196968294D01*
X29855500Y-196979500D01*
X16104500Y-196979500D01*
X16037461Y-196959815D01*
X15991706Y-196907011D01*
X15980500Y-196855500D01*
X15980500Y-186813000D01*
X17538800Y-186813000D01*
X17538800Y-187303649D01*
X17541699Y-187340489D01*
X17541700Y-187340495D01*
X17587516Y-187498193D01*
X17587517Y-187498196D01*
X17671114Y-187639552D01*
X17671121Y-187639561D01*
X17787238Y-187755678D01*
X17787247Y-187755685D01*
X17928601Y-187839281D01*
X18086314Y-187885100D01*
X18086311Y-187885100D01*
X18088798Y-187885295D01*
X18088800Y-187885295D01*
X18088800Y-186813000D01*
X17538800Y-186813000D01*
X15980500Y-186813000D01*
X15980500Y-186313000D01*
X17538800Y-186313000D01*
X18088800Y-186313000D01*
X18088800Y-185240703D01*
X18086303Y-185240900D01*
X17928606Y-185286716D01*
X17928603Y-185286717D01*
X17787247Y-185370314D01*
X17787238Y-185370321D01*
X17671121Y-185486438D01*
X17671114Y-185486447D01*
X17587517Y-185627803D01*
X17587516Y-185627806D01*
X17541700Y-185785504D01*
X17541699Y-185785510D01*
X17538800Y-185822350D01*
X17538800Y-186313000D01*
X15980500Y-186313000D01*
X15980500Y-182053701D01*
X17538300Y-182053701D01*
X17541201Y-182090567D01*
X17541202Y-182090573D01*
X17587054Y-182248393D01*
X17587055Y-182248396D01*
X17587056Y-182248398D01*
X17587412Y-182249000D01*
X17655972Y-182364929D01*
X17673155Y-182432653D01*
X17666282Y-182469004D01*
X17629631Y-182573747D01*
X17609435Y-182752996D01*
X17609435Y-182753003D01*
X17629630Y-182932249D01*
X17629631Y-182932254D01*
X17689211Y-183102523D01*
X17718575Y-183149255D01*
X17785184Y-183255262D01*
X17912738Y-183382816D01*
X18065478Y-183478789D01*
X18148661Y-183507896D01*
X18235745Y-183538368D01*
X18235750Y-183538369D01*
X18414996Y-183558565D01*
X18415000Y-183558565D01*
X18415004Y-183558565D01*
X18594249Y-183538369D01*
X18594252Y-183538368D01*
X18594255Y-183538368D01*
X18764522Y-183478789D01*
X18917262Y-183382816D01*
X19044816Y-183255262D01*
X19140789Y-183102522D01*
X19200368Y-182932255D01*
X19200369Y-182932249D01*
X19221345Y-182746081D01*
X19224279Y-182746411D01*
X19240250Y-182692024D01*
X19293054Y-182646269D01*
X19354295Y-182635445D01*
X19356227Y-182635597D01*
X19356231Y-182635598D01*
X19393106Y-182638500D01*
X19393114Y-182638500D01*
X19824486Y-182638500D01*
X19824494Y-182638500D01*
X19861369Y-182635598D01*
X19861371Y-182635597D01*
X19861373Y-182635597D01*
X19902991Y-182623505D01*
X20019198Y-182589744D01*
X20160665Y-182506081D01*
X20160670Y-182506075D01*
X20166831Y-182501298D01*
X20168733Y-182503750D01*
X20217379Y-182477155D01*
X20287074Y-182482104D01*
X20319495Y-182502940D01*
X20320769Y-182501298D01*
X20326932Y-182506078D01*
X20326935Y-182506081D01*
X20468402Y-182589744D01*
X20472295Y-182590875D01*
X20626226Y-182635597D01*
X20626229Y-182635597D01*
X20626231Y-182635598D01*
X20663106Y-182638500D01*
X20678904Y-182638500D01*
X20745943Y-182658185D01*
X20766585Y-182674819D01*
X21511981Y-183420215D01*
X21545466Y-183481538D01*
X21548300Y-183507896D01*
X21548300Y-185222093D01*
X21528615Y-185289132D01*
X21475811Y-185334887D01*
X21406653Y-185344831D01*
X21361180Y-185328825D01*
X21289200Y-185286257D01*
X21289193Y-185286254D01*
X21131373Y-185240402D01*
X21131367Y-185240401D01*
X21094501Y-185237500D01*
X21094494Y-185237500D01*
X20663106Y-185237500D01*
X20663098Y-185237500D01*
X20626232Y-185240401D01*
X20626226Y-185240402D01*
X20468406Y-185286254D01*
X20468403Y-185286255D01*
X20326937Y-185369917D01*
X20320769Y-185374702D01*
X20318872Y-185372256D01*
X20270158Y-185398857D01*
X20200466Y-185393873D01*
X20168096Y-185373069D01*
X20166831Y-185374702D01*
X20160662Y-185369917D01*
X20024061Y-185289132D01*
X20019198Y-185286256D01*
X20019197Y-185286255D01*
X20019196Y-185286255D01*
X20019193Y-185286254D01*
X19861373Y-185240402D01*
X19861367Y-185240401D01*
X19824501Y-185237500D01*
X19824494Y-185237500D01*
X19393106Y-185237500D01*
X19393098Y-185237500D01*
X19356232Y-185240401D01*
X19356226Y-185240402D01*
X19198406Y-185286254D01*
X19198403Y-185286255D01*
X19056940Y-185369915D01*
X19050774Y-185374699D01*
X19048974Y-185372379D01*
X18999713Y-185399230D01*
X18930025Y-185394193D01*
X18897792Y-185373461D01*
X18896522Y-185375100D01*
X18890352Y-185370314D01*
X18748996Y-185286717D01*
X18748993Y-185286716D01*
X18591294Y-185240900D01*
X18591297Y-185240900D01*
X18588800Y-185240703D01*
X18588800Y-187885295D01*
X18594552Y-187890612D01*
X18642952Y-187900781D01*
X18692707Y-187949833D01*
X18708301Y-188010033D01*
X18708301Y-188599660D01*
X18708300Y-188599678D01*
X18708300Y-188765384D01*
X18708299Y-188765384D01*
X18749224Y-188918115D01*
X18766777Y-188948516D01*
X18766778Y-188948520D01*
X18828276Y-189055039D01*
X18828282Y-189055047D01*
X18947150Y-189173915D01*
X18947156Y-189173920D01*
X19355177Y-189581941D01*
X19388662Y-189643264D01*
X19383678Y-189712956D01*
X19341806Y-189768889D01*
X19306501Y-189787328D01*
X19190878Y-189825642D01*
X19190875Y-189825643D01*
X19041654Y-189917684D01*
X18917684Y-190041654D01*
X18825643Y-190190875D01*
X18825641Y-190190880D01*
X18770494Y-190357302D01*
X18770493Y-190357309D01*
X18760000Y-190460013D01*
X18760000Y-190885000D01*
X19579670Y-190885000D01*
X19559925Y-190904745D01*
X19510556Y-190990255D01*
X19485000Y-191085630D01*
X19485000Y-191184370D01*
X19510556Y-191279745D01*
X19559925Y-191365255D01*
X19579670Y-191385000D01*
X18760001Y-191385000D01*
X18760001Y-191809986D01*
X18770494Y-191912697D01*
X18825641Y-192079119D01*
X18825643Y-192079124D01*
X18917684Y-192228345D01*
X19041654Y-192352315D01*
X19190875Y-192444356D01*
X19190880Y-192444358D01*
X19357302Y-192499505D01*
X19357309Y-192499506D01*
X19460019Y-192509999D01*
X19609999Y-192509999D01*
X19610000Y-192509998D01*
X19610000Y-191415330D01*
X19629745Y-191435075D01*
X19715255Y-191484444D01*
X19810630Y-191510000D01*
X19909370Y-191510000D01*
X20004745Y-191484444D01*
X20090255Y-191435075D01*
X20110000Y-191415330D01*
X20110000Y-192509999D01*
X20259972Y-192509999D01*
X20259986Y-192509998D01*
X20362697Y-192499505D01*
X20529119Y-192444358D01*
X20529124Y-192444356D01*
X20678345Y-192352315D01*
X20802315Y-192228345D01*
X20841945Y-192164094D01*
X20893893Y-192117368D01*
X20962855Y-192106145D01*
X21026937Y-192133988D01*
X21035166Y-192141508D01*
X21143072Y-192249414D01*
X21283212Y-192351232D01*
X21437555Y-192429873D01*
X21602299Y-192483402D01*
X21773389Y-192510500D01*
X21773390Y-192510500D01*
X21946610Y-192510500D01*
X21946611Y-192510500D01*
X22117701Y-192483402D01*
X22282445Y-192429873D01*
X22436788Y-192351232D01*
X22576928Y-192249414D01*
X22699414Y-192126928D01*
X22759682Y-192043975D01*
X22815012Y-192001311D01*
X22884626Y-191995332D01*
X22946421Y-192027938D01*
X22960315Y-192043973D01*
X23020586Y-192126928D01*
X23143072Y-192249414D01*
X23283212Y-192351232D01*
X23437555Y-192429873D01*
X23602299Y-192483402D01*
X23773389Y-192510500D01*
X23773390Y-192510500D01*
X23946610Y-192510500D01*
X23946611Y-192510500D01*
X24117701Y-192483402D01*
X24282445Y-192429873D01*
X24436788Y-192351232D01*
X24576928Y-192249414D01*
X24699414Y-192126928D01*
X24759682Y-192043975D01*
X24815012Y-192001311D01*
X24884626Y-191995332D01*
X24946421Y-192027938D01*
X24960315Y-192043973D01*
X25020586Y-192126928D01*
X25143072Y-192249414D01*
X25283212Y-192351232D01*
X25437555Y-192429873D01*
X25602299Y-192483402D01*
X25773389Y-192510500D01*
X25773390Y-192510500D01*
X25946610Y-192510500D01*
X25946611Y-192510500D01*
X26117701Y-192483402D01*
X26282445Y-192429873D01*
X26436788Y-192351232D01*
X26576928Y-192249414D01*
X26699414Y-192126928D01*
X26801232Y-191986788D01*
X26879873Y-191832445D01*
X26933402Y-191667701D01*
X26960500Y-191496611D01*
X26960500Y-190773389D01*
X26933402Y-190602299D01*
X26879873Y-190437555D01*
X26801232Y-190283212D01*
X26699414Y-190143072D01*
X26576928Y-190020586D01*
X26576927Y-190020585D01*
X26576925Y-190020583D01*
X26564013Y-190011202D01*
X26521348Y-189955871D01*
X26512900Y-189910885D01*
X26512900Y-189401999D01*
X26532585Y-189334960D01*
X26585389Y-189289205D01*
X26636900Y-189277999D01*
X26719624Y-189277999D01*
X26719649Y-189277998D01*
X26755910Y-189275145D01*
X26911196Y-189230030D01*
X27050374Y-189147721D01*
X27050383Y-189147714D01*
X27164714Y-189033383D01*
X27164721Y-189033374D01*
X27247031Y-188894195D01*
X27247033Y-188894190D01*
X27292144Y-188738918D01*
X27292145Y-188738912D01*
X27293790Y-188718000D01*
X26459500Y-188718000D01*
X26392461Y-188698315D01*
X26346706Y-188645511D01*
X26335500Y-188594000D01*
X26335500Y-188233317D01*
X26335499Y-188233302D01*
X26332643Y-188197008D01*
X26332642Y-188197002D01*
X26287495Y-188041609D01*
X26287494Y-188041605D01*
X26262563Y-187999449D01*
X26245379Y-187931726D01*
X26258661Y-187886534D01*
X26256396Y-187885554D01*
X26259489Y-187878402D01*
X26259494Y-187878395D01*
X26304643Y-187722993D01*
X26306295Y-187702000D01*
X26765000Y-187702000D01*
X26765000Y-188218000D01*
X27293790Y-188218000D01*
X27292145Y-188197089D01*
X27247031Y-188041804D01*
X27221982Y-187999448D01*
X27204799Y-187931724D01*
X27218143Y-187886310D01*
X27215934Y-187885354D01*
X27219030Y-187878198D01*
X27264145Y-187722910D01*
X27265790Y-187702000D01*
X26765000Y-187702000D01*
X26306295Y-187702000D01*
X26307500Y-187686690D01*
X26307500Y-187217310D01*
X26304643Y-187181007D01*
X26300261Y-187165925D01*
X26259495Y-187025608D01*
X26259492Y-187025600D01*
X26254266Y-187016763D01*
X26237000Y-186953645D01*
X26237000Y-186585562D01*
X26256685Y-186518523D01*
X26297877Y-186478831D01*
X26314365Y-186469081D01*
X26430581Y-186352865D01*
X26430767Y-186352549D01*
X26430977Y-186352353D01*
X26435361Y-186346702D01*
X26436272Y-186347409D01*
X26481836Y-186304866D01*
X26550577Y-186292362D01*
X26615167Y-186319006D01*
X26639355Y-186346921D01*
X26639639Y-186346702D01*
X26643679Y-186351911D01*
X26644232Y-186352548D01*
X26644419Y-186352865D01*
X26644421Y-186352867D01*
X26644423Y-186352870D01*
X26751357Y-186459804D01*
X26784842Y-186521127D01*
X26779858Y-186590819D01*
X26738130Y-186646645D01*
X26737000Y-186647493D01*
X26737000Y-187202000D01*
X27265790Y-187202000D01*
X27264145Y-187181089D01*
X27219031Y-187025804D01*
X27136721Y-186886625D01*
X27136714Y-186886616D01*
X27063279Y-186813181D01*
X27029794Y-186751858D01*
X27034778Y-186682166D01*
X27076650Y-186626233D01*
X27142114Y-186601816D01*
X27150960Y-186601500D01*
X28253186Y-186601500D01*
X28253194Y-186601500D01*
X28290069Y-186598598D01*
X28290071Y-186598597D01*
X28290073Y-186598597D01*
X28367827Y-186576007D01*
X28447898Y-186552744D01*
X28589365Y-186469081D01*
X28705581Y-186352865D01*
X28789244Y-186211398D01*
X28835098Y-186053569D01*
X28838000Y-186016694D01*
X28838000Y-185585306D01*
X28835098Y-185548431D01*
X28789244Y-185390602D01*
X28705581Y-185249135D01*
X28705579Y-185249133D01*
X28705576Y-185249129D01*
X28589370Y-185132923D01*
X28589362Y-185132917D01*
X28447896Y-185049255D01*
X28447893Y-185049254D01*
X28290073Y-185003402D01*
X28290067Y-185003401D01*
X28253201Y-185000500D01*
X28253194Y-185000500D01*
X27319900Y-185000500D01*
X27252861Y-184980815D01*
X27207106Y-184928011D01*
X27195900Y-184876500D01*
X27195900Y-184825500D01*
X27215585Y-184758461D01*
X27268389Y-184712706D01*
X27319900Y-184701500D01*
X28253186Y-184701500D01*
X28253194Y-184701500D01*
X28290069Y-184698598D01*
X28290071Y-184698597D01*
X28290073Y-184698597D01*
X28331691Y-184686505D01*
X28447898Y-184652744D01*
X28589365Y-184569081D01*
X28705581Y-184452865D01*
X28789244Y-184311398D01*
X28835098Y-184153569D01*
X28838000Y-184116694D01*
X28838000Y-183685306D01*
X28835098Y-183648431D01*
X28811685Y-183567845D01*
X28789245Y-183490606D01*
X28789244Y-183490603D01*
X28789244Y-183490602D01*
X28705581Y-183349135D01*
X28705579Y-183349133D01*
X28705576Y-183349129D01*
X28589370Y-183232923D01*
X28589362Y-183232917D01*
X28447896Y-183149255D01*
X28447893Y-183149254D01*
X28308030Y-183108620D01*
X28249144Y-183071014D01*
X28219938Y-183007542D01*
X28229684Y-182938355D01*
X28237628Y-182923576D01*
X28284789Y-182848522D01*
X28344368Y-182678255D01*
X28344755Y-182674819D01*
X28364565Y-182499003D01*
X28364565Y-182498996D01*
X28344369Y-182319750D01*
X28344368Y-182319745D01*
X28319613Y-182248999D01*
X28284789Y-182149478D01*
X28247776Y-182090573D01*
X28188815Y-181996737D01*
X28061262Y-181869184D01*
X27908523Y-181773211D01*
X27738254Y-181713631D01*
X27738249Y-181713630D01*
X27559004Y-181693435D01*
X27558996Y-181693435D01*
X27379750Y-181713630D01*
X27379737Y-181713633D01*
X27209480Y-181773209D01*
X27189846Y-181785546D01*
X27122609Y-181804545D01*
X27060755Y-181787283D01*
X26974893Y-181736505D01*
X26974890Y-181736504D01*
X26819497Y-181691357D01*
X26819491Y-181691356D01*
X26783197Y-181688500D01*
X26783190Y-181688500D01*
X26373810Y-181688500D01*
X26373802Y-181688500D01*
X26337508Y-181691356D01*
X26337502Y-181691357D01*
X26182109Y-181736504D01*
X26182104Y-181736506D01*
X26161128Y-181748911D01*
X26093403Y-181766092D01*
X26034889Y-181748911D01*
X26014691Y-181736966D01*
X26014690Y-181736965D01*
X25868501Y-181694493D01*
X25868500Y-181694494D01*
X25868500Y-182000645D01*
X25851234Y-182063763D01*
X25846007Y-182072600D01*
X25846004Y-182072608D01*
X25800857Y-182228002D01*
X25800856Y-182228008D01*
X25798000Y-182264302D01*
X25798000Y-182625000D01*
X25778315Y-182692039D01*
X25725511Y-182737794D01*
X25674000Y-182749000D01*
X24839710Y-182749000D01*
X24841354Y-182769910D01*
X24886467Y-182925191D01*
X24888786Y-182930549D01*
X24897347Y-182999893D01*
X24867060Y-183062857D01*
X24807540Y-183099451D01*
X24787255Y-183102977D01*
X24784926Y-183103402D01*
X24627106Y-183149254D01*
X24627103Y-183149255D01*
X24485637Y-183232917D01*
X24485629Y-183232923D01*
X24369423Y-183349129D01*
X24369417Y-183349137D01*
X24285755Y-183490603D01*
X24285754Y-183490606D01*
X24239902Y-183648426D01*
X24239901Y-183648432D01*
X24237000Y-183685298D01*
X24237000Y-184116701D01*
X24239901Y-184153567D01*
X24239902Y-184153573D01*
X24285754Y-184311393D01*
X24285756Y-184311399D01*
X24286926Y-184313377D01*
X24287369Y-184315126D01*
X24288853Y-184318554D01*
X24288299Y-184318793D01*
X24304103Y-184381102D01*
X24288749Y-184433395D01*
X24289317Y-184433641D01*
X24287327Y-184438239D01*
X24286928Y-184439599D01*
X24286222Y-184440791D01*
X24286216Y-184440806D01*
X24240400Y-184598505D01*
X24240399Y-184598511D01*
X24240204Y-184600998D01*
X24240205Y-184601000D01*
X24505685Y-184601000D01*
X24568806Y-184618268D01*
X24627102Y-184652744D01*
X24668724Y-184664836D01*
X24784926Y-184698597D01*
X24784929Y-184698597D01*
X24784931Y-184698598D01*
X24821806Y-184701500D01*
X25526000Y-184701500D01*
X25593039Y-184721185D01*
X25638794Y-184773989D01*
X25650000Y-184825500D01*
X25650000Y-184876500D01*
X25630315Y-184943539D01*
X25577511Y-184989294D01*
X25526000Y-185000500D01*
X24821798Y-185000500D01*
X24784932Y-185003401D01*
X24784926Y-185003402D01*
X24627106Y-185049254D01*
X24627103Y-185049255D01*
X24568806Y-185083732D01*
X24505685Y-185101000D01*
X24240203Y-185101000D01*
X24225988Y-185116377D01*
X24166026Y-185152243D01*
X24096193Y-185149997D01*
X24071813Y-185138936D01*
X24048195Y-185124968D01*
X24048190Y-185124966D01*
X23892918Y-185079855D01*
X23892912Y-185079854D01*
X23872000Y-185078209D01*
X23872000Y-185912500D01*
X23852315Y-185979539D01*
X23799511Y-186025294D01*
X23748000Y-186036500D01*
X23496000Y-186036500D01*
X23428961Y-186016815D01*
X23383206Y-185964011D01*
X23372000Y-185912500D01*
X23372000Y-185078210D01*
X23371999Y-185078209D01*
X23351087Y-185079854D01*
X23351081Y-185079855D01*
X23195809Y-185124966D01*
X23195804Y-185124968D01*
X23056625Y-185207278D01*
X23056616Y-185207285D01*
X22960981Y-185302921D01*
X22899658Y-185336406D01*
X22829966Y-185331422D01*
X22774033Y-185289550D01*
X22749616Y-185224086D01*
X22749300Y-185215240D01*
X22749300Y-183296858D01*
X22749301Y-183296845D01*
X22749301Y-183128744D01*
X22749301Y-183128742D01*
X22708377Y-182976014D01*
X22679034Y-182925191D01*
X22670158Y-182909817D01*
X22670157Y-182909816D01*
X22629321Y-182839084D01*
X22559619Y-182769382D01*
X22526135Y-182708058D01*
X22531120Y-182638367D01*
X22572991Y-182582433D01*
X22584181Y-182574969D01*
X22586248Y-182573747D01*
X22614213Y-182557208D01*
X22700659Y-182506085D01*
X22700663Y-182506082D01*
X22700665Y-182506081D01*
X22816881Y-182389865D01*
X22900544Y-182248398D01*
X22946398Y-182090569D01*
X22949300Y-182053694D01*
X22949300Y-180572306D01*
X22946398Y-180535431D01*
X22900544Y-180377602D01*
X22866490Y-180320021D01*
X22849308Y-180252298D01*
X22856181Y-180215949D01*
X22883368Y-180138255D01*
X22885434Y-180119919D01*
X22903565Y-179959003D01*
X22903565Y-179958996D01*
X22883369Y-179779750D01*
X22883368Y-179779745D01*
X22874029Y-179753057D01*
X22823789Y-179609478D01*
X22727816Y-179456738D01*
X22600262Y-179329184D01*
X22551717Y-179298681D01*
X22447523Y-179233211D01*
X22277254Y-179173631D01*
X22277249Y-179173630D01*
X22098004Y-179153435D01*
X22097996Y-179153435D01*
X21918750Y-179173630D01*
X21918745Y-179173631D01*
X21748476Y-179233211D01*
X21595737Y-179329184D01*
X21468184Y-179456737D01*
X21372211Y-179609476D01*
X21312631Y-179779745D01*
X21312630Y-179779749D01*
X21300382Y-179888462D01*
X21273316Y-179952876D01*
X21215721Y-179992431D01*
X21145884Y-179994568D01*
X21142573Y-179993656D01*
X21131373Y-179990402D01*
X21131367Y-179990401D01*
X21094501Y-179987500D01*
X21094494Y-179987500D01*
X20663106Y-179987500D01*
X20663098Y-179987500D01*
X20626232Y-179990401D01*
X20626226Y-179990402D01*
X20468406Y-180036254D01*
X20468403Y-180036255D01*
X20326937Y-180119917D01*
X20320769Y-180124702D01*
X20318872Y-180122256D01*
X20270158Y-180148857D01*
X20200466Y-180143873D01*
X20168096Y-180123069D01*
X20166831Y-180124702D01*
X20160662Y-180119917D01*
X20029514Y-180042357D01*
X20019198Y-180036256D01*
X20019197Y-180036255D01*
X20019196Y-180036255D01*
X20019193Y-180036254D01*
X19861373Y-179990402D01*
X19861367Y-179990401D01*
X19824501Y-179987500D01*
X19824494Y-179987500D01*
X19393106Y-179987500D01*
X19393098Y-179987500D01*
X19356232Y-179990401D01*
X19356226Y-179990402D01*
X19198406Y-180036254D01*
X19198403Y-180036255D01*
X19056937Y-180119917D01*
X19050769Y-180124702D01*
X19048872Y-180122256D01*
X19000158Y-180148857D01*
X18930466Y-180143873D01*
X18898096Y-180123069D01*
X18896831Y-180124702D01*
X18890662Y-180119917D01*
X18759514Y-180042357D01*
X18749198Y-180036256D01*
X18749197Y-180036255D01*
X18749196Y-180036255D01*
X18749193Y-180036254D01*
X18591373Y-179990402D01*
X18591367Y-179990401D01*
X18554501Y-179987500D01*
X18554494Y-179987500D01*
X18123106Y-179987500D01*
X18123098Y-179987500D01*
X18086232Y-179990401D01*
X18086226Y-179990402D01*
X17928406Y-180036254D01*
X17928403Y-180036255D01*
X17786937Y-180119917D01*
X17786929Y-180119923D01*
X17670723Y-180236129D01*
X17670717Y-180236137D01*
X17587055Y-180377603D01*
X17587054Y-180377606D01*
X17541202Y-180535426D01*
X17541201Y-180535432D01*
X17538300Y-180572298D01*
X17538300Y-182053701D01*
X15980500Y-182053701D01*
X15980500Y-178812000D01*
X24087496Y-178812000D01*
X24129968Y-178958195D01*
X24212278Y-179097374D01*
X24212285Y-179097383D01*
X24238221Y-179123319D01*
X24271706Y-179184642D01*
X24266722Y-179254334D01*
X24238221Y-179298681D01*
X24212285Y-179324616D01*
X24212278Y-179324625D01*
X24129968Y-179463804D01*
X24087496Y-179610000D01*
X24642000Y-179610000D01*
X24642000Y-178812000D01*
X24087496Y-178812000D01*
X15980500Y-178812000D01*
X15980500Y-172008803D01*
X16314035Y-172008803D01*
X16334230Y-172188049D01*
X16334231Y-172188054D01*
X16393811Y-172358323D01*
X16480299Y-172495967D01*
X16489784Y-172511062D01*
X16617338Y-172638616D01*
X16703278Y-172692616D01*
X16755991Y-172725738D01*
X16770078Y-172734589D01*
X16940345Y-172794168D01*
X16940350Y-172794169D01*
X17009243Y-172801930D01*
X17024839Y-172803688D01*
X17089254Y-172830754D01*
X17128809Y-172888348D01*
X17130948Y-172958185D01*
X17128888Y-172965226D01*
X17104215Y-173041162D01*
X17084577Y-173228000D01*
X17104215Y-173414837D01*
X17162264Y-173593497D01*
X17162267Y-173593503D01*
X17229804Y-173710480D01*
X17246277Y-173778380D01*
X17223424Y-173844407D01*
X17191308Y-173875582D01*
X17126780Y-173918698D01*
X17126776Y-173918701D01*
X17022901Y-174022576D01*
X17022898Y-174022580D01*
X16941283Y-174144724D01*
X16941278Y-174144733D01*
X16885061Y-174280455D01*
X16885058Y-174280465D01*
X16856400Y-174424540D01*
X16856400Y-174571459D01*
X16885058Y-174715534D01*
X16885061Y-174715544D01*
X16941278Y-174851266D01*
X16941283Y-174851275D01*
X17022898Y-174973419D01*
X17022901Y-174973423D01*
X17126776Y-175077298D01*
X17126780Y-175077301D01*
X17248924Y-175158916D01*
X17248930Y-175158919D01*
X17248931Y-175158920D01*
X17384658Y-175215140D01*
X17528740Y-175243799D01*
X17528744Y-175243800D01*
X17528745Y-175243800D01*
X17675656Y-175243800D01*
X17675657Y-175243799D01*
X17819742Y-175215140D01*
X17955469Y-175158920D01*
X18077620Y-175077301D01*
X18181501Y-174973420D01*
X18263120Y-174851269D01*
X18319340Y-174715542D01*
X18348000Y-174571455D01*
X18348000Y-174424545D01*
X18319340Y-174280458D01*
X18300925Y-174236000D01*
X18287285Y-174203069D01*
X18279816Y-174133600D01*
X18311091Y-174071121D01*
X18351412Y-174042337D01*
X18432512Y-174006229D01*
X18544888Y-173924583D01*
X18610694Y-173901103D01*
X18678748Y-173916928D01*
X18690652Y-173924578D01*
X18803637Y-174006666D01*
X18884799Y-174042801D01*
X18938034Y-174088050D01*
X18958356Y-174154899D01*
X18948923Y-174203532D01*
X18917062Y-174280451D01*
X18917058Y-174280465D01*
X18888400Y-174424540D01*
X18888400Y-174571459D01*
X18917058Y-174715534D01*
X18917061Y-174715544D01*
X18973278Y-174851266D01*
X18973283Y-174851275D01*
X19054898Y-174973419D01*
X19054901Y-174973423D01*
X19158776Y-175077298D01*
X19158780Y-175077301D01*
X19280924Y-175158916D01*
X19280930Y-175158919D01*
X19280931Y-175158920D01*
X19416658Y-175215140D01*
X19560740Y-175243799D01*
X19560744Y-175243800D01*
X19560745Y-175243800D01*
X19707656Y-175243800D01*
X19707657Y-175243799D01*
X19851742Y-175215140D01*
X19987469Y-175158920D01*
X20109620Y-175077301D01*
X20213501Y-174973420D01*
X20295120Y-174851269D01*
X20346506Y-174727211D01*
X20390347Y-174672808D01*
X20456641Y-174650743D01*
X20524340Y-174668022D01*
X20548748Y-174686983D01*
X21090083Y-175228318D01*
X21123568Y-175289641D01*
X21118584Y-175359333D01*
X21090083Y-175403680D01*
X20234579Y-176259184D01*
X20173256Y-176292669D01*
X20134746Y-176294906D01*
X20051001Y-176286659D01*
X20051000Y-176286659D01*
X19854870Y-176305975D01*
X19750559Y-176337618D01*
X19666273Y-176363186D01*
X19666272Y-176363186D01*
X19666267Y-176363188D01*
X19664143Y-176364324D01*
X19662898Y-176364583D01*
X19660641Y-176365518D01*
X19660463Y-176365089D01*
X19595740Y-176378564D01*
X19531382Y-176354231D01*
X19523331Y-176348204D01*
X19523328Y-176348202D01*
X19388482Y-176297908D01*
X19388483Y-176297908D01*
X19328883Y-176291501D01*
X19328881Y-176291500D01*
X19328873Y-176291500D01*
X19328864Y-176291500D01*
X18233129Y-176291500D01*
X18233123Y-176291501D01*
X18173516Y-176297908D01*
X18038671Y-176348202D01*
X18038664Y-176348206D01*
X17923456Y-176434451D01*
X17909096Y-176453634D01*
X17853161Y-176495503D01*
X17795948Y-176502540D01*
X17653004Y-176486435D01*
X17652996Y-176486435D01*
X17473750Y-176506630D01*
X17473745Y-176506631D01*
X17303476Y-176566211D01*
X17150737Y-176662184D01*
X17023184Y-176789737D01*
X16927211Y-176942476D01*
X16867631Y-177112745D01*
X16867630Y-177112750D01*
X16847435Y-177291996D01*
X16847435Y-177292003D01*
X16867630Y-177471249D01*
X16867631Y-177471254D01*
X16927211Y-177641523D01*
X17023184Y-177794262D01*
X17150738Y-177921816D01*
X17241080Y-177978582D01*
X17272612Y-177998395D01*
X17303478Y-178017789D01*
X17444292Y-178067062D01*
X17473745Y-178077368D01*
X17473750Y-178077369D01*
X17652996Y-178097565D01*
X17653000Y-178097565D01*
X17653003Y-178097565D01*
X17795946Y-178081459D01*
X17864768Y-178093513D01*
X17909096Y-178130367D01*
X17923450Y-178149542D01*
X17923452Y-178149544D01*
X17923454Y-178149546D01*
X17923457Y-178149548D01*
X18038664Y-178235793D01*
X18038671Y-178235797D01*
X18173517Y-178286091D01*
X18173516Y-178286091D01*
X18180444Y-178286835D01*
X18233127Y-178292500D01*
X19328872Y-178292499D01*
X19388483Y-178286091D01*
X19523331Y-178235796D01*
X19531379Y-178229770D01*
X19596842Y-178205351D01*
X19660474Y-178218895D01*
X19660645Y-178218483D01*
X19662875Y-178219406D01*
X19664146Y-178219677D01*
X19666273Y-178220814D01*
X19854868Y-178278024D01*
X20051000Y-178297341D01*
X20247132Y-178278024D01*
X20435727Y-178220814D01*
X20437853Y-178219678D01*
X20576427Y-178145608D01*
X20609538Y-178127910D01*
X20761883Y-178002883D01*
X20886910Y-177850538D01*
X20979814Y-177676727D01*
X21037024Y-177488132D01*
X21056341Y-177292000D01*
X21048092Y-177208252D01*
X21061110Y-177139609D01*
X21083811Y-177108422D01*
X22149685Y-176042548D01*
X22211007Y-176009065D01*
X22280699Y-176014049D01*
X22336632Y-176055921D01*
X22358399Y-176114281D01*
X22360077Y-176114025D01*
X22360996Y-176120042D01*
X22396578Y-176259444D01*
X22396582Y-176259454D01*
X22411221Y-176294798D01*
X22411227Y-176294810D01*
X22463011Y-176389646D01*
X22561056Y-176494956D01*
X22561056Y-176494957D01*
X22657042Y-176551908D01*
X22684793Y-176568374D01*
X22720148Y-176583019D01*
X22771184Y-176601024D01*
X22913600Y-176621500D01*
X22913603Y-176621500D01*
X23073602Y-176621500D01*
X23079724Y-176621171D01*
X23127641Y-176618603D01*
X23127645Y-176618602D01*
X23127646Y-176618602D01*
X23166551Y-176608671D01*
X23217628Y-176595634D01*
X23276065Y-176595982D01*
X23276070Y-176595948D01*
X23276342Y-176595983D01*
X23280397Y-176596008D01*
X23284117Y-176597004D01*
X23284128Y-176597009D01*
X23394199Y-176611500D01*
X23593000Y-176611499D01*
X23593001Y-176611499D01*
X23609687Y-176609302D01*
X23703072Y-176597009D01*
X23703075Y-176597007D01*
X23710926Y-176594905D01*
X23711810Y-176598207D01*
X23765525Y-176592392D01*
X23776114Y-176595501D01*
X23776274Y-176594905D01*
X23784124Y-176597008D01*
X23784126Y-176597008D01*
X23784128Y-176597009D01*
X23894199Y-176611500D01*
X24093000Y-176611499D01*
X24093001Y-176611499D01*
X24109687Y-176609302D01*
X24203072Y-176597009D01*
X24203075Y-176597007D01*
X24210926Y-176594905D01*
X24211810Y-176598207D01*
X24265525Y-176592392D01*
X24276114Y-176595501D01*
X24276274Y-176594905D01*
X24284124Y-176597008D01*
X24284126Y-176597008D01*
X24284128Y-176597009D01*
X24394199Y-176611500D01*
X24482398Y-176611499D01*
X24549436Y-176631183D01*
X24595192Y-176683986D01*
X24605136Y-176753145D01*
X24576112Y-176816701D01*
X24517334Y-176854476D01*
X24516994Y-176854575D01*
X24465608Y-176869504D01*
X24465606Y-176869505D01*
X24326315Y-176951881D01*
X24326307Y-176951887D01*
X24211887Y-177066307D01*
X24211881Y-177066315D01*
X24129505Y-177205606D01*
X24129504Y-177205609D01*
X24084357Y-177361002D01*
X24084356Y-177361008D01*
X24081500Y-177397302D01*
X24081500Y-177806697D01*
X24084356Y-177842991D01*
X24084357Y-177842997D01*
X24129504Y-177998390D01*
X24129507Y-177998397D01*
X24141910Y-178019370D01*
X24159093Y-178087094D01*
X24141912Y-178145608D01*
X24129968Y-178165804D01*
X24087496Y-178312000D01*
X24393648Y-178312000D01*
X24456766Y-178329267D01*
X24465605Y-178334494D01*
X24465608Y-178334494D01*
X24465610Y-178334496D01*
X24621002Y-178379642D01*
X24621005Y-178379642D01*
X24621007Y-178379643D01*
X24657310Y-178382500D01*
X24657318Y-178382500D01*
X25018000Y-178382500D01*
X25085039Y-178402185D01*
X25130794Y-178454989D01*
X25142000Y-178506500D01*
X25142000Y-179915500D01*
X25122315Y-179982539D01*
X25069511Y-180028294D01*
X25018000Y-180039500D01*
X24657302Y-180039500D01*
X24621008Y-180042356D01*
X24621002Y-180042357D01*
X24465610Y-180087503D01*
X24465605Y-180087506D01*
X24456766Y-180092732D01*
X24393648Y-180110000D01*
X24087496Y-180110000D01*
X24129968Y-180256194D01*
X24141911Y-180276389D01*
X24159092Y-180344113D01*
X24141911Y-180402628D01*
X24129506Y-180423604D01*
X24129504Y-180423609D01*
X24084357Y-180579002D01*
X24084356Y-180579008D01*
X24081500Y-180615302D01*
X24081500Y-181024697D01*
X24084356Y-181060991D01*
X24084357Y-181060997D01*
X24129504Y-181216390D01*
X24129505Y-181216393D01*
X24211881Y-181355684D01*
X24211887Y-181355692D01*
X24326307Y-181470112D01*
X24326311Y-181470115D01*
X24326313Y-181470117D01*
X24465605Y-181552494D01*
X24506587Y-181564400D01*
X24621002Y-181597642D01*
X24621005Y-181597642D01*
X24621007Y-181597643D01*
X24657310Y-181600500D01*
X24657318Y-181600500D01*
X25002998Y-181600500D01*
X25070037Y-181620185D01*
X25115792Y-181672989D01*
X25125736Y-181742147D01*
X25096711Y-181805703D01*
X25088424Y-181813550D01*
X25088638Y-181813764D01*
X24968785Y-181933616D01*
X24968778Y-181933625D01*
X24886468Y-182072804D01*
X24886466Y-182072809D01*
X24841355Y-182228081D01*
X24841354Y-182228087D01*
X24839709Y-182248999D01*
X24839710Y-182249000D01*
X25368500Y-182249000D01*
X25368500Y-181682398D01*
X25347241Y-181653914D01*
X25342357Y-181584215D01*
X25375931Y-181522941D01*
X25400358Y-181504020D01*
X25457687Y-181470117D01*
X25457692Y-181470112D01*
X25470986Y-181456819D01*
X25532309Y-181423334D01*
X25558667Y-181420500D01*
X26591331Y-181420500D01*
X26591347Y-181420501D01*
X26598943Y-181420501D01*
X26757054Y-181420501D01*
X26757057Y-181420501D01*
X26909785Y-181379577D01*
X26959904Y-181350639D01*
X26983336Y-181337110D01*
X27045334Y-181320499D01*
X28125871Y-181320499D01*
X28125872Y-181320499D01*
X28185483Y-181314091D01*
X28320331Y-181263796D01*
X28435546Y-181177546D01*
X28521796Y-181062331D01*
X28572091Y-180927483D01*
X28578500Y-180867873D01*
X28578499Y-179820095D01*
X28598183Y-179753057D01*
X28614813Y-179732420D01*
X29060506Y-179286728D01*
X29060511Y-179286724D01*
X29070714Y-179276520D01*
X29070716Y-179276520D01*
X29182520Y-179164716D01*
X29261577Y-179027784D01*
X29302500Y-178875057D01*
X29302500Y-176658462D01*
X29302501Y-176658449D01*
X29302501Y-176490346D01*
X29292664Y-176453634D01*
X29261577Y-176337618D01*
X29238651Y-176297908D01*
X29182524Y-176200692D01*
X29182518Y-176200684D01*
X28782737Y-175800903D01*
X28749252Y-175739580D01*
X28754236Y-175669888D01*
X28782737Y-175625541D01*
X28900016Y-175508262D01*
X28995989Y-175355522D01*
X29055568Y-175185255D01*
X29058535Y-175158921D01*
X29075765Y-175006003D01*
X29075765Y-175005996D01*
X29055569Y-174826750D01*
X29055568Y-174826745D01*
X29034585Y-174766778D01*
X28995989Y-174656478D01*
X28992385Y-174650743D01*
X28896311Y-174497842D01*
X28898144Y-174496689D01*
X28875670Y-174441638D01*
X28875407Y-174419282D01*
X28875724Y-174415255D01*
X28877500Y-174392690D01*
X28877500Y-173983310D01*
X28874643Y-173947007D01*
X28868128Y-173924583D01*
X28829495Y-173791609D01*
X28829494Y-173791605D01*
X28823139Y-173780860D01*
X28817089Y-173770630D01*
X28799906Y-173702909D01*
X28817091Y-173644384D01*
X28829032Y-173624194D01*
X28871504Y-173478000D01*
X28565352Y-173478000D01*
X28502233Y-173460732D01*
X28493395Y-173455506D01*
X28493393Y-173455505D01*
X28493389Y-173455503D01*
X28337997Y-173410357D01*
X28337991Y-173410356D01*
X28301697Y-173407500D01*
X28301690Y-173407500D01*
X27941000Y-173407500D01*
X27873961Y-173387815D01*
X27828206Y-173335011D01*
X27817000Y-173283500D01*
X27817000Y-172449210D01*
X27816999Y-172449209D01*
X28317000Y-172449209D01*
X28317000Y-172978000D01*
X28871504Y-172978000D01*
X28829031Y-172831804D01*
X28746721Y-172692625D01*
X28746714Y-172692616D01*
X28632383Y-172578285D01*
X28632374Y-172578278D01*
X28493195Y-172495968D01*
X28493190Y-172495966D01*
X28337918Y-172450855D01*
X28337912Y-172450854D01*
X28317000Y-172449209D01*
X27816999Y-172449209D01*
X27796087Y-172450854D01*
X27796081Y-172450855D01*
X27640809Y-172495966D01*
X27640806Y-172495967D01*
X27549174Y-172550158D01*
X27481450Y-172567340D01*
X27415188Y-172545180D01*
X27371425Y-172490713D01*
X27363316Y-172425780D01*
X27379100Y-172316000D01*
X27379100Y-172156000D01*
X27376203Y-172101959D01*
X27340619Y-171962548D01*
X27332936Y-171944002D01*
X27325978Y-171927201D01*
X27325972Y-171927189D01*
X27274188Y-171832353D01*
X27176143Y-171727043D01*
X27176143Y-171727042D01*
X27052407Y-171653626D01*
X27017057Y-171638983D01*
X27017031Y-171638973D01*
X26966017Y-171620976D01*
X26918544Y-171614150D01*
X26823600Y-171600500D01*
X26823598Y-171600500D01*
X26753100Y-171600500D01*
X26686061Y-171580815D01*
X26640306Y-171528011D01*
X26629100Y-171476500D01*
X26629100Y-171405997D01*
X26627654Y-171379034D01*
X26626203Y-171351959D01*
X26590619Y-171212548D01*
X26581388Y-171190262D01*
X26575978Y-171177201D01*
X26575969Y-171177183D01*
X26547198Y-171124494D01*
X26532345Y-171056222D01*
X26556761Y-170990757D01*
X26568341Y-170977392D01*
X26865616Y-170680118D01*
X26926939Y-170646633D01*
X26953297Y-170643799D01*
X27072368Y-170643799D01*
X27072380Y-170643799D01*
X27108404Y-170640965D01*
X27262593Y-170596169D01*
X27400798Y-170514435D01*
X27514335Y-170400898D01*
X27596069Y-170262693D01*
X27640865Y-170108504D01*
X27643700Y-170072481D01*
X27643699Y-169574120D01*
X27640865Y-169538096D01*
X27596069Y-169383907D01*
X27514335Y-169245702D01*
X27514333Y-169245700D01*
X27514330Y-169245696D01*
X27400803Y-169132169D01*
X27400795Y-169132163D01*
X27262593Y-169050431D01*
X27262588Y-169050429D01*
X27108408Y-169005635D01*
X27108402Y-169005634D01*
X27072381Y-169002800D01*
X26674030Y-169002800D01*
X26674008Y-169002801D01*
X26637994Y-169005635D01*
X26483811Y-169050429D01*
X26483804Y-169050432D01*
X26426319Y-169084428D01*
X26358595Y-169101609D01*
X26300081Y-169084428D01*
X26242595Y-169050432D01*
X26242588Y-169050429D01*
X26088408Y-169005635D01*
X26088402Y-169005634D01*
X26052381Y-169002800D01*
X25654030Y-169002800D01*
X25654008Y-169002801D01*
X25617998Y-169005634D01*
X25461676Y-169051050D01*
X25391807Y-169050850D01*
X25339401Y-169019654D01*
X25322570Y-169002823D01*
X25322562Y-169002817D01*
X25181096Y-168919155D01*
X25181093Y-168919154D01*
X25023273Y-168873302D01*
X25023267Y-168873301D01*
X24986401Y-168870400D01*
X24986394Y-168870400D01*
X23820200Y-168870400D01*
X23753161Y-168850715D01*
X23707406Y-168797911D01*
X23696200Y-168746400D01*
X23696200Y-168694900D01*
X23715885Y-168627861D01*
X23768689Y-168582106D01*
X23820200Y-168570900D01*
X24083200Y-168570900D01*
X24083200Y-168020900D01*
X24583200Y-168020900D01*
X24583200Y-168570900D01*
X24986334Y-168570900D01*
X24986349Y-168570899D01*
X25023189Y-168568000D01*
X25023195Y-168567999D01*
X25180893Y-168522183D01*
X25180896Y-168522182D01*
X25322252Y-168438585D01*
X25322261Y-168438578D01*
X25438378Y-168322461D01*
X25438385Y-168322452D01*
X25521981Y-168181098D01*
X25567800Y-168023386D01*
X25567995Y-168020901D01*
X25567995Y-168020900D01*
X24583200Y-168020900D01*
X24083200Y-168020900D01*
X24083200Y-167644900D01*
X24102885Y-167577861D01*
X24155689Y-167532106D01*
X24207200Y-167520900D01*
X25567995Y-167520900D01*
X25567995Y-167520898D01*
X25567800Y-167518413D01*
X25521981Y-167360701D01*
X25438385Y-167219347D01*
X25438378Y-167219338D01*
X25322261Y-167103221D01*
X25322252Y-167103214D01*
X25180896Y-167019617D01*
X25180893Y-167019616D01*
X25092175Y-166993841D01*
X25033289Y-166956235D01*
X25004083Y-166892763D01*
X25013829Y-166823576D01*
X25021776Y-166808793D01*
X25109789Y-166668722D01*
X25169368Y-166498455D01*
X25170654Y-166487043D01*
X25189565Y-166319203D01*
X25189565Y-166319196D01*
X25169369Y-166139950D01*
X25169368Y-166139945D01*
X25109788Y-165969676D01*
X25067892Y-165903000D01*
X25013816Y-165816938D01*
X24886262Y-165689384D01*
X24886260Y-165689382D01*
X24756527Y-165607865D01*
X24710237Y-165555531D01*
X24698500Y-165502872D01*
X24698500Y-165250908D01*
X24718185Y-165183869D01*
X24762271Y-165145363D01*
X24761187Y-165143605D01*
X24767332Y-165139814D01*
X24767334Y-165139814D01*
X24916656Y-165047712D01*
X25040712Y-164923656D01*
X25132814Y-164774334D01*
X25187999Y-164607797D01*
X25198500Y-164505009D01*
X25198499Y-163154992D01*
X25187999Y-163052203D01*
X25132814Y-162885666D01*
X25040712Y-162736344D01*
X24916656Y-162612288D01*
X24791559Y-162535128D01*
X24767336Y-162520187D01*
X24767331Y-162520185D01*
X24765862Y-162519698D01*
X24600797Y-162465001D01*
X24600795Y-162465000D01*
X24498010Y-162454500D01*
X23697998Y-162454500D01*
X23697980Y-162454501D01*
X23595203Y-162465000D01*
X23595200Y-162465001D01*
X23428668Y-162520185D01*
X23428663Y-162520187D01*
X23279342Y-162612289D01*
X23155287Y-162736344D01*
X23115688Y-162800544D01*
X23063739Y-162847268D01*
X22994777Y-162858489D01*
X22930695Y-162830645D01*
X22922469Y-162823127D01*
X22814930Y-162715588D01*
X22814928Y-162715586D01*
X22674788Y-162613768D01*
X22520445Y-162535127D01*
X22355701Y-162481598D01*
X22355699Y-162481597D01*
X22355698Y-162481597D01*
X22224271Y-162460781D01*
X22184611Y-162454500D01*
X22011389Y-162454500D01*
X21971728Y-162460781D01*
X21840302Y-162481597D01*
X21675552Y-162535128D01*
X21521211Y-162613768D01*
X21441256Y-162671859D01*
X21381072Y-162715586D01*
X21381070Y-162715588D01*
X21381069Y-162715588D01*
X21258588Y-162838069D01*
X21258588Y-162838070D01*
X21258586Y-162838072D01*
X21251905Y-162847268D01*
X21156768Y-162978211D01*
X21078128Y-163132552D01*
X21024597Y-163297302D01*
X20997500Y-163468389D01*
X20997500Y-164191611D01*
X21024598Y-164362701D01*
X21078127Y-164527445D01*
X21156768Y-164681788D01*
X21258586Y-164821928D01*
X21381072Y-164944414D01*
X21393984Y-164953795D01*
X21436650Y-165009121D01*
X21445100Y-165054113D01*
X21445100Y-165819505D01*
X21461709Y-165903001D01*
X21470191Y-165945644D01*
X21519408Y-166064464D01*
X21590859Y-166171400D01*
X21845182Y-166425722D01*
X21878666Y-166487043D01*
X21881500Y-166513402D01*
X21881500Y-166553897D01*
X21884356Y-166590191D01*
X21884357Y-166590197D01*
X21929504Y-166745590D01*
X21929505Y-166745593D01*
X21929506Y-166745595D01*
X21979781Y-166830606D01*
X21991832Y-166850982D01*
X22009100Y-166914103D01*
X22009100Y-167123203D01*
X21989415Y-167190242D01*
X21936611Y-167235997D01*
X21867453Y-167245941D01*
X21803897Y-167216916D01*
X21797419Y-167210884D01*
X21537818Y-166951283D01*
X21504333Y-166889960D01*
X21501499Y-166863602D01*
X21501499Y-166830606D01*
X21501498Y-166830584D01*
X21498765Y-166795847D01*
X21498765Y-166795844D01*
X21455555Y-166647113D01*
X21376715Y-166513802D01*
X21376713Y-166513800D01*
X21376710Y-166513796D01*
X21267203Y-166404289D01*
X21267194Y-166404282D01*
X21186111Y-166356330D01*
X21133887Y-166325445D01*
X20985156Y-166282235D01*
X20985153Y-166282234D01*
X20985151Y-166282234D01*
X20954395Y-166279814D01*
X20950405Y-166279500D01*
X20950404Y-166279500D01*
X20451606Y-166279500D01*
X20451584Y-166279501D01*
X20416847Y-166282234D01*
X20416844Y-166282235D01*
X20268113Y-166325445D01*
X20268111Y-166325445D01*
X20268111Y-166325446D01*
X20134805Y-166404282D01*
X20134796Y-166404289D01*
X20025289Y-166513796D01*
X20025282Y-166513805D01*
X19946446Y-166647111D01*
X19903234Y-166795847D01*
X19903234Y-166795849D01*
X19900500Y-166830589D01*
X19900500Y-167179393D01*
X19900501Y-167179415D01*
X19903234Y-167214152D01*
X19903234Y-167214155D01*
X19903235Y-167214156D01*
X19946445Y-167362887D01*
X19946446Y-167362888D01*
X20025282Y-167496194D01*
X20025289Y-167496203D01*
X20134796Y-167605710D01*
X20134800Y-167605713D01*
X20134802Y-167605715D01*
X20268113Y-167684555D01*
X20416844Y-167727765D01*
X20451595Y-167730500D01*
X20567202Y-167730499D01*
X20634241Y-167750183D01*
X20654883Y-167766818D01*
X21201254Y-168313189D01*
X21234739Y-168374512D01*
X21232650Y-168435461D01*
X21223104Y-168468321D01*
X21223101Y-168468336D01*
X21220200Y-168505198D01*
X21220200Y-168936601D01*
X21223101Y-168973467D01*
X21223102Y-168973473D01*
X21268954Y-169131293D01*
X21268955Y-169131296D01*
X21352617Y-169272762D01*
X21352623Y-169272770D01*
X21468829Y-169388976D01*
X21468833Y-169388979D01*
X21468835Y-169388981D01*
X21610302Y-169472644D01*
X21651924Y-169484736D01*
X21768126Y-169518497D01*
X21768129Y-169518497D01*
X21768131Y-169518498D01*
X21805006Y-169521400D01*
X22971200Y-169521400D01*
X23038239Y-169541085D01*
X23083994Y-169593889D01*
X23095200Y-169645400D01*
X23095200Y-169886601D01*
X23098101Y-169923467D01*
X23098102Y-169923473D01*
X23143954Y-170081293D01*
X23143955Y-170081296D01*
X23227617Y-170222762D01*
X23227623Y-170222770D01*
X23343829Y-170338976D01*
X23343833Y-170338979D01*
X23343835Y-170338981D01*
X23485302Y-170422644D01*
X23526924Y-170434736D01*
X23643126Y-170468497D01*
X23643129Y-170468497D01*
X23643131Y-170468498D01*
X23680006Y-170471400D01*
X24234603Y-170471400D01*
X24301642Y-170491085D01*
X24347397Y-170543889D01*
X24357341Y-170613047D01*
X24328316Y-170676603D01*
X24322284Y-170683081D01*
X24181184Y-170824181D01*
X24119861Y-170857666D01*
X24093504Y-170860500D01*
X23894196Y-170860500D01*
X23784131Y-170874989D01*
X23776278Y-170877094D01*
X23775402Y-170873824D01*
X23721453Y-170879567D01*
X23711077Y-170876518D01*
X23710923Y-170877095D01*
X23703070Y-170874990D01*
X23593001Y-170860500D01*
X23394196Y-170860500D01*
X23276069Y-170876051D01*
X23275716Y-170873375D01*
X23222014Y-170872080D01*
X23221929Y-170872429D01*
X23220345Y-170872039D01*
X23219110Y-170872010D01*
X23216086Y-170870993D01*
X23216020Y-170870976D01*
X23121072Y-170857325D01*
X23073600Y-170850500D01*
X22913600Y-170850500D01*
X22913598Y-170850500D01*
X22859556Y-170853397D01*
X22720155Y-170888978D01*
X22720145Y-170888982D01*
X22684801Y-170903621D01*
X22684789Y-170903627D01*
X22589953Y-170955411D01*
X22484643Y-171053456D01*
X22484642Y-171053456D01*
X22411226Y-171177192D01*
X22396583Y-171212542D01*
X22396573Y-171212568D01*
X22378576Y-171263582D01*
X22378576Y-171263584D01*
X22358101Y-171405997D01*
X22358100Y-171406001D01*
X22358100Y-171476500D01*
X22338415Y-171543539D01*
X22285611Y-171589294D01*
X22234100Y-171600500D01*
X22163598Y-171600500D01*
X22109556Y-171603397D01*
X21970155Y-171638978D01*
X21970145Y-171638982D01*
X21934801Y-171653621D01*
X21934789Y-171653627D01*
X21839953Y-171705411D01*
X21734643Y-171803456D01*
X21734642Y-171803456D01*
X21661226Y-171927192D01*
X21646583Y-171962542D01*
X21646573Y-171962568D01*
X21641742Y-171976263D01*
X21600875Y-172032935D01*
X21535857Y-172058516D01*
X21467330Y-172044884D01*
X21437125Y-172022690D01*
X20188645Y-170774210D01*
X20155160Y-170712887D01*
X20153177Y-170694445D01*
X20153005Y-170694464D01*
X20152326Y-170688000D01*
X20132678Y-170501061D01*
X20074592Y-170322293D01*
X20074589Y-170322287D01*
X19980612Y-170159512D01*
X19980604Y-170159501D01*
X19854833Y-170019819D01*
X19854831Y-170019817D01*
X19702767Y-169909336D01*
X19702764Y-169909334D01*
X19702763Y-169909334D01*
X19642347Y-169882435D01*
X19531050Y-169832881D01*
X19531042Y-169832879D01*
X19421886Y-169809678D01*
X19360404Y-169776486D01*
X19326627Y-169715323D01*
X19331279Y-169645609D01*
X19333083Y-169640988D01*
X19335340Y-169635542D01*
X19364000Y-169491455D01*
X19364000Y-169344545D01*
X19335340Y-169200458D01*
X19279120Y-169064731D01*
X19279119Y-169064730D01*
X19279116Y-169064724D01*
X19197501Y-168942580D01*
X19197498Y-168942576D01*
X19093623Y-168838701D01*
X19093619Y-168838698D01*
X18971475Y-168757083D01*
X18971466Y-168757078D01*
X18835744Y-168700861D01*
X18835745Y-168700861D01*
X18835742Y-168700860D01*
X18835738Y-168700859D01*
X18835734Y-168700858D01*
X18691659Y-168672200D01*
X18691655Y-168672200D01*
X18544745Y-168672200D01*
X18544740Y-168672200D01*
X18400665Y-168700858D01*
X18400655Y-168700861D01*
X18264933Y-168757078D01*
X18264924Y-168757083D01*
X18142780Y-168838698D01*
X18142776Y-168838701D01*
X18038901Y-168942576D01*
X18038898Y-168942580D01*
X17957283Y-169064724D01*
X17957278Y-169064733D01*
X17901061Y-169200455D01*
X17901058Y-169200465D01*
X17872400Y-169344540D01*
X17872400Y-169491459D01*
X17901058Y-169635534D01*
X17901062Y-169635548D01*
X17903294Y-169640936D01*
X17910763Y-169710405D01*
X17879488Y-169772884D01*
X17819399Y-169808536D01*
X17814514Y-169809678D01*
X17705355Y-169832879D01*
X17705353Y-169832880D01*
X17533638Y-169909332D01*
X17524336Y-169916091D01*
X17458529Y-169939567D01*
X17410501Y-169932810D01*
X17324262Y-169902633D01*
X17324249Y-169902630D01*
X17145004Y-169882435D01*
X17144996Y-169882435D01*
X16965750Y-169902630D01*
X16965745Y-169902631D01*
X16795476Y-169962211D01*
X16642737Y-170058184D01*
X16515184Y-170185737D01*
X16419211Y-170338476D01*
X16359631Y-170508745D01*
X16359630Y-170508750D01*
X16339435Y-170687996D01*
X16339435Y-170688003D01*
X16359630Y-170867249D01*
X16359631Y-170867254D01*
X16419211Y-171037523D01*
X16515184Y-171190262D01*
X16572941Y-171248019D01*
X16606426Y-171309342D01*
X16601442Y-171379034D01*
X16572941Y-171423381D01*
X16489784Y-171506537D01*
X16393811Y-171659276D01*
X16334231Y-171829545D01*
X16334230Y-171829550D01*
X16314035Y-172008796D01*
X16314035Y-172008803D01*
X15980500Y-172008803D01*
X15980500Y-167179393D01*
X17800500Y-167179393D01*
X17800501Y-167179415D01*
X17803234Y-167214152D01*
X17803234Y-167214155D01*
X17803235Y-167214156D01*
X17846445Y-167362887D01*
X17846446Y-167362888D01*
X17925282Y-167496194D01*
X17925289Y-167496203D01*
X18034796Y-167605710D01*
X18034800Y-167605713D01*
X18034802Y-167605715D01*
X18168113Y-167684555D01*
X18316844Y-167727765D01*
X18351595Y-167730500D01*
X18850404Y-167730499D01*
X18885156Y-167727765D01*
X19033887Y-167684555D01*
X19167198Y-167605715D01*
X19276715Y-167496198D01*
X19355555Y-167362887D01*
X19398765Y-167214156D01*
X19401500Y-167179405D01*
X19401499Y-166830596D01*
X19398765Y-166795844D01*
X19355555Y-166647113D01*
X19355552Y-166647108D01*
X19352457Y-166639955D01*
X19354737Y-166638968D01*
X19340558Y-166583091D01*
X19359480Y-166521716D01*
X19394788Y-166465524D01*
X19416215Y-166404289D01*
X19454368Y-166295255D01*
X19474565Y-166116000D01*
X19468758Y-166064464D01*
X19454369Y-165936750D01*
X19454368Y-165936745D01*
X19394788Y-165766476D01*
X19298815Y-165613737D01*
X19171262Y-165486184D01*
X19018523Y-165390211D01*
X18848254Y-165330631D01*
X18848249Y-165330630D01*
X18669004Y-165310435D01*
X18668996Y-165310435D01*
X18489750Y-165330630D01*
X18489745Y-165330631D01*
X18319476Y-165390211D01*
X18166737Y-165486184D01*
X18039184Y-165613737D01*
X17943211Y-165766476D01*
X17883631Y-165936745D01*
X17883630Y-165936750D01*
X17863435Y-166115996D01*
X17863435Y-166116003D01*
X17883630Y-166295249D01*
X17883632Y-166295257D01*
X17928113Y-166422376D01*
X17931674Y-166492154D01*
X17917804Y-166526450D01*
X17846445Y-166647112D01*
X17803234Y-166795847D01*
X17803234Y-166795849D01*
X17800500Y-166830589D01*
X17800500Y-167179393D01*
X15980500Y-167179393D01*
X15980500Y-158104500D01*
X16000185Y-158037461D01*
X16052989Y-157991706D01*
X16104500Y-157980500D01*
X29855500Y-157980500D01*
X29922539Y-158000185D01*
G37*
G04 #@! TD.AperFunction*
M02*
