M48
; DRILL file {KiCad 8.0.0-8.0.0-1~ubuntu20.04.1} date 2025-04-15T15:36:38+0200
; FORMAT={-:-/ absolute / metric / decimal}
; #@! TF.CreationDate,2025-04-15T15:36:38+02:00
; #@! TF.GenerationSoftware,Kicad,Pcbnew,8.0.0-8.0.0-1~ubuntu20.04.1
; #@! TF.FileFunction,Plated,1,4,PTH
FMAT,2
METRIC
; #@! TA.AperFunction,Plated,PTH,ViaDrill
T1C0.300
; #@! TA.AperFunction,Plated,PTH,ComponentDrill
T2C0.650
; #@! TA.AperFunction,Plated,PTH,ComponentDrill
T3C0.750
%
G90
G05
T1
X17.12Y-172.009
X17.145Y-170.688
X17.145Y-173.228
X17.653Y-177.292
X18.339Y-188.087
X18.415Y-182.753
X18.669Y-166.116
X20.066Y-188.595
X22.098Y-179.959
X23.571Y-185.064
X23.876Y-173.355
X24.003Y-187.706
X24.384Y-166.319
X24.536Y-174.236
X24.638Y-184.785
X24.867Y-179.197
X24.927Y-182.499
X25.4Y-173.228
X25.603Y-167.791
X27.559Y-182.499
X28.067Y-172.39
X28.27Y-175.006
T2
X18.781Y-177.292
X20.051Y-177.292
T3
X19.86Y-191.135
X21.86Y-191.135
X22.098Y-163.83
X23.86Y-191.135
X24.098Y-163.83
X25.86Y-191.135
M30
