G04 #@! TF.GenerationSoftware,KiCad,Pcbnew,8.0.0-8.0.0-1~ubuntu20.04.1*
G04 #@! TF.CreationDate,2025-04-15T15:36:10+02:00*
G04 #@! TF.ProjectId,actuator-vibration-motor,61637475-6174-46f7-922d-766962726174,1*
G04 #@! TF.SameCoordinates,Original*
G04 #@! TF.FileFunction,Copper,L2,Inr*
G04 #@! TF.FilePolarity,Positive*
%FSLAX46Y46*%
G04 Gerber Fmt 4.6, Leading zero omitted, Abs format (unit mm)*
G04 Created by KiCad (PCBNEW 8.0.0-8.0.0-1~ubuntu20.04.1) date 2025-04-15 15:36:10*
%MOMM*%
%LPD*%
G01*
G04 APERTURE LIST*
G04 Aperture macros list*
%AMRoundRect*
0 Rectangle with rounded corners*
0 $1 Rounding radius*
0 $2 $3 $4 $5 $6 $7 $8 $9 X,Y pos of 4 corners*
0 Add a 4 corners polygon primitive as box body*
4,1,4,$2,$3,$4,$5,$6,$7,$8,$9,$2,$3,0*
0 Add four circle primitives for the rounded corners*
1,1,$1+$1,$2,$3*
1,1,$1+$1,$4,$5*
1,1,$1+$1,$6,$7*
1,1,$1+$1,$8,$9*
0 Add four rect primitives between the rounded corners*
20,1,$1+$1,$2,$3,$4,$5,0*
20,1,$1+$1,$4,$5,$6,$7,0*
20,1,$1+$1,$6,$7,$8,$9,0*
20,1,$1+$1,$8,$9,$2,$3,0*%
G04 Aperture macros list end*
G04 #@! TA.AperFunction,ComponentPad*
%ADD10RoundRect,0.250000X-0.350000X-0.625000X0.350000X-0.625000X0.350000X0.625000X-0.350000X0.625000X0*%
G04 #@! TD*
G04 #@! TA.AperFunction,ComponentPad*
%ADD11O,1.200000X1.750000*%
G04 #@! TD*
G04 #@! TA.AperFunction,ComponentPad*
%ADD12RoundRect,0.250000X0.350000X0.625000X-0.350000X0.625000X-0.350000X-0.625000X0.350000X-0.625000X0*%
G04 #@! TD*
G04 #@! TA.AperFunction,ComponentPad*
%ADD13R,1.000000X1.000000*%
G04 #@! TD*
G04 #@! TA.AperFunction,ComponentPad*
%ADD14O,1.000000X1.000000*%
G04 #@! TD*
G04 #@! TA.AperFunction,ViaPad*
%ADD15C,0.600000*%
G04 #@! TD*
G04 APERTURE END LIST*
D10*
X19860000Y-191135000D03*
D11*
X21860000Y-191135000D03*
X23860000Y-191135000D03*
X25860000Y-191135000D03*
D12*
X24098000Y-163830000D03*
D11*
X22098000Y-163830000D03*
D13*
X18781000Y-177292000D03*
D14*
X20051000Y-177292000D03*
D15*
X25603200Y-167791300D03*
X18338800Y-188087000D03*
X24927500Y-182499000D03*
X24638000Y-184785000D03*
X23571200Y-185064400D03*
X17145000Y-173228000D03*
X24866600Y-179197000D03*
X28067000Y-172389800D03*
X24003000Y-187706000D03*
X17145000Y-170688000D03*
X17653000Y-177292000D03*
X28270200Y-175006000D03*
X27559000Y-182499000D03*
X24384000Y-166319200D03*
X18669000Y-166116000D03*
X17119600Y-172008800D03*
X25400000Y-173228000D03*
X18415000Y-182753000D03*
X23876000Y-173355000D03*
X22098000Y-179959000D03*
X24536400Y-174236000D03*
X20066000Y-188595000D03*
G04 #@! TA.AperFunction,Conductor*
G36*
X29922539Y-158000185D02*
G01*
X29968294Y-158052989D01*
X29979500Y-158104500D01*
X29979500Y-196855500D01*
X29959815Y-196922539D01*
X29907011Y-196968294D01*
X29855500Y-196979500D01*
X16104500Y-196979500D01*
X16037461Y-196959815D01*
X15991706Y-196907011D01*
X15980500Y-196855500D01*
X15980500Y-190885000D01*
X18760000Y-190885000D01*
X19579670Y-190885000D01*
X19559925Y-190904745D01*
X19510556Y-190990255D01*
X19485000Y-191085630D01*
X19485000Y-191184370D01*
X19510556Y-191279745D01*
X19559925Y-191365255D01*
X19579670Y-191385000D01*
X18760001Y-191385000D01*
X18760001Y-191809986D01*
X18770494Y-191912697D01*
X18825641Y-192079119D01*
X18825643Y-192079124D01*
X18917684Y-192228345D01*
X19041654Y-192352315D01*
X19190875Y-192444356D01*
X19190880Y-192444358D01*
X19357302Y-192499505D01*
X19357309Y-192499506D01*
X19460019Y-192509999D01*
X19609999Y-192509999D01*
X19610000Y-192509998D01*
X19610000Y-191415330D01*
X19629745Y-191435075D01*
X19715255Y-191484444D01*
X19810630Y-191510000D01*
X19909370Y-191510000D01*
X20004745Y-191484444D01*
X20090255Y-191435075D01*
X20110000Y-191415330D01*
X20110000Y-192509999D01*
X20259972Y-192509999D01*
X20259986Y-192509998D01*
X20362697Y-192499505D01*
X20529119Y-192444358D01*
X20529124Y-192444356D01*
X20678345Y-192352315D01*
X20802315Y-192228345D01*
X20841945Y-192164094D01*
X20893893Y-192117368D01*
X20962855Y-192106145D01*
X21026937Y-192133988D01*
X21035166Y-192141508D01*
X21143072Y-192249414D01*
X21283212Y-192351232D01*
X21437555Y-192429873D01*
X21602299Y-192483402D01*
X21773389Y-192510500D01*
X21773390Y-192510500D01*
X21946610Y-192510500D01*
X21946611Y-192510500D01*
X22117701Y-192483402D01*
X22282445Y-192429873D01*
X22436788Y-192351232D01*
X22576928Y-192249414D01*
X22699414Y-192126928D01*
X22759682Y-192043975D01*
X22815012Y-192001311D01*
X22884626Y-191995332D01*
X22946421Y-192027938D01*
X22960315Y-192043973D01*
X23020586Y-192126928D01*
X23143072Y-192249414D01*
X23283212Y-192351232D01*
X23437555Y-192429873D01*
X23602299Y-192483402D01*
X23773389Y-192510500D01*
X23773390Y-192510500D01*
X23946610Y-192510500D01*
X23946611Y-192510500D01*
X24117701Y-192483402D01*
X24282445Y-192429873D01*
X24436788Y-192351232D01*
X24576928Y-192249414D01*
X24699414Y-192126928D01*
X24759682Y-192043975D01*
X24815012Y-192001311D01*
X24884626Y-191995332D01*
X24946421Y-192027938D01*
X24960315Y-192043973D01*
X25020586Y-192126928D01*
X25143072Y-192249414D01*
X25283212Y-192351232D01*
X25437555Y-192429873D01*
X25602299Y-192483402D01*
X25773389Y-192510500D01*
X25773390Y-192510500D01*
X25946610Y-192510500D01*
X25946611Y-192510500D01*
X26117701Y-192483402D01*
X26282445Y-192429873D01*
X26436788Y-192351232D01*
X26576928Y-192249414D01*
X26699414Y-192126928D01*
X26801232Y-191986788D01*
X26879873Y-191832445D01*
X26933402Y-191667701D01*
X26960500Y-191496611D01*
X26960500Y-190773389D01*
X26933402Y-190602299D01*
X26879873Y-190437555D01*
X26801232Y-190283212D01*
X26699414Y-190143072D01*
X26576928Y-190020586D01*
X26436788Y-189918768D01*
X26282445Y-189840127D01*
X26117701Y-189786598D01*
X26117699Y-189786597D01*
X26117698Y-189786597D01*
X25986271Y-189765781D01*
X25946611Y-189759500D01*
X25773389Y-189759500D01*
X25733728Y-189765781D01*
X25602302Y-189786597D01*
X25437552Y-189840128D01*
X25283211Y-189918768D01*
X25203256Y-189976859D01*
X25143072Y-190020586D01*
X25143070Y-190020588D01*
X25143069Y-190020588D01*
X25020588Y-190143069D01*
X25020581Y-190143078D01*
X24960317Y-190226023D01*
X24904987Y-190268689D01*
X24835374Y-190274667D01*
X24773579Y-190242061D01*
X24759683Y-190226023D01*
X24711899Y-190160257D01*
X24699414Y-190143072D01*
X24576928Y-190020586D01*
X24436788Y-189918768D01*
X24282445Y-189840127D01*
X24117701Y-189786598D01*
X24117699Y-189786597D01*
X24117698Y-189786597D01*
X23986271Y-189765781D01*
X23946611Y-189759500D01*
X23773389Y-189759500D01*
X23733728Y-189765781D01*
X23602302Y-189786597D01*
X23437552Y-189840128D01*
X23283211Y-189918768D01*
X23203256Y-189976859D01*
X23143072Y-190020586D01*
X23143070Y-190020588D01*
X23143069Y-190020588D01*
X23020588Y-190143069D01*
X23020581Y-190143078D01*
X22960317Y-190226023D01*
X22904987Y-190268689D01*
X22835374Y-190274667D01*
X22773579Y-190242061D01*
X22759683Y-190226023D01*
X22711899Y-190160257D01*
X22699414Y-190143072D01*
X22576928Y-190020586D01*
X22436788Y-189918768D01*
X22282445Y-189840127D01*
X22117701Y-189786598D01*
X22117699Y-189786597D01*
X22117698Y-189786597D01*
X21986271Y-189765781D01*
X21946611Y-189759500D01*
X21773389Y-189759500D01*
X21733728Y-189765781D01*
X21602302Y-189786597D01*
X21437552Y-189840128D01*
X21283211Y-189918768D01*
X21143073Y-190020585D01*
X21035166Y-190128492D01*
X20973843Y-190161976D01*
X20904151Y-190156992D01*
X20848218Y-190115120D01*
X20841946Y-190105906D01*
X20802317Y-190041656D01*
X20678345Y-189917684D01*
X20529124Y-189825643D01*
X20529119Y-189825641D01*
X20362697Y-189770494D01*
X20362690Y-189770493D01*
X20259986Y-189760000D01*
X20110000Y-189760000D01*
X20110000Y-190854670D01*
X20090255Y-190834925D01*
X20004745Y-190785556D01*
X19909370Y-190760000D01*
X19810630Y-190760000D01*
X19715255Y-190785556D01*
X19629745Y-190834925D01*
X19610000Y-190854670D01*
X19610000Y-189760000D01*
X19460027Y-189760000D01*
X19460012Y-189760001D01*
X19357302Y-189770494D01*
X19190880Y-189825641D01*
X19190875Y-189825643D01*
X19041654Y-189917684D01*
X18917684Y-190041654D01*
X18825643Y-190190875D01*
X18825641Y-190190880D01*
X18770494Y-190357302D01*
X18770493Y-190357309D01*
X18760000Y-190460013D01*
X18760000Y-190885000D01*
X15980500Y-190885000D01*
X15980500Y-188595003D01*
X19260435Y-188595003D01*
X19280630Y-188774249D01*
X19280631Y-188774254D01*
X19340211Y-188944523D01*
X19436184Y-189097262D01*
X19563738Y-189224816D01*
X19716478Y-189320789D01*
X19886745Y-189380368D01*
X19886750Y-189380369D01*
X20065996Y-189400565D01*
X20066000Y-189400565D01*
X20066004Y-189400565D01*
X20245249Y-189380369D01*
X20245252Y-189380368D01*
X20245255Y-189380368D01*
X20415522Y-189320789D01*
X20568262Y-189224816D01*
X20695816Y-189097262D01*
X20791789Y-188944522D01*
X20851368Y-188774255D01*
X20871565Y-188595000D01*
X20862164Y-188511565D01*
X20851369Y-188415750D01*
X20851368Y-188415745D01*
X20791789Y-188245478D01*
X20695816Y-188092738D01*
X20568262Y-187965184D01*
X20415523Y-187869211D01*
X20245254Y-187809631D01*
X20245249Y-187809630D01*
X20066004Y-187789435D01*
X20065996Y-187789435D01*
X19886750Y-187809630D01*
X19886745Y-187809631D01*
X19716476Y-187869211D01*
X19563737Y-187965184D01*
X19436184Y-188092737D01*
X19340211Y-188245476D01*
X19280631Y-188415745D01*
X19280630Y-188415750D01*
X19260435Y-188594996D01*
X19260435Y-188595003D01*
X15980500Y-188595003D01*
X15980500Y-187706003D01*
X23197435Y-187706003D01*
X23217630Y-187885249D01*
X23217631Y-187885254D01*
X23277211Y-188055523D01*
X23300595Y-188092738D01*
X23373184Y-188208262D01*
X23500738Y-188335816D01*
X23653478Y-188431789D01*
X23823745Y-188491368D01*
X23823750Y-188491369D01*
X24002996Y-188511565D01*
X24003000Y-188511565D01*
X24003004Y-188511565D01*
X24182249Y-188491369D01*
X24182252Y-188491368D01*
X24182255Y-188491368D01*
X24352522Y-188431789D01*
X24505262Y-188335816D01*
X24632816Y-188208262D01*
X24728789Y-188055522D01*
X24788368Y-187885255D01*
X24796889Y-187809630D01*
X24808565Y-187706003D01*
X24808565Y-187705996D01*
X24788369Y-187526750D01*
X24788368Y-187526745D01*
X24728788Y-187356476D01*
X24632815Y-187203737D01*
X24505262Y-187076184D01*
X24352523Y-186980211D01*
X24182254Y-186920631D01*
X24182249Y-186920630D01*
X24003004Y-186900435D01*
X24002996Y-186900435D01*
X23823750Y-186920630D01*
X23823745Y-186920631D01*
X23653476Y-186980211D01*
X23500737Y-187076184D01*
X23373184Y-187203737D01*
X23277211Y-187356476D01*
X23217631Y-187526745D01*
X23217630Y-187526750D01*
X23197435Y-187705996D01*
X23197435Y-187706003D01*
X15980500Y-187706003D01*
X15980500Y-182753003D01*
X17609435Y-182753003D01*
X17629630Y-182932249D01*
X17629631Y-182932254D01*
X17689211Y-183102523D01*
X17785184Y-183255262D01*
X17912738Y-183382816D01*
X18065478Y-183478789D01*
X18235745Y-183538368D01*
X18235750Y-183538369D01*
X18414996Y-183558565D01*
X18415000Y-183558565D01*
X18415004Y-183558565D01*
X18594249Y-183538369D01*
X18594252Y-183538368D01*
X18594255Y-183538368D01*
X18764522Y-183478789D01*
X18917262Y-183382816D01*
X19044816Y-183255262D01*
X19140789Y-183102522D01*
X19200368Y-182932255D01*
X19200369Y-182932249D01*
X19220565Y-182753003D01*
X19220565Y-182752996D01*
X19200369Y-182573750D01*
X19200368Y-182573745D01*
X19174215Y-182499003D01*
X26753435Y-182499003D01*
X26773630Y-182678249D01*
X26773631Y-182678254D01*
X26833211Y-182848523D01*
X26885820Y-182932249D01*
X26929184Y-183001262D01*
X27056738Y-183128816D01*
X27209478Y-183224789D01*
X27296565Y-183255262D01*
X27379745Y-183284368D01*
X27379750Y-183284369D01*
X27558996Y-183304565D01*
X27559000Y-183304565D01*
X27559004Y-183304565D01*
X27738249Y-183284369D01*
X27738252Y-183284368D01*
X27738255Y-183284368D01*
X27908522Y-183224789D01*
X28061262Y-183128816D01*
X28188816Y-183001262D01*
X28284789Y-182848522D01*
X28344368Y-182678255D01*
X28356143Y-182573750D01*
X28364565Y-182499003D01*
X28364565Y-182498996D01*
X28344369Y-182319750D01*
X28344368Y-182319745D01*
X28284788Y-182149476D01*
X28188815Y-181996737D01*
X28061262Y-181869184D01*
X27908523Y-181773211D01*
X27738254Y-181713631D01*
X27738249Y-181713630D01*
X27559004Y-181693435D01*
X27558996Y-181693435D01*
X27379750Y-181713630D01*
X27379745Y-181713631D01*
X27209476Y-181773211D01*
X27056737Y-181869184D01*
X26929184Y-181996737D01*
X26833211Y-182149476D01*
X26773631Y-182319745D01*
X26773630Y-182319750D01*
X26753435Y-182498996D01*
X26753435Y-182499003D01*
X19174215Y-182499003D01*
X19140789Y-182403478D01*
X19044816Y-182250738D01*
X18917262Y-182123184D01*
X18764523Y-182027211D01*
X18594254Y-181967631D01*
X18594249Y-181967630D01*
X18415004Y-181947435D01*
X18414996Y-181947435D01*
X18235750Y-181967630D01*
X18235745Y-181967631D01*
X18065476Y-182027211D01*
X17912737Y-182123184D01*
X17785184Y-182250737D01*
X17689211Y-182403476D01*
X17629631Y-182573745D01*
X17629630Y-182573750D01*
X17609435Y-182752996D01*
X17609435Y-182753003D01*
X15980500Y-182753003D01*
X15980500Y-179959003D01*
X21292435Y-179959003D01*
X21312630Y-180138249D01*
X21312631Y-180138254D01*
X21372211Y-180308523D01*
X21468184Y-180461262D01*
X21595738Y-180588816D01*
X21748478Y-180684789D01*
X21918745Y-180744368D01*
X21918750Y-180744369D01*
X22097996Y-180764565D01*
X22098000Y-180764565D01*
X22098004Y-180764565D01*
X22277249Y-180744369D01*
X22277252Y-180744368D01*
X22277255Y-180744368D01*
X22447522Y-180684789D01*
X22600262Y-180588816D01*
X22727816Y-180461262D01*
X22823789Y-180308522D01*
X22883368Y-180138255D01*
X22903565Y-179959000D01*
X22883368Y-179779745D01*
X22823789Y-179609478D01*
X22727816Y-179456738D01*
X22600262Y-179329184D01*
X22447523Y-179233211D01*
X22277254Y-179173631D01*
X22277249Y-179173630D01*
X22098004Y-179153435D01*
X22097996Y-179153435D01*
X21918750Y-179173630D01*
X21918745Y-179173631D01*
X21748476Y-179233211D01*
X21595737Y-179329184D01*
X21468184Y-179456737D01*
X21372211Y-179609476D01*
X21312631Y-179779745D01*
X21312630Y-179779750D01*
X21292435Y-179958996D01*
X21292435Y-179959003D01*
X15980500Y-179959003D01*
X15980500Y-177292003D01*
X16847435Y-177292003D01*
X16867630Y-177471249D01*
X16867631Y-177471254D01*
X16927211Y-177641523D01*
X17023184Y-177794262D01*
X17150738Y-177921816D01*
X17303478Y-178017789D01*
X17444292Y-178067062D01*
X17473745Y-178077368D01*
X17473750Y-178077369D01*
X17652996Y-178097565D01*
X17653000Y-178097565D01*
X17653003Y-178097565D01*
X17795946Y-178081459D01*
X17864768Y-178093513D01*
X17909096Y-178130367D01*
X17923450Y-178149542D01*
X17923452Y-178149544D01*
X17923454Y-178149546D01*
X17923457Y-178149548D01*
X18038664Y-178235793D01*
X18038671Y-178235797D01*
X18173517Y-178286091D01*
X18173516Y-178286091D01*
X18180444Y-178286835D01*
X18233127Y-178292500D01*
X19328872Y-178292499D01*
X19388483Y-178286091D01*
X19523331Y-178235796D01*
X19531379Y-178229770D01*
X19596842Y-178205351D01*
X19660474Y-178218895D01*
X19660645Y-178218483D01*
X19662875Y-178219406D01*
X19664146Y-178219677D01*
X19666273Y-178220814D01*
X19854868Y-178278024D01*
X20051000Y-178297341D01*
X20247132Y-178278024D01*
X20435727Y-178220814D01*
X20437853Y-178219678D01*
X20609532Y-178127913D01*
X20609538Y-178127910D01*
X20761883Y-178002883D01*
X20886910Y-177850538D01*
X20979814Y-177676727D01*
X21037024Y-177488132D01*
X21056341Y-177292000D01*
X21037024Y-177095868D01*
X20979814Y-176907273D01*
X20979811Y-176907269D01*
X20979811Y-176907266D01*
X20886913Y-176733467D01*
X20886909Y-176733460D01*
X20761883Y-176581116D01*
X20609539Y-176456090D01*
X20609532Y-176456086D01*
X20435733Y-176363188D01*
X20435727Y-176363186D01*
X20247132Y-176305976D01*
X20247129Y-176305975D01*
X20051000Y-176286659D01*
X19854870Y-176305975D01*
X19725462Y-176345231D01*
X19666273Y-176363186D01*
X19666272Y-176363186D01*
X19666267Y-176363188D01*
X19664143Y-176364324D01*
X19662898Y-176364583D01*
X19660641Y-176365518D01*
X19660463Y-176365089D01*
X19595740Y-176378564D01*
X19531382Y-176354231D01*
X19523331Y-176348204D01*
X19523328Y-176348202D01*
X19388482Y-176297908D01*
X19388483Y-176297908D01*
X19328883Y-176291501D01*
X19328881Y-176291500D01*
X19328873Y-176291500D01*
X19328864Y-176291500D01*
X18233129Y-176291500D01*
X18233123Y-176291501D01*
X18173516Y-176297908D01*
X18038671Y-176348202D01*
X18038664Y-176348206D01*
X17923456Y-176434451D01*
X17909096Y-176453634D01*
X17853161Y-176495503D01*
X17795948Y-176502540D01*
X17653004Y-176486435D01*
X17652996Y-176486435D01*
X17473750Y-176506630D01*
X17473745Y-176506631D01*
X17303476Y-176566211D01*
X17150737Y-176662184D01*
X17023184Y-176789737D01*
X16927211Y-176942476D01*
X16867631Y-177112745D01*
X16867630Y-177112750D01*
X16847435Y-177291996D01*
X16847435Y-177292003D01*
X15980500Y-177292003D01*
X15980500Y-174571459D01*
X16856400Y-174571459D01*
X16885058Y-174715534D01*
X16885061Y-174715544D01*
X16941278Y-174851266D01*
X16941283Y-174851275D01*
X17022898Y-174973419D01*
X17022901Y-174973423D01*
X17126776Y-175077298D01*
X17126780Y-175077301D01*
X17248924Y-175158916D01*
X17248930Y-175158919D01*
X17248931Y-175158920D01*
X17384658Y-175215140D01*
X17528740Y-175243799D01*
X17528744Y-175243800D01*
X17528745Y-175243800D01*
X17675656Y-175243800D01*
X17675657Y-175243799D01*
X17819742Y-175215140D01*
X17955469Y-175158920D01*
X18077620Y-175077301D01*
X18181501Y-174973420D01*
X18263120Y-174851269D01*
X18319340Y-174715542D01*
X18347999Y-174571459D01*
X18888400Y-174571459D01*
X18917058Y-174715534D01*
X18917061Y-174715544D01*
X18973278Y-174851266D01*
X18973283Y-174851275D01*
X19054898Y-174973419D01*
X19054901Y-174973423D01*
X19158776Y-175077298D01*
X19158780Y-175077301D01*
X19280924Y-175158916D01*
X19280930Y-175158919D01*
X19280931Y-175158920D01*
X19416658Y-175215140D01*
X19560740Y-175243799D01*
X19560744Y-175243800D01*
X19560745Y-175243800D01*
X19707656Y-175243800D01*
X19707657Y-175243799D01*
X19851742Y-175215140D01*
X19987469Y-175158920D01*
X20109620Y-175077301D01*
X20213501Y-174973420D01*
X20295120Y-174851269D01*
X20351340Y-174715542D01*
X20380000Y-174571455D01*
X20380000Y-174424545D01*
X20351340Y-174280458D01*
X20295120Y-174144731D01*
X20295119Y-174144730D01*
X20295116Y-174144724D01*
X20213501Y-174022580D01*
X20213498Y-174022576D01*
X20109623Y-173918701D01*
X20109619Y-173918698D01*
X19987475Y-173837083D01*
X19987466Y-173837078D01*
X19851744Y-173780861D01*
X19851745Y-173780861D01*
X19851742Y-173780860D01*
X19851738Y-173780859D01*
X19851734Y-173780858D01*
X19707659Y-173752200D01*
X19707655Y-173752200D01*
X19560745Y-173752200D01*
X19560740Y-173752200D01*
X19416665Y-173780858D01*
X19416655Y-173780861D01*
X19280933Y-173837078D01*
X19280924Y-173837083D01*
X19158780Y-173918698D01*
X19158776Y-173918701D01*
X19054901Y-174022576D01*
X19054898Y-174022580D01*
X18973283Y-174144724D01*
X18973278Y-174144733D01*
X18917061Y-174280455D01*
X18917058Y-174280465D01*
X18888400Y-174424540D01*
X18888400Y-174571459D01*
X18347999Y-174571459D01*
X18348000Y-174571455D01*
X18348000Y-174424545D01*
X18319340Y-174280458D01*
X18263120Y-174144731D01*
X18263119Y-174144730D01*
X18263116Y-174144724D01*
X18181501Y-174022580D01*
X18181498Y-174022576D01*
X18077623Y-173918701D01*
X18077619Y-173918698D01*
X17955475Y-173837083D01*
X17955466Y-173837078D01*
X17819744Y-173780861D01*
X17819745Y-173780861D01*
X17819742Y-173780860D01*
X17819738Y-173780859D01*
X17819734Y-173780858D01*
X17675659Y-173752200D01*
X17675655Y-173752200D01*
X17528745Y-173752200D01*
X17528740Y-173752200D01*
X17384665Y-173780858D01*
X17384655Y-173780861D01*
X17248933Y-173837078D01*
X17248924Y-173837083D01*
X17126780Y-173918698D01*
X17126776Y-173918701D01*
X17022901Y-174022576D01*
X17022898Y-174022580D01*
X16941283Y-174144724D01*
X16941278Y-174144733D01*
X16885061Y-174280455D01*
X16885058Y-174280465D01*
X16856400Y-174424540D01*
X16856400Y-174571459D01*
X15980500Y-174571459D01*
X15980500Y-173355003D01*
X23070435Y-173355003D01*
X23090630Y-173534249D01*
X23090631Y-173534254D01*
X23150211Y-173704523D01*
X23233503Y-173837080D01*
X23246184Y-173857262D01*
X23373738Y-173984816D01*
X23526478Y-174080789D01*
X23647790Y-174123238D01*
X23704565Y-174163959D01*
X23730313Y-174228911D01*
X23730503Y-174233062D01*
X23751030Y-174415249D01*
X23751031Y-174415254D01*
X23810611Y-174585523D01*
X23892303Y-174715534D01*
X23906584Y-174738262D01*
X24034138Y-174865816D01*
X24186878Y-174961789D01*
X24357145Y-175021368D01*
X24357150Y-175021369D01*
X24536396Y-175041565D01*
X24536400Y-175041565D01*
X24536404Y-175041565D01*
X24715649Y-175021369D01*
X24715652Y-175021368D01*
X24715655Y-175021368D01*
X24759566Y-175006003D01*
X27464635Y-175006003D01*
X27484830Y-175185249D01*
X27484831Y-175185254D01*
X27544411Y-175355523D01*
X27640384Y-175508262D01*
X27767938Y-175635816D01*
X27920678Y-175731789D01*
X28090945Y-175791368D01*
X28090950Y-175791369D01*
X28270196Y-175811565D01*
X28270200Y-175811565D01*
X28270204Y-175811565D01*
X28449449Y-175791369D01*
X28449452Y-175791368D01*
X28449455Y-175791368D01*
X28619722Y-175731789D01*
X28772462Y-175635816D01*
X28900016Y-175508262D01*
X28995989Y-175355522D01*
X29055568Y-175185255D01*
X29058535Y-175158921D01*
X29075765Y-175006003D01*
X29075765Y-175005996D01*
X29055569Y-174826750D01*
X29055568Y-174826745D01*
X29016656Y-174715542D01*
X28995989Y-174656478D01*
X28900016Y-174503738D01*
X28772462Y-174376184D01*
X28619723Y-174280211D01*
X28449454Y-174220631D01*
X28449449Y-174220630D01*
X28270204Y-174200435D01*
X28270196Y-174200435D01*
X28090950Y-174220630D01*
X28090945Y-174220631D01*
X27920676Y-174280211D01*
X27767937Y-174376184D01*
X27640384Y-174503737D01*
X27544411Y-174656476D01*
X27484831Y-174826745D01*
X27484830Y-174826750D01*
X27464635Y-175005996D01*
X27464635Y-175006003D01*
X24759566Y-175006003D01*
X24885922Y-174961789D01*
X25038662Y-174865816D01*
X25166216Y-174738262D01*
X25262189Y-174585522D01*
X25321768Y-174415255D01*
X25321769Y-174415249D01*
X25341965Y-174236003D01*
X25341965Y-174235997D01*
X25334053Y-174165780D01*
X25346107Y-174096958D01*
X25393456Y-174045579D01*
X25443389Y-174028676D01*
X25480912Y-174024448D01*
X25579250Y-174013369D01*
X25579253Y-174013368D01*
X25579255Y-174013368D01*
X25749522Y-173953789D01*
X25902262Y-173857816D01*
X26029816Y-173730262D01*
X26125789Y-173577522D01*
X26185368Y-173407255D01*
X26185369Y-173407249D01*
X26205565Y-173228003D01*
X26205565Y-173227996D01*
X26185369Y-173048750D01*
X26185368Y-173048745D01*
X26170228Y-173005478D01*
X26125789Y-172878478D01*
X26109615Y-172852738D01*
X26035377Y-172734589D01*
X26029816Y-172725738D01*
X25902262Y-172598184D01*
X25856822Y-172569632D01*
X25749523Y-172502211D01*
X25579254Y-172442631D01*
X25579249Y-172442630D01*
X25400004Y-172422435D01*
X25399996Y-172422435D01*
X25220750Y-172442630D01*
X25220745Y-172442631D01*
X25050476Y-172502211D01*
X24897737Y-172598184D01*
X24770184Y-172725737D01*
X24770182Y-172725740D01*
X24701888Y-172834428D01*
X24649553Y-172880719D01*
X24580500Y-172891366D01*
X24516651Y-172862991D01*
X24509214Y-172856136D01*
X24378262Y-172725184D01*
X24225523Y-172629211D01*
X24055254Y-172569631D01*
X24055249Y-172569630D01*
X23876004Y-172549435D01*
X23875996Y-172549435D01*
X23696750Y-172569630D01*
X23696745Y-172569631D01*
X23526476Y-172629211D01*
X23373737Y-172725184D01*
X23246184Y-172852737D01*
X23150211Y-173005476D01*
X23090631Y-173175745D01*
X23090630Y-173175750D01*
X23070435Y-173354996D01*
X23070435Y-173355003D01*
X15980500Y-173355003D01*
X15980500Y-172008803D01*
X16314035Y-172008803D01*
X16334230Y-172188049D01*
X16334231Y-172188054D01*
X16393811Y-172358323D01*
X16484223Y-172502211D01*
X16489784Y-172511062D01*
X16617338Y-172638616D01*
X16707680Y-172695382D01*
X16755991Y-172725738D01*
X16770078Y-172734589D01*
X16940345Y-172794168D01*
X16940350Y-172794169D01*
X17119596Y-172814365D01*
X17119600Y-172814365D01*
X17119604Y-172814365D01*
X17298849Y-172794169D01*
X17298852Y-172794168D01*
X17298855Y-172794168D01*
X17469122Y-172734589D01*
X17621862Y-172638616D01*
X17749416Y-172511062D01*
X17845389Y-172358322D01*
X17904968Y-172188055D01*
X17925165Y-172008800D01*
X17904968Y-171829545D01*
X17845389Y-171659278D01*
X17749416Y-171506538D01*
X17691659Y-171448781D01*
X17658174Y-171387458D01*
X17663158Y-171317766D01*
X17691659Y-171273419D01*
X17717059Y-171248019D01*
X17774816Y-171190262D01*
X17870789Y-171037522D01*
X17930368Y-170867255D01*
X17950565Y-170688000D01*
X17930368Y-170508745D01*
X17870789Y-170338478D01*
X17774816Y-170185738D01*
X17647262Y-170058184D01*
X17494523Y-169962211D01*
X17324254Y-169902631D01*
X17324249Y-169902630D01*
X17145004Y-169882435D01*
X17144996Y-169882435D01*
X16965750Y-169902630D01*
X16965745Y-169902631D01*
X16795476Y-169962211D01*
X16642737Y-170058184D01*
X16515184Y-170185737D01*
X16419211Y-170338476D01*
X16359631Y-170508745D01*
X16359630Y-170508750D01*
X16339435Y-170687996D01*
X16339435Y-170688003D01*
X16359630Y-170867249D01*
X16359631Y-170867254D01*
X16419211Y-171037523D01*
X16515184Y-171190262D01*
X16572941Y-171248019D01*
X16606426Y-171309342D01*
X16601442Y-171379034D01*
X16572941Y-171423381D01*
X16489784Y-171506537D01*
X16393811Y-171659276D01*
X16334231Y-171829545D01*
X16334230Y-171829550D01*
X16314035Y-172008796D01*
X16314035Y-172008803D01*
X15980500Y-172008803D01*
X15980500Y-169491459D01*
X17872400Y-169491459D01*
X17901058Y-169635534D01*
X17901061Y-169635544D01*
X17957278Y-169771266D01*
X17957283Y-169771275D01*
X18038898Y-169893419D01*
X18038901Y-169893423D01*
X18142776Y-169997298D01*
X18142780Y-169997301D01*
X18264924Y-170078916D01*
X18264930Y-170078919D01*
X18264931Y-170078920D01*
X18400658Y-170135140D01*
X18544740Y-170163799D01*
X18544744Y-170163800D01*
X18544745Y-170163800D01*
X18691656Y-170163800D01*
X18691657Y-170163799D01*
X18835742Y-170135140D01*
X18971469Y-170078920D01*
X19093620Y-169997301D01*
X19197501Y-169893420D01*
X19279120Y-169771269D01*
X19335340Y-169635542D01*
X19364000Y-169491455D01*
X19364000Y-169344545D01*
X19335340Y-169200458D01*
X19279120Y-169064731D01*
X19279119Y-169064730D01*
X19279116Y-169064724D01*
X19197501Y-168942580D01*
X19197498Y-168942576D01*
X19093623Y-168838701D01*
X19093619Y-168838698D01*
X18971475Y-168757083D01*
X18971466Y-168757078D01*
X18835744Y-168700861D01*
X18835745Y-168700861D01*
X18835742Y-168700860D01*
X18835738Y-168700859D01*
X18835734Y-168700858D01*
X18691659Y-168672200D01*
X18691655Y-168672200D01*
X18544745Y-168672200D01*
X18544740Y-168672200D01*
X18400665Y-168700858D01*
X18400655Y-168700861D01*
X18264933Y-168757078D01*
X18264924Y-168757083D01*
X18142780Y-168838698D01*
X18142776Y-168838701D01*
X18038901Y-168942576D01*
X18038898Y-168942580D01*
X17957283Y-169064724D01*
X17957278Y-169064733D01*
X17901061Y-169200455D01*
X17901058Y-169200465D01*
X17872400Y-169344540D01*
X17872400Y-169491459D01*
X15980500Y-169491459D01*
X15980500Y-166116003D01*
X17863435Y-166116003D01*
X17883630Y-166295249D01*
X17883631Y-166295254D01*
X17943211Y-166465523D01*
X17963904Y-166498455D01*
X18039184Y-166618262D01*
X18166738Y-166745816D01*
X18319478Y-166841789D01*
X18489745Y-166901368D01*
X18489750Y-166901369D01*
X18668996Y-166921565D01*
X18669000Y-166921565D01*
X18669004Y-166921565D01*
X18848249Y-166901369D01*
X18848252Y-166901368D01*
X18848255Y-166901368D01*
X19018522Y-166841789D01*
X19171262Y-166745816D01*
X19298816Y-166618262D01*
X19394789Y-166465522D01*
X19445988Y-166319203D01*
X23578435Y-166319203D01*
X23598630Y-166498449D01*
X23598631Y-166498454D01*
X23658211Y-166668723D01*
X23706652Y-166745816D01*
X23754184Y-166821462D01*
X23881738Y-166949016D01*
X24034478Y-167044989D01*
X24204745Y-167104568D01*
X24204750Y-167104569D01*
X24383996Y-167124765D01*
X24384000Y-167124765D01*
X24384004Y-167124765D01*
X24563249Y-167104569D01*
X24563252Y-167104568D01*
X24563255Y-167104568D01*
X24733522Y-167044989D01*
X24886262Y-166949016D01*
X25013816Y-166821462D01*
X25109789Y-166668722D01*
X25169368Y-166498455D01*
X25189565Y-166319200D01*
X25186867Y-166295255D01*
X25169369Y-166139950D01*
X25169368Y-166139945D01*
X25109788Y-165969676D01*
X25013815Y-165816937D01*
X24886262Y-165689384D01*
X24733523Y-165593411D01*
X24563254Y-165533831D01*
X24563249Y-165533830D01*
X24384004Y-165513635D01*
X24383996Y-165513635D01*
X24204750Y-165533830D01*
X24204745Y-165533831D01*
X24034476Y-165593411D01*
X23881737Y-165689384D01*
X23754184Y-165816937D01*
X23658211Y-165969676D01*
X23598631Y-166139945D01*
X23598630Y-166139950D01*
X23578435Y-166319196D01*
X23578435Y-166319203D01*
X19445988Y-166319203D01*
X19454368Y-166295255D01*
X19474565Y-166116000D01*
X19458078Y-165969676D01*
X19454369Y-165936750D01*
X19454368Y-165936745D01*
X19394788Y-165766476D01*
X19298815Y-165613737D01*
X19171262Y-165486184D01*
X19018523Y-165390211D01*
X18848254Y-165330631D01*
X18848249Y-165330630D01*
X18669004Y-165310435D01*
X18668996Y-165310435D01*
X18489750Y-165330630D01*
X18489745Y-165330631D01*
X18319476Y-165390211D01*
X18166737Y-165486184D01*
X18039184Y-165613737D01*
X17943211Y-165766476D01*
X17883631Y-165936745D01*
X17883630Y-165936750D01*
X17863435Y-166115996D01*
X17863435Y-166116003D01*
X15980500Y-166116003D01*
X15980500Y-164191611D01*
X20997500Y-164191611D01*
X21024598Y-164362701D01*
X21078127Y-164527445D01*
X21156768Y-164681788D01*
X21258586Y-164821928D01*
X21381072Y-164944414D01*
X21521212Y-165046232D01*
X21675555Y-165124873D01*
X21840299Y-165178402D01*
X22011389Y-165205500D01*
X22011390Y-165205500D01*
X22184610Y-165205500D01*
X22184611Y-165205500D01*
X22355701Y-165178402D01*
X22520445Y-165124873D01*
X22674788Y-165046232D01*
X22814928Y-164944414D01*
X22922472Y-164836869D01*
X22983791Y-164803387D01*
X23053483Y-164808371D01*
X23109417Y-164850242D01*
X23115688Y-164859456D01*
X23155285Y-164923652D01*
X23155288Y-164923656D01*
X23279344Y-165047712D01*
X23428666Y-165139814D01*
X23595203Y-165194999D01*
X23697991Y-165205500D01*
X24498008Y-165205499D01*
X24498016Y-165205498D01*
X24498019Y-165205498D01*
X24554302Y-165199748D01*
X24600797Y-165194999D01*
X24767334Y-165139814D01*
X24916656Y-165047712D01*
X25040712Y-164923656D01*
X25132814Y-164774334D01*
X25187999Y-164607797D01*
X25198500Y-164505009D01*
X25198499Y-163154992D01*
X25187999Y-163052203D01*
X25132814Y-162885666D01*
X25040712Y-162736344D01*
X24916656Y-162612288D01*
X24791559Y-162535128D01*
X24767336Y-162520187D01*
X24767331Y-162520185D01*
X24765862Y-162519698D01*
X24600797Y-162465001D01*
X24600795Y-162465000D01*
X24498010Y-162454500D01*
X23697998Y-162454500D01*
X23697980Y-162454501D01*
X23595203Y-162465000D01*
X23595200Y-162465001D01*
X23428668Y-162520185D01*
X23428663Y-162520187D01*
X23279342Y-162612289D01*
X23155287Y-162736344D01*
X23115688Y-162800544D01*
X23063739Y-162847268D01*
X22994777Y-162858489D01*
X22930695Y-162830645D01*
X22922469Y-162823127D01*
X22814930Y-162715588D01*
X22814928Y-162715586D01*
X22674788Y-162613768D01*
X22520445Y-162535127D01*
X22355701Y-162481598D01*
X22355699Y-162481597D01*
X22355698Y-162481597D01*
X22224271Y-162460781D01*
X22184611Y-162454500D01*
X22011389Y-162454500D01*
X21971728Y-162460781D01*
X21840302Y-162481597D01*
X21675552Y-162535128D01*
X21521211Y-162613768D01*
X21441256Y-162671859D01*
X21381072Y-162715586D01*
X21381070Y-162715588D01*
X21381069Y-162715588D01*
X21258588Y-162838069D01*
X21258588Y-162838070D01*
X21258586Y-162838072D01*
X21251905Y-162847268D01*
X21156768Y-162978211D01*
X21078128Y-163132552D01*
X21024597Y-163297302D01*
X20997500Y-163468389D01*
X20997500Y-164191611D01*
X15980500Y-164191611D01*
X15980500Y-158104500D01*
X16000185Y-158037461D01*
X16052989Y-157991706D01*
X16104500Y-157980500D01*
X29855500Y-157980500D01*
X29922539Y-158000185D01*
G37*
G04 #@! TD.AperFunction*
M02*
