G04 #@! TF.GenerationSoftware,KiCad,Pcbnew,8.0.0-8.0.0-1~ubuntu20.04.1*
G04 #@! TF.CreationDate,2025-04-06T10:38:36+02:00*
G04 #@! TF.ProjectId,sensor-pressure,73656e73-6f72-42d7-9072-657373757265,1*
G04 #@! TF.SameCoordinates,Original*
G04 #@! TF.FileFunction,Copper,L1,Top*
G04 #@! TF.FilePolarity,Positive*
%FSLAX46Y46*%
G04 Gerber Fmt 4.6, Leading zero omitted, Abs format (unit mm)*
G04 Created by KiCad (PCBNEW 8.0.0-8.0.0-1~ubuntu20.04.1) date 2025-04-06 10:38:36*
%MOMM*%
%LPD*%
G01*
G04 APERTURE LIST*
G04 Aperture macros list*
%AMRoundRect*
0 Rectangle with rounded corners*
0 $1 Rounding radius*
0 $2 $3 $4 $5 $6 $7 $8 $9 X,Y pos of 4 corners*
0 Add a 4 corners polygon primitive as box body*
4,1,4,$2,$3,$4,$5,$6,$7,$8,$9,$2,$3,0*
0 Add four circle primitives for the rounded corners*
1,1,$1+$1,$2,$3*
1,1,$1+$1,$4,$5*
1,1,$1+$1,$6,$7*
1,1,$1+$1,$8,$9*
0 Add four rect primitives between the rounded corners*
20,1,$1+$1,$2,$3,$4,$5,0*
20,1,$1+$1,$4,$5,$6,$7,0*
20,1,$1+$1,$6,$7,$8,$9,0*
20,1,$1+$1,$8,$9,$2,$3,0*%
%AMFreePoly0*
4,1,19,0.500000,-0.750000,0.000000,-0.750000,0.000000,-0.744911,-0.071157,-0.744911,-0.207708,-0.704816,-0.327430,-0.627875,-0.420627,-0.520320,-0.479746,-0.390866,-0.500000,-0.250000,-0.500000,0.250000,-0.479746,0.390866,-0.420627,0.520320,-0.327430,0.627875,-0.207708,0.704816,-0.071157,0.744911,0.000000,0.744911,0.000000,0.750000,0.500000,0.750000,0.500000,-0.750000,0.500000,-0.750000,
$1*%
%AMFreePoly1*
4,1,19,0.000000,0.744911,0.071157,0.744911,0.207708,0.704816,0.327430,0.627875,0.420627,0.520320,0.479746,0.390866,0.500000,0.250000,0.500000,-0.250000,0.479746,-0.390866,0.420627,-0.520320,0.327430,-0.627875,0.207708,-0.704816,0.071157,-0.744911,0.000000,-0.744911,0.000000,-0.750000,-0.500000,-0.750000,-0.500000,0.750000,0.000000,0.750000,0.000000,0.744911,0.000000,0.744911,
$1*%
%AMFreePoly2*
4,1,14,0.230680,0.111820,0.364320,-0.021820,0.377500,-0.053640,0.377500,-0.080000,0.364320,-0.111820,0.332500,-0.125000,-0.332500,-0.125000,-0.364320,-0.111820,-0.377500,-0.080000,-0.377500,0.080000,-0.364320,0.111820,-0.332500,0.125000,0.198860,0.125000,0.230680,0.111820,0.230680,0.111820,$1*%
%AMFreePoly3*
4,1,14,0.364320,0.111820,0.377500,0.080000,0.377500,0.053640,0.364320,0.021820,0.230680,-0.111820,0.198860,-0.125000,-0.332500,-0.125000,-0.364320,-0.111820,-0.377500,-0.080000,-0.377500,0.080000,-0.364320,0.111820,-0.332500,0.125000,0.332500,0.125000,0.364320,0.111820,0.364320,0.111820,$1*%
%AMFreePoly4*
4,1,14,0.111820,0.364320,0.125000,0.332500,0.125000,-0.332500,0.111820,-0.364320,0.080000,-0.377500,-0.080000,-0.377500,-0.111820,-0.364320,-0.125000,-0.332500,-0.125000,0.198860,-0.111820,0.230680,0.021820,0.364320,0.053640,0.377500,0.080000,0.377500,0.111820,0.364320,0.111820,0.364320,$1*%
%AMFreePoly5*
4,1,14,-0.021820,0.364320,0.111820,0.230680,0.125000,0.198860,0.125000,-0.332500,0.111820,-0.364320,0.080000,-0.377500,-0.080000,-0.377500,-0.111820,-0.364320,-0.125000,-0.332500,-0.125000,0.332500,-0.111820,0.364320,-0.080000,0.377500,-0.053640,0.377500,-0.021820,0.364320,-0.021820,0.364320,$1*%
%AMFreePoly6*
4,1,14,0.364320,0.111820,0.377500,0.080000,0.377500,-0.080000,0.364320,-0.111820,0.332500,-0.125000,-0.198860,-0.125000,-0.230680,-0.111820,-0.364320,0.021820,-0.377500,0.053640,-0.377500,0.080000,-0.364320,0.111820,-0.332500,0.125000,0.332500,0.125000,0.364320,0.111820,0.364320,0.111820,$1*%
%AMFreePoly7*
4,1,14,0.364320,0.111820,0.377500,0.080000,0.377500,-0.080000,0.364320,-0.111820,0.332500,-0.125000,-0.332500,-0.125000,-0.364320,-0.111820,-0.377500,-0.080000,-0.377500,-0.053640,-0.364320,-0.021820,-0.230680,0.111820,-0.198860,0.125000,0.332500,0.125000,0.364320,0.111820,0.364320,0.111820,$1*%
%AMFreePoly8*
4,1,14,0.111820,0.364320,0.125000,0.332500,0.125000,-0.198860,0.111820,-0.230680,-0.021820,-0.364320,-0.053640,-0.377500,-0.080000,-0.377500,-0.111820,-0.364320,-0.125000,-0.332500,-0.125000,0.332500,-0.111820,0.364320,-0.080000,0.377500,0.080000,0.377500,0.111820,0.364320,0.111820,0.364320,$1*%
%AMFreePoly9*
4,1,14,0.111820,0.364320,0.125000,0.332500,0.125000,-0.332500,0.111820,-0.364320,0.080000,-0.377500,0.053640,-0.377500,0.021820,-0.364320,-0.111820,-0.230680,-0.125000,-0.198860,-0.125000,0.332500,-0.111820,0.364320,-0.080000,0.377500,0.080000,0.377500,0.111820,0.364320,0.111820,0.364320,$1*%
G04 Aperture macros list end*
G04 #@! TA.AperFunction,SMDPad,CuDef*
%ADD10RoundRect,0.140000X0.140000X0.170000X-0.140000X0.170000X-0.140000X-0.170000X0.140000X-0.170000X0*%
G04 #@! TD*
G04 #@! TA.AperFunction,SMDPad,CuDef*
%ADD11RoundRect,0.135000X-0.135000X-0.185000X0.135000X-0.185000X0.135000X0.185000X-0.135000X0.185000X0*%
G04 #@! TD*
G04 #@! TA.AperFunction,ComponentPad*
%ADD12RoundRect,0.250000X-0.350000X-0.625000X0.350000X-0.625000X0.350000X0.625000X-0.350000X0.625000X0*%
G04 #@! TD*
G04 #@! TA.AperFunction,ComponentPad*
%ADD13O,1.200000X1.750000*%
G04 #@! TD*
G04 #@! TA.AperFunction,SMDPad,CuDef*
%ADD14RoundRect,0.140000X-0.170000X0.140000X-0.170000X-0.140000X0.170000X-0.140000X0.170000X0.140000X0*%
G04 #@! TD*
G04 #@! TA.AperFunction,SMDPad,CuDef*
%ADD15RoundRect,0.150000X-0.150000X0.587500X-0.150000X-0.587500X0.150000X-0.587500X0.150000X0.587500X0*%
G04 #@! TD*
G04 #@! TA.AperFunction,ConnectorPad*
%ADD16C,0.787400*%
G04 #@! TD*
G04 #@! TA.AperFunction,SMDPad,CuDef*
%ADD17RoundRect,0.140000X-0.140000X-0.170000X0.140000X-0.170000X0.140000X0.170000X-0.140000X0.170000X0*%
G04 #@! TD*
G04 #@! TA.AperFunction,SMDPad,CuDef*
%ADD18FreePoly0,0.000000*%
G04 #@! TD*
G04 #@! TA.AperFunction,SMDPad,CuDef*
%ADD19FreePoly1,0.000000*%
G04 #@! TD*
G04 #@! TA.AperFunction,SMDPad,CuDef*
%ADD20R,1.700000X1.400000*%
G04 #@! TD*
G04 #@! TA.AperFunction,SMDPad,CuDef*
%ADD21RoundRect,0.218750X-0.218750X-0.381250X0.218750X-0.381250X0.218750X0.381250X-0.218750X0.381250X0*%
G04 #@! TD*
G04 #@! TA.AperFunction,SMDPad,CuDef*
%ADD22R,1.800000X1.000000*%
G04 #@! TD*
G04 #@! TA.AperFunction,SMDPad,CuDef*
%ADD23RoundRect,0.140000X0.170000X-0.140000X0.170000X0.140000X-0.170000X0.140000X-0.170000X-0.140000X0*%
G04 #@! TD*
G04 #@! TA.AperFunction,SMDPad,CuDef*
%ADD24RoundRect,0.135000X-0.185000X0.135000X-0.185000X-0.135000X0.185000X-0.135000X0.185000X0.135000X0*%
G04 #@! TD*
G04 #@! TA.AperFunction,SMDPad,CuDef*
%ADD25RoundRect,0.150000X-0.150000X0.675000X-0.150000X-0.675000X0.150000X-0.675000X0.150000X0.675000X0*%
G04 #@! TD*
G04 #@! TA.AperFunction,SMDPad,CuDef*
%ADD26RoundRect,0.135000X0.135000X0.185000X-0.135000X0.185000X-0.135000X-0.185000X0.135000X-0.185000X0*%
G04 #@! TD*
G04 #@! TA.AperFunction,SMDPad,CuDef*
%ADD27FreePoly2,180.000000*%
G04 #@! TD*
G04 #@! TA.AperFunction,SMDPad,CuDef*
%ADD28RoundRect,0.062500X0.375000X0.062500X-0.375000X0.062500X-0.375000X-0.062500X0.375000X-0.062500X0*%
G04 #@! TD*
G04 #@! TA.AperFunction,SMDPad,CuDef*
%ADD29FreePoly3,180.000000*%
G04 #@! TD*
G04 #@! TA.AperFunction,SMDPad,CuDef*
%ADD30FreePoly4,180.000000*%
G04 #@! TD*
G04 #@! TA.AperFunction,SMDPad,CuDef*
%ADD31RoundRect,0.062500X0.062500X0.375000X-0.062500X0.375000X-0.062500X-0.375000X0.062500X-0.375000X0*%
G04 #@! TD*
G04 #@! TA.AperFunction,SMDPad,CuDef*
%ADD32FreePoly5,180.000000*%
G04 #@! TD*
G04 #@! TA.AperFunction,SMDPad,CuDef*
%ADD33FreePoly6,180.000000*%
G04 #@! TD*
G04 #@! TA.AperFunction,SMDPad,CuDef*
%ADD34FreePoly7,180.000000*%
G04 #@! TD*
G04 #@! TA.AperFunction,SMDPad,CuDef*
%ADD35FreePoly8,180.000000*%
G04 #@! TD*
G04 #@! TA.AperFunction,SMDPad,CuDef*
%ADD36FreePoly9,180.000000*%
G04 #@! TD*
G04 #@! TA.AperFunction,SMDPad,CuDef*
%ADD37RoundRect,0.150000X0.150000X-0.512500X0.150000X0.512500X-0.150000X0.512500X-0.150000X-0.512500X0*%
G04 #@! TD*
G04 #@! TA.AperFunction,ViaPad*
%ADD38C,0.600000*%
G04 #@! TD*
G04 #@! TA.AperFunction,Conductor*
%ADD39C,0.200000*%
G04 #@! TD*
G04 APERTURE END LIST*
D10*
X25750400Y-188518800D03*
X24790400Y-188518800D03*
D11*
X18489200Y-159867600D03*
X19509200Y-159867600D03*
D12*
X19860000Y-191135000D03*
D13*
X21860000Y-191135000D03*
X23860000Y-191135000D03*
X25860000Y-191135000D03*
D14*
X23876000Y-184912000D03*
X23876000Y-185872000D03*
D10*
X21539200Y-159867600D03*
X20579200Y-159867600D03*
D15*
X25969000Y-165172000D03*
X24069000Y-165172000D03*
X25019000Y-167047000D03*
D10*
X25750400Y-187248800D03*
X24790400Y-187248800D03*
D16*
X18796000Y-173609000D03*
X20066000Y-173609000D03*
X18796000Y-174879000D03*
X20066000Y-174879000D03*
X18796000Y-176149000D03*
X20066000Y-176149000D03*
D10*
X20701000Y-168783000D03*
X19741000Y-168783000D03*
D17*
X22001600Y-169976800D03*
X22961600Y-169976800D03*
D18*
X20574000Y-187960000D03*
D19*
X21874000Y-187960000D03*
D14*
X25247600Y-179606000D03*
X25247600Y-180566000D03*
D20*
X27712400Y-157861000D03*
X27712400Y-155321000D03*
X27712400Y-152781000D03*
X18312400Y-152781000D03*
X18312400Y-155321000D03*
X18312400Y-157861000D03*
D21*
X18415000Y-170349000D03*
X20540000Y-170349000D03*
D22*
X27305000Y-179898000D03*
X27305000Y-177398000D03*
D17*
X25273000Y-181610000D03*
X26233000Y-181610000D03*
D23*
X28194000Y-174622400D03*
X28194000Y-173662400D03*
D24*
X18923000Y-187450000D03*
X18923000Y-188470000D03*
D17*
X24130000Y-163533000D03*
X25090000Y-163533000D03*
D25*
X22225000Y-180255000D03*
X20955000Y-180255000D03*
X19685000Y-180255000D03*
X18415000Y-180255000D03*
X18415000Y-185505000D03*
X19685000Y-185505000D03*
X20955000Y-185505000D03*
X22225000Y-185505000D03*
D26*
X23600600Y-159867600D03*
X22580600Y-159867600D03*
D27*
X26508500Y-175236000D03*
D28*
X26448500Y-174736000D03*
X26448500Y-174236000D03*
X26448500Y-173736000D03*
X26448500Y-173236000D03*
X26448500Y-172736000D03*
D29*
X26508500Y-172236000D03*
D30*
X26011000Y-171738500D03*
D31*
X25511000Y-171798500D03*
X25011000Y-171798500D03*
X24511000Y-171798500D03*
X24011000Y-171798500D03*
X23511000Y-171798500D03*
D32*
X23011000Y-171738500D03*
D33*
X22513500Y-172236000D03*
D28*
X22573500Y-172736000D03*
X22573500Y-173236000D03*
X22573500Y-173736000D03*
X22573500Y-174236000D03*
X22573500Y-174736000D03*
D34*
X22513500Y-175236000D03*
D35*
X23011000Y-175733500D03*
D31*
X23511000Y-175673500D03*
X24011000Y-175673500D03*
X24511000Y-175673500D03*
X25011000Y-175673500D03*
X25511000Y-175673500D03*
D36*
X26011000Y-175733500D03*
D11*
X21996400Y-168808400D03*
X23016400Y-168808400D03*
D25*
X22225000Y-161755000D03*
X20955000Y-161755000D03*
X19685000Y-161755000D03*
X18415000Y-161755000D03*
X18415000Y-167005000D03*
X19685000Y-167005000D03*
X20955000Y-167005000D03*
X22225000Y-167005000D03*
D37*
X25659000Y-185414500D03*
X26609000Y-185414500D03*
X27559000Y-185414500D03*
X27559000Y-183139500D03*
X25659000Y-183139500D03*
D14*
X25247600Y-177675600D03*
X25247600Y-178635600D03*
D38*
X26720800Y-186791600D03*
X27025600Y-181610000D03*
X26009600Y-155346400D03*
X25044400Y-168249600D03*
X20929600Y-163068000D03*
X17907000Y-176149000D03*
X23825200Y-187096400D03*
X18923000Y-168783000D03*
X23906600Y-170011000D03*
X27330400Y-173583600D03*
X26060400Y-163525200D03*
X24485600Y-179120800D03*
X19710400Y-155295600D03*
X23317200Y-162610800D03*
X17653000Y-170434000D03*
X20955000Y-165608000D03*
X28289051Y-175381071D03*
X24384000Y-181610000D03*
X23876000Y-184023000D03*
X17907000Y-173609000D03*
X25400000Y-173355000D03*
X17907000Y-174879000D03*
X27432000Y-171411997D03*
X19685000Y-165608000D03*
X27432000Y-172212000D03*
X18415000Y-165608000D03*
D39*
X23825200Y-187096400D02*
X23825200Y-185922800D01*
X17907000Y-176149000D02*
X18796000Y-176149000D01*
X27178000Y-173736000D02*
X27330400Y-173583600D01*
X22995800Y-170011000D02*
X22961600Y-169976800D01*
X26060400Y-163525200D02*
X25224800Y-163525200D01*
X27330400Y-173583600D02*
X27381200Y-173634400D01*
X27381200Y-173634400D02*
X27966600Y-173634400D01*
X25044400Y-167072400D02*
X25019000Y-167047000D01*
X23825200Y-187096400D02*
X24638000Y-187096400D01*
X26009600Y-155346400D02*
X27687000Y-155346400D01*
X24638000Y-187096400D02*
X24790400Y-187248800D01*
X26448500Y-173736000D02*
X27178000Y-173736000D01*
X20929600Y-163068000D02*
X20929600Y-161780400D01*
X24800400Y-188528800D02*
X24790400Y-188518800D01*
X24485600Y-179120800D02*
X24762400Y-179120800D01*
X24762400Y-179120800D02*
X25247600Y-178635600D01*
X26609000Y-186679800D02*
X26609000Y-185414500D01*
X27025600Y-181610000D02*
X26233000Y-181610000D01*
X23825200Y-185922800D02*
X23876000Y-185872000D01*
X18923000Y-168783000D02*
X19741000Y-168783000D01*
X25224800Y-163525200D02*
X25217000Y-163533000D01*
X24790400Y-188518800D02*
X24790400Y-187248800D01*
X27687000Y-155346400D02*
X27712400Y-155321000D01*
X24970800Y-179606000D02*
X24485600Y-179120800D01*
X25044400Y-168249600D02*
X25044400Y-167072400D01*
X26720800Y-186791600D02*
X26609000Y-186679800D01*
X23906600Y-170011000D02*
X22995800Y-170011000D01*
X20929600Y-161780400D02*
X20955000Y-161755000D01*
X25247600Y-179606000D02*
X24970800Y-179606000D01*
X19710400Y-155295600D02*
X18337800Y-155295600D01*
X23016400Y-166224600D02*
X24069000Y-165172000D01*
X23334800Y-162610800D02*
X23317200Y-162610800D01*
X24069000Y-165093500D02*
X25969000Y-165093500D01*
X22479000Y-161755000D02*
X22225000Y-161755000D01*
X23317200Y-162610800D02*
X23317200Y-162593200D01*
X23317200Y-162593200D02*
X22479000Y-161755000D01*
X18337800Y-155295600D02*
X18312400Y-155321000D01*
X24257000Y-163533000D02*
X23334800Y-162610800D01*
X24069000Y-163594000D02*
X24257000Y-163406000D01*
X24069000Y-165172000D02*
X24069000Y-163594000D01*
X23016400Y-168808400D02*
X23016400Y-166224600D01*
X18415000Y-161755000D02*
X18415000Y-160961800D01*
X20579200Y-159867600D02*
X19509200Y-159867600D01*
X18415000Y-160961800D02*
X19509200Y-159867600D01*
X22047200Y-159867600D02*
X21945600Y-159867600D01*
X21945600Y-159867600D02*
X21437600Y-159867600D01*
X19685000Y-160930001D02*
X19985401Y-160629600D01*
X22580600Y-159867600D02*
X22047200Y-159867600D01*
X22047200Y-160223200D02*
X22047200Y-159867600D01*
X19685000Y-161755000D02*
X19685000Y-160930001D01*
X21640800Y-160629600D02*
X22047200Y-160223200D01*
X19985401Y-160629600D02*
X21640800Y-160629600D01*
X22818000Y-184912000D02*
X22225000Y-185505000D01*
X25273000Y-182753500D02*
X25273000Y-181610000D01*
X24384000Y-181610000D02*
X25273000Y-181610000D01*
X28289051Y-174716051D02*
X28067000Y-174494000D01*
X23876000Y-184023000D02*
X23876000Y-184912000D01*
X23886500Y-184912000D02*
X25659000Y-183139500D01*
X20955000Y-165608000D02*
X20955000Y-167005000D01*
X23876000Y-184912000D02*
X23886500Y-184912000D01*
X17653000Y-170434000D02*
X18330000Y-170434000D01*
X20701000Y-168783000D02*
X20955000Y-168529000D01*
X28289051Y-175381071D02*
X28289051Y-174716051D01*
X17907000Y-173609000D02*
X18796000Y-173609000D01*
X18330000Y-170434000D02*
X18415000Y-170349000D01*
X20955000Y-168529000D02*
X20955000Y-167005000D01*
X23876000Y-184912000D02*
X22818000Y-184912000D01*
X25659000Y-183139500D02*
X25273000Y-182753500D01*
X27734000Y-174236000D02*
X28143200Y-174645200D01*
X26448500Y-174236000D02*
X27734000Y-174236000D01*
X20912200Y-169976800D02*
X20540000Y-170349000D01*
X22001600Y-167228400D02*
X22225000Y-167005000D01*
X21971000Y-168954000D02*
X21969000Y-168952000D01*
X22001600Y-169976800D02*
X20912200Y-169976800D01*
X22001600Y-169976800D02*
X22001600Y-167228400D01*
X25750400Y-187248800D02*
X25750400Y-185505900D01*
X25750400Y-185505900D02*
X25659000Y-185414500D01*
X25750400Y-188518800D02*
X25750400Y-187248800D01*
X25860000Y-188628400D02*
X25750400Y-188518800D01*
X25659000Y-185414500D02*
X25659000Y-185061448D01*
X25659000Y-185061448D02*
X26268448Y-184452000D01*
X27104000Y-184452000D02*
X27559000Y-184907000D01*
X27559000Y-184907000D02*
X27559000Y-185414500D01*
X25860000Y-191135000D02*
X25860000Y-188628400D01*
X26268448Y-184452000D02*
X27104000Y-184452000D01*
X25525200Y-177398000D02*
X27305000Y-177398000D01*
X27110000Y-177203000D02*
X27305000Y-177398000D01*
X27305000Y-176032500D02*
X26508500Y-175236000D01*
X27305000Y-177398000D02*
X27305000Y-176032500D01*
X27107000Y-177200000D02*
X27305000Y-177398000D01*
X25247600Y-177675600D02*
X25525200Y-177398000D01*
X28505000Y-178698000D02*
X28505000Y-176318494D01*
X27705000Y-176295000D02*
X27705000Y-175518494D01*
X28505000Y-176318494D02*
X27728494Y-176318494D01*
X27705000Y-175518494D02*
X26922506Y-174736000D01*
X25247600Y-180566000D02*
X26637000Y-180566000D01*
X27305000Y-179898000D02*
X28505000Y-178698000D01*
X27728494Y-176318494D02*
X27705000Y-176295000D01*
X26637000Y-180566000D02*
X27305000Y-179898000D01*
X26922506Y-174736000D02*
X26448500Y-174736000D01*
X18744076Y-189230000D02*
X18161000Y-188646924D01*
X18544000Y-187450000D02*
X18923000Y-187450000D01*
X18161000Y-188646924D02*
X18161000Y-187833000D01*
X21860000Y-191135000D02*
X19955000Y-189230000D01*
X19685000Y-186688000D02*
X19685000Y-185505000D01*
X18923000Y-187450000D02*
X19685000Y-186688000D01*
X18161000Y-187833000D02*
X18544000Y-187450000D01*
X19955000Y-189230000D02*
X18744076Y-189230000D01*
X23860000Y-189946000D02*
X21874000Y-187960000D01*
X23860000Y-191135000D02*
X23860000Y-189946000D01*
X21874000Y-187205000D02*
X20955000Y-186286000D01*
X21874000Y-187960000D02*
X21874000Y-187205000D01*
X20955000Y-186286000D02*
X20955000Y-185505000D01*
X25519000Y-173236000D02*
X26448500Y-173236000D01*
X17907000Y-174879000D02*
X18796000Y-174879000D01*
X25400000Y-173355000D02*
X25519000Y-173236000D01*
X21193000Y-174736000D02*
X22573500Y-174736000D01*
X20066000Y-173609000D02*
X21193000Y-174736000D01*
X20423000Y-175236000D02*
X22513500Y-175236000D01*
X20066000Y-174879000D02*
X20423000Y-175236000D01*
X23600600Y-157882400D02*
X23622000Y-157861000D01*
X27712400Y-157861000D02*
X23622000Y-157861000D01*
X23600600Y-159867600D02*
X23600600Y-157882400D01*
X23346600Y-157882400D02*
X23325200Y-157861000D01*
X23600600Y-157882400D02*
X23346600Y-157882400D01*
X23325200Y-157861000D02*
X18312400Y-157861000D01*
X18489200Y-159867600D02*
X17983200Y-159867600D01*
X17068800Y-154024600D02*
X18312400Y-152781000D01*
X17983200Y-159867600D02*
X17068800Y-158953200D01*
X17068800Y-158953200D02*
X17068800Y-154024600D01*
X27071003Y-171051000D02*
X25784494Y-171051000D01*
X25784494Y-171051000D02*
X25511000Y-171324494D01*
X25511000Y-171324494D02*
X25511000Y-171798500D01*
X19685000Y-165608000D02*
X19685000Y-167005000D01*
X27432000Y-171411997D02*
X27071003Y-171051000D01*
X27408000Y-172236000D02*
X27432000Y-172212000D01*
X26508500Y-172236000D02*
X27408000Y-172236000D01*
X18415000Y-165608000D02*
X18415000Y-167005000D01*
X18415000Y-180255000D02*
X18415000Y-179437724D01*
X25011000Y-176341072D02*
X25011000Y-175673500D01*
X19017724Y-178835000D02*
X22517071Y-178835000D01*
X18415000Y-179437724D02*
X19017724Y-178835000D01*
X22517071Y-178835000D02*
X25011000Y-176341072D01*
X22225000Y-179762066D02*
X25511000Y-176476066D01*
X25511000Y-176476066D02*
X25511000Y-175673500D01*
X22225000Y-180255000D02*
X22225000Y-179762066D01*
X20955000Y-180255000D02*
X19685000Y-180255000D01*
X19069999Y-181695000D02*
X18389448Y-181695000D01*
X19685000Y-180255000D02*
X19685000Y-181079999D01*
X19685000Y-181079999D02*
X19069999Y-181695000D01*
X17815000Y-179389448D02*
X18769448Y-178435000D01*
X18389448Y-181695000D02*
X17815000Y-181120552D01*
X17815000Y-181120552D02*
X17815000Y-179389448D01*
X18769448Y-178435000D02*
X22351386Y-178435000D01*
X24511000Y-176275386D02*
X24511000Y-175673500D01*
X22351386Y-178435000D02*
X24511000Y-176275386D01*
X20064000Y-188470000D02*
X20574000Y-187960000D01*
X18923000Y-188470000D02*
X20064000Y-188470000D01*
G04 #@! TA.AperFunction,Conductor*
G36*
X24069039Y-185712185D02*
G01*
X24114794Y-185764989D01*
X24126000Y-185816500D01*
X24126000Y-186674323D01*
X24108732Y-186737444D01*
X24058368Y-186822604D01*
X24058366Y-186822609D01*
X24013255Y-186977881D01*
X24013254Y-186977887D01*
X24011609Y-186998799D01*
X24011610Y-186998800D01*
X24540400Y-186998800D01*
X24540400Y-186467202D01*
X24557668Y-186404080D01*
X24638032Y-186268192D01*
X24665303Y-186174323D01*
X24702909Y-186115437D01*
X24766381Y-186086230D01*
X24835568Y-186095975D01*
X24888503Y-186141579D01*
X24903456Y-186174320D01*
X24907255Y-186187396D01*
X24990917Y-186328862D01*
X24990923Y-186328870D01*
X25004081Y-186342028D01*
X25037566Y-186403351D01*
X25040400Y-186429709D01*
X25040400Y-186750445D01*
X25023134Y-186813563D01*
X25017907Y-186822400D01*
X25017904Y-186822408D01*
X24972757Y-186977802D01*
X24972756Y-186977808D01*
X24969900Y-187014102D01*
X24969900Y-187483497D01*
X24972756Y-187519791D01*
X24972757Y-187519797D01*
X25017903Y-187675189D01*
X25017905Y-187675193D01*
X25017906Y-187675195D01*
X25023132Y-187684033D01*
X25040400Y-187747152D01*
X25040400Y-188020445D01*
X25023134Y-188083563D01*
X25017907Y-188092400D01*
X25017904Y-188092408D01*
X24972757Y-188247802D01*
X24972756Y-188247808D01*
X24969900Y-188284102D01*
X24969900Y-188753497D01*
X24972756Y-188789791D01*
X24972757Y-188789797D01*
X25017903Y-188945189D01*
X25017905Y-188945193D01*
X25017906Y-188945195D01*
X25023132Y-188954033D01*
X25040400Y-189017152D01*
X25040400Y-189323303D01*
X25100906Y-189305726D01*
X25170775Y-189305926D01*
X25229445Y-189343869D01*
X25258288Y-189407507D01*
X25259500Y-189424803D01*
X25259500Y-189872814D01*
X25239815Y-189939853D01*
X25208387Y-189973131D01*
X25143072Y-190020585D01*
X25020588Y-190143069D01*
X25020581Y-190143078D01*
X24960317Y-190226023D01*
X24904987Y-190268689D01*
X24835374Y-190274667D01*
X24773579Y-190242061D01*
X24759683Y-190226023D01*
X24699418Y-190143078D01*
X24699415Y-190143074D01*
X24699414Y-190143072D01*
X24576928Y-190020586D01*
X24511613Y-189973131D01*
X24468948Y-189917801D01*
X24460500Y-189872814D01*
X24460500Y-189866945D01*
X24460500Y-189866943D01*
X24419577Y-189714216D01*
X24419577Y-189714215D01*
X24419577Y-189714214D01*
X24390639Y-189664095D01*
X24390637Y-189664092D01*
X24352893Y-189598716D01*
X24340520Y-189577284D01*
X24231357Y-189468121D01*
X24197873Y-189406798D01*
X24202857Y-189337106D01*
X24244729Y-189281173D01*
X24310193Y-189256756D01*
X24378466Y-189271608D01*
X24382162Y-189273709D01*
X24394205Y-189280831D01*
X24540400Y-189323304D01*
X24540400Y-188768800D01*
X24011610Y-188768800D01*
X24013254Y-188789710D01*
X24058368Y-188944995D01*
X24058369Y-188944997D01*
X24065494Y-188957045D01*
X24082675Y-189024769D01*
X24060515Y-189091031D01*
X24006048Y-189134793D01*
X23936568Y-189142162D01*
X23874134Y-189110797D01*
X23871080Y-189107845D01*
X23032034Y-188268799D01*
X24011609Y-188268799D01*
X24011610Y-188268800D01*
X24540400Y-188268800D01*
X24540400Y-187498800D01*
X24011610Y-187498800D01*
X24013254Y-187519710D01*
X24058368Y-187674995D01*
X24144525Y-187820679D01*
X24161708Y-187888403D01*
X24144525Y-187946921D01*
X24058368Y-188092604D01*
X24058366Y-188092609D01*
X24013255Y-188247881D01*
X24013254Y-188247887D01*
X24011609Y-188268799D01*
X23032034Y-188268799D01*
X22915819Y-188152584D01*
X22882334Y-188091261D01*
X22879500Y-188064903D01*
X22879500Y-187694426D01*
X22879497Y-187694399D01*
X22879497Y-187638060D01*
X22879497Y-187638059D01*
X22859474Y-187498800D01*
X22859035Y-187495744D01*
X22855437Y-187483490D01*
X22818498Y-187357691D01*
X22816118Y-187352480D01*
X22758776Y-187226918D01*
X22758773Y-187226914D01*
X22758770Y-187226906D01*
X22680986Y-187105870D01*
X22680985Y-187105869D01*
X22680984Y-187105867D01*
X22680981Y-187105863D01*
X22586847Y-186997226D01*
X22586830Y-186997207D01*
X22586814Y-186997193D01*
X22585013Y-186995632D01*
X22547237Y-186936855D01*
X22547236Y-186866985D01*
X22585010Y-186808206D01*
X22631622Y-186782840D01*
X22635398Y-186781744D01*
X22776865Y-186698081D01*
X22893081Y-186581865D01*
X22976744Y-186440398D01*
X22976745Y-186440391D01*
X22979844Y-186433235D01*
X22982030Y-186434181D01*
X23013243Y-186385295D01*
X23076712Y-186356081D01*
X23145900Y-186365819D01*
X23192705Y-186402768D01*
X23196282Y-186407380D01*
X23310616Y-186521714D01*
X23310625Y-186521721D01*
X23449804Y-186604031D01*
X23605089Y-186649145D01*
X23626000Y-186650789D01*
X23626000Y-185816500D01*
X23645685Y-185749461D01*
X23698489Y-185703706D01*
X23750000Y-185692500D01*
X24002000Y-185692500D01*
X24069039Y-185712185D01*
G37*
G04 #@! TD.AperFunction*
G04 #@! TA.AperFunction,Conductor*
G36*
X29922539Y-150380185D02*
G01*
X29968294Y-150432989D01*
X29979500Y-150484500D01*
X29979500Y-196735500D01*
X29959815Y-196802539D01*
X29907011Y-196848294D01*
X29855500Y-196859500D01*
X16104500Y-196859500D01*
X16037461Y-196839815D01*
X15991706Y-196787011D01*
X15980500Y-196735500D01*
X15980500Y-185255000D01*
X17615000Y-185255000D01*
X18165000Y-185255000D01*
X18165000Y-184182703D01*
X18162503Y-184182900D01*
X18004806Y-184228716D01*
X18004803Y-184228717D01*
X17863447Y-184312314D01*
X17863438Y-184312321D01*
X17747321Y-184428438D01*
X17747314Y-184428447D01*
X17663717Y-184569803D01*
X17663716Y-184569806D01*
X17617900Y-184727504D01*
X17617899Y-184727510D01*
X17615000Y-184764350D01*
X17615000Y-185255000D01*
X15980500Y-185255000D01*
X15980500Y-159032254D01*
X16468298Y-159032254D01*
X16509223Y-159184985D01*
X16538158Y-159235100D01*
X16538159Y-159235104D01*
X16538160Y-159235104D01*
X16567362Y-159285685D01*
X16588279Y-159321914D01*
X16588281Y-159321917D01*
X16707149Y-159440785D01*
X16707155Y-159440790D01*
X17498339Y-160231974D01*
X17498349Y-160231985D01*
X17502679Y-160236315D01*
X17502680Y-160236316D01*
X17614484Y-160348120D01*
X17700559Y-160397815D01*
X17700560Y-160397816D01*
X17751405Y-160427172D01*
X17751409Y-160427173D01*
X17751415Y-160427177D01*
X17751420Y-160427178D01*
X17754225Y-160428340D01*
X17756241Y-160429964D01*
X17758454Y-160431242D01*
X17758254Y-160431586D01*
X17808633Y-160472176D01*
X17830705Y-160538467D01*
X17813432Y-160606169D01*
X17794466Y-160630586D01*
X17746924Y-160678128D01*
X17746917Y-160678137D01*
X17663255Y-160819603D01*
X17663254Y-160819606D01*
X17617402Y-160977426D01*
X17617401Y-160977432D01*
X17614500Y-161014298D01*
X17614500Y-162495701D01*
X17617401Y-162532567D01*
X17617402Y-162532573D01*
X17663254Y-162690393D01*
X17663255Y-162690396D01*
X17746917Y-162831862D01*
X17746923Y-162831870D01*
X17863129Y-162948076D01*
X17863133Y-162948079D01*
X17863135Y-162948081D01*
X18004602Y-163031744D01*
X18046224Y-163043836D01*
X18162426Y-163077597D01*
X18162429Y-163077597D01*
X18162431Y-163077598D01*
X18199306Y-163080500D01*
X18199314Y-163080500D01*
X18630686Y-163080500D01*
X18630694Y-163080500D01*
X18667569Y-163077598D01*
X18667571Y-163077597D01*
X18667573Y-163077597D01*
X18736326Y-163057622D01*
X18825398Y-163031744D01*
X18966865Y-162948081D01*
X18966870Y-162948075D01*
X18973031Y-162943298D01*
X18974933Y-162945750D01*
X19023579Y-162919155D01*
X19093274Y-162924104D01*
X19125695Y-162944940D01*
X19126969Y-162943298D01*
X19133132Y-162948078D01*
X19133135Y-162948081D01*
X19274602Y-163031744D01*
X19316224Y-163043836D01*
X19432426Y-163077597D01*
X19432429Y-163077597D01*
X19432431Y-163077598D01*
X19469306Y-163080500D01*
X19469314Y-163080500D01*
X19900686Y-163080500D01*
X19900694Y-163080500D01*
X19937569Y-163077598D01*
X19937571Y-163077597D01*
X19937573Y-163077597D01*
X20006326Y-163057622D01*
X20095398Y-163031744D01*
X20236865Y-162948081D01*
X20236870Y-162948076D01*
X20243026Y-162943301D01*
X20244839Y-162945638D01*
X20293949Y-162918798D01*
X20363643Y-162923756D01*
X20395996Y-162944551D01*
X20397278Y-162942900D01*
X20403447Y-162947685D01*
X20544801Y-163031281D01*
X20702514Y-163077100D01*
X20702511Y-163077100D01*
X20704998Y-163077295D01*
X20705000Y-163077295D01*
X20705000Y-161629000D01*
X20724685Y-161561961D01*
X20777489Y-161516206D01*
X20829000Y-161505000D01*
X21081000Y-161505000D01*
X21148039Y-161524685D01*
X21193794Y-161577489D01*
X21205000Y-161629000D01*
X21205000Y-163077295D01*
X21205001Y-163077295D01*
X21207486Y-163077100D01*
X21365198Y-163031281D01*
X21506550Y-162947686D01*
X21512717Y-162942903D01*
X21514630Y-162945369D01*
X21563222Y-162918802D01*
X21632917Y-162923749D01*
X21665762Y-162944853D01*
X21666969Y-162943298D01*
X21673132Y-162948078D01*
X21673135Y-162948081D01*
X21814602Y-163031744D01*
X21856224Y-163043836D01*
X21972426Y-163077597D01*
X21972429Y-163077597D01*
X21972431Y-163077598D01*
X22009306Y-163080500D01*
X22009314Y-163080500D01*
X22440686Y-163080500D01*
X22440694Y-163080500D01*
X22477569Y-163077598D01*
X22477571Y-163077597D01*
X22477573Y-163077597D01*
X22546327Y-163057622D01*
X22616196Y-163057821D01*
X22674866Y-163095763D01*
X22685913Y-163110722D01*
X22687380Y-163113057D01*
X22687384Y-163113062D01*
X22814938Y-163240616D01*
X22967678Y-163336589D01*
X23137945Y-163396168D01*
X23137950Y-163396169D01*
X23239382Y-163407597D01*
X23303797Y-163434663D01*
X23343352Y-163492257D01*
X23349500Y-163530817D01*
X23349500Y-163767697D01*
X23352356Y-163803991D01*
X23352357Y-163803997D01*
X23397504Y-163959390D01*
X23397505Y-163959393D01*
X23432773Y-164019028D01*
X23449956Y-164086752D01*
X23427796Y-164153014D01*
X23413725Y-164169828D01*
X23400921Y-164182632D01*
X23400917Y-164182637D01*
X23317255Y-164324103D01*
X23317254Y-164324106D01*
X23271402Y-164481926D01*
X23271401Y-164481932D01*
X23268500Y-164518798D01*
X23268500Y-165071902D01*
X23248815Y-165138941D01*
X23232181Y-165159583D01*
X22709034Y-165682729D01*
X22647711Y-165716214D01*
X22586758Y-165714124D01*
X22477573Y-165682402D01*
X22477567Y-165682401D01*
X22440701Y-165679500D01*
X22440694Y-165679500D01*
X22009306Y-165679500D01*
X22009298Y-165679500D01*
X21972432Y-165682401D01*
X21972426Y-165682402D01*
X21916734Y-165698583D01*
X21846864Y-165698384D01*
X21788194Y-165660442D01*
X21759351Y-165596803D01*
X21758919Y-165593390D01*
X21740369Y-165428750D01*
X21740368Y-165428745D01*
X21680788Y-165258476D01*
X21595829Y-165123265D01*
X21584816Y-165105738D01*
X21457262Y-164978184D01*
X21304523Y-164882211D01*
X21134254Y-164822631D01*
X21134249Y-164822630D01*
X20955004Y-164802435D01*
X20954996Y-164802435D01*
X20775750Y-164822630D01*
X20775745Y-164822631D01*
X20605476Y-164882211D01*
X20452737Y-164978184D01*
X20407680Y-165023241D01*
X20346357Y-165056725D01*
X20276665Y-165051740D01*
X20232320Y-165023241D01*
X20187263Y-164978185D01*
X20187262Y-164978184D01*
X20034523Y-164882211D01*
X19864254Y-164822631D01*
X19864249Y-164822630D01*
X19685004Y-164802435D01*
X19684996Y-164802435D01*
X19505750Y-164822630D01*
X19505745Y-164822631D01*
X19335476Y-164882211D01*
X19182737Y-164978184D01*
X19137680Y-165023241D01*
X19076357Y-165056725D01*
X19006665Y-165051740D01*
X18962320Y-165023241D01*
X18917263Y-164978185D01*
X18917262Y-164978184D01*
X18764523Y-164882211D01*
X18594254Y-164822631D01*
X18594249Y-164822630D01*
X18415004Y-164802435D01*
X18414996Y-164802435D01*
X18235750Y-164822630D01*
X18235745Y-164822631D01*
X18065476Y-164882211D01*
X17912737Y-164978184D01*
X17785184Y-165105737D01*
X17689211Y-165258476D01*
X17629631Y-165428745D01*
X17629630Y-165428750D01*
X17609435Y-165607996D01*
X17609435Y-165608003D01*
X17629630Y-165787249D01*
X17629632Y-165787257D01*
X17685154Y-165945931D01*
X17688715Y-166015710D01*
X17674846Y-166050002D01*
X17663257Y-166069599D01*
X17663254Y-166069606D01*
X17617402Y-166227426D01*
X17617401Y-166227432D01*
X17614500Y-166264298D01*
X17614500Y-167745701D01*
X17617401Y-167782567D01*
X17617402Y-167782573D01*
X17663254Y-167940393D01*
X17663255Y-167940396D01*
X17746917Y-168081862D01*
X17746923Y-168081870D01*
X17863129Y-168198076D01*
X17863133Y-168198079D01*
X17863135Y-168198081D01*
X18004602Y-168281744D01*
X18004778Y-168281795D01*
X18162426Y-168327597D01*
X18162429Y-168327597D01*
X18162431Y-168327598D01*
X18199306Y-168330500D01*
X18199314Y-168330500D01*
X18630686Y-168330500D01*
X18630694Y-168330500D01*
X18667569Y-168327598D01*
X18667571Y-168327597D01*
X18667573Y-168327597D01*
X18832890Y-168279568D01*
X18833859Y-168282906D01*
X18887405Y-168276117D01*
X18950468Y-168306198D01*
X18987257Y-168365598D01*
X18986791Y-168433138D01*
X18963854Y-168512087D01*
X18962209Y-168532999D01*
X18962210Y-168533000D01*
X19796500Y-168533000D01*
X19863539Y-168552685D01*
X19909294Y-168605489D01*
X19920500Y-168657000D01*
X19920500Y-168909000D01*
X19900815Y-168976039D01*
X19848011Y-169021794D01*
X19796500Y-169033000D01*
X18962210Y-169033000D01*
X18963854Y-169053910D01*
X18983410Y-169121223D01*
X18983209Y-169191093D01*
X18945267Y-169249762D01*
X18881628Y-169278605D01*
X18825330Y-169273523D01*
X18780187Y-169258564D01*
X18780183Y-169258563D01*
X18681681Y-169248500D01*
X18681674Y-169248500D01*
X18148326Y-169248500D01*
X18148318Y-169248500D01*
X18049816Y-169258563D01*
X18049815Y-169258564D01*
X17970719Y-169284773D01*
X17890215Y-169311450D01*
X17890204Y-169311455D01*
X17747112Y-169399716D01*
X17628216Y-169518611D01*
X17585247Y-169588273D01*
X17533299Y-169634996D01*
X17493597Y-169646394D01*
X17473750Y-169648630D01*
X17303478Y-169708210D01*
X17150737Y-169804184D01*
X17023184Y-169931737D01*
X16927211Y-170084476D01*
X16867631Y-170254745D01*
X16867630Y-170254750D01*
X16847435Y-170433996D01*
X16847435Y-170434003D01*
X16867630Y-170613249D01*
X16867631Y-170613254D01*
X16927211Y-170783523D01*
X16984684Y-170874990D01*
X17023184Y-170936262D01*
X17150738Y-171063816D01*
X17303478Y-171159789D01*
X17454255Y-171212548D01*
X17473745Y-171219368D01*
X17473750Y-171219369D01*
X17621191Y-171235981D01*
X17649770Y-171239201D01*
X17714184Y-171266267D01*
X17723568Y-171274740D01*
X17747108Y-171298280D01*
X17747112Y-171298283D01*
X17890204Y-171386544D01*
X17890207Y-171386545D01*
X17890213Y-171386549D01*
X18049815Y-171439436D01*
X18148326Y-171449500D01*
X18148331Y-171449500D01*
X18681669Y-171449500D01*
X18681674Y-171449500D01*
X18780185Y-171439436D01*
X18939787Y-171386549D01*
X19082891Y-171298281D01*
X19201781Y-171179391D01*
X19290049Y-171036287D01*
X19342936Y-170876685D01*
X19353000Y-170778174D01*
X19353000Y-169919826D01*
X19342936Y-169821315D01*
X19315618Y-169738877D01*
X19313217Y-169669052D01*
X19348949Y-169609010D01*
X19411469Y-169577817D01*
X19467920Y-169580800D01*
X19500080Y-169590143D01*
X19500091Y-169590145D01*
X19526122Y-169592194D01*
X19591411Y-169617077D01*
X19632882Y-169673308D01*
X19637369Y-169743034D01*
X19634101Y-169754809D01*
X19612064Y-169821315D01*
X19612064Y-169821316D01*
X19612063Y-169821316D01*
X19602000Y-169919818D01*
X19602000Y-170778181D01*
X19612063Y-170876683D01*
X19664950Y-171036284D01*
X19664955Y-171036295D01*
X19753216Y-171179387D01*
X19753219Y-171179391D01*
X19872108Y-171298280D01*
X19872112Y-171298283D01*
X20015204Y-171386544D01*
X20015207Y-171386545D01*
X20015213Y-171386549D01*
X20174815Y-171439436D01*
X20273326Y-171449500D01*
X20273331Y-171449500D01*
X20806669Y-171449500D01*
X20806674Y-171449500D01*
X20905185Y-171439436D01*
X21064787Y-171386549D01*
X21207891Y-171298281D01*
X21326781Y-171179391D01*
X21415049Y-171036287D01*
X21467936Y-170876685D01*
X21470407Y-170852495D01*
X21496802Y-170787804D01*
X21553983Y-170747652D01*
X21623793Y-170744788D01*
X21628335Y-170746014D01*
X21760607Y-170784443D01*
X21796910Y-170787300D01*
X21796918Y-170787300D01*
X22206282Y-170787300D01*
X22206290Y-170787300D01*
X22242593Y-170784443D01*
X22242595Y-170784442D01*
X22242597Y-170784442D01*
X22283575Y-170772536D01*
X22397995Y-170739294D01*
X22418969Y-170726889D01*
X22486688Y-170709706D01*
X22545213Y-170726890D01*
X22565405Y-170738832D01*
X22572566Y-170741931D01*
X22572044Y-170743135D01*
X22624110Y-170776381D01*
X22653320Y-170839852D01*
X22643578Y-170909039D01*
X22611397Y-170948375D01*
X22613029Y-170950128D01*
X22502043Y-171053456D01*
X22502042Y-171053456D01*
X22428626Y-171177192D01*
X22413983Y-171212542D01*
X22413973Y-171212568D01*
X22395976Y-171263582D01*
X22375500Y-171406001D01*
X22375500Y-171476500D01*
X22355815Y-171543539D01*
X22303011Y-171589294D01*
X22251500Y-171600500D01*
X22180998Y-171600500D01*
X22126956Y-171603397D01*
X21987555Y-171638978D01*
X21987545Y-171638982D01*
X21952201Y-171653621D01*
X21952189Y-171653627D01*
X21857353Y-171705411D01*
X21752043Y-171803456D01*
X21752042Y-171803456D01*
X21678626Y-171927192D01*
X21663983Y-171962542D01*
X21663973Y-171962568D01*
X21645976Y-172013582D01*
X21625500Y-172156001D01*
X21625500Y-172316002D01*
X21628396Y-172370041D01*
X21628397Y-172370044D01*
X21651365Y-172460030D01*
X21651021Y-172518466D01*
X21651052Y-172518471D01*
X21651019Y-172518714D01*
X21650996Y-172522775D01*
X21649991Y-172526525D01*
X21635500Y-172636598D01*
X21635500Y-172835403D01*
X21649989Y-172945468D01*
X21652094Y-172953322D01*
X21648814Y-172954200D01*
X21654581Y-173008073D01*
X21651517Y-173018522D01*
X21652095Y-173018677D01*
X21649990Y-173026529D01*
X21635500Y-173136598D01*
X21635500Y-173335403D01*
X21649989Y-173445468D01*
X21652094Y-173453322D01*
X21648814Y-173454200D01*
X21654581Y-173508073D01*
X21651517Y-173518522D01*
X21652095Y-173518677D01*
X21649990Y-173526529D01*
X21635500Y-173636598D01*
X21635500Y-173835403D01*
X21649989Y-173945468D01*
X21652094Y-173953322D01*
X21648824Y-173954197D01*
X21654567Y-174008147D01*
X21651520Y-174018526D01*
X21652094Y-174018680D01*
X21649991Y-174026527D01*
X21649839Y-174027683D01*
X21649439Y-174028585D01*
X21647887Y-174034380D01*
X21646983Y-174034137D01*
X21621574Y-174091580D01*
X21563250Y-174130052D01*
X21526900Y-174135500D01*
X21493098Y-174135500D01*
X21426059Y-174115815D01*
X21405417Y-174099181D01*
X21001445Y-173695209D01*
X20967960Y-173633886D01*
X20965977Y-173615445D01*
X20965805Y-173615464D01*
X20965126Y-173609000D01*
X20945478Y-173422061D01*
X20887392Y-173243293D01*
X20887389Y-173243287D01*
X20793412Y-173080512D01*
X20793404Y-173080501D01*
X20667633Y-172940819D01*
X20667631Y-172940817D01*
X20515567Y-172830336D01*
X20515564Y-172830334D01*
X20515563Y-172830334D01*
X20455147Y-172803435D01*
X20343850Y-172753881D01*
X20343842Y-172753879D01*
X20234686Y-172730678D01*
X20173204Y-172697486D01*
X20139427Y-172636323D01*
X20144079Y-172566609D01*
X20145883Y-172561988D01*
X20148140Y-172556542D01*
X20176800Y-172412455D01*
X20176800Y-172265545D01*
X20148140Y-172121458D01*
X20091920Y-171985731D01*
X20091919Y-171985730D01*
X20091916Y-171985724D01*
X20010301Y-171863580D01*
X20010298Y-171863576D01*
X19906423Y-171759701D01*
X19906419Y-171759698D01*
X19784275Y-171678083D01*
X19784266Y-171678078D01*
X19648544Y-171621861D01*
X19648545Y-171621861D01*
X19648542Y-171621860D01*
X19648538Y-171621859D01*
X19648534Y-171621858D01*
X19504459Y-171593200D01*
X19504455Y-171593200D01*
X19357545Y-171593200D01*
X19357540Y-171593200D01*
X19213465Y-171621858D01*
X19213455Y-171621861D01*
X19077733Y-171678078D01*
X19077724Y-171678083D01*
X18955580Y-171759698D01*
X18955576Y-171759701D01*
X18851701Y-171863576D01*
X18851698Y-171863580D01*
X18770083Y-171985724D01*
X18770078Y-171985733D01*
X18713861Y-172121455D01*
X18713858Y-172121465D01*
X18685200Y-172265540D01*
X18685200Y-172412459D01*
X18713858Y-172556534D01*
X18713862Y-172556548D01*
X18716094Y-172561936D01*
X18723563Y-172631405D01*
X18692288Y-172693884D01*
X18632199Y-172729536D01*
X18627314Y-172730678D01*
X18518155Y-172753879D01*
X18518153Y-172753880D01*
X18346438Y-172830333D01*
X18346436Y-172830334D01*
X18320625Y-172849086D01*
X18254818Y-172872564D01*
X18206789Y-172865808D01*
X18086257Y-172823632D01*
X18086249Y-172823630D01*
X17907004Y-172803435D01*
X17906996Y-172803435D01*
X17727750Y-172823630D01*
X17727745Y-172823631D01*
X17557476Y-172883211D01*
X17404737Y-172979184D01*
X17277184Y-173106737D01*
X17181211Y-173259476D01*
X17121631Y-173429745D01*
X17121630Y-173429750D01*
X17101435Y-173608996D01*
X17101435Y-173609003D01*
X17121630Y-173788249D01*
X17121631Y-173788254D01*
X17181211Y-173958523D01*
X17277184Y-174111262D01*
X17277185Y-174111263D01*
X17322241Y-174156320D01*
X17355725Y-174217643D01*
X17350740Y-174287335D01*
X17322241Y-174331680D01*
X17277184Y-174376737D01*
X17181211Y-174529476D01*
X17121631Y-174699745D01*
X17121630Y-174699750D01*
X17101435Y-174878996D01*
X17101435Y-174879003D01*
X17121630Y-175058249D01*
X17121631Y-175058254D01*
X17181211Y-175228523D01*
X17277061Y-175381067D01*
X17277184Y-175381262D01*
X17404738Y-175508816D01*
X17486706Y-175560320D01*
X17548288Y-175599015D01*
X17557478Y-175604789D01*
X17708592Y-175657666D01*
X17727745Y-175664368D01*
X17727750Y-175664369D01*
X17832227Y-175676140D01*
X17852666Y-175678443D01*
X17917080Y-175705509D01*
X17956635Y-175763104D01*
X17958773Y-175832941D01*
X17956714Y-175839981D01*
X17917015Y-175962162D01*
X17897377Y-176149000D01*
X17917015Y-176335837D01*
X17975064Y-176514497D01*
X17975067Y-176514503D01*
X18042604Y-176631480D01*
X18059077Y-176699380D01*
X18036224Y-176765407D01*
X18004108Y-176796582D01*
X17939580Y-176839698D01*
X17939576Y-176839701D01*
X17835701Y-176943576D01*
X17835698Y-176943580D01*
X17754083Y-177065724D01*
X17754078Y-177065733D01*
X17697861Y-177201455D01*
X17697858Y-177201465D01*
X17669200Y-177345540D01*
X17669200Y-177492459D01*
X17697858Y-177636534D01*
X17697861Y-177636544D01*
X17754078Y-177772266D01*
X17754083Y-177772275D01*
X17835698Y-177894419D01*
X17835701Y-177894423D01*
X17939576Y-177998298D01*
X17939580Y-177998301D01*
X18064121Y-178081517D01*
X18108926Y-178135129D01*
X18117633Y-178204454D01*
X18087479Y-178267481D01*
X18082911Y-178272300D01*
X17446286Y-178908926D01*
X17334481Y-179020730D01*
X17334479Y-179020733D01*
X17284361Y-179107542D01*
X17284359Y-179107544D01*
X17255425Y-179157657D01*
X17255424Y-179157658D01*
X17247100Y-179188724D01*
X17214499Y-179310391D01*
X17214499Y-179310393D01*
X17214499Y-179478494D01*
X17214500Y-179478507D01*
X17214500Y-181033882D01*
X17214499Y-181033900D01*
X17214499Y-181199606D01*
X17214498Y-181199606D01*
X17255423Y-181352337D01*
X17284358Y-181402452D01*
X17284359Y-181402456D01*
X17284360Y-181402456D01*
X17334479Y-181489266D01*
X17334481Y-181489269D01*
X17453349Y-181608137D01*
X17453355Y-181608142D01*
X17904587Y-182059374D01*
X17904597Y-182059385D01*
X17908927Y-182063715D01*
X17908928Y-182063716D01*
X18020732Y-182175520D01*
X18106660Y-182225129D01*
X18107543Y-182225639D01*
X18107545Y-182225641D01*
X18132097Y-182239816D01*
X18157663Y-182254577D01*
X18310391Y-182295500D01*
X18468505Y-182295500D01*
X18983330Y-182295500D01*
X18983346Y-182295501D01*
X18990942Y-182295501D01*
X19149053Y-182295501D01*
X19149056Y-182295501D01*
X19301784Y-182254577D01*
X19351903Y-182225639D01*
X19438715Y-182175520D01*
X19550519Y-182063716D01*
X19550519Y-182063714D01*
X19560727Y-182053507D01*
X19560728Y-182053504D01*
X20055918Y-181558314D01*
X20088823Y-181535955D01*
X20088682Y-181535716D01*
X20092487Y-181533465D01*
X20094363Y-181532191D01*
X20095385Y-181531747D01*
X20095398Y-181531744D01*
X20236865Y-181448081D01*
X20236869Y-181448076D01*
X20243031Y-181443298D01*
X20244933Y-181445750D01*
X20293579Y-181419155D01*
X20363274Y-181424104D01*
X20395695Y-181444940D01*
X20396969Y-181443298D01*
X20403132Y-181448078D01*
X20403135Y-181448081D01*
X20544602Y-181531744D01*
X20562793Y-181537029D01*
X20702426Y-181577597D01*
X20702429Y-181577597D01*
X20702431Y-181577598D01*
X20739306Y-181580500D01*
X20739314Y-181580500D01*
X21170686Y-181580500D01*
X21170694Y-181580500D01*
X21207569Y-181577598D01*
X21207571Y-181577597D01*
X21207573Y-181577597D01*
X21273934Y-181558317D01*
X21365398Y-181531744D01*
X21506865Y-181448081D01*
X21506870Y-181448075D01*
X21513031Y-181443298D01*
X21514933Y-181445750D01*
X21563579Y-181419155D01*
X21633274Y-181424104D01*
X21665695Y-181444940D01*
X21666969Y-181443298D01*
X21673132Y-181448078D01*
X21673135Y-181448081D01*
X21814602Y-181531744D01*
X21832793Y-181537029D01*
X21972426Y-181577597D01*
X21972429Y-181577597D01*
X21972431Y-181577598D01*
X22009306Y-181580500D01*
X22009314Y-181580500D01*
X22440686Y-181580500D01*
X22440694Y-181580500D01*
X22477569Y-181577598D01*
X22477571Y-181577597D01*
X22477573Y-181577597D01*
X22543934Y-181558317D01*
X22635398Y-181531744D01*
X22776865Y-181448081D01*
X22893081Y-181331865D01*
X22976744Y-181190398D01*
X23016875Y-181052267D01*
X23022597Y-181032573D01*
X23022598Y-181032567D01*
X23025499Y-180995701D01*
X23025500Y-180995694D01*
X23025500Y-179862162D01*
X23045185Y-179795123D01*
X23061814Y-179774486D01*
X23950699Y-178885600D01*
X24443096Y-178885600D01*
X24485568Y-179031795D01*
X24485569Y-179031798D01*
X24500876Y-179057681D01*
X24518057Y-179125406D01*
X24500876Y-179183919D01*
X24485569Y-179209801D01*
X24485568Y-179209804D01*
X24443096Y-179356000D01*
X24997600Y-179356000D01*
X24997600Y-178885600D01*
X24443096Y-178885600D01*
X23950699Y-178885600D01*
X24414381Y-178421918D01*
X24475704Y-178388434D01*
X24502062Y-178385600D01*
X24749248Y-178385600D01*
X24812366Y-178402867D01*
X24821205Y-178408094D01*
X24821208Y-178408094D01*
X24821210Y-178408096D01*
X24976602Y-178453242D01*
X24976605Y-178453242D01*
X24976607Y-178453243D01*
X25012910Y-178456100D01*
X25012918Y-178456100D01*
X25482282Y-178456100D01*
X25482290Y-178456100D01*
X25518593Y-178453243D01*
X25518595Y-178453242D01*
X25518597Y-178453242D01*
X25673989Y-178408096D01*
X25673989Y-178408095D01*
X25673995Y-178408094D01*
X25682833Y-178402867D01*
X25745952Y-178385600D01*
X26056630Y-178385600D01*
X26102326Y-178351492D01*
X26172025Y-178346606D01*
X26188829Y-178351553D01*
X26297517Y-178392091D01*
X26297516Y-178392091D01*
X26304444Y-178392835D01*
X26357127Y-178398500D01*
X27655903Y-178398499D01*
X27722942Y-178418184D01*
X27768697Y-178470987D01*
X27778641Y-178540146D01*
X27749616Y-178603702D01*
X27743584Y-178610180D01*
X27492583Y-178861181D01*
X27431260Y-178894666D01*
X27404902Y-178897500D01*
X26357129Y-178897500D01*
X26357123Y-178897501D01*
X26297514Y-178903909D01*
X26203375Y-178939020D01*
X26133683Y-178944004D01*
X26072361Y-178910518D01*
X26060882Y-178897290D01*
X26052105Y-178885600D01*
X25497600Y-178885600D01*
X25497600Y-179661500D01*
X25477915Y-179728539D01*
X25425111Y-179774294D01*
X25373600Y-179785500D01*
X25012902Y-179785500D01*
X24976608Y-179788356D01*
X24976602Y-179788357D01*
X24821210Y-179833503D01*
X24821205Y-179833506D01*
X24812366Y-179838732D01*
X24749248Y-179856000D01*
X24443096Y-179856000D01*
X24485568Y-180002194D01*
X24497511Y-180022389D01*
X24514692Y-180090113D01*
X24497511Y-180148628D01*
X24485106Y-180169604D01*
X24485104Y-180169609D01*
X24439957Y-180325002D01*
X24439956Y-180325008D01*
X24437100Y-180361302D01*
X24437100Y-180687638D01*
X24417415Y-180754677D01*
X24364611Y-180800432D01*
X24326984Y-180810858D01*
X24204749Y-180824630D01*
X24204745Y-180824631D01*
X24034476Y-180884211D01*
X23881737Y-180980184D01*
X23754184Y-181107737D01*
X23658211Y-181260476D01*
X23598631Y-181430745D01*
X23598630Y-181430750D01*
X23578435Y-181609996D01*
X23578435Y-181610003D01*
X23598630Y-181789249D01*
X23598631Y-181789254D01*
X23658211Y-181959523D01*
X23723680Y-182063716D01*
X23754184Y-182112262D01*
X23881738Y-182239816D01*
X24034478Y-182335789D01*
X24204745Y-182395368D01*
X24204750Y-182395369D01*
X24383996Y-182415565D01*
X24384000Y-182415565D01*
X24384003Y-182415565D01*
X24534616Y-182398595D01*
X24603438Y-182410649D01*
X24654818Y-182457998D01*
X24672500Y-182521815D01*
X24672500Y-182666830D01*
X24672499Y-182666848D01*
X24672499Y-182832554D01*
X24672498Y-182832554D01*
X24713423Y-182985285D01*
X24742358Y-183035400D01*
X24742359Y-183035406D01*
X24742361Y-183035406D01*
X24757560Y-183061733D01*
X24774030Y-183129633D01*
X24751177Y-183195660D01*
X24737852Y-183211411D01*
X24554852Y-183394412D01*
X24493529Y-183427897D01*
X24423838Y-183422913D01*
X24383918Y-183397257D01*
X24383705Y-183397525D01*
X24381094Y-183395443D01*
X24379490Y-183394412D01*
X24378262Y-183393184D01*
X24225523Y-183297211D01*
X24055254Y-183237631D01*
X24055249Y-183237630D01*
X23876004Y-183217435D01*
X23875996Y-183217435D01*
X23696750Y-183237630D01*
X23696745Y-183237631D01*
X23526476Y-183297211D01*
X23373737Y-183393184D01*
X23246184Y-183520737D01*
X23150211Y-183673476D01*
X23090631Y-183843745D01*
X23090630Y-183843750D01*
X23070435Y-184022996D01*
X23070435Y-184023002D01*
X23087405Y-184173616D01*
X23075351Y-184242438D01*
X23028002Y-184293818D01*
X22964185Y-184311500D01*
X22904670Y-184311500D01*
X22904654Y-184311499D01*
X22897058Y-184311499D01*
X22810077Y-184311499D01*
X22746956Y-184294231D01*
X22678496Y-184253744D01*
X22635398Y-184228256D01*
X22635397Y-184228255D01*
X22635396Y-184228255D01*
X22635393Y-184228254D01*
X22477573Y-184182402D01*
X22477567Y-184182401D01*
X22440701Y-184179500D01*
X22440694Y-184179500D01*
X22009306Y-184179500D01*
X22009298Y-184179500D01*
X21972432Y-184182401D01*
X21972426Y-184182402D01*
X21814606Y-184228254D01*
X21814603Y-184228255D01*
X21673137Y-184311917D01*
X21666969Y-184316702D01*
X21665072Y-184314256D01*
X21616358Y-184340857D01*
X21546666Y-184335873D01*
X21514296Y-184315069D01*
X21513031Y-184316702D01*
X21506862Y-184311917D01*
X21408496Y-184253744D01*
X21365398Y-184228256D01*
X21365397Y-184228255D01*
X21365396Y-184228255D01*
X21365393Y-184228254D01*
X21207573Y-184182402D01*
X21207567Y-184182401D01*
X21170701Y-184179500D01*
X21170694Y-184179500D01*
X20739306Y-184179500D01*
X20739298Y-184179500D01*
X20702432Y-184182401D01*
X20702426Y-184182402D01*
X20544606Y-184228254D01*
X20544603Y-184228255D01*
X20403137Y-184311917D01*
X20396969Y-184316702D01*
X20395072Y-184314256D01*
X20346358Y-184340857D01*
X20276666Y-184335873D01*
X20244296Y-184315069D01*
X20243031Y-184316702D01*
X20236862Y-184311917D01*
X20138496Y-184253744D01*
X20095398Y-184228256D01*
X20095397Y-184228255D01*
X20095396Y-184228255D01*
X20095393Y-184228254D01*
X19937573Y-184182402D01*
X19937567Y-184182401D01*
X19900701Y-184179500D01*
X19900694Y-184179500D01*
X19469306Y-184179500D01*
X19469298Y-184179500D01*
X19432432Y-184182401D01*
X19432426Y-184182402D01*
X19274606Y-184228254D01*
X19274603Y-184228255D01*
X19133140Y-184311915D01*
X19126974Y-184316699D01*
X19125174Y-184314379D01*
X19075913Y-184341230D01*
X19006225Y-184336193D01*
X18973992Y-184315461D01*
X18972722Y-184317100D01*
X18966552Y-184312314D01*
X18825196Y-184228717D01*
X18825193Y-184228716D01*
X18667494Y-184182900D01*
X18667497Y-184182900D01*
X18665000Y-184182703D01*
X18665000Y-185631000D01*
X18645315Y-185698039D01*
X18592511Y-185743794D01*
X18541000Y-185755000D01*
X17615000Y-185755000D01*
X17615000Y-186245649D01*
X17617899Y-186282489D01*
X17617900Y-186282495D01*
X17663716Y-186440193D01*
X17663717Y-186440196D01*
X17747314Y-186581552D01*
X17747321Y-186581561D01*
X17863438Y-186697678D01*
X17863447Y-186697685D01*
X18004802Y-186781281D01*
X18081386Y-186803531D01*
X18140272Y-186841137D01*
X18169479Y-186904610D01*
X18159733Y-186973796D01*
X18134473Y-187010289D01*
X17785217Y-187359546D01*
X17785214Y-187359548D01*
X17785215Y-187359549D01*
X17680478Y-187464286D01*
X17680475Y-187464290D01*
X17643084Y-187529055D01*
X17643084Y-187529057D01*
X17601423Y-187601214D01*
X17591550Y-187638060D01*
X17560499Y-187753943D01*
X17560499Y-187753945D01*
X17560499Y-187922046D01*
X17560500Y-187922059D01*
X17560500Y-188560254D01*
X17560499Y-188560272D01*
X17560499Y-188725978D01*
X17560498Y-188725978D01*
X17601423Y-188878711D01*
X17606507Y-188887516D01*
X17606509Y-188887518D01*
X17680477Y-189015636D01*
X17680481Y-189015641D01*
X17799349Y-189134509D01*
X17799355Y-189134514D01*
X18259215Y-189594374D01*
X18259225Y-189594385D01*
X18263555Y-189598715D01*
X18263556Y-189598716D01*
X18375360Y-189710520D01*
X18460197Y-189759500D01*
X18512291Y-189789577D01*
X18665019Y-189830501D01*
X18665022Y-189830501D01*
X18829476Y-189830501D01*
X18896515Y-189850186D01*
X18942270Y-189902990D01*
X18952214Y-189972148D01*
X18923189Y-190035704D01*
X18917887Y-190041397D01*
X18917684Y-190041653D01*
X18825643Y-190190875D01*
X18825641Y-190190880D01*
X18770494Y-190357302D01*
X18770493Y-190357309D01*
X18760000Y-190460013D01*
X18760000Y-190885000D01*
X19579670Y-190885000D01*
X19559925Y-190904745D01*
X19510556Y-190990255D01*
X19485000Y-191085630D01*
X19485000Y-191184370D01*
X19510556Y-191279745D01*
X19559925Y-191365255D01*
X19579670Y-191385000D01*
X18760001Y-191385000D01*
X18760001Y-191809986D01*
X18770494Y-191912697D01*
X18825641Y-192079119D01*
X18825643Y-192079124D01*
X18917684Y-192228345D01*
X19041654Y-192352315D01*
X19190875Y-192444356D01*
X19190880Y-192444358D01*
X19357302Y-192499505D01*
X19357309Y-192499506D01*
X19460019Y-192509999D01*
X19609999Y-192509999D01*
X19610000Y-192509998D01*
X19610000Y-191415330D01*
X19629745Y-191435075D01*
X19715255Y-191484444D01*
X19810630Y-191510000D01*
X19909370Y-191510000D01*
X20004745Y-191484444D01*
X20090255Y-191435075D01*
X20110000Y-191415330D01*
X20110000Y-192509999D01*
X20259972Y-192509999D01*
X20259986Y-192509998D01*
X20362697Y-192499505D01*
X20529119Y-192444358D01*
X20529124Y-192444356D01*
X20678345Y-192352315D01*
X20802315Y-192228345D01*
X20841945Y-192164094D01*
X20893893Y-192117368D01*
X20962855Y-192106145D01*
X21026937Y-192133988D01*
X21035166Y-192141508D01*
X21143072Y-192249414D01*
X21283212Y-192351232D01*
X21437555Y-192429873D01*
X21602299Y-192483402D01*
X21773389Y-192510500D01*
X21773390Y-192510500D01*
X21946610Y-192510500D01*
X21946611Y-192510500D01*
X22117701Y-192483402D01*
X22282445Y-192429873D01*
X22436788Y-192351232D01*
X22576928Y-192249414D01*
X22699414Y-192126928D01*
X22759682Y-192043975D01*
X22815012Y-192001311D01*
X22884626Y-191995332D01*
X22946421Y-192027938D01*
X22960315Y-192043973D01*
X23020586Y-192126928D01*
X23143072Y-192249414D01*
X23283212Y-192351232D01*
X23437555Y-192429873D01*
X23602299Y-192483402D01*
X23773389Y-192510500D01*
X23773390Y-192510500D01*
X23946610Y-192510500D01*
X23946611Y-192510500D01*
X24117701Y-192483402D01*
X24282445Y-192429873D01*
X24436788Y-192351232D01*
X24576928Y-192249414D01*
X24699414Y-192126928D01*
X24759682Y-192043975D01*
X24815012Y-192001311D01*
X24884626Y-191995332D01*
X24946421Y-192027938D01*
X24960315Y-192043973D01*
X25020586Y-192126928D01*
X25143072Y-192249414D01*
X25283212Y-192351232D01*
X25437555Y-192429873D01*
X25602299Y-192483402D01*
X25773389Y-192510500D01*
X25773390Y-192510500D01*
X25946610Y-192510500D01*
X25946611Y-192510500D01*
X26117701Y-192483402D01*
X26282445Y-192429873D01*
X26436788Y-192351232D01*
X26576928Y-192249414D01*
X26699414Y-192126928D01*
X26801232Y-191986788D01*
X26879873Y-191832445D01*
X26933402Y-191667701D01*
X26960500Y-191496611D01*
X26960500Y-190773389D01*
X26933402Y-190602299D01*
X26879873Y-190437555D01*
X26801232Y-190283212D01*
X26699414Y-190143072D01*
X26576928Y-190020586D01*
X26511613Y-189973131D01*
X26468948Y-189917801D01*
X26460500Y-189872814D01*
X26460500Y-189016983D01*
X26477767Y-188953863D01*
X26482894Y-188945195D01*
X26528043Y-188789793D01*
X26530900Y-188753490D01*
X26530900Y-188284110D01*
X26528043Y-188247807D01*
X26482894Y-188092405D01*
X26400517Y-187953113D01*
X26400516Y-187953112D01*
X26396855Y-187946921D01*
X26379672Y-187879197D01*
X26396855Y-187820679D01*
X26436321Y-187753945D01*
X26482894Y-187675195D01*
X26528043Y-187519793D01*
X26530900Y-187483490D01*
X26530900Y-187014110D01*
X26528043Y-186977807D01*
X26482894Y-186822405D01*
X26400517Y-186683113D01*
X26400515Y-186683111D01*
X26400512Y-186683107D01*
X26395319Y-186677914D01*
X26361834Y-186616591D01*
X26359000Y-186590233D01*
X26359000Y-186308814D01*
X26376267Y-186245694D01*
X26410744Y-186187398D01*
X26456598Y-186029569D01*
X26459500Y-185992694D01*
X26459500Y-185288500D01*
X26479185Y-185221461D01*
X26531989Y-185175706D01*
X26583500Y-185164500D01*
X26634500Y-185164500D01*
X26701539Y-185184185D01*
X26747294Y-185236989D01*
X26758500Y-185288500D01*
X26758500Y-185992701D01*
X26761401Y-186029567D01*
X26761402Y-186029573D01*
X26807254Y-186187393D01*
X26807255Y-186187396D01*
X26807256Y-186187398D01*
X26841732Y-186245694D01*
X26859000Y-186308814D01*
X26859000Y-186574295D01*
X26859001Y-186574295D01*
X26861486Y-186574100D01*
X27019197Y-186528281D01*
X27020382Y-186527581D01*
X27021436Y-186527313D01*
X27026357Y-186525184D01*
X27026700Y-186525977D01*
X27088105Y-186510395D01*
X27141289Y-186526008D01*
X27141446Y-186525647D01*
X27144371Y-186526913D01*
X27146624Y-186527574D01*
X27148602Y-186528744D01*
X27148604Y-186528744D01*
X27148605Y-186528745D01*
X27306426Y-186574597D01*
X27306429Y-186574597D01*
X27306431Y-186574598D01*
X27343306Y-186577500D01*
X27343314Y-186577500D01*
X27774686Y-186577500D01*
X27774694Y-186577500D01*
X27811569Y-186574598D01*
X27811571Y-186574597D01*
X27811573Y-186574597D01*
X27853191Y-186562505D01*
X27969398Y-186528744D01*
X28110865Y-186445081D01*
X28227081Y-186328865D01*
X28310744Y-186187398D01*
X28356598Y-186029569D01*
X28359500Y-185992694D01*
X28359500Y-184836306D01*
X28356598Y-184799431D01*
X28351234Y-184780969D01*
X28310745Y-184641606D01*
X28310744Y-184641603D01*
X28310744Y-184641602D01*
X28227081Y-184500135D01*
X28227079Y-184500133D01*
X28227076Y-184500129D01*
X28110870Y-184383923D01*
X28110867Y-184383921D01*
X28110865Y-184383919D01*
X28110549Y-184383732D01*
X28110353Y-184383522D01*
X28104702Y-184379139D01*
X28105409Y-184378227D01*
X28062866Y-184332664D01*
X28050362Y-184263923D01*
X28077006Y-184199333D01*
X28104921Y-184175144D01*
X28104702Y-184174861D01*
X28109911Y-184170820D01*
X28110550Y-184170267D01*
X28110865Y-184170081D01*
X28227081Y-184053865D01*
X28310744Y-183912398D01*
X28356598Y-183754569D01*
X28359500Y-183717694D01*
X28359500Y-182561306D01*
X28356598Y-182524431D01*
X28356596Y-182524425D01*
X28310745Y-182366606D01*
X28310744Y-182366603D01*
X28310744Y-182366602D01*
X28227081Y-182225135D01*
X28227079Y-182225133D01*
X28227076Y-182225129D01*
X28110870Y-182108923D01*
X28110862Y-182108917D01*
X27969396Y-182025255D01*
X27969393Y-182025254D01*
X27811573Y-181979402D01*
X27811567Y-181979401D01*
X27774701Y-181976500D01*
X27774694Y-181976500D01*
X27343306Y-181976500D01*
X27343298Y-181976500D01*
X27306432Y-181979401D01*
X27306426Y-181979402D01*
X27167161Y-182019863D01*
X27097291Y-182019664D01*
X27038621Y-181981722D01*
X27009778Y-181918083D01*
X27010408Y-181887290D01*
X27009648Y-181887231D01*
X27011790Y-181860000D01*
X26177500Y-181860000D01*
X26110461Y-181840315D01*
X26064706Y-181787511D01*
X26053500Y-181736000D01*
X26053500Y-181484000D01*
X26073185Y-181416961D01*
X26125989Y-181371206D01*
X26177500Y-181360000D01*
X27011790Y-181360000D01*
X27010144Y-181339086D01*
X26963477Y-181178453D01*
X26963676Y-181108583D01*
X27000045Y-181052343D01*
X26999969Y-181052267D01*
X27000327Y-181051908D01*
X27001618Y-181049913D01*
X27005389Y-181046846D01*
X27005713Y-181046521D01*
X27005716Y-181046520D01*
X27117418Y-180934818D01*
X27178741Y-180901333D01*
X27205099Y-180898499D01*
X28252871Y-180898499D01*
X28252872Y-180898499D01*
X28312483Y-180892091D01*
X28447331Y-180841796D01*
X28562546Y-180755546D01*
X28648796Y-180640331D01*
X28699091Y-180505483D01*
X28705500Y-180445873D01*
X28705499Y-179398095D01*
X28725183Y-179331057D01*
X28741813Y-179310420D01*
X28863506Y-179188728D01*
X28863511Y-179188724D01*
X28873714Y-179178520D01*
X28873716Y-179178520D01*
X28985520Y-179066716D01*
X29048746Y-178957204D01*
X29064577Y-178929785D01*
X29105500Y-178777058D01*
X29105500Y-178618943D01*
X29105500Y-176239437D01*
X29064577Y-176086710D01*
X29052620Y-176066000D01*
X28985524Y-175949784D01*
X28985521Y-175949781D01*
X28985520Y-175949778D01*
X28985517Y-175949775D01*
X28980574Y-175943333D01*
X28982651Y-175941739D01*
X28955385Y-175891805D01*
X28960369Y-175822113D01*
X28971552Y-175799484D01*
X29014840Y-175730593D01*
X29074419Y-175560326D01*
X29080223Y-175508815D01*
X29094616Y-175381074D01*
X29094616Y-175381067D01*
X29074420Y-175201821D01*
X29074419Y-175201816D01*
X29024184Y-175058254D01*
X29014840Y-175031549D01*
X29002017Y-175011141D01*
X28983017Y-174943905D01*
X28987933Y-174910579D01*
X29001643Y-174863393D01*
X29004500Y-174827090D01*
X29004500Y-174417710D01*
X29001643Y-174381407D01*
X29000286Y-174376737D01*
X28956495Y-174226009D01*
X28956494Y-174226005D01*
X28944089Y-174205030D01*
X28926906Y-174137309D01*
X28944091Y-174078784D01*
X28956032Y-174058594D01*
X28998504Y-173912400D01*
X28692352Y-173912400D01*
X28629233Y-173895132D01*
X28620395Y-173889906D01*
X28620393Y-173889905D01*
X28620389Y-173889903D01*
X28464997Y-173844757D01*
X28464991Y-173844756D01*
X28428697Y-173841900D01*
X28428690Y-173841900D01*
X28240498Y-173841900D01*
X28173459Y-173822215D01*
X28152817Y-173805581D01*
X28102717Y-173755481D01*
X28102716Y-173755480D01*
X27985935Y-173688057D01*
X27965785Y-173676423D01*
X27890216Y-173656174D01*
X27830558Y-173619810D01*
X27800029Y-173556963D01*
X27808324Y-173487587D01*
X27852809Y-173433709D01*
X27919361Y-173412435D01*
X27922312Y-173412400D01*
X27944000Y-173412400D01*
X27944000Y-172883609D01*
X28444000Y-172883609D01*
X28444000Y-173412400D01*
X28998504Y-173412400D01*
X28956031Y-173266204D01*
X28873721Y-173127025D01*
X28873714Y-173127016D01*
X28759383Y-173012685D01*
X28759374Y-173012678D01*
X28620195Y-172930368D01*
X28620190Y-172930366D01*
X28464918Y-172885255D01*
X28464912Y-172885254D01*
X28444000Y-172883609D01*
X27944000Y-172883609D01*
X27944000Y-172883440D01*
X27963685Y-172816401D01*
X27980319Y-172795759D01*
X27997635Y-172778443D01*
X28061816Y-172714262D01*
X28157789Y-172561522D01*
X28217368Y-172391255D01*
X28219758Y-172370044D01*
X28237565Y-172212003D01*
X28237565Y-172211996D01*
X28217369Y-172032750D01*
X28217368Y-172032745D01*
X28155489Y-171855905D01*
X28157635Y-171855153D01*
X28148037Y-171796854D01*
X28156391Y-171768407D01*
X28155489Y-171768092D01*
X28217366Y-171591259D01*
X28217369Y-171591246D01*
X28237565Y-171412000D01*
X28237565Y-171411993D01*
X28217369Y-171232747D01*
X28217368Y-171232742D01*
X28198698Y-171179387D01*
X28157789Y-171062475D01*
X28152121Y-171053455D01*
X28090517Y-170955413D01*
X28061816Y-170909735D01*
X27934262Y-170782181D01*
X27925031Y-170776381D01*
X27781521Y-170686207D01*
X27611249Y-170626627D01*
X27524331Y-170616834D01*
X27459917Y-170589767D01*
X27450534Y-170581295D01*
X27439720Y-170570481D01*
X27439715Y-170570477D01*
X27340259Y-170513057D01*
X27340258Y-170513056D01*
X27302793Y-170491425D01*
X27302792Y-170491424D01*
X27290266Y-170488067D01*
X27150060Y-170450499D01*
X26991946Y-170450499D01*
X26984350Y-170450499D01*
X26984334Y-170450500D01*
X25871163Y-170450500D01*
X25871147Y-170450499D01*
X25863551Y-170450499D01*
X25705437Y-170450499D01*
X25598081Y-170479265D01*
X25552704Y-170491424D01*
X25552703Y-170491425D01*
X25515239Y-170513056D01*
X25515238Y-170513057D01*
X25415781Y-170570477D01*
X25415776Y-170570481D01*
X25359631Y-170626627D01*
X25303974Y-170682284D01*
X25303972Y-170682286D01*
X25209877Y-170776381D01*
X25162076Y-170824182D01*
X25100753Y-170857666D01*
X25074396Y-170860500D01*
X24911596Y-170860500D01*
X24801531Y-170874989D01*
X24793678Y-170877094D01*
X24792802Y-170873824D01*
X24738853Y-170879567D01*
X24728477Y-170876518D01*
X24728323Y-170877095D01*
X24720470Y-170874990D01*
X24610401Y-170860500D01*
X24411596Y-170860500D01*
X24301531Y-170874989D01*
X24293678Y-170877094D01*
X24292802Y-170873824D01*
X24238853Y-170879567D01*
X24228477Y-170876518D01*
X24228323Y-170877095D01*
X24220470Y-170874990D01*
X24110401Y-170860500D01*
X23911596Y-170860500D01*
X23801531Y-170874989D01*
X23793678Y-170877094D01*
X23792802Y-170873824D01*
X23738853Y-170879567D01*
X23728477Y-170876518D01*
X23728323Y-170877095D01*
X23720470Y-170874990D01*
X23610402Y-170860500D01*
X23592359Y-170860500D01*
X23525320Y-170840815D01*
X23479565Y-170788011D01*
X23469621Y-170718853D01*
X23498646Y-170655297D01*
X23504678Y-170648818D01*
X23611317Y-170542179D01*
X23611321Y-170542174D01*
X23693631Y-170402995D01*
X23693633Y-170402990D01*
X23738744Y-170247718D01*
X23738745Y-170247712D01*
X23740390Y-170226800D01*
X22906100Y-170226800D01*
X22839061Y-170207115D01*
X22793306Y-170154311D01*
X22782100Y-170102800D01*
X22782100Y-169850800D01*
X22801785Y-169783761D01*
X22854589Y-169738006D01*
X22906100Y-169726800D01*
X23740390Y-169726800D01*
X23738745Y-169705889D01*
X23693632Y-169550605D01*
X23664239Y-169500905D01*
X23647056Y-169433181D01*
X23664239Y-169374662D01*
X23701619Y-169311455D01*
X23739269Y-169247793D01*
X23784065Y-169093604D01*
X23786900Y-169057581D01*
X23786899Y-168559220D01*
X23784065Y-168523196D01*
X23739269Y-168369007D01*
X23657535Y-168230802D01*
X23657533Y-168230800D01*
X23657530Y-168230796D01*
X23653219Y-168226485D01*
X23619734Y-168165162D01*
X23616900Y-168138804D01*
X23616900Y-167297000D01*
X24219000Y-167297000D01*
X24219000Y-167700149D01*
X24221899Y-167736989D01*
X24221900Y-167736995D01*
X24267716Y-167894693D01*
X24267717Y-167894696D01*
X24351314Y-168036052D01*
X24351321Y-168036061D01*
X24467438Y-168152178D01*
X24467447Y-168152185D01*
X24608801Y-168235781D01*
X24766514Y-168281600D01*
X24766511Y-168281600D01*
X24768998Y-168281795D01*
X24769000Y-168281795D01*
X24769000Y-167297000D01*
X25269000Y-167297000D01*
X25269000Y-168281795D01*
X25269001Y-168281795D01*
X25271486Y-168281600D01*
X25429198Y-168235781D01*
X25570552Y-168152185D01*
X25570561Y-168152178D01*
X25686678Y-168036061D01*
X25686685Y-168036052D01*
X25770282Y-167894696D01*
X25770283Y-167894693D01*
X25816099Y-167736995D01*
X25816100Y-167736989D01*
X25818999Y-167700149D01*
X25819000Y-167700134D01*
X25819000Y-167297000D01*
X25269000Y-167297000D01*
X24769000Y-167297000D01*
X24219000Y-167297000D01*
X23616900Y-167297000D01*
X23616900Y-166524697D01*
X23636585Y-166457658D01*
X23653219Y-166437016D01*
X23661290Y-166428945D01*
X23722613Y-166395460D01*
X23783566Y-166397549D01*
X23816431Y-166407098D01*
X23853306Y-166410000D01*
X23853314Y-166410000D01*
X24095000Y-166410000D01*
X24162039Y-166429685D01*
X24207794Y-166482489D01*
X24219000Y-166534000D01*
X24219000Y-166797000D01*
X25819000Y-166797000D01*
X25819000Y-166534000D01*
X25838685Y-166466961D01*
X25891489Y-166421206D01*
X25943000Y-166410000D01*
X26184686Y-166410000D01*
X26184694Y-166410000D01*
X26221569Y-166407098D01*
X26221571Y-166407097D01*
X26221573Y-166407097D01*
X26263191Y-166395005D01*
X26379398Y-166361244D01*
X26520865Y-166277581D01*
X26637081Y-166161365D01*
X26720744Y-166019898D01*
X26766598Y-165862069D01*
X26769500Y-165825194D01*
X26769500Y-164518806D01*
X26766598Y-164481931D01*
X26720744Y-164324102D01*
X26637081Y-164182635D01*
X26637078Y-164182632D01*
X26637076Y-164182629D01*
X26520870Y-164066423D01*
X26520862Y-164066417D01*
X26379396Y-163982755D01*
X26379393Y-163982754D01*
X26221573Y-163936902D01*
X26221567Y-163936901D01*
X26184701Y-163934000D01*
X26184694Y-163934000D01*
X25991050Y-163934000D01*
X25924011Y-163914315D01*
X25878256Y-163861511D01*
X25867432Y-163800272D01*
X25868791Y-163783001D01*
X25868790Y-163783000D01*
X25034500Y-163783000D01*
X24967461Y-163763315D01*
X24921706Y-163710511D01*
X24910500Y-163659000D01*
X24910500Y-163298317D01*
X24910499Y-163298302D01*
X24909295Y-163283000D01*
X25340000Y-163283000D01*
X25868790Y-163283000D01*
X25867145Y-163262089D01*
X25822031Y-163106804D01*
X25739721Y-162967625D01*
X25739714Y-162967616D01*
X25625383Y-162853285D01*
X25625374Y-162853278D01*
X25486193Y-162770967D01*
X25486190Y-162770965D01*
X25340001Y-162728493D01*
X25340000Y-162728494D01*
X25340000Y-163283000D01*
X24909295Y-163283000D01*
X24907643Y-163262008D01*
X24907642Y-163262002D01*
X24862495Y-163106608D01*
X24862492Y-163106600D01*
X24857266Y-163097763D01*
X24840000Y-163034645D01*
X24840000Y-162728494D01*
X24839998Y-162728493D01*
X24693809Y-162770965D01*
X24693806Y-162770967D01*
X24673608Y-162782912D01*
X24605884Y-162800092D01*
X24547370Y-162782910D01*
X24526397Y-162770507D01*
X24526390Y-162770504D01*
X24370997Y-162725357D01*
X24370992Y-162725356D01*
X24338011Y-162722761D01*
X24272723Y-162697877D01*
X24260066Y-162686830D01*
X24145663Y-162572428D01*
X24112180Y-162511108D01*
X24110128Y-162498650D01*
X24102568Y-162431545D01*
X24042989Y-162261278D01*
X23947016Y-162108538D01*
X23819462Y-161980984D01*
X23666721Y-161885010D01*
X23496449Y-161825430D01*
X23429365Y-161817872D01*
X23364951Y-161790805D01*
X23355568Y-161782333D01*
X23061819Y-161488584D01*
X23028334Y-161427261D01*
X23025500Y-161400903D01*
X23025500Y-161014313D01*
X23025499Y-161014298D01*
X23022598Y-160977432D01*
X23022597Y-160977426D01*
X22976745Y-160819606D01*
X22976744Y-160819603D01*
X22976744Y-160819602D01*
X22959627Y-160790659D01*
X22942444Y-160722938D01*
X22964603Y-160656675D01*
X23003235Y-160620809D01*
X23027481Y-160606470D01*
X23095203Y-160589288D01*
X23153717Y-160606469D01*
X23211207Y-160640469D01*
X23211210Y-160640469D01*
X23211212Y-160640471D01*
X23365391Y-160685264D01*
X23365394Y-160685264D01*
X23365396Y-160685265D01*
X23401419Y-160688100D01*
X23799780Y-160688099D01*
X23835804Y-160685265D01*
X23989993Y-160640469D01*
X24128198Y-160558735D01*
X24241735Y-160445198D01*
X24323469Y-160306993D01*
X24368265Y-160152804D01*
X24371100Y-160116781D01*
X24371099Y-159618420D01*
X24368265Y-159582396D01*
X24323469Y-159428207D01*
X24241735Y-159290002D01*
X24241733Y-159290000D01*
X24241730Y-159289996D01*
X24237419Y-159285685D01*
X24203934Y-159224362D01*
X24201100Y-159198004D01*
X24201100Y-158585500D01*
X24220785Y-158518461D01*
X24273589Y-158472706D01*
X24325100Y-158461500D01*
X26237901Y-158461500D01*
X26304940Y-158481185D01*
X26350695Y-158533989D01*
X26361901Y-158585500D01*
X26361901Y-158608876D01*
X26368308Y-158668483D01*
X26418602Y-158803328D01*
X26418606Y-158803335D01*
X26504852Y-158918544D01*
X26504855Y-158918547D01*
X26620064Y-159004793D01*
X26620071Y-159004797D01*
X26754917Y-159055091D01*
X26754916Y-159055091D01*
X26761844Y-159055835D01*
X26814527Y-159061500D01*
X28610272Y-159061499D01*
X28669883Y-159055091D01*
X28804731Y-159004796D01*
X28919946Y-158918546D01*
X29006196Y-158803331D01*
X29056491Y-158668483D01*
X29062900Y-158608873D01*
X29062899Y-157113128D01*
X29056491Y-157053517D01*
X29006196Y-156918669D01*
X29006195Y-156918668D01*
X29006193Y-156918664D01*
X28919947Y-156803455D01*
X28919944Y-156803452D01*
X28804735Y-156717206D01*
X28804728Y-156717202D01*
X28777146Y-156706915D01*
X28721212Y-156665044D01*
X28696795Y-156599579D01*
X28711647Y-156531307D01*
X28761052Y-156481901D01*
X28777148Y-156474550D01*
X28804488Y-156464353D01*
X28804493Y-156464350D01*
X28919587Y-156378190D01*
X28919590Y-156378187D01*
X29005750Y-156263093D01*
X29005754Y-156263086D01*
X29055996Y-156128379D01*
X29055998Y-156128372D01*
X29062399Y-156068844D01*
X29062400Y-156068827D01*
X29062400Y-155571000D01*
X26362400Y-155571000D01*
X26362400Y-156068844D01*
X26368801Y-156128372D01*
X26368803Y-156128379D01*
X26419045Y-156263086D01*
X26419049Y-156263093D01*
X26505209Y-156378187D01*
X26505212Y-156378190D01*
X26620306Y-156464350D01*
X26620315Y-156464355D01*
X26647652Y-156474551D01*
X26703586Y-156516421D01*
X26728004Y-156581885D01*
X26713153Y-156650159D01*
X26663748Y-156699564D01*
X26647654Y-156706915D01*
X26620070Y-156717203D01*
X26620064Y-156717206D01*
X26504855Y-156803452D01*
X26504852Y-156803455D01*
X26418606Y-156918664D01*
X26418602Y-156918671D01*
X26368308Y-157053517D01*
X26361901Y-157113116D01*
X26361901Y-157113123D01*
X26361900Y-157113135D01*
X26361900Y-157136500D01*
X26342215Y-157203539D01*
X26289411Y-157249294D01*
X26237900Y-157260500D01*
X23542937Y-157260500D01*
X23505692Y-157270480D01*
X23441508Y-157270480D01*
X23404258Y-157260499D01*
X23404257Y-157260499D01*
X23246143Y-157260499D01*
X23238547Y-157260499D01*
X23238531Y-157260500D01*
X19786899Y-157260500D01*
X19719860Y-157240815D01*
X19674105Y-157188011D01*
X19662899Y-157136500D01*
X19662899Y-157113129D01*
X19662898Y-157113123D01*
X19662897Y-157113116D01*
X19656491Y-157053517D01*
X19606196Y-156918669D01*
X19606195Y-156918668D01*
X19606193Y-156918664D01*
X19519947Y-156803455D01*
X19519944Y-156803452D01*
X19404735Y-156717206D01*
X19404726Y-156717201D01*
X19377862Y-156707182D01*
X19321928Y-156665312D01*
X19297510Y-156599847D01*
X19312361Y-156531574D01*
X19361766Y-156482168D01*
X19377862Y-156474818D01*
X19404726Y-156464798D01*
X19404726Y-156464797D01*
X19404731Y-156464796D01*
X19519946Y-156378546D01*
X19606196Y-156263331D01*
X19606288Y-156263086D01*
X19638146Y-156177668D01*
X19680016Y-156121734D01*
X19740445Y-156097780D01*
X19889649Y-156080969D01*
X19889652Y-156080968D01*
X19889655Y-156080968D01*
X20059922Y-156021389D01*
X20212662Y-155925416D01*
X20340216Y-155797862D01*
X20436189Y-155645122D01*
X20495768Y-155474855D01*
X20515965Y-155295600D01*
X20495768Y-155116345D01*
X20436189Y-154946078D01*
X20340216Y-154793338D01*
X20212662Y-154665784D01*
X20059923Y-154569811D01*
X19889654Y-154510231D01*
X19889650Y-154510230D01*
X19720666Y-154491191D01*
X19656252Y-154464125D01*
X19618368Y-154411303D01*
X19606198Y-154378673D01*
X19606193Y-154378664D01*
X19519947Y-154263455D01*
X19519944Y-154263452D01*
X19404735Y-154177206D01*
X19404726Y-154177201D01*
X19377862Y-154167182D01*
X19321928Y-154125312D01*
X19297510Y-154059847D01*
X19312361Y-153991574D01*
X19361766Y-153942168D01*
X19377862Y-153934818D01*
X19404726Y-153924798D01*
X19404726Y-153924797D01*
X19404731Y-153924796D01*
X19519946Y-153838546D01*
X19606196Y-153723331D01*
X19656491Y-153588483D01*
X19662900Y-153528873D01*
X19662900Y-153528870D01*
X26361900Y-153528870D01*
X26361901Y-153528876D01*
X26368308Y-153588483D01*
X26418602Y-153723328D01*
X26418606Y-153723335D01*
X26504852Y-153838544D01*
X26504855Y-153838547D01*
X26620064Y-153924793D01*
X26620069Y-153924796D01*
X26647652Y-153935083D01*
X26703586Y-153976954D01*
X26728004Y-154042418D01*
X26713153Y-154110691D01*
X26663749Y-154160097D01*
X26647655Y-154167447D01*
X26620316Y-154177644D01*
X26620306Y-154177649D01*
X26505212Y-154263809D01*
X26505209Y-154263812D01*
X26419049Y-154378906D01*
X26419045Y-154378913D01*
X26368803Y-154513620D01*
X26368801Y-154513627D01*
X26362400Y-154573155D01*
X26362400Y-155071000D01*
X29062400Y-155071000D01*
X29062400Y-154573172D01*
X29062399Y-154573155D01*
X29055998Y-154513627D01*
X29055996Y-154513620D01*
X29005754Y-154378913D01*
X29005750Y-154378906D01*
X28919590Y-154263812D01*
X28919587Y-154263809D01*
X28804493Y-154177649D01*
X28804488Y-154177646D01*
X28777145Y-154167448D01*
X28721212Y-154125576D01*
X28696795Y-154060112D01*
X28711647Y-153991839D01*
X28761052Y-153942434D01*
X28777144Y-153935085D01*
X28804731Y-153924796D01*
X28919946Y-153838546D01*
X29006196Y-153723331D01*
X29056491Y-153588483D01*
X29062900Y-153528873D01*
X29062899Y-152033128D01*
X29056491Y-151973517D01*
X29006196Y-151838669D01*
X29006195Y-151838668D01*
X29006193Y-151838664D01*
X28919947Y-151723455D01*
X28919944Y-151723452D01*
X28804735Y-151637206D01*
X28804728Y-151637202D01*
X28669882Y-151586908D01*
X28669883Y-151586908D01*
X28610283Y-151580501D01*
X28610281Y-151580500D01*
X28610273Y-151580500D01*
X28610264Y-151580500D01*
X26814529Y-151580500D01*
X26814523Y-151580501D01*
X26754916Y-151586908D01*
X26620071Y-151637202D01*
X26620064Y-151637206D01*
X26504855Y-151723452D01*
X26504852Y-151723455D01*
X26418606Y-151838664D01*
X26418602Y-151838671D01*
X26368308Y-151973517D01*
X26361901Y-152033116D01*
X26361901Y-152033123D01*
X26361900Y-152033135D01*
X26361900Y-153528870D01*
X19662900Y-153528870D01*
X19662899Y-152033128D01*
X19656491Y-151973517D01*
X19606196Y-151838669D01*
X19606195Y-151838668D01*
X19606193Y-151838664D01*
X19519947Y-151723455D01*
X19519944Y-151723452D01*
X19404735Y-151637206D01*
X19404728Y-151637202D01*
X19269882Y-151586908D01*
X19269883Y-151586908D01*
X19210283Y-151580501D01*
X19210281Y-151580500D01*
X19210273Y-151580500D01*
X19210264Y-151580500D01*
X17414529Y-151580500D01*
X17414523Y-151580501D01*
X17354916Y-151586908D01*
X17220071Y-151637202D01*
X17220064Y-151637206D01*
X17104855Y-151723452D01*
X17104852Y-151723455D01*
X17018606Y-151838664D01*
X17018602Y-151838671D01*
X16968308Y-151973517D01*
X16961901Y-152033116D01*
X16961901Y-152033123D01*
X16961900Y-152033135D01*
X16961900Y-153230902D01*
X16942215Y-153297941D01*
X16925581Y-153318583D01*
X16588281Y-153655882D01*
X16588279Y-153655884D01*
X16560909Y-153703292D01*
X16549340Y-153723331D01*
X16509223Y-153792815D01*
X16468299Y-153945543D01*
X16468299Y-153945545D01*
X16468299Y-154113646D01*
X16468300Y-154113659D01*
X16468300Y-158866530D01*
X16468299Y-158866548D01*
X16468299Y-159032254D01*
X16468298Y-159032254D01*
X15980500Y-159032254D01*
X15980500Y-150484500D01*
X16000185Y-150417461D01*
X16052989Y-150371706D01*
X16104500Y-150360500D01*
X29855500Y-150360500D01*
X29922539Y-150380185D01*
G37*
G04 #@! TD.AperFunction*
M02*
