%TF.GenerationSoftware,KiCad,Pcbnew,8.0.0-8.0.0-1~ubuntu20.04.1*%
%TF.CreationDate,2025-04-06T10:39:28+02:00*%
%TF.ProjectId,sensor-pressure,73656e73-6f72-42d7-9072-657373757265,1*%
%TF.SameCoordinates,Original*%
%TF.FileFunction,Drillmap*%
%TF.FilePolarity,Positive*%
%FSLAX45Y45*%
G04 Gerber Fmt 4.5, Leading zero omitted, Abs format (unit mm)*
G04 Created by KiCad (PCBNEW 8.0.0-8.0.0-1~ubuntu20.04.1) date 2025-04-06 10:39:28*
%MOMM*%
%LPD*%
G01*
G04 APERTURE LIST*
%ADD10C,0.050000*%
%ADD11C,0.200000*%
%ADD12C,0.100000*%
G04 APERTURE END LIST*
D10*
X1548000Y-14986000D02*
X3048000Y-14986000D01*
X3048000Y-19736000D01*
X1548000Y-19736000D01*
X1548000Y-14986000D01*
D11*
D12*
X1750300Y-17028400D02*
X1780300Y-17058400D01*
X1780300Y-17028400D02*
X1750300Y-17058400D01*
X1775700Y-17345900D02*
X1805700Y-17375900D01*
X1805700Y-17345900D02*
X1775700Y-17375900D01*
X1775700Y-17472900D02*
X1805700Y-17502900D01*
X1805700Y-17472900D02*
X1775700Y-17502900D01*
X1775700Y-17599900D02*
X1805700Y-17629900D01*
X1805700Y-17599900D02*
X1775700Y-17629900D01*
X1826500Y-16545800D02*
X1856500Y-16575800D01*
X1856500Y-16545800D02*
X1826500Y-16575800D01*
X1877300Y-16863300D02*
X1907300Y-16893300D01*
X1907300Y-16863300D02*
X1877300Y-16893300D01*
X1953500Y-16545800D02*
X1983500Y-16575800D01*
X1983500Y-16545800D02*
X1953500Y-16575800D01*
X1956040Y-15514560D02*
X1986040Y-15544560D01*
X1986040Y-15514560D02*
X1956040Y-15544560D01*
X2077960Y-16291800D02*
X2107960Y-16321800D01*
X2107960Y-16291800D02*
X2077960Y-16321800D01*
X2080500Y-16545800D02*
X2110500Y-16575800D01*
X2110500Y-16545800D02*
X2080500Y-16575800D01*
X2316720Y-16246080D02*
X2346720Y-16276080D01*
X2346720Y-16246080D02*
X2316720Y-16276080D01*
X2367520Y-18694640D02*
X2397520Y-18724640D01*
X2397520Y-18694640D02*
X2367520Y-18724640D01*
X2372600Y-18387300D02*
X2402600Y-18417300D01*
X2402600Y-18387300D02*
X2372600Y-18417300D01*
X2375660Y-16986100D02*
X2405660Y-17016100D01*
X2405660Y-16986100D02*
X2375660Y-17016100D01*
X2423400Y-18146000D02*
X2453400Y-18176000D01*
X2453400Y-18146000D02*
X2423400Y-18176000D01*
X2433560Y-17897080D02*
X2463560Y-17927080D01*
X2463560Y-17897080D02*
X2433560Y-17927080D01*
X2489440Y-16809960D02*
X2519440Y-16839960D01*
X2519440Y-16809960D02*
X2489440Y-16839960D01*
X2525000Y-17320500D02*
X2555000Y-17350500D01*
X2555000Y-17320500D02*
X2525000Y-17350500D01*
X2585960Y-15519640D02*
X2615960Y-15549640D01*
X2615960Y-15519640D02*
X2585960Y-15549640D01*
X2591040Y-16337520D02*
X2621040Y-16367520D01*
X2621040Y-16337520D02*
X2591040Y-16367520D01*
X2657080Y-18664160D02*
X2687080Y-18694160D01*
X2687080Y-18664160D02*
X2657080Y-18694160D01*
X2687560Y-18146000D02*
X2717560Y-18176000D01*
X2717560Y-18146000D02*
X2687560Y-18176000D01*
X2718040Y-17343360D02*
X2748040Y-17373360D01*
X2748040Y-17343360D02*
X2718040Y-17373360D01*
X2728200Y-17126200D02*
X2758200Y-17156200D01*
X2758200Y-17126200D02*
X2728200Y-17156200D01*
X2728200Y-17206200D02*
X2758200Y-17236200D01*
X2758200Y-17206200D02*
X2728200Y-17236200D01*
X2813905Y-17523107D02*
X2843905Y-17553107D01*
X2843905Y-17523107D02*
X2813905Y-17553107D01*
X2023500Y-19113500D02*
G75*
G02*
X1948500Y-19113500I-37500J0D01*
G01*
X1948500Y-19113500D02*
G75*
G02*
X2023500Y-19113500I37500J0D01*
G01*
X2223500Y-19113500D02*
G75*
G02*
X2148500Y-19113500I-37500J0D01*
G01*
X2148500Y-19113500D02*
G75*
G02*
X2223500Y-19113500I37500J0D01*
G01*
X2423500Y-19113500D02*
G75*
G02*
X2348500Y-19113500I-37500J0D01*
G01*
X2348500Y-19113500D02*
G75*
G02*
X2423500Y-19113500I37500J0D01*
G01*
X2623500Y-19113500D02*
G75*
G02*
X2548500Y-19113500I-37500J0D01*
G01*
X2548500Y-19113500D02*
G75*
G02*
X2623500Y-19113500I37500J0D01*
G01*
D11*
X1806277Y-20049984D02*
X1806277Y-19849984D01*
X1806277Y-19849984D02*
X1853896Y-19849984D01*
X1853896Y-19849984D02*
X1882467Y-19859508D01*
X1882467Y-19859508D02*
X1901515Y-19878555D01*
X1901515Y-19878555D02*
X1911039Y-19897603D01*
X1911039Y-19897603D02*
X1920562Y-19935698D01*
X1920562Y-19935698D02*
X1920562Y-19964270D01*
X1920562Y-19964270D02*
X1911039Y-20002365D01*
X1911039Y-20002365D02*
X1901515Y-20021412D01*
X1901515Y-20021412D02*
X1882467Y-20040460D01*
X1882467Y-20040460D02*
X1853896Y-20049984D01*
X1853896Y-20049984D02*
X1806277Y-20049984D01*
X2006277Y-20049984D02*
X2006277Y-19916650D01*
X2006277Y-19954746D02*
X2015801Y-19935698D01*
X2015801Y-19935698D02*
X2025324Y-19926174D01*
X2025324Y-19926174D02*
X2044372Y-19916650D01*
X2044372Y-19916650D02*
X2063420Y-19916650D01*
X2130086Y-20049984D02*
X2130086Y-19916650D01*
X2130086Y-19849984D02*
X2120563Y-19859508D01*
X2120563Y-19859508D02*
X2130086Y-19869031D01*
X2130086Y-19869031D02*
X2139610Y-19859508D01*
X2139610Y-19859508D02*
X2130086Y-19849984D01*
X2130086Y-19849984D02*
X2130086Y-19869031D01*
X2253896Y-20049984D02*
X2234848Y-20040460D01*
X2234848Y-20040460D02*
X2225324Y-20021412D01*
X2225324Y-20021412D02*
X2225324Y-19849984D01*
X2358658Y-20049984D02*
X2339610Y-20040460D01*
X2339610Y-20040460D02*
X2330086Y-20021412D01*
X2330086Y-20021412D02*
X2330086Y-19849984D01*
X2587229Y-20049984D02*
X2587229Y-19849984D01*
X2587229Y-19849984D02*
X2653896Y-19992841D01*
X2653896Y-19992841D02*
X2720563Y-19849984D01*
X2720563Y-19849984D02*
X2720563Y-20049984D01*
X2901515Y-20049984D02*
X2901515Y-19945222D01*
X2901515Y-19945222D02*
X2891991Y-19926174D01*
X2891991Y-19926174D02*
X2872943Y-19916650D01*
X2872943Y-19916650D02*
X2834848Y-19916650D01*
X2834848Y-19916650D02*
X2815801Y-19926174D01*
X2901515Y-20040460D02*
X2882467Y-20049984D01*
X2882467Y-20049984D02*
X2834848Y-20049984D01*
X2834848Y-20049984D02*
X2815801Y-20040460D01*
X2815801Y-20040460D02*
X2806277Y-20021412D01*
X2806277Y-20021412D02*
X2806277Y-20002365D01*
X2806277Y-20002365D02*
X2815801Y-19983317D01*
X2815801Y-19983317D02*
X2834848Y-19973793D01*
X2834848Y-19973793D02*
X2882467Y-19973793D01*
X2882467Y-19973793D02*
X2901515Y-19964270D01*
X2996753Y-19916650D02*
X2996753Y-20116650D01*
X2996753Y-19926174D02*
X3015801Y-19916650D01*
X3015801Y-19916650D02*
X3053896Y-19916650D01*
X3053896Y-19916650D02*
X3072943Y-19926174D01*
X3072943Y-19926174D02*
X3082467Y-19935698D01*
X3082467Y-19935698D02*
X3091991Y-19954746D01*
X3091991Y-19954746D02*
X3091991Y-20011889D01*
X3091991Y-20011889D02*
X3082467Y-20030936D01*
X3082467Y-20030936D02*
X3072943Y-20040460D01*
X3072943Y-20040460D02*
X3053896Y-20049984D01*
X3053896Y-20049984D02*
X3015801Y-20049984D01*
X3015801Y-20049984D02*
X2996753Y-20040460D01*
X3177705Y-20030936D02*
X3187229Y-20040460D01*
X3187229Y-20040460D02*
X3177705Y-20049984D01*
X3177705Y-20049984D02*
X3168182Y-20040460D01*
X3168182Y-20040460D02*
X3177705Y-20030936D01*
X3177705Y-20030936D02*
X3177705Y-20049984D01*
X3177705Y-19926174D02*
X3187229Y-19935698D01*
X3187229Y-19935698D02*
X3177705Y-19945222D01*
X3177705Y-19945222D02*
X3168182Y-19935698D01*
X3168182Y-19935698D02*
X3177705Y-19926174D01*
X3177705Y-19926174D02*
X3177705Y-19945222D01*
D12*
X1515500Y-20363500D02*
X1545500Y-20393500D01*
X1545500Y-20363500D02*
X1515500Y-20393500D01*
D11*
X1844372Y-20269984D02*
X1863420Y-20269984D01*
X1863420Y-20269984D02*
X1882467Y-20279508D01*
X1882467Y-20279508D02*
X1891991Y-20289031D01*
X1891991Y-20289031D02*
X1901515Y-20308079D01*
X1901515Y-20308079D02*
X1911039Y-20346174D01*
X1911039Y-20346174D02*
X1911039Y-20393793D01*
X1911039Y-20393793D02*
X1901515Y-20431889D01*
X1901515Y-20431889D02*
X1891991Y-20450936D01*
X1891991Y-20450936D02*
X1882467Y-20460460D01*
X1882467Y-20460460D02*
X1863420Y-20469984D01*
X1863420Y-20469984D02*
X1844372Y-20469984D01*
X1844372Y-20469984D02*
X1825324Y-20460460D01*
X1825324Y-20460460D02*
X1815801Y-20450936D01*
X1815801Y-20450936D02*
X1806277Y-20431889D01*
X1806277Y-20431889D02*
X1796753Y-20393793D01*
X1796753Y-20393793D02*
X1796753Y-20346174D01*
X1796753Y-20346174D02*
X1806277Y-20308079D01*
X1806277Y-20308079D02*
X1815801Y-20289031D01*
X1815801Y-20289031D02*
X1825324Y-20279508D01*
X1825324Y-20279508D02*
X1844372Y-20269984D01*
X1996753Y-20450936D02*
X2006277Y-20460460D01*
X2006277Y-20460460D02*
X1996753Y-20469984D01*
X1996753Y-20469984D02*
X1987229Y-20460460D01*
X1987229Y-20460460D02*
X1996753Y-20450936D01*
X1996753Y-20450936D02*
X1996753Y-20469984D01*
X2072943Y-20269984D02*
X2196753Y-20269984D01*
X2196753Y-20269984D02*
X2130086Y-20346174D01*
X2130086Y-20346174D02*
X2158658Y-20346174D01*
X2158658Y-20346174D02*
X2177705Y-20355698D01*
X2177705Y-20355698D02*
X2187229Y-20365222D01*
X2187229Y-20365222D02*
X2196753Y-20384270D01*
X2196753Y-20384270D02*
X2196753Y-20431889D01*
X2196753Y-20431889D02*
X2187229Y-20450936D01*
X2187229Y-20450936D02*
X2177705Y-20460460D01*
X2177705Y-20460460D02*
X2158658Y-20469984D01*
X2158658Y-20469984D02*
X2101515Y-20469984D01*
X2101515Y-20469984D02*
X2082467Y-20460460D01*
X2082467Y-20460460D02*
X2072943Y-20450936D01*
X2320563Y-20269984D02*
X2339610Y-20269984D01*
X2339610Y-20269984D02*
X2358658Y-20279508D01*
X2358658Y-20279508D02*
X2368182Y-20289031D01*
X2368182Y-20289031D02*
X2377705Y-20308079D01*
X2377705Y-20308079D02*
X2387229Y-20346174D01*
X2387229Y-20346174D02*
X2387229Y-20393793D01*
X2387229Y-20393793D02*
X2377705Y-20431889D01*
X2377705Y-20431889D02*
X2368182Y-20450936D01*
X2368182Y-20450936D02*
X2358658Y-20460460D01*
X2358658Y-20460460D02*
X2339610Y-20469984D01*
X2339610Y-20469984D02*
X2320563Y-20469984D01*
X2320563Y-20469984D02*
X2301515Y-20460460D01*
X2301515Y-20460460D02*
X2291991Y-20450936D01*
X2291991Y-20450936D02*
X2282467Y-20431889D01*
X2282467Y-20431889D02*
X2272944Y-20393793D01*
X2272944Y-20393793D02*
X2272944Y-20346174D01*
X2272944Y-20346174D02*
X2282467Y-20308079D01*
X2282467Y-20308079D02*
X2291991Y-20289031D01*
X2291991Y-20289031D02*
X2301515Y-20279508D01*
X2301515Y-20279508D02*
X2320563Y-20269984D01*
X2511039Y-20269984D02*
X2530086Y-20269984D01*
X2530086Y-20269984D02*
X2549134Y-20279508D01*
X2549134Y-20279508D02*
X2558658Y-20289031D01*
X2558658Y-20289031D02*
X2568182Y-20308079D01*
X2568182Y-20308079D02*
X2577705Y-20346174D01*
X2577705Y-20346174D02*
X2577705Y-20393793D01*
X2577705Y-20393793D02*
X2568182Y-20431889D01*
X2568182Y-20431889D02*
X2558658Y-20450936D01*
X2558658Y-20450936D02*
X2549134Y-20460460D01*
X2549134Y-20460460D02*
X2530086Y-20469984D01*
X2530086Y-20469984D02*
X2511039Y-20469984D01*
X2511039Y-20469984D02*
X2491991Y-20460460D01*
X2491991Y-20460460D02*
X2482467Y-20450936D01*
X2482467Y-20450936D02*
X2472944Y-20431889D01*
X2472944Y-20431889D02*
X2463420Y-20393793D01*
X2463420Y-20393793D02*
X2463420Y-20346174D01*
X2463420Y-20346174D02*
X2472944Y-20308079D01*
X2472944Y-20308079D02*
X2482467Y-20289031D01*
X2482467Y-20289031D02*
X2491991Y-20279508D01*
X2491991Y-20279508D02*
X2511039Y-20269984D01*
X2663420Y-20469984D02*
X2663420Y-20336650D01*
X2663420Y-20355698D02*
X2672944Y-20346174D01*
X2672944Y-20346174D02*
X2691991Y-20336650D01*
X2691991Y-20336650D02*
X2720563Y-20336650D01*
X2720563Y-20336650D02*
X2739610Y-20346174D01*
X2739610Y-20346174D02*
X2749134Y-20365222D01*
X2749134Y-20365222D02*
X2749134Y-20469984D01*
X2749134Y-20365222D02*
X2758658Y-20346174D01*
X2758658Y-20346174D02*
X2777705Y-20336650D01*
X2777705Y-20336650D02*
X2806277Y-20336650D01*
X2806277Y-20336650D02*
X2825324Y-20346174D01*
X2825324Y-20346174D02*
X2834848Y-20365222D01*
X2834848Y-20365222D02*
X2834848Y-20469984D01*
X2930086Y-20469984D02*
X2930086Y-20336650D01*
X2930086Y-20355698D02*
X2939610Y-20346174D01*
X2939610Y-20346174D02*
X2958658Y-20336650D01*
X2958658Y-20336650D02*
X2987229Y-20336650D01*
X2987229Y-20336650D02*
X3006277Y-20346174D01*
X3006277Y-20346174D02*
X3015801Y-20365222D01*
X3015801Y-20365222D02*
X3015801Y-20469984D01*
X3015801Y-20365222D02*
X3025324Y-20346174D01*
X3025324Y-20346174D02*
X3044372Y-20336650D01*
X3044372Y-20336650D02*
X3072943Y-20336650D01*
X3072943Y-20336650D02*
X3091991Y-20346174D01*
X3091991Y-20346174D02*
X3101515Y-20365222D01*
X3101515Y-20365222D02*
X3101515Y-20469984D01*
X3491991Y-20260460D02*
X3320563Y-20517603D01*
X3749134Y-20269984D02*
X3768182Y-20269984D01*
X3768182Y-20269984D02*
X3787229Y-20279508D01*
X3787229Y-20279508D02*
X3796753Y-20289031D01*
X3796753Y-20289031D02*
X3806277Y-20308079D01*
X3806277Y-20308079D02*
X3815801Y-20346174D01*
X3815801Y-20346174D02*
X3815801Y-20393793D01*
X3815801Y-20393793D02*
X3806277Y-20431889D01*
X3806277Y-20431889D02*
X3796753Y-20450936D01*
X3796753Y-20450936D02*
X3787229Y-20460460D01*
X3787229Y-20460460D02*
X3768182Y-20469984D01*
X3768182Y-20469984D02*
X3749134Y-20469984D01*
X3749134Y-20469984D02*
X3730086Y-20460460D01*
X3730086Y-20460460D02*
X3720563Y-20450936D01*
X3720563Y-20450936D02*
X3711039Y-20431889D01*
X3711039Y-20431889D02*
X3701515Y-20393793D01*
X3701515Y-20393793D02*
X3701515Y-20346174D01*
X3701515Y-20346174D02*
X3711039Y-20308079D01*
X3711039Y-20308079D02*
X3720563Y-20289031D01*
X3720563Y-20289031D02*
X3730086Y-20279508D01*
X3730086Y-20279508D02*
X3749134Y-20269984D01*
X3901515Y-20450936D02*
X3911039Y-20460460D01*
X3911039Y-20460460D02*
X3901515Y-20469984D01*
X3901515Y-20469984D02*
X3891991Y-20460460D01*
X3891991Y-20460460D02*
X3901515Y-20450936D01*
X3901515Y-20450936D02*
X3901515Y-20469984D01*
X4034848Y-20269984D02*
X4053896Y-20269984D01*
X4053896Y-20269984D02*
X4072944Y-20279508D01*
X4072944Y-20279508D02*
X4082467Y-20289031D01*
X4082467Y-20289031D02*
X4091991Y-20308079D01*
X4091991Y-20308079D02*
X4101515Y-20346174D01*
X4101515Y-20346174D02*
X4101515Y-20393793D01*
X4101515Y-20393793D02*
X4091991Y-20431889D01*
X4091991Y-20431889D02*
X4082467Y-20450936D01*
X4082467Y-20450936D02*
X4072944Y-20460460D01*
X4072944Y-20460460D02*
X4053896Y-20469984D01*
X4053896Y-20469984D02*
X4034848Y-20469984D01*
X4034848Y-20469984D02*
X4015801Y-20460460D01*
X4015801Y-20460460D02*
X4006277Y-20450936D01*
X4006277Y-20450936D02*
X3996753Y-20431889D01*
X3996753Y-20431889D02*
X3987229Y-20393793D01*
X3987229Y-20393793D02*
X3987229Y-20346174D01*
X3987229Y-20346174D02*
X3996753Y-20308079D01*
X3996753Y-20308079D02*
X4006277Y-20289031D01*
X4006277Y-20289031D02*
X4015801Y-20279508D01*
X4015801Y-20279508D02*
X4034848Y-20269984D01*
X4291991Y-20469984D02*
X4177706Y-20469984D01*
X4234848Y-20469984D02*
X4234848Y-20269984D01*
X4234848Y-20269984D02*
X4215801Y-20298555D01*
X4215801Y-20298555D02*
X4196753Y-20317603D01*
X4196753Y-20317603D02*
X4177706Y-20327127D01*
X4482468Y-20469984D02*
X4368182Y-20469984D01*
X4425325Y-20469984D02*
X4425325Y-20269984D01*
X4425325Y-20269984D02*
X4406277Y-20298555D01*
X4406277Y-20298555D02*
X4387229Y-20317603D01*
X4387229Y-20317603D02*
X4368182Y-20327127D01*
X4596753Y-20355698D02*
X4577706Y-20346174D01*
X4577706Y-20346174D02*
X4568182Y-20336650D01*
X4568182Y-20336650D02*
X4558658Y-20317603D01*
X4558658Y-20317603D02*
X4558658Y-20308079D01*
X4558658Y-20308079D02*
X4568182Y-20289031D01*
X4568182Y-20289031D02*
X4577706Y-20279508D01*
X4577706Y-20279508D02*
X4596753Y-20269984D01*
X4596753Y-20269984D02*
X4634849Y-20269984D01*
X4634849Y-20269984D02*
X4653896Y-20279508D01*
X4653896Y-20279508D02*
X4663420Y-20289031D01*
X4663420Y-20289031D02*
X4672944Y-20308079D01*
X4672944Y-20308079D02*
X4672944Y-20317603D01*
X4672944Y-20317603D02*
X4663420Y-20336650D01*
X4663420Y-20336650D02*
X4653896Y-20346174D01*
X4653896Y-20346174D02*
X4634849Y-20355698D01*
X4634849Y-20355698D02*
X4596753Y-20355698D01*
X4596753Y-20355698D02*
X4577706Y-20365222D01*
X4577706Y-20365222D02*
X4568182Y-20374746D01*
X4568182Y-20374746D02*
X4558658Y-20393793D01*
X4558658Y-20393793D02*
X4558658Y-20431889D01*
X4558658Y-20431889D02*
X4568182Y-20450936D01*
X4568182Y-20450936D02*
X4577706Y-20460460D01*
X4577706Y-20460460D02*
X4596753Y-20469984D01*
X4596753Y-20469984D02*
X4634849Y-20469984D01*
X4634849Y-20469984D02*
X4653896Y-20460460D01*
X4653896Y-20460460D02*
X4663420Y-20450936D01*
X4663420Y-20450936D02*
X4672944Y-20431889D01*
X4672944Y-20431889D02*
X4672944Y-20393793D01*
X4672944Y-20393793D02*
X4663420Y-20374746D01*
X4663420Y-20374746D02*
X4653896Y-20365222D01*
X4653896Y-20365222D02*
X4634849Y-20355698D01*
X4749134Y-20269984D02*
X4749134Y-20308079D01*
X4825325Y-20269984D02*
X4825325Y-20308079D01*
X5120563Y-20546174D02*
X5111039Y-20536650D01*
X5111039Y-20536650D02*
X5091991Y-20508079D01*
X5091991Y-20508079D02*
X5082468Y-20489031D01*
X5082468Y-20489031D02*
X5072944Y-20460460D01*
X5072944Y-20460460D02*
X5063420Y-20412841D01*
X5063420Y-20412841D02*
X5063420Y-20374746D01*
X5063420Y-20374746D02*
X5072944Y-20327127D01*
X5072944Y-20327127D02*
X5082468Y-20298555D01*
X5082468Y-20298555D02*
X5091991Y-20279508D01*
X5091991Y-20279508D02*
X5111039Y-20250936D01*
X5111039Y-20250936D02*
X5120563Y-20241412D01*
X5187230Y-20289031D02*
X5196753Y-20279508D01*
X5196753Y-20279508D02*
X5215801Y-20269984D01*
X5215801Y-20269984D02*
X5263420Y-20269984D01*
X5263420Y-20269984D02*
X5282468Y-20279508D01*
X5282468Y-20279508D02*
X5291991Y-20289031D01*
X5291991Y-20289031D02*
X5301515Y-20308079D01*
X5301515Y-20308079D02*
X5301515Y-20327127D01*
X5301515Y-20327127D02*
X5291991Y-20355698D01*
X5291991Y-20355698D02*
X5177706Y-20469984D01*
X5177706Y-20469984D02*
X5301515Y-20469984D01*
X5472944Y-20269984D02*
X5434849Y-20269984D01*
X5434849Y-20269984D02*
X5415801Y-20279508D01*
X5415801Y-20279508D02*
X5406277Y-20289031D01*
X5406277Y-20289031D02*
X5387230Y-20317603D01*
X5387230Y-20317603D02*
X5377706Y-20355698D01*
X5377706Y-20355698D02*
X5377706Y-20431889D01*
X5377706Y-20431889D02*
X5387230Y-20450936D01*
X5387230Y-20450936D02*
X5396753Y-20460460D01*
X5396753Y-20460460D02*
X5415801Y-20469984D01*
X5415801Y-20469984D02*
X5453896Y-20469984D01*
X5453896Y-20469984D02*
X5472944Y-20460460D01*
X5472944Y-20460460D02*
X5482468Y-20450936D01*
X5482468Y-20450936D02*
X5491991Y-20431889D01*
X5491991Y-20431889D02*
X5491991Y-20384270D01*
X5491991Y-20384270D02*
X5482468Y-20365222D01*
X5482468Y-20365222D02*
X5472944Y-20355698D01*
X5472944Y-20355698D02*
X5453896Y-20346174D01*
X5453896Y-20346174D02*
X5415801Y-20346174D01*
X5415801Y-20346174D02*
X5396753Y-20355698D01*
X5396753Y-20355698D02*
X5387230Y-20365222D01*
X5387230Y-20365222D02*
X5377706Y-20384270D01*
X5730087Y-20469984D02*
X5730087Y-20269984D01*
X5815801Y-20469984D02*
X5815801Y-20365222D01*
X5815801Y-20365222D02*
X5806277Y-20346174D01*
X5806277Y-20346174D02*
X5787230Y-20336650D01*
X5787230Y-20336650D02*
X5758658Y-20336650D01*
X5758658Y-20336650D02*
X5739610Y-20346174D01*
X5739610Y-20346174D02*
X5730087Y-20355698D01*
X5939610Y-20469984D02*
X5920563Y-20460460D01*
X5920563Y-20460460D02*
X5911039Y-20450936D01*
X5911039Y-20450936D02*
X5901515Y-20431889D01*
X5901515Y-20431889D02*
X5901515Y-20374746D01*
X5901515Y-20374746D02*
X5911039Y-20355698D01*
X5911039Y-20355698D02*
X5920563Y-20346174D01*
X5920563Y-20346174D02*
X5939610Y-20336650D01*
X5939610Y-20336650D02*
X5968182Y-20336650D01*
X5968182Y-20336650D02*
X5987230Y-20346174D01*
X5987230Y-20346174D02*
X5996753Y-20355698D01*
X5996753Y-20355698D02*
X6006277Y-20374746D01*
X6006277Y-20374746D02*
X6006277Y-20431889D01*
X6006277Y-20431889D02*
X5996753Y-20450936D01*
X5996753Y-20450936D02*
X5987230Y-20460460D01*
X5987230Y-20460460D02*
X5968182Y-20469984D01*
X5968182Y-20469984D02*
X5939610Y-20469984D01*
X6120563Y-20469984D02*
X6101515Y-20460460D01*
X6101515Y-20460460D02*
X6091991Y-20441412D01*
X6091991Y-20441412D02*
X6091991Y-20269984D01*
X6272944Y-20460460D02*
X6253896Y-20469984D01*
X6253896Y-20469984D02*
X6215801Y-20469984D01*
X6215801Y-20469984D02*
X6196753Y-20460460D01*
X6196753Y-20460460D02*
X6187230Y-20441412D01*
X6187230Y-20441412D02*
X6187230Y-20365222D01*
X6187230Y-20365222D02*
X6196753Y-20346174D01*
X6196753Y-20346174D02*
X6215801Y-20336650D01*
X6215801Y-20336650D02*
X6253896Y-20336650D01*
X6253896Y-20336650D02*
X6272944Y-20346174D01*
X6272944Y-20346174D02*
X6282468Y-20365222D01*
X6282468Y-20365222D02*
X6282468Y-20384270D01*
X6282468Y-20384270D02*
X6187230Y-20403317D01*
X6358658Y-20460460D02*
X6377706Y-20469984D01*
X6377706Y-20469984D02*
X6415801Y-20469984D01*
X6415801Y-20469984D02*
X6434849Y-20460460D01*
X6434849Y-20460460D02*
X6444372Y-20441412D01*
X6444372Y-20441412D02*
X6444372Y-20431889D01*
X6444372Y-20431889D02*
X6434849Y-20412841D01*
X6434849Y-20412841D02*
X6415801Y-20403317D01*
X6415801Y-20403317D02*
X6387230Y-20403317D01*
X6387230Y-20403317D02*
X6368182Y-20393793D01*
X6368182Y-20393793D02*
X6358658Y-20374746D01*
X6358658Y-20374746D02*
X6358658Y-20365222D01*
X6358658Y-20365222D02*
X6368182Y-20346174D01*
X6368182Y-20346174D02*
X6387230Y-20336650D01*
X6387230Y-20336650D02*
X6415801Y-20336650D01*
X6415801Y-20336650D02*
X6434849Y-20346174D01*
X6511039Y-20546174D02*
X6520563Y-20536650D01*
X6520563Y-20536650D02*
X6539611Y-20508079D01*
X6539611Y-20508079D02*
X6549134Y-20489031D01*
X6549134Y-20489031D02*
X6558658Y-20460460D01*
X6558658Y-20460460D02*
X6568182Y-20412841D01*
X6568182Y-20412841D02*
X6568182Y-20374746D01*
X6568182Y-20374746D02*
X6558658Y-20327127D01*
X6558658Y-20327127D02*
X6549134Y-20298555D01*
X6549134Y-20298555D02*
X6539611Y-20279508D01*
X6539611Y-20279508D02*
X6520563Y-20250936D01*
X6520563Y-20250936D02*
X6511039Y-20241412D01*
D12*
X1545500Y-20642500D02*
G75*
G02*
X1470500Y-20642500I-37500J0D01*
G01*
X1470500Y-20642500D02*
G75*
G02*
X1545500Y-20642500I37500J0D01*
G01*
D11*
X1844372Y-20533984D02*
X1863420Y-20533984D01*
X1863420Y-20533984D02*
X1882467Y-20543508D01*
X1882467Y-20543508D02*
X1891991Y-20553031D01*
X1891991Y-20553031D02*
X1901515Y-20572079D01*
X1901515Y-20572079D02*
X1911039Y-20610174D01*
X1911039Y-20610174D02*
X1911039Y-20657793D01*
X1911039Y-20657793D02*
X1901515Y-20695889D01*
X1901515Y-20695889D02*
X1891991Y-20714936D01*
X1891991Y-20714936D02*
X1882467Y-20724460D01*
X1882467Y-20724460D02*
X1863420Y-20733984D01*
X1863420Y-20733984D02*
X1844372Y-20733984D01*
X1844372Y-20733984D02*
X1825324Y-20724460D01*
X1825324Y-20724460D02*
X1815801Y-20714936D01*
X1815801Y-20714936D02*
X1806277Y-20695889D01*
X1806277Y-20695889D02*
X1796753Y-20657793D01*
X1796753Y-20657793D02*
X1796753Y-20610174D01*
X1796753Y-20610174D02*
X1806277Y-20572079D01*
X1806277Y-20572079D02*
X1815801Y-20553031D01*
X1815801Y-20553031D02*
X1825324Y-20543508D01*
X1825324Y-20543508D02*
X1844372Y-20533984D01*
X1996753Y-20714936D02*
X2006277Y-20724460D01*
X2006277Y-20724460D02*
X1996753Y-20733984D01*
X1996753Y-20733984D02*
X1987229Y-20724460D01*
X1987229Y-20724460D02*
X1996753Y-20714936D01*
X1996753Y-20714936D02*
X1996753Y-20733984D01*
X2072943Y-20533984D02*
X2206277Y-20533984D01*
X2206277Y-20533984D02*
X2120563Y-20733984D01*
X2377705Y-20533984D02*
X2282467Y-20533984D01*
X2282467Y-20533984D02*
X2272944Y-20629222D01*
X2272944Y-20629222D02*
X2282467Y-20619698D01*
X2282467Y-20619698D02*
X2301515Y-20610174D01*
X2301515Y-20610174D02*
X2349134Y-20610174D01*
X2349134Y-20610174D02*
X2368182Y-20619698D01*
X2368182Y-20619698D02*
X2377705Y-20629222D01*
X2377705Y-20629222D02*
X2387229Y-20648270D01*
X2387229Y-20648270D02*
X2387229Y-20695889D01*
X2387229Y-20695889D02*
X2377705Y-20714936D01*
X2377705Y-20714936D02*
X2368182Y-20724460D01*
X2368182Y-20724460D02*
X2349134Y-20733984D01*
X2349134Y-20733984D02*
X2301515Y-20733984D01*
X2301515Y-20733984D02*
X2282467Y-20724460D01*
X2282467Y-20724460D02*
X2272944Y-20714936D01*
X2511039Y-20533984D02*
X2530086Y-20533984D01*
X2530086Y-20533984D02*
X2549134Y-20543508D01*
X2549134Y-20543508D02*
X2558658Y-20553031D01*
X2558658Y-20553031D02*
X2568182Y-20572079D01*
X2568182Y-20572079D02*
X2577705Y-20610174D01*
X2577705Y-20610174D02*
X2577705Y-20657793D01*
X2577705Y-20657793D02*
X2568182Y-20695889D01*
X2568182Y-20695889D02*
X2558658Y-20714936D01*
X2558658Y-20714936D02*
X2549134Y-20724460D01*
X2549134Y-20724460D02*
X2530086Y-20733984D01*
X2530086Y-20733984D02*
X2511039Y-20733984D01*
X2511039Y-20733984D02*
X2491991Y-20724460D01*
X2491991Y-20724460D02*
X2482467Y-20714936D01*
X2482467Y-20714936D02*
X2472944Y-20695889D01*
X2472944Y-20695889D02*
X2463420Y-20657793D01*
X2463420Y-20657793D02*
X2463420Y-20610174D01*
X2463420Y-20610174D02*
X2472944Y-20572079D01*
X2472944Y-20572079D02*
X2482467Y-20553031D01*
X2482467Y-20553031D02*
X2491991Y-20543508D01*
X2491991Y-20543508D02*
X2511039Y-20533984D01*
X2663420Y-20733984D02*
X2663420Y-20600650D01*
X2663420Y-20619698D02*
X2672944Y-20610174D01*
X2672944Y-20610174D02*
X2691991Y-20600650D01*
X2691991Y-20600650D02*
X2720563Y-20600650D01*
X2720563Y-20600650D02*
X2739610Y-20610174D01*
X2739610Y-20610174D02*
X2749134Y-20629222D01*
X2749134Y-20629222D02*
X2749134Y-20733984D01*
X2749134Y-20629222D02*
X2758658Y-20610174D01*
X2758658Y-20610174D02*
X2777705Y-20600650D01*
X2777705Y-20600650D02*
X2806277Y-20600650D01*
X2806277Y-20600650D02*
X2825324Y-20610174D01*
X2825324Y-20610174D02*
X2834848Y-20629222D01*
X2834848Y-20629222D02*
X2834848Y-20733984D01*
X2930086Y-20733984D02*
X2930086Y-20600650D01*
X2930086Y-20619698D02*
X2939610Y-20610174D01*
X2939610Y-20610174D02*
X2958658Y-20600650D01*
X2958658Y-20600650D02*
X2987229Y-20600650D01*
X2987229Y-20600650D02*
X3006277Y-20610174D01*
X3006277Y-20610174D02*
X3015801Y-20629222D01*
X3015801Y-20629222D02*
X3015801Y-20733984D01*
X3015801Y-20629222D02*
X3025324Y-20610174D01*
X3025324Y-20610174D02*
X3044372Y-20600650D01*
X3044372Y-20600650D02*
X3072943Y-20600650D01*
X3072943Y-20600650D02*
X3091991Y-20610174D01*
X3091991Y-20610174D02*
X3101515Y-20629222D01*
X3101515Y-20629222D02*
X3101515Y-20733984D01*
X3491991Y-20524460D02*
X3320563Y-20781603D01*
X3749134Y-20533984D02*
X3768182Y-20533984D01*
X3768182Y-20533984D02*
X3787229Y-20543508D01*
X3787229Y-20543508D02*
X3796753Y-20553031D01*
X3796753Y-20553031D02*
X3806277Y-20572079D01*
X3806277Y-20572079D02*
X3815801Y-20610174D01*
X3815801Y-20610174D02*
X3815801Y-20657793D01*
X3815801Y-20657793D02*
X3806277Y-20695889D01*
X3806277Y-20695889D02*
X3796753Y-20714936D01*
X3796753Y-20714936D02*
X3787229Y-20724460D01*
X3787229Y-20724460D02*
X3768182Y-20733984D01*
X3768182Y-20733984D02*
X3749134Y-20733984D01*
X3749134Y-20733984D02*
X3730086Y-20724460D01*
X3730086Y-20724460D02*
X3720563Y-20714936D01*
X3720563Y-20714936D02*
X3711039Y-20695889D01*
X3711039Y-20695889D02*
X3701515Y-20657793D01*
X3701515Y-20657793D02*
X3701515Y-20610174D01*
X3701515Y-20610174D02*
X3711039Y-20572079D01*
X3711039Y-20572079D02*
X3720563Y-20553031D01*
X3720563Y-20553031D02*
X3730086Y-20543508D01*
X3730086Y-20543508D02*
X3749134Y-20533984D01*
X3901515Y-20714936D02*
X3911039Y-20724460D01*
X3911039Y-20724460D02*
X3901515Y-20733984D01*
X3901515Y-20733984D02*
X3891991Y-20724460D01*
X3891991Y-20724460D02*
X3901515Y-20714936D01*
X3901515Y-20714936D02*
X3901515Y-20733984D01*
X4034848Y-20533984D02*
X4053896Y-20533984D01*
X4053896Y-20533984D02*
X4072944Y-20543508D01*
X4072944Y-20543508D02*
X4082467Y-20553031D01*
X4082467Y-20553031D02*
X4091991Y-20572079D01*
X4091991Y-20572079D02*
X4101515Y-20610174D01*
X4101515Y-20610174D02*
X4101515Y-20657793D01*
X4101515Y-20657793D02*
X4091991Y-20695889D01*
X4091991Y-20695889D02*
X4082467Y-20714936D01*
X4082467Y-20714936D02*
X4072944Y-20724460D01*
X4072944Y-20724460D02*
X4053896Y-20733984D01*
X4053896Y-20733984D02*
X4034848Y-20733984D01*
X4034848Y-20733984D02*
X4015801Y-20724460D01*
X4015801Y-20724460D02*
X4006277Y-20714936D01*
X4006277Y-20714936D02*
X3996753Y-20695889D01*
X3996753Y-20695889D02*
X3987229Y-20657793D01*
X3987229Y-20657793D02*
X3987229Y-20610174D01*
X3987229Y-20610174D02*
X3996753Y-20572079D01*
X3996753Y-20572079D02*
X4006277Y-20553031D01*
X4006277Y-20553031D02*
X4015801Y-20543508D01*
X4015801Y-20543508D02*
X4034848Y-20533984D01*
X4177706Y-20553031D02*
X4187229Y-20543508D01*
X4187229Y-20543508D02*
X4206277Y-20533984D01*
X4206277Y-20533984D02*
X4253896Y-20533984D01*
X4253896Y-20533984D02*
X4272944Y-20543508D01*
X4272944Y-20543508D02*
X4282468Y-20553031D01*
X4282468Y-20553031D02*
X4291991Y-20572079D01*
X4291991Y-20572079D02*
X4291991Y-20591127D01*
X4291991Y-20591127D02*
X4282468Y-20619698D01*
X4282468Y-20619698D02*
X4168182Y-20733984D01*
X4168182Y-20733984D02*
X4291991Y-20733984D01*
X4387229Y-20733984D02*
X4425325Y-20733984D01*
X4425325Y-20733984D02*
X4444372Y-20724460D01*
X4444372Y-20724460D02*
X4453896Y-20714936D01*
X4453896Y-20714936D02*
X4472944Y-20686365D01*
X4472944Y-20686365D02*
X4482468Y-20648270D01*
X4482468Y-20648270D02*
X4482468Y-20572079D01*
X4482468Y-20572079D02*
X4472944Y-20553031D01*
X4472944Y-20553031D02*
X4463420Y-20543508D01*
X4463420Y-20543508D02*
X4444372Y-20533984D01*
X4444372Y-20533984D02*
X4406277Y-20533984D01*
X4406277Y-20533984D02*
X4387229Y-20543508D01*
X4387229Y-20543508D02*
X4377706Y-20553031D01*
X4377706Y-20553031D02*
X4368182Y-20572079D01*
X4368182Y-20572079D02*
X4368182Y-20619698D01*
X4368182Y-20619698D02*
X4377706Y-20638746D01*
X4377706Y-20638746D02*
X4387229Y-20648270D01*
X4387229Y-20648270D02*
X4406277Y-20657793D01*
X4406277Y-20657793D02*
X4444372Y-20657793D01*
X4444372Y-20657793D02*
X4463420Y-20648270D01*
X4463420Y-20648270D02*
X4472944Y-20638746D01*
X4472944Y-20638746D02*
X4482468Y-20619698D01*
X4663420Y-20533984D02*
X4568182Y-20533984D01*
X4568182Y-20533984D02*
X4558658Y-20629222D01*
X4558658Y-20629222D02*
X4568182Y-20619698D01*
X4568182Y-20619698D02*
X4587229Y-20610174D01*
X4587229Y-20610174D02*
X4634849Y-20610174D01*
X4634849Y-20610174D02*
X4653896Y-20619698D01*
X4653896Y-20619698D02*
X4663420Y-20629222D01*
X4663420Y-20629222D02*
X4672944Y-20648270D01*
X4672944Y-20648270D02*
X4672944Y-20695889D01*
X4672944Y-20695889D02*
X4663420Y-20714936D01*
X4663420Y-20714936D02*
X4653896Y-20724460D01*
X4653896Y-20724460D02*
X4634849Y-20733984D01*
X4634849Y-20733984D02*
X4587229Y-20733984D01*
X4587229Y-20733984D02*
X4568182Y-20724460D01*
X4568182Y-20724460D02*
X4558658Y-20714936D01*
X4749134Y-20533984D02*
X4749134Y-20572079D01*
X4825325Y-20533984D02*
X4825325Y-20572079D01*
X5120563Y-20810174D02*
X5111039Y-20800650D01*
X5111039Y-20800650D02*
X5091991Y-20772079D01*
X5091991Y-20772079D02*
X5082468Y-20753031D01*
X5082468Y-20753031D02*
X5072944Y-20724460D01*
X5072944Y-20724460D02*
X5063420Y-20676841D01*
X5063420Y-20676841D02*
X5063420Y-20638746D01*
X5063420Y-20638746D02*
X5072944Y-20591127D01*
X5072944Y-20591127D02*
X5082468Y-20562555D01*
X5082468Y-20562555D02*
X5091991Y-20543508D01*
X5091991Y-20543508D02*
X5111039Y-20514936D01*
X5111039Y-20514936D02*
X5120563Y-20505412D01*
X5282468Y-20600650D02*
X5282468Y-20733984D01*
X5234849Y-20524460D02*
X5187230Y-20667317D01*
X5187230Y-20667317D02*
X5311039Y-20667317D01*
X5539611Y-20733984D02*
X5539611Y-20533984D01*
X5625325Y-20733984D02*
X5625325Y-20629222D01*
X5625325Y-20629222D02*
X5615801Y-20610174D01*
X5615801Y-20610174D02*
X5596753Y-20600650D01*
X5596753Y-20600650D02*
X5568182Y-20600650D01*
X5568182Y-20600650D02*
X5549134Y-20610174D01*
X5549134Y-20610174D02*
X5539611Y-20619698D01*
X5749134Y-20733984D02*
X5730087Y-20724460D01*
X5730087Y-20724460D02*
X5720563Y-20714936D01*
X5720563Y-20714936D02*
X5711039Y-20695889D01*
X5711039Y-20695889D02*
X5711039Y-20638746D01*
X5711039Y-20638746D02*
X5720563Y-20619698D01*
X5720563Y-20619698D02*
X5730087Y-20610174D01*
X5730087Y-20610174D02*
X5749134Y-20600650D01*
X5749134Y-20600650D02*
X5777706Y-20600650D01*
X5777706Y-20600650D02*
X5796753Y-20610174D01*
X5796753Y-20610174D02*
X5806277Y-20619698D01*
X5806277Y-20619698D02*
X5815801Y-20638746D01*
X5815801Y-20638746D02*
X5815801Y-20695889D01*
X5815801Y-20695889D02*
X5806277Y-20714936D01*
X5806277Y-20714936D02*
X5796753Y-20724460D01*
X5796753Y-20724460D02*
X5777706Y-20733984D01*
X5777706Y-20733984D02*
X5749134Y-20733984D01*
X5930087Y-20733984D02*
X5911039Y-20724460D01*
X5911039Y-20724460D02*
X5901515Y-20705412D01*
X5901515Y-20705412D02*
X5901515Y-20533984D01*
X6082468Y-20724460D02*
X6063420Y-20733984D01*
X6063420Y-20733984D02*
X6025325Y-20733984D01*
X6025325Y-20733984D02*
X6006277Y-20724460D01*
X6006277Y-20724460D02*
X5996753Y-20705412D01*
X5996753Y-20705412D02*
X5996753Y-20629222D01*
X5996753Y-20629222D02*
X6006277Y-20610174D01*
X6006277Y-20610174D02*
X6025325Y-20600650D01*
X6025325Y-20600650D02*
X6063420Y-20600650D01*
X6063420Y-20600650D02*
X6082468Y-20610174D01*
X6082468Y-20610174D02*
X6091991Y-20629222D01*
X6091991Y-20629222D02*
X6091991Y-20648270D01*
X6091991Y-20648270D02*
X5996753Y-20667317D01*
X6168182Y-20724460D02*
X6187230Y-20733984D01*
X6187230Y-20733984D02*
X6225325Y-20733984D01*
X6225325Y-20733984D02*
X6244372Y-20724460D01*
X6244372Y-20724460D02*
X6253896Y-20705412D01*
X6253896Y-20705412D02*
X6253896Y-20695889D01*
X6253896Y-20695889D02*
X6244372Y-20676841D01*
X6244372Y-20676841D02*
X6225325Y-20667317D01*
X6225325Y-20667317D02*
X6196753Y-20667317D01*
X6196753Y-20667317D02*
X6177706Y-20657793D01*
X6177706Y-20657793D02*
X6168182Y-20638746D01*
X6168182Y-20638746D02*
X6168182Y-20629222D01*
X6168182Y-20629222D02*
X6177706Y-20610174D01*
X6177706Y-20610174D02*
X6196753Y-20600650D01*
X6196753Y-20600650D02*
X6225325Y-20600650D01*
X6225325Y-20600650D02*
X6244372Y-20610174D01*
X6320563Y-20810174D02*
X6330087Y-20800650D01*
X6330087Y-20800650D02*
X6349134Y-20772079D01*
X6349134Y-20772079D02*
X6358658Y-20753031D01*
X6358658Y-20753031D02*
X6368182Y-20724460D01*
X6368182Y-20724460D02*
X6377706Y-20676841D01*
X6377706Y-20676841D02*
X6377706Y-20638746D01*
X6377706Y-20638746D02*
X6368182Y-20591127D01*
X6368182Y-20591127D02*
X6358658Y-20562555D01*
X6358658Y-20562555D02*
X6349134Y-20543508D01*
X6349134Y-20543508D02*
X6330087Y-20514936D01*
X6330087Y-20514936D02*
X6320563Y-20505412D01*
M02*
