G04 #@! TF.GenerationSoftware,KiCad,Pcbnew,8.0.0-8.0.0-1~ubuntu20.04.1*
G04 #@! TF.CreationDate,2025-04-06T10:38:36+02:00*
G04 #@! TF.ProjectId,sensor-pressure,73656e73-6f72-42d7-9072-657373757265,1*
G04 #@! TF.SameCoordinates,Original*
G04 #@! TF.FileFunction,Copper,L2,Inr*
G04 #@! TF.FilePolarity,Positive*
%FSLAX46Y46*%
G04 Gerber Fmt 4.6, Leading zero omitted, Abs format (unit mm)*
G04 Created by KiCad (PCBNEW 8.0.0-8.0.0-1~ubuntu20.04.1) date 2025-04-06 10:38:36*
%MOMM*%
%LPD*%
G01*
G04 APERTURE LIST*
G04 Aperture macros list*
%AMRoundRect*
0 Rectangle with rounded corners*
0 $1 Rounding radius*
0 $2 $3 $4 $5 $6 $7 $8 $9 X,Y pos of 4 corners*
0 Add a 4 corners polygon primitive as box body*
4,1,4,$2,$3,$4,$5,$6,$7,$8,$9,$2,$3,0*
0 Add four circle primitives for the rounded corners*
1,1,$1+$1,$2,$3*
1,1,$1+$1,$4,$5*
1,1,$1+$1,$6,$7*
1,1,$1+$1,$8,$9*
0 Add four rect primitives between the rounded corners*
20,1,$1+$1,$2,$3,$4,$5,0*
20,1,$1+$1,$4,$5,$6,$7,0*
20,1,$1+$1,$6,$7,$8,$9,0*
20,1,$1+$1,$8,$9,$2,$3,0*%
G04 Aperture macros list end*
G04 #@! TA.AperFunction,ComponentPad*
%ADD10RoundRect,0.250000X-0.350000X-0.625000X0.350000X-0.625000X0.350000X0.625000X-0.350000X0.625000X0*%
G04 #@! TD*
G04 #@! TA.AperFunction,ComponentPad*
%ADD11O,1.200000X1.750000*%
G04 #@! TD*
G04 #@! TA.AperFunction,ViaPad*
%ADD12C,0.600000*%
G04 #@! TD*
G04 APERTURE END LIST*
D10*
X19860000Y-191135000D03*
D11*
X21860000Y-191135000D03*
X23860000Y-191135000D03*
X25860000Y-191135000D03*
D12*
X26720800Y-186791600D03*
X27025600Y-181610000D03*
X26009600Y-155346400D03*
X25044400Y-168249600D03*
X20929600Y-163068000D03*
X17907000Y-176149000D03*
X23825200Y-187096400D03*
X18923000Y-168783000D03*
X23906600Y-170011000D03*
X27330400Y-173583600D03*
X26060400Y-163525200D03*
X24485600Y-179120800D03*
X19710400Y-155295600D03*
X23317200Y-162610800D03*
X17653000Y-170434000D03*
X20955000Y-165608000D03*
X28289051Y-175381071D03*
X24384000Y-181610000D03*
X23876000Y-184023000D03*
X17907000Y-173609000D03*
X25400000Y-173355000D03*
X17907000Y-174879000D03*
X27432000Y-171411997D03*
X19685000Y-165608000D03*
X27432000Y-172212000D03*
X18415000Y-165608000D03*
G04 #@! TA.AperFunction,Conductor*
G36*
X29922539Y-150380185D02*
G01*
X29968294Y-150432989D01*
X29979500Y-150484500D01*
X29979500Y-196735500D01*
X29959815Y-196802539D01*
X29907011Y-196848294D01*
X29855500Y-196859500D01*
X16104500Y-196859500D01*
X16037461Y-196839815D01*
X15991706Y-196787011D01*
X15980500Y-196735500D01*
X15980500Y-190885000D01*
X18760000Y-190885000D01*
X19579670Y-190885000D01*
X19559925Y-190904745D01*
X19510556Y-190990255D01*
X19485000Y-191085630D01*
X19485000Y-191184370D01*
X19510556Y-191279745D01*
X19559925Y-191365255D01*
X19579670Y-191385000D01*
X18760001Y-191385000D01*
X18760001Y-191809986D01*
X18770494Y-191912697D01*
X18825641Y-192079119D01*
X18825643Y-192079124D01*
X18917684Y-192228345D01*
X19041654Y-192352315D01*
X19190875Y-192444356D01*
X19190880Y-192444358D01*
X19357302Y-192499505D01*
X19357309Y-192499506D01*
X19460019Y-192509999D01*
X19609999Y-192509999D01*
X19610000Y-192509998D01*
X19610000Y-191415330D01*
X19629745Y-191435075D01*
X19715255Y-191484444D01*
X19810630Y-191510000D01*
X19909370Y-191510000D01*
X20004745Y-191484444D01*
X20090255Y-191435075D01*
X20110000Y-191415330D01*
X20110000Y-192509999D01*
X20259972Y-192509999D01*
X20259986Y-192509998D01*
X20362697Y-192499505D01*
X20529119Y-192444358D01*
X20529124Y-192444356D01*
X20678345Y-192352315D01*
X20802315Y-192228345D01*
X20841945Y-192164094D01*
X20893893Y-192117368D01*
X20962855Y-192106145D01*
X21026937Y-192133988D01*
X21035166Y-192141508D01*
X21143072Y-192249414D01*
X21283212Y-192351232D01*
X21437555Y-192429873D01*
X21602299Y-192483402D01*
X21773389Y-192510500D01*
X21773390Y-192510500D01*
X21946610Y-192510500D01*
X21946611Y-192510500D01*
X22117701Y-192483402D01*
X22282445Y-192429873D01*
X22436788Y-192351232D01*
X22576928Y-192249414D01*
X22699414Y-192126928D01*
X22759682Y-192043975D01*
X22815012Y-192001311D01*
X22884626Y-191995332D01*
X22946421Y-192027938D01*
X22960315Y-192043973D01*
X23020586Y-192126928D01*
X23143072Y-192249414D01*
X23283212Y-192351232D01*
X23437555Y-192429873D01*
X23602299Y-192483402D01*
X23773389Y-192510500D01*
X23773390Y-192510500D01*
X23946610Y-192510500D01*
X23946611Y-192510500D01*
X24117701Y-192483402D01*
X24282445Y-192429873D01*
X24436788Y-192351232D01*
X24576928Y-192249414D01*
X24699414Y-192126928D01*
X24759682Y-192043975D01*
X24815012Y-192001311D01*
X24884626Y-191995332D01*
X24946421Y-192027938D01*
X24960315Y-192043973D01*
X25020586Y-192126928D01*
X25143072Y-192249414D01*
X25283212Y-192351232D01*
X25437555Y-192429873D01*
X25602299Y-192483402D01*
X25773389Y-192510500D01*
X25773390Y-192510500D01*
X25946610Y-192510500D01*
X25946611Y-192510500D01*
X26117701Y-192483402D01*
X26282445Y-192429873D01*
X26436788Y-192351232D01*
X26576928Y-192249414D01*
X26699414Y-192126928D01*
X26801232Y-191986788D01*
X26879873Y-191832445D01*
X26933402Y-191667701D01*
X26960500Y-191496611D01*
X26960500Y-190773389D01*
X26933402Y-190602299D01*
X26879873Y-190437555D01*
X26801232Y-190283212D01*
X26699414Y-190143072D01*
X26576928Y-190020586D01*
X26436788Y-189918768D01*
X26282445Y-189840127D01*
X26117701Y-189786598D01*
X26117699Y-189786597D01*
X26117698Y-189786597D01*
X25986271Y-189765781D01*
X25946611Y-189759500D01*
X25773389Y-189759500D01*
X25733728Y-189765781D01*
X25602302Y-189786597D01*
X25437552Y-189840128D01*
X25283211Y-189918768D01*
X25203256Y-189976859D01*
X25143072Y-190020586D01*
X25143070Y-190020588D01*
X25143069Y-190020588D01*
X25020588Y-190143069D01*
X25020581Y-190143078D01*
X24960317Y-190226023D01*
X24904987Y-190268689D01*
X24835374Y-190274667D01*
X24773579Y-190242061D01*
X24759683Y-190226023D01*
X24711899Y-190160257D01*
X24699414Y-190143072D01*
X24576928Y-190020586D01*
X24436788Y-189918768D01*
X24282445Y-189840127D01*
X24117701Y-189786598D01*
X24117699Y-189786597D01*
X24117698Y-189786597D01*
X23986271Y-189765781D01*
X23946611Y-189759500D01*
X23773389Y-189759500D01*
X23733728Y-189765781D01*
X23602302Y-189786597D01*
X23437552Y-189840128D01*
X23283211Y-189918768D01*
X23203256Y-189976859D01*
X23143072Y-190020586D01*
X23143070Y-190020588D01*
X23143069Y-190020588D01*
X23020588Y-190143069D01*
X23020581Y-190143078D01*
X22960317Y-190226023D01*
X22904987Y-190268689D01*
X22835374Y-190274667D01*
X22773579Y-190242061D01*
X22759683Y-190226023D01*
X22711899Y-190160257D01*
X22699414Y-190143072D01*
X22576928Y-190020586D01*
X22436788Y-189918768D01*
X22282445Y-189840127D01*
X22117701Y-189786598D01*
X22117699Y-189786597D01*
X22117698Y-189786597D01*
X21986271Y-189765781D01*
X21946611Y-189759500D01*
X21773389Y-189759500D01*
X21733728Y-189765781D01*
X21602302Y-189786597D01*
X21437552Y-189840128D01*
X21283211Y-189918768D01*
X21143073Y-190020585D01*
X21035166Y-190128492D01*
X20973843Y-190161976D01*
X20904151Y-190156992D01*
X20848218Y-190115120D01*
X20841946Y-190105906D01*
X20802317Y-190041656D01*
X20678345Y-189917684D01*
X20529124Y-189825643D01*
X20529119Y-189825641D01*
X20362697Y-189770494D01*
X20362690Y-189770493D01*
X20259986Y-189760000D01*
X20110000Y-189760000D01*
X20110000Y-190854670D01*
X20090255Y-190834925D01*
X20004745Y-190785556D01*
X19909370Y-190760000D01*
X19810630Y-190760000D01*
X19715255Y-190785556D01*
X19629745Y-190834925D01*
X19610000Y-190854670D01*
X19610000Y-189760000D01*
X19460027Y-189760000D01*
X19460012Y-189760001D01*
X19357302Y-189770494D01*
X19190880Y-189825641D01*
X19190875Y-189825643D01*
X19041654Y-189917684D01*
X18917684Y-190041654D01*
X18825643Y-190190875D01*
X18825641Y-190190880D01*
X18770494Y-190357302D01*
X18770493Y-190357309D01*
X18760000Y-190460013D01*
X18760000Y-190885000D01*
X15980500Y-190885000D01*
X15980500Y-184023003D01*
X23070435Y-184023003D01*
X23090630Y-184202249D01*
X23090631Y-184202254D01*
X23150211Y-184372523D01*
X23246184Y-184525262D01*
X23373738Y-184652816D01*
X23526478Y-184748789D01*
X23696745Y-184808368D01*
X23696750Y-184808369D01*
X23875996Y-184828565D01*
X23876000Y-184828565D01*
X23876004Y-184828565D01*
X24055249Y-184808369D01*
X24055252Y-184808368D01*
X24055255Y-184808368D01*
X24225522Y-184748789D01*
X24378262Y-184652816D01*
X24505816Y-184525262D01*
X24601789Y-184372522D01*
X24661368Y-184202255D01*
X24681565Y-184023000D01*
X24661368Y-183843745D01*
X24601789Y-183673478D01*
X24505816Y-183520738D01*
X24378262Y-183393184D01*
X24225523Y-183297211D01*
X24055254Y-183237631D01*
X24055249Y-183237630D01*
X23876004Y-183217435D01*
X23875996Y-183217435D01*
X23696750Y-183237630D01*
X23696745Y-183237631D01*
X23526476Y-183297211D01*
X23373737Y-183393184D01*
X23246184Y-183520737D01*
X23150211Y-183673476D01*
X23090631Y-183843745D01*
X23090630Y-183843750D01*
X23070435Y-184022996D01*
X23070435Y-184023003D01*
X15980500Y-184023003D01*
X15980500Y-181610003D01*
X23578435Y-181610003D01*
X23598630Y-181789249D01*
X23598631Y-181789254D01*
X23658211Y-181959523D01*
X23754184Y-182112262D01*
X23881738Y-182239816D01*
X24034478Y-182335789D01*
X24204745Y-182395368D01*
X24204750Y-182395369D01*
X24383996Y-182415565D01*
X24384000Y-182415565D01*
X24384004Y-182415565D01*
X24563249Y-182395369D01*
X24563252Y-182395368D01*
X24563255Y-182395368D01*
X24733522Y-182335789D01*
X24886262Y-182239816D01*
X25013816Y-182112262D01*
X25109789Y-181959522D01*
X25169368Y-181789255D01*
X25189565Y-181610000D01*
X25169368Y-181430745D01*
X25109789Y-181260478D01*
X25013816Y-181107738D01*
X24886262Y-180980184D01*
X24733523Y-180884211D01*
X24563254Y-180824631D01*
X24563249Y-180824630D01*
X24384004Y-180804435D01*
X24383996Y-180804435D01*
X24204750Y-180824630D01*
X24204745Y-180824631D01*
X24034476Y-180884211D01*
X23881737Y-180980184D01*
X23754184Y-181107737D01*
X23658211Y-181260476D01*
X23598631Y-181430745D01*
X23598630Y-181430750D01*
X23578435Y-181609996D01*
X23578435Y-181610003D01*
X15980500Y-181610003D01*
X15980500Y-177492459D01*
X17669200Y-177492459D01*
X17697858Y-177636534D01*
X17697861Y-177636544D01*
X17754078Y-177772266D01*
X17754083Y-177772275D01*
X17835698Y-177894419D01*
X17835701Y-177894423D01*
X17939576Y-177998298D01*
X17939580Y-177998301D01*
X18061724Y-178079916D01*
X18061730Y-178079919D01*
X18061731Y-178079920D01*
X18197458Y-178136140D01*
X18341540Y-178164799D01*
X18341544Y-178164800D01*
X18341545Y-178164800D01*
X18488456Y-178164800D01*
X18488457Y-178164799D01*
X18632542Y-178136140D01*
X18768269Y-178079920D01*
X18890420Y-177998301D01*
X18994301Y-177894420D01*
X19075920Y-177772269D01*
X19132140Y-177636542D01*
X19160799Y-177492459D01*
X19701200Y-177492459D01*
X19729858Y-177636534D01*
X19729861Y-177636544D01*
X19786078Y-177772266D01*
X19786083Y-177772275D01*
X19867698Y-177894419D01*
X19867701Y-177894423D01*
X19971576Y-177998298D01*
X19971580Y-177998301D01*
X20093724Y-178079916D01*
X20093730Y-178079919D01*
X20093731Y-178079920D01*
X20229458Y-178136140D01*
X20373540Y-178164799D01*
X20373544Y-178164800D01*
X20373545Y-178164800D01*
X20520456Y-178164800D01*
X20520457Y-178164799D01*
X20664542Y-178136140D01*
X20800269Y-178079920D01*
X20922420Y-177998301D01*
X21026301Y-177894420D01*
X21107920Y-177772269D01*
X21164140Y-177636542D01*
X21192800Y-177492455D01*
X21192800Y-177345545D01*
X21164140Y-177201458D01*
X21107920Y-177065731D01*
X21107919Y-177065730D01*
X21107916Y-177065724D01*
X21026301Y-176943580D01*
X21026298Y-176943576D01*
X20922423Y-176839701D01*
X20922419Y-176839698D01*
X20800275Y-176758083D01*
X20800266Y-176758078D01*
X20664544Y-176701861D01*
X20664545Y-176701861D01*
X20664542Y-176701860D01*
X20664538Y-176701859D01*
X20664534Y-176701858D01*
X20520459Y-176673200D01*
X20520455Y-176673200D01*
X20373545Y-176673200D01*
X20373540Y-176673200D01*
X20229465Y-176701858D01*
X20229455Y-176701861D01*
X20093733Y-176758078D01*
X20093724Y-176758083D01*
X19971580Y-176839698D01*
X19971576Y-176839701D01*
X19867701Y-176943576D01*
X19867698Y-176943580D01*
X19786083Y-177065724D01*
X19786078Y-177065733D01*
X19729861Y-177201455D01*
X19729858Y-177201465D01*
X19701200Y-177345540D01*
X19701200Y-177492459D01*
X19160799Y-177492459D01*
X19160800Y-177492455D01*
X19160800Y-177345545D01*
X19132140Y-177201458D01*
X19075920Y-177065731D01*
X19075919Y-177065730D01*
X19075916Y-177065724D01*
X18994301Y-176943580D01*
X18994298Y-176943576D01*
X18890423Y-176839701D01*
X18890419Y-176839698D01*
X18768275Y-176758083D01*
X18768266Y-176758078D01*
X18632544Y-176701861D01*
X18632545Y-176701861D01*
X18632542Y-176701860D01*
X18632538Y-176701859D01*
X18632534Y-176701858D01*
X18488459Y-176673200D01*
X18488455Y-176673200D01*
X18341545Y-176673200D01*
X18341540Y-176673200D01*
X18197465Y-176701858D01*
X18197455Y-176701861D01*
X18061733Y-176758078D01*
X18061724Y-176758083D01*
X17939580Y-176839698D01*
X17939576Y-176839701D01*
X17835701Y-176943576D01*
X17835698Y-176943580D01*
X17754083Y-177065724D01*
X17754078Y-177065733D01*
X17697861Y-177201455D01*
X17697858Y-177201465D01*
X17669200Y-177345540D01*
X17669200Y-177492459D01*
X15980500Y-177492459D01*
X15980500Y-174879003D01*
X17101435Y-174879003D01*
X17121630Y-175058249D01*
X17121631Y-175058254D01*
X17181211Y-175228523D01*
X17277061Y-175381067D01*
X17277184Y-175381262D01*
X17404738Y-175508816D01*
X17557478Y-175604789D01*
X17727745Y-175664368D01*
X17727750Y-175664369D01*
X17906996Y-175684565D01*
X17907000Y-175684565D01*
X17907004Y-175684565D01*
X18086249Y-175664369D01*
X18086252Y-175664368D01*
X18086255Y-175664368D01*
X18256522Y-175604789D01*
X18409262Y-175508816D01*
X18536816Y-175381262D01*
X18536934Y-175381074D01*
X27483486Y-175381074D01*
X27503681Y-175560320D01*
X27503682Y-175560325D01*
X27563262Y-175730594D01*
X27659235Y-175883333D01*
X27786789Y-176010887D01*
X27939529Y-176106860D01*
X28109796Y-176166439D01*
X28109801Y-176166440D01*
X28289047Y-176186636D01*
X28289051Y-176186636D01*
X28289055Y-176186636D01*
X28468300Y-176166440D01*
X28468303Y-176166439D01*
X28468306Y-176166439D01*
X28638573Y-176106860D01*
X28791313Y-176010887D01*
X28918867Y-175883333D01*
X29014840Y-175730593D01*
X29074419Y-175560326D01*
X29080223Y-175508815D01*
X29094616Y-175381074D01*
X29094616Y-175381067D01*
X29074420Y-175201821D01*
X29074419Y-175201816D01*
X29024184Y-175058254D01*
X29014840Y-175031549D01*
X28918867Y-174878809D01*
X28791313Y-174751255D01*
X28638574Y-174655282D01*
X28468305Y-174595702D01*
X28468300Y-174595701D01*
X28289055Y-174575506D01*
X28289047Y-174575506D01*
X28109801Y-174595701D01*
X28109796Y-174595702D01*
X27939527Y-174655282D01*
X27786788Y-174751255D01*
X27659235Y-174878808D01*
X27563262Y-175031547D01*
X27503682Y-175201816D01*
X27503681Y-175201821D01*
X27483486Y-175381067D01*
X27483486Y-175381074D01*
X18536934Y-175381074D01*
X18632789Y-175228522D01*
X18692368Y-175058255D01*
X18695377Y-175031549D01*
X18712565Y-174879003D01*
X18712565Y-174878996D01*
X18692369Y-174699750D01*
X18692368Y-174699745D01*
X18632788Y-174529476D01*
X18536815Y-174376737D01*
X18491759Y-174331681D01*
X18458274Y-174270358D01*
X18463258Y-174200666D01*
X18491759Y-174156319D01*
X18507710Y-174140368D01*
X18536816Y-174111262D01*
X18632789Y-173958522D01*
X18692368Y-173788255D01*
X18692369Y-173788249D01*
X18712565Y-173609003D01*
X18712565Y-173608996D01*
X18692369Y-173429750D01*
X18692368Y-173429745D01*
X18666215Y-173355003D01*
X24594435Y-173355003D01*
X24614630Y-173534249D01*
X24614631Y-173534254D01*
X24674211Y-173704523D01*
X24726820Y-173788249D01*
X24770184Y-173857262D01*
X24897738Y-173984816D01*
X25050478Y-174080789D01*
X25137565Y-174111262D01*
X25220745Y-174140368D01*
X25220750Y-174140369D01*
X25399996Y-174160565D01*
X25400000Y-174160565D01*
X25400004Y-174160565D01*
X25579249Y-174140369D01*
X25579252Y-174140368D01*
X25579255Y-174140368D01*
X25749522Y-174080789D01*
X25902262Y-173984816D01*
X26029816Y-173857262D01*
X26125789Y-173704522D01*
X26185368Y-173534255D01*
X26197143Y-173429750D01*
X26205565Y-173355003D01*
X26205565Y-173354996D01*
X26185369Y-173175750D01*
X26185368Y-173175745D01*
X26153545Y-173084800D01*
X26125789Y-173005478D01*
X26122297Y-172999921D01*
X26083257Y-172937789D01*
X26029816Y-172852738D01*
X25902262Y-172725184D01*
X25849878Y-172692269D01*
X25749523Y-172629211D01*
X25579254Y-172569631D01*
X25579249Y-172569630D01*
X25400004Y-172549435D01*
X25399996Y-172549435D01*
X25220750Y-172569630D01*
X25220745Y-172569631D01*
X25050476Y-172629211D01*
X24897737Y-172725184D01*
X24770184Y-172852737D01*
X24674211Y-173005476D01*
X24614631Y-173175745D01*
X24614630Y-173175750D01*
X24594435Y-173354996D01*
X24594435Y-173355003D01*
X18666215Y-173355003D01*
X18632789Y-173259478D01*
X18536816Y-173106738D01*
X18409262Y-172979184D01*
X18256523Y-172883211D01*
X18086254Y-172823631D01*
X18086249Y-172823630D01*
X17907004Y-172803435D01*
X17906996Y-172803435D01*
X17727750Y-172823630D01*
X17727745Y-172823631D01*
X17557476Y-172883211D01*
X17404737Y-172979184D01*
X17277184Y-173106737D01*
X17181211Y-173259476D01*
X17121631Y-173429745D01*
X17121630Y-173429750D01*
X17101435Y-173608996D01*
X17101435Y-173609003D01*
X17121630Y-173788249D01*
X17121631Y-173788254D01*
X17181211Y-173958523D01*
X17277184Y-174111262D01*
X17277185Y-174111263D01*
X17322241Y-174156320D01*
X17355725Y-174217643D01*
X17350740Y-174287335D01*
X17322241Y-174331680D01*
X17277184Y-174376737D01*
X17181211Y-174529476D01*
X17121631Y-174699745D01*
X17121630Y-174699750D01*
X17101435Y-174878996D01*
X17101435Y-174879003D01*
X15980500Y-174879003D01*
X15980500Y-172412459D01*
X18685200Y-172412459D01*
X18713858Y-172556534D01*
X18713861Y-172556544D01*
X18770078Y-172692266D01*
X18770083Y-172692275D01*
X18851698Y-172814419D01*
X18851701Y-172814423D01*
X18955576Y-172918298D01*
X18955580Y-172918301D01*
X19077724Y-172999916D01*
X19077730Y-172999919D01*
X19077731Y-172999920D01*
X19213458Y-173056140D01*
X19357540Y-173084799D01*
X19357544Y-173084800D01*
X19357545Y-173084800D01*
X19504456Y-173084800D01*
X19504457Y-173084799D01*
X19648542Y-173056140D01*
X19784269Y-172999920D01*
X19906420Y-172918301D01*
X20010301Y-172814420D01*
X20091920Y-172692269D01*
X20148140Y-172556542D01*
X20176800Y-172412455D01*
X20176800Y-172265545D01*
X20166150Y-172212003D01*
X26626435Y-172212003D01*
X26646630Y-172391249D01*
X26646631Y-172391254D01*
X26706211Y-172561523D01*
X26748743Y-172629211D01*
X26802184Y-172714262D01*
X26929738Y-172841816D01*
X27082478Y-172937789D01*
X27200778Y-172979184D01*
X27252745Y-172997368D01*
X27252750Y-172997369D01*
X27431996Y-173017565D01*
X27432000Y-173017565D01*
X27432004Y-173017565D01*
X27611249Y-172997369D01*
X27611252Y-172997368D01*
X27611255Y-172997368D01*
X27781522Y-172937789D01*
X27934262Y-172841816D01*
X28061816Y-172714262D01*
X28157789Y-172561522D01*
X28217368Y-172391255D01*
X28237565Y-172212000D01*
X28227364Y-172121465D01*
X28217369Y-172032750D01*
X28217368Y-172032745D01*
X28155489Y-171855905D01*
X28157635Y-171855153D01*
X28148037Y-171796854D01*
X28156391Y-171768407D01*
X28155489Y-171768092D01*
X28217366Y-171591259D01*
X28217369Y-171591246D01*
X28237565Y-171412000D01*
X28237565Y-171411993D01*
X28217369Y-171232747D01*
X28217368Y-171232742D01*
X28157788Y-171062473D01*
X28061815Y-170909734D01*
X27934262Y-170782181D01*
X27781523Y-170686208D01*
X27611254Y-170626628D01*
X27611249Y-170626627D01*
X27432004Y-170606432D01*
X27431996Y-170606432D01*
X27252750Y-170626627D01*
X27252745Y-170626628D01*
X27082476Y-170686208D01*
X26929737Y-170782181D01*
X26802184Y-170909734D01*
X26706211Y-171062473D01*
X26646631Y-171232742D01*
X26646630Y-171232747D01*
X26626435Y-171411993D01*
X26626435Y-171412000D01*
X26646630Y-171591246D01*
X26646633Y-171591259D01*
X26708510Y-171768091D01*
X26706366Y-171768840D01*
X26715960Y-171827158D01*
X26707612Y-171855592D01*
X26708510Y-171855906D01*
X26646633Y-172032737D01*
X26646630Y-172032750D01*
X26626435Y-172211996D01*
X26626435Y-172212003D01*
X20166150Y-172212003D01*
X20148140Y-172121458D01*
X20091920Y-171985731D01*
X20091919Y-171985730D01*
X20091916Y-171985724D01*
X20010301Y-171863580D01*
X20010298Y-171863576D01*
X19906423Y-171759701D01*
X19906419Y-171759698D01*
X19784275Y-171678083D01*
X19784266Y-171678078D01*
X19648544Y-171621861D01*
X19648545Y-171621861D01*
X19648542Y-171621860D01*
X19648538Y-171621859D01*
X19648534Y-171621858D01*
X19504459Y-171593200D01*
X19504455Y-171593200D01*
X19357545Y-171593200D01*
X19357540Y-171593200D01*
X19213465Y-171621858D01*
X19213455Y-171621861D01*
X19077733Y-171678078D01*
X19077724Y-171678083D01*
X18955580Y-171759698D01*
X18955576Y-171759701D01*
X18851701Y-171863576D01*
X18851698Y-171863580D01*
X18770083Y-171985724D01*
X18770078Y-171985733D01*
X18713861Y-172121455D01*
X18713858Y-172121465D01*
X18685200Y-172265540D01*
X18685200Y-172412459D01*
X15980500Y-172412459D01*
X15980500Y-170434003D01*
X16847435Y-170434003D01*
X16867630Y-170613249D01*
X16867631Y-170613254D01*
X16927211Y-170783523D01*
X17006515Y-170909734D01*
X17023184Y-170936262D01*
X17150738Y-171063816D01*
X17303478Y-171159789D01*
X17473745Y-171219368D01*
X17473750Y-171219369D01*
X17652996Y-171239565D01*
X17653000Y-171239565D01*
X17653004Y-171239565D01*
X17832249Y-171219369D01*
X17832252Y-171219368D01*
X17832255Y-171219368D01*
X18002522Y-171159789D01*
X18155262Y-171063816D01*
X18282816Y-170936262D01*
X18378789Y-170783522D01*
X18438368Y-170613255D01*
X18458565Y-170434000D01*
X18438368Y-170254745D01*
X18378789Y-170084478D01*
X18282816Y-169931738D01*
X18155262Y-169804184D01*
X18002523Y-169708211D01*
X17832254Y-169648631D01*
X17832249Y-169648630D01*
X17653004Y-169628435D01*
X17652996Y-169628435D01*
X17473750Y-169648630D01*
X17473745Y-169648631D01*
X17303476Y-169708211D01*
X17150737Y-169804184D01*
X17023184Y-169931737D01*
X16927211Y-170084476D01*
X16867631Y-170254745D01*
X16867630Y-170254750D01*
X16847435Y-170433996D01*
X16847435Y-170434003D01*
X15980500Y-170434003D01*
X15980500Y-165608003D01*
X17609435Y-165608003D01*
X17629630Y-165787249D01*
X17629631Y-165787254D01*
X17689211Y-165957523D01*
X17780000Y-166102011D01*
X17785184Y-166110262D01*
X17912738Y-166237816D01*
X18065478Y-166333789D01*
X18235745Y-166393368D01*
X18235750Y-166393369D01*
X18414996Y-166413565D01*
X18415000Y-166413565D01*
X18415004Y-166413565D01*
X18594249Y-166393369D01*
X18594252Y-166393368D01*
X18594255Y-166393368D01*
X18764522Y-166333789D01*
X18917262Y-166237816D01*
X18962319Y-166192759D01*
X19023642Y-166159274D01*
X19093334Y-166164258D01*
X19137681Y-166192759D01*
X19182738Y-166237816D01*
X19335478Y-166333789D01*
X19505745Y-166393368D01*
X19505750Y-166393369D01*
X19684996Y-166413565D01*
X19685000Y-166413565D01*
X19685004Y-166413565D01*
X19864249Y-166393369D01*
X19864252Y-166393368D01*
X19864255Y-166393368D01*
X20034522Y-166333789D01*
X20187262Y-166237816D01*
X20232319Y-166192759D01*
X20293642Y-166159274D01*
X20363334Y-166164258D01*
X20407681Y-166192759D01*
X20452738Y-166237816D01*
X20605478Y-166333789D01*
X20775745Y-166393368D01*
X20775750Y-166393369D01*
X20954996Y-166413565D01*
X20955000Y-166413565D01*
X20955004Y-166413565D01*
X21134249Y-166393369D01*
X21134252Y-166393368D01*
X21134255Y-166393368D01*
X21304522Y-166333789D01*
X21457262Y-166237816D01*
X21584816Y-166110262D01*
X21680789Y-165957522D01*
X21740368Y-165787255D01*
X21760565Y-165608000D01*
X21740368Y-165428745D01*
X21680789Y-165258478D01*
X21584816Y-165105738D01*
X21457262Y-164978184D01*
X21304523Y-164882211D01*
X21134254Y-164822631D01*
X21134249Y-164822630D01*
X20955004Y-164802435D01*
X20954996Y-164802435D01*
X20775750Y-164822630D01*
X20775745Y-164822631D01*
X20605476Y-164882211D01*
X20452737Y-164978184D01*
X20407680Y-165023241D01*
X20346357Y-165056725D01*
X20276665Y-165051740D01*
X20232320Y-165023241D01*
X20187263Y-164978185D01*
X20187262Y-164978184D01*
X20034523Y-164882211D01*
X19864254Y-164822631D01*
X19864249Y-164822630D01*
X19685004Y-164802435D01*
X19684996Y-164802435D01*
X19505750Y-164822630D01*
X19505745Y-164822631D01*
X19335476Y-164882211D01*
X19182737Y-164978184D01*
X19137680Y-165023241D01*
X19076357Y-165056725D01*
X19006665Y-165051740D01*
X18962320Y-165023241D01*
X18917263Y-164978185D01*
X18917262Y-164978184D01*
X18764523Y-164882211D01*
X18594254Y-164822631D01*
X18594249Y-164822630D01*
X18415004Y-164802435D01*
X18414996Y-164802435D01*
X18235750Y-164822630D01*
X18235745Y-164822631D01*
X18065476Y-164882211D01*
X17912737Y-164978184D01*
X17785184Y-165105737D01*
X17689211Y-165258476D01*
X17629631Y-165428745D01*
X17629630Y-165428750D01*
X17609435Y-165607996D01*
X17609435Y-165608003D01*
X15980500Y-165608003D01*
X15980500Y-162610803D01*
X22511635Y-162610803D01*
X22531830Y-162790049D01*
X22531831Y-162790054D01*
X22591411Y-162960323D01*
X22687384Y-163113062D01*
X22814938Y-163240616D01*
X22967678Y-163336589D01*
X23137945Y-163396168D01*
X23137950Y-163396169D01*
X23317196Y-163416365D01*
X23317200Y-163416365D01*
X23317204Y-163416365D01*
X23496449Y-163396169D01*
X23496452Y-163396168D01*
X23496455Y-163396168D01*
X23666722Y-163336589D01*
X23819462Y-163240616D01*
X23947016Y-163113062D01*
X24042989Y-162960322D01*
X24102568Y-162790055D01*
X24122765Y-162610800D01*
X24102568Y-162431545D01*
X24042989Y-162261278D01*
X23947016Y-162108538D01*
X23819462Y-161980984D01*
X23666723Y-161885011D01*
X23496454Y-161825431D01*
X23496449Y-161825430D01*
X23317204Y-161805235D01*
X23317196Y-161805235D01*
X23137950Y-161825430D01*
X23137945Y-161825431D01*
X22967676Y-161885011D01*
X22814937Y-161980984D01*
X22687384Y-162108537D01*
X22591411Y-162261276D01*
X22531831Y-162431545D01*
X22531830Y-162431550D01*
X22511635Y-162610796D01*
X22511635Y-162610803D01*
X15980500Y-162610803D01*
X15980500Y-155295603D01*
X18904835Y-155295603D01*
X18925030Y-155474849D01*
X18925031Y-155474854D01*
X18984611Y-155645123D01*
X19080584Y-155797862D01*
X19208138Y-155925416D01*
X19360878Y-156021389D01*
X19531145Y-156080968D01*
X19531150Y-156080969D01*
X19710396Y-156101165D01*
X19710400Y-156101165D01*
X19710404Y-156101165D01*
X19889649Y-156080969D01*
X19889652Y-156080968D01*
X19889655Y-156080968D01*
X20059922Y-156021389D01*
X20212662Y-155925416D01*
X20340216Y-155797862D01*
X20436189Y-155645122D01*
X20495768Y-155474855D01*
X20515965Y-155295600D01*
X20495768Y-155116345D01*
X20436189Y-154946078D01*
X20340216Y-154793338D01*
X20212662Y-154665784D01*
X20059923Y-154569811D01*
X19889654Y-154510231D01*
X19889649Y-154510230D01*
X19710404Y-154490035D01*
X19710396Y-154490035D01*
X19531150Y-154510230D01*
X19531145Y-154510231D01*
X19360876Y-154569811D01*
X19208137Y-154665784D01*
X19080584Y-154793337D01*
X18984611Y-154946076D01*
X18925031Y-155116345D01*
X18925030Y-155116350D01*
X18904835Y-155295596D01*
X18904835Y-155295603D01*
X15980500Y-155295603D01*
X15980500Y-150484500D01*
X16000185Y-150417461D01*
X16052989Y-150371706D01*
X16104500Y-150360500D01*
X29855500Y-150360500D01*
X29922539Y-150380185D01*
G37*
G04 #@! TD.AperFunction*
M02*
