%TF.GenerationSoftware,KiCad,Pcbnew,8.0.0-8.0.0-1~ubuntu20.04.1*%
%TF.CreationDate,2025-04-06T10:39:28+02:00*%
%TF.ProjectId,sensor-pressure,73656e73-6f72-42d7-9072-657373757265,1*%
%TF.SameCoordinates,Original*%
%TF.FileFunction,Drillmap*%
%TF.FilePolarity,Positive*%
%FSLAX45Y45*%
G04 Gerber Fmt 4.5, Leading zero omitted, Abs format (unit mm)*
G04 Created by KiCad (PCBNEW 8.0.0-8.0.0-1~ubuntu20.04.1) date 2025-04-06 10:39:28*
%MOMM*%
%LPD*%
G01*
G04 APERTURE LIST*
%ADD10C,0.050000*%
%ADD11C,0.200000*%
%ADD12C,0.100000*%
G04 APERTURE END LIST*
D10*
X1548000Y-14986000D02*
X3048000Y-14986000D01*
X3048000Y-19736000D01*
X1548000Y-19736000D01*
X1548000Y-14986000D01*
D11*
D12*
X1791970Y-17692370D02*
X1891030Y-17791430D01*
X1891030Y-17692370D02*
X1791970Y-17791430D01*
X1893570Y-17184370D02*
X1992630Y-17283430D01*
X1992630Y-17184370D02*
X1893570Y-17283430D01*
X1995170Y-17692370D02*
X2094230Y-17791430D01*
X2094230Y-17692370D02*
X1995170Y-17791430D01*
D11*
X1806277Y-20049984D02*
X1806277Y-19849984D01*
X1806277Y-19849984D02*
X1853896Y-19849984D01*
X1853896Y-19849984D02*
X1882467Y-19859508D01*
X1882467Y-19859508D02*
X1901515Y-19878555D01*
X1901515Y-19878555D02*
X1911039Y-19897603D01*
X1911039Y-19897603D02*
X1920562Y-19935698D01*
X1920562Y-19935698D02*
X1920562Y-19964270D01*
X1920562Y-19964270D02*
X1911039Y-20002365D01*
X1911039Y-20002365D02*
X1901515Y-20021412D01*
X1901515Y-20021412D02*
X1882467Y-20040460D01*
X1882467Y-20040460D02*
X1853896Y-20049984D01*
X1853896Y-20049984D02*
X1806277Y-20049984D01*
X2006277Y-20049984D02*
X2006277Y-19916650D01*
X2006277Y-19954746D02*
X2015801Y-19935698D01*
X2015801Y-19935698D02*
X2025324Y-19926174D01*
X2025324Y-19926174D02*
X2044372Y-19916650D01*
X2044372Y-19916650D02*
X2063420Y-19916650D01*
X2130086Y-20049984D02*
X2130086Y-19916650D01*
X2130086Y-19849984D02*
X2120563Y-19859508D01*
X2120563Y-19859508D02*
X2130086Y-19869031D01*
X2130086Y-19869031D02*
X2139610Y-19859508D01*
X2139610Y-19859508D02*
X2130086Y-19849984D01*
X2130086Y-19849984D02*
X2130086Y-19869031D01*
X2253896Y-20049984D02*
X2234848Y-20040460D01*
X2234848Y-20040460D02*
X2225324Y-20021412D01*
X2225324Y-20021412D02*
X2225324Y-19849984D01*
X2358658Y-20049984D02*
X2339610Y-20040460D01*
X2339610Y-20040460D02*
X2330086Y-20021412D01*
X2330086Y-20021412D02*
X2330086Y-19849984D01*
X2587229Y-20049984D02*
X2587229Y-19849984D01*
X2587229Y-19849984D02*
X2653896Y-19992841D01*
X2653896Y-19992841D02*
X2720563Y-19849984D01*
X2720563Y-19849984D02*
X2720563Y-20049984D01*
X2901515Y-20049984D02*
X2901515Y-19945222D01*
X2901515Y-19945222D02*
X2891991Y-19926174D01*
X2891991Y-19926174D02*
X2872943Y-19916650D01*
X2872943Y-19916650D02*
X2834848Y-19916650D01*
X2834848Y-19916650D02*
X2815801Y-19926174D01*
X2901515Y-20040460D02*
X2882467Y-20049984D01*
X2882467Y-20049984D02*
X2834848Y-20049984D01*
X2834848Y-20049984D02*
X2815801Y-20040460D01*
X2815801Y-20040460D02*
X2806277Y-20021412D01*
X2806277Y-20021412D02*
X2806277Y-20002365D01*
X2806277Y-20002365D02*
X2815801Y-19983317D01*
X2815801Y-19983317D02*
X2834848Y-19973793D01*
X2834848Y-19973793D02*
X2882467Y-19973793D01*
X2882467Y-19973793D02*
X2901515Y-19964270D01*
X2996753Y-19916650D02*
X2996753Y-20116650D01*
X2996753Y-19926174D02*
X3015801Y-19916650D01*
X3015801Y-19916650D02*
X3053896Y-19916650D01*
X3053896Y-19916650D02*
X3072943Y-19926174D01*
X3072943Y-19926174D02*
X3082467Y-19935698D01*
X3082467Y-19935698D02*
X3091991Y-19954746D01*
X3091991Y-19954746D02*
X3091991Y-20011889D01*
X3091991Y-20011889D02*
X3082467Y-20030936D01*
X3082467Y-20030936D02*
X3072943Y-20040460D01*
X3072943Y-20040460D02*
X3053896Y-20049984D01*
X3053896Y-20049984D02*
X3015801Y-20049984D01*
X3015801Y-20049984D02*
X2996753Y-20040460D01*
X3177705Y-20030936D02*
X3187229Y-20040460D01*
X3187229Y-20040460D02*
X3177705Y-20049984D01*
X3177705Y-20049984D02*
X3168182Y-20040460D01*
X3168182Y-20040460D02*
X3177705Y-20030936D01*
X3177705Y-20030936D02*
X3177705Y-20049984D01*
X3177705Y-19926174D02*
X3187229Y-19935698D01*
X3187229Y-19935698D02*
X3177705Y-19945222D01*
X3177705Y-19945222D02*
X3168182Y-19935698D01*
X3168182Y-19935698D02*
X3177705Y-19926174D01*
X3177705Y-19926174D02*
X3177705Y-19945222D01*
D12*
X1446440Y-20328970D02*
X1545500Y-20428030D01*
X1545500Y-20328970D02*
X1446440Y-20428030D01*
D11*
X1844372Y-20269984D02*
X1863420Y-20269984D01*
X1863420Y-20269984D02*
X1882467Y-20279508D01*
X1882467Y-20279508D02*
X1891991Y-20289031D01*
X1891991Y-20289031D02*
X1901515Y-20308079D01*
X1901515Y-20308079D02*
X1911039Y-20346174D01*
X1911039Y-20346174D02*
X1911039Y-20393793D01*
X1911039Y-20393793D02*
X1901515Y-20431889D01*
X1901515Y-20431889D02*
X1891991Y-20450936D01*
X1891991Y-20450936D02*
X1882467Y-20460460D01*
X1882467Y-20460460D02*
X1863420Y-20469984D01*
X1863420Y-20469984D02*
X1844372Y-20469984D01*
X1844372Y-20469984D02*
X1825324Y-20460460D01*
X1825324Y-20460460D02*
X1815801Y-20450936D01*
X1815801Y-20450936D02*
X1806277Y-20431889D01*
X1806277Y-20431889D02*
X1796753Y-20393793D01*
X1796753Y-20393793D02*
X1796753Y-20346174D01*
X1796753Y-20346174D02*
X1806277Y-20308079D01*
X1806277Y-20308079D02*
X1815801Y-20289031D01*
X1815801Y-20289031D02*
X1825324Y-20279508D01*
X1825324Y-20279508D02*
X1844372Y-20269984D01*
X1996753Y-20450936D02*
X2006277Y-20460460D01*
X2006277Y-20460460D02*
X1996753Y-20469984D01*
X1996753Y-20469984D02*
X1987229Y-20460460D01*
X1987229Y-20460460D02*
X1996753Y-20450936D01*
X1996753Y-20450936D02*
X1996753Y-20469984D01*
X2101515Y-20469984D02*
X2139610Y-20469984D01*
X2139610Y-20469984D02*
X2158658Y-20460460D01*
X2158658Y-20460460D02*
X2168182Y-20450936D01*
X2168182Y-20450936D02*
X2187229Y-20422365D01*
X2187229Y-20422365D02*
X2196753Y-20384270D01*
X2196753Y-20384270D02*
X2196753Y-20308079D01*
X2196753Y-20308079D02*
X2187229Y-20289031D01*
X2187229Y-20289031D02*
X2177705Y-20279508D01*
X2177705Y-20279508D02*
X2158658Y-20269984D01*
X2158658Y-20269984D02*
X2120563Y-20269984D01*
X2120563Y-20269984D02*
X2101515Y-20279508D01*
X2101515Y-20279508D02*
X2091991Y-20289031D01*
X2091991Y-20289031D02*
X2082467Y-20308079D01*
X2082467Y-20308079D02*
X2082467Y-20355698D01*
X2082467Y-20355698D02*
X2091991Y-20374746D01*
X2091991Y-20374746D02*
X2101515Y-20384270D01*
X2101515Y-20384270D02*
X2120563Y-20393793D01*
X2120563Y-20393793D02*
X2158658Y-20393793D01*
X2158658Y-20393793D02*
X2177705Y-20384270D01*
X2177705Y-20384270D02*
X2187229Y-20374746D01*
X2187229Y-20374746D02*
X2196753Y-20355698D01*
X2291991Y-20469984D02*
X2330086Y-20469984D01*
X2330086Y-20469984D02*
X2349134Y-20460460D01*
X2349134Y-20460460D02*
X2358658Y-20450936D01*
X2358658Y-20450936D02*
X2377705Y-20422365D01*
X2377705Y-20422365D02*
X2387229Y-20384270D01*
X2387229Y-20384270D02*
X2387229Y-20308079D01*
X2387229Y-20308079D02*
X2377705Y-20289031D01*
X2377705Y-20289031D02*
X2368182Y-20279508D01*
X2368182Y-20279508D02*
X2349134Y-20269984D01*
X2349134Y-20269984D02*
X2311039Y-20269984D01*
X2311039Y-20269984D02*
X2291991Y-20279508D01*
X2291991Y-20279508D02*
X2282467Y-20289031D01*
X2282467Y-20289031D02*
X2272944Y-20308079D01*
X2272944Y-20308079D02*
X2272944Y-20355698D01*
X2272944Y-20355698D02*
X2282467Y-20374746D01*
X2282467Y-20374746D02*
X2291991Y-20384270D01*
X2291991Y-20384270D02*
X2311039Y-20393793D01*
X2311039Y-20393793D02*
X2349134Y-20393793D01*
X2349134Y-20393793D02*
X2368182Y-20384270D01*
X2368182Y-20384270D02*
X2377705Y-20374746D01*
X2377705Y-20374746D02*
X2387229Y-20355698D01*
X2577705Y-20469984D02*
X2463420Y-20469984D01*
X2520563Y-20469984D02*
X2520563Y-20269984D01*
X2520563Y-20269984D02*
X2501515Y-20298555D01*
X2501515Y-20298555D02*
X2482467Y-20317603D01*
X2482467Y-20317603D02*
X2463420Y-20327127D01*
X2663420Y-20469984D02*
X2663420Y-20336650D01*
X2663420Y-20355698D02*
X2672944Y-20346174D01*
X2672944Y-20346174D02*
X2691991Y-20336650D01*
X2691991Y-20336650D02*
X2720563Y-20336650D01*
X2720563Y-20336650D02*
X2739610Y-20346174D01*
X2739610Y-20346174D02*
X2749134Y-20365222D01*
X2749134Y-20365222D02*
X2749134Y-20469984D01*
X2749134Y-20365222D02*
X2758658Y-20346174D01*
X2758658Y-20346174D02*
X2777705Y-20336650D01*
X2777705Y-20336650D02*
X2806277Y-20336650D01*
X2806277Y-20336650D02*
X2825324Y-20346174D01*
X2825324Y-20346174D02*
X2834848Y-20365222D01*
X2834848Y-20365222D02*
X2834848Y-20469984D01*
X2930086Y-20469984D02*
X2930086Y-20336650D01*
X2930086Y-20355698D02*
X2939610Y-20346174D01*
X2939610Y-20346174D02*
X2958658Y-20336650D01*
X2958658Y-20336650D02*
X2987229Y-20336650D01*
X2987229Y-20336650D02*
X3006277Y-20346174D01*
X3006277Y-20346174D02*
X3015801Y-20365222D01*
X3015801Y-20365222D02*
X3015801Y-20469984D01*
X3015801Y-20365222D02*
X3025324Y-20346174D01*
X3025324Y-20346174D02*
X3044372Y-20336650D01*
X3044372Y-20336650D02*
X3072943Y-20336650D01*
X3072943Y-20336650D02*
X3091991Y-20346174D01*
X3091991Y-20346174D02*
X3101515Y-20365222D01*
X3101515Y-20365222D02*
X3101515Y-20469984D01*
X3491991Y-20260460D02*
X3320563Y-20517603D01*
X3749134Y-20269984D02*
X3768182Y-20269984D01*
X3768182Y-20269984D02*
X3787229Y-20279508D01*
X3787229Y-20279508D02*
X3796753Y-20289031D01*
X3796753Y-20289031D02*
X3806277Y-20308079D01*
X3806277Y-20308079D02*
X3815801Y-20346174D01*
X3815801Y-20346174D02*
X3815801Y-20393793D01*
X3815801Y-20393793D02*
X3806277Y-20431889D01*
X3806277Y-20431889D02*
X3796753Y-20450936D01*
X3796753Y-20450936D02*
X3787229Y-20460460D01*
X3787229Y-20460460D02*
X3768182Y-20469984D01*
X3768182Y-20469984D02*
X3749134Y-20469984D01*
X3749134Y-20469984D02*
X3730086Y-20460460D01*
X3730086Y-20460460D02*
X3720563Y-20450936D01*
X3720563Y-20450936D02*
X3711039Y-20431889D01*
X3711039Y-20431889D02*
X3701515Y-20393793D01*
X3701515Y-20393793D02*
X3701515Y-20346174D01*
X3701515Y-20346174D02*
X3711039Y-20308079D01*
X3711039Y-20308079D02*
X3720563Y-20289031D01*
X3720563Y-20289031D02*
X3730086Y-20279508D01*
X3730086Y-20279508D02*
X3749134Y-20269984D01*
X3901515Y-20450936D02*
X3911039Y-20460460D01*
X3911039Y-20460460D02*
X3901515Y-20469984D01*
X3901515Y-20469984D02*
X3891991Y-20460460D01*
X3891991Y-20460460D02*
X3901515Y-20450936D01*
X3901515Y-20450936D02*
X3901515Y-20469984D01*
X4034848Y-20269984D02*
X4053896Y-20269984D01*
X4053896Y-20269984D02*
X4072944Y-20279508D01*
X4072944Y-20279508D02*
X4082467Y-20289031D01*
X4082467Y-20289031D02*
X4091991Y-20308079D01*
X4091991Y-20308079D02*
X4101515Y-20346174D01*
X4101515Y-20346174D02*
X4101515Y-20393793D01*
X4101515Y-20393793D02*
X4091991Y-20431889D01*
X4091991Y-20431889D02*
X4082467Y-20450936D01*
X4082467Y-20450936D02*
X4072944Y-20460460D01*
X4072944Y-20460460D02*
X4053896Y-20469984D01*
X4053896Y-20469984D02*
X4034848Y-20469984D01*
X4034848Y-20469984D02*
X4015801Y-20460460D01*
X4015801Y-20460460D02*
X4006277Y-20450936D01*
X4006277Y-20450936D02*
X3996753Y-20431889D01*
X3996753Y-20431889D02*
X3987229Y-20393793D01*
X3987229Y-20393793D02*
X3987229Y-20346174D01*
X3987229Y-20346174D02*
X3996753Y-20308079D01*
X3996753Y-20308079D02*
X4006277Y-20289031D01*
X4006277Y-20289031D02*
X4015801Y-20279508D01*
X4015801Y-20279508D02*
X4034848Y-20269984D01*
X4168182Y-20269984D02*
X4291991Y-20269984D01*
X4291991Y-20269984D02*
X4225325Y-20346174D01*
X4225325Y-20346174D02*
X4253896Y-20346174D01*
X4253896Y-20346174D02*
X4272944Y-20355698D01*
X4272944Y-20355698D02*
X4282468Y-20365222D01*
X4282468Y-20365222D02*
X4291991Y-20384270D01*
X4291991Y-20384270D02*
X4291991Y-20431889D01*
X4291991Y-20431889D02*
X4282468Y-20450936D01*
X4282468Y-20450936D02*
X4272944Y-20460460D01*
X4272944Y-20460460D02*
X4253896Y-20469984D01*
X4253896Y-20469984D02*
X4196753Y-20469984D01*
X4196753Y-20469984D02*
X4177706Y-20460460D01*
X4177706Y-20460460D02*
X4168182Y-20450936D01*
X4387229Y-20469984D02*
X4425325Y-20469984D01*
X4425325Y-20469984D02*
X4444372Y-20460460D01*
X4444372Y-20460460D02*
X4453896Y-20450936D01*
X4453896Y-20450936D02*
X4472944Y-20422365D01*
X4472944Y-20422365D02*
X4482468Y-20384270D01*
X4482468Y-20384270D02*
X4482468Y-20308079D01*
X4482468Y-20308079D02*
X4472944Y-20289031D01*
X4472944Y-20289031D02*
X4463420Y-20279508D01*
X4463420Y-20279508D02*
X4444372Y-20269984D01*
X4444372Y-20269984D02*
X4406277Y-20269984D01*
X4406277Y-20269984D02*
X4387229Y-20279508D01*
X4387229Y-20279508D02*
X4377706Y-20289031D01*
X4377706Y-20289031D02*
X4368182Y-20308079D01*
X4368182Y-20308079D02*
X4368182Y-20355698D01*
X4368182Y-20355698D02*
X4377706Y-20374746D01*
X4377706Y-20374746D02*
X4387229Y-20384270D01*
X4387229Y-20384270D02*
X4406277Y-20393793D01*
X4406277Y-20393793D02*
X4444372Y-20393793D01*
X4444372Y-20393793D02*
X4463420Y-20384270D01*
X4463420Y-20384270D02*
X4472944Y-20374746D01*
X4472944Y-20374746D02*
X4482468Y-20355698D01*
X4606277Y-20269984D02*
X4625325Y-20269984D01*
X4625325Y-20269984D02*
X4644372Y-20279508D01*
X4644372Y-20279508D02*
X4653896Y-20289031D01*
X4653896Y-20289031D02*
X4663420Y-20308079D01*
X4663420Y-20308079D02*
X4672944Y-20346174D01*
X4672944Y-20346174D02*
X4672944Y-20393793D01*
X4672944Y-20393793D02*
X4663420Y-20431889D01*
X4663420Y-20431889D02*
X4653896Y-20450936D01*
X4653896Y-20450936D02*
X4644372Y-20460460D01*
X4644372Y-20460460D02*
X4625325Y-20469984D01*
X4625325Y-20469984D02*
X4606277Y-20469984D01*
X4606277Y-20469984D02*
X4587229Y-20460460D01*
X4587229Y-20460460D02*
X4577706Y-20450936D01*
X4577706Y-20450936D02*
X4568182Y-20431889D01*
X4568182Y-20431889D02*
X4558658Y-20393793D01*
X4558658Y-20393793D02*
X4558658Y-20346174D01*
X4558658Y-20346174D02*
X4568182Y-20308079D01*
X4568182Y-20308079D02*
X4577706Y-20289031D01*
X4577706Y-20289031D02*
X4587229Y-20279508D01*
X4587229Y-20279508D02*
X4606277Y-20269984D01*
X4749134Y-20269984D02*
X4749134Y-20308079D01*
X4825325Y-20269984D02*
X4825325Y-20308079D01*
X5120563Y-20546174D02*
X5111039Y-20536650D01*
X5111039Y-20536650D02*
X5091991Y-20508079D01*
X5091991Y-20508079D02*
X5082468Y-20489031D01*
X5082468Y-20489031D02*
X5072944Y-20460460D01*
X5072944Y-20460460D02*
X5063420Y-20412841D01*
X5063420Y-20412841D02*
X5063420Y-20374746D01*
X5063420Y-20374746D02*
X5072944Y-20327127D01*
X5072944Y-20327127D02*
X5082468Y-20298555D01*
X5082468Y-20298555D02*
X5091991Y-20279508D01*
X5091991Y-20279508D02*
X5111039Y-20250936D01*
X5111039Y-20250936D02*
X5120563Y-20241412D01*
X5177706Y-20269984D02*
X5301515Y-20269984D01*
X5301515Y-20269984D02*
X5234849Y-20346174D01*
X5234849Y-20346174D02*
X5263420Y-20346174D01*
X5263420Y-20346174D02*
X5282468Y-20355698D01*
X5282468Y-20355698D02*
X5291991Y-20365222D01*
X5291991Y-20365222D02*
X5301515Y-20384270D01*
X5301515Y-20384270D02*
X5301515Y-20431889D01*
X5301515Y-20431889D02*
X5291991Y-20450936D01*
X5291991Y-20450936D02*
X5282468Y-20460460D01*
X5282468Y-20460460D02*
X5263420Y-20469984D01*
X5263420Y-20469984D02*
X5206277Y-20469984D01*
X5206277Y-20469984D02*
X5187230Y-20460460D01*
X5187230Y-20460460D02*
X5177706Y-20450936D01*
X5539611Y-20469984D02*
X5539611Y-20269984D01*
X5625325Y-20469984D02*
X5625325Y-20365222D01*
X5625325Y-20365222D02*
X5615801Y-20346174D01*
X5615801Y-20346174D02*
X5596753Y-20336650D01*
X5596753Y-20336650D02*
X5568182Y-20336650D01*
X5568182Y-20336650D02*
X5549134Y-20346174D01*
X5549134Y-20346174D02*
X5539611Y-20355698D01*
X5749134Y-20469984D02*
X5730087Y-20460460D01*
X5730087Y-20460460D02*
X5720563Y-20450936D01*
X5720563Y-20450936D02*
X5711039Y-20431889D01*
X5711039Y-20431889D02*
X5711039Y-20374746D01*
X5711039Y-20374746D02*
X5720563Y-20355698D01*
X5720563Y-20355698D02*
X5730087Y-20346174D01*
X5730087Y-20346174D02*
X5749134Y-20336650D01*
X5749134Y-20336650D02*
X5777706Y-20336650D01*
X5777706Y-20336650D02*
X5796753Y-20346174D01*
X5796753Y-20346174D02*
X5806277Y-20355698D01*
X5806277Y-20355698D02*
X5815801Y-20374746D01*
X5815801Y-20374746D02*
X5815801Y-20431889D01*
X5815801Y-20431889D02*
X5806277Y-20450936D01*
X5806277Y-20450936D02*
X5796753Y-20460460D01*
X5796753Y-20460460D02*
X5777706Y-20469984D01*
X5777706Y-20469984D02*
X5749134Y-20469984D01*
X5930087Y-20469984D02*
X5911039Y-20460460D01*
X5911039Y-20460460D02*
X5901515Y-20441412D01*
X5901515Y-20441412D02*
X5901515Y-20269984D01*
X6082468Y-20460460D02*
X6063420Y-20469984D01*
X6063420Y-20469984D02*
X6025325Y-20469984D01*
X6025325Y-20469984D02*
X6006277Y-20460460D01*
X6006277Y-20460460D02*
X5996753Y-20441412D01*
X5996753Y-20441412D02*
X5996753Y-20365222D01*
X5996753Y-20365222D02*
X6006277Y-20346174D01*
X6006277Y-20346174D02*
X6025325Y-20336650D01*
X6025325Y-20336650D02*
X6063420Y-20336650D01*
X6063420Y-20336650D02*
X6082468Y-20346174D01*
X6082468Y-20346174D02*
X6091991Y-20365222D01*
X6091991Y-20365222D02*
X6091991Y-20384270D01*
X6091991Y-20384270D02*
X5996753Y-20403317D01*
X6168182Y-20460460D02*
X6187230Y-20469984D01*
X6187230Y-20469984D02*
X6225325Y-20469984D01*
X6225325Y-20469984D02*
X6244372Y-20460460D01*
X6244372Y-20460460D02*
X6253896Y-20441412D01*
X6253896Y-20441412D02*
X6253896Y-20431889D01*
X6253896Y-20431889D02*
X6244372Y-20412841D01*
X6244372Y-20412841D02*
X6225325Y-20403317D01*
X6225325Y-20403317D02*
X6196753Y-20403317D01*
X6196753Y-20403317D02*
X6177706Y-20393793D01*
X6177706Y-20393793D02*
X6168182Y-20374746D01*
X6168182Y-20374746D02*
X6168182Y-20365222D01*
X6168182Y-20365222D02*
X6177706Y-20346174D01*
X6177706Y-20346174D02*
X6196753Y-20336650D01*
X6196753Y-20336650D02*
X6225325Y-20336650D01*
X6225325Y-20336650D02*
X6244372Y-20346174D01*
X6320563Y-20546174D02*
X6330087Y-20536650D01*
X6330087Y-20536650D02*
X6349134Y-20508079D01*
X6349134Y-20508079D02*
X6358658Y-20489031D01*
X6358658Y-20489031D02*
X6368182Y-20460460D01*
X6368182Y-20460460D02*
X6377706Y-20412841D01*
X6377706Y-20412841D02*
X6377706Y-20374746D01*
X6377706Y-20374746D02*
X6368182Y-20327127D01*
X6368182Y-20327127D02*
X6358658Y-20298555D01*
X6358658Y-20298555D02*
X6349134Y-20279508D01*
X6349134Y-20279508D02*
X6330087Y-20250936D01*
X6330087Y-20250936D02*
X6320563Y-20241412D01*
X6682468Y-20546174D02*
X6672944Y-20536650D01*
X6672944Y-20536650D02*
X6653896Y-20508079D01*
X6653896Y-20508079D02*
X6644372Y-20489031D01*
X6644372Y-20489031D02*
X6634849Y-20460460D01*
X6634849Y-20460460D02*
X6625325Y-20412841D01*
X6625325Y-20412841D02*
X6625325Y-20374746D01*
X6625325Y-20374746D02*
X6634849Y-20327127D01*
X6634849Y-20327127D02*
X6644372Y-20298555D01*
X6644372Y-20298555D02*
X6653896Y-20279508D01*
X6653896Y-20279508D02*
X6672944Y-20250936D01*
X6672944Y-20250936D02*
X6682468Y-20241412D01*
X6758658Y-20336650D02*
X6758658Y-20469984D01*
X6758658Y-20355698D02*
X6768182Y-20346174D01*
X6768182Y-20346174D02*
X6787230Y-20336650D01*
X6787230Y-20336650D02*
X6815801Y-20336650D01*
X6815801Y-20336650D02*
X6834849Y-20346174D01*
X6834849Y-20346174D02*
X6844372Y-20365222D01*
X6844372Y-20365222D02*
X6844372Y-20469984D01*
X6968182Y-20469984D02*
X6949134Y-20460460D01*
X6949134Y-20460460D02*
X6939611Y-20450936D01*
X6939611Y-20450936D02*
X6930087Y-20431889D01*
X6930087Y-20431889D02*
X6930087Y-20374746D01*
X6930087Y-20374746D02*
X6939611Y-20355698D01*
X6939611Y-20355698D02*
X6949134Y-20346174D01*
X6949134Y-20346174D02*
X6968182Y-20336650D01*
X6968182Y-20336650D02*
X6996753Y-20336650D01*
X6996753Y-20336650D02*
X7015801Y-20346174D01*
X7015801Y-20346174D02*
X7025325Y-20355698D01*
X7025325Y-20355698D02*
X7034849Y-20374746D01*
X7034849Y-20374746D02*
X7034849Y-20431889D01*
X7034849Y-20431889D02*
X7025325Y-20450936D01*
X7025325Y-20450936D02*
X7015801Y-20460460D01*
X7015801Y-20460460D02*
X6996753Y-20469984D01*
X6996753Y-20469984D02*
X6968182Y-20469984D01*
X7091992Y-20336650D02*
X7168182Y-20336650D01*
X7120563Y-20269984D02*
X7120563Y-20441412D01*
X7120563Y-20441412D02*
X7130087Y-20460460D01*
X7130087Y-20460460D02*
X7149134Y-20469984D01*
X7149134Y-20469984D02*
X7168182Y-20469984D01*
X7387230Y-20336650D02*
X7387230Y-20536650D01*
X7387230Y-20346174D02*
X7406277Y-20336650D01*
X7406277Y-20336650D02*
X7444373Y-20336650D01*
X7444373Y-20336650D02*
X7463420Y-20346174D01*
X7463420Y-20346174D02*
X7472944Y-20355698D01*
X7472944Y-20355698D02*
X7482468Y-20374746D01*
X7482468Y-20374746D02*
X7482468Y-20431889D01*
X7482468Y-20431889D02*
X7472944Y-20450936D01*
X7472944Y-20450936D02*
X7463420Y-20460460D01*
X7463420Y-20460460D02*
X7444373Y-20469984D01*
X7444373Y-20469984D02*
X7406277Y-20469984D01*
X7406277Y-20469984D02*
X7387230Y-20460460D01*
X7596753Y-20469984D02*
X7577706Y-20460460D01*
X7577706Y-20460460D02*
X7568182Y-20441412D01*
X7568182Y-20441412D02*
X7568182Y-20269984D01*
X7758658Y-20469984D02*
X7758658Y-20365222D01*
X7758658Y-20365222D02*
X7749134Y-20346174D01*
X7749134Y-20346174D02*
X7730087Y-20336650D01*
X7730087Y-20336650D02*
X7691992Y-20336650D01*
X7691992Y-20336650D02*
X7672944Y-20346174D01*
X7758658Y-20460460D02*
X7739611Y-20469984D01*
X7739611Y-20469984D02*
X7691992Y-20469984D01*
X7691992Y-20469984D02*
X7672944Y-20460460D01*
X7672944Y-20460460D02*
X7663420Y-20441412D01*
X7663420Y-20441412D02*
X7663420Y-20422365D01*
X7663420Y-20422365D02*
X7672944Y-20403317D01*
X7672944Y-20403317D02*
X7691992Y-20393793D01*
X7691992Y-20393793D02*
X7739611Y-20393793D01*
X7739611Y-20393793D02*
X7758658Y-20384270D01*
X7825325Y-20336650D02*
X7901515Y-20336650D01*
X7853896Y-20269984D02*
X7853896Y-20441412D01*
X7853896Y-20441412D02*
X7863420Y-20460460D01*
X7863420Y-20460460D02*
X7882468Y-20469984D01*
X7882468Y-20469984D02*
X7901515Y-20469984D01*
X8044373Y-20460460D02*
X8025325Y-20469984D01*
X8025325Y-20469984D02*
X7987230Y-20469984D01*
X7987230Y-20469984D02*
X7968182Y-20460460D01*
X7968182Y-20460460D02*
X7958658Y-20441412D01*
X7958658Y-20441412D02*
X7958658Y-20365222D01*
X7958658Y-20365222D02*
X7968182Y-20346174D01*
X7968182Y-20346174D02*
X7987230Y-20336650D01*
X7987230Y-20336650D02*
X8025325Y-20336650D01*
X8025325Y-20336650D02*
X8044373Y-20346174D01*
X8044373Y-20346174D02*
X8053896Y-20365222D01*
X8053896Y-20365222D02*
X8053896Y-20384270D01*
X8053896Y-20384270D02*
X7958658Y-20403317D01*
X8225325Y-20469984D02*
X8225325Y-20269984D01*
X8225325Y-20460460D02*
X8206277Y-20469984D01*
X8206277Y-20469984D02*
X8168182Y-20469984D01*
X8168182Y-20469984D02*
X8149134Y-20460460D01*
X8149134Y-20460460D02*
X8139611Y-20450936D01*
X8139611Y-20450936D02*
X8130087Y-20431889D01*
X8130087Y-20431889D02*
X8130087Y-20374746D01*
X8130087Y-20374746D02*
X8139611Y-20355698D01*
X8139611Y-20355698D02*
X8149134Y-20346174D01*
X8149134Y-20346174D02*
X8168182Y-20336650D01*
X8168182Y-20336650D02*
X8206277Y-20336650D01*
X8206277Y-20336650D02*
X8225325Y-20346174D01*
X8301515Y-20546174D02*
X8311039Y-20536650D01*
X8311039Y-20536650D02*
X8330087Y-20508079D01*
X8330087Y-20508079D02*
X8339611Y-20489031D01*
X8339611Y-20489031D02*
X8349134Y-20460460D01*
X8349134Y-20460460D02*
X8358658Y-20412841D01*
X8358658Y-20412841D02*
X8358658Y-20374746D01*
X8358658Y-20374746D02*
X8349134Y-20327127D01*
X8349134Y-20327127D02*
X8339611Y-20298555D01*
X8339611Y-20298555D02*
X8330087Y-20279508D01*
X8330087Y-20279508D02*
X8311039Y-20250936D01*
X8311039Y-20250936D02*
X8301515Y-20241412D01*
M02*
