M48
; DRILL file {KiCad 8.0.0-8.0.0-1~ubuntu20.04.1} date 2025-04-06T10:39:27+0200
; FORMAT={-:-/ absolute / metric / decimal}
; #@! TF.CreationDate,2025-04-06T10:39:27+02:00
; #@! TF.GenerationSoftware,Kicad,Pcbnew,8.0.0-8.0.0-1~ubuntu20.04.1
; #@! TF.FileFunction,Plated,1,4,PTH
FMAT,2
METRIC
; #@! TA.AperFunction,Plated,PTH,ViaDrill
T1C0.300
; #@! TA.AperFunction,Plated,PTH,ComponentDrill
T2C0.750
%
G90
G05
T1
X17.653Y-170.434
X17.907Y-173.609
X17.907Y-174.879
X17.907Y-176.149
X18.415Y-165.608
X18.923Y-168.783
X19.685Y-165.608
X19.71Y-155.296
X20.93Y-163.068
X20.955Y-165.608
X23.317Y-162.611
X23.825Y-187.096
X23.876Y-184.023
X23.907Y-170.011
X24.384Y-181.61
X24.486Y-179.121
X25.044Y-168.25
X25.4Y-173.355
X26.01Y-155.346
X26.06Y-163.525
X26.721Y-186.792
X27.026Y-181.61
X27.33Y-173.584
X27.432Y-171.412
X27.432Y-172.212
X28.289Y-175.381
T2
X19.86Y-191.135
X21.86Y-191.135
X23.86Y-191.135
X25.86Y-191.135
M30
